<?xml version="1.0" encoding="UTF-8" standalone="no"?>
<!-- Created with Inkscape (http://www.inkscape.org/) -->

<svg
   xmlns:dc="http://purl.org/dc/elements/1.1/"
   xmlns:cc="http://creativecommons.org/ns#"
   xmlns:rdf="http://www.w3.org/1999/02/22-rdf-syntax-ns#"
   xmlns:svg="http://www.w3.org/2000/svg"
   xmlns="http://www.w3.org/2000/svg"
   xmlns:sodipodi="http://sodipodi.sourceforge.net/DTD/sodipodi-0.dtd"
   xmlns:inkscape="http://www.inkscape.org/namespaces/inkscape"
   width="34.133335"
   height="34.133335"
   id="svg2"
   version="1.1"
   inkscape:version="0.92.1 r15371"
   sodipodi:docname="redo.svg">
  <defs
     id="defs4">
    <inkscape:path-effect
       effect="spiro"
       id="path-effect3768"
       is_visible="true" />
    <inkscape:path-effect
       effect="bspline"
       id="path-effect3764"
       is_visible="true"
       weight="33.333333"
       steps="2"
       helper_size="0"
       apply_no_weight="true"
       apply_with_weight="true"
       only_selected="false" />
  </defs>
  <sodipodi:namedview
     id="base"
     pagecolor="#ffffff"
     bordercolor="#666666"
     borderopacity="1.0"
     inkscape:pageopacity="0.0"
     inkscape:pageshadow="2"
     inkscape:zoom="3.0251034"
     inkscape:cx="18.362703"
     inkscape:cy="17.270134"
     inkscape:document-units="px"
     inkscape:current-layer="layer1"
     showgrid="false"
     inkscape:window-width="1022"
     inkscape:window-height="558"
     inkscape:window-x="0"
     inkscape:window-y="20"
     inkscape:window-maximized="1" />
  <metadata
     id="metadata7">
    <rdf:RDF>
      <cc:Work
         rdf:about="">
        <dc:format>image/svg+xml</dc:format>
        <dc:type
           rdf:resource="http://purl.org/dc/dcmitype/StillImage" />
        <dc:title></dc:title>
      </cc:Work>
    </rdf:RDF>
  </metadata>
  <g
     inkscape:label="Layer 1"
     inkscape:groupmode="layer"
     id="layer1"
     transform="translate(0,-1088.3863)">
    <path
       style="fill:#27c000;fill-opacity:1;fill-rule:evenodd;stroke:#000000;stroke-width:1px;stroke-linecap:butt;stroke-linejoin:miter;stroke-opacity:1"
       d="m 30.108518,1100.0577 -5.12,-9.2159 -1.347369,4.6709 c 0,0 -5.60052,-1.1681 -8.26386,-0.4491 -2.525478,0.6818 -4.98782,2.2187 -6.5571933,4.3115 -1.65349,2.205 -2.356722,5.1494 -2.425263,7.9046 -0.06068,2.4392 0.450637,5.0609 1.796491,7.0961 1.473196,2.2278 3.9052143,3.8401 6.3775443,4.8506 2.43048,0.9934 5.255762,1.5759 7.814738,0.988 2.298648,-0.5281 5.928421,-3.8624 5.928421,-3.8624 l -2.604913,-2.9642 c 0,0 -2.637449,2.7708 -4.401403,3.1438 -1.884392,0.3984 -3.896284,-0.3914 -5.658948,-1.1677 -1.589518,-0.7001 -3.214185,-1.6393 -4.221755,-3.054 -0.961611,-1.3502 -1.4985013,-3.1042 -1.4371933,-4.7607 0.07712,-2.0838 1.0192973,-4.1521 2.2456153,-5.8386 0.95154,-1.3086 2.232439,-2.5585 3.772631,-3.0541 1.969961,-0.6339 6.197895,0.3593 6.197895,0.3593 l -1.347368,4.2218 z"
       id="path3770"
       inkscape:connector-curvature="0"
       sodipodi:nodetypes="cccssssssccssssssccc" />
  </g>
</svg>
