<?xml version="1.0" encoding="UTF-8" standalone="no"?>
<!-- Created with Inkscape (http://www.inkscape.org/) -->

<svg
   xmlns:dc="http://purl.org/dc/elements/1.1/"
   xmlns:cc="http://creativecommons.org/ns#"
   xmlns:rdf="http://www.w3.org/1999/02/22-rdf-syntax-ns#"
   xmlns:svg="http://www.w3.org/2000/svg"
   xmlns="http://www.w3.org/2000/svg"
   xmlns:sodipodi="http://sodipodi.sourceforge.net/DTD/sodipodi-0.dtd"
   xmlns:inkscape="http://www.inkscape.org/namespaces/inkscape"
   width="32"
   height="32"
   id="svg2"
   version="1.1"
   inkscape:version="0.48.4 r9939"
   sodipodi:docname="token_bash.svg">
  <defs
     id="defs4" />
  <sodipodi:namedview
     id="base"
     pagecolor="#ffffff"
     bordercolor="#666666"
     borderopacity="1.0"
     inkscape:pageopacity="0.0"
     inkscape:pageshadow="2"
     inkscape:zoom="26.59375"
     inkscape:cx="16"
     inkscape:cy="16"
     inkscape:document-units="px"
     inkscape:current-layer="layer1"
     showgrid="false"
     inkscape:window-width="1920"
     inkscape:window-height="1031"
     inkscape:window-x="0"
     inkscape:window-y="26"
     inkscape:window-maximized="1" />
  <metadata
     id="metadata7">
    <rdf:RDF>
      <cc:Work
         rdf:about="">
        <dc:format>image/svg+xml</dc:format>
        <dc:type
           rdf:resource="http://purl.org/dc/dcmitype/StillImage" />
        <dc:title />
      </cc:Work>
    </rdf:RDF>
  </metadata>
  <g
     inkscape:label="Layer 1"
     inkscape:groupmode="layer"
     id="layer1"
     transform="translate(0,-1020.3622)">
    <g
       id="g5467"
       transform="matrix(0.7,0,0,0.7,6.5652252,310.92213)">
      <path
         transform="matrix(1.028698,0,0,0.96509579,-2.1063048,1021.7533)"
         d="m 29.254993,15.830788 c 0,7.725496 -5.875539,13.988248 -13.123384,13.988248 -7.2478451,0 -13.1233845,-6.262752 -13.1233845,-13.988248 0,-7.7254968 5.8755394,-13.9882492 13.1233845,-13.9882492 7.247845,0 13.123384,6.2627524 13.123384,13.9882492 z"
         sodipodi:ry="13.988249"
         sodipodi:rx="13.123384"
         sodipodi:cy="15.830788"
         sodipodi:cx="16.131609"
         id="path3060-4"
         style="fill:#414345;fill-opacity:1;stroke:none"
         sodipodi:type="arc" />
      <path
         transform="matrix(0.99208676,0,0,0.93074809,-2.5157059,1021.297)"
         d="m 29.254993,15.830788 c 0,7.725496 -5.875539,13.988248 -13.123384,13.988248 -7.2478451,0 -13.1233845,-6.262752 -13.1233845,-13.988248 0,-7.7254968 5.8755394,-13.9882492 13.1233845,-13.9882492 7.247845,0 13.123384,6.2627524 13.123384,13.9882492 z"
         sodipodi:ry="13.988249"
         sodipodi:rx="13.123384"
         sodipodi:cy="15.830788"
         sodipodi:cx="16.131609"
         id="path3060"
         style="fill:#00be00;fill-opacity:1;stroke:#000000;stroke-width:1;stroke-miterlimit:4;stroke-opacity:1;stroke-dasharray:none"
         sodipodi:type="arc" />
      <g
         transform="matrix(0.75,0,0,0.75,3.9465337,261.97011)"
         id="g5333">
        <path
           sodipodi:type="arc"
           style="fill:#4d4d4b;fill-opacity:1;stroke:#000000;stroke-opacity:1"
           id="path3772-7"
           sodipodi:cx="10.204445"
           sodipodi:cy="7.6088891"
           sodipodi:rx="3.3777778"
           sodipodi:ry="1.6355555"
           d="m 13.582223,7.6088891 c 0,0.9032924 -1.512283,1.6355555 -3.377778,1.6355555 -1.8654953,0 -3.3777779,-0.7322631 -3.3777779,-1.6355555 0,-0.9032924 1.5122826,-1.6355555 3.3777779,-1.6355555 1.865495,0 3.377778,0.7322631 3.377778,1.6355555 z"
           transform="matrix(0.57517725,0.68546958,-0.68546958,0.57517725,13.162225,1007.753)" />
        <path
           transform="translate(-9.629401,1014.6404)"
           sodipodi:type="arc"
           style="fill:#ffffff;fill-opacity:1;stroke:#000000;stroke-opacity:1"
           id="path3766-3"
           sodipodi:cx="17.528889"
           sodipodi:cy="29.475555"
           sodipodi:rx="3.3777778"
           sodipodi:ry="1.1733333"
           d="m 20.906667,29.475555 c 0,0.648015 -1.512283,1.173334 -3.377778,1.173334 -1.865495,0 -3.377778,-0.525319 -3.377778,-1.173334 0,-0.648014 1.512283,-1.173333 3.377778,-1.173333 1.865495,0 3.377778,0.525319 3.377778,1.173333 z" />
        <path
           transform="translate(-9.167179,1015.8849)"
           sodipodi:type="arc"
           style="fill:#ffffff;fill-opacity:1;stroke:#000000;stroke-opacity:1"
           id="path3766"
           sodipodi:cx="17.528889"
           sodipodi:cy="29.475555"
           sodipodi:rx="3.3777778"
           sodipodi:ry="1.1733333"
           d="m 20.906667,29.475555 c 0,0.648015 -1.512283,1.173334 -3.377778,1.173334 -1.865495,0 -3.377778,-0.525319 -3.377778,-1.173334 0,-0.648014 1.512283,-1.173333 3.377778,-1.173333 1.865495,0 3.377778,0.525319 3.377778,1.173333 z" />
        <path
           sodipodi:type="arc"
           style="fill:#ffffff;fill-opacity:1;stroke:#000000;stroke-opacity:1"
           id="path3792-3"
           sodipodi:cx="19.768888"
           sodipodi:cy="22.151112"
           sodipodi:rx="1.4222223"
           sodipodi:ry="3.8044446"
           d="m 21.191111,22.151112 c 0,2.101136 -0.636751,3.804444 -1.422223,3.804444 -0.785471,0 -1.422222,-1.703308 -1.422222,-3.804444 0,-2.101137 0.636751,-3.804445 1.422222,-3.804445 0.785472,0 1.422223,1.703308 1.422223,3.804445 z"
           transform="matrix(0.85533576,-0.61788621,0.75238102,0.77768514,-14.722834,1029.5751)" />
        <path
           sodipodi:type="arc"
           style="fill:#ffffff;fill-opacity:1;stroke:#000000;stroke-opacity:1"
           id="path3768"
           sodipodi:cx="13.262222"
           sodipodi:cy="21.297777"
           sodipodi:rx="5.3688889"
           sodipodi:ry="8.6400003"
           d="m 18.631111,21.297777 c 0,4.771741 -2.403733,8.640001 -5.368889,8.640001 -2.965155,0 -5.3688886,-3.86826 -5.3688886,-8.640001 0,-4.77174 2.4037336,-8.64 5.3688886,-8.64 2.965156,0 5.368889,3.86826 5.368889,8.64 z"
           transform="matrix(0.64278762,0.76604445,-0.76604445,0.64278762,18.120678,1011.0142)" />
        <path
           sodipodi:type="arc"
           style="fill:#ffffff;fill-opacity:1;stroke:#000000;stroke-opacity:1"
           id="path3792"
           sodipodi:cx="19.768888"
           sodipodi:cy="22.151112"
           sodipodi:rx="1.4222223"
           sodipodi:ry="3.8044446"
           d="m 21.191111,22.151112 c 0,2.101136 -0.636751,3.804444 -1.422223,3.804444 -0.785471,0 -1.422222,-1.703308 -1.422222,-3.804444 0,-2.101137 0.636751,-3.804445 1.422222,-3.804445 0.785472,0 1.422223,1.703308 1.422223,3.804445 z"
           transform="matrix(0.4317994,-0.96277305,1.0404236,0.29730459,-10.797178,1044.6845)" />
        <path
           sodipodi:type="arc"
           style="fill:#ffffff;fill-opacity:1;stroke:#000000;stroke-opacity:1"
           id="path3770"
           sodipodi:cx="16.782223"
           sodipodi:cy="9.8488894"
           sodipodi:rx="4.8355556"
           sodipodi:ry="3.9466667"
           d="m 21.617778,9.8488894 c 0,2.1796836 -2.164952,3.9466666 -4.835555,3.9466666 -2.670604,0 -4.835556,-1.766983 -4.835556,-3.9466666 0,-2.1796839 2.164952,-3.9466668 4.835556,-3.9466668 2.670603,0 4.835555,1.7669829 4.835555,3.9466668 z"
           transform="matrix(0.97774708,0.08554179,-0.08282272,0.94666804,1.646151,1014.4663)" />
        <path
           sodipodi:type="arc"
           style="fill:#ffffff;fill-opacity:1;stroke:#000000;stroke-opacity:1"
           id="path3772"
           sodipodi:cx="10.204445"
           sodipodi:cy="7.6088891"
           sodipodi:rx="3.3777778"
           sodipodi:ry="1.6355555"
           d="m 13.582223,7.6088891 c 0,0.9032924 -1.512283,1.6355555 -3.377778,1.6355555 -1.8654953,0 -3.3777779,-0.7322631 -3.3777779,-1.6355555 0,-0.9032924 1.5122826,-1.6355555 3.3777779,-1.6355555 1.865495,0 3.377778,0.7322631 3.377778,1.6355555 z"
           transform="matrix(0.76604443,0.64278762,-0.64278762,0.76604443,9.5822829,1007.719)" />
        <path
           sodipodi:type="arc"
           style="fill:#ffffff;fill-opacity:1;stroke:#000000;stroke-opacity:1"
           id="path3794"
           sodipodi:cx="20.088888"
           sodipodi:cy="9.7066669"
           sodipodi:rx="0.39111111"
           sodipodi:ry="0.39111111"
           d="m 20.479999,9.7066669 c 0,0.2160047 -0.175106,0.3911111 -0.391111,0.3911111 -0.216005,0 -0.391111,-0.1751064 -0.391111,-0.3911111 0,-0.2160047 0.175106,-0.3911111 0.391111,-0.3911111 0.216005,0 0.391111,0.1751064 0.391111,0.3911111 z"
           transform="matrix(0.9961947,-0.08715574,0.08715574,0.9961947,-2.4955177,1016.2802)" />
        <path
           sodipodi:type="arc"
           style="fill:#ffffff;fill-opacity:1;stroke:#000000;stroke-opacity:1"
           id="path3796"
           sodipodi:cx="13.795555"
           sodipodi:cy="27.946667"
           sodipodi:rx="3.6977777"
           sodipodi:ry="2.2755556"
           d="m 17.493333,27.946667 c 0,1.256754 -1.655552,2.275555 -3.697778,2.275555 -2.042226,0 -3.697778,-1.018801 -3.697778,-2.275555 0,-1.256755 1.655552,-2.275556 3.697778,-2.275556 2.042226,0 3.697778,1.018801 3.697778,2.275556 z"
           transform="translate(-7.3205464,1014.3097)" />
      </g>
    </g>
  </g>
</svg>
