<?xml version="1.0" encoding="UTF-8" standalone="no"?>
<!-- Created with Inkscape (http://www.inkscape.org/) -->

<svg
   xmlns:dc="http://purl.org/dc/elements/1.1/"
   xmlns:cc="http://creativecommons.org/ns#"
   xmlns:rdf="http://www.w3.org/1999/02/22-rdf-syntax-ns#"
   xmlns:svg="http://www.w3.org/2000/svg"
   xmlns="http://www.w3.org/2000/svg"
   xmlns:sodipodi="http://sodipodi.sourceforge.net/DTD/sodipodi-0.dtd"
   xmlns:inkscape="http://www.inkscape.org/namespaces/inkscape"
   width="64"
   height="96"
   id="svg2"
   version="1.1"
   inkscape:version="0.48.4 r9939"
   sodipodi:docname="rabbit_rising_right_continue_06.svg">
  <defs
     id="defs4" />
  <sodipodi:namedview
     id="base"
     pagecolor="#ffffff"
     bordercolor="#666666"
     borderopacity="1.0"
     inkscape:pageopacity="0.0"
     inkscape:pageshadow="2"
     inkscape:zoom="13.296875"
     inkscape:cx="19.139835"
     inkscape:cy="44.032902"
     inkscape:document-units="px"
     inkscape:current-layer="layer1"
     showgrid="false"
     inkscape:window-width="1920"
     inkscape:window-height="1030"
     inkscape:window-x="0"
     inkscape:window-y="26"
     inkscape:window-maximized="1" />
  <metadata
     id="metadata7">
    <rdf:RDF>
      <cc:Work
         rdf:about="">
        <dc:format>image/svg+xml</dc:format>
        <dc:type
           rdf:resource="http://purl.org/dc/dcmitype/StillImage" />
        <dc:title />
      </cc:Work>
    </rdf:RDF>
  </metadata>
  <g
     inkscape:label="Layer 1"
     inkscape:groupmode="layer"
     id="layer1"
     transform="translate(0,-956.3622)">
    <g
       transform="translate(-0.58582919,-32.757669)"
       id="g4560"
       style="fill:#ff0000">
      <path
         transform="matrix(0.30604542,0.84085292,-0.84085292,0.30604542,48.158001,1011.938)"
         d="m 13.582223,7.6088891 c 0,0.9032924 -1.512283,1.6355555 -3.377778,1.6355555 -1.8654953,0 -3.3777779,-0.7322631 -3.3777779,-1.6355555 0,-0.9032924 1.5122826,-1.6355555 3.3777779,-1.6355555 1.865495,0 3.377778,0.7322631 3.377778,1.6355555 z"
         sodipodi:ry="1.6355555"
         sodipodi:rx="3.3777778"
         sodipodi:cy="7.6088891"
         sodipodi:cx="10.204445"
         id="path3772-7"
         style="fill:#ff0000;fill-opacity:1;stroke:#000000;stroke-opacity:1"
         sodipodi:type="arc" />
      <path
         d="m 20.906667,29.475555 c 0,0.648015 -1.512283,1.173334 -3.377778,1.173334 -1.865495,0 -3.377778,-0.525319 -3.377778,-1.173334 0,-0.648014 1.512283,-1.173333 3.377778,-1.173333 1.865495,0 3.377778,0.525319 3.377778,1.173333 z"
         sodipodi:ry="1.1733333"
         sodipodi:rx="3.3777778"
         sodipodi:cy="29.475555"
         sodipodi:cx="17.528889"
         id="path3766-3"
         style="fill:#ff0000;fill-opacity:1;stroke:#000000;stroke-opacity:1"
         sodipodi:type="arc"
         transform="translate(8.4874279,1017.1758)" />
      <path
         transform="matrix(0.90630779,0.42261827,-0.42261827,0.90630779,21.191403,1014.4493)"
         d="m 20.906667,29.475555 c 0,0.648015 -1.512283,1.173334 -3.377778,1.173334 -1.865495,0 -3.377778,-0.525319 -3.377778,-1.173334 0,-0.648014 1.512283,-1.173333 3.377778,-1.173333 1.865495,0 3.377778,0.525319 3.377778,1.173333 z"
         sodipodi:ry="1.1733333"
         sodipodi:rx="3.3777778"
         sodipodi:cy="29.475555"
         sodipodi:cx="17.528889"
         id="path3766"
         style="fill:#ff0000;fill-opacity:1;stroke:#000000;stroke-opacity:1"
         sodipodi:type="arc" />
      <path
         transform="matrix(0.94062056,0.58153809,-0.86233224,0.84924209,42.446318,1013.1233)"
         d="m 18.631111,21.297777 c 0,4.771741 -2.403733,8.640001 -5.368889,8.640001 -2.965155,0 -5.3688886,-3.86826 -5.3688886,-8.640001 0,-4.77174 2.4037336,-8.64 5.3688886,-8.64 2.965156,0 5.368889,3.86826 5.368889,8.64 z"
         sodipodi:ry="8.6400003"
         sodipodi:rx="5.3688889"
         sodipodi:cy="21.297777"
         sodipodi:cx="13.262222"
         id="path3768"
         style="fill:#ff0000;fill-opacity:1;stroke:#000000;stroke-opacity:1"
         sodipodi:type="arc" />
      <path
         transform="matrix(-0.25126812,-0.96791752,0.96791752,-0.25126812,29.347526,1060.3726)"
         d="m 21.191111,22.151112 c 0,2.101136 -0.636751,3.804444 -1.422223,3.804444 -0.785471,0 -1.422222,-1.703308 -1.422222,-3.804444 0,-2.101137 0.636751,-3.804445 1.422222,-3.804445 0.785472,0 1.422223,1.703308 1.422223,3.804445 z"
         sodipodi:ry="3.8044446"
         sodipodi:rx="1.4222223"
         sodipodi:cy="22.151112"
         sodipodi:cx="19.768888"
         id="path3792"
         style="fill:#ff0000;fill-opacity:1;stroke:#000000;stroke-opacity:1"
         sodipodi:type="arc" />
      <path
         transform="matrix(0.92229131,0.33568659,-0.32501633,0.89297501,33.895083,1015.2362)"
         d="m 21.617778,9.8488894 c 0,2.1796836 -2.164952,3.9466666 -4.835555,3.9466666 -2.670604,0 -4.835556,-1.766983 -4.835556,-3.9466666 0,-2.1796839 2.164952,-3.9466668 4.835556,-3.9466668 2.670603,0 4.835555,1.7669829 4.835555,3.9466668 z"
         sodipodi:ry="3.9466667"
         sodipodi:rx="4.8355556"
         sodipodi:cy="9.8488894"
         sodipodi:cx="16.782223"
         id="path3770"
         style="fill:#ff0000;fill-opacity:1;stroke:#000000;stroke-opacity:1"
         sodipodi:type="arc" />
      <path
         transform="matrix(0.34202013,0.93969262,-0.93969262,0.34202013,46.587193,1011.3048)"
         d="m 13.582223,7.6088891 c 0,0.9032924 -1.512283,1.6355555 -3.377778,1.6355555 -1.8654953,0 -3.3777779,-0.7322631 -3.3777779,-1.6355555 0,-0.9032924 1.5122826,-1.6355555 3.3777779,-1.6355555 1.865495,0 3.377778,0.7322631 3.377778,1.6355555 z"
         sodipodi:ry="1.6355555"
         sodipodi:rx="3.3777778"
         sodipodi:cy="7.6088891"
         sodipodi:cx="10.204445"
         id="path3772"
         style="fill:#ff0000;fill-opacity:1;stroke:#000000;stroke-opacity:1"
         sodipodi:type="arc" />
      <path
         transform="matrix(0.98480776,0.17364818,-0.17364818,0.98480776,29.425041,1015.9165)"
         d="m 20.479999,9.7066669 c 0,0.2160047 -0.175106,0.3911111 -0.391111,0.3911111 -0.216005,0 -0.391111,-0.1751064 -0.391111,-0.3911111 0,-0.2160047 0.175106,-0.3911111 0.391111,-0.3911111 0.216005,0 0.391111,0.1751064 0.391111,0.3911111 z"
         sodipodi:ry="0.39111111"
         sodipodi:rx="0.39111111"
         sodipodi:cy="9.7066669"
         sodipodi:cx="20.088888"
         id="path3794"
         style="fill:#ff0000;fill-opacity:1;stroke:#000000;stroke-opacity:1"
         sodipodi:type="arc" />
      <path
         transform="matrix(1.3928819,0.18738731,-0.21941034,0.94939162,15.500448,1017.7695)"
         d="m 17.493333,27.946667 c 0,1.256754 -1.655552,2.275555 -3.697778,2.275555 -2.042226,0 -3.697778,-1.018801 -3.697778,-2.275555 0,-1.256755 1.655552,-2.275556 3.697778,-2.275556 2.042226,0 3.697778,1.018801 3.697778,2.275556 z"
         sodipodi:ry="2.2755556"
         sodipodi:rx="3.6977777"
         sodipodi:cy="27.946667"
         sodipodi:cx="13.795555"
         id="path3796"
         style="fill:#ff0000;fill-opacity:1;stroke:#000000;stroke-opacity:1"
         sodipodi:type="arc" />
    </g>
    <path
       style="fill:#000000;fill-opacity:0;stroke:#ffffff;stroke-width:0.07520564000000000"
       d=""
       id="path2992"
       inkscape:connector-curvature="0"
       transform="translate(0,956.3622)" />
    <path
       style="fill:#000000;fill-opacity:0;stroke:#ffffff;stroke-width:0.07520564"
       d="m 44.820054,36.033529 c -0.02757,-0.02757 -0.05014,-0.260768 -0.05014,-0.518206 0,-0.990826 -0.629816,-2.738359 -1.286175,-3.568716 -0.269679,-0.34117 -0.277529,-0.366098 -0.15126,-0.48037 0.189926,-0.171881 0.319655,-0.151193 0.677524,0.108047 0.578325,0.418936 1.239249,1.651967 1.440538,2.687493 0.111622,0.574239 0.05764,1.378526 -0.109656,1.633857 -0.116578,0.177919 -0.404563,0.254166 -0.520834,0.137895 l 0,0 z"
       id="path2994"
       inkscape:connector-curvature="0"
       transform="translate(0,956.3622)" />
    <path
       style="fill:#000000;fill-opacity:0;stroke:#ffffff;stroke-width:0.07520564"
       d="m 44.89526,35.958324 c -0.02757,-0.02758 -0.05014,-0.226926 -0.05014,-0.443001 0,-0.846359 -0.558282,-2.483571 -1.170018,-3.431185 -0.266142,-0.412268 -0.305961,-0.517742 -0.221826,-0.587568 0.369253,-0.306453 1.421483,1.069886 1.810773,2.36853 0.186308,0.621509 0.192632,1.663821 0.01177,1.939853 -0.129111,0.197048 -0.277202,0.25673 -0.380562,0.153371 z"
       id="path2996"
       inkscape:connector-curvature="0"
       transform="translate(0,956.3622)" />
    <path
       style="fill:#000000;fill-opacity:0;stroke:#ffffff;stroke-width:0.07520564"
       d="m 44.966851,35.8526 c -0.01881,-0.05905 -0.05498,-0.337159 -0.08037,-0.618026 -0.06405,-0.70855 -0.494666,-1.971887 -0.985275,-2.890615 -0.357819,-0.670062 -0.393363,-0.772631 -0.267745,-0.772631 0.357615,0 1.270274,1.387222 1.550495,2.356719 0.168398,0.582614 0.136299,1.712928 -0.05405,1.903149 -0.106457,0.106389 -0.13479,0.110108 -0.163056,0.0214 l 0,0 z"
       id="path2998"
       inkscape:connector-curvature="0"
       transform="translate(0,956.3622)" />
    <path
       style="fill:#000000;fill-opacity:0;stroke:#ffffff;stroke-width:0.07520564000000000"
       d="m 44.995534,35.577185 c 0,-0.64802 -0.470404,-2.169263 -0.991116,-3.205179 -0.163286,-0.324844 -0.281843,-0.605666 -0.26346,-0.624049 0.08185,-0.08185 0.684607,0.749103 0.990204,1.365086 0.406535,0.819439 0.523488,1.327147 0.465379,2.020266 -0.04552,0.542904 -0.201007,0.886271 -0.201007,0.443876 z"
       id="path3000"
       inkscape:connector-curvature="0"
       transform="translate(0,956.3622)" />
    <path
       style="fill:#000000;fill-opacity:0;stroke:#ffffff;stroke-width:0.07520564"
       d="m 44.093066,32.920591 c 0,-0.0438 0.03384,-0.05873 0.07521,-0.03316 0.09637,0.05956 0.09637,0.112808 0,0.112808 -0.04136,0 -0.07521,-0.03584 -0.07521,-0.07964 z"
       id="path3002"
       inkscape:connector-curvature="0"
       transform="translate(0,956.3622)" />
    <path
       style="fill:#000000;fill-opacity:0;stroke:#ffffff;stroke-width:0.07520564"
       d="m 44.995534,35.076803 c 0,-0.289815 -0.347886,-1.407227 -0.672616,-2.160445 -0.165406,-0.383662 -0.288444,-0.709861 -0.273419,-0.724886 0.0421,-0.0421 0.549952,0.819761 0.748865,1.27089 0.29562,0.670458 0.466205,1.794042 0.272376,1.794042 -0.04136,0 -0.07521,-0.08082 -0.07521,-0.179601 z"
       id="path3004"
       inkscape:connector-curvature="0"
       transform="translate(0,956.3622)" />
    <path
       style="fill:#000000;fill-opacity:0;stroke:#ffffff;stroke-width:0.07520564"
       d=""
       id="path3006"
       inkscape:connector-curvature="0"
       transform="translate(0,956.3622)" />
    <path
       style="fill:#000000;fill-opacity:0;stroke:#ffffff;stroke-width:0.07520564000000000"
       d=""
       id="path3008"
       inkscape:connector-curvature="0"
       transform="translate(0,956.3622)" />
    <path
       style="fill:none;stroke:#000000;stroke-width:1px;stroke-linecap:butt;stroke-linejoin:miter;stroke-opacity:1"
       d="m 44.145711,32.225617 c 4.26e-4,0.189044 0.11462,0.347482 0.150411,0.526439 0.01967,0.09833 0,0.200549 0,0.300823 0,0.344868 -0.01585,-0.07927 0.07521,0.376028 0.01967,0.09833 0,0.200549 0,0.300823 0,0.100274 -0.01967,0.202495 0,0.300822 0.007,0.03476 0.07521,0.03975 0.07521,0.07521 0,0.03545 -0.100274,0.05014 -0.07521,0.07521 0.05606,0.05605 0.169562,0.01915 0.225617,0.0752 0.02507,0.02507 -0.06399,0.04157 -0.07521,0.07521 -0.01585,0.04756 0,0.100274 0,0.150411 0,0.426165 -0.05014,0.02507 0.07521,0.150411 0.01773,0.01773 0,0.100275 0,0.07521 0,-0.04333 0.01371,-0.348618 0,-0.376028 -0.01585,-0.03171 -0.06938,-0.04024 -0.07521,-0.07521 -0.02061,-0.123637 0.01773,-0.251945 0,-0.376028 -0.0079,-0.05549 -0.07521,-0.09436 -0.07521,-0.150411 0,-0.706596 0.364517,0.549841 0.07521,-0.752057 -0.01538,-0.06922 -0.124078,-0.08458 -0.150411,-0.150411 -0.02793,-0.06983 0.02641,-0.1552 0,-0.225617 -0.05132,-0.136866 -0.211072,-0.23058 -0.225617,-0.376028 -0.01343,-0.134328 0.150411,-0.24103 0.150411,-0.376028 0,-0.11211 -0.108774,-0.196731 -0.150411,-0.300823 -0.07521,-0.188014 0.150411,0.07521 0,-0.225617 -0.01121,-0.02242 -0.05748,0.01773 -0.07521,0 -0.01773,-0.01773 0,-0.05014 0,-0.07521 0,-0.02507 -0.02507,-0.07521 0,-0.07521 0.213257,0 0.144083,0.178521 0.225617,0.300823 0.059,0.08849 0.166621,0.137122 0.225617,0.225616 0.04397,0.06596 0.03975,0.154713 0.07521,0.225617 0.06537,0.130742 0.154629,0.24825 0.225617,0.376029 0.05445,0.098 0.100274,0.200548 0.150411,0.300822 0.05014,0.100274 0.104879,0.198375 0.150411,0.300823 0.05014,0.125342 0.100274,0.250685 0.150412,0.376028 0,0.07521 -0.02378,0.15427 0,0.225617 0.178339,0.535018 0.09544,-0.03473 0.300822,0.376028 0.04622,0.09245 0.04252,0.202766 0.07521,0.300823 0.01773,0.05318 0.05748,0.09723 0.0752,0.150411 0.0079,0.02378 0,0.05014 0,0.0752 0,0.02507 0.02507,0.07521 0,0.07521 -0.05606,0 -0.09723,-0.05748 -0.150411,-0.07521 -0.07135,-0.02378 -0.15427,0.02378 -0.225617,0 -0.074,-0.02467 -0.293294,-0.364736 -0.300822,-0.376028 -0.05014,-0.0752 -0.121829,-0.139869 -0.150412,-0.225617 -0.02378,-0.07135 0.03363,-0.158351 0,-0.225617 -0.05014,-0.100274 -0.230788,-0.06287 -0.300822,-0.150411 -0.07003,-0.08754 -0.08315,-0.211134 -0.150412,-0.300822 -0.0023,-0.003 -0.297108,0.0037 -0.300822,0 -0.03545,-0.03545 0,-0.100275 0,-0.150412 0,-0.02507 0.02507,0.07521 0,0.07521 -0.02507,0 -0.01773,-0.05748 0,-0.07521 0.01773,-0.01773 0.05014,0 0.07521,0 0.05014,0 0.100274,0 0.150411,0 0.02507,0 0.05748,0.01773 0.07521,0 0.07103,-0.07103 -0.181243,-0.221103 0.150412,0 0.13902,0.09268 0.0351,0.06518 0.07521,0.225617 0.0136,0.05438 0.04411,0.103771 0.07521,0.150412 0.01966,0.0295 0.05014,0.05014 0.07521,0.07521 0.115093,0.115093 0.237575,0.21791 0.300822,0.376028 0.01862,0.04655 0,0.100275 0,0.150412 0,0.02507 -0.01773,0.05748 0,0.0752 0.01773,0.01773 0.0613,-0.02086 0.07521,0 0.08313,0.1247 0.07521,0.185777 0.07521,0.300823"
       id="path3010"
       inkscape:connector-curvature="0"
       transform="translate(0,956.3622)" />
    <path
       style="fill:none;stroke:#000000;stroke-width:1px;stroke-linecap:butt;stroke-linejoin:miter;stroke-opacity:1"
       d="m 43.844888,31.473561 c 0.02507,0.100274 0.05014,0.200548 0.07521,0.300822 0.02507,0.05014 0.05748,0.09723 0.07521,0.150411 0.0079,0.02378 -0.01121,0.05278 0,0.07521 0.01585,0.03171 0.05935,0.0435 0.0752,0.07521 0.01121,0.02242 0.02507,0.0752 0,0.0752 -0.03545,0 -0.04157,-0.06399 -0.0752,-0.0752 -0.04756,-0.01586 -0.100275,0 -0.150412,0 -0.02507,0 -0.05278,0.01121 -0.0752,0 -0.03171,-0.01586 -0.0435,-0.05935 -0.07521,-0.07521 -0.08017,-0.04008 -0.07024,0.04008 -0.150411,0 -0.03171,-0.01585 -0.05014,-0.05014 -0.07521,-0.07521 -0.02507,-0.02507 -0.0752,-0.03975 -0.0752,-0.0752 0,-0.03545 0.0752,-0.03975 0.0752,-0.07521 0,-0.02507 -0.05278,0.01121 -0.0752,0 -0.03171,-0.01586 -0.07521,-0.03975 -0.07521,-0.07521 0,-0.02507 0.05216,0.0099 0.07521,0 0.154567,-0.06624 0.300822,-0.300822 0.451233,-0.225616 0.126838,0.06342 -0.169156,0.248155 -0.300822,0.300822 -0.05205,0.02082 -0.114843,-0.110774 -0.07521,-0.150411 0.09546,-0.09546 0.356937,-0.01677 0.376028,-0.150411 0.0227,-0.158904 -0.198062,-0.252716 -0.300822,-0.376029 -0.01335,-0.01602 -0.131479,-0.09414 -0.07521,-0.150411 0.05187,-0.05187 0.140622,0.05563 0.150411,0.07521 0.01121,0.02242 0.02507,0.07521 0,0.07521 -0.02507,0 0,-0.05014 0,-0.07521"
       id="path3012"
       inkscape:connector-curvature="0"
       transform="translate(0,956.3622)" />
    <path
       style="fill:none;stroke:#000000;stroke-width:1px;stroke-linecap:butt;stroke-linejoin:miter;stroke-opacity:1"
       d="m 45.424207,34.105758 c 0.05014,0.125343 0.113324,0.246224 0.150411,0.376028 0.02066,0.07231 0,0.150411 0,0.225617 0,0.17548 0,0.35096 0,0.52644 0,0.05014 0.0098,0.101247 0,0.150411 -0.01555,0.07773 -0.05598,0.14871 -0.07521,0.225617 -0.05014,0.200548 0.02507,-0.02507 0.07521,0.07521 0.03363,0.06727 0,0.150412 0,0.225617 0,0.02507 0,0.05014 0,0.07521 0,0.02507 0.02507,0.07521 0,0.07521 -0.02507,0 0.01121,-0.05278 0,-0.07521 -0.01586,-0.03171 -0.06399,-0.04157 -0.07521,-0.07521 -0.01585,-0.04756 0,-0.100274 0,-0.150411 0,-0.07521 0,-0.150411 0,-0.225617 0,-0.125343 0.02458,-0.253119 0,-0.376028 -0.01099,-0.05497 -0.06599,-0.09512 -0.0752,-0.150411 -0.01649,-0.09891 0.02432,-0.203543 0,-0.300823 -0.0061,-0.02432 -0.05278,0.01121 -0.07521,0 -0.03171,-0.01586 -0.06399,-0.04157 -0.07521,-0.07521 -0.05771,-0.173136 0.150411,-0.708941 0.150411,-0.526439 0,0.158547 -0.111958,0.29742 -0.150411,0.451234 -0.01433,0.05731 0,0.448628 0,0.526439 0,0.02507 0.01121,0.05278 0,0.07521 -0.01585,0.03171 -0.06399,0.04157 -0.07521,0.07521 -0.02076,0.06229 0.02391,0.328201 0,0.376028 -0.01586,0.03171 -0.05935,0.0435 -0.07521,0.07521 -0.02242,0.04484 0.05014,0.150412 0,0.150412 -0.02507,0 -0.01121,-0.05278 0,-0.07521 0.01586,-0.03171 0.05935,-0.0435 0.07521,-0.07521 0.01121,-0.02242 0,-0.05014 0,-0.07521 0,-0.02507 0,-0.05014 0,-0.07521 0,-0.01824 0.0024,-0.223198 0,-0.225617 -0.01773,-0.01773 -0.064,0.02242 -0.07521,0 -0.01373,-0.02746 0.01464,-0.36139 0,-0.376028 -0.06826,-0.06826 -0.12227,0.06599 -0.150411,0.150411 -0.01586,0.04756 0,0.100274 0,0.150412 0,0.175479 0,0.350959 0,0.526439"
       id="path3014"
       inkscape:connector-curvature="0"
       transform="translate(0,956.3622)" />
  </g>
</svg>
