<?xml version="1.0" encoding="UTF-8" standalone="no"?>
<!-- Created with Inkscape (http://www.inkscape.org/) -->

<svg
   xmlns:dc="http://purl.org/dc/elements/1.1/"
   xmlns:cc="http://creativecommons.org/ns#"
   xmlns:rdf="http://www.w3.org/1999/02/22-rdf-syntax-ns#"
   xmlns:svg="http://www.w3.org/2000/svg"
   xmlns="http://www.w3.org/2000/svg"
   xmlns:sodipodi="http://sodipodi.sourceforge.net/DTD/sodipodi-0.dtd"
   xmlns:inkscape="http://www.inkscape.org/namespaces/inkscape"
   width="31.999998"
   height="31.999998"
   viewBox="0 0 8.466666 8.4666664"
   version="1.1"
   id="svg120"
   inkscape:version="0.92.3 (unknown)"
   sodipodi:docname="entrance.svg">
  <defs
     id="defs114">
	

	
	

	
	

	

		
		
	
		
	
		
	
		
		
	
			
		
			
		</defs>
  <sodipodi:namedview
     id="base"
     pagecolor="#ffffff"
     bordercolor="#666666"
     borderopacity="1.0"
     inkscape:pageopacity="0.0"
     inkscape:pageshadow="2"
     inkscape:zoom="31.678384"
     inkscape:cx="27.813746"
     inkscape:cy="13.187488"
     inkscape:document-units="px"
     inkscape:current-layer="layer1"
     inkscape:document-rotation="0"
     showgrid="false"
     units="px"
     inkscape:snap-page="true"
     inkscape:snap-global="false"
     inkscape:window-width="1530"
     inkscape:window-height="843"
     inkscape:window-x="70"
     inkscape:window-y="20"
     inkscape:window-maximized="1" />
  <metadata
     id="metadata117">
    <rdf:RDF>
      <cc:Work
         rdf:about="">
        <dc:format>image/svg+xml</dc:format>
        <dc:type
           rdf:resource="http://purl.org/dc/dcmitype/StillImage" />
        <dc:title></dc:title>
      </cc:Work>
    </rdf:RDF>
  </metadata>
  <g
     inkscape:label="Layer 1"
     inkscape:groupmode="layer"
     id="layer1"
     transform="translate(-7.3033293e-6,-288.53333)">
    <g
       id="g7014"
       transform="matrix(0.94994928,0,0,0.94994928,0.21297283,14.487135)">
      <path
         id="path6321"
         d="m 7.7219795,292.9198 c 0.3652174,-0.0968 0.6278272,-0.32325 0.6845379,-0.71992 0.064256,-0.44975 -0.1520583,-0.59793 -0.4788478,-0.82863 -0.1724315,-0.12175 -0.3452622,-0.0985 -0.5401955,-0.12667 0.1420997,-0.26381 -0.038333,-0.74904 -0.1683835,-0.98928 -0.1860581,-0.34357 -0.4599569,-0.55113 -0.8152727,-0.67308 -0.1261355,-0.0433 -0.2951082,-0.0407 -0.4317915,-0.0269 -0.181687,0.0184 -0.3941428,0.20481 -0.5521687,0.20685 -0.2128169,0.003 -0.2328101,-0.40753 -0.2708769,-0.55278 -0.078167,-0.29813 -0.2091491,-0.38798 -0.4803301,-0.51574 -0.2207231,-0.10403 -0.5126955,-0.0699 -0.7551791,-0.0629 -0.6435823,0.0186 -1.5282229,0.5175 -1.4013271,1.27063 -0.317325,0.1809 -0.7475011,0.18535 -1.0765331,0.4125 -0.1762325,0.12165 -0.2956594,0.31179 -0.3701586,0.5137 -0.055095,0.14929 -0.023547,0.5024 -0.10513521,0.61065 -0.0797066,0.10578 -0.40404438,0.13923 -0.52732924,0.21857 -0.16988489,0.10932 -0.30156991,0.26066 -0.35873668,0.46213 -0.07892739,0.27804 0.01851079,0.54468 0.21232286,0.74345 0.2005018,0.20561 0.34626946,0.16899 0.60467922,0.15561 0.75126405,-0.0389 1.51358905,-10e-4 2.26593645,-0.003 1.0868718,-0.003 2.1737626,-0.008 3.2605583,-0.0213 0.3368621,-0.004 0.8726485,0.0404 1.304231,-0.0739 z"
         inkscape:connector-curvature="0"
         style="fill:#b4e0dd;fill-opacity:1;stroke:#709e9b;stroke-width:0.26458332;stroke-miterlimit:4;stroke-dasharray:none;stroke-opacity:1" />
      <path
         id="path6331"
         d="m 4.5567307,290.54094 c 0.255388,0 0.4624085,0.28865 0.4624085,0.64472 0,0.3561 -0.2070205,-0.33348 -0.4624085,-0.33348 -0.2554259,0 -0.4624654,0.68958 -0.4624654,0.33348 0,-0.35607 0.2070204,-0.64472 0.4624654,-0.64472"
         stroke-miterlimit="10"
         inkscape:connector-curvature="0"
         style="fill:#709e9b;fill-opacity:1;stroke:none;stroke-width:0.01900491;stroke-miterlimit:10" />
      <path
         style="fill:#709e9b;fill-opacity:1;stroke-width:0.01900491"
         inkscape:connector-curvature="0"
         d="m 4.9551687,291.25644 c 0.034057,0.056 0.1145806,0.0215 0.1610286,0.0129 0.021704,-0.009 0.043369,-0.0172 0.065054,-0.0301 0.034038,-0.0215 0.027842,-0.0215 0.018587,-0.0732 -0.00625,-0.0431 -0.0031,-0.0862 -0.037174,-0.0689 -0.021685,0.0129 -0.043331,0.0517 -0.061918,0.0689 -0.043388,0.0474 -0.092934,0.0819 -0.1455776,0.0904"
         id="path6333" />
      <path
         id="path6341"
         d="m 3.1625876,290.54094 c -0.255426,0 -0.4624465,0.28865 -0.4624465,0.64472 0,0.3561 0.2070205,-0.33348 0.4624465,-0.33348 0.2554069,0 0.4624464,0.68958 0.4624464,0.33348 1.9e-5,-0.35607 -0.2070205,-0.64472 -0.4624464,-0.64472"
         stroke-miterlimit="10"
         inkscape:connector-curvature="0"
         style="fill:#709e9b;fill-opacity:1;stroke:none;stroke-width:0.01900491;stroke-miterlimit:10" />
      <path
         style="fill:#709e9b;fill-opacity:1;stroke-width:0.01900491"
         inkscape:connector-curvature="0"
         d="m 2.7641306,291.25644 c -0.034057,0.056 -0.1145996,0.0215 -0.1610476,0.0129 -0.021666,-0.009 -0.04335,-0.0172 -0.064997,-0.0301 -0.034057,-0.0215 -0.027861,-0.0215 -0.018606,-0.0732 0.00623,-0.0431 0.0031,-0.0862 0.037155,-0.0689 0.021685,0.0129 0.04335,0.0517 0.061937,0.0689 0.04335,0.0474 0.092896,0.0819 0.1455586,0.0904"
         id="path6343" />
      <path
         id="path6351"
         d="m 4.9551687,291.72059 c 0,0.2659 -0.4543124,0.85996 -1.0147292,0.85996 -0.5603978,0 -1.0147101,-0.61472 -1.0147101,-0.88063 0,-0.26594 0.4543123,0.15626 1.0147101,0.15626 0.5604168,0 1.0147292,-0.40152 1.0147292,-0.13559 z"
         stroke-miterlimit="10"
         inkscape:connector-curvature="0"
         style="opacity:1;vector-effect:none;fill:#ffffff;fill-opacity:1;stroke:#709e9b;stroke-width:0.26458332;stroke-linecap:butt;stroke-linejoin:miter;stroke-miterlimit:4;stroke-dasharray:none;stroke-dashoffset:0;stroke-opacity:1" />
    </g>
  </g>
</svg>
