<?xml version="1.0" encoding="UTF-8" standalone="no"?>
<!-- Created with Inkscape (http://www.inkscape.org/) -->

<svg
   xmlns:dc="http://purl.org/dc/elements/1.1/"
   xmlns:cc="http://creativecommons.org/ns#"
   xmlns:rdf="http://www.w3.org/1999/02/22-rdf-syntax-ns#"
   xmlns:svg="http://www.w3.org/2000/svg"
   xmlns="http://www.w3.org/2000/svg"
   xmlns:sodipodi="http://sodipodi.sourceforge.net/DTD/sodipodi-0.dtd"
   xmlns:inkscape="http://www.inkscape.org/namespaces/inkscape"
   width="31.999998"
   height="31.999998"
   viewBox="0 0 8.466666 8.4666664"
   version="1.1"
   id="svg120"
   inkscape:version="0.92+devel (200b3ed9e, 2018-08-05)"
   sodipodi:docname="grass_block_1.svg">
  <defs
     id="defs114">
    <clipPath
       clipPathUnits="userSpaceOnUse"
       id="clipPath772">
      <rect
         id="rect774"
         width="8.4666662"
         height="8.4666662"
         x="8.4666758"
         y="283.24158"
         style="fill:#744224;fill-opacity:1;stroke-width:0.03307291" />
    </clipPath>
    <clipPath
       clipPathUnits="userSpaceOnUse"
       id="clipPath800">
      <rect
         id="rect802"
         width="8.4666662"
         height="8.4666662"
         x="7.3033293e-06"
         y="283.24155"
         style="fill:#744224;fill-opacity:1;stroke-width:0.03307291" />
    </clipPath>
    <clipPath
       clipPathUnits="userSpaceOnUse"
       id="clipPath804">
      <rect
         style="fill:#744224;fill-opacity:1;stroke-width:0.03307291"
         y="283.24158"
         x="5.2916741"
         height="8.4666662"
         width="8.4666662"
         id="rect806" />
    </clipPath>
    <clipPath
       clipPathUnits="userSpaceOnUse"
       id="clipPath808">
      <rect
         style="fill:#744224;fill-opacity:1;stroke-width:0.03307291"
         y="283.24155"
         x="3.7041717"
         height="8.4666662"
         width="8.4666662"
         id="rect810" />
    </clipPath>
  </defs>
  <sodipodi:namedview
     id="base"
     pagecolor="#ffffff"
     bordercolor="#666666"
     borderopacity="1.0"
     inkscape:pageopacity="0.0"
     inkscape:pageshadow="2"
     inkscape:zoom="8"
     inkscape:cx="51.771573"
     inkscape:cy="17.358456"
     inkscape:document-units="px"
     inkscape:current-layer="layer1"
     inkscape:document-rotation="0"
     showgrid="false"
     units="px"
     inkscape:snap-page="false"
     inkscape:snap-global="false"
     inkscape:window-width="1530"
     inkscape:window-height="843"
     inkscape:window-x="70"
     inkscape:window-y="20"
     inkscape:window-maximized="1"
     inkscape:snap-others="false"
     inkscape:snap-nodes="true"
     inkscape:snap-bbox="true"
     inkscape:bbox-paths="true"
     inkscape:bbox-nodes="true"
     inkscape:snap-bbox-midpoints="true"
     inkscape:snap-intersection-paths="false"
     inkscape:object-paths="false" />
  <metadata
     id="metadata117">
    <rdf:RDF>
      <cc:Work
         rdf:about="">
        <dc:format>image/svg+xml</dc:format>
        <dc:type
           rdf:resource="http://purl.org/dc/dcmitype/StillImage" />
        <dc:title />
      </cc:Work>
    </rdf:RDF>
  </metadata>
  <g
     inkscape:label="Layer 1"
     inkscape:groupmode="layer"
     id="layer1"
     transform="translate(-7.3033293e-6,-288.53333)">
    <g
       id="g784"
       transform="translate(-1.0809341e-8,5.4672531)"
       clip-path="url(#clipPath800)">
      <path
         style="opacity:1;fill:#3d6b36;fill-opacity:1;stroke-width:0.02300769"
         d="m 11.835545,284.968 c -0.206883,0.53025 -0.373882,1.06046 -0.482047,1.5907 -0.09323,-0.22095 -0.204819,-0.44118 -0.332019,-0.66082 0.103076,0.41105 0.137092,0.83221 0.11384,1.26442 -0.110892,-0.32653 -0.264473,-0.65143 -0.451899,-0.97503 0.08978,0.35798 0.127187,0.72366 0.120045,1.09756 -0.237867,-0.60392 -0.364821,-1.23452 -0.433173,-1.87921 -0.10988,0.36404 -0.198512,0.72806 -0.258542,1.09208 -0.1120727,-0.34533 -0.2722959,-0.68879 -0.4703499,-1.03078 0.1375187,0.5486 0.1521909,1.1153 0.071665,1.70204 -0.2646343,-0.54519 -0.4476869,-1.11064 -0.5852338,-1.68737 -0.074706,0.4413 -0.1182231,0.88265 -0.1174639,1.32396 -0.064837,-0.13316 -0.1360643,-0.26613 -0.2129072,-0.39883 0.083928,0.33478 0.1221904,0.67632 0.1208689,1.02505 -0.1193272,-0.49113 -0.3147225,-0.97931 -0.570022,-1.4652 -0.0056,-0.14169 -0.00768,-0.28422 -0.0067,-0.42743 -0.032953,0.0795 -0.064818,0.15894 -0.095662,0.23842 -0.024433,-0.0438 -0.049296,-0.0876 -0.074685,-0.13135 0.017011,0.0677 0.032588,0.13569 0.046843,0.20383 -0.071051,0.18714 -0.135963,0.37425 -0.1936866,0.56139 -0.088315,-0.1817 -0.1853525,-0.36304 -0.2902278,-0.54411 0.085587,0.34135 0.1359414,0.68786 0.1547515,1.03983 -0.017601,0.0744 -0.03397,0.14878 -0.048984,0.22317 -0.2123937,-0.65833 -0.2805103,-1.35046 -0.2757305,-2.05962 -0.1328514,0.32042 -0.249178,0.64087 -0.3440999,0.96129 l -0.019495,-0.038 c -0.00135,0.0411 -0.00305,0.0821 -0.00516,0.12296 -0.054097,0.19029 -0.1004655,0.38058 -0.1380575,0.57084 -0.063431,-0.40532 -0.0862,-0.82014 -0.083416,-1.24096 -0.1719617,0.41489 -0.3163828,0.82971 -0.4223546,1.24461 -0.1502556,-0.42787 -0.3534153,-0.8537 -0.599127,-1.27789 0.1152222,0.45946 0.1675355,0.92823 0.1656798,1.4068 -0.1084179,-0.25907 -0.2388183,-0.51734 -0.3879774,-0.77485 0.064528,0.25743 0.1055293,0.51832 0.1250422,0.78284 -0.163133,-0.35766 -0.3790773,-0.704 -0.6439928,-1.03976 0.2487765,0.67019 0.341924,1.34034 0.2379485,2.01052 -0.091632,-0.55165 -0.3078573,-1.09883 -0.5889679,-1.64368 -0.012934,0.38597 -0.057428,0.76346 -0.1423408,1.13002 -0.1827866,-0.6215 -0.2424738,-1.2718 -0.2380032,-1.93712 -0.2328625,0.56178 -0.4151497,1.12357 -0.5198844,1.68535 -0.027554,-0.28421 -0.037909,-0.57246 -0.035969,-0.86358 -0.1478657,0.35675 -0.2753585,0.71351 -0.3755664,1.07027 -0.097874,-0.24016 -0.2176021,-0.47946 -0.3558519,-0.71807 0.1001235,0.39917 0.135189,0.80793 0.1158166,1.22702 -0.084378,-0.54572 -0.3021037,-1.08627 -0.6131305,-1.62324 0.1250068,0.49851 0.1485404,1.01193 0.091379,1.54176 -0.3213175,-0.81553 -0.4188352,-1.68676 -0.4131838,-2.58364 -0.2068544,0.53022 -0.3738007,1.06047 -0.4819375,1.5907 -0.093263,-0.22096 -0.2049003,-0.44119 -0.3321284,-0.66083 0.1030758,0.41105 0.1371752,0.83225 0.1138946,1.26447 -0.1109204,-0.32654 -0.2644181,-0.65146 -0.451844,-0.97504 0.089748,0.35796 0.1271597,0.72362 0.1199903,1.09752 -0.2378956,-0.60393 -0.36484811,-1.23449 -0.4332279,-1.87917 -0.1098519,0.36402 -0.1984296,0.72806 -0.25848685,1.09208 -0.11207312,-0.34533 -0.27232195,-0.68881 -0.47046026,-1.03082 0.13757496,0.54862 0.15224569,1.11534 0.0717195,1.70209 -0.0960747,-0.19799 -0.18140917,-0.39867 -0.25771787,-0.60155 l 0.00191778,1.7304 c 0.42652497,0.11775 1.1348767,0.11181 1.980858,0.14932 -0.00471,-0.007 -0.00943,-0.0131 -0.014113,-0.0196 l 0.6960529,-0.1319 c -0.010681,0.0457 -0.022003,0.0917 -0.033663,0.13767 0.1746555,-0.005 0.3498025,-0.01 0.5233986,-0.0129 l 0.069578,-0.0228 c -0.00136,0.007 -0.00295,0.0146 -0.00434,0.0218 0.4066846,-0.006 0.8023641,-9e-5 1.1559694,0.0441 0.7237244,0.0904 1.4304211,0.15319 2.1418108,0.18647 0.1031728,-0.0338 0.2063799,-0.0676 0.309558,-0.10149 l 5.483e-4,-0.008 0.2824302,-0.0504 0.4202674,-0.0175 c -0.011545,0.068 -0.021799,0.13608 -0.030972,0.20412 0.6708929,0.005 1.3544861,-0.0153 2.0682241,-0.0639 l 0.5789192,-0.108 c 0.0045,0.0206 0.0091,0.0411 0.01378,0.0617 0.03661,-0.003 0.07316,-0.007 0.109941,-0.01 l 0.349482,-0.0636 c -0.0026,0.0102 -0.0055,0.0205 -0.0082,0.0307 0.198762,-0.0202 0.400226,-0.0423 0.604783,-0.0665 0.03917,-0.0129 0.07835,-0.0257 0.11752,-0.0385 0.0014,-0.0188 0.0025,-0.0376 0.0036,-0.0563 l 0.115158,-0.021 c -0.0074,-0.01 -0.0146,-0.0202 -0.02186,-0.0303 l 0.696108,-0.1319 c -0.0156,0.0668 -0.03267,0.134 -0.05036,0.20133 0.101712,-0.002 0.204091,-0.002 0.306978,-1.1e-4 l 0.30264,-0.0993 c -0.0068,0.0364 -0.01428,0.0729 -0.02175,0.10936 0.55465,0.0274 1.118224,0.0972 1.661851,0.14068 l 0.307198,-0.0129 c -0.005,0.0111 -0.01044,0.0223 -0.01554,0.0334 0.604081,0.0356 1.175702,0.0207 1.672889,-0.14485 4.5e-4,-0.007 9.84e-4,-0.0143 0.0014,-0.0215 l 0.06815,-0.003 c 0.199249,-0.0731 0.385978,-0.17177 0.557118,-0.30307 v -1.79434 c -0.07468,-0.1749 -0.157998,-0.34949 -0.247944,-0.52385 -0.02283,0.67989 -0.143268,1.33335 -0.410602,1.94717 -0.08427,-0.54608 -0.302097,-1.08701 -0.613349,-1.62435 0.15512,0.61855 0.154049,1.26006 0.03635,1.92738 -0.05227,-0.87907 -0.401248,-1.69441 -1.001821,-2.45564 0.248777,0.67019 0.341981,1.34037 0.237949,2.01056 -0.09163,-0.55163 -0.307858,-1.09882 -0.588969,-1.64369 -0.01296,0.38597 -0.05743,0.76345 -0.14234,1.12999 -0.182759,-0.62148 -0.242417,-1.27176 -0.238003,-1.93709 -0.232834,0.56178 -0.415148,1.12352 -0.519939,1.68528 -0.0275,-0.28419 -0.03786,-0.57244 -0.03592,-0.86355 -0.147894,0.35676 -0.275358,0.71351 -0.375566,1.07028 -0.09782,-0.24018 -0.217576,-0.47948 -0.355797,-0.71808 0.100123,0.39919 0.135134,0.80796 0.115762,1.22704 -0.08438,-0.54571 -0.302103,-1.08628 -0.61313,-1.62325 0.124979,0.4985 0.148513,1.01194 0.09138,1.54179 -0.321318,-0.81555 -0.41881,-1.68675 -0.41313,-2.58364 z"
         id="path778"
         inkscape:connector-curvature="0"
         sodipodi:nodetypes="cccccccccccccccccccccccccccccccccccccccccccccccccccccccccccccccccccccccccccccccccccccccccccccccccccccccccccccccccc" />
      <path
         style="opacity:1;fill:#5a9141;fill-opacity:1;stroke-width:0.02300769"
         d="m 4.319218,285.4218 c 0.00565,0.89686 -0.091894,1.76806 -0.4131835,2.58361 -0.057189,-0.52983 -0.033682,-1.04326 0.091324,-1.54176 -0.3110268,0.53696 -0.5287256,1.07752 -0.6130757,1.62324 -0.019344,-0.41909 0.015666,-0.82786 0.1157618,-1.22703 -0.1381936,0.2386 -0.2580058,0.4779 -0.3558519,0.71807 -0.1002079,-0.35675 -0.2276726,-0.71351 -0.3755664,-1.07026 0.00194,0.2911 -0.00836,0.57934 -0.035915,0.86354 -0.1047346,-0.56177 -0.2870216,-1.12354 -0.519884,-1.68531 0.00447,0.66532 -0.055217,1.31564 -0.2380033,1.93712 -0.084912,-0.36656 -0.129379,-0.74404 -0.1423408,-1.13003 -0.2811106,0.54487 -0.4973623,1.09209 -0.5890227,1.64373 -0.1039474,-0.67017 -0.010828,-1.34037 0.2379485,-2.01056 -0.56286665,0.71348 -0.90468687,1.55247 -0.98842259,2.36896 1.00837069,0.18547 2.66284339,-0.0669 3.87598469,0.0846 2.3202736,0.28998 4.4657517,0.29565 7.1507559,-0.0439 1.856011,-0.23471 4.078366,0.66714 5.39088,-0.33989 v -0.87229 c -0.08587,0.22546 -0.157142,0.45148 -0.212194,0.67814 -0.0013,-0.34871 0.03689,-0.6903 0.120815,-1.02508 -0.0769,0.1327 -0.148071,0.26564 -0.212907,0.39882 7.87e-4,-0.4413 -0.04276,-0.88261 -0.117407,-1.32392 -0.137634,0.57673 -0.320657,1.1422 -0.585291,1.68738 -0.08053,-0.58675 -0.06585,-1.15345 0.07178,-1.70205 -0.198138,0.34199 -0.358389,0.68545 -0.470406,1.03078 -0.06003,-0.36402 -0.148774,-0.72808 -0.258542,-1.09211 -0.06841,0.64469 -0.195416,1.27527 -0.433227,1.8792 -0.0072,-0.3739 0.03033,-0.73956 0.11999,-1.09752 -0.187425,0.3236 -0.340951,0.64849 -0.451843,0.975 -0.02331,-0.43219 0.01082,-0.85338 0.113892,-1.26443 -0.127256,0.21964 -0.238809,0.43989 -0.332072,0.66083 -0.108165,-0.53021 -0.275108,-1.06048 -0.482047,-1.5907 0.0057,0.89688 -0.0919,1.76809 -0.413183,2.58364 -0.05714,-0.52987 -0.0336,-1.04327 0.09149,-1.54176 -0.311055,0.53695 -0.528807,1.07749 -0.613242,1.62321 -0.01934,-0.41909 0.01572,-0.82784 0.115816,-1.22703 -0.138222,0.23861 -0.257977,0.47793 -0.355795,0.71807 -0.100207,-0.35673 -0.227674,-0.71348 -0.375568,-1.07023 0.002,0.2911 -0.0084,0.57935 -0.03597,0.86354 -0.104763,-0.56176 -0.287021,-1.12353 -0.519883,-1.68531 0.0045,0.66532 -0.05524,1.31562 -0.238059,1.93712 -0.08488,-0.36656 -0.129352,-0.74405 -0.142285,-1.13002 -0.281139,0.54487 -0.497336,1.09203 -0.588968,1.64369 -0.103976,-0.67018 -0.01088,-1.34037 0.237894,-2.01056 -0.264888,0.3358 -0.480806,0.68213 -0.643939,1.03979 0.01954,-0.26452 0.06046,-0.52543 0.124988,-0.78284 -0.149159,0.25751 -0.279533,0.51574 -0.387923,0.77482 -0.0019,-0.4786 0.05049,-0.94731 0.165735,-1.40677 -0.2457122,0.4242 -0.4489537,0.85002 -0.5992374,1.27789 -0.1059156,-0.41484 -0.2503097,-0.82976 -0.4222995,-1.24465 0.00284,0.42083 -0.019985,0.83564 -0.083417,1.24097 -0.037592,-0.19029 -0.083961,-0.38058 -0.1380572,-0.57084 -0.00205,-0.0408 -0.00381,-0.0818 -0.00522,-0.12293 l -0.01944,0.0379 c -0.094922,-0.3204 -0.21125,-0.64083 -0.3440451,-0.96125 0.00472,0.70916 -0.063364,1.40127 -0.2757854,2.05961 -0.015014,-0.0744 -0.031383,-0.14876 -0.048984,-0.22316 0.01881,-0.35196 0.069136,-0.69849 0.1547515,-1.03983 -0.1048753,0.18104 -0.2018852,0.36243 -0.2902278,0.54411 -0.057724,-0.18712 -0.1226358,-0.37425 -0.1936866,-0.56139 0.014227,-0.0681 0.02986,-0.1361 0.046843,-0.20383 -0.025361,0.0438 -0.050252,0.0875 -0.074685,0.13135 -0.030816,-0.0795 -0.062737,-0.15894 -0.095718,-0.23839 9.56e-4,0.1432 -0.00105,0.28571 -0.00664,0.4274 -0.2552995,0.48586 -0.4506667,0.97406 -0.570022,1.46516 -0.00129,-0.34872 0.036912,-0.69024 0.1208689,-1.02504 -0.076871,0.13273 -0.1480968,0.26565 -0.212962,0.39882 7.872e-4,-0.4413 -0.042703,-0.88262 -0.1174092,-1.32392 -0.1375468,0.57673 -0.3205724,1.14218 -0.5851786,1.68737 -0.080554,-0.58676 -0.065939,-1.15344 0.071664,-1.70204 -0.1981102,0.34199 -0.358332,0.68545 -0.4704051,1.03077 -0.060029,-0.36401 -0.1486069,-0.72803 -0.2584869,-1.09207 -0.068352,0.64469 -0.1953888,1.27526 -0.4332279,1.87917 -0.00717,-0.37393 0.030269,-0.73954 0.1200451,-1.09752 -0.187454,0.3236 -0.3410065,0.64852 -0.4518988,0.97504 -0.023281,-0.4322 0.010819,-0.8534 0.1138946,-1.26447 -0.1272281,0.21966 -0.2388654,0.43989 -0.3321284,0.66082 C 4.6929963,286.48223 4.526106,285.952 4.3192234,285.42178 Z m -3.80327635,1.5751 c -0.23134412,0.39941 -0.39025731,1.04278 -0.50188056,1.4468 l 0.02090913,0.003 c 0.11482763,0.0671 0.24682749,0.0405 0.41051277,0.0308 -0.0878155,-0.60331 -0.0707262,-0.91726 0.0704598,-1.48034 z"
         id="path780"
         inkscape:connector-curvature="0"
         sodipodi:nodetypes="ccccccccccccccccccccccccccccccccccccccccccccccccccccccccccccccccccccccccccccccccccccc" />
      <path
         style="opacity:1;fill:#74ad4b;fill-opacity:1;stroke-width:0.02300769"
         d="m 1.3799256,286.79246 c 0.00375,0.59809 -0.038843,1.18463 -0.1626044,1.75099 0.2679625,0.0204 0.5583916,0.0232 0.8590416,0.0189 0.010626,-0.28471 0.048585,-0.56464 0.117629,-0.83997 -0.1271999,0.21964 -0.2388653,0.43986 -0.3321284,0.66082 -0.1081368,-0.53021 -0.2750833,-1.06047 -0.4819378,-1.5907 z m 4.2712657,0.10274 c 0.00416,0.61651 -0.046891,1.22011 -0.1998371,1.79985 0.7596101,0.0663 1.5123822,0.0999 2.2844263,0.0989 0.030334,-0.3936 0.1222094,-0.78722 0.2683167,-1.18081 -0.2649155,0.33578 -0.4807783,0.68211 -0.6438832,1.03979 0.019541,-0.26452 0.06046,-0.52543 0.1249874,-0.78283 -0.149159,0.25749 -0.2795876,0.51573 -0.3879774,0.77481 -0.00188,-0.47858 0.050512,-0.9473 0.1657347,-1.40676 -0.2457399,0.42418 -0.4489547,0.85002 -0.5991822,1.27788 -0.1059718,-0.41487 -0.2503645,-0.82975 -0.4223543,-1.24464 0.00281,0.42081 -0.020013,0.83563 -0.083416,1.24096 -0.03762,-0.19028 -0.083906,-0.38058 -0.1380024,-0.57084 -0.00211,-0.0409 -0.00389,-0.0818 -0.00527,-0.12293 l -0.019385,0.0379 c -0.094922,-0.32041 -0.2113037,-0.6408 -0.3441551,-0.96124 z m 5.1907697,0.0135 c 0.0037,0.58829 -0.03755,1.16542 -0.156674,1.72316 0.27278,-0.0283 0.550432,-0.0601 0.83444,-0.096 0.0088,-0.001 0.01762,-0.002 0.02641,-0.003 0.01669,-0.23462 0.0526,-0.46596 0.109831,-0.69417 -0.127228,0.21963 -0.238811,0.43987 -0.332074,0.66082 -0.108136,-0.53023 -0.275111,-1.06047 -0.481937,-1.5907 z m 4.271321,0.10271 c 0.0038,0.57094 -0.03974,1.13082 -0.167657,1.67093 0.412728,0.009 0.805673,-0.0154 1.1647,-0.10788 -0.104428,-0.39564 -0.242855,-0.79125 -0.406868,-1.18688 0.0028,0.42082 -0.02001,0.83564 -0.08342,1.24097 -0.106478,-0.53904 -0.283344,-1.0781 -0.506759,-1.61714 z m -6.3777665,0.16143 c 0.00366,0.54815 -0.0364,1.08607 -0.1527749,1.60614 0.2147966,-0.007 0.4318032,-0.0171 0.6514067,-0.0296 -0.1072104,-0.52552 -0.2807694,-1.05103 -0.4986318,-1.57654 z m -5.8903369,0.0572 c -0.047529,0.44828 -0.1235701,0.88974 -0.245362,1.32018 0.2879984,-0.008 0.5779071,-0.0165 0.8594263,-0.0166 -0.020939,-0.42441 0.013513,-0.83824 0.114828,-1.24225 -0.1981102,0.34199 -0.3583323,0.68547 -0.4704055,1.03078 -0.060029,-0.36404 -0.1486068,-0.72808 -0.2584868,-1.09212 z m 1.2424062,0.076 c -0.099501,0.41712 -0.2229681,0.82827 -0.3836938,1.23019 0.1722212,0.003 0.3399128,0.0115 0.5003891,0.0261 -0.00351,-0.41878 -0.045805,-0.83752 -0.1166953,-1.25631 z m 8.2195732,0.0402 c -0.04132,0.38938 -0.104209,0.77359 -0.199781,1.14992 0.266406,-0.005 0.537324,0.007 0.809342,0.0262 -0.0087,-0.37991 0.02826,-0.75136 0.119443,-1.1148 -0.198139,0.34199 -0.358415,0.68545 -0.470516,1.03078 -0.06,-0.36404 -0.148664,-0.72806 -0.258488,-1.09208 z m 4.417781,0.008 c -0.232615,0.40154 -0.426521,0.80463 -0.574086,1.20949 0.145107,-0.0398 0.284406,-0.0912 0.417083,-0.15621 0.01917,-0.35652 0.07027,-0.70753 0.157003,-1.05328 z m -11.8511303,0.009 c 9.56e-4,0.14321 -0.00108,0.2857 -0.00664,0.42739 -0.1405868,0.26759 -0.2629518,0.5359 -0.3645287,0.805 0.2775295,0.0335 0.5527882,0.0628 0.8269164,0.088 0.02069,-0.33556 0.069957,-0.66628 0.1516763,-0.99221 -0.1048752,0.18106 -0.2018854,0.36243 -0.2902281,0.54411 -0.057695,-0.18712 -0.1226087,-0.37423 -0.1936314,-0.56135 0.014227,-0.0682 0.029805,-0.1361 0.046788,-0.20383 -0.025361,0.0437 -0.050225,0.0875 -0.07463,0.13135 -0.030844,-0.0795 -0.062793,-0.15894 -0.095718,-0.23842 z m 8.6758113,0.0587 c -0.09071,0.38012 -0.20138,0.7553 -0.341904,1.12304 0.152803,0.0132 0.30549,0.0278 0.45761,0.0425 -0.0085,-0.38852 -0.04999,-0.77706 -0.115706,-1.16558 z m 0.956572,0.16463 c -0.198776,0.34313 -0.36911,0.68738 -0.505718,1.03291 0.117365,0.0109 0.234162,0.0212 0.349924,0.0303 0.01778,-0.35998 0.06826,-0.71431 0.155794,-1.06318 z m 0.437015,0.22115 c -0.164387,0.28378 -0.308921,0.56832 -0.43147,0.85372 0.09705,0.007 0.193353,0.0119 0.288691,0.0157 0.02441,-0.29354 0.07104,-0.58335 0.142779,-0.86945 z m -13.8909664,0.0533 c -0.12418492,0.2144 -0.23320935,0.42937 -0.3250992,0.64501 0.0694941,0.0143 0.14162602,0.0265 0.21631182,0.0366 0.0170671,-0.2303 0.0525821,-0.45747 0.10878738,-0.68159 z m 9.4678604,0.0891 c -0.1408,0.2431 -0.262282,0.48696 -0.361123,0.73168 0.08304,-0.007 0.166554,-0.0149 0.250524,-0.023 0.01622,-0.23959 0.05221,-0.47583 0.110599,-0.70874 z m -2.1649298,0.0294 c -0.1393716,0.27014 -0.2626827,0.54085 -0.3628811,0.81239 0.1461427,-10e-4 0.2930752,-0.005 0.440971,-0.009 -0.043701,-0.26314 -0.068959,-0.53125 -0.07809,-0.80375 z m 0.936198,0.0147 c 0.00171,0.25346 -0.00593,0.50473 -0.02614,0.75304 0.099198,-0.006 0.1988356,-0.012 0.2991793,-0.0188 -0.080012,-0.24474 -0.1715829,-0.48948 -0.2730395,-0.73422 z m -6.7593731,0.0171 c -0.1054289,0.182 -0.1996822,0.36443 -0.2821004,0.54731 0.061613,-10e-4 0.1236144,-0.003 0.1857239,-0.005 0.019682,-0.18289 0.051491,-0.36378 0.096377,-0.54275 z m 14.3786119,0.0384 c -0.04462,0.0787 -0.08736,0.15751 -0.128339,0.23636 0.03956,-0.0256 0.07834,-0.053 0.116423,-0.0818 0.004,-0.02 0.0077,-0.0401 0.01192,-0.0601 z m -4.916631,0.0778 c -0.07355,0.127 -0.141697,0.2542 -0.204287,0.38162 0.04318,-0.003 0.08656,-0.005 0.13004,-0.007 0.01884,-0.12564 0.04321,-0.25041 0.07425,-0.37419 z m -11.44891908,0.1753 c -0.0340226,0.0587 -0.0668927,0.1175 -0.098628,0.17632 0.0181597,0.006 0.0365779,0.0122 0.0552996,0.018 0.0128249,-0.065 0.0271531,-0.1298 0.0433284,-0.19431 z m 3.87289798,-0.0721 c -0.064412,0.11118 -0.1245502,0.22257 -0.1806165,0.3341 0.03732,0.003 0.074173,0.008 0.1106543,0.012 0.018266,-0.11615 0.041235,-0.23157 0.069962,-0.34613 z m -4.42469929,0.0662 5.623e-5,1.5e-4 c -1.8e-5,-6e-5 -2.812e-5,-1e-4 -5.623e-5,-1.5e-4 z m 10.02947639,0.0494 c -0.069981,0.12079 -0.1351555,0.24178 -0.1952246,0.36297 0.041112,-0.003 0.082619,-0.007 0.123944,-0.01 0.018419,-0.11848 0.041978,-0.23615 0.071281,-0.35297 z m 3.857202,6.6e-4 c -0.04782,0.0825 -0.09316,0.16517 -0.136408,0.24787 0.02722,0.003 0.05421,0.005 0.08138,0.008 0.01549,-0.0856 0.03377,-0.17085 0.05502,-0.25563 z"
         id="path782"
         inkscape:connector-curvature="0"
         sodipodi:nodetypes="cccccccccccccccccccccccccccccccccccccccccccccccccccccccccccccccccccccccccccccccccccccccccccccccccccccccccccccccccccccccccccccccccccccccccccccccccccc" />
      <path
         style="opacity:1;fill:#54321d;fill-opacity:1;stroke-width:0.02811669"
         d="m 7.3141386e-6,288.42707 v 0.73381 C 1.1695492,288.68107 2.990744,288.54886 4.4370666,288.90974 c 0.7375986,0.22844 2.5751105,0.58339 4.0296073,0.25114 0.7860307,-0.008 1.5409521,-0.01 2.3001081,-0.096 1.874399,-0.21406 3.882918,-0.42101 6.159807,0.56656 v -1.85285 c -1.312515,1.50391 -3.534872,0.15708 -5.390883,0.50759 -1.12344,0.21217 -2.0821755,0.10256 -3.0690321,0.14089 -1.4092408,0.54963 -2.8023192,0.25188 -4.0817219,-0.0753 -1.4723509,-0.2848 -3.58505925,0.31149 -4.3849446858614,0.0753 z"
         id="path776"
         inkscape:connector-curvature="0"
         sodipodi:nodetypes="ccccccccccc" />
    </g>
    <path
       style="fill:#ff00ff;stroke-width:0.80746686"
       d="m 8.4666739,293.89432 v 0.73381 h 0.7198526 v -0.73381 z"
       id="path837" />
    <path
       style="fill:#ff00ff;stroke-width:0.80746686"
       d="m -0.71984538,293.89432 v 0.73381 H 7.3033293e-6 v -0.73381 z"
       id="rect812" />
  </g>
</svg>
