<?xml version="1.0" encoding="UTF-8" standalone="no"?>
<!-- Created with Inkscape (http://www.inkscape.org/) -->

<svg
   xmlns:dc="http://purl.org/dc/elements/1.1/"
   xmlns:cc="http://creativecommons.org/ns#"
   xmlns:rdf="http://www.w3.org/1999/02/22-rdf-syntax-ns#"
   xmlns:svg="http://www.w3.org/2000/svg"
   xmlns="http://www.w3.org/2000/svg"
   xmlns:sodipodi="http://sodipodi.sourceforge.net/DTD/sodipodi-0.dtd"
   xmlns:inkscape="http://www.inkscape.org/namespaces/inkscape"
   width="31.999998"
   height="31.999998"
   viewBox="0 0 8.466666 8.4666664"
   version="1.1"
   id="svg120"
   inkscape:version="0.92.3 (unknown)"
   sodipodi:docname="grass_rising_left_1.svg">
  <defs
     id="defs114">
    <clipPath
       clipPathUnits="userSpaceOnUse"
       id="clipPath772">
      <rect
         id="rect774"
         width="8.4666662"
         height="8.4666662"
         x="8.4666758"
         y="283.24158"
         style="fill:#744224;fill-opacity:1;stroke-width:0.03307291" />
    </clipPath>
    <clipPath
       clipPathUnits="userSpaceOnUse"
       id="clipPath800">
      <rect
         id="rect802"
         width="8.4666662"
         height="8.4666662"
         x="7.3033293e-06"
         y="283.24155"
         style="fill:#744224;fill-opacity:1;stroke-width:0.03307291" />
    </clipPath>
    <clipPath
       clipPathUnits="userSpaceOnUse"
       id="clipPath804">
      <rect
         style="fill:#744224;fill-opacity:1;stroke-width:0.03307291"
         y="283.24158"
         x="5.2916741"
         height="8.4666662"
         width="8.4666662"
         id="rect806" />
    </clipPath>
    <clipPath
       clipPathUnits="userSpaceOnUse"
       id="clipPath808">
      <rect
         style="fill:#744224;fill-opacity:1;stroke-width:0.03307291"
         y="283.24155"
         x="3.7041717"
         height="8.4666662"
         width="8.4666662"
         id="rect810" />
    </clipPath>
    <clipPath
       clipPathUnits="userSpaceOnUse"
       id="clipPath772-7">
      <rect
         id="rect774-5"
         width="8.4666662"
         height="8.4666662"
         x="8.4666758"
         y="283.24158"
         style="fill:#744224;fill-opacity:1;stroke-width:0.03307291" />
    </clipPath>
    <clipPath
       clipPathUnits="userSpaceOnUse"
       id="clipPath772-70">
      <rect
         id="rect774-9"
         width="8.4666662"
         height="8.4666662"
         x="8.4666758"
         y="283.24158"
         style="fill:#744224;fill-opacity:1;stroke-width:0.03307291" />
    </clipPath>
  </defs>
  <sodipodi:namedview
     id="base"
     pagecolor="#ffffff"
     bordercolor="#666666"
     borderopacity="1.0"
     inkscape:pageopacity="0.0"
     inkscape:pageshadow="2"
     inkscape:zoom="15.732503"
     inkscape:cx="68.024904"
     inkscape:cy="24.872359"
     inkscape:document-units="px"
     inkscape:current-layer="layer1"
     inkscape:document-rotation="0"
     showgrid="false"
     units="px"
     inkscape:snap-page="false"
     inkscape:snap-global="false"
     inkscape:window-width="1530"
     inkscape:window-height="843"
     inkscape:window-x="70"
     inkscape:window-y="20"
     inkscape:window-maximized="1"
     inkscape:snap-others="false"
     inkscape:snap-nodes="true"
     inkscape:snap-bbox="true"
     inkscape:bbox-paths="true"
     inkscape:bbox-nodes="true"
     inkscape:snap-bbox-midpoints="true"
     inkscape:snap-intersection-paths="false"
     inkscape:object-paths="false"
     inkscape:snap-midpoints="true" />
  <metadata
     id="metadata117">
    <rdf:RDF>
      <cc:Work
         rdf:about="">
        <dc:format>image/svg+xml</dc:format>
        <dc:type
           rdf:resource="http://purl.org/dc/dcmitype/StillImage" />
        <dc:title></dc:title>
      </cc:Work>
    </rdf:RDF>
  </metadata>
  <g
     inkscape:label="Layer 1"
     inkscape:groupmode="layer"
     id="layer1"
     transform="translate(-7.3033293e-6,-288.53333)">
    <path
       style="fill:#ff00ff;stroke-width:0.80746686"
       d="m -0.71984538,293.89432 v 0.73381 H 7.3033293e-6 v -0.73381 z"
       id="rect812" />
    <path
       style="opacity:1;fill:#74ad4b;fill-opacity:1;stroke-width:0.02300769"
       d="m 31.011059,301.42556 c -0.04462,0.0787 -0.08736,0.15751 -0.128339,0.23636 0.03956,-0.0256 0.07834,-0.053 0.116423,-0.0818 0.004,-0.02 0.0077,-0.0401 0.01192,-0.0601 z"
       id="path984" />
    <path
       inkscape:connector-curvature="0"
       style="fill:#ff00ff;stroke-width:0.80746686"
       d="m 8.4666739,293.89432 v 0.73381 h 0.7198526 v -0.73381 z"
       id="path837" />
    <g
       id="g1908"
       transform="translate(-8.4632311,2.1166667)">
      <path
         inkscape:connector-curvature="0"
         id="path1004"
         d="m 10.619497,289.23608 c 0.06642,0.52014 0.206668,1.06491 0.351743,1.5297 0.103028,-0.13524 0.24926,-0.20308 0.323988,-0.35226 -0.227243,-0.33335 -0.516517,-0.80739 -0.675696,-1.1774 z"
         style="opacity:1;fill:#5a9141;fill-opacity:1;stroke-width:0.02599755" />
      <path
         inkscape:connector-curvature="0"
         id="path996"
         d="m 11.749139,288.5109 c 0.10338,0.31123 0.220496,0.60811 0.352835,0.8891 0.0696,-0.068 0.137134,-0.13682 0.203205,-0.20566 -0.203516,-0.21294 -0.389503,-0.44004 -0.556062,-0.68347 z"
         style="opacity:1;fill:#74ad4b;fill-opacity:1;stroke-width:0.02300769" />
      <path
         sodipodi:nodetypes="cccccccc"
         inkscape:connector-curvature="0"
         id="path1016"
         d="m 9.5633051,288.81319 c 0.5754739,0.73725 0.6246019,1.69386 0.7468389,2.57577 0.377753,-0.19491 0.760607,-0.39751 1.150268,-0.60975 0.01197,-0.007 0.02434,-0.0127 0.0363,-0.0196 -0.108386,-0.34809 -0.187178,-0.70229 -0.233431,-1.06402 -0.05963,0.38887 -0.09633,0.76978 -0.106197,1.14137 -0.448495,-0.71042 -0.843404,-1.50883 -1.5938504,-2.02397 z"
         style="opacity:1;fill:#3d6b36;fill-opacity:1;stroke-width:0.03566115" />
      <path
         inkscape:connector-curvature="0"
         id="path1014"
         d="m 10.257142,288.8224 c 0.394898,0.51016 0.739693,1.04287 0.995153,1.61566 0.376851,-0.27492 0.751021,-0.51651 1.010114,-0.84568 -0.365073,-0.28373 -0.798675,-0.59391 -1.217256,-0.83677 0.291064,0.37602 0.555013,0.76423 0.775991,1.17174 -0.465241,-0.41111 -0.993713,-0.77399 -1.563978,-1.10492 z"
         style="opacity:1;fill:#5a9141;fill-opacity:1;stroke-width:0.02599755" />
      <path
         inkscape:connector-curvature="0"
         id="path998"
         d="m 10.772452,289.51539 c 0.124995,0.37633 0.269692,0.73211 0.437712,1.06351 0.08599,-0.0806 0.171158,-0.1612 0.25474,-0.24181 -0.25764,-0.25204 -0.489365,-0.52481 -0.69243,-0.82169 z"
         style="opacity:1;fill:#74ad4b;fill-opacity:1;stroke-width:0.02300769" />
      <path
         sodipodi:nodetypes="ccccc"
         inkscape:connector-curvature="0"
         id="path1012"
         d="m 8.9012325,290.12888 c -0.031825,0.82409 0.3432255,1.64884 0.3595266,2.47472 0.3208738,-0.0894 0.6439632,-0.18426 0.9700619,-0.28372 -0.3598039,-0.75045 -0.9430125,-1.44124 -1.3295933,-2.19102 z"
         style="opacity:1;fill:#3d6b36;fill-opacity:1;stroke-width:0.03566115" />
      <path
         sodipodi:nodetypes="ccccccccccccccc"
         inkscape:connector-curvature="0"
         id="path1018"
         d="m 8.4632384,293.94451 c 0.6324394,-0.77724 2.0067966,-2.34796 2.7074016,-3.04767 -0.279166,-0.44269 -0.502432,-0.94109 -0.67641,-1.48854 0.02099,0.59397 0.09477,1.15469 0.225324,1.67964 -0.188381,-0.29675 -0.354526,-0.60903 -0.496487,-0.93899 0.06515,0.40664 0.147893,0.7971 0.251317,1.16851 -0.37467,-0.50317 -0.692315,-1.0451 -0.945679,-1.63408 0.107303,0.66988 0.254528,1.30303 0.451468,1.89036 -0.419567,-0.34178 -0.874048,-0.64881 -1.353609,-0.93086 0.330468,0.44141 0.633002,0.89967 0.891257,1.38467 -0.182456,-0.16669 -0.095314,-0.1658 -0.2927192,-0.31757 -0.03378,-0.0413 -0.2859191,-0.46961 -0.3192411,-0.51163 l -0.00485,0.67145 -0.4157949,-0.33783 z"
         style="opacity:1;fill:#5a9141;fill-opacity:1;stroke-width:0.02967562" />
      <path
         id="path1002"
         d="m 12.076783,288.32533 c 0.07206,0.0507 0.142687,0.10273 0.21168,0.15615 0.08373,0.16609 0.174349,0.32332 0.272791,0.47043 0.116024,-0.12701 0.229131,-0.25439 0.339781,-0.38266 -0.160652,-0.13035 -0.308659,-0.2733 -0.442664,-0.43077 0.05318,0.11726 0.109311,0.23071 0.168706,0.33992 -0.114341,-0.038 -0.231262,-0.0724 -0.350372,-0.10378 -0.02906,-0.0315 -0.0575,-0.0636 -0.08535,-0.0963 0.01282,0.0283 0.02586,0.0564 0.0391,0.0843 -0.05084,-0.013 -0.102052,-0.0254 -0.153631,-0.0374 z"
         style="opacity:1;fill:#74ad4b;fill-opacity:1;stroke-width:0.0141584"
         inkscape:connector-curvature="0" />
      <path
         inkscape:connector-curvature="0"
         id="path1008"
         d="m 8.8653373,291.74102 c 0.1361329,0.40663 0.2487664,0.82089 0.3248961,1.247 0.1477574,-0.0885 0.2945777,-0.16998 0.4384994,-0.24245 -0.2244305,-0.35359 -0.4817781,-0.68661 -0.7634051,-1.00457 z"
         style="opacity:1;fill:#74ad4b;fill-opacity:1;stroke-width:0.02300769" />
      <path
         inkscape:connector-curvature="0"
         id="path1010"
         d="m 9.5285991,290.73982 c 0.1086285,0.43751 0.1881326,0.87836 0.2208764,1.32449 0.2679005,-0.106 0.5374255,-0.21312 0.8019395,-0.30948 -0.164809,-0.39167 -0.273948,-0.79233 -0.316893,-1.20663 -0.06922,0.38912 -0.102327,0.76668 -0.08956,1.1295 -0.1808981,-0.32157 -0.3886208,-0.63337 -0.6163633,-0.93789 z"
         style="opacity:1;fill:#74ad4b;fill-opacity:1;stroke-width:0.02300769" />
      <path
         inkscape:connector-curvature="0"
         id="path1020"
         d="m 9.0284011,290.94936 c 0.2391041,0.43983 0.4393765,0.88948 0.5718149,1.35629 0.2058003,-0.0908 0.421192,-0.20351 0.641341,-0.32547 -0.104638,-0.21428 -0.187237,-0.43584 -0.2450688,-0.66629 -0.00708,0.21234 -0.00247,0.41895 0.016006,0.61884 -0.2892418,-0.34846 -0.6219352,-0.67379 -0.9840566,-0.98331 z"
         style="opacity:1;fill:#74ad4b;fill-opacity:1;stroke-width:0.01925765" />
      <path
         sodipodi:nodetypes="ccccc"
         style="opacity:1;fill:#74ad4b;fill-opacity:1;stroke-width:0.02300769"
         d="m 8.6366429,292.17992 c 0.015677,0.42853 0.1496098,1.05113 0.1022198,1.48139 0.1667439,-0.0431 0.1876554,-0.2732 0.3461901,-0.30206 -0.1153638,-0.4026 -0.2681159,-0.79477 -0.4484135,-1.17935 z"
         id="path1827"
         inkscape:connector-curvature="0" />
      <path
         inkscape:connector-curvature="0"
         id="path1006"
         d="m 10.967343,289.194 c 0.264034,0.28916 0.509894,0.59103 0.728182,0.91213 0.172931,-0.20271 0.36158,-0.39753 0.556346,-0.58838 -0.290116,-0.24544 -0.543622,-0.51944 -0.755173,-0.82871 0.124566,0.37509 0.275341,0.72283 0.459464,1.03576 -0.312261,-0.19652 -0.643515,-0.37157 -0.988803,-0.53078 z"
         style="opacity:1;fill:#74ad4b;fill-opacity:1;stroke-width:0.02300769" />
      <path
         inkscape:connector-curvature="0"
         id="path1004-9"
         d="m 11.636282,287.90243 c 0.179067,0.49284 0.43557,0.99349 0.67921,1.41506 0.0708,-0.15457 0.198556,-0.25288 0.238685,-0.41484 -0.294925,-0.27528 -0.681274,-0.67419 -0.917852,-1.00019 z"
         style="opacity:1;fill:#5a9141;fill-opacity:1;stroke-width:0.02599755" />
      <path
         style="opacity:1;fill:#54321d;fill-opacity:1;stroke-width:0.02811669"
         d="m 8.466674,294.62813 c 0.4323504,-1.03303 1.2781321,-2.0034 2.175323,-2.68928 1.876507,-1.50579 2.342875,-3.36716 3.730518,-5.05516 l -1.438429,1.40839 c -0.829155,1.13834 -1.698382,2.42131 -2.760707,3.33945 -0.5836276,0.50439 -1.1808808,1.60749 -1.706705,2.26279 z"
         id="path762-2"
         inkscape:connector-curvature="0"
         sodipodi:nodetypes="ccccccc" />
    </g>
  </g>
</svg>
