<?xml version="1.0" encoding="UTF-8" standalone="no"?>
<!-- Created with Inkscape (http://www.inkscape.org/) -->

<svg
   xmlns:dc="http://purl.org/dc/elements/1.1/"
   xmlns:cc="http://creativecommons.org/ns#"
   xmlns:rdf="http://www.w3.org/1999/02/22-rdf-syntax-ns#"
   xmlns:svg="http://www.w3.org/2000/svg"
   xmlns="http://www.w3.org/2000/svg"
   xmlns:sodipodi="http://sodipodi.sourceforge.net/DTD/sodipodi-0.dtd"
   xmlns:inkscape="http://www.inkscape.org/namespaces/inkscape"
   width="31.999998"
   height="31.999998"
   viewBox="0 0 8.466666 8.4666664"
   version="1.1"
   id="svg120"
   inkscape:version="0.92+devel (200b3ed9e, 2018-08-05)"
   sodipodi:docname="land_block_4.svg">
  <defs
     id="defs114" />
  <sodipodi:namedview
     id="base"
     pagecolor="#ffffff"
     bordercolor="#666666"
     borderopacity="1.0"
     inkscape:pageopacity="0.0"
     inkscape:pageshadow="2"
     inkscape:zoom="5.6"
     inkscape:cx="46.983555"
     inkscape:cy="1.3026812"
     inkscape:document-units="px"
     inkscape:current-layer="layer1"
     inkscape:document-rotation="0"
     showgrid="false"
     units="px"
     inkscape:snap-page="true"
     inkscape:snap-global="false"
     inkscape:window-width="1530"
     inkscape:window-height="843"
     inkscape:window-x="70"
     inkscape:window-y="20"
     inkscape:window-maximized="1" />
  <metadata
     id="metadata117">
    <rdf:RDF>
      <cc:Work
         rdf:about="">
        <dc:format>image/svg+xml</dc:format>
        <dc:type
           rdf:resource="http://purl.org/dc/dcmitype/StillImage" />
        <dc:title></dc:title>
      </cc:Work>
    </rdf:RDF>
  </metadata>
  <g
     inkscape:label="Layer 1"
     inkscape:groupmode="layer"
     id="layer1"
     transform="translate(-7.3033293e-6,-288.53333)">
    <rect
       id="rect171"
       width="8.4666662"
       height="8.4666662"
       x="7.3033293e-06"
       y="288.53333"
       style="fill:#744224;fill-opacity:1;stroke-width:0.03307291" />
    <path
       style="opacity:1;stroke-width:0.03307291"
       d="m 4.1175821,294.43944 c 0.033867,0 0.061317,0.0274 0.061317,0.0613 0,0.0339 -0.027451,0.0613 -0.061317,0.0613 -0.033867,0 -0.061317,-0.0274 -0.061317,-0.0613 0,-0.0339 0.027451,-0.0613 0.061317,-0.0613"
       id="path273"
       inkscape:connector-curvature="0" />
    <path
       style="opacity:1;stroke-width:0.03307291"
       d="m 3.0638874,294.12286 c 0.0593,0 0.1072887,0.0481 0.1072887,0.10732 0,0.0593 -0.047989,0.10729 -0.1072887,0.10729 -0.059234,0 -0.107255,-0.048 -0.107255,-0.10729 0,-0.0593 0.048021,-0.10732 0.107255,-0.10732 z"
       id="path271"
       inkscape:connector-curvature="0" />
    <path
       style="opacity:1;stroke-width:0.03307291"
       d="m 4.4893434,295.11791 c 0.071932,0 0.13034,0.0584 0.13034,0.13034 0,0.072 -0.058407,0.13028 -0.13034,0.13028 -0.071968,0 -0.1302413,-0.0583 -0.1302413,-0.13028 0,-0.072 0.058274,-0.13034 0.1302413,-0.13034 z"
       id="path269"
       inkscape:connector-curvature="0" />
    <path
       style="opacity:1;stroke-width:0.03307291"
       d="m 7.5718692,292.92111 c 0.0508,0 0.09191,0.0412 0.09191,0.092 0,0.0508 -0.04111,0.092 -0.09191,0.092 -0.0508,0 -0.092009,-0.0412 -0.092009,-0.092 0,-0.0508 0.041209,-0.092 0.092009,-0.092 z"
       id="path267"
       inkscape:connector-curvature="0" />
    <path
       style="opacity:1;stroke-width:0.03307291"
       d="m 5.9128777,293.07831 c 0.067734,0 0.122635,0.0549 0.122635,0.12264 0,0.0677 -0.054901,0.12263 -0.122635,0.12263 -0.067799,0 -0.1226662,-0.0549 -0.1226662,-0.12263 0,-0.0677 0.054868,-0.12264 0.1226662,-0.12264 z"
       id="path265"
       inkscape:connector-curvature="0" />
    <path
       style="opacity:1;stroke-width:0.03307291"
       d="m 4.8715537,293.10048 c -0.0466,0 -0.084336,0.0378 -0.084336,0.0843 0,0.0466 0.037736,0.0843 0.084336,0.0843 0.0465,0 0.084236,-0.0378 0.084236,-0.0843 0,-0.0466 -0.037736,-0.0843 -0.084236,-0.0843 z"
       id="path263"
       inkscape:connector-curvature="0" />
    <path
       style="opacity:1;stroke-width:0.03307291"
       d="m 1.4164899,293.86933 c 0.076167,0 0.1379137,0.0617 0.1379137,0.13798 0,0.0762 -0.061746,0.13794 -0.1379137,0.13794 -0.076232,0 -0.1380463,-0.0617 -0.1380463,-0.13794 0,-0.0762 0.061814,-0.13798 0.1380463,-0.13798 z"
       id="path261"
       inkscape:connector-curvature="0" />
    <path
       style="opacity:1;stroke-width:0.03307291"
       d="m 4.1827486,292.59159 c 0.055001,0 0.099616,0.0446 0.099616,0.0996 0,0.055 -0.044615,0.0996 -0.099616,0.0996 -0.055,0 -0.099714,-0.0446 -0.099714,-0.0996 0,-0.0551 0.044714,-0.0996 0.099714,-0.0996 z"
       id="path259"
       inkscape:connector-curvature="0" />
    <path
       style="opacity:1;stroke-width:0.03307291"
       d="m 7.3400428,293.62895 c 0.0804,0 0.1455875,0.0652 0.1455875,0.14562 0,0.0805 -0.065187,0.14565 -0.1455875,0.14565 -0.080466,0 -0.1456525,-0.0652 -0.1456525,-0.14565 0,-0.0804 0.065186,-0.14562 0.1456525,-0.14562 z"
       id="path257"
       inkscape:connector-curvature="0" />
    <path
       style="opacity:1;stroke-width:0.03307291"
       d="m 2.9907537,294.3089 c 0.0423,0 0.07663,0.0343 0.07663,0.0766 0,0.0424 -0.03433,0.0767 -0.07663,0.0767 -0.042334,0 -0.076696,-0.0343 -0.076696,-0.0767 0,-0.0423 0.034363,-0.0766 0.076696,-0.0766 z"
       id="path255"
       inkscape:connector-curvature="0" />
    <path
       style="opacity:1;stroke-width:0.03307291"
       d="m 5.5668323,291.90822 c 0.0338,0 0.061251,0.0274 0.061251,0.0613 0,0.0339 -0.027451,0.0613 -0.061251,0.0613 -0.033866,0 -0.061416,-0.0274 -0.061416,-0.0613 0,-0.0339 0.02755,-0.0613 0.061416,-0.0613 z"
       id="path253"
       inkscape:connector-curvature="0" />
    <path
       style="opacity:1;stroke-width:0.03307291"
       d="m 5.8241097,291.85469 c 0.046501,0 0.084238,0.0377 0.084238,0.0843 0,0.0466 -0.037736,0.0843 -0.084238,0.0843 -0.046599,0 -0.084335,-0.0377 -0.084335,-0.0843 0,-0.0466 0.037736,-0.0843 0.084335,-0.0843 z"
       id="path251"
       inkscape:connector-curvature="0" />
    <path
       style="opacity:1;stroke-width:0.03307291"
       d="m 6.1452351,290.09797 c 0.057184,0 0.103485,0.0463 0.103485,0.10345 0,0.0572 -0.046301,0.10348 -0.103485,0.10348 -0.057216,0 -0.103485,-0.0463 -0.103485,-0.10348 0,-0.0572 0.046269,-0.10345 0.103485,-0.10345 z"
       id="path249"
       inkscape:connector-curvature="0" />
    <path
       style="opacity:1;stroke-width:0.03307291"
       d="m 5.6660727,289.22295 c 0.0339,0 0.06135,0.0274 0.06135,0.0613 0,0.0339 -0.02745,0.0613 -0.06135,0.0613 -0.033834,0 -0.061317,-0.0274 -0.061317,-0.0613 0,-0.0339 0.027484,-0.0613 0.061317,-0.0613 z"
       id="path247"
       inkscape:connector-curvature="0" />
    <path
       style="opacity:1;stroke-width:0.03307291"
       d="m 3.6421148,294.50323 c 0.0423,0 0.076564,0.0343 0.076564,0.0766 0,0.0423 -0.034264,0.0766 -0.076564,0.0766 -0.042301,0 -0.07663,-0.0343 -0.07663,-0.0766 0,-0.0423 0.034329,-0.0766 0.07663,-0.0766 z"
       id="path245"
       inkscape:connector-curvature="0" />
    <path
       style="opacity:1;stroke-width:0.03307291"
       d="m 7.0305751,291.39376 c 0.0593,0 0.1072888,0.0481 0.1072888,0.10732 0,0.0592 -0.047989,0.10726 -0.1072888,0.10726 -0.059266,0 -0.1072875,-0.048 -0.1072875,-0.10726 0,-0.0593 0.048021,-0.10732 0.1072875,-0.10732 z"
       id="path243"
       inkscape:connector-curvature="0" />
    <path
       style="opacity:1;stroke-width:0.03307291"
       d="m 3.0641241,295.93161 c 0.033932,0 0.061382,0.0274 0.061382,0.0613 0,0.0339 -0.02745,0.0613 -0.061382,0.0613 -0.033834,0 -0.061284,-0.0274 -0.061284,-0.0613 0,-0.0339 0.02745,-0.0613 0.061284,-0.0613 z"
       id="path241"
       inkscape:connector-curvature="0" />
    <path
       style="opacity:1;stroke-width:0.03307291"
       d="m 7.2287546,290.13796 c 0.052884,0 0.095779,0.0429 0.095779,0.0958 0,0.0529 -0.042895,0.0958 -0.095779,0.0958 -0.052918,0 -0.095845,-0.0429 -0.095845,-0.0958 0,-0.0529 0.042927,-0.0958 0.095845,-0.0958 z"
       id="path239"
       inkscape:connector-curvature="0" />
    <path
       style="opacity:1;stroke-width:0.03307291"
       d="m 3.1965391,290.614 c 0.023251,0 0.042235,0.0189 0.042235,0.0421 0,0.0233 -0.018984,0.0422 -0.042235,0.0422 -0.02325,0 -0.042134,-0.0189 -0.042134,-0.0422 0,-0.0233 0.018884,-0.0421 0.042134,-0.0421 z"
       id="path237"
       inkscape:connector-curvature="0" />
    <path
       style="opacity:1;stroke-width:0.03307291"
       d="m 1.5410371,295.7338 c 0.027549,0 0.049874,0.0223 0.049874,0.0498 0,0.0275 -0.022325,0.0498 -0.049874,0.0498 -0.027484,0 -0.049775,-0.0223 -0.049775,-0.0498 0,-0.0275 0.022291,-0.0498 0.049775,-0.0498 z"
       id="path235"
       inkscape:connector-curvature="0" />
    <path
       style="opacity:1;stroke-width:0.03307291"
       d="m 6.1517475,292.37424 c 0.0931,0 0.1686387,0.0755 0.1686387,0.16864 0,0.0931 -0.075539,0.1686 -0.1686387,0.1686 -0.0931,0 -0.1686058,-0.0755 -0.1686058,-0.1686 0,-0.0931 0.075505,-0.16864 0.1686058,-0.16864 z"
       id="path233"
       inkscape:connector-curvature="0" />
    <path
       style="opacity:1;stroke-width:0.03307291"
       d="m 2.5979348,289.79521 c 0.093133,0 0.1686389,0.0755 0.1686389,0.16864 0,0.0931 -0.075506,0.1686 -0.1686389,0.1686 -0.093133,0 -0.1686057,-0.0755 -0.1686057,-0.1686 0,-0.0931 0.075472,-0.16864 0.1686057,-0.16864 z"
       id="path231"
       inkscape:connector-curvature="0" />
    <path
       style="opacity:1;stroke-width:0.03307291"
       d="m 3.7532866,292.93484 c 0.0762,0 0.1379802,0.0618 0.1379802,0.13795 0,0.0762 -0.06178,0.13798 -0.1379802,0.13798 -0.076233,0 -0.1379802,-0.0618 -0.1379802,-0.13798 0,-0.0762 0.061747,-0.13795 0.1379802,-0.13795 z"
       id="path229"
       inkscape:connector-curvature="0" />
    <path
       style="opacity:1;stroke-width:0.03307291"
       d="m 7.0048178,292.47821 c 0.059267,0 0.1073217,0.0481 0.1073217,0.10735 0,0.0592 -0.048055,0.10729 -0.1073217,0.10729 -0.059267,0 -0.1072886,-0.048 -0.1072886,-0.10729 0,-0.0593 0.048022,-0.10735 0.1072886,-0.10735 z"
       id="path227"
       inkscape:connector-curvature="0" />
    <path
       style="opacity:1;stroke-width:0.03307291"
       d="m 5.8419717,294.76453 c 0.0508,0 0.091976,0.0412 0.091976,0.092 0,0.0508 -0.041176,0.092 -0.091976,0.092 -0.0508,0 -0.091943,-0.0412 -0.091943,-0.092 0,-0.0508 0.041143,-0.092 0.091943,-0.092 z"
       id="path225"
       inkscape:connector-curvature="0" />
    <path
       style="opacity:1;stroke-width:0.03307291"
       d="m 1.5777976,292.31191 c 0.071967,0 0.1302742,0.0584 0.1302742,0.13034 0,0.072 -0.058308,0.13027 -0.1302742,0.13027 -0.071967,0 -0.1303073,-0.0583 -0.1303073,-0.13027 0,-0.072 0.058341,-0.13034 0.1303073,-0.13034 z"
       id="path223"
       inkscape:connector-curvature="0" />
    <path
       style="opacity:1;stroke-width:0.03307291"
       d="m 2.3854484,290.41074 c 0.0508,0 0.092009,0.0412 0.092009,0.092 0,0.0508 -0.041209,0.092 -0.092009,0.092 -0.0508,0 -0.091943,-0.0412 -0.091943,-0.092 0,-0.0508 0.041143,-0.092 0.091943,-0.092 z"
       id="path221"
       inkscape:connector-curvature="0" />
    <path
       style="opacity:1;stroke-width:0.03307291"
       d="m 2.2486495,295.30801 c 0.021167,0 0.038332,0.0172 0.038332,0.0383 0,0.0212 -0.017165,0.0383 -0.038332,0.0383 -0.021133,0 -0.038298,-0.0172 -0.038298,-0.0383 0,-0.0212 0.017165,-0.0383 0.038298,-0.0383 z"
       id="path219"
       inkscape:connector-curvature="0" />
    <path
       style="opacity:1;stroke-width:0.03307291"
       d="m 4.411602,295.69446 c 0.029666,0 0.053676,0.024 0.053676,0.0537 0,0.0296 -0.02401,0.0537 -0.053676,0.0537 -0.029601,0 -0.053645,-0.0241 -0.053645,-0.0537 0,-0.0297 0.024044,-0.0537 0.053645,-0.0537 z"
       id="path217"
       inkscape:connector-curvature="0" />
    <path
       style="opacity:1;stroke-width:0.03307291"
       d="m 4.8905833,294.73597 c 0.0931,0 0.1686051,0.0755 0.1686051,0.16857 0,0.0932 -0.075505,0.16864 -0.1686051,0.16864 -0.093134,0 -0.16864,-0.0755 -0.16864,-0.16864 0,-0.0931 0.075506,-0.16857 0.16864,-0.16857 z"
       id="path215"
       inkscape:connector-curvature="0" />
    <path
       style="opacity:1;stroke-width:0.03307291"
       d="m 6.9633346,295.43183 c 0.1439338,0 0.260615,0.11668 0.260615,0.26062 0,0.1439 -0.1166812,0.26061 -0.260615,0.26061 -0.1438663,0 -0.2605813,-0.11671 -0.2605813,-0.26061 0,-0.14394 0.116715,-0.26062 0.2605813,-0.26062 z"
       id="path213"
       inkscape:connector-curvature="0" />
    <path
       style="opacity:1;stroke-width:0.03307291"
       d="m 6.9171805,295.80527 c 0.016934,0 0.030659,0.0137 0.030659,0.0307 0,0.0169 -0.013725,0.0307 -0.030659,0.0307 -0.016934,0 -0.030659,-0.0137 -0.030659,-0.0307 0,-0.0169 0.013725,-0.0307 0.030659,-0.0307 z"
       id="path211"
       inkscape:connector-curvature="0" />
    <path
       style="opacity:1;stroke-width:0.03307291"
       d="m 1.4204371,290.24461 c 0.0339,0 0.061351,0.0275 0.061351,0.0614 0,0.0338 -0.027451,0.0613 -0.061351,0.0613 -0.033866,0 -0.061316,-0.0275 -0.061316,-0.0613 0,-0.0339 0.02745,-0.0614 0.061316,-0.0614 z"
       id="path209"
       inkscape:connector-curvature="0" />
    <path
       style="opacity:1;stroke-width:0.03307291"
       d="m 4.8617713,289.23705 c 0.076233,0 0.1379802,0.0618 0.1379802,0.13798 0,0.0762 -0.061747,0.13795 -0.1379802,0.13795 -0.0762,0 -0.1379803,-0.0618 -0.1379803,-0.13795 0,-0.0762 0.06178,-0.13798 0.1379803,-0.13798 z"
       id="path207"
       inkscape:connector-curvature="0" />
    <path
       style="opacity:1;stroke-width:0.03307291"
       d="m 4.6309238,292.25074 c 0.055,0 0.099583,0.0446 0.099583,0.0996 0,0.055 -0.044582,0.0996 -0.099583,0.0996 -0.055033,0 -0.099649,-0.0446 -0.099649,-0.0996 0,-0.055 0.044615,-0.0996 0.099649,-0.0996 z"
       id="path205"
       inkscape:connector-curvature="0" />
    <path
       style="opacity:1;stroke-width:0.03307291"
       d="m 5.054421,290.90449 c 0.1185334,0 0.2146433,0.0961 0.2146433,0.21464 0,0.11854 -0.09611,0.21462 -0.2146433,0.21462 -0.1185332,0 -0.2146101,-0.0961 -0.2146101,-0.21462 0,-0.11853 0.096077,-0.21464 0.2146101,-0.21464 z"
       id="path203"
       inkscape:connector-curvature="0" />
    <path
       style="opacity:1;stroke-width:0.03307291"
       d="m 2.9976293,292.23659 c 0.093166,0 0.1686387,0.0755 0.1686387,0.16867 0,0.0931 -0.075472,0.16861 -0.1686387,0.16861 -0.093133,0 -0.1686389,-0.0755 -0.1686389,-0.16861 0,-0.0932 0.075506,-0.16867 0.1686389,-0.16867 z"
       id="path201"
       inkscape:connector-curvature="0" />
    <path
       style="opacity:1;stroke-width:0.03307291"
       d="m 5.4336827,289.89502 c 0.071967,0 0.1302742,0.0583 0.1302742,0.13027 0,0.072 -0.058308,0.13031 -0.1302742,0.13031 -0.071967,0 -0.1302743,-0.0583 -0.1302743,-0.13031 0,-0.0719 0.058308,-0.13027 0.1302743,-0.13027 z"
       id="path199"
       inkscape:connector-curvature="0" />
    <path
       style="opacity:1;stroke-width:0.03307291"
       d="m 5.7042802,289.91502 c 0.0508,0 0.091976,0.0412 0.091976,0.092 0,0.0508 -0.041176,0.0919 -0.091976,0.0919 -0.0508,0 -0.091976,-0.0412 -0.091976,-0.0919 0,-0.0508 0.041176,-0.092 0.091976,-0.092 z"
       id="path197"
       inkscape:connector-curvature="0" />
    <path
       style="opacity:1;stroke-width:0.03307291"
       d="m 7.4800746,294.76566 c 0.021134,0 0.038299,0.0172 0.038299,0.0383 0,0.0212 -0.017165,0.0383 -0.038299,0.0383 -0.0212,0 -0.038365,-0.0171 -0.038365,-0.0383 0,-0.0211 0.017165,-0.0383 0.038365,-0.0383 z"
       id="path195"
       inkscape:connector-curvature="0" />
    <path
       style="opacity:1;stroke-width:0.03307291"
       d="m 4.9188815,294.21592 c 0.063467,0 0.1149284,0.0515 0.1149284,0.11496 0,0.0635 -0.051461,0.11496 -0.1149284,0.11496 -0.0635,0 -0.1149945,-0.0515 -0.1149945,-0.11496 0,-0.0635 0.051494,-0.11496 0.1149945,-0.11496 z"
       id="path193"
       inkscape:connector-curvature="0" />
    <path
       style="opacity:1;stroke-width:0.03307291"
       d="m 0.82592374,290.9702 c 0.1439664,0 0.26061456,0.11668 0.26061456,0.26058 0,0.14393 -0.11664816,0.26061 -0.26061456,0.26061 -0.1439334,0 -0.2605815,-0.11668 -0.2605815,-0.26061 0,-0.1439 0.1166481,-0.26058 0.2605815,-0.26058 z"
       id="path191"
       inkscape:connector-curvature="0" />
    <path
       style="opacity:1;stroke-width:0.03307291"
       d="m 7.5644012,293.28729 c 0.046567,0 0.084303,0.0378 0.084303,0.0843 0,0.0466 -0.037736,0.0843 -0.084303,0.0843 -0.046567,0 -0.084336,-0.0377 -0.084336,-0.0843 0,-0.0466 0.037769,-0.0843 0.084336,-0.0843 z"
       id="path189"
       inkscape:connector-curvature="0" />
    <path
       style="opacity:1;stroke-width:0.03307291"
       d="m 1.5864734,295.37333 c -0.0381,0 -0.06899,0.0309 -0.06899,0.069 0,0.0381 0.03089,0.069 0.06899,0.069 0.0381,0 0.068957,-0.0308 0.068957,-0.069 0,-0.0381 -0.030857,-0.069 -0.068957,-0.069 z"
       id="path187"
       inkscape:connector-curvature="0" />
    <path
       style="opacity:1;stroke-width:0.03307291"
       d="m 3.6472968,293.77306 c 0.1100335,0 0.1992642,0.0892 0.1992642,0.19926 0,0.11007 -0.089231,0.19927 -0.1992642,0.19927 -0.1100668,0 -0.1992974,-0.0892 -0.1992974,-0.19927 0,-0.11006 0.089231,-0.19926 0.1992974,-0.19926 z"
       id="path185"
       inkscape:connector-curvature="0" />
    <path
       style="opacity:1;stroke-width:0.03307291"
       d="m 1.6746292,292.3234 c 0.0762,0 0.1379471,0.0617 0.1379471,0.13794 0,0.0762 -0.061747,0.13795 -0.1379471,0.13795 -0.076233,0 -0.1380132,-0.0618 -0.1380132,-0.13795 0,-0.0762 0.06178,-0.13794 0.1380132,-0.13794 z"
       id="path183"
       inkscape:connector-curvature="0" />
    <path
       style="opacity:1;stroke-width:0.03307291"
       d="m 2.2566975,291.68326 c 0.067733,0 0.1226344,0.0549 0.1226344,0.12263 0,0.0678 -0.054901,0.12267 -0.1226344,0.12267 -0.067733,0 -0.1226675,-0.0549 -0.1226675,-0.12267 0,-0.0677 0.054934,-0.12263 0.1226675,-0.12263 z"
       id="path181"
       inkscape:connector-curvature="0" />
    <path
       style="opacity:1;stroke-width:0.03307291"
       d="m 2.2338994,289.89288 c 0.025367,0 0.045971,0.0206 0.045971,0.046 0,0.0254 -0.020604,0.046 -0.045971,0.046 -0.025433,0 -0.046004,-0.0206 -0.046004,-0.046 0,-0.0254 0.020571,-0.046 0.046004,-0.046 z"
       id="path179"
       inkscape:connector-curvature="0" />
    <path
       style="opacity:1;stroke-width:0.03307291"
       d="m 3.3307213,294.98657 c 0.016933,0 0.030659,0.0137 0.030659,0.0307 0,0.0169 -0.013725,0.0307 -0.030659,0.0307 -0.016933,0 -0.030659,-0.0137 -0.030659,-0.0307 0,-0.017 0.013725,-0.0307 0.030659,-0.0307 z"
       id="path177"
       inkscape:connector-curvature="0" />
    <path
       style="opacity:1;stroke-width:0.03307291"
       d="m 5.6213462,289.45262 c 0.0635,0 0.1149946,0.0515 0.1149946,0.115 0,0.0634 -0.051494,0.11496 -0.1149946,0.11496 -0.063467,0 -0.1149615,-0.0515 -0.1149615,-0.11496 0,-0.0635 0.051495,-0.115 0.1149615,-0.115 z"
       id="path175"
       inkscape:connector-curvature="0" />
    <path
       style="opacity:1;stroke-width:0.03307291"
       d="m 3.1230309,292.88115 c 0.080433,0 0.1456531,0.0652 0.1456531,0.14566 0,0.0804 -0.06522,0.14558 -0.1456531,0.14558 -0.0804,0 -0.1456202,-0.0652 -0.1456202,-0.14558 0,-0.0805 0.06522,-0.14566 0.1456202,-0.14566 z"
       id="path101"
       inkscape:connector-curvature="0" />
  </g>
</svg>
