<?xml version="1.0" encoding="UTF-8" standalone="no"?>
<!-- Created with Inkscape (http://www.inkscape.org/) -->

<svg
   xmlns:dc="http://purl.org/dc/elements/1.1/"
   xmlns:cc="http://creativecommons.org/ns#"
   xmlns:rdf="http://www.w3.org/1999/02/22-rdf-syntax-ns#"
   xmlns:svg="http://www.w3.org/2000/svg"
   xmlns="http://www.w3.org/2000/svg"
   xmlns:sodipodi="http://sodipodi.sourceforge.net/DTD/sodipodi-0.dtd"
   xmlns:inkscape="http://www.inkscape.org/namespaces/inkscape"
   width="96"
   height="96"
   id="svg2"
   version="1.1"
   inkscape:version="0.48.4 r9939"
   sodipodi:docname="rabbit_explode_03.svg">
  <defs
     id="defs4" />
  <sodipodi:namedview
     id="base"
     pagecolor="#ffffff"
     bordercolor="#666666"
     borderopacity="1.0"
     inkscape:pageopacity="0.0"
     inkscape:pageshadow="2"
     inkscape:zoom="8.8645833"
     inkscape:cx="48"
     inkscape:cy="48"
     inkscape:document-units="px"
     inkscape:current-layer="layer1"
     showgrid="false"
     inkscape:window-width="1920"
     inkscape:window-height="1031"
     inkscape:window-x="0"
     inkscape:window-y="26"
     inkscape:window-maximized="1" />
  <metadata
     id="metadata7">
    <rdf:RDF>
      <cc:Work
         rdf:about="">
        <dc:format>image/svg+xml</dc:format>
        <dc:type
           rdf:resource="http://purl.org/dc/dcmitype/StillImage" />
        <dc:title />
      </cc:Work>
    </rdf:RDF>
  </metadata>
  <g
     inkscape:label="Layer 1"
     inkscape:groupmode="layer"
     id="layer1"
     transform="translate(0,-956.3622)">
    <g
       id="g4308"
       transform="matrix(0.83204671,0.55470557,-0.55470557,0.83204671,575.00306,142.65218)"
       style="opacity:0.9">
      <path
         d="m 20.906667,29.475555 c 0,0.648015 -1.512283,1.173334 -3.377778,1.173334 -1.865495,0 -3.377778,-0.525319 -3.377778,-1.173334 0,-0.648014 1.512283,-1.173333 3.377778,-1.173333 1.865495,0 3.377778,0.525319 3.377778,1.173333 z"
         sodipodi:ry="1.1733333"
         sodipodi:rx="3.3777778"
         sodipodi:cy="29.475555"
         sodipodi:cx="17.528889"
         id="path3766-3"
         style="fill:#ffffff;fill-opacity:1;stroke:#000000;stroke-opacity:1"
         sodipodi:type="arc"
         transform="matrix(0.50825872,0.03805256,-0.09563704,1.1025448,44.724407,985.73882)" />
      <path
         transform="matrix(0.43753699,-0.0096245,0.02351804,1.0691489,44.148558,986.07253)"
         d="m 17.493333,27.946667 c 0,1.256754 -1.655552,2.275555 -3.697778,2.275555 -2.042226,0 -3.697778,-1.018801 -3.697778,-2.275555 0,-1.256755 1.655552,-2.275556 3.697778,-2.275556 2.042226,0 3.697778,1.018801 3.697778,2.275556 z"
         sodipodi:ry="2.2755556"
         sodipodi:rx="3.6977777"
         sodipodi:cy="27.946667"
         sodipodi:cx="13.795555"
         id="path3796-0"
         style="fill:#ffffff;fill-opacity:1;stroke:#000000;stroke-opacity:1"
         sodipodi:type="arc" />
    </g>
    <path
       sodipodi:type="arc"
       style="fill:#ffffff;fill-opacity:1;stroke:#000000;stroke-opacity:1;opacity:0.9"
       id="path3792-5"
       sodipodi:cx="19.768888"
       sodipodi:cy="22.151112"
       sodipodi:rx="1.4222223"
       sodipodi:ry="3.8044446"
       d="m 21.191111,22.151112 c 0,2.101136 -0.636751,3.804444 -1.422223,3.804444 -0.785471,0 -1.422222,-1.703308 -1.422222,-3.804444 0,-2.101137 0.636751,-3.804445 1.422222,-3.804445 0.785472,0 1.422223,1.703308 1.422223,3.804445 z"
       transform="matrix(-0.27427367,-0.96165167,0.96165167,-0.27427367,41.035796,1030.5376)" />
    <path
       sodipodi:type="arc"
       style="fill:#ffffff;fill-opacity:1;stroke:#000000;stroke-opacity:1;opacity:0.9"
       id="path3792"
       sodipodi:cx="19.768888"
       sodipodi:cy="22.151112"
       sodipodi:rx="1.4222223"
       sodipodi:ry="3.8044446"
       d="m 21.191111,22.151112 c 0,2.101136 -0.636751,3.804444 -1.422223,3.804444 -0.785471,0 -1.422222,-1.703308 -1.422222,-3.804444 0,-2.101137 0.636751,-3.804445 1.422222,-3.804445 0.785472,0 1.422223,1.703308 1.422223,3.804445 z"
       transform="matrix(-0.47773159,0.87850587,-0.87850587,-0.47773159,65.823463,996.66733)" />
    <path
       sodipodi:type="arc"
       style="fill:#ffffff;fill-opacity:1;stroke:#000000;stroke-opacity:1;opacity:0.9"
       id="path3772"
       sodipodi:cx="10.204445"
       sodipodi:cy="7.6088891"
       sodipodi:rx="3.3777778"
       sodipodi:ry="1.6355555"
       d="m 13.582223,7.6088891 c 0,0.9032924 -1.512283,1.6355555 -3.377778,1.6355555 -1.8654953,0 -3.3777779,-0.7322631 -3.3777779,-1.6355555 0,-0.9032924 1.5122826,-1.6355555 3.3777779,-1.6355555 1.865495,0 3.377778,0.7322631 3.377778,1.6355555 z"
       transform="matrix(0.62167075,0.52428723,-0.72358325,0.71690504,38.464729,982.25271)" />
    <path
       sodipodi:type="arc"
       style="fill:#4d4d4b;fill-opacity:1;stroke:#000000;stroke-opacity:1;opacity:0.9"
       id="path3772-7"
       sodipodi:cx="10.204445"
       sodipodi:cy="7.6088891"
       sodipodi:rx="3.3777778"
       sodipodi:ry="1.6355555"
       d="m 13.582223,7.6088891 c 0,0.9032924 -1.512283,1.6355555 -3.377778,1.6355555 -1.8654953,0 -3.3777779,-0.7322631 -3.3777779,-1.6355555 0,-0.9032924 1.5122826,-1.6355555 3.3777779,-1.6355555 1.865495,0 3.377778,0.7322631 3.377778,1.6355555 z"
       transform="matrix(-0.53987991,0.64370155,-0.71302547,-0.5450093,62.354214,989.8939)" />
    <g
       id="g4312"
       transform="matrix(0.87205213,-0.48941299,0.48941299,0.87205213,-494.84506,150.84195)"
       style="opacity:0.9">
      <path
         transform="matrix(0.49816262,0.01101159,-0.0259843,0.98356126,33.573584,989.84933)"
         d="m 20.906667,29.475555 c 0,0.648015 -1.512283,1.173334 -3.377778,1.173334 -1.865495,0 -3.377778,-0.525319 -3.377778,-1.173334 0,-0.648014 1.512283,-1.173333 3.377778,-1.173333 1.865495,0 3.377778,0.525319 3.377778,1.173333 z"
         sodipodi:ry="1.1733333"
         sodipodi:rx="3.3777778"
         sodipodi:cy="29.475555"
         sodipodi:cx="17.528889"
         id="path3766"
         style="fill:#ffffff;fill-opacity:1;stroke:#000000;stroke-opacity:1"
         sodipodi:type="arc" />
      <path
         transform="matrix(0.39355872,-0.00844164,0.02458259,1.1460676,35.437939,984.17466)"
         d="m 17.493333,27.946667 c 0,1.256754 -1.655552,2.275555 -3.697778,2.275555 -2.042226,0 -3.697778,-1.018801 -3.697778,-2.275555 0,-1.256755 1.655552,-2.275556 3.697778,-2.275556 2.042226,0 3.697778,1.018801 3.697778,2.275556 z"
         sodipodi:ry="2.2755556"
         sodipodi:rx="3.6977777"
         sodipodi:cy="27.946667"
         sodipodi:cx="13.795555"
         id="path3796"
         style="fill:#ffffff;fill-opacity:1;stroke:#000000;stroke-opacity:1"
         sodipodi:type="arc" />
    </g>
    <g
       id="g4303"
       transform="matrix(0.97284886,-0.23144136,0.23144136,0.97284886,-231.54529,35.581435)"
       style="opacity:0.9">
      <path
         transform="matrix(0.77053203,0.12335422,-0.06851811,0.95498434,34.228385,987.9455)"
         d="m 21.617778,9.8488894 c 0,2.1796836 -2.164952,3.9466666 -4.835555,3.9466666 -2.670604,0 -4.835556,-1.766983 -4.835556,-3.9466666 0,-2.1796839 2.164952,-3.9466668 4.835556,-3.9466668 2.670603,0 4.835555,1.7669829 4.835555,3.9466668 z"
         sodipodi:ry="3.9466667"
         sodipodi:rx="4.8355556"
         sodipodi:cy="9.8488894"
         sodipodi:cx="16.782223"
         id="path3770"
         style="fill:#ffffff;fill-opacity:1;stroke:#000000;stroke-opacity:1"
         sodipodi:type="arc" />
      <path
         transform="matrix(1.1870228,-0.07665294,0.07665294,1.1870228,20.141619,989.3872)"
         d="m 20.479999,9.7066669 c 0,0.2160047 -0.175106,0.3911111 -0.391111,0.3911111 -0.216005,0 -0.391111,-0.1751064 -0.391111,-0.3911111 0,-0.2160047 0.175106,-0.3911111 0.391111,-0.3911111 0.216005,0 0.391111,0.1751064 0.391111,0.3911111 z"
         sodipodi:ry="0.39111111"
         sodipodi:rx="0.39111111"
         sodipodi:cy="9.7066669"
         sodipodi:cx="20.088888"
         id="path3794"
         style="fill:#ffffff;fill-opacity:1;stroke:#000000;stroke-opacity:1"
         sodipodi:type="arc" />
      <path
         transform="matrix(1.2974769,-0.0837856,0.06987435,1.0820517,21.285742,990.4248)"
         d="m 20.479999,9.7066669 c 0,0.2160047 -0.175106,0.3911111 -0.391111,0.3911111 -0.216005,0 -0.391111,-0.1751064 -0.391111,-0.3911111 0,-0.2160047 0.175106,-0.3911111 0.391111,-0.3911111 0.216005,0 0.391111,0.1751064 0.391111,0.3911111 z"
         sodipodi:ry="0.39111111"
         sodipodi:rx="0.39111111"
         sodipodi:cy="9.7066669"
         sodipodi:cx="20.088888"
         id="path3794-0"
         style="fill:#ffffff;fill-opacity:1;stroke:#000000;stroke-opacity:1"
         sodipodi:type="arc" />
    </g>
  </g>
  <g
     inkscape:groupmode="layer"
     id="layer2"
     inkscape:label="Layer"
     style="display:inline">
    <path
       sodipodi:type="arc"
       style="opacity:0.5;fill:#c9250f;fill-opacity:0.77238805;stroke:#000000;stroke-width:0.61778164;stroke-miterlimit:4;stroke-opacity:1;stroke-dasharray:none"
       id="path4118-6"
       sodipodi:cx="31.586369"
       sodipodi:cy="41.372501"
       sodipodi:rx="7.7273793"
       sodipodi:ry="4.3149238"
       d="m 39.313748,41.372501 a 7.7273793,4.3149238 0 1 1 -15.454759,0 7.7273793,4.3149238 0 1 1 15.454759,0 z"
       transform="matrix(2.2159265,0.04764794,-0.03387895,3.1165164,-23.521348,-84.10923)" />
    <path
       sodipodi:type="arc"
       style="opacity:0.5;fill:#97250b;fill-opacity:0.88014981;stroke:#000000;stroke-opacity:1"
       id="path4118"
       sodipodi:cx="31.586369"
       sodipodi:cy="41.372501"
       sodipodi:rx="7.7273793"
       sodipodi:ry="4.3149238"
       d="m 39.313748,41.372501 a 7.7273793,4.3149238 0 1 1 -15.454759,0 7.7273793,4.3149238 0 1 1 15.454759,0 z"
       transform="matrix(0.7395092,0.67314645,-0.67314645,0.7395092,62.582999,-19.45616)" />
    <path
       sodipodi:type="arc"
       style="opacity:0.5;fill:#97250b;fill-opacity:0.88014981;stroke:#000000;stroke-width:0.81216758;stroke-miterlimit:4;stroke-opacity:1;stroke-dasharray:none"
       id="path4118-2"
       sodipodi:cx="31.586369"
       sodipodi:cy="41.372501"
       sodipodi:rx="7.7273793"
       sodipodi:ry="4.3149238"
       d="m 39.313748,41.372501 a 7.7273793,4.3149238 0 1 1 -15.454759,0 7.7273793,4.3149238 0 1 1 15.454759,0 z"
       transform="matrix(-1.3276159,0.2538233,-0.3113266,-1.0823998,114.31361,95.0542)" />
    <path
       sodipodi:type="arc"
       style="opacity:0.5;fill:#97250b;fill-opacity:0.88014981;stroke:#000000;stroke-width:0.88695198;stroke-miterlimit:4;stroke-opacity:1;stroke-dasharray:none"
       id="path4118-2-5"
       sodipodi:cx="31.586369"
       sodipodi:cy="41.372501"
       sodipodi:rx="7.7273793"
       sodipodi:ry="4.3149238"
       d="m 39.313748,41.372501 a 7.7273793,4.3149238 0 1 1 -15.454759,0 7.7273793,4.3149238 0 1 1 15.454759,0 z"
       transform="matrix(-1.2490592,-0.24365777,0.31849604,-0.95556288,55.893339,105.9958)" />
    <path
       sodipodi:type="arc"
       style="opacity:0.5;fill:#97250b;fill-opacity:0.88014981;stroke:#000000;stroke-opacity:1"
       id="path4118-2-5-8"
       sodipodi:cx="31.586369"
       sodipodi:cy="41.372501"
       sodipodi:rx="7.7273793"
       sodipodi:ry="4.3149238"
       d="m 39.313748,41.372501 a 7.7273793,4.3149238 0 1 1 -15.454759,0 7.7273793,4.3149238 0 1 1 15.454759,0 z"
       transform="matrix(-0.72189771,0.69199979,-0.69199979,-0.72189771,84.154128,40.152)" />
    <path
       sodipodi:type="arc"
       style="opacity:0.5;fill:#97250b;fill-opacity:0.88014981;stroke:#000000;stroke-opacity:1"
       id="path4118-9"
       sodipodi:cx="31.586369"
       sodipodi:cy="41.372501"
       sodipodi:rx="7.7273793"
       sodipodi:ry="4.3149238"
       d="m 39.313748,41.372501 a 7.7273793,4.3149238 0 1 1 -15.454759,0 7.7273793,4.3149238 0 1 1 15.454759,0 z"
       transform="matrix(0.11023751,1.2701492,-0.98094229,0.1034548,102.98497,-0.36066)" />
    <path
       sodipodi:type="arc"
       style="opacity:0.5;fill:#97250b;fill-opacity:0.88014981;stroke:#000000;stroke-opacity:1"
       id="path4118-9-7"
       sodipodi:cx="31.586369"
       sodipodi:cy="41.372501"
       sodipodi:rx="7.7273793"
       sodipodi:ry="4.3149238"
       d="m 39.313748,41.372501 a 7.7273793,4.3149238 0 1 1 -15.454759,0 7.7273793,4.3149238 0 1 1 15.454759,0 z"
       transform="matrix(-0.10583371,1.2937063,0.97996901,0.11100992,-12.225689,-0.49583)" />
    <path
       sodipodi:type="arc"
       style="opacity:0.5;fill:#97250b;fill-opacity:0.88014981;stroke:#000000;stroke-opacity:1"
       id="path4118-9-7-6"
       sodipodi:cx="31.586369"
       sodipodi:cy="41.372501"
       sodipodi:rx="7.7273793"
       sodipodi:ry="4.3149238"
       d="m 39.313748,41.372501 a 7.7273793,4.3149238 0 1 1 -15.454759,0 7.7273793,4.3149238 0 1 1 15.454759,0 z"
       transform="matrix(-1.1219083,0.03074977,0.07348669,0.9918814,77.366128,-12.59204)" />
    <path
       style="opacity:0.75;fill:#ff5810;fill-opacity:1;stroke:#000000;stroke-width:1px;stroke-linecap:butt;stroke-linejoin:miter;stroke-opacity:1"
       d="m 41.316907,43.775852 c 1.392329,-4.887416 -2.045349,-11.670736 3.446754,-14.590261 3.944133,1.69566 2.678208,8.198223 3.60069,12.408857 4.681689,-3.77782 6.229958,-7.432256 12.323443,-7.445286 0.875684,3.099019 -3.066932,9.201904 -6.210561,14.980465 5.971008,2.424064 11.863944,3.144639 11.280772,6.611413 -1.767767,3.517241 -5.097058,2.060403 -12.038411,0.699692 0.891606,3.248924 2.590268,4.427623 0.493978,7.047517 -2.626951,0.267292 -5.796915,-2.207343 -8.119124,-3.768507 -2.188833,1.086359 -4.959093,3.98865 -7.911869,3.699911 -2.369422,-1.778342 1.044425,-4.61553 1.050455,-6.690804 -3.807411,0.329913 -7.456516,3.034399 -11.423986,0.963425 0.512723,-5.013801 7.253679,-5.356427 10.910254,-8.012339 -4.080346,-2.789495 -10.746641,-5.122646 -12.177072,-8.379773 4.755169,-1.550903 9.849726,1.649642 14.774677,2.47569 z"
       id="path4246"
       inkscape:connector-curvature="0"
       sodipodi:nodetypes="ccccccccccccccc" />
    <path
       style="opacity:0.75;fill:#ffb50f;fill-opacity:1;stroke:#000000;stroke-width:1px;stroke-linecap:butt;stroke-linejoin:miter;stroke-opacity:1"
       d="m 45.050235,37.775778 4.829318,9.144977 12.047445,1.544213 -12.420902,4.951307 -3.385723,7.814189 -3.554935,-7.896519 -12.581008,-3.934489 12.016965,-2.303393 z"
       id="path4266"
       inkscape:connector-curvature="0"
       sodipodi:nodetypes="ccccccccc" />
    <path
       sodipodi:type="arc"
       style="opacity:0.5;fill:#97250b;fill-opacity:0.88014981;stroke:#000000;stroke-opacity:1"
       id="path4118-9-7-6-6"
       sodipodi:cx="31.586369"
       sodipodi:cy="41.372501"
       sodipodi:rx="7.7273793"
       sodipodi:ry="4.3149238"
       d="m 39.313748,41.372501 a 7.7273793,4.3149238 0 1 1 -15.454759,0 7.7273793,4.3149238 0 1 1 15.454759,0 z"
       transform="matrix(-1.1928855,0.02381708,0.07813579,0.76825693,80.173334,27.75912)" />
  </g>
</svg>
