<?xml version="1.0" encoding="UTF-8" standalone="no"?>
<!-- Created with Inkscape (http://www.inkscape.org/) -->

<svg
   xmlns:dc="http://purl.org/dc/elements/1.1/"
   xmlns:cc="http://creativecommons.org/ns#"
   xmlns:rdf="http://www.w3.org/1999/02/22-rdf-syntax-ns#"
   xmlns:svg="http://www.w3.org/2000/svg"
   xmlns="http://www.w3.org/2000/svg"
   xmlns:sodipodi="http://sodipodi.sourceforge.net/DTD/sodipodi-0.dtd"
   xmlns:inkscape="http://www.inkscape.org/namespaces/inkscape"
   width="96"
   height="96"
   id="svg2"
   version="1.1"
   inkscape:version="0.91 r13725"
   sodipodi:docname="rabbot_explode_04.svg">
  <defs
     id="defs4">
    <filter
       inkscape:collect="always"
       id="filter4439">
      <feGaussianBlur
         inkscape:collect="always"
         stdDeviation="0.24585702"
         id="feGaussianBlur4441" />
    </filter>
    <filter
       inkscape:collect="always"
       id="filter4443">
      <feGaussianBlur
         inkscape:collect="always"
         stdDeviation="0.26701195"
         id="feGaussianBlur4445" />
    </filter>
    <filter
       inkscape:collect="always"
       id="filter4447">
      <feGaussianBlur
         inkscape:collect="always"
         stdDeviation="0.26389689"
         id="feGaussianBlur4449" />
    </filter>
    <filter
       inkscape:collect="always"
       id="filter4451">
      <feGaussianBlur
         inkscape:collect="always"
         stdDeviation="0.081212321"
         id="feGaussianBlur4453" />
    </filter>
    <filter
       inkscape:collect="always"
       id="filter4455"
       x="-0.14517831"
       width="1.2903566"
       y="-0.014601344"
       height="1.0292027">
      <feGaussianBlur
         inkscape:collect="always"
         stdDeviation="0.22205217"
         id="feGaussianBlur4457" />
    </filter>
    <filter
       inkscape:collect="always"
       id="filter4459">
      <feGaussianBlur
         inkscape:collect="always"
         stdDeviation="0.24172427"
         id="feGaussianBlur4461" />
    </filter>
    <filter
       inkscape:collect="always"
       id="filter4463">
      <feGaussianBlur
         inkscape:collect="always"
         stdDeviation="0.29001225"
         id="feGaussianBlur4465" />
    </filter>
    <filter
       inkscape:collect="always"
       id="filter4467">
      <feGaussianBlur
         inkscape:collect="always"
         stdDeviation="0.21308966"
         id="feGaussianBlur4469" />
    </filter>
    <filter
       inkscape:collect="always"
       id="filter4471"
       x="-0.14087633"
       width="1.2817527"
       y="-0.014969145"
       height="1.0299383">
      <feGaussianBlur
         inkscape:collect="always"
         stdDeviation="0.22339221"
         id="feGaussianBlur4473" />
    </filter>
  </defs>
  <sodipodi:namedview
     id="base"
     pagecolor="#ffffff"
     bordercolor="#666666"
     borderopacity="1.0"
     inkscape:pageopacity="0.0"
     inkscape:pageshadow="2"
     inkscape:zoom="8.8645833"
     inkscape:cx="48.225617"
     inkscape:cy="48"
     inkscape:document-units="px"
     inkscape:current-layer="layer2"
     showgrid="false"
     inkscape:window-width="1920"
     inkscape:window-height="1016"
     inkscape:window-x="0"
     inkscape:window-y="27"
     inkscape:window-maximized="1" />
  <metadata
     id="metadata7">
    <rdf:RDF>
      <cc:Work
         rdf:about="">
        <dc:format>image/svg+xml</dc:format>
        <dc:type
           rdf:resource="http://purl.org/dc/dcmitype/StillImage" />
        <dc:title />
      </cc:Work>
    </rdf:RDF>
  </metadata>
  <g
     inkscape:label="Layer 1"
     inkscape:groupmode="layer"
     id="layer1"
     transform="translate(0,-956.3622)">
    <g
       id="g4308"
       transform="matrix(0.50463536,0.86333259,-0.86333259,0.50463536,906.54446,460.22892)"
       style="opacity:0.8;fill:#ff0000">
      <path
         d="m 20.906667,29.475555 a 3.3777778,1.1733333 0 0 1 -3.377778,1.173334 3.3777778,1.1733333 0 0 1 -3.377778,-1.173334 3.3777778,1.1733333 0 0 1 3.377778,-1.173333 3.3777778,1.1733333 0 0 1 3.377778,1.173333 z"
         sodipodi:ry="1.1733333"
         sodipodi:rx="3.3777778"
         sodipodi:cy="29.475555"
         sodipodi:cx="17.528889"
         id="path3766-3"
         style="fill:#ff0000;fill-opacity:1;stroke:#000000;stroke-opacity:1"
         sodipodi:type="arc"
         transform="matrix(0.50825872,0.03805256,-0.09563704,1.1025448,44.724407,985.73882)" />
      <path
         transform="matrix(0.43753699,-0.0096245,0.02351804,1.0691489,44.148558,986.07253)"
         d="m 17.493333,27.946667 a 3.6977777,2.2755556 0 0 1 -3.697778,2.275555 3.6977777,2.2755556 0 0 1 -3.697778,-2.275555 3.6977777,2.2755556 0 0 1 3.697778,-2.275556 3.6977777,2.2755556 0 0 1 3.697778,2.275556 z"
         sodipodi:ry="2.2755556"
         sodipodi:rx="3.6977777"
         sodipodi:cy="27.946667"
         sodipodi:cx="13.795555"
         id="path3796-0"
         style="fill:#ff0000;fill-opacity:1;stroke:#000000;stroke-opacity:1"
         sodipodi:type="arc" />
    </g>
    <path
       sodipodi:type="arc"
       style="opacity:0.8;fill:#ff0000;fill-opacity:1;stroke:#000000;stroke-opacity:1"
       id="path3792-5"
       sodipodi:cx="19.768888"
       sodipodi:cy="22.151112"
       sodipodi:rx="1.4222223"
       sodipodi:ry="3.8044446"
       d="m 21.191111,22.151112 a 1.4222223,3.8044446 0 0 1 -1.422223,3.804444 1.4222223,3.8044446 0 0 1 -1.422222,-3.804444 1.4222223,3.8044446 0 0 1 1.422222,-3.804445 1.4222223,3.8044446 0 0 1 1.422223,3.804445 z"
       transform="matrix(-0.04670042,-0.99890893,0.99890893,-0.04670042,37.479403,1029.5919)" />
    <path
       sodipodi:type="arc"
       style="opacity:0.8;fill:#ff0000;fill-opacity:1;stroke:#000000;stroke-opacity:1"
       id="path3792"
       sodipodi:cx="19.768888"
       sodipodi:cy="22.151112"
       sodipodi:rx="1.4222223"
       sodipodi:ry="3.8044446"
       d="m 21.191111,22.151112 a 1.4222223,3.8044446 0 0 1 -1.422223,3.804444 1.4222223,3.8044446 0 0 1 -1.422222,-3.804444 1.4222223,3.8044446 0 0 1 1.422222,-3.804445 1.4222223,3.8044446 0 0 1 1.422223,3.804445 z"
       transform="matrix(-0.14307762,0.98971149,-0.98971149,-0.14307762,58.13552,986.34885)" />
    <path
       sodipodi:type="arc"
       style="opacity:0.8;fill:#ff0000;fill-opacity:1;stroke:#000000;stroke-opacity:1"
       id="path3772"
       sodipodi:cx="10.204445"
       sodipodi:cy="7.6088891"
       sodipodi:rx="3.3777778"
       sodipodi:ry="1.6355555"
       d="M 13.582223,7.6088891 A 3.3777778,1.6355555 0 0 1 10.204445,9.2444446 3.3777778,1.6355555 0 0 1 6.8266671,7.6088891 3.3777778,1.6355555 0 0 1 10.204445,5.9733336 3.3777778,1.6355555 0 0 1 13.582223,7.6088891 Z"
       transform="matrix(0.75818417,0.29412307,-0.45171844,0.91294907,29.788183,984.082)" />
    <path
       sodipodi:type="arc"
       style="opacity:0.8;fill:#000000;fill-opacity:1;stroke:#000000;stroke-opacity:1"
       id="path3772-7"
       sodipodi:cx="10.204445"
       sodipodi:cy="7.6088891"
       sodipodi:rx="3.3777778"
       sodipodi:ry="1.6355555"
       d="M 13.582223,7.6088891 A 3.3777778,1.6355555 0 0 1 10.204445,9.2444446 3.3777778,1.6355555 0 0 1 6.8266671,7.6088891 3.3777778,1.6355555 0 0 1 10.204445,5.9733336 3.3777778,1.6355555 0 0 1 13.582223,7.6088891 Z"
       transform="matrix(-0.77553146,0.32306804,-0.38225586,-0.81198578,66.661535,997.67205)" />
    <g
       id="g4312"
       transform="matrix(0.73073648,-0.68265964,0.68265964,0.73073648,-686.28672,302.5371)"
       style="opacity:0.8;fill:#ff0000">
      <path
         transform="matrix(0.49816262,0.01101159,-0.0259843,0.98356126,33.573584,989.84933)"
         d="m 20.906667,29.475555 a 3.3777778,1.1733333 0 0 1 -3.377778,1.173334 3.3777778,1.1733333 0 0 1 -3.377778,-1.173334 3.3777778,1.1733333 0 0 1 3.377778,-1.173333 3.3777778,1.1733333 0 0 1 3.377778,1.173333 z"
         sodipodi:ry="1.1733333"
         sodipodi:rx="3.3777778"
         sodipodi:cy="29.475555"
         sodipodi:cx="17.528889"
         id="path3766"
         style="fill:#ff0000;fill-opacity:1;stroke:#000000;stroke-opacity:1"
         sodipodi:type="arc" />
      <path
         transform="matrix(0.39355872,-0.00844164,0.02458259,1.1460676,35.437939,984.17466)"
         d="m 17.493333,27.946667 a 3.6977777,2.2755556 0 0 1 -3.697778,2.275555 3.6977777,2.2755556 0 0 1 -3.697778,-2.275555 3.6977777,2.2755556 0 0 1 3.697778,-2.275556 3.6977777,2.2755556 0 0 1 3.697778,2.275556 z"
         sodipodi:ry="2.2755556"
         sodipodi:rx="3.6977777"
         sodipodi:cy="27.946667"
         sodipodi:cx="13.795555"
         id="path3796"
         style="fill:#ff0000;fill-opacity:1;stroke:#000000;stroke-opacity:1"
         sodipodi:type="arc" />
    </g>
    <g
       id="g4303"
       transform="matrix(0.81585655,-0.57825436,0.57825436,0.81585655,-572.09723,208.95796)"
       style="opacity:0.8;fill:#ff0000">
      <path
         transform="matrix(0.77053203,0.12335422,-0.06851811,0.95498434,34.228385,987.9455)"
         d="M 21.617778,9.8488894 A 4.8355556,3.9466667 0 0 1 16.782223,13.795556 4.8355556,3.9466667 0 0 1 11.946667,9.8488894 4.8355556,3.9466667 0 0 1 16.782223,5.9022226 4.8355556,3.9466667 0 0 1 21.617778,9.8488894 Z"
         sodipodi:ry="3.9466667"
         sodipodi:rx="4.8355556"
         sodipodi:cy="9.8488894"
         sodipodi:cx="16.782223"
         id="path3770"
         style="fill:#ff0000;fill-opacity:1;stroke:#000000;stroke-opacity:1"
         sodipodi:type="arc" />
      <path
         transform="matrix(1.1870228,-0.07665294,0.07665294,1.1870228,20.141619,989.3872)"
         d="M 20.479999,9.7066669 A 0.39111111,0.39111111 0 0 1 20.088888,10.097778 0.39111111,0.39111111 0 0 1 19.697777,9.7066669 0.39111111,0.39111111 0 0 1 20.088888,9.3155558 0.39111111,0.39111111 0 0 1 20.479999,9.7066669 Z"
         sodipodi:ry="0.39111111"
         sodipodi:rx="0.39111111"
         sodipodi:cy="9.7066669"
         sodipodi:cx="20.088888"
         id="path3794"
         style="fill:#ff0000;fill-opacity:1;stroke:#000000;stroke-opacity:1"
         sodipodi:type="arc" />
      <path
         transform="matrix(1.2974769,-0.0837856,0.06987435,1.0820517,21.285742,990.4248)"
         d="M 20.479999,9.7066669 A 0.39111111,0.39111111 0 0 1 20.088888,10.097778 0.39111111,0.39111111 0 0 1 19.697777,9.7066669 0.39111111,0.39111111 0 0 1 20.088888,9.3155558 0.39111111,0.39111111 0 0 1 20.479999,9.7066669 Z"
         sodipodi:ry="0.39111111"
         sodipodi:rx="0.39111111"
         sodipodi:cy="9.7066669"
         sodipodi:cx="20.088888"
         id="path3794-0"
         style="fill:#ff0000;fill-opacity:1;stroke:#000000;stroke-opacity:1"
         sodipodi:type="arc" />
    </g>
    <path
       style="display:inline;opacity:0.65503875;fill:none;stroke:#000000;stroke-width:1px;stroke-linecap:butt;stroke-linejoin:miter;stroke-opacity:1"
       d="m 49.51556,986.9375 0.894607,-2.8227 -0.279622,-1.1661 -0.98557,-0.5603 -1.637917,0.36 0.164312,1.914 -1.13579,1.4073 -1.31527,-1.0705 0.345934,-2.2438 0.337808,-0.8667 -0.594154,-1.1125 -1.442216,0.084 -1.043762,1.4725 0.490492,1.4539 c 0,0 -2.121366,0.847 -1.979259,0.2563 0.142113,-0.5906 0.269057,-1.7451 0.269057,-1.7451 l 0.04655,-1.6263 0.886493,-1.4457 -0.157269,0.027"
       id="path3040"
       inkscape:connector-curvature="0" />
    <path
       style="display:inline;opacity:0.65503875;fill:none;stroke:#000000;stroke-width:0.66379488px;stroke-linecap:butt;stroke-linejoin:miter;stroke-opacity:1"
       d="m 44.763586,1009.9078 1.564427,-0.9086 0.270671,-0.6734 -0.362378,-0.7143 -1.08109,-0.5836 -0.614731,0.9699 -1.178965,0.1363 -0.363968,-1.104 1.032249,-0.8899 0.516852,-0.25 0.06888,-0.7927 -0.865434,-0.6229 -1.149967,0.2091 -0.255404,0.9046 c 0,0 -1.541346,-0.578 -1.240086,-0.7888 0.301263,-0.2108 0.802851,-0.6921 0.802851,-0.6921 l 0.629996,-0.7386 1.049037,-0.2688 -0.100929,-0.06"
       id="path3040-3"
       inkscape:connector-curvature="0"
       inkscape:transform-center-x="8.8156451"
       inkscape:transform-center-y="2.9321645" />
    <path
       style="display:inline;opacity:0.65503875;fill:#000000;fill-opacity:1;fill-rule:nonzero;stroke:#000000;stroke-width:0.01941606px;stroke-linecap:butt;stroke-linejoin:miter;stroke-opacity:1"
       d="m 58.345127,982.56212 -0.486507,-0.25362 -0.605404,-0.25017 -0.03138,0.49759 -0.75415,-0.0374 -0.09516,-0.44103 -0.824144,0.14453 0.146716,0.44896 -0.679231,0.39017 -0.267112,-0.35997 -0.621222,0.71938 0.32402,0.19768 -0.252925,0.68829 -0.471099,-0.0697 -0.175174,0.7434 0.511899,0.0116 0.06977,0.68303 -0.527994,0.0926 0.363925,0.7163 0.326192,-0.17599 0.413017,0.60632 -0.366641,0.23354 0.664895,0.49385 0.302641,-0.30717 0.630106,0.29632 -0.08144,0.40412 0.837552,0.12462 0.01,-0.42596 0.61504,-0.1753 0.147565,0.4488 0.709736,-0.31112 -0.15071,-0.27856 0.482734,-0.441 0.308407,0.30226 0.369174,-0.60774 -0.26582,-0.15699 0.283429,-0.60923 0.384204,0.15322 0.06223,-0.70619 -0.405101,-0.0812 0.04499,-0.51694 0.395994,-0.0694 -0.16297,-0.63275 -0.304443,0.10386 -0.232467,-0.45045 0.287391,-0.20312 -0.40341,-0.45528 -0.333989,0.22826 -0.404913,-0.36974 0.211789,-0.34258 z m -1.03519,1.62734 c 0.46312,0.32386 0.575421,0.96115 0.250784,1.42315 -0.324638,0.462 -0.963126,0.57353 -1.426246,0.24968 -0.463121,-0.32386 -0.575769,-0.96065 -0.251131,-1.42265 0.324637,-0.462 0.963473,-0.57404 1.426593,-0.25018 z"
       id="path3838-3"
       inkscape:connector-curvature="0" />
    <path
       style="display:inline;opacity:0.65503875;fill:#000000;fill-opacity:1;fill-rule:nonzero;stroke:#000000;stroke-width:0.03474738px;stroke-linecap:butt;stroke-linejoin:miter;stroke-opacity:1"
       d="m 27.6241,992.09997 -0.972925,0.12705 -1.143408,0.25409 0.465833,0.76227 -1.142321,0.71884 -0.592875,-0.54945 -1.057624,1.05763 0.676488,0.50818 -0.592879,1.26936 -0.761185,-0.25409 -0.169393,1.69285 0.677574,-0.0424 0.337701,1.26937 -0.761185,0.38113 0.508181,1.2704 0.761186,-0.5081 0.804617,0.9305 -0.677573,0.6776 1.269365,0.6776 0.296439,-0.5929 1.228104,0.4658 -0.296439,0.7189 1.481106,0.042 0.127046,-0.7612 1.227017,-0.2118 0.296437,0.6765 1.354064,-0.6765 -0.423485,-0.6352 0.719923,-0.8882 0.677575,0.5071 0.718834,-1.18467 -0.507095,-0.25409 0.253004,-1.14232 0.762272,0.12705 -0.0847,-1.27045 -0.55053,0.0424 -0.211742,-1.18467 0.719923,-0.1694 -0.635228,-1.09997 -0.676486,0.29644 -0.465832,-0.80462 0.508181,-0.50818 -0.889316,-0.76118 -0.338788,0.46474 -0.803534,-0.42239 0.211742,-0.59288 -1.058707,-0.25409 -0.254091,0.67757 -0.972928,-0.12704 -0.04235,-0.71993 z m 0.158535,3.44977 c 1.010934,0 1.830752,0.81982 1.830752,1.83075 0,1.01093 -0.819818,1.82967 -1.830752,1.82967 -1.010935,0 -1.830753,-0.81874 -1.830753,-1.82967 0,-1.01093 0.819818,-1.83075 1.830753,-1.83075 z"
       id="path3838-3-6"
       inkscape:connector-curvature="0" />
  </g>
  <g
     inkscape:groupmode="layer"
     id="layer2"
     inkscape:label="Layer"
     style="display:inline">
    <ellipse
       style="opacity:0.25;fill:#c9250f;fill-opacity:0.77238805;stroke:#000000;stroke-width:0.25100732;stroke-miterlimit:4;stroke-dasharray:none;stroke-opacity:1;filter:url(#filter4451)"
       id="path4118-6"
       transform="matrix(3.5665379,0.06802266,-0.05452824,4.4491691,-63.91373,-145.89837)"
       cx="31.586369"
       cy="41.372501"
       rx="7.7273793"
       ry="4.3149238" />
    <path
       sodipodi:type="arc"
       style="opacity:0.25;fill:#97250b;fill-opacity:0.88014981;stroke:#000000;stroke-width:0.75988358;stroke-miterlimit:4;stroke-opacity:1;stroke-dasharray:none;filter:url(#filter4439)"
       id="path4118"
       sodipodi:cx="31.586369"
       sodipodi:cy="41.372501"
       sodipodi:rx="7.7273793"
       sodipodi:ry="4.3149238"
       d="m 39.313748,41.372501 a 7.7273793,4.3149238 0 1 1 -15.454759,0 7.7273793,4.3149238 0 1 1 15.454759,0 z"
       transform="matrix(1.3552042,1.1802791,-0.60649596,0.74970104,47.139642,-45.353855)" />
    <path
       sodipodi:type="arc"
       style="opacity:0.25;fill:#ff0000;fill-opacity:0.88014981;stroke:#000000;stroke-width:0.65860772;stroke-miterlimit:4;stroke-opacity:1;stroke-dasharray:none;filter:url(#filter4467)"
       id="path4118-2"
       sodipodi:cx="31.586369"
       sodipodi:cy="41.372501"
       sodipodi:rx="7.7273793"
       sodipodi:ry="4.3149238"
       d="m 39.313748,41.372501 a 7.7273793,4.3149238 0 1 1 -15.454759,0 7.7273793,4.3149238 0 1 1 15.454759,0 z"
       transform="matrix(-2.0664221,0.24798336,-0.48457703,-1.0574961,156.31762,94.333333)" />
    <ellipse
       style="opacity:0.25;fill:#97250b;fill-opacity:0.88014981;stroke:#000000;stroke-width:0.74711025;stroke-miterlimit:4;stroke-dasharray:none;stroke-opacity:1;filter:url(#filter4459)"
       id="path4118-2-5"
       transform="matrix(-1.7975148,-0.23862814,0.45834603,-0.93583796,59.806114,104.95836)"
       cx="31.586369"
       cy="41.372501"
       rx="7.7273793"
       ry="4.3149238" />
    <path
       sodipodi:type="arc"
       style="opacity:0.25;fill:#97250b;fill-opacity:0.88014981;stroke:#000000;stroke-width:0.81564039;stroke-miterlimit:4;stroke-opacity:1;stroke-dasharray:none;filter:url(#filter4447)"
       id="path4118-2-5-8"
       sodipodi:cx="31.586369"
       sodipodi:cy="41.372501"
       sodipodi:rx="7.7273793"
       sodipodi:ry="4.3149238"
       d="m 39.313748,41.372501 a 7.7273793,4.3149238 0 1 1 -15.454759,0 7.7273793,4.3149238 0 1 1 15.454759,0 z"
       transform="matrix(-1.1590296,0.92682069,-1.0650714,-0.44521781,107.91637,11.300035)" />
    <path
       sodipodi:type="arc"
       style="opacity:0.25;fill:#97250b;fill-opacity:0.88014981;stroke:#000000;stroke-width:0.69045037;stroke-miterlimit:4;stroke-opacity:1;stroke-dasharray:none;filter:url(#filter4471)"
       id="path4118-9"
       sodipodi:cx="31.586369"
       sodipodi:cy="41.372501"
       sodipodi:rx="7.7273793"
       sodipodi:ry="4.3149238"
       d="m 39.313748,41.372501 a 7.7273793,4.3149238 0 1 1 -15.454759,0 7.7273793,4.3149238 0 1 1 15.454759,0 z"
       transform="matrix(0.10606359,2.2024067,-0.94380088,0.17938801,111.22295,-35.343442)" />
    <path
       sodipodi:type="arc"
       style="opacity:0.25;fill:#97250b;fill-opacity:0.88014981;stroke:#000000;stroke-width:0.68630862;stroke-miterlimit:4;stroke-opacity:1;stroke-dasharray:none;filter:url(#filter4455)"
       id="path4118-9-7"
       sodipodi:cx="31.586369"
       sodipodi:cy="41.372501"
       sodipodi:rx="7.7273793"
       sodipodi:ry="4.3149238"
       d="m 39.313748,41.372501 a 7.7273793,4.3149238 0 1 1 -15.454759,0 7.7273793,4.3149238 0 1 1 15.454759,0 z"
       transform="matrix(-0.03214434,2.238717,0.94694519,0.09680899,-20.936991,-31.507758)" />
    <path
       sodipodi:type="arc"
       style="opacity:0.25;fill:#97250b;fill-opacity:0.88014981;stroke:#000000;stroke-width:0.82526827;stroke-miterlimit:4;stroke-opacity:1;stroke-dasharray:none;filter:url(#filter4443)"
       id="path4118-9-7-6"
       sodipodi:cx="31.586369"
       sodipodi:cy="41.372501"
       sodipodi:rx="7.7273793"
       sodipodi:ry="4.3149238"
       d="m 39.313748,41.372501 a 7.7273793,4.3149238 0 1 1 -15.454759,0 7.7273793,4.3149238 0 1 1 15.454759,0 z"
       transform="matrix(-2.1634466,0.02099736,0.14170902,0.67730228,108.59106,-10.803751)" />
    <path
       style="opacity:0.45;fill:#ff5810;fill-opacity:1;stroke:#000000;stroke-width:1px;stroke-linecap:butt;stroke-linejoin:miter;stroke-opacity:1"
       d="m 35.427819,36.086066 c 3.778815,-3.826756 3.169564,-11.49396 7.512619,-11.938611 4.120909,0.458223 3.208538,8.109834 6.517505,12.23208 7.421728,-0.06551 16.483007,-5.929654 18.068686,-1.523266 1.281235,2.716582 -7.945116,6.440591 -8.508658,13.477863 4.733571,4.280219 12.305885,5.442736 11.722713,8.90951 -0.441941,3.517241 -5.362223,1.176519 -11.154527,2.555847 0.891606,3.248924 -1.740761,2.129526 -5.339653,3.423595 -2.626951,0.267292 -7.829847,-1.942178 -10.152056,-3.503342 -2.188833,1.086359 -6.903637,3.546708 -9.856413,3.257969 -2.45781,-1.248012 -3.021439,-1.963879 -3.015409,-4.039153 C 27.415215,59.268471 19.346693,59.14453 18.119262,55.924507 16.599053,51.441036 28.908474,52.15907 29.913399,48.972828 39.35647,46.802051 19.785477,44.557289 19.504094,41.034997 19.044351,35.771783 29.795761,36.497455 35.427819,36.086066 Z"
       id="path4246"
       inkscape:connector-curvature="0"
       sodipodi:nodetypes="ccccccccccccccc" />
    <path
       style="opacity:0.5;fill:#ffb50f;fill-opacity:1;stroke:#000000;stroke-width:1px;stroke-linecap:butt;stroke-linejoin:miter;stroke-opacity:1"
       d="m 43.227012,31.146652 c 5.133799,1.919647 5.13555,8.543671 7.657745,12.857288 6.431763,1.310233 13.881855,-1.45285 19.295289,3.930698 -2.372039,4.9481 -11.403656,6.011447 -17.105484,9.017171 -1.216963,3.223448 -5.927513,7.061118 -9.219354,6.13481 -3.318343,0.452031 -4.049436,-4.203518 -5.145925,-7.454577 -5.990899,-2.401619 -14.727618,-0.68451 -17.972698,-7.204858 3.151844,-3.926919 10.131859,-3.068625 15.198946,-4.60149 2.421288,-4.229569 0.259702,-10.063144 7.291481,-12.679042 z"
       id="path4266"
       inkscape:connector-curvature="0"
       sodipodi:nodetypes="ccccccccc" />
    <ellipse
       style="opacity:0.25;fill:#97250b;fill-opacity:0.88014981;stroke:#000000;stroke-width:0.89635652;stroke-miterlimit:4;stroke-dasharray:none;stroke-opacity:1;filter:url(#filter4463)"
       id="path4118-9-7-6-6"
       transform="matrix(-2.0515926,0.01876931,0.13438239,0.60543328,104.06346,35.279983)"
       cx="31.586369"
       cy="41.372501"
       rx="7.7273793"
       ry="4.3149238" />
  </g>
</svg>
