<?xml version="1.0" encoding="UTF-8" standalone="no"?>
<!-- Created with Inkscape (http://www.inkscape.org/) -->

<svg
   xmlns:dc="http://purl.org/dc/elements/1.1/"
   xmlns:cc="http://creativecommons.org/ns#"
   xmlns:rdf="http://www.w3.org/1999/02/22-rdf-syntax-ns#"
   xmlns:svg="http://www.w3.org/2000/svg"
   xmlns="http://www.w3.org/2000/svg"
   xmlns:sodipodi="http://sodipodi.sourceforge.net/DTD/sodipodi-0.dtd"
   xmlns:inkscape="http://www.inkscape.org/namespaces/inkscape"
   width="32"
   height="32"
   id="svg2"
   version="1.1"
   inkscape:version="0.91 r13725"
   sodipodi:docname="rabbit_block_rise_left_04.svg">
  <defs
     id="defs4" />
  <sodipodi:namedview
     id="base"
     pagecolor="#ffffff"
     bordercolor="#666666"
     borderopacity="1.0"
     inkscape:pageopacity="0.0"
     inkscape:pageshadow="2"
     inkscape:zoom="18.804621"
     inkscape:cx="-5.2296447"
     inkscape:cy="15.0915"
     inkscape:document-units="px"
     inkscape:current-layer="layer1"
     showgrid="true"
     inkscape:window-width="1920"
     inkscape:window-height="980"
     inkscape:window-x="0"
     inkscape:window-y="0"
     inkscape:window-maximized="1">
    <inkscape:grid
       type="xygrid"
       id="grid9206"
       empspacing="8" />
  </sodipodi:namedview>
  <metadata
     id="metadata7">
    <rdf:RDF>
      <cc:Work
         rdf:about="">
        <dc:format>image/svg+xml</dc:format>
        <dc:type
           rdf:resource="http://purl.org/dc/dcmitype/StillImage" />
        <dc:title></dc:title>
      </cc:Work>
    </rdf:RDF>
  </metadata>
  <g
     inkscape:label="Layer 1"
     inkscape:groupmode="layer"
     id="layer1"
     transform="translate(0,-1020.3622)">
    <ellipse
       style="fill:#ffffff;fill-opacity:1;stroke:#000000;stroke-width:1.00037205;stroke-miterlimit:4;stroke-dasharray:none;stroke-opacity:1"
       id="path3772"
       transform="matrix(-0.50586675,0.86261163,-0.84246402,-0.53875261,0,0)"
       cx="852.39935"
       cy="-537.57715"
       rx="3.0585682"
       ry="1.4229864" />
    <path
       style="fill:#ffffff;fill-opacity:1;stroke:#000000;stroke-width:1;stroke-miterlimit:4;stroke-dasharray:none;stroke-opacity:1"
       d="m 10.11152,1041.8381 a 2.7105336,1.9873446 60.755131 0 1 0.368213,-3.3547 2.7105336,1.9873446 60.755131 0 1 3.063561,1.3487 2.7105336,1.9873446 60.755131 0 1 -0.368249,3.3545 2.7105336,1.9873446 60.755131 0 1 -3.063486,-1.3486 z"
       id="path3796-6"
       inkscape:connector-curvature="0" />
    <path
       style="fill:#ffffff;fill-opacity:1;stroke:#000000;stroke-width:1;stroke-miterlimit:4;stroke-dasharray:none;stroke-opacity:1"
       d="m 12.19352,1042.1873 a 2.0604898,1.1225084 34.859367 0 1 -2.3307706,-0.2535 2.0604898,1.1225084 34.859367 0 1 -1.052617,-2.0991 2.0604898,1.1225084 34.859367 0 1 2.3307706,0.2535 2.0604898,1.1225084 34.859367 0 1 1.052617,2.0991 z"
       id="path3766-84"
       inkscape:connector-curvature="0" />
    <ellipse
       style="fill:#ffffff;fill-opacity:1;stroke:#000000;stroke-width:1.00000036;stroke-miterlimit:4;stroke-dasharray:none;stroke-opacity:1"
       id="path3768-5"
       transform="matrix(0.99999422,-0.00340142,0.00460693,0.99998939,0,0)"
       cx="12.158002"
       cy="1040.116"
       rx="5.4024944"
       ry="7.4704957" />
    <ellipse
       style="fill:#ffffff;fill-opacity:1;stroke:#000000;stroke-width:1.00134075;stroke-miterlimit:4;stroke-dasharray:none;stroke-opacity:1"
       id="path3770-7"
       transform="matrix(-0.95268725,-0.3039523,-0.37278953,0.92791593,0,0)"
       cx="-403.63611"
       cy="977.85809"
       rx="3.9117844"
       ry="3.7738914" />
    <ellipse
       style="fill:#ffffff;fill-opacity:1;stroke:#000000;stroke-width:1.00013208;stroke-miterlimit:4;stroke-dasharray:none;stroke-opacity:1"
       id="path3792-5-0"
       transform="matrix(0.15508054,-0.98790183,0.99120477,0.13233708,0,0)"
       cx="-1025.374"
       cy="185.8477"
       rx="1.4504663"
       ry="3.821861" />
    <ellipse
       style="fill:#ffffff;fill-opacity:1;stroke:#000000;stroke-width:1;stroke-miterlimit:4;stroke-dasharray:none;stroke-opacity:1"
       id="path3792-4"
       transform="matrix(-0.60493781,0.79627272,-0.79627272,-0.60493781,0,0)"
       cx="814.28137"
       cy="-633.2406"
       rx="1.4222223"
       ry="3.8044446" />
    <path
       style="fill:#ffffff;fill-opacity:1;stroke:#000000;stroke-width:0.99999994;stroke-miterlimit:4;stroke-dasharray:none;stroke-opacity:1"
       d="m 18.363457,1047.2906 a 3.2893836,1.9462298 89.003088 0 0 2.000042,3.2605 3.2893836,1.9462298 89.003088 0 0 1.892011,-3.3173 3.2893836,1.9462298 89.003088 0 0 -2.00004,-3.2605 3.2893836,1.9462298 89.003088 0 0 -1.892013,3.3173 z"
       id="path3796-7-5"
       inkscape:connector-curvature="0" />
    <path
       style="fill:#ffffff;fill-opacity:1;stroke:#000000;stroke-width:1;stroke-miterlimit:4;stroke-dasharray:none;stroke-opacity:1"
       d="m 18.733503,1049.8402 a 2.0604898,1.1225084 20.934608 0 0 1.519954,1.7851 2.0604898,1.1225084 20.934608 0 0 2.327808,-0.3095 2.0604898,1.1225084 20.934608 0 0 -1.519953,-1.7851 2.0604898,1.1225084 20.934608 0 0 -2.327809,0.3095 z"
       id="path3766-8-2"
       inkscape:connector-curvature="0" />
    <ellipse
       style="fill:#4d4d4b;fill-opacity:1;stroke:#000000;stroke-width:1.00030208;stroke-miterlimit:4;stroke-dasharray:none;stroke-opacity:1"
       id="path3772-7"
       transform="matrix(-0.63183431,0.77510348,-0.7526804,-0.65838607,0,0)"
       cx="757.17133"
       cy="-669.34491"
       rx="3.1876891"
       ry="1.3691596" />
    <circle
       style="fill:#ffffff;fill-opacity:1;stroke:#000000;stroke-width:1;stroke-miterlimit:4;stroke-dasharray:none;stroke-opacity:1"
       id="path3794"
       transform="matrix(-0.8660254,-0.5,-0.5,0.8660254,0,0)"
       cx="-532.5788"
       cy="881.81976"
       r="0.39111111" />
    <circle
       style="fill:#ffffff;fill-opacity:1;stroke:#000000;stroke-width:1;stroke-miterlimit:4;stroke-dasharray:none;stroke-opacity:1"
       id="path3794-7"
       transform="matrix(-0.8660254,-0.5,-0.5,0.8660254,0,0)"
       cx="-529.74609"
       cy="880.83002"
       r="0.39111111" />
  </g>
</svg>
