<?xml version="1.0" encoding="UTF-8" standalone="no"?>
<!-- Created with Inkscape (http://www.inkscape.org/) -->

<svg
   xmlns:dc="http://purl.org/dc/elements/1.1/"
   xmlns:cc="http://creativecommons.org/ns#"
   xmlns:rdf="http://www.w3.org/1999/02/22-rdf-syntax-ns#"
   xmlns:svg="http://www.w3.org/2000/svg"
   xmlns="http://www.w3.org/2000/svg"
   xmlns:sodipodi="http://sodipodi.sourceforge.net/DTD/sodipodi-0.dtd"
   xmlns:inkscape="http://www.inkscape.org/namespaces/inkscape"
   width="96"
   height="96"
   id="svg2"
   version="1.1"
   inkscape:version="0.48.4 r9939"
   sodipodi:docname="rabbit_explode_02.svg">
  <defs
     id="defs4" />
  <sodipodi:namedview
     id="base"
     pagecolor="#ffffff"
     bordercolor="#666666"
     borderopacity="1.0"
     inkscape:pageopacity="0.0"
     inkscape:pageshadow="2"
     inkscape:zoom="8.8645833"
     inkscape:cx="48"
     inkscape:cy="48"
     inkscape:document-units="px"
     inkscape:current-layer="layer1"
     showgrid="false"
     inkscape:window-width="1920"
     inkscape:window-height="1031"
     inkscape:window-x="0"
     inkscape:window-y="26"
     inkscape:window-maximized="1" />
  <metadata
     id="metadata7">
    <rdf:RDF>
      <cc:Work
         rdf:about="">
        <dc:format>image/svg+xml</dc:format>
        <dc:type
           rdf:resource="http://purl.org/dc/dcmitype/StillImage" />
        <dc:title />
      </cc:Work>
    </rdf:RDF>
  </metadata>
  <g
     inkscape:label="Layer 1"
     inkscape:groupmode="layer"
     id="layer1"
     transform="translate(0,-956.3622)">
    <path
       transform="matrix(0.50825872,0.03805256,-0.09563704,1.1025448,44.724407,985.73882)"
       sodipodi:type="arc"
       style="fill:#ffffff;fill-opacity:1;stroke:#000000;stroke-opacity:1"
       id="path3766-3"
       sodipodi:cx="17.528889"
       sodipodi:cy="29.475555"
       sodipodi:rx="3.3777778"
       sodipodi:ry="1.1733333"
       d="m 20.906667,29.475555 c 0,0.648015 -1.512283,1.173334 -3.377778,1.173334 -1.865495,0 -3.377778,-0.525319 -3.377778,-1.173334 0,-0.648014 1.512283,-1.173333 3.377778,-1.173333 1.865495,0 3.377778,0.525319 3.377778,1.173333 z" />
    <path
       sodipodi:type="arc"
       style="fill:#ffffff;fill-opacity:1;stroke:#000000;stroke-opacity:1"
       id="path3768"
       sodipodi:cx="13.262222"
       sodipodi:cy="21.297777"
       sodipodi:rx="5.3688889"
       sodipodi:ry="8.6400003"
       d="m 18.631111,21.297777 c 0,4.771741 -2.403733,8.640001 -5.368889,8.640001 -2.965155,0 -5.3688886,-3.86826 -5.3688886,-8.640001 0,-4.77174 2.4037336,-8.64 5.3688886,-8.64 2.965156,0 5.368889,3.86826 5.368889,8.64 z"
       transform="matrix(0.99999216,-0.00395855,0.00395855,0.99999216,32.971918,989.1038)" />
    <path
       sodipodi:type="arc"
       style="fill:#ffffff;fill-opacity:1;stroke:#000000;stroke-opacity:1"
       id="path3796-0"
       sodipodi:cx="13.795555"
       sodipodi:cy="27.946667"
       sodipodi:rx="3.6977777"
       sodipodi:ry="2.2755556"
       d="m 17.493333,27.946667 c 0,1.256754 -1.655552,2.275555 -3.697778,2.275555 -2.042226,0 -3.697778,-1.018801 -3.697778,-2.275555 0,-1.256755 1.655552,-2.275556 3.697778,-2.275556 2.042226,0 3.697778,1.018801 3.697778,2.275556 z"
       transform="matrix(0.43753699,-0.0096245,0.02351804,1.0691489,44.148558,986.07253)" />
    <path
       sodipodi:type="arc"
       style="fill:#ffffff;fill-opacity:1;stroke:#000000;stroke-opacity:1"
       id="path3792-5"
       sodipodi:cx="19.768888"
       sodipodi:cy="22.151112"
       sodipodi:rx="1.4222223"
       sodipodi:ry="3.8044446"
       d="m 21.191111,22.151112 c 0,2.101136 -0.636751,3.804444 -1.422223,3.804444 -0.785471,0 -1.422222,-1.703308 -1.422222,-3.804444 0,-2.101137 0.636751,-3.804445 1.422222,-3.804445 0.785472,0 1.422223,1.703308 1.422223,3.804445 z"
       transform="matrix(-0.58097913,-0.81391844,0.81391844,-0.58097913,46.746477,1032.5359)" />
    <path
       sodipodi:type="arc"
       style="fill:#ffffff;fill-opacity:1;stroke:#000000;stroke-opacity:1"
       id="path3766"
       sodipodi:cx="17.528889"
       sodipodi:cy="29.475555"
       sodipodi:rx="3.3777778"
       sodipodi:ry="1.1733333"
       d="m 20.906667,29.475555 c 0,0.648015 -1.512283,1.173334 -3.377778,1.173334 -1.865495,0 -3.377778,-0.525319 -3.377778,-1.173334 0,-0.648014 1.512283,-1.173333 3.377778,-1.173333 1.865495,0 3.377778,0.525319 3.377778,1.173333 z"
       transform="matrix(0.49816262,0.01101159,-0.0259843,0.98356126,33.573584,989.84933)" />
    <path
       sodipodi:type="arc"
       style="fill:#ffffff;fill-opacity:1;stroke:#000000;stroke-opacity:1"
       id="path3792"
       sodipodi:cx="19.768888"
       sodipodi:cy="22.151112"
       sodipodi:rx="1.4222223"
       sodipodi:ry="3.8044446"
       d="m 21.191111,22.151112 c 0,2.101136 -0.636751,3.804444 -1.422223,3.804444 -0.785471,0 -1.422222,-1.703308 -1.422222,-3.804444 0,-2.101137 0.636751,-3.804445 1.422222,-3.804445 0.785472,0 1.422223,1.703308 1.422223,3.804445 z"
       transform="matrix(-0.71798764,0.69605587,-0.69605587,-0.71798764,69.656588,1005.3461)" />
    <path
       sodipodi:type="arc"
       style="fill:#ffffff;fill-opacity:1;stroke:#000000;stroke-opacity:1"
       id="path3772"
       sodipodi:cx="10.204445"
       sodipodi:cy="7.6088891"
       sodipodi:rx="3.3777778"
       sodipodi:ry="1.6355555"
       d="m 13.582223,7.6088891 c 0,0.9032924 -1.512283,1.6355555 -3.377778,1.6355555 -1.8654953,0 -3.3777779,-0.7322631 -3.3777779,-1.6355555 0,-0.9032924 1.5122826,-1.6355555 3.3777779,-1.6355555 1.865495,0 3.377778,0.7322631 3.377778,1.6355555 z"
       transform="matrix(0.24547373,0.77530269,-0.99465382,0.21952071,48.366157,985.47578)" />
    <path
       sodipodi:type="arc"
       style="fill:#ffffff;fill-opacity:1;stroke:#000000;stroke-opacity:1"
       id="path3770"
       sodipodi:cx="16.782223"
       sodipodi:cy="9.8488894"
       sodipodi:rx="4.8355556"
       sodipodi:ry="3.9466667"
       d="m 21.617778,9.8488894 c 0,2.1796836 -2.164952,3.9466666 -4.835555,3.9466666 -2.670604,0 -4.835556,-1.766983 -4.835556,-3.9466666 0,-2.1796839 2.164952,-3.9466668 4.835556,-3.9466668 2.670603,0 4.835555,1.7669829 4.835555,3.9466668 z"
       transform="matrix(0.77053203,0.12335422,-0.06851811,0.95498434,34.228385,987.9455)" />
    <path
       sodipodi:type="arc"
       style="fill:#c9250f;fill-opacity:0.77238804;stroke:#000000;stroke-opacity:1;stroke-width:0.61778166000000001;stroke-miterlimit:4;stroke-dasharray:none"
       id="path4118-6"
       sodipodi:cx="31.586369"
       sodipodi:cy="41.372501"
       sodipodi:rx="7.7273793"
       sodipodi:ry="4.3149238"
       d="m 39.313748,41.372501 c 0,2.383067 -3.459666,4.314924 -7.727379,4.314924 -4.267714,0 -7.72738,-1.931857 -7.72738,-4.314924 0,-2.383066 3.459666,-4.314923 7.72738,-4.314923 4.267713,0 7.727379,1.931857 7.727379,4.314923 z"
       transform="matrix(1.237214,0.03237117,-0.01891557,2.1173061,7.8985538,916.70034)" />
    <path
       sodipodi:type="arc"
       style="fill:#4d4d4b;fill-opacity:1;stroke:#000000;stroke-opacity:1"
       id="path3772-7"
       sodipodi:cx="10.204445"
       sodipodi:cy="7.6088891"
       sodipodi:rx="3.3777778"
       sodipodi:ry="1.6355555"
       d="m 13.582223,7.6088891 c 0,0.9032924 -1.512283,1.6355555 -3.377778,1.6355555 -1.8654953,0 -3.3777779,-0.7322631 -3.3777779,-1.6355555 0,-0.9032924 1.5122826,-1.6355555 3.3777779,-1.6355555 1.865495,0 3.377778,0.7322631 3.377778,1.6355555 z"
       transform="matrix(-0.19936002,0.81613576,-0.88057464,-0.17328806,57.779261,987.30592)" />
    <path
       sodipodi:type="arc"
       style="fill:#ffffff;fill-opacity:1;stroke:#000000;stroke-opacity:1"
       id="path3794"
       sodipodi:cx="20.088888"
       sodipodi:cy="9.7066669"
       sodipodi:rx="0.39111111"
       sodipodi:ry="0.39111111"
       d="m 20.479999,9.7066669 c 0,0.2160047 -0.175106,0.3911111 -0.391111,0.3911111 -0.216005,0 -0.391111,-0.1751064 -0.391111,-0.3911111 0,-0.2160047 0.175106,-0.3911111 0.391111,-0.3911111 0.216005,0 0.391111,0.1751064 0.391111,0.3911111 z"
       transform="matrix(1.1870228,-0.07665294,0.07665294,1.1870228,20.141619,989.3872)" />
    <path
       sodipodi:type="arc"
       style="fill:#ffffff;fill-opacity:1;stroke:#000000;stroke-opacity:1"
       id="path3796"
       sodipodi:cx="13.795555"
       sodipodi:cy="27.946667"
       sodipodi:rx="3.6977777"
       sodipodi:ry="2.2755556"
       d="m 17.493333,27.946667 c 0,1.256754 -1.655552,2.275555 -3.697778,2.275555 -2.042226,0 -3.697778,-1.018801 -3.697778,-2.275555 0,-1.256755 1.655552,-2.275556 3.697778,-2.275556 2.042226,0 3.697778,1.018801 3.697778,2.275556 z"
       transform="matrix(0.39355872,-0.00844164,0.02458259,1.1460676,35.437939,984.17466)" />
    <path
       sodipodi:type="arc"
       style="fill:#ffffff;fill-opacity:1;stroke:#000000;stroke-opacity:1"
       id="path3794-0"
       sodipodi:cx="20.088888"
       sodipodi:cy="9.7066669"
       sodipodi:rx="0.39111111"
       sodipodi:ry="0.39111111"
       d="m 20.479999,9.7066669 c 0,0.2160047 -0.175106,0.3911111 -0.391111,0.3911111 -0.216005,0 -0.391111,-0.1751064 -0.391111,-0.3911111 0,-0.2160047 0.175106,-0.3911111 0.391111,-0.3911111 0.216005,0 0.391111,0.1751064 0.391111,0.3911111 z"
       transform="matrix(1.2974769,-0.0837856,0.06987435,1.0820517,21.285742,990.4248)" />
    <path
       sodipodi:type="arc"
       style="fill:#97250b;fill-opacity:0.88014978;stroke:#000000;stroke-opacity:1"
       id="path4118"
       sodipodi:cx="31.586369"
       sodipodi:cy="41.372501"
       sodipodi:rx="7.7273793"
       sodipodi:ry="4.3149238"
       d="m 39.313748,41.372501 c 0,2.383067 -3.459666,4.314924 -7.727379,4.314924 -4.267714,0 -7.72738,-1.931857 -7.72738,-4.314924 0,-2.383066 3.459666,-4.314923 7.72738,-4.314923 4.267713,0 7.727379,1.931857 7.727379,4.314923 z"
       transform="matrix(0.7395092,0.67314645,-0.67314645,0.7395092,58.582999,945.03104)" />
    <path
       sodipodi:type="arc"
       style="fill:#97250b;fill-opacity:0.88014978;stroke:#000000;stroke-opacity:1"
       id="path4118-2"
       sodipodi:cx="31.586369"
       sodipodi:cy="41.372501"
       sodipodi:rx="7.7273793"
       sodipodi:ry="4.3149238"
       d="m 39.313748,41.372501 c 0,2.383067 -3.459666,4.314924 -7.727379,4.314924 -4.267714,0 -7.72738,-1.931857 -7.72738,-4.314924 0,-2.383066 3.459666,-4.314923 7.72738,-4.314923 4.267713,0 7.727379,1.931857 7.727379,4.314923 z"
       transform="matrix(-0.80469115,0.59369366,-0.59369366,-0.80469115,104.35355,1028.9416)" />
    <path
       sodipodi:type="arc"
       style="fill:#97250b;fill-opacity:0.88014978;stroke:#000000;stroke-opacity:1"
       id="path4118-2-5"
       sodipodi:cx="31.586369"
       sodipodi:cy="41.372501"
       sodipodi:rx="7.7273793"
       sodipodi:ry="4.3149238"
       d="m 39.313748,41.372501 c 0,2.383067 -3.459666,4.314924 -7.727379,4.314924 -4.267714,0 -7.72738,-1.931857 -7.72738,-4.314924 0,-2.383066 3.459666,-4.314923 7.72738,-4.314923 4.267713,0 7.727379,1.931857 7.727379,4.314923 z"
       transform="matrix(-0.87062938,-0.49193953,0.49193953,-0.87062938,45.389322,1066.1864)" />
    <path
       sodipodi:type="arc"
       style="fill:#97250b;fill-opacity:0.88014978;stroke:#000000;stroke-opacity:1"
       id="path4118-2-5-8"
       sodipodi:cx="31.586369"
       sodipodi:cy="41.372501"
       sodipodi:rx="7.7273793"
       sodipodi:ry="4.3149238"
       d="m 39.313748,41.372501 c 0,2.383067 -3.459666,4.314924 -7.727379,4.314924 -4.267714,0 -7.72738,-1.931857 -7.72738,-4.314924 0,-2.383066 3.459666,-4.314923 7.72738,-4.314923 4.267713,0 7.727379,1.931857 7.727379,4.314923 z"
       transform="matrix(-0.72189771,0.69199979,-0.69199979,-0.72189771,89.279128,1005.2642)" />
    <path
       sodipodi:type="arc"
       style="fill:#97250b;fill-opacity:0.88014978;stroke:#000000;stroke-opacity:1"
       id="path4118-9"
       sodipodi:cx="31.586369"
       sodipodi:cy="41.372501"
       sodipodi:rx="7.7273793"
       sodipodi:ry="4.3149238"
       d="m 39.313748,41.372501 c 0,2.383067 -3.459666,4.314924 -7.727379,4.314924 -4.267714,0 -7.72738,-1.931857 -7.72738,-4.314924 0,-2.383066 3.459666,-4.314923 7.72738,-4.314923 4.267713,0 7.727379,1.931857 7.727379,4.314923 z"
       transform="matrix(0.03596114,0.81909325,-1.009771,0.0291705,98.398807,978.94709)" />
    <path
       sodipodi:type="arc"
       style="fill:#97250b;fill-opacity:0.88014978;stroke:#000000;stroke-opacity:1"
       id="path4118-9-7"
       sodipodi:cx="31.586369"
       sodipodi:cy="41.372501"
       sodipodi:rx="7.7273793"
       sodipodi:ry="4.3149238"
       d="m 39.313748,41.372501 c 0,2.383067 -3.459666,4.314924 -7.727379,4.314924 -4.267714,0 -7.72738,-1.931857 -7.72738,-4.314924 0,-2.383066 3.459666,-4.314923 7.72738,-4.314923 4.267713,0 7.727379,1.931857 7.727379,4.314923 z"
       transform="matrix(-0.03596114,0.81909325,1.009771,0.0291705,-6.2906931,978.80608)" />
    <path
       sodipodi:type="arc"
       style="fill:#97250b;fill-opacity:0.88014978;stroke:#000000;stroke-opacity:1"
       id="path4118-9-7-6"
       sodipodi:cx="31.586369"
       sodipodi:cy="41.372501"
       sodipodi:rx="7.7273793"
       sodipodi:ry="4.3149238"
       d="m 39.313748,41.372501 c 0,2.383067 -3.459666,4.314924 -7.727379,4.314924 -4.267714,0 -7.72738,-1.931857 -7.72738,-4.314924 0,-2.383066 3.459666,-4.314923 7.72738,-4.314923 4.267713,0 7.727379,1.931857 7.727379,4.314923 z"
       transform="matrix(-0.55920442,0.03181725,0.03662873,1.0263147,62.117261,950.68684)" />
    <path
       sodipodi:type="arc"
       style="fill:#97250b;fill-opacity:0.88014978;stroke:#000000;stroke-opacity:1"
       id="path4118-9-7-6-6"
       sodipodi:cx="31.586369"
       sodipodi:cy="41.372501"
       sodipodi:rx="7.7273793"
       sodipodi:ry="4.3149238"
       d="m 39.313748,41.372501 c 0,2.383067 -3.459666,4.314924 -7.727379,4.314924 -4.267714,0 -7.72738,-1.931857 -7.72738,-4.314924 0,-2.383066 3.459666,-4.314923 7.72738,-4.314923 4.267713,0 7.727379,1.931857 7.727379,4.314923 z"
       transform="matrix(-0.56470156,0.02483913,0.0369888,0.8012247,62.783639,982.72508)" />
    <path
       style="fill:#ff6e10;fill-opacity:1;stroke:#000000;stroke-width:1px;stroke-linecap:butt;stroke-linejoin:miter;stroke-opacity:1"
       d="m 42.754407,46.025852 3.384254,-10.152761 2.53819,10.096357 8.573443,-5.132786 -6.148061,8.855465 8.968272,4.173913 -9.475911,-0.112808 2.368978,8.235017 -6.994124,-6.768507 -8.911869,6.824911 4.737955,-8.065804 -6.486486,0.338425 6.035254,-4.512339 -7.614572,-6.317273 z"
       id="path4246"
       inkscape:connector-curvature="0"
       transform="translate(0,956.3622)"
       sodipodi:nodetypes="ccccccccccccccc" />
    <path
       style="fill:#ffff0f;stroke:#000000;stroke-width:1px;stroke-linecap:butt;stroke-linejoin:miter;stroke-opacity:1;fill-opacity:1"
       d="m 45.800235,43.713278 1.579318,5.019977 5.922445,0.169213 -5.358402,2.763807 -1.635723,5.189189 -1.804935,-5.584019 -6.768508,-1.184489 6.204465,-1.240893 z"
       id="path4266"
       inkscape:connector-curvature="0"
       transform="translate(0,956.3622)" />
  </g>
</svg>
