<?xml version="1.0" encoding="UTF-8" standalone="no"?>
<!-- Created with Inkscape (http://www.inkscape.org/) -->

<svg
   xmlns:dc="http://purl.org/dc/elements/1.1/"
   xmlns:cc="http://creativecommons.org/ns#"
   xmlns:rdf="http://www.w3.org/1999/02/22-rdf-syntax-ns#"
   xmlns:svg="http://www.w3.org/2000/svg"
   xmlns="http://www.w3.org/2000/svg"
   xmlns:sodipodi="http://sodipodi.sourceforge.net/DTD/sodipodi-0.dtd"
   xmlns:inkscape="http://www.inkscape.org/namespaces/inkscape"
   width="96"
   height="96"
   id="svg2"
   version="1.1"
   inkscape:version="0.91 r13725"
   sodipodi:docname="rabbot_explode_05.svg">
  <defs
     id="defs4">
    <filter
       inkscape:collect="always"
       id="filter4443">
      <feGaussianBlur
         inkscape:collect="always"
         stdDeviation="0.26701195"
         id="feGaussianBlur4445" />
    </filter>
    <filter
       inkscape:collect="always"
       id="filter4459">
      <feGaussianBlur
         inkscape:collect="always"
         stdDeviation="0.24172427"
         id="feGaussianBlur4461" />
    </filter>
    <filter
       inkscape:collect="always"
       id="filter4463">
      <feGaussianBlur
         inkscape:collect="always"
         stdDeviation="0.29001225"
         id="feGaussianBlur4465" />
    </filter>
    <filter
       inkscape:collect="always"
       id="filter4494"
       x="-0.16059873"
       width="1.3211975"
       y="-0.012891305"
       height="1.0257826">
      <feGaussianBlur
         inkscape:collect="always"
         stdDeviation="0.2219505"
         id="feGaussianBlur4496" />
    </filter>
    <filter
       inkscape:collect="always"
       id="filter4498">
      <feGaussianBlur
         inkscape:collect="always"
         stdDeviation="0.21234208"
         id="feGaussianBlur4500" />
    </filter>
    <filter
       inkscape:collect="always"
       id="filter4502"
       x="-0.16697526"
       width="1.3339505"
       y="-0.012737933"
       height="1.0254759">
      <feGaussianBlur
         inkscape:collect="always"
         stdDeviation="0.22260622"
         id="feGaussianBlur4504" />
    </filter>
    <filter
       inkscape:collect="always"
       id="filter4506">
      <feGaussianBlur
         inkscape:collect="always"
         stdDeviation="0.26674644"
         id="feGaussianBlur4508" />
    </filter>
    <filter
       inkscape:collect="always"
       id="filter4510">
      <feGaussianBlur
         inkscape:collect="always"
         stdDeviation="0.25076736"
         id="feGaussianBlur4512" />
    </filter>
    <filter
       inkscape:collect="always"
       id="filter4514">
      <feGaussianBlur
         inkscape:collect="always"
         stdDeviation="0.082170571"
         id="feGaussianBlur4516" />
    </filter>
  </defs>
  <sodipodi:namedview
     id="base"
     pagecolor="#ffffff"
     bordercolor="#666666"
     borderopacity="1.0"
     inkscape:pageopacity="0.0"
     inkscape:pageshadow="2"
     inkscape:zoom="8.8645833"
     inkscape:cx="8.5170383"
     inkscape:cy="48"
     inkscape:document-units="px"
     inkscape:current-layer="layer2"
     showgrid="false"
     inkscape:window-width="1920"
     inkscape:window-height="1016"
     inkscape:window-x="0"
     inkscape:window-y="27"
     inkscape:window-maximized="1" />
  <metadata
     id="metadata7">
    <rdf:RDF>
      <cc:Work
         rdf:about="">
        <dc:format>image/svg+xml</dc:format>
        <dc:type
           rdf:resource="http://purl.org/dc/dcmitype/StillImage" />
        <dc:title />
      </cc:Work>
    </rdf:RDF>
  </metadata>
  <g
     inkscape:label="Layer 1"
     inkscape:groupmode="layer"
     id="layer1"
     transform="translate(0,-956.3622)">
    <g
       id="g4308"
       transform="matrix(0.1739201,0.98475977,-0.98475977,0.1739201,1047.9407,791.0742)"
       style="opacity:0.6;fill:#ff0000">
      <path
         d="m 20.906667,29.475555 a 3.3777778,1.1733333 0 0 1 -3.377778,1.173334 3.3777778,1.1733333 0 0 1 -3.377778,-1.173334 3.3777778,1.1733333 0 0 1 3.377778,-1.173333 3.3777778,1.1733333 0 0 1 3.377778,1.173333 z"
         sodipodi:ry="1.1733333"
         sodipodi:rx="3.3777778"
         sodipodi:cy="29.475555"
         sodipodi:cx="17.528889"
         id="path3766-3"
         style="fill:#ff0000;fill-opacity:1;stroke:#000000;stroke-opacity:1"
         sodipodi:type="arc"
         transform="matrix(0.50825872,0.03805256,-0.09563704,1.1025448,44.724407,985.73882)" />
      <path
         transform="matrix(0.43753699,-0.0096245,0.02351804,1.0691489,44.148558,986.07253)"
         d="m 17.493333,27.946667 a 3.6977777,2.2755556 0 0 1 -3.697778,2.275555 3.6977777,2.2755556 0 0 1 -3.697778,-2.275555 3.6977777,2.2755556 0 0 1 3.697778,-2.275556 3.6977777,2.2755556 0 0 1 3.697778,2.275556 z"
         sodipodi:ry="2.2755556"
         sodipodi:rx="3.6977777"
         sodipodi:cy="27.946667"
         sodipodi:cx="13.795555"
         id="path3796-0"
         style="fill:#ff0000;fill-opacity:1;stroke:#000000;stroke-opacity:1"
         sodipodi:type="arc" />
    </g>
    <path
       sodipodi:type="arc"
       style="opacity:0.6;fill:#ff0000;fill-opacity:1;stroke:#000000;stroke-opacity:1"
       id="path3792-5"
       sodipodi:cx="19.768888"
       sodipodi:cy="22.151112"
       sodipodi:rx="1.4222223"
       sodipodi:ry="3.8044446"
       d="m 21.191111,22.151112 a 1.4222223,3.8044446 0 0 1 -1.422223,3.804444 1.4222223,3.8044446 0 0 1 -1.422222,-3.804444 1.4222223,3.8044446 0 0 1 1.422222,-3.804445 1.4222223,3.8044446 0 0 1 1.422223,3.804445 z"
       transform="matrix(0.21583947,-0.97642885,0.97642885,0.21583947,34.113065,1026.8674)" />
    <path
       sodipodi:type="arc"
       style="opacity:0.6;fill:#ff0000;fill-opacity:1;stroke:#000000;stroke-opacity:1"
       id="path3792"
       sodipodi:cx="19.768888"
       sodipodi:cy="22.151112"
       sodipodi:rx="1.4222223"
       sodipodi:ry="3.8044446"
       d="m 21.191111,22.151112 a 1.4222223,3.8044446 0 0 1 -1.422223,3.804444 1.4222223,3.8044446 0 0 1 -1.422222,-3.804444 1.4222223,3.8044446 0 0 1 1.422222,-3.804445 1.4222223,3.8044446 0 0 1 1.422223,3.804445 z"
       transform="matrix(0.02658381,0.99964661,-0.99964661,0.02658381,52.084761,984.42718)" />
    <path
       sodipodi:type="arc"
       style="opacity:0.6;fill:#ff0000;fill-opacity:1;stroke:#000000;stroke-opacity:1"
       id="path3772"
       sodipodi:cx="10.204445"
       sodipodi:cy="7.6088891"
       sodipodi:rx="3.3777778"
       sodipodi:ry="1.6355555"
       d="M 13.582223,7.6088891 A 3.3777778,1.6355555 0 0 1 10.204445,9.2444446 3.3777778,1.6355555 0 0 1 6.8266671,7.6088891 3.3777778,1.6355555 0 0 1 10.204445,5.9733336 3.3777778,1.6355555 0 0 1 13.582223,7.6088891 Z"
       transform="matrix(0.8073951,0.09728701,-0.21166683,0.99635471,23.835565,987.84247)" />
    <path
       sodipodi:type="arc"
       style="opacity:0.6;fill:#000000;fill-opacity:1;stroke:#000000;stroke-opacity:1"
       id="path3772-7"
       sodipodi:cx="10.204445"
       sodipodi:cy="7.6088891"
       sodipodi:rx="3.3777778"
       sodipodi:ry="1.6355555"
       d="M 13.582223,7.6088891 A 3.3777778,1.6355555 0 0 1 10.204445,9.2444446 3.3777778,1.6355555 0 0 1 6.8266671,7.6088891 3.3777778,1.6355555 0 0 1 10.204445,5.9733336 3.3777778,1.6355555 0 0 1 13.582223,7.6088891 Z"
       transform="matrix(-0.83234161,0.1141466,-0.1620528,-0.88271136,69.366449,1002.7286)" />
    <g
       id="g4312"
       transform="matrix(0.41505469,-0.90979645,0.90979645,0.41505469,-905.95458,633.40926)"
       style="opacity:0.6;fill:#ff0000">
      <path
         transform="matrix(0.49816262,0.01101159,-0.0259843,0.98356126,33.573584,989.84933)"
         d="m 20.906667,29.475555 a 3.3777778,1.1733333 0 0 1 -3.377778,1.173334 3.3777778,1.1733333 0 0 1 -3.377778,-1.173334 3.3777778,1.1733333 0 0 1 3.377778,-1.173333 3.3777778,1.1733333 0 0 1 3.377778,1.173333 z"
         sodipodi:ry="1.1733333"
         sodipodi:rx="3.3777778"
         sodipodi:cy="29.475555"
         sodipodi:cx="17.528889"
         id="path3766"
         style="fill:#ff0000;fill-opacity:1;stroke:#000000;stroke-opacity:1"
         sodipodi:type="arc" />
      <path
         transform="matrix(0.39355872,-0.00844164,0.02458259,1.1460676,35.437939,984.17466)"
         d="m 17.493333,27.946667 a 3.6977777,2.2755556 0 0 1 -3.697778,2.275555 3.6977777,2.2755556 0 0 1 -3.697778,-2.275555 3.6977777,2.2755556 0 0 1 3.697778,-2.275556 3.6977777,2.2755556 0 0 1 3.697778,2.275556 z"
         sodipodi:ry="2.2755556"
         sodipodi:rx="3.6977777"
         sodipodi:cy="27.946667"
         sodipodi:cx="13.795555"
         id="path3796"
         style="fill:#ff0000;fill-opacity:1;stroke:#000000;stroke-opacity:1"
         sodipodi:type="arc" />
    </g>
    <g
       id="g4303"
       transform="matrix(0.61672958,-0.7871751,0.7871751,0.61672958,-774.02716,420.68651)"
       style="opacity:0.6;fill:#ff0000">
      <path
         transform="matrix(0.77053203,0.12335422,-0.06851811,0.95498434,34.228385,987.9455)"
         d="M 21.617778,9.8488894 A 4.8355556,3.9466667 0 0 1 16.782223,13.795556 4.8355556,3.9466667 0 0 1 11.946667,9.8488894 4.8355556,3.9466667 0 0 1 16.782223,5.9022226 4.8355556,3.9466667 0 0 1 21.617778,9.8488894 Z"
         sodipodi:ry="3.9466667"
         sodipodi:rx="4.8355556"
         sodipodi:cy="9.8488894"
         sodipodi:cx="16.782223"
         id="path3770"
         style="fill:#ff0000;fill-opacity:1;stroke:#000000;stroke-opacity:1"
         sodipodi:type="arc" />
      <path
         transform="matrix(1.1870228,-0.07665294,0.07665294,1.1870228,20.141619,989.3872)"
         d="M 20.479999,9.7066669 A 0.39111111,0.39111111 0 0 1 20.088888,10.097778 0.39111111,0.39111111 0 0 1 19.697777,9.7066669 0.39111111,0.39111111 0 0 1 20.088888,9.3155558 0.39111111,0.39111111 0 0 1 20.479999,9.7066669 Z"
         sodipodi:ry="0.39111111"
         sodipodi:rx="0.39111111"
         sodipodi:cy="9.7066669"
         sodipodi:cx="20.088888"
         id="path3794"
         style="fill:#ff0000;fill-opacity:1;stroke:#000000;stroke-opacity:1"
         sodipodi:type="arc" />
      <path
         transform="matrix(1.2974769,-0.0837856,0.06987435,1.0820517,21.285742,990.4248)"
         d="M 20.479999,9.7066669 A 0.39111111,0.39111111 0 0 1 20.088888,10.097778 0.39111111,0.39111111 0 0 1 19.697777,9.7066669 0.39111111,0.39111111 0 0 1 20.088888,9.3155558 0.39111111,0.39111111 0 0 1 20.479999,9.7066669 Z"
         sodipodi:ry="0.39111111"
         sodipodi:rx="0.39111111"
         sodipodi:cy="9.7066669"
         sodipodi:cx="20.088888"
         id="path3794-0"
         style="fill:#ff0000;fill-opacity:1;stroke:#000000;stroke-opacity:1"
         sodipodi:type="arc" />
    </g>
    <path
       style="display:inline;opacity:0.65503875;fill:#000000;fill-opacity:1;fill-rule:nonzero;stroke:#000000;stroke-width:0.02637811px;stroke-linecap:butt;stroke-linejoin:miter;stroke-opacity:1"
       d="m 70.406999,990.15457 -0.746492,-0.13779 -0.902816,-0.088 0.156951,0.6472 -1.015207,0.24048 -0.302218,-0.52662 -1.035427,0.49952 0.373763,0.51704 -0.745192,0.75771 -0.497939,-0.35742 -0.536875,1.15577 0.508656,0.12851 -0.06079,0.97533 -0.652647,0.0911 0.06433,1.01596 0.683591,-0.18086 0.365122,0.84528 -0.663354,0.32002 0.768547,0.77529 0.362416,-0.34933 0.78977,0.61611 -0.393093,0.43829 1.07897,0.37629 0.278825,-0.5078 0.953993,0.1374 0.05326,0.54702 1.160621,-0.16106 -0.156749,-0.54758 0.745803,-0.45888 0.374829,0.51653 0.817202,-0.66845 -0.311066,-0.29801 0.464287,-0.74748 0.529678,0.26797 0.247125,-0.91692 -0.41522,-0.0988 0.132798,-0.88606 0.570733,0.0487 -0.199288,-0.92528 -0.569727,0.0512 -0.146637,-0.67711 0.497515,-0.24001 -0.468672,-0.74546 -0.362353,0.24895 -0.488095,-0.48617 0.300124,-0.36914 -0.716755,-0.427 -0.351896,0.41905 -0.684611,-0.31722 0.144193,-0.51827 z m -0.723595,2.47311 c 0.743503,0.2364 1.146781,1.00702 0.900569,1.72087 -0.246212,0.71386 -1.048561,1.1003 -1.792064,0.8639 -0.743504,-0.23639 -1.147044,-1.00624 -0.900832,-1.72011 0.246212,-0.71386 1.048823,-1.10106 1.792327,-0.86466 z"
       id="path3838-3"
       inkscape:connector-curvature="0" />
    <path
       style="display:inline;opacity:0.65503875;fill:#000000;fill-opacity:1;fill-rule:nonzero;stroke:#000000;stroke-width:0.03474738px;stroke-linecap:butt;stroke-linejoin:miter;stroke-opacity:1"
       d="m 32.989553,971.40432 -0.972925,0.12705 -1.143408,0.25409 0.465833,0.76227 -1.142321,0.71884 -0.592875,-0.54945 -1.057624,1.05763 0.676488,0.50818 -0.592879,1.26936 -0.761185,-0.25409 -0.169393,1.69285 0.677574,-0.0424 0.337701,1.26937 -0.761185,0.38113 0.508181,1.27045 0.761186,-0.50818 0.804617,0.93058 -0.677573,0.67758 1.269365,0.67757 0.296439,-0.59288 1.228104,0.46583 -0.296439,0.71884 1.481106,0.0424 0.127046,-0.76119 1.227017,-0.21174 0.296437,0.67649 1.354064,-0.67649 -0.423485,-0.63522 0.719923,-0.88823 0.677575,0.50709 0.718834,-1.18467 -0.507095,-0.25409 0.253004,-1.14232 0.762272,0.12705 -0.0847,-1.27045 -0.55053,0.0424 -0.211742,-1.18467 0.719923,-0.1694 -0.635228,-1.09997 -0.676486,0.29644 -0.465832,-0.80462 0.508181,-0.50818 -0.889316,-0.76118 -0.338788,0.46474 -0.803534,-0.42239 0.211742,-0.59288 -1.058707,-0.25409 -0.254091,0.67757 -0.972928,-0.12704 -0.04235,-0.71993 z m 0.158535,3.44977 c 1.010934,0 1.830752,0.81982 1.830752,1.83075 0,1.01093 -0.819818,1.82967 -1.830752,1.82967 -1.010935,0 -1.830753,-0.81874 -1.830753,-1.82967 0,-1.01093 0.819818,-1.83075 1.830753,-1.83075 z"
       id="path3838-3-3"
       inkscape:connector-curvature="0" />
    <path
       style="display:inline;opacity:0.65503875;fill:none;stroke:#000000;stroke-width:1px;stroke-linecap:butt;stroke-linejoin:miter;stroke-opacity:1"
       d="m 35.172434,994.6743 0.894607,-2.82272 -0.279622,-1.16611 -0.98557,-0.56032 -1.637917,0.36002 0.164312,1.91402 -1.13579,1.40729 -1.31527,-1.07055 0.345934,-2.24372 0.337808,-0.86673 -0.594154,-1.11253 -1.442216,0.0839 -1.043762,1.47254 0.490492,1.45385 c 0,0 -2.121366,0.84699 -1.979259,0.25635 0.142113,-0.59064 0.269057,-1.74511 0.269057,-1.74511 l 0.04655,-1.62628 0.886493,-1.44574 -0.157269,0.0268"
       id="path3040"
       inkscape:connector-curvature="0" />
    <path
       style="display:inline;opacity:0.65503875;fill:none;stroke:#000000;stroke-width:1.33184409px;stroke-linecap:butt;stroke-linejoin:miter;stroke-opacity:1"
       d="m 55.782178,989.6239 3.033001,-2.11183 0.48065,-1.40639 -0.781701,-1.37587 -2.199667,-0.98396 -1.139469,2.06606 -2.332732,0.48555 -0.818071,-2.16179 1.976438,-1.97899 1.006385,-0.59655 0.06909,-1.61102 -1.77427,-1.10156 -2.268759,0.62707 -0.430473,1.8701 c 0,0 -3.114457,-0.89031 -2.533447,-1.36929 0.581011,-0.47897 1.537225,-1.53922 1.537225,-1.53922 l 1.189638,-1.60235 2.062967,-0.72938 -0.205829,-0.10226"
       id="path3040-6"
       inkscape:connector-curvature="0" />
  </g>
  <g
     inkscape:groupmode="layer"
     id="layer2"
     inkscape:label="Layer"
     style="display:inline">
    <ellipse
       style="opacity:0.1;fill:#c9250f;fill-opacity:0.77238805;stroke:#000000;stroke-width:0.25100732;stroke-miterlimit:4;stroke-dasharray:none;stroke-opacity:1;filter:url(#filter4514)"
       id="path4118-6"
       transform="matrix(3.9806769,0.08108861,-0.06085994,5.3037759,-76.29098,-185.60256)"
       cx="31.586369"
       cy="41.372501"
       rx="7.7273793"
       ry="4.3149238" />
    <path
       sodipodi:type="arc"
       style="opacity:0.1;fill:#97250b;fill-opacity:0.88014981;stroke:#000000;stroke-width:0.75988358;stroke-miterlimit:4;stroke-opacity:1;stroke-dasharray:none;filter:url(#filter4510)"
       id="path4118"
       sodipodi:cx="31.586369"
       sodipodi:cy="41.372501"
       sodipodi:rx="7.7273793"
       sodipodi:ry="4.3149238"
       d="m 39.313748,41.372501 a 7.7273793,4.3149238 0 1 1 -15.454759,0 7.7273793,4.3149238 0 1 1 15.454759,0 z"
       transform="matrix(1.6648822,1.4880604,-0.36270798,0.51315099,36.066559,-50.194435)" />
    <path
       sodipodi:type="arc"
       style="opacity:0.1;fill:#ff0000;fill-opacity:0.88014981;stroke:#000000;stroke-width:0.65860772;stroke-miterlimit:4;stroke-opacity:1;stroke-dasharray:none;filter:url(#filter4498)"
       id="path4118-2"
       sodipodi:cx="31.586369"
       sodipodi:cy="41.372501"
       sodipodi:rx="7.7273793"
       sodipodi:ry="4.3149238"
       d="m 39.313748,41.372501 a 7.7273793,4.3149238 0 1 1 -15.454759,0 7.7273793,4.3149238 0 1 1 15.454759,0 z"
       transform="matrix(-2.4863566,0.2459187,-0.58305189,-1.0486916,178.25217,94.034284)" />
    <path
       sodipodi:type="arc"
       style="opacity:0.1;fill:#97250b;fill-opacity:0.88014981;stroke:#000000;stroke-width:0.74711025;stroke-miterlimit:4;stroke-opacity:1;stroke-dasharray:none;filter:url(#filter4459)"
       id="path4118-2-5"
       sodipodi:cx="31.586369"
       sodipodi:cy="41.372501"
       sodipodi:rx="7.7273793"
       sodipodi:ry="4.3149238"
       d="m 39.313748,41.372501 a 7.7273793,4.3149238 0 1 1 -15.454759,0 7.7273793,4.3149238 0 1 1 15.454759,0 z"
       transform="matrix(-2.1243801,-0.23667307,0.541693,-0.92817068,60.804505,104.66777)" />
    <path
       sodipodi:type="arc"
       style="opacity:0.1;fill:#97250b;fill-opacity:0.88014981;stroke:#000000;stroke-width:0.81564039;stroke-miterlimit:4;stroke-opacity:1;stroke-dasharray:none;filter:url(#filter4506)"
       id="path4118-2-5-8"
       sodipodi:cx="31.586369"
       sodipodi:cy="41.372501"
       sodipodi:rx="7.7273793"
       sodipodi:ry="4.3149238"
       d="m 39.313748,41.372501 a 7.7273793,4.3149238 0 1 1 -15.454759,0 7.7273793,4.3149238 0 1 1 15.454759,0 z"
       transform="matrix(-1.3994633,1.0961271,-1.0461216,-0.16734266,109.90962,-8.6819158)" />
    <path
       sodipodi:type="arc"
       style="opacity:0.1;fill:#97250b;fill-opacity:0.88014981;stroke:#000000;stroke-width:0.69045037;stroke-miterlimit:4;stroke-opacity:1;stroke-dasharray:none;filter:url(#filter4494)"
       id="path4118-9"
       sodipodi:cx="31.586369"
       sodipodi:cy="41.372501"
       sodipodi:rx="7.7273793"
       sodipodi:ry="4.3149238"
       d="m 39.313748,41.372501 a 7.7273793,4.3149238 0 1 1 -15.454759,0 7.7273793,4.3149238 0 1 1 15.454759,0 z"
       transform="matrix(0.10539808,2.5256742,-0.93787893,0.20571844,113.65061,-46.422674)" />
    <path
       sodipodi:type="arc"
       style="opacity:0.1;fill:#97250b;fill-opacity:0.88014981;stroke:#000000;stroke-width:0.68630862;stroke-miterlimit:4;stroke-opacity:1;stroke-dasharray:none;filter:url(#filter4502)"
       id="path4118-9-7"
       sodipodi:cx="31.586369"
       sodipodi:cy="41.372501"
       sodipodi:rx="7.7273793"
       sodipodi:ry="4.3149238"
       d="m 39.313748,41.372501 a 7.7273793,4.3149238 0 1 1 -15.454759,0 7.7273793,4.3149238 0 1 1 15.454759,0 z"
       transform="matrix(-0.03194562,2.5567777,0.94109093,0.11056291,-23.087548,-45.216767)" />
    <path
       sodipodi:type="arc"
       style="opacity:0.1;fill:#97250b;fill-opacity:0.88014981;stroke:#000000;stroke-width:0.82526827;stroke-miterlimit:4;stroke-opacity:1;stroke-dasharray:none;filter:url(#filter4443)"
       id="path4118-9-7-6"
       sodipodi:cx="31.586369"
       sodipodi:cy="41.372501"
       sodipodi:rx="7.7273793"
       sodipodi:ry="4.3149238"
       d="m 39.313748,41.372501 a 7.7273793,4.3149238 0 1 1 -15.454759,0 7.7273793,4.3149238 0 1 1 15.454759,0 z"
       transform="matrix(-2.9511784,0.0205164,0.19330664,0.66178802,130.49823,-14.919666)" />
    <path
       style="opacity:0.25;fill:#ff5810;fill-opacity:1;stroke:#000000;stroke-width:0.61587179px;stroke-linecap:butt;stroke-linejoin:miter;stroke-opacity:1"
       d="m 41.432798,39.343605 c 2.274976,-2.410961 1.908186,-7.241508 4.522854,-7.521651 2.480929,0.288693 1.93165,5.109416 3.923762,7.706544 4.468135,-0.04127 9.923335,-3.735843 10.877969,-0.959699 0.771348,1.711521 -4.783233,4.057748 -5.122504,8.491421 2.849773,2.696654 7.408564,3.429071 7.057475,5.613233 -0.266063,2.215958 -3.228242,0.74124 -6.715408,1.610254 0.536778,2.04691 -1.047998,1.341659 -3.214654,2.156958 -1.581516,0.168401 -4.713837,-1.223625 -6.111886,-2.207201 -1.317753,0.684436 -4.156227,2.234522 -5.933899,2.052609 -1.479685,-0.786282 -1.81901,-1.237297 -1.81538,-2.544776 -2.29219,0.207855 -7.149718,0.129768 -7.888674,-1.898934 -0.915217,-2.824709 6.495475,-2.372328 7.100475,-4.379748 5.685053,-1.367649 -6.097356,-2.78191 -6.266758,-5.00105 -0.276781,-3.315967 6.195936,-2.858774 9.586628,-3.11796 z"
       id="path4246"
       inkscape:connector-curvature="0"
       sodipodi:nodetypes="ccccccccccccccc" />
    <path
       style="opacity:0.25;fill:#ffb50f;fill-opacity:1;stroke:#000000;stroke-width:0.43562669px;stroke-linecap:butt;stroke-linejoin:miter;stroke-opacity:1"
       d="m 46.41256,36.698095 c 1.897672,0.985526 1.898319,4.386229 2.83063,6.600793 2.377455,0.67266 5.131327,-0.745877 7.132364,2.017978 -0.876807,2.540301 -4.215279,3.086212 -6.322918,4.629319 -0.449842,1.654883 -2.191063,3.625101 -3.407868,3.149544 -1.226601,0.232068 -1.496845,-2.158041 -1.902154,-3.827099 -2.214492,-1.232966 -5.443957,-0.35142 -6.643478,-3.698896 1.165057,-2.016038 3.745169,-1.575399 5.618181,-2.362355 0.895011,-2.171415 0.096,-5.16631 2.695243,-6.509284 z"
       id="path4266"
       inkscape:connector-curvature="0"
       sodipodi:nodetypes="ccccccccc" />
    <ellipse
       style="opacity:0.1;fill:#97250b;fill-opacity:0.88014981;stroke:#000000;stroke-width:0.89635652;stroke-miterlimit:4;stroke-dasharray:none;stroke-opacity:1;filter:url(#filter4463)"
       id="path4118-9-7-6-6"
       transform="matrix(-2.5435404,0.01844947,0.16660572,0.59511635,118.57851,35.716922)"
       cx="31.586369"
       cy="41.372501"
       rx="7.7273793"
       ry="4.3149238" />
  </g>
</svg>
