<?xml version="1.0" encoding="UTF-8" standalone="no"?>
<!-- Created with Inkscape (http://www.inkscape.org/) -->

<svg
   xmlns:dc="http://purl.org/dc/elements/1.1/"
   xmlns:cc="http://creativecommons.org/ns#"
   xmlns:rdf="http://www.w3.org/1999/02/22-rdf-syntax-ns#"
   xmlns:svg="http://www.w3.org/2000/svg"
   xmlns="http://www.w3.org/2000/svg"
   xmlns:sodipodi="http://sodipodi.sourceforge.net/DTD/sodipodi-0.dtd"
   xmlns:inkscape="http://www.inkscape.org/namespaces/inkscape"
   width="96"
   height="96"
   id="svg2"
   version="1.1"
   inkscape:version="0.91 r13725"
   sodipodi:docname="rabbot_explode_06.svg">
  <defs
     id="defs4" />
  <sodipodi:namedview
     id="base"
     pagecolor="#ffffff"
     bordercolor="#666666"
     borderopacity="1.0"
     inkscape:pageopacity="0.0"
     inkscape:pageshadow="2"
     inkscape:zoom="8.8645833"
     inkscape:cx="28.258519"
     inkscape:cy="48"
     inkscape:document-units="px"
     inkscape:current-layer="layer1"
     showgrid="false"
     inkscape:window-width="1920"
     inkscape:window-height="1016"
     inkscape:window-x="0"
     inkscape:window-y="27"
     inkscape:window-maximized="1" />
  <metadata
     id="metadata7">
    <rdf:RDF>
      <cc:Work
         rdf:about="">
        <dc:format>image/svg+xml</dc:format>
        <dc:type
           rdf:resource="http://purl.org/dc/dcmitype/StillImage" />
        <dc:title />
      </cc:Work>
    </rdf:RDF>
  </metadata>
  <g
     inkscape:label="Layer 1"
     inkscape:groupmode="layer"
     id="layer1"
     transform="translate(0,-956.3622)">
    <g
       id="g4308"
       transform="matrix(-0.22747478,0.97378397,-0.97378397,-0.22747478,1057.2379,1199.7892)"
       style="opacity:0.4;fill:#ff0000">
      <path
         d="m 20.906667,29.475555 a 3.3777778,1.1733333 0 0 1 -3.377778,1.173334 3.3777778,1.1733333 0 0 1 -3.377778,-1.173334 3.3777778,1.1733333 0 0 1 3.377778,-1.173333 3.3777778,1.1733333 0 0 1 3.377778,1.173333 z"
         sodipodi:ry="1.1733333"
         sodipodi:rx="3.3777778"
         sodipodi:cy="29.475555"
         sodipodi:cx="17.528889"
         id="path3766-3"
         style="fill:#ff0000;fill-opacity:1;stroke:#000000;stroke-opacity:1"
         sodipodi:type="arc"
         transform="matrix(0.50825872,0.03805256,-0.09563704,1.1025448,44.724407,985.73882)" />
      <path
         transform="matrix(0.43753699,-0.0096245,0.02351804,1.0691489,44.148558,986.07253)"
         d="m 17.493333,27.946667 a 3.6977777,2.2755556 0 0 1 -3.697778,2.275555 3.6977777,2.2755556 0 0 1 -3.697778,-2.275555 3.6977777,2.2755556 0 0 1 3.697778,-2.275556 3.6977777,2.2755556 0 0 1 3.697778,2.275556 z"
         sodipodi:ry="2.2755556"
         sodipodi:rx="3.6977777"
         sodipodi:cy="27.946667"
         sodipodi:cx="13.795555"
         id="path3796-0"
         style="fill:#ff0000;fill-opacity:1;stroke:#000000;stroke-opacity:1"
         sodipodi:type="arc" />
    </g>
    <path
       sodipodi:type="arc"
       style="opacity:0.4;fill:#ff0000;fill-opacity:1;stroke:#000000;stroke-opacity:1"
       id="path3792-5"
       sodipodi:cx="19.768888"
       sodipodi:cy="22.151112"
       sodipodi:rx="1.4222223"
       sodipodi:ry="3.8044446"
       d="m 21.191111,22.151112 a 1.4222223,3.8044446 0 0 1 -1.422223,3.804444 1.4222223,3.8044446 0 0 1 -1.422222,-3.804444 1.4222223,3.8044446 0 0 1 1.422222,-3.804445 1.4222223,3.8044446 0 0 1 1.422223,3.804445 z"
       transform="matrix(0.45613362,-0.88991128,0.88991128,0.45613362,33.400497,1023.2815)" />
    <path
       sodipodi:type="arc"
       style="opacity:0.4;fill:#ff0000;fill-opacity:1;stroke:#000000;stroke-opacity:1"
       id="path3792"
       sodipodi:cx="19.768888"
       sodipodi:cy="22.151112"
       sodipodi:rx="1.4222223"
       sodipodi:ry="3.8044446"
       d="m 21.191111,22.151112 a 1.4222223,3.8044446 0 0 1 -1.422223,3.804444 1.4222223,3.8044446 0 0 1 -1.422222,-3.804444 1.4222223,3.8044446 0 0 1 1.422222,-3.804445 1.4222223,3.8044446 0 0 1 1.422223,3.804445 z"
       transform="matrix(0.36684062,0.93028383,-0.93028383,0.36684062,41.258537,980.29428)" />
    <path
       sodipodi:type="arc"
       style="opacity:0.4;fill:#ff0000;fill-opacity:1;stroke:#000000;stroke-opacity:1"
       id="path3772"
       sodipodi:cx="10.204445"
       sodipodi:cy="7.6088891"
       sodipodi:rx="3.3777778"
       sodipodi:ry="1.6355555"
       d="M 13.582223,7.6088891 A 3.3777778,1.6355555 0 0 1 10.204445,9.2444446 3.3777778,1.6355555 0 0 1 6.8266671,7.6088891 3.3777778,1.6355555 0 0 1 10.204445,5.9733336 3.3777778,1.6355555 0 0 1 13.582223,7.6088891 Z"
       transform="matrix(0.79231939,-0.18325283,0.13999618,1.0089235,19.192319,991.84703)" />
    <path
       sodipodi:type="arc"
       style="opacity:0.4;fill:#000000;fill-opacity:1;stroke:#000000;stroke-opacity:1"
       id="path3772-7"
       sodipodi:cx="10.204445"
       sodipodi:cy="7.6088891"
       sodipodi:rx="3.3777778"
       sodipodi:ry="1.6355555"
       d="M 13.582223,7.6088891 A 3.3777778,1.6355555 0 0 1 10.204445,9.2444446 3.3777778,1.6355555 0 0 1 6.8266671,7.6088891 3.3777778,1.6355555 0 0 1 10.204445,5.9733336 3.3777778,1.6355555 0 0 1 13.582223,7.6088891 Z"
       transform="matrix(-0.84013173,-8.1965681e-4,-0.03974365,-0.8965829,70.548238,1007.3661)" />
    <g
       id="g4312"
       transform="matrix(0.05903798,-0.99825573,0.99825573,0.05903798,-982.70434,999.93297)"
       style="opacity:0.4;fill:#ff0000">
      <path
         transform="matrix(0.49816262,0.01101159,-0.0259843,0.98356126,33.573584,989.84933)"
         d="m 20.906667,29.475555 a 3.3777778,1.1733333 0 0 1 -3.377778,1.173334 3.3777778,1.1733333 0 0 1 -3.377778,-1.173334 3.3777778,1.1733333 0 0 1 3.377778,-1.173333 3.3777778,1.1733333 0 0 1 3.377778,1.173333 z"
         sodipodi:ry="1.1733333"
         sodipodi:rx="3.3777778"
         sodipodi:cy="29.475555"
         sodipodi:cx="17.528889"
         id="path3766"
         style="fill:#ff0000;fill-opacity:1;stroke:#000000;stroke-opacity:1"
         sodipodi:type="arc" />
      <path
         transform="matrix(0.39355872,-0.00844164,0.02458259,1.1460676,35.437939,984.17466)"
         d="m 17.493333,27.946667 a 3.6977777,2.2755556 0 0 1 -3.697778,2.275555 3.6977777,2.2755556 0 0 1 -3.697778,-2.275555 3.6977777,2.2755556 0 0 1 3.697778,-2.275556 3.6977777,2.2755556 0 0 1 3.697778,2.275556 z"
         sodipodi:ry="2.2755556"
         sodipodi:rx="3.6977777"
         sodipodi:cy="27.946667"
         sodipodi:cx="13.795555"
         id="path3796"
         style="fill:#ff0000;fill-opacity:1;stroke:#000000;stroke-opacity:1"
         sodipodi:type="arc" />
    </g>
    <g
       id="g4303"
       transform="matrix(0.2650386,-0.96423781,0.96423781,0.2650386,-935.34621,783.8518)"
       style="opacity:0.4;fill:#ff0000">
      <path
         transform="matrix(0.77053203,0.12335422,-0.06851811,0.95498434,34.228385,987.9455)"
         d="M 21.617778,9.8488894 A 4.8355556,3.9466667 0 0 1 16.782223,13.795556 4.8355556,3.9466667 0 0 1 11.946667,9.8488894 4.8355556,3.9466667 0 0 1 16.782223,5.9022226 4.8355556,3.9466667 0 0 1 21.617778,9.8488894 Z"
         sodipodi:ry="3.9466667"
         sodipodi:rx="4.8355556"
         sodipodi:cy="9.8488894"
         sodipodi:cx="16.782223"
         id="path3770"
         style="fill:#ff0000;fill-opacity:1;stroke:#000000;stroke-opacity:1"
         sodipodi:type="arc" />
      <path
         transform="matrix(1.1870228,-0.07665294,0.07665294,1.1870228,20.141619,989.3872)"
         d="M 20.479999,9.7066669 A 0.39111111,0.39111111 0 0 1 20.088888,10.097778 0.39111111,0.39111111 0 0 1 19.697777,9.7066669 0.39111111,0.39111111 0 0 1 20.088888,9.3155558 0.39111111,0.39111111 0 0 1 20.479999,9.7066669 Z"
         sodipodi:ry="0.39111111"
         sodipodi:rx="0.39111111"
         sodipodi:cy="9.7066669"
         sodipodi:cx="20.088888"
         id="path3794"
         style="fill:#ff0000;fill-opacity:1;stroke:#000000;stroke-opacity:1"
         sodipodi:type="arc" />
      <path
         transform="matrix(1.2974769,-0.0837856,0.06987435,1.0820517,21.285742,990.4248)"
         d="M 20.479999,9.7066669 A 0.39111111,0.39111111 0 0 1 20.088888,10.097778 0.39111111,0.39111111 0 0 1 19.697777,9.7066669 0.39111111,0.39111111 0 0 1 20.088888,9.3155558 0.39111111,0.39111111 0 0 1 20.479999,9.7066669 Z"
         sodipodi:ry="0.39111111"
         sodipodi:rx="0.39111111"
         sodipodi:cy="9.7066669"
         sodipodi:cx="20.088888"
         id="path3794-0"
         style="fill:#ff0000;fill-opacity:1;stroke:#000000;stroke-opacity:1"
         sodipodi:type="arc" />
    </g>
    <path
       style="display:inline;opacity:0.65503875;fill:none;stroke:#000000;stroke-width:0.66100115px;stroke-linecap:butt;stroke-linejoin:miter;stroke-opacity:1"
       d="m 42.662968,1013.9607 0.638947,-1.7268 -0.199712,-0.7134 -0.703914,-0.3428 -1.169834,0.2203 0.117355,1.1709 -0.811205,0.8609 -0.939393,-0.6549 0.247073,-1.3726 0.24127,-0.5302 -0.424357,-0.6806 -1.030061,0.051 -0.745476,0.9008 0.350319,0.8894 c 0,0 -1.515123,0.5181 -1.413627,0.1568 0.1015,-0.3613 0.192166,-1.0675 0.192166,-1.0675 l 0.03325,-0.9949 0.633151,-0.8844 -0.112325,0.016"
       id="path3040"
       inkscape:connector-curvature="0" />
    <path
       style="display:inline;opacity:0.65503875;fill:none;stroke:#000000;stroke-width:0.6756568px;stroke-linecap:butt;stroke-linejoin:miter;stroke-opacity:1"
       d="m 42.659917,999.681 1.335621,-1.4973 0.172894,-0.8202 -0.413666,-0.6584 -1.059672,-0.2823 -0.455741,1.2547 -1.068444,0.5323 -0.459035,-1.0818 0.848543,-1.3035 0.446936,-0.4402 -0.02609,-0.8841 -0.865887,-0.3951 -1.033557,0.6019 -0.132748,1.0666 c 0,0 -1.482142,-0.1262 -1.228992,-0.4535 0.253183,-0.3273 0.659976,-1.0139 0.659976,-1.0139 l 0.495882,-1.0082 0.93405,-0.6339 -0.09956,-0.032"
       id="path3040-3"
       inkscape:connector-curvature="0" />
    <path
       style="display:inline;opacity:0.65503875;fill:#000000;fill-opacity:1;fill-rule:nonzero;stroke:#000000;stroke-width:0.01541908px;stroke-linecap:butt;stroke-linejoin:miter;stroke-opacity:1"
       d="m 56.059862,1008.1075 -0.478464,0.051 -0.562303,0.1017 0.229087,0.3052 -0.561769,0.2879 -0.291563,-0.22 -0.520116,0.4235 0.332682,0.2034 -0.291565,0.5083 -0.374335,-0.1017 -0.0833,0.6778 0.333216,-0.017 0.166074,0.5083 -0.374334,0.1526 0.249912,0.5087 0.374335,-0.2035 0.395693,0.3726 -0.333216,0.2713 0.624246,0.2713 0.145782,-0.2374 0.603955,0.1865 -0.145782,0.2879 0.728376,0.017 0.06248,-0.3048 0.60342,-0.085 0.145782,0.2708 0.665899,-0.2708 -0.208261,-0.2544 0.354043,-0.3556 0.333216,0.203 0.353507,-0.4743 -0.249378,-0.1018 0.124422,-0.4574 0.374868,0.051 -0.04165,-0.5087 -0.270739,0.017 -0.10413,-0.4743 0.354042,-0.068 -0.312391,-0.4405 -0.332681,0.1187 -0.229086,-0.3221 0.249912,-0.2035 -0.437346,-0.3048 -0.166608,0.1861 -0.395161,-0.1691 0.10413,-0.2374 -0.520649,-0.1018 -0.124956,0.2713 -0.478465,-0.051 -0.02083,-0.2882 z m 0.07796,1.3813 c 0.497155,0 0.900324,0.3283 0.900324,0.7331 0,0.4047 -0.403169,0.7326 -0.900324,0.7326 -0.497156,0 -0.900325,-0.3279 -0.900325,-0.7326 0,-0.4048 0.403169,-0.7331 0.900325,-0.7331 z"
       id="path3838-3"
       inkscape:connector-curvature="0" />
    <path
       style="display:inline;opacity:0.65503875;fill:#000000;fill-opacity:1;fill-rule:nonzero;stroke:#000000;stroke-width:0.0230469px;stroke-linecap:butt;stroke-linejoin:miter;stroke-opacity:1"
       d="m 32.374625,997.0154 -0.660048,0.082 -0.775707,0.1648 0.316029,0.4943 -0.774969,0.4661 -0.402216,-0.3563 -0.71751,0.6859 0.458941,0.3295 -0.402219,0.8231 -0.5164,-0.1648 -0.114919,1.0978 0.459677,-0.027 0.229102,0.8231 -0.5164,0.2472 0.344758,0.8238 0.516401,-0.3296 0.545865,0.6035 -0.459676,0.4394 0.861157,0.4394 0.201109,-0.3845 0.833166,0.3021 -0.201109,0.4662 1.004806,0.027 0.08619,-0.4936 0.832429,-0.1374 0.201107,0.4387 0.918619,-0.4387 -0.287299,-0.4119 0.488408,-0.5759 0.459678,0.3288 0.487668,-0.7682 -0.344021,-0.1648 0.171642,-0.7407 0.517138,0.082 -0.05746,-0.8238 -0.373489,0.027 -0.143649,-0.7682 0.488407,-0.1098 -0.430949,-0.7133 -0.458939,0.1922 -0.316028,-0.5217 0.344759,-0.3296 -0.603327,-0.4936 -0.229839,0.3014 -0.545131,-0.2739 0.14365,-0.3845 -0.718244,-0.1647 -0.17238,0.4394 -0.66005,-0.082 -0.02873,-0.4668 z m 0.107552,2.2371 c 0.685835,0 1.242012,0.5316 1.242012,1.1872 0,0.6555 -0.556177,1.1864 -1.242012,1.1864 -0.685834,0 -1.242012,-0.5309 -1.242012,-1.1864 0,-0.6556 0.556178,-1.1872 1.242012,-1.1872 z"
       id="path3838-3-6"
       inkscape:connector-curvature="0" />
  </g>
  <g
     inkscape:groupmode="layer"
     id="layer2"
     inkscape:label="Layer"
     style="display:inline">
    <path
       style="opacity:0.1;fill:#ff5810;fill-opacity:1;stroke:#000000;stroke-width:0.29204988px;stroke-linecap:butt;stroke-linejoin:miter;stroke-opacity:1"
       d="m 44.609208,42.929337 c 1.102196,-1.11903 0.924491,-3.361093 2.191263,-3.49112 1.201978,0.133995 0.935859,2.371498 1.901011,3.576936 2.164752,-0.01915 4.807725,-1.733964 5.270232,-0.445437 0.373708,0.79439 -2.317413,1.883374 -2.481785,3.941231 1.380677,1.251632 3.589351,1.591578 3.419253,2.605341 -0.128904,1.028521 -1.56404,0.344041 -3.253526,0.747387 0.260062,0.950059 -0.507741,0.622722 -1.557458,1.001137 -0.766223,0.07816 -2.283791,-0.567937 -2.961128,-1.024456 -0.638434,0.317676 -2.013637,1.037137 -2.874895,0.952703 -0.716888,-0.364947 -0.881287,-0.574282 -0.879528,-1.181139 -1.110536,0.09647 -3.463944,0.06023 -3.821958,-0.881376 -0.443411,-1.311068 3.146971,-1.101099 3.440086,-2.032828 2.754333,-0.634785 -2.954089,-1.291204 -3.036162,-2.321201 -0.134096,-1.539082 3.00185,-1.326879 4.644595,-1.447178 z"
       id="path4246"
       inkscape:connector-curvature="0"
       sodipodi:nodetypes="ccccccccccccccc" />
    <path
       style="opacity:0.1;fill:#ffb50f;fill-opacity:1;stroke:#000000;stroke-width:0.21940789px;stroke-linecap:butt;stroke-linejoin:miter;stroke-opacity:1"
       d="m 46.689046,41.009403 c 0.956484,0.496006 0.95681,2.20755 1.426722,3.32212 1.198309,0.338544 2.586342,-0.375393 3.594925,1.015631 -0.441937,1.278511 -2.124627,1.553263 -3.18694,2.329895 -0.226733,0.832888 -1.104361,1.824481 -1.717667,1.585137 -0.618243,0.116798 -0.754454,-1.086122 -0.958742,-1.926145 -1.11617,-0.62054 -2.743917,-0.176866 -3.348511,-1.861621 0.587223,-1.014654 1.887677,-0.792884 2.831731,-1.188952 0.451112,-1.092854 0.04839,-2.600158 1.358482,-3.276065 z"
       id="path4266"
       inkscape:connector-curvature="0"
       sodipodi:nodetypes="ccccccccc" />
  </g>
</svg>
