<?xml version="1.0" encoding="UTF-8" standalone="no"?>
<!-- Created with Inkscape (http://www.inkscape.org/) -->

<svg
   xmlns:dc="http://purl.org/dc/elements/1.1/"
   xmlns:cc="http://creativecommons.org/ns#"
   xmlns:rdf="http://www.w3.org/1999/02/22-rdf-syntax-ns#"
   xmlns:svg="http://www.w3.org/2000/svg"
   xmlns="http://www.w3.org/2000/svg"
   xmlns:sodipodi="http://sodipodi.sourceforge.net/DTD/sodipodi-0.dtd"
   xmlns:inkscape="http://www.inkscape.org/namespaces/inkscape"
   width="32"
   height="32"
   id="svg2"
   version="1.1"
   inkscape:version="0.91 r13725"
   sodipodi:docname="rabbit_block_rise_right_08.svg">
  <defs
     id="defs4" />
  <sodipodi:namedview
     id="base"
     pagecolor="#ffffff"
     bordercolor="#666666"
     borderopacity="1.0"
     inkscape:pageopacity="0.0"
     inkscape:pageshadow="2"
     inkscape:zoom="18.804621"
     inkscape:cx="-2.4922302"
     inkscape:cy="15.026367"
     inkscape:document-units="px"
     inkscape:current-layer="layer1"
     showgrid="true"
     inkscape:window-width="1920"
     inkscape:window-height="980"
     inkscape:window-x="0"
     inkscape:window-y="0"
     inkscape:window-maximized="1">
    <inkscape:grid
       type="xygrid"
       id="grid9214"
       empspacing="8" />
  </sodipodi:namedview>
  <metadata
     id="metadata7">
    <rdf:RDF>
      <cc:Work
         rdf:about="">
        <dc:format>image/svg+xml</dc:format>
        <dc:type
           rdf:resource="http://purl.org/dc/dcmitype/StillImage" />
        <dc:title></dc:title>
      </cc:Work>
    </rdf:RDF>
  </metadata>
  <g
     inkscape:label="Layer 1"
     inkscape:groupmode="layer"
     id="layer1"
     transform="translate(0,-1020.3622)">
    <ellipse
       style="fill:#4d4d4b;fill-opacity:1;stroke:#000000;stroke-width:1.00070834;stroke-miterlimit:4;stroke-dasharray:none;stroke-opacity:1"
       id="path3772-7"
       transform="matrix(0.42862657,0.90348174,0.92499906,-0.3799694,0,0)"
       cx="953.83112"
       cy="-433.30356"
       rx="3.2050147"
       ry="1.1933856" />
    <path
       style="fill:#ffffff;fill-opacity:1;stroke:#000000;stroke-width:1;stroke-miterlimit:4;stroke-dasharray:none;stroke-opacity:1"
       d="m 21.870034,1041.8164 a 1.9873446,2.7105336 29.244869 0 0 -0.368213,-3.3547 1.9873446,2.7105336 29.244869 0 0 -3.06356,1.3487 1.9873446,2.7105336 29.244869 0 0 0.368248,3.3545 1.9873446,2.7105336 29.244869 0 0 3.063486,-1.3486 z"
       id="path3796-6"
       inkscape:connector-curvature="0" />
    <path
       style="fill:#ffffff;fill-opacity:1;stroke:#000000;stroke-width:1;stroke-miterlimit:4;stroke-dasharray:none;stroke-opacity:1"
       d="m 19.788034,1042.1656 a 1.1225084,2.0604898 55.140633 0 0 2.330772,-0.2535 1.1225084,2.0604898 55.140633 0 0 1.052617,-2.0991 1.1225084,2.0604898 55.140633 0 0 -2.330772,0.2535 1.1225084,2.0604898 55.140633 0 0 -1.052617,2.0991 z"
       id="path3766-84"
       inkscape:connector-curvature="0" />
    <ellipse
       style="fill:#ffffff;fill-opacity:1;stroke:#000000;stroke-width:1.00000036;stroke-miterlimit:4;stroke-dasharray:none;stroke-opacity:1"
       id="path3768-5"
       transform="matrix(-0.99999422,-0.00340142,-0.00460693,0.99998939,0,0)"
       cx="-19.823137"
       cy="1039.9855"
       rx="5.4024944"
       ry="7.4704957" />
    <ellipse
       style="fill:#ffffff;fill-opacity:1;stroke:#000000;stroke-width:1.00101614;stroke-miterlimit:4;stroke-dasharray:none;stroke-opacity:1"
       id="path3770"
       transform="matrix(-0.74333224,0.6689224,0.62023238,0.78441813,0,0)"
       cx="632.46265"
       cy="774.83038"
       rx="4.0092845"
       ry="3.7706747" />
    <ellipse
       style="fill:#ffffff;fill-opacity:1;stroke:#000000;stroke-width:1.00013208;stroke-miterlimit:4;stroke-dasharray:none;stroke-opacity:1"
       id="path3792-5-0"
       transform="matrix(-0.15508054,-0.98790183,-0.99120477,0.13233708,0,0)"
       cx="-1029.5859"
       cy="154.24132"
       rx="1.4504663"
       ry="3.821861" />
    <ellipse
       style="fill:#ffffff;fill-opacity:1;stroke:#000000;stroke-width:1.00000918;stroke-miterlimit:4;stroke-dasharray:none;stroke-opacity:1"
       id="path3772"
       transform="matrix(0.33898337,0.94079236,0.94283106,-0.33327106,0,0)"
       cx="970.51831"
       cy="-336.37213"
       rx="3.0492117"
       ry="1.4122396" />
    <ellipse
       style="fill:#ffffff;fill-opacity:1;stroke:#000000;stroke-width:1;stroke-miterlimit:4;stroke-dasharray:none;stroke-opacity:1"
       id="path3792-4"
       transform="matrix(0.60493781,0.79627272,0.79627272,-0.60493781,0,0)"
       cx="833.61084"
       cy="-607.7616"
       rx="1.4222223"
       ry="3.8044446" />
    <path
       style="fill:#ffffff;fill-opacity:1;stroke:#000000;stroke-width:0.99999994;stroke-miterlimit:4;stroke-dasharray:none;stroke-opacity:1"
       d="m 13.618099,1047.2689 a 1.9462298,3.2893836 0.996912 0 1 -2.000043,3.2605 1.9462298,3.2893836 0.996912 0 1 -1.8920111,-3.3173 1.9462298,3.2893836 0.996912 0 1 2.0000401,-3.2605 1.9462298,3.2893836 0.996912 0 1 1.892014,3.3173 z"
       id="path3796-7-5"
       inkscape:connector-curvature="0" />
    <path
       style="fill:#ffffff;fill-opacity:1;stroke:#000000;stroke-width:1;stroke-miterlimit:4;stroke-dasharray:none;stroke-opacity:1"
       d="m 13.248053,1049.8185 a 1.1225084,2.0604898 69.065392 0 1 -1.519955,1.7851 1.1225084,2.0604898 69.065392 0 1 -2.3278081,-0.3095 1.1225084,2.0604898 69.065392 0 1 1.5199531,-1.7851 1.1225084,2.0604898 69.065392 0 1 2.32781,0.3095 z"
       id="path3766-8-2"
       inkscape:connector-curvature="0" />
    <circle
       style="fill:#ffffff;fill-opacity:1;stroke:#000000;stroke-width:1;stroke-miterlimit:4;stroke-dasharray:none;stroke-opacity:1"
       id="path3794-4"
       cx="506.58264"
       cy="897.31433"
       r="0.39111111"
       transform="matrix(-0.8660254,0.5,0.5,0.8660254,0,0)" />
    <circle
       style="fill:#ffffff;fill-opacity:1;stroke:#000000;stroke-width:1;stroke-miterlimit:4;stroke-dasharray:none;stroke-opacity:1"
       id="path3794-4-3"
       cx="509.36218"
       cy="896.59033"
       r="0.39111111"
       transform="matrix(-0.8660254,0.5,0.5,0.8660254,0,0)" />
  </g>
</svg>
