<?xml version="1.0" encoding="UTF-8" standalone="no"?>
<!-- Created with Inkscape (http://www.inkscape.org/) -->

<svg
   xmlns:dc="http://purl.org/dc/elements/1.1/"
   xmlns:cc="http://creativecommons.org/ns#"
   xmlns:rdf="http://www.w3.org/1999/02/22-rdf-syntax-ns#"
   xmlns:svg="http://www.w3.org/2000/svg"
   xmlns="http://www.w3.org/2000/svg"
   xmlns:sodipodi="http://sodipodi.sourceforge.net/DTD/sodipodi-0.dtd"
   xmlns:inkscape="http://www.inkscape.org/namespaces/inkscape"
   width="64"
   height="96"
   id="svg2"
   version="1.1"
   inkscape:version="0.48.4 r9939"
   sodipodi:docname="rabbit_bridging_left_10.svg">
  <defs
     id="defs4" />
  <sodipodi:namedview
     id="base"
     pagecolor="#ffffff"
     bordercolor="#666666"
     borderopacity="1.0"
     inkscape:pageopacity="0.0"
     inkscape:pageshadow="2"
     inkscape:zoom="8.8645833"
     inkscape:cx="32"
     inkscape:cy="48"
     inkscape:document-units="px"
     inkscape:current-layer="layer1"
     showgrid="false"
     inkscape:window-width="1920"
     inkscape:window-height="1031"
     inkscape:window-x="0"
     inkscape:window-y="26"
     inkscape:window-maximized="1" />
  <metadata
     id="metadata7">
    <rdf:RDF>
      <cc:Work
         rdf:about="">
        <dc:format>image/svg+xml</dc:format>
        <dc:type
           rdf:resource="http://purl.org/dc/dcmitype/StillImage" />
        <dc:title />
      </cc:Work>
    </rdf:RDF>
  </metadata>
  <g
     inkscape:label="Layer 1"
     inkscape:groupmode="layer"
     id="layer1"
     transform="translate(0,-956.3622)">
    <path
       sodipodi:type="arc"
       style="fill:#ffffff;fill-opacity:1;stroke:#000000;stroke-opacity:1"
       id="path3772-7"
       sodipodi:cx="10.204445"
       sodipodi:cy="7.6088891"
       sodipodi:rx="3.3777778"
       sodipodi:ry="1.6355555"
       d="m 13.582223,7.6088891 a 3.3777778,1.6355555 0 1 1 -6.7555559,0 3.3777778,1.6355555 0 1 1 6.7555559,0 z"
       transform="matrix(-0.29294706,0.83696387,0.71890482,0.34105503,26.85526,982.75879)" />
    <path
       transform="matrix(-1,0,0,1,53.980436,988.28339)"
       sodipodi:type="arc"
       style="fill:#ffffff;fill-opacity:1;stroke:#000000;stroke-opacity:1"
       id="path3766-3"
       sodipodi:cx="17.528889"
       sodipodi:cy="29.475555"
       sodipodi:rx="3.3777778"
       sodipodi:ry="1.1733333"
       d="m 20.906667,29.475555 a 3.3777778,1.1733333 0 1 1 -6.755556,0 3.3777778,1.1733333 0 1 1 6.755556,0 z" />
    <path
       sodipodi:type="arc"
       style="fill:#ffffff;fill-opacity:1;stroke:#000000;stroke-opacity:1"
       id="path3796-1"
       sodipodi:cx="13.795555"
       sodipodi:cy="27.946667"
       sodipodi:rx="3.6977777"
       sodipodi:ry="2.2755556"
       d="m 17.493333,27.946667 a 3.6977777,2.2755556 0 1 1 -7.395556,0 3.6977777,2.2755556 0 1 1 7.395556,0 z"
       transform="matrix(-1,0,0,1,54.93304,989.06889)" />
    <path
       sodipodi:type="arc"
       style="fill:#ffffff;fill-opacity:1;stroke:#000000;stroke-opacity:1"
       id="path3766"
       sodipodi:cx="17.528889"
       sodipodi:cy="29.475555"
       sodipodi:rx="3.3777778"
       sodipodi:ry="1.1733333"
       d="m 20.906667,29.475555 a 3.3777778,1.1733333 0 1 1 -6.755556,0 3.3777778,1.1733333 0 1 1 6.755556,0 z"
       transform="matrix(-1,0,0,1,52.192714,989.45271)" />
    <path
       sodipodi:type="arc"
       style="fill:#ffffff;fill-opacity:1;stroke:#000000;stroke-opacity:1"
       id="path3768"
       sodipodi:cx="13.262222"
       sodipodi:cy="21.297777"
       sodipodi:rx="5.3688889"
       sodipodi:ry="8.6400003"
       d="m 18.631111,21.297777 a 5.3688889,8.6400003 0 1 1 -10.7377776,0 5.3688889,8.6400003 0 1 1 10.7377776,0 z"
       transform="matrix(-0.79422722,0.60762088,0.60762088,0.79422722,32.844346,984.36009)" />
    <path
       sodipodi:type="arc"
       style="fill:#ffffff;fill-opacity:1;stroke:#000000;stroke-opacity:1"
       id="path3770"
       sodipodi:cx="16.782223"
       sodipodi:cy="9.8488894"
       sodipodi:rx="4.8355556"
       sodipodi:ry="3.9466667"
       d="m 21.617778,9.8488894 a 4.8355556,3.9466667 0 1 1 -9.671111,0 4.8355556,3.9466667 0 1 1 9.671111,0 z"
       transform="matrix(-0.87850793,0.17138861,0.14998079,0.94109695,42.292163,987.48779)" />
    <path
       sodipodi:type="arc"
       style="fill:#ffffff;fill-opacity:1;stroke:#000000;stroke-opacity:1"
       id="path3792"
       sodipodi:cx="19.768888"
       sodipodi:cy="22.151112"
       sodipodi:rx="1.4222223"
       sodipodi:ry="3.8044446"
       d="m 21.191111,22.151112 a 1.4222223,3.8044446 0 1 1 -2.844445,0 1.4222223,3.8044446 0 1 1 2.844445,0 z"
       transform="matrix(0.58728161,-0.79516061,-0.86238128,-0.65676307,38.061805,1032.7634)" />
    <path
       sodipodi:type="arc"
       style="fill:#4d4d4b;fill-opacity:1;stroke:#000000;stroke-opacity:1"
       id="path3772"
       sodipodi:cx="10.204445"
       sodipodi:cy="7.6088891"
       sodipodi:rx="3.3777778"
       sodipodi:ry="1.6355555"
       d="m 13.582223,7.6088891 a 3.3777778,1.6355555 0 1 1 -6.7555559,0 3.3777778,1.6355555 0 1 1 6.7555559,0 z"
       transform="matrix(-0.32116071,0.9324153,0.75049865,0.39900826,28.565693,981.72109)" />
    <path
       sodipodi:type="arc"
       style="fill:#ffffff;fill-opacity:1;stroke:#000000;stroke-opacity:1"
       id="path3794"
       sodipodi:cx="20.088888"
       sodipodi:cy="9.7066669"
       sodipodi:rx="0.39111111"
       sodipodi:ry="0.39111111"
       d="m 20.479999,9.7066669 a 0.39111111,0.39111111 0 1 1 -0.782222,0 0.39111111,0.39111111 0 1 1 0.782222,0 z"
       transform="matrix(-1,0,0,1,47.755582,989.45279)" />
    <path
       sodipodi:type="arc"
       style="fill:#ffffff;fill-opacity:1;stroke:#000000;stroke-opacity:1"
       id="path3796"
       sodipodi:cx="13.795555"
       sodipodi:cy="27.946667"
       sodipodi:rx="3.6977777"
       sodipodi:ry="2.2755556"
       d="m 17.493333,27.946667 a 3.6977777,2.2755556 0 1 1 -7.395556,0 3.6977777,2.2755556 0 1 1 7.395556,0 z"
       transform="matrix(-1,0,0,1,54.294378,989.08079)" />
    <rect
       style="fill:#000000;fill-opacity:1;stroke:none"
       id="rect3921"
       width="2.0305524"
       height="11.957697"
       x="587.4978"
       y="809.66858"
       transform="matrix(-0.78569885,0.61860918,0.61860918,0.78569885,0,0)" />
    <rect
       style="fill:#000000;fill-opacity:1;stroke:none"
       id="rect3921-3"
       width="2.0305524"
       height="11.957697"
       x="589.2478"
       y="809.09076"
       transform="matrix(-0.78569885,0.61860918,0.61860918,0.78569885,0,0)" />
    <path
       style="fill:none;stroke:#5a5a58;stroke-width:3;stroke-linecap:butt;stroke-linejoin:miter;stroke-miterlimit:4;stroke-opacity:1;stroke-dasharray:none"
       d="m 34.165964,997.2582 -15.387156,2.288"
       id="path3066-5"
       inkscape:connector-curvature="0"
       sodipodi:nodetypes="cc" />
    <path
       style="fill:none;stroke:#5a5a58;stroke-width:3;stroke-linecap:butt;stroke-linejoin:miter;stroke-miterlimit:4;stroke-opacity:1;stroke-dasharray:none"
       d="m 33,1023.3622 -11.3,-11.3"
       id="path3066"
       inkscape:connector-curvature="0"
       sodipodi:nodetypes="cc" />
  </g>
</svg>
