<?xml version="1.0" encoding="UTF-8" standalone="no"?>
<!-- Created with Inkscape (http://www.inkscape.org/) -->

<svg
   xmlns:dc="http://purl.org/dc/elements/1.1/"
   xmlns:cc="http://creativecommons.org/ns#"
   xmlns:rdf="http://www.w3.org/1999/02/22-rdf-syntax-ns#"
   xmlns:svg="http://www.w3.org/2000/svg"
   xmlns="http://www.w3.org/2000/svg"
   xmlns:sodipodi="http://sodipodi.sourceforge.net/DTD/sodipodi-0.dtd"
   xmlns:inkscape="http://www.inkscape.org/namespaces/inkscape"
   width="96"
   height="96"
   id="svg2"
   version="1.1"
   inkscape:version="0.91 r13725"
   sodipodi:docname="rabbot_explode_03.svg">
  <defs
     id="defs4" />
  <sodipodi:namedview
     id="base"
     pagecolor="#ffffff"
     bordercolor="#666666"
     borderopacity="1.0"
     inkscape:pageopacity="0.0"
     inkscape:pageshadow="2"
     inkscape:zoom="8.8645833"
     inkscape:cx="28.258519"
     inkscape:cy="48"
     inkscape:document-units="px"
     inkscape:current-layer="layer2"
     showgrid="false"
     inkscape:window-width="1920"
     inkscape:window-height="1016"
     inkscape:window-x="0"
     inkscape:window-y="27"
     inkscape:window-maximized="1" />
  <metadata
     id="metadata7">
    <rdf:RDF>
      <cc:Work
         rdf:about="">
        <dc:format>image/svg+xml</dc:format>
        <dc:type
           rdf:resource="http://purl.org/dc/dcmitype/StillImage" />
        <dc:title />
      </cc:Work>
    </rdf:RDF>
  </metadata>
  <g
     inkscape:label="Layer 1"
     inkscape:groupmode="layer"
     id="layer1"
     transform="translate(0,-956.3622)">
    <g
       id="g4308"
       transform="matrix(0.83204671,0.55470557,-0.55470557,0.83204671,575.00306,142.65218)"
       style="opacity:0.9;fill:#ff0000">
      <path
         d="m 20.906667,29.475555 a 3.3777778,1.1733333 0 0 1 -3.377778,1.173334 3.3777778,1.1733333 0 0 1 -3.377778,-1.173334 3.3777778,1.1733333 0 0 1 3.377778,-1.173333 3.3777778,1.1733333 0 0 1 3.377778,1.173333 z"
         sodipodi:ry="1.1733333"
         sodipodi:rx="3.3777778"
         sodipodi:cy="29.475555"
         sodipodi:cx="17.528889"
         id="path3766-3"
         style="fill:#ff0000;fill-opacity:1;stroke:#000000;stroke-opacity:1"
         sodipodi:type="arc"
         transform="matrix(0.50825872,0.03805256,-0.09563704,1.1025448,44.724407,985.73882)" />
      <path
         transform="matrix(0.43753699,-0.0096245,0.02351804,1.0691489,44.148558,986.07253)"
         d="m 17.493333,27.946667 a 3.6977777,2.2755556 0 0 1 -3.697778,2.275555 3.6977777,2.2755556 0 0 1 -3.697778,-2.275555 3.6977777,2.2755556 0 0 1 3.697778,-2.275556 3.6977777,2.2755556 0 0 1 3.697778,2.275556 z"
         sodipodi:ry="2.2755556"
         sodipodi:rx="3.6977777"
         sodipodi:cy="27.946667"
         sodipodi:cx="13.795555"
         id="path3796-0"
         style="fill:#ff0000;fill-opacity:1;stroke:#000000;stroke-opacity:1"
         sodipodi:type="arc" />
    </g>
    <path
       sodipodi:type="arc"
       style="fill:#ff0000;fill-opacity:1;stroke:#000000;stroke-opacity:1;opacity:0.9"
       id="path3792-5"
       sodipodi:cx="19.768888"
       sodipodi:cy="22.151112"
       sodipodi:rx="1.4222223"
       sodipodi:ry="3.8044446"
       d="m 21.191111,22.151112 a 1.4222223,3.8044446 0 0 1 -1.422223,3.804444 1.4222223,3.8044446 0 0 1 -1.422222,-3.804444 1.4222223,3.8044446 0 0 1 1.422222,-3.804445 1.4222223,3.8044446 0 0 1 1.422223,3.804445 z"
       transform="matrix(-0.27427367,-0.96165167,0.96165167,-0.27427367,41.035796,1030.5376)" />
    <path
       sodipodi:type="arc"
       style="fill:#ff0000;fill-opacity:1;stroke:#000000;stroke-opacity:1;opacity:0.9"
       id="path3792"
       sodipodi:cx="19.768888"
       sodipodi:cy="22.151112"
       sodipodi:rx="1.4222223"
       sodipodi:ry="3.8044446"
       d="m 21.191111,22.151112 a 1.4222223,3.8044446 0 0 1 -1.422223,3.804444 1.4222223,3.8044446 0 0 1 -1.422222,-3.804444 1.4222223,3.8044446 0 0 1 1.422222,-3.804445 1.4222223,3.8044446 0 0 1 1.422223,3.804445 z"
       transform="matrix(-0.47773159,0.87850587,-0.87850587,-0.47773159,65.823463,996.66733)" />
    <path
       sodipodi:type="arc"
       style="fill:#ff0000;fill-opacity:1;stroke:#000000;stroke-opacity:1;opacity:0.9"
       id="path3772"
       sodipodi:cx="10.204445"
       sodipodi:cy="7.6088891"
       sodipodi:rx="3.3777778"
       sodipodi:ry="1.6355555"
       d="M 13.582223,7.6088891 A 3.3777778,1.6355555 0 0 1 10.204445,9.2444446 3.3777778,1.6355555 0 0 1 6.8266671,7.6088891 3.3777778,1.6355555 0 0 1 10.204445,5.9733336 3.3777778,1.6355555 0 0 1 13.582223,7.6088891 Z"
       transform="matrix(0.62167075,0.52428723,-0.72358325,0.71690504,38.464729,982.25271)" />
    <path
       sodipodi:type="arc"
       style="fill:#000000;fill-opacity:1;stroke:#000000;stroke-opacity:1;opacity:0.9"
       id="path3772-7"
       sodipodi:cx="10.204445"
       sodipodi:cy="7.6088891"
       sodipodi:rx="3.3777778"
       sodipodi:ry="1.6355555"
       d="M 13.582223,7.6088891 A 3.3777778,1.6355555 0 0 1 10.204445,9.2444446 3.3777778,1.6355555 0 0 1 6.8266671,7.6088891 3.3777778,1.6355555 0 0 1 10.204445,5.9733336 3.3777778,1.6355555 0 0 1 13.582223,7.6088891 Z"
       transform="matrix(-0.53987991,0.64370155,-0.71302547,-0.5450093,62.354214,989.8939)" />
    <g
       id="g4312"
       transform="matrix(0.87205213,-0.48941299,0.48941299,0.87205213,-494.84506,150.84195)"
       style="opacity:0.9;fill:#ff0000">
      <path
         transform="matrix(0.49816262,0.01101159,-0.0259843,0.98356126,33.573584,989.84933)"
         d="m 20.906667,29.475555 a 3.3777778,1.1733333 0 0 1 -3.377778,1.173334 3.3777778,1.1733333 0 0 1 -3.377778,-1.173334 3.3777778,1.1733333 0 0 1 3.377778,-1.173333 3.3777778,1.1733333 0 0 1 3.377778,1.173333 z"
         sodipodi:ry="1.1733333"
         sodipodi:rx="3.3777778"
         sodipodi:cy="29.475555"
         sodipodi:cx="17.528889"
         id="path3766"
         style="fill:#ff0000;fill-opacity:1;stroke:#000000;stroke-opacity:1"
         sodipodi:type="arc" />
      <path
         transform="matrix(0.39355872,-0.00844164,0.02458259,1.1460676,35.437939,984.17466)"
         d="m 17.493333,27.946667 a 3.6977777,2.2755556 0 0 1 -3.697778,2.275555 3.6977777,2.2755556 0 0 1 -3.697778,-2.275555 3.6977777,2.2755556 0 0 1 3.697778,-2.275556 3.6977777,2.2755556 0 0 1 3.697778,2.275556 z"
         sodipodi:ry="2.2755556"
         sodipodi:rx="3.6977777"
         sodipodi:cy="27.946667"
         sodipodi:cx="13.795555"
         id="path3796"
         style="fill:#ff0000;fill-opacity:1;stroke:#000000;stroke-opacity:1"
         sodipodi:type="arc" />
    </g>
    <g
       id="g4303"
       transform="matrix(0.97284886,-0.23144136,0.23144136,0.97284886,-231.54529,35.581435)"
       style="opacity:0.9;fill:#ff0000">
      <path
         transform="matrix(0.77053203,0.12335422,-0.06851811,0.95498434,34.228385,987.9455)"
         d="M 21.617778,9.8488894 A 4.8355556,3.9466667 0 0 1 16.782223,13.795556 4.8355556,3.9466667 0 0 1 11.946667,9.8488894 4.8355556,3.9466667 0 0 1 16.782223,5.9022226 4.8355556,3.9466667 0 0 1 21.617778,9.8488894 Z"
         sodipodi:ry="3.9466667"
         sodipodi:rx="4.8355556"
         sodipodi:cy="9.8488894"
         sodipodi:cx="16.782223"
         id="path3770"
         style="fill:#ff0000;fill-opacity:1;stroke:#000000;stroke-opacity:1"
         sodipodi:type="arc" />
      <path
         transform="matrix(1.1870228,-0.07665294,0.07665294,1.1870228,20.141619,989.3872)"
         d="M 20.479999,9.7066669 A 0.39111111,0.39111111 0 0 1 20.088888,10.097778 0.39111111,0.39111111 0 0 1 19.697777,9.7066669 0.39111111,0.39111111 0 0 1 20.088888,9.3155558 0.39111111,0.39111111 0 0 1 20.479999,9.7066669 Z"
         sodipodi:ry="0.39111111"
         sodipodi:rx="0.39111111"
         sodipodi:cy="9.7066669"
         sodipodi:cx="20.088888"
         id="path3794"
         style="fill:#ff0000;fill-opacity:1;stroke:#000000;stroke-opacity:1"
         sodipodi:type="arc" />
      <path
         transform="matrix(1.2974769,-0.0837856,0.06987435,1.0820517,21.285742,990.4248)"
         d="M 20.479999,9.7066669 A 0.39111111,0.39111111 0 0 1 20.088888,10.097778 0.39111111,0.39111111 0 0 1 19.697777,9.7066669 0.39111111,0.39111111 0 0 1 20.088888,9.3155558 0.39111111,0.39111111 0 0 1 20.479999,9.7066669 Z"
         sodipodi:ry="0.39111111"
         sodipodi:rx="0.39111111"
         sodipodi:cy="9.7066669"
         sodipodi:cx="20.088888"
         id="path3794-0"
         style="fill:#ff0000;fill-opacity:1;stroke:#000000;stroke-opacity:1"
         sodipodi:type="arc" />
    </g>
  </g>
  <g
     inkscape:groupmode="layer"
     id="layer2"
     inkscape:label="Layer"
     style="display:inline">
    <ellipse
       style="opacity:0.5;fill:#c9250f;fill-opacity:0.77238805;stroke:#000000;stroke-width:1.62371719;stroke-miterlimit:4;stroke-dasharray:none;stroke-opacity:1"
       id="path4118-6"
       transform="matrix(0.9997689,0.02149752,-0.01087013,0.99994092,0,0)"
       cx="45.573635"
       cy="45.356831"
       rx="17.127262"
       ry="13.448325" />
    <path
       sodipodi:type="arc"
       style="opacity:0.5;fill:#97250b;fill-opacity:0.88014981;stroke:#000000;stroke-opacity:1"
       id="path4118"
       sodipodi:cx="31.586369"
       sodipodi:cy="41.372501"
       sodipodi:rx="7.7273793"
       sodipodi:ry="4.3149238"
       d="m 39.313748,41.372501 a 7.7273793,4.3149238 0 1 1 -15.454759,0 7.7273793,4.3149238 0 1 1 15.454759,0 z"
       transform="matrix(0.7395092,0.67314645,-0.67314645,0.7395092,62.582999,-19.45616)" />
    <path
       sodipodi:type="arc"
       style="opacity:0.5;fill:#97250b;fill-opacity:0.88014981;stroke:#000000;stroke-width:0.81216758;stroke-miterlimit:4;stroke-opacity:1;stroke-dasharray:none"
       id="path4118-2"
       sodipodi:cx="31.586369"
       sodipodi:cy="41.372501"
       sodipodi:rx="7.7273793"
       sodipodi:ry="4.3149238"
       d="m 39.313748,41.372501 a 7.7273793,4.3149238 0 1 1 -15.454759,0 7.7273793,4.3149238 0 1 1 15.454759,0 z"
       transform="matrix(-1.3276159,0.2538233,-0.3113266,-1.0823998,114.31361,95.0542)" />
    <path
       sodipodi:type="arc"
       style="opacity:0.5;fill:#97250b;fill-opacity:0.88014981;stroke:#000000;stroke-width:0.88695198;stroke-miterlimit:4;stroke-opacity:1;stroke-dasharray:none"
       id="path4118-2-5"
       sodipodi:cx="31.586369"
       sodipodi:cy="41.372501"
       sodipodi:rx="7.7273793"
       sodipodi:ry="4.3149238"
       d="m 39.313748,41.372501 a 7.7273793,4.3149238 0 1 1 -15.454759,0 7.7273793,4.3149238 0 1 1 15.454759,0 z"
       transform="matrix(-1.2490592,-0.24365777,0.31849604,-0.95556288,55.893339,105.9958)" />
    <path
       sodipodi:type="arc"
       style="opacity:0.5;fill:#97250b;fill-opacity:0.88014981;stroke:#000000;stroke-opacity:1"
       id="path4118-2-5-8"
       sodipodi:cx="31.586369"
       sodipodi:cy="41.372501"
       sodipodi:rx="7.7273793"
       sodipodi:ry="4.3149238"
       d="m 39.313748,41.372501 a 7.7273793,4.3149238 0 1 1 -15.454759,0 7.7273793,4.3149238 0 1 1 15.454759,0 z"
       transform="matrix(-0.72189771,0.69199979,-0.69199979,-0.72189771,84.154128,40.152)" />
    <path
       sodipodi:type="arc"
       style="opacity:0.5;fill:#97250b;fill-opacity:0.88014981;stroke:#000000;stroke-opacity:1"
       id="path4118-9"
       sodipodi:cx="31.586369"
       sodipodi:cy="41.372501"
       sodipodi:rx="7.7273793"
       sodipodi:ry="4.3149238"
       d="m 39.313748,41.372501 a 7.7273793,4.3149238 0 1 1 -15.454759,0 7.7273793,4.3149238 0 1 1 15.454759,0 z"
       transform="matrix(0.11023751,1.2701492,-0.98094229,0.1034548,102.98497,-0.36066)" />
    <path
       sodipodi:type="arc"
       style="opacity:0.5;fill:#97250b;fill-opacity:0.88014981;stroke:#000000;stroke-opacity:1"
       id="path4118-9-7"
       sodipodi:cx="31.586369"
       sodipodi:cy="41.372501"
       sodipodi:rx="7.7273793"
       sodipodi:ry="4.3149238"
       d="m 39.313748,41.372501 a 7.7273793,4.3149238 0 1 1 -15.454759,0 7.7273793,4.3149238 0 1 1 15.454759,0 z"
       transform="matrix(-0.10583371,1.2937063,0.97996901,0.11100992,-12.225689,-0.49583)" />
    <path
       sodipodi:type="arc"
       style="opacity:0.5;fill:#97250b;fill-opacity:0.88014981;stroke:#000000;stroke-opacity:1"
       id="path4118-9-7-6"
       sodipodi:cx="31.586369"
       sodipodi:cy="41.372501"
       sodipodi:rx="7.7273793"
       sodipodi:ry="4.3149238"
       d="m 39.313748,41.372501 a 7.7273793,4.3149238 0 1 1 -15.454759,0 7.7273793,4.3149238 0 1 1 15.454759,0 z"
       transform="matrix(-1.1219083,0.03074977,0.07348669,0.9918814,77.366128,-12.59204)" />
    <path
       style="opacity:0.75;fill:#ff5810;fill-opacity:1;stroke:#000000;stroke-width:1px;stroke-linecap:butt;stroke-linejoin:miter;stroke-opacity:1"
       d="m 39.316907,43.775852 c 1.392329,-4.887416 -2.045349,-11.670736 3.446754,-14.590261 3.944133,1.69566 2.678208,8.198223 3.60069,12.408857 4.681689,-3.77782 6.229958,-7.432256 12.323443,-7.445286 0.875684,3.099019 -3.066932,9.201904 -6.210561,14.980465 5.971008,2.424064 11.863944,3.144639 11.280772,6.611413 -1.767767,3.517241 -5.097058,2.060403 -12.038411,0.699692 0.891606,3.248924 2.590268,4.427623 0.493978,7.047517 -2.626951,0.267292 -5.796915,-2.207343 -8.119124,-3.768507 -2.188833,1.086359 -4.959093,3.98865 -7.911869,3.699911 -2.369422,-1.778342 1.044425,-4.61553 1.050455,-6.690804 -3.807411,0.329913 -7.456516,3.034399 -11.423986,0.963425 0.512723,-5.013801 7.253679,-5.356427 10.910254,-8.012339 -4.080346,-2.789495 -10.746641,-5.122646 -12.177072,-8.379773 4.755169,-1.550903 9.849726,1.649642 14.774677,2.47569 z"
       id="path4246"
       inkscape:connector-curvature="0"
       sodipodi:nodetypes="ccccccccccccccc" />
    <path
       style="opacity:0.75;fill:#ffb50f;fill-opacity:1;stroke:#000000;stroke-width:1px;stroke-linecap:butt;stroke-linejoin:miter;stroke-opacity:1"
       d="m 43.050235,37.775778 4.829318,9.144977 12.047445,1.544213 -12.420902,4.951307 -3.385723,7.814189 -3.554935,-7.896519 -12.581008,-3.934489 12.016965,-2.303393 z"
       id="path4266"
       inkscape:connector-curvature="0"
       sodipodi:nodetypes="ccccccccc" />
    <ellipse
       style="opacity:0.5;fill:#97250b;fill-opacity:0.88014981;stroke:#000000;stroke-width:0.95987177;stroke-opacity:1"
       id="path4118-9-7-6-6"
       transform="matrix(-0.99980074,0.01996196,0.10118331,0.9948678,0,0)"
       cx="-39.522285"
       cy="61.400185"
       rx="9.2197161"
       ry="3.3320708" />
    <path
       style="display:inline;opacity:0.65503875;fill:#000000;fill-opacity:1;fill-rule:nonzero;stroke:#000000;stroke-width:0.01483715px;stroke-linecap:butt;stroke-linejoin:miter;stroke-opacity:1"
       d="m 54.117633,42.796731 -0.417557,-0.135014 -0.511942,-0.121015 0.03327,0.360437 -0.605606,0.0462 -0.127522,-0.307546 -0.640092,0.183675 0.169552,0.308244 -0.495794,0.346069 -0.255111,-0.23266 -0.410986,0.576893 0.281458,0.110607 -0.121014,0.518875 -0.38373,-0.0044 -0.05257,0.550922 0.409455,-0.04127 0.135628,0.483833 -0.410079,0.117672 0.374028,0.479213 0.239431,-0.158011 0.400284,0.395457 -0.264936,0.203276 0.587922,0.290259 0.205292,-0.249951 0.537039,0.151761 -0.01759,0.298152 0.682307,0.0083 -0.04193,-0.306917 0.469788,-0.185511 0.170209,0.308055 0.529372,-0.292243 -0.152778,-0.185477 0.333189,-0.363526 0.281272,0.187206 0.223128,-0.472284 -0.230296,-0.08701 0.154593,-0.465047 0.324239,0.07281 -0.03311,-0.51325 -0.332469,-0.01909 -0.02469,-0.375655 0.307559,-0.08825 -0.204038,-0.438685 -0.230544,0.104102 -0.238087,-0.301009 0.205322,-0.173739 -0.374934,-0.28791 -0.239527,0.196314 -0.366112,-0.226325 0.128713,-0.266579 z m -0.634654,1.269162 c 0.407142,0.187727 0.571319,0.634577 0.366627,0.99787 -0.204692,0.363294 -0.700641,0.50528 -1.107783,0.317554 -0.407142,-0.187728 -0.571538,-0.634189 -0.366845,-0.997482 0.204691,-0.363293 0.700859,-0.505669 1.108001,-0.317942 z"
       id="path3838-3"
       inkscape:connector-curvature="0" />
    <path
       style="display:inline;opacity:0.65503875;fill:#000000;fill-opacity:1;fill-rule:nonzero;stroke:#000000;stroke-width:0.03474738px;stroke-linecap:butt;stroke-linejoin:miter;stroke-opacity:1"
       d="m 36.310352,36.752777 -0.972925,0.127046 -1.143408,0.25409 0.465833,0.762272 -1.142321,0.718836 -0.592875,-0.549443 -1.057624,1.057622 0.676488,0.508181 -0.592879,1.269366 -0.761185,-0.25409 -0.169393,1.692848 0.677574,-0.04235 0.337701,1.269367 -0.761185,0.381136 0.508181,1.27045 0.761186,-0.508182 0.804617,0.93058 -0.677573,0.677575 1.269365,0.677573 0.296439,-0.592876 1.228104,0.46583 -0.296439,0.718837 1.481106,0.04235 0.127046,-0.761186 1.227017,-0.211742 0.296437,0.676489 1.354064,-0.676489 -0.423485,-0.635224 0.719923,-0.888231 0.677575,0.507095 0.718834,-1.18467 -0.507095,-0.25409 0.253004,-1.142319 0.762272,0.127046 -0.0847,-1.270454 -0.55053,0.04235 -0.211742,-1.184668 0.719923,-0.169393 -0.635228,-1.099972 -0.676486,0.296439 -0.465832,-0.80462 0.508181,-0.508178 -0.889316,-0.761186 -0.338788,0.464747 -0.803534,-0.422398 0.211742,-0.592878 -1.058707,-0.254091 -0.254091,0.677576 -0.972928,-0.127046 -0.04235,-0.719923 z m 0.158535,3.449765 c 1.010934,0 1.830752,0.819818 1.830752,1.830751 0,1.010934 -0.819818,1.829669 -1.830752,1.829669 -1.010935,0 -1.830753,-0.818735 -1.830753,-1.829669 0,-1.010933 0.819818,-1.830751 1.830753,-1.830751 z"
       id="path3838-3-3"
       inkscape:connector-curvature="0" />
    <path
       style="display:inline;opacity:0.65503875;fill:none;stroke:#000000;stroke-width:1px;stroke-linecap:butt;stroke-linejoin:miter;stroke-opacity:1"
       d="m 31.791454,44.56541 -2.460925,1.64678 -0.50947,1.085564 0.420202,1.052963 1.50434,0.741179 1.066419,-1.597879 1.7658,-0.390443 0.359274,1.657388 -1.670855,1.536946 -0.804948,0.466256 -0.230293,1.240037 1.179104,0.834713 1.734631,-0.49886 0.524343,-1.441986 c 0,0 2.186012,0.662519 1.7063,1.03524 -0.479721,0.372723 -1.299551,1.195401 -1.299551,1.195401 l -1.05152,1.241473 -1.595036,0.576095 0.139596,0.07723"
       id="path3040"
       inkscape:connector-curvature="0"
       inkscape:transform-center-x="0.65133709"
       inkscape:transform-center-y="0.55306032" />
    <path
       style="display:inline;opacity:0.65503875;fill:none;stroke:#000000;stroke-width:1px;stroke-linecap:butt;stroke-linejoin:miter;stroke-opacity:1"
       d="m 41.781533,48.679456 0.382644,2.936259 0.746406,0.938557 1.130044,0.0911 1.332134,-1.018725 -0.958102,-1.665085 0.434326,-1.755522 1.644545,0.414109 0.635089,2.179592 0.0603,0.928279 1.008789,0.757015 1.271508,-0.685782 0.323344,-1.775741 -1.05915,-1.110161 c 0,0 1.564373,-1.664427 1.685296,-1.069093 0.12092,0.595343 0.493959,1.695234 0.493959,1.695234 l 0.645363,1.493471 -0.192152,1.684965 0.131193,-0.09078"
       id="path3040-6"
       inkscape:connector-curvature="0" />
  </g>
</svg>
