<?xml version="1.0" encoding="UTF-8" standalone="no"?>
<!-- Created with Inkscape (http://www.inkscape.org/) -->

<svg
   xmlns:dc="http://purl.org/dc/elements/1.1/"
   xmlns:cc="http://creativecommons.org/ns#"
   xmlns:rdf="http://www.w3.org/1999/02/22-rdf-syntax-ns#"
   xmlns:svg="http://www.w3.org/2000/svg"
   xmlns="http://www.w3.org/2000/svg"
   xmlns:sodipodi="http://sodipodi.sourceforge.net/DTD/sodipodi-0.dtd"
   xmlns:inkscape="http://www.inkscape.org/namespaces/inkscape"
   width="32"
   height="32"
   id="svg2"
   version="1.1"
   inkscape:version="0.91 r13725"
   sodipodi:docname="rabbit_block_rise_right_07.svg">
  <defs
     id="defs4" />
  <sodipodi:namedview
     id="base"
     pagecolor="#ffffff"
     bordercolor="#666666"
     borderopacity="1.0"
     inkscape:pageopacity="0.0"
     inkscape:pageshadow="2"
     inkscape:zoom="18.804621"
     inkscape:cx="6.759309"
     inkscape:cy="15.61105"
     inkscape:document-units="px"
     inkscape:current-layer="layer1"
     showgrid="true"
     inkscape:window-width="1920"
     inkscape:window-height="980"
     inkscape:window-x="0"
     inkscape:window-y="0"
     inkscape:window-maximized="1">
    <inkscape:grid
       type="xygrid"
       id="grid9212"
       empspacing="8" />
  </sodipodi:namedview>
  <metadata
     id="metadata7">
    <rdf:RDF>
      <cc:Work
         rdf:about="">
        <dc:format>image/svg+xml</dc:format>
        <dc:type
           rdf:resource="http://purl.org/dc/dcmitype/StillImage" />
        <dc:title />
      </cc:Work>
    </rdf:RDF>
  </metadata>
  <g
     inkscape:label="Layer 1"
     inkscape:groupmode="layer"
     id="layer1"
     transform="translate(0,-1020.3622)">
    <ellipse
       style="fill:#4d4d4b;fill-opacity:1;stroke:#000000;stroke-width:1.00033939;stroke-miterlimit:4;stroke-dasharray:none;stroke-opacity:1"
       id="path3772-7"
       transform="matrix(0.43457715,0.90063461,0.91602945,-0.40111101,0,0)"
       cx="944.00989"
       cy="-438.55322"
       rx="3.2268155"
       ry="1.1002755" />
    <path
       style="fill:#ffffff;fill-opacity:1;stroke:#000000;stroke-width:1;stroke-miterlimit:4;stroke-dasharray:none;stroke-opacity:1"
       d="m 21.792676,1041.8076 a 1.9873446,2.7105336 29.244869 0 0 -0.368213,-3.3547 1.9873446,2.7105336 29.244869 0 0 -3.063561,1.3487 1.9873446,2.7105336 29.244869 0 0 0.368249,3.3545 1.9873446,2.7105336 29.244869 0 0 3.063486,-1.3486 z"
       id="path3796-6"
       inkscape:connector-curvature="0" />
    <path
       style="fill:#ffffff;fill-opacity:1;stroke:#000000;stroke-width:1;stroke-miterlimit:4;stroke-dasharray:none;stroke-opacity:1"
       d="m 19.710676,1042.1568 a 1.1225084,2.0604898 55.140633 0 0 2.330771,-0.2535 1.1225084,2.0604898 55.140633 0 0 1.052617,-2.0991 1.1225084,2.0604898 55.140633 0 0 -2.330771,0.2535 1.1225084,2.0604898 55.140633 0 0 -1.052617,2.0991 z"
       id="path3766-84"
       inkscape:connector-curvature="0" />
    <ellipse
       style="fill:#ffffff;fill-opacity:1;stroke:#000000;stroke-width:1.00000036;stroke-miterlimit:4;stroke-dasharray:none;stroke-opacity:1"
       id="path3768-5"
       transform="matrix(-0.99999422,-0.00340142,-0.00460693,0.99998939,0,0)"
       cx="-19.745737"
       cy="1039.9768"
       rx="5.4024944"
       ry="7.4704957" />
    <ellipse
       style="fill:#ffffff;fill-opacity:1;stroke:#000000;stroke-width:1.00125456;stroke-miterlimit:4;stroke-dasharray:none;stroke-opacity:1"
       id="path3770"
       transform="matrix(-0.74053326,0.67201972,0.61796148,0.78620837,0,0)"
       cx="630.32678"
       cy="772.28802"
       rx="3.9361408"
       ry="3.7730751" />
    <ellipse
       style="fill:#ffffff;fill-opacity:1;stroke:#000000;stroke-width:1.00013208;stroke-miterlimit:4;stroke-dasharray:none;stroke-opacity:1"
       id="path3792-5-0"
       transform="matrix(-0.15508054,-0.98790183,-0.99120477,0.13233708,0,0)"
       cx="-1029.567"
       cy="154.31639"
       rx="1.4504663"
       ry="3.821861" />
    <ellipse
       style="fill:#ffffff;fill-opacity:1;stroke:#000000;stroke-width:1;stroke-miterlimit:4;stroke-dasharray:none;stroke-opacity:1"
       id="path3792-4"
       transform="matrix(0.60493781,0.79627272,0.79627272,-0.60493781,0,0)"
       cx="833.55707"
       cy="-607.81775"
       rx="1.4222223"
       ry="3.8044446" />
    <path
       style="fill:#ffffff;fill-opacity:1;stroke:#000000;stroke-width:0.99999994;stroke-miterlimit:4;stroke-dasharray:none;stroke-opacity:1"
       d="m 13.54074,1047.2601 a 1.9462298,3.2893836 0.996912 0 1 -2.000043,3.2605 1.9462298,3.2893836 0.996912 0 1 -1.8920109,-3.3173 1.9462298,3.2893836 0.996912 0 1 2.0000399,-3.2605 1.9462298,3.2893836 0.996912 0 1 1.892014,3.3173 z"
       id="path3796-7-5"
       inkscape:connector-curvature="0" />
    <path
       style="fill:#ffffff;fill-opacity:1;stroke:#000000;stroke-width:1;stroke-miterlimit:4;stroke-dasharray:none;stroke-opacity:1"
       d="m 13.170694,1049.8097 a 1.1225084,2.0604898 69.065392 0 1 -1.519955,1.7851 1.1225084,2.0604898 69.065392 0 1 -2.3278079,-0.3095 1.1225084,2.0604898 69.065392 0 1 1.5199529,-1.7851 1.1225084,2.0604898 69.065392 0 1 2.32781,0.3095 z"
       id="path3766-8-2"
       inkscape:connector-curvature="0" />
    <ellipse
       style="fill:#ffffff;fill-opacity:1;stroke:#000000;stroke-width:1.00062203;stroke-miterlimit:4;stroke-dasharray:none;stroke-opacity:1"
       id="path3772"
       transform="matrix(0.35799734,0.93372261,0.95040491,-0.31101529,0,0)"
       cx="979.19012"
       cy="-357.0863"
       rx="3.0621936"
       ry="1.2637025" />
    <circle
       transform="matrix(-0.8660254,0.5,0.5,0.8660254,0,0)"
       style="fill:#ffffff;fill-opacity:1;stroke:#000000;stroke-width:1;stroke-miterlimit:4;stroke-dasharray:none;stroke-opacity:1"
       id="path3794-4"
       cx="506.65305"
       cy="897.4834"
       r="0.39111111" />
    <circle
       transform="matrix(-0.8660254,0.5,0.5,0.8660254,0,0)"
       style="fill:#ffffff;fill-opacity:1;stroke:#000000;stroke-width:1;stroke-miterlimit:4;stroke-dasharray:none;stroke-opacity:1"
       id="path3794-4-8"
       cx="509.31705"
       cy="896.49994"
       r="0.39111111" />
  </g>
</svg>
