<?xml version="1.0" encoding="UTF-8" standalone="no"?>
<!-- Created with Inkscape (http://www.inkscape.org/) -->

<svg
   xmlns:dc="http://purl.org/dc/elements/1.1/"
   xmlns:cc="http://creativecommons.org/ns#"
   xmlns:rdf="http://www.w3.org/1999/02/22-rdf-syntax-ns#"
   xmlns:svg="http://www.w3.org/2000/svg"
   xmlns="http://www.w3.org/2000/svg"
   xmlns:sodipodi="http://sodipodi.sourceforge.net/DTD/sodipodi-0.dtd"
   xmlns:inkscape="http://www.inkscape.org/namespaces/inkscape"
   width="96"
   height="96"
   id="svg2"
   version="1.1"
   inkscape:version="0.91 r13725"
   sodipodi:docname="rabbot_explode_08.svg">
  <defs
     id="defs4" />
  <sodipodi:namedview
     id="base"
     pagecolor="#ffffff"
     bordercolor="#666666"
     borderopacity="1.0"
     inkscape:pageopacity="0.0"
     inkscape:pageshadow="2"
     inkscape:zoom="8.8645833"
     inkscape:cx="28.258519"
     inkscape:cy="48"
     inkscape:document-units="px"
     inkscape:current-layer="layer1"
     showgrid="false"
     inkscape:window-width="1920"
     inkscape:window-height="1016"
     inkscape:window-x="0"
     inkscape:window-y="27"
     inkscape:window-maximized="1" />
  <metadata
     id="metadata7">
    <rdf:RDF>
      <cc:Work
         rdf:about="">
        <dc:format>image/svg+xml</dc:format>
        <dc:type
           rdf:resource="http://purl.org/dc/dcmitype/StillImage" />
        <dc:title />
      </cc:Work>
    </rdf:RDF>
  </metadata>
  <g
     inkscape:label="Layer 1"
     inkscape:groupmode="layer"
     id="layer1"
     transform="translate(0,-956.3622)">
    <g
       id="g4308"
       transform="matrix(-0.50784354,0.86144932,-0.86144932,-0.50784354,959.42739,1488.8118)"
       style="opacity:0.2;fill:#ff0000">
      <path
         d="m 20.906667,29.475555 a 3.3777778,1.1733333 0 0 1 -3.377778,1.173334 3.3777778,1.1733333 0 0 1 -3.377778,-1.173334 3.3777778,1.1733333 0 0 1 3.377778,-1.173333 3.3777778,1.1733333 0 0 1 3.377778,1.173333 z"
         sodipodi:ry="1.1733333"
         sodipodi:rx="3.3777778"
         sodipodi:cy="29.475555"
         sodipodi:cx="17.528889"
         id="path3766-3"
         style="fill:#ff0000;fill-opacity:1;stroke:#000000;stroke-opacity:1"
         sodipodi:type="arc"
         transform="matrix(0.50825872,0.03805256,-0.09563704,1.1025448,44.724407,985.73882)" />
      <path
         transform="matrix(0.43753699,-0.0096245,0.02351804,1.0691489,44.148558,986.07253)"
         d="m 17.493333,27.946667 a 3.6977777,2.2755556 0 0 1 -3.697778,2.275555 3.6977777,2.2755556 0 0 1 -3.697778,-2.275555 3.6977777,2.2755556 0 0 1 3.697778,-2.275556 3.6977777,2.2755556 0 0 1 3.697778,2.275556 z"
         sodipodi:ry="2.2755556"
         sodipodi:rx="3.6977777"
         sodipodi:cy="27.946667"
         sodipodi:cx="13.795555"
         id="path3796-0"
         style="fill:#ff0000;fill-opacity:1;stroke:#000000;stroke-opacity:1"
         sodipodi:type="arc" />
    </g>
    <path
       sodipodi:type="arc"
       style="opacity:0.2;fill:#ff0000;fill-opacity:1;stroke:#000000;stroke-opacity:1"
       id="path3792-5"
       sodipodi:cx="19.768888"
       sodipodi:cy="22.151112"
       sodipodi:rx="1.4222223"
       sodipodi:ry="3.8044446"
       d="m 21.191111,22.151112 a 1.4222223,3.8044446 0 0 1 -1.422223,3.804444 1.4222223,3.8044446 0 0 1 -1.422222,-3.804444 1.4222223,3.8044446 0 0 1 1.422222,-3.804445 1.4222223,3.8044446 0 0 1 1.422223,3.804445 z"
       transform="matrix(-0.05995467,-0.99820108,0.99820108,-0.05995467,44.474619,1038.3569)" />
    <path
       sodipodi:type="arc"
       style="opacity:0.2;fill:#ff0000;fill-opacity:1;stroke:#000000;stroke-opacity:1"
       id="path3792"
       sodipodi:cx="19.768888"
       sodipodi:cy="22.151112"
       sodipodi:rx="1.4222223"
       sodipodi:ry="3.8044446"
       d="m 21.191111,22.151112 a 1.4222223,3.8044446 0 0 1 -1.422223,3.804444 1.4222223,3.8044446 0 0 1 -1.422222,-3.804444 1.4222223,3.8044446 0 0 1 1.422222,-3.804445 1.4222223,3.8044446 0 0 1 1.422223,3.804445 z"
       transform="matrix(0.90439743,0.42669114,-0.42669114,0.90439743,16.824849,983.64557)" />
    <path
       sodipodi:type="arc"
       style="opacity:0.2;fill:#ff0000;fill-opacity:1;stroke:#000000;stroke-opacity:1"
       id="path3772"
       sodipodi:cx="10.204445"
       sodipodi:cy="7.6088891"
       sodipodi:rx="3.3777778"
       sodipodi:ry="1.6355555"
       d="M 13.582223,7.6088891 A 3.3777778,1.6355555 0 0 1 10.204445,9.2444446 3.3777778,1.6355555 0 0 1 6.8266671,7.6088891 3.3777778,1.6355555 0 0 1 10.204445,5.9733336 3.3777778,1.6355555 0 0 1 13.582223,7.6088891 Z"
       transform="matrix(0.47047257,-0.66333037,0.77489462,0.66110808,13.226298,1004.3422)" />
    <path
       sodipodi:type="arc"
       style="opacity:0.2;fill:#000000;fill-opacity:1;stroke:#000000;stroke-opacity:1"
       id="path3772-7"
       sodipodi:cx="10.204445"
       sodipodi:cy="7.6088891"
       sodipodi:rx="3.3777778"
       sodipodi:ry="1.6355555"
       d="M 13.582223,7.6088891 A 3.3777778,1.6355555 0 0 1 10.204445,9.2444446 3.3777778,1.6355555 0 0 1 6.8266671,7.6088891 3.3777778,1.6355555 0 0 1 10.204445,5.9733336 3.3777778,1.6355555 0 0 1 13.582223,7.6088891 Z"
       transform="matrix(-0.65569657,-0.5252466,0.5288135,-0.72511843,68.582731,1016.2742)" />
    <g
       id="g4312"
       transform="matrix(-0.30935816,-0.95094559,0.95094559,-0.30935816,-919.8718,1372.1354)"
       style="opacity:0.2;fill:#ff0000">
      <path
         transform="matrix(0.49816262,0.01101159,-0.0259843,0.98356126,33.573584,989.84933)"
         d="m 20.906667,29.475555 a 3.3777778,1.1733333 0 0 1 -3.377778,1.173334 3.3777778,1.1733333 0 0 1 -3.377778,-1.173334 3.3777778,1.1733333 0 0 1 3.377778,-1.173333 3.3777778,1.1733333 0 0 1 3.377778,1.173333 z"
         sodipodi:ry="1.1733333"
         sodipodi:rx="3.3777778"
         sodipodi:cy="29.475555"
         sodipodi:cx="17.528889"
         id="path3766"
         style="fill:#ff0000;fill-opacity:1;stroke:#000000;stroke-opacity:1"
         sodipodi:type="arc" />
      <path
         transform="matrix(0.39355872,-0.00844164,0.02458259,1.1460676,35.437939,984.17466)"
         d="m 17.493333,27.946667 a 3.6977777,2.2755556 0 0 1 -3.697778,2.275555 3.6977777,2.2755556 0 0 1 -3.697778,-2.275555 3.6977777,2.2755556 0 0 1 3.697778,-2.275556 3.6977777,2.2755556 0 0 1 3.697778,2.275556 z"
         sodipodi:ry="2.2755556"
         sodipodi:rx="3.6977777"
         sodipodi:cy="27.946667"
         sodipodi:cx="13.795555"
         id="path3796"
         style="fill:#ff0000;fill-opacity:1;stroke:#000000;stroke-opacity:1"
         sodipodi:type="arc" />
    </g>
    <g
       id="g4303"
       transform="matrix(-0.56897185,-0.822357,0.822357,-0.56897185,-759.10975,1618.032)"
       style="opacity:0.2;fill:#ff0000">
      <path
         transform="matrix(0.77053203,0.12335422,-0.06851811,0.95498434,34.228385,987.9455)"
         d="M 21.617778,9.8488894 A 4.8355556,3.9466667 0 0 1 16.782223,13.795556 4.8355556,3.9466667 0 0 1 11.946667,9.8488894 4.8355556,3.9466667 0 0 1 16.782223,5.9022226 4.8355556,3.9466667 0 0 1 21.617778,9.8488894 Z"
         sodipodi:ry="3.9466667"
         sodipodi:rx="4.8355556"
         sodipodi:cy="9.8488894"
         sodipodi:cx="16.782223"
         id="path3770"
         style="fill:#ff0000;fill-opacity:1;stroke:#000000;stroke-opacity:1"
         sodipodi:type="arc" />
      <path
         transform="matrix(1.1870228,-0.07665294,0.07665294,1.1870228,20.141619,989.3872)"
         d="M 20.479999,9.7066669 A 0.39111111,0.39111111 0 0 1 20.088888,10.097778 0.39111111,0.39111111 0 0 1 19.697777,9.7066669 0.39111111,0.39111111 0 0 1 20.088888,9.3155558 0.39111111,0.39111111 0 0 1 20.479999,9.7066669 Z"
         sodipodi:ry="0.39111111"
         sodipodi:rx="0.39111111"
         sodipodi:cy="9.7066669"
         sodipodi:cx="20.088888"
         id="path3794"
         style="fill:#ff0000;fill-opacity:1;stroke:#000000;stroke-opacity:1"
         sodipodi:type="arc" />
      <path
         transform="matrix(1.2974769,-0.0837856,0.06987435,1.0820517,21.285742,990.4248)"
         d="M 20.479999,9.7066669 A 0.39111111,0.39111111 0 0 1 20.088888,10.097778 0.39111111,0.39111111 0 0 1 19.697777,9.7066669 0.39111111,0.39111111 0 0 1 20.088888,9.3155558 0.39111111,0.39111111 0 0 1 20.479999,9.7066669 Z"
         sodipodi:ry="0.39111111"
         sodipodi:rx="0.39111111"
         sodipodi:cy="9.7066669"
         sodipodi:cx="20.088888"
         id="path3794-0"
         style="fill:#ff0000;fill-opacity:1;stroke:#000000;stroke-opacity:1"
         sodipodi:type="arc" />
    </g>
    <path
       inkscape:connector-curvature="0"
       id="path3042"
       d="m 46.99144,1019.4365 1.038371,-1.7324 9.6e-5,-0.8138 -0.56244,-0.5195 -1.13936,-0.01 -0.194681,1.2911 -0.973566,0.7596 -0.699485,-0.9068 0.584132,-1.4322 0.360627,-0.5225 -0.216348,-0.8257 -0.966276,-0.1623 -0.923087,0.8167 0.09374,1.0359 c 0,0 -1.535928,0.2401 -1.34846,-0.1292 0.187544,-0.3694 0.454334,-1.114 0.454334,-1.114 l 0.288443,-1.0689 0.814864,-0.8226 -0.108148,-0.01"
       style="display:inline;opacity:0.65503875;fill:none;stroke:#000000;stroke-width:0.67903852px;stroke-linecap:butt;stroke-linejoin:miter;stroke-opacity:1" />
    <path
       style="display:inline;opacity:0.65503875;fill:#000000;fill-opacity:1;fill-rule:nonzero;stroke:#000000;stroke-width:0.01620477px;stroke-linecap:butt;stroke-linejoin:miter;stroke-opacity:1"
       d="m 51.212613,1003.9187 -0.472547,-0.106 -0.574626,-0.082 0.07482,0.3854 -0.659629,0.1071 -0.172626,-0.3194 -0.682857,0.2586 0.21882,0.3162 -0.507252,0.42 -0.30467,-0.2266 -0.389655,0.6607 0.320618,0.092 -0.07763,0.5708 -0.421538,0.032 8.95e-4,0.5988 0.444913,-0.083 0.200261,0.5087 -0.437478,0.1657 0.46137,0.4811 0.245936,-0.193 0.481278,0.3883 -0.26911,0.2442 0.675984,0.2572 0.198697,-0.2889 0.605434,0.1127 0.0124,0.3231 0.749593,-0.056 -0.07864,-0.3269 0.495784,-0.2444 0.219524,0.3159 0.54982,-0.3652 -0.187364,-0.1854 0.326968,-0.4234 0.328545,0.1751 0.194634,-0.5302 -0.261965,-0.072 0.1202,-0.5159 0.363535,0.048 -0.09089,-0.5501 -0.366853,0.011 -0.06703,-0.4026 0.328107,-0.1242 -0.27053,-0.4535 -0.241911,0.134 -0.293258,-0.3019 0.206834,-0.2067 -0.442028,-0.2748 -0.241966,0.2343 -0.4258,-0.2093 0.112901,-0.2995 z m -0.561498,1.4281 c 0.46672,0.1638 0.694376,0.6299 0.508385,1.0409 -0.185991,0.4109 -0.715109,0.611 -1.181829,0.4472 -0.466719,-0.1638 -0.694574,-0.6295 -0.508583,-1.0404 0.185991,-0.411 0.715307,-0.6115 1.182027,-0.4477 z"
       id="path3838-3"
       inkscape:connector-curvature="0" />
  </g>
</svg>
