<?xml version="1.0" encoding="UTF-8" standalone="no"?>
<!-- Created with Inkscape (http://www.inkscape.org/) -->

<svg
   xmlns:dc="http://purl.org/dc/elements/1.1/"
   xmlns:cc="http://creativecommons.org/ns#"
   xmlns:rdf="http://www.w3.org/1999/02/22-rdf-syntax-ns#"
   xmlns:svg="http://www.w3.org/2000/svg"
   xmlns="http://www.w3.org/2000/svg"
   xmlns:sodipodi="http://sodipodi.sourceforge.net/DTD/sodipodi-0.dtd"
   xmlns:inkscape="http://www.inkscape.org/namespaces/inkscape"
   width="64"
   height="96"
   id="svg2"
   version="1.1"
   inkscape:version="0.48.4 r9939"
   sodipodi:docname="rabbit-rising-right-continue-07.svg">
  <defs
     id="defs4" />
  <sodipodi:namedview
     id="base"
     pagecolor="#ffffff"
     bordercolor="#666666"
     borderopacity="1.0"
     inkscape:pageopacity="0.0"
     inkscape:pageshadow="2"
     inkscape:zoom="13.296875"
     inkscape:cx="19.139835"
     inkscape:cy="35.008226"
     inkscape:document-units="px"
     inkscape:current-layer="layer1"
     showgrid="false"
     inkscape:window-width="1920"
     inkscape:window-height="1031"
     inkscape:window-x="0"
     inkscape:window-y="26"
     inkscape:window-maximized="1" />
  <metadata
     id="metadata7">
    <rdf:RDF>
      <cc:Work
         rdf:about="">
        <dc:format>image/svg+xml</dc:format>
        <dc:type
           rdf:resource="http://purl.org/dc/dcmitype/StillImage" />
        <dc:title />
      </cc:Work>
    </rdf:RDF>
  </metadata>
  <g
     inkscape:label="Layer 1"
     inkscape:groupmode="layer"
     id="layer1"
     transform="translate(0,-956.3622)">
    <path
       style="fill:#5a5a58;fill-opacity:1;stroke:none"
       d="m 32,1020.3622 32,-32 0,32 z"
       id="path3066"
       inkscape:connector-curvature="0"
       sodipodi:nodetypes="cccc" />
    <path
       style="fill:#5a5a58;fill-opacity:1;stroke:none"
       d="m 0,1052.3622 32,-32 0,32 z"
       id="path3066-5"
       inkscape:connector-curvature="0"
       sodipodi:nodetypes="cccc" />
    <g
       transform="translate(-1.2600567,-31.830651)"
       id="g4635">
      <path
         transform="matrix(0.30604542,0.84085292,-0.84085292,0.30604542,51.87295,1007.4632)"
         d="m 13.582223,7.6088891 c 0,0.9032924 -1.512283,1.6355555 -3.377778,1.6355555 -1.8654953,0 -3.3777779,-0.7322631 -3.3777779,-1.6355555 0,-0.9032924 1.5122826,-1.6355555 3.3777779,-1.6355555 1.865495,0 3.377778,0.7322631 3.377778,1.6355555 z"
         sodipodi:ry="1.6355555"
         sodipodi:rx="3.3777778"
         sodipodi:cy="7.6088891"
         sodipodi:cx="10.204445"
         id="path3772-7-0"
         style="fill:#4d4d4b;fill-opacity:1;stroke:#000000;stroke-opacity:1"
         sodipodi:type="arc" />
      <path
         d="m 20.906667,29.475555 c 0,0.648015 -1.512283,1.173334 -3.377778,1.173334 -1.865495,0 -3.377778,-0.525319 -3.377778,-1.173334 0,-0.648014 1.512283,-1.173333 3.377778,-1.173333 1.865495,0 3.377778,0.525319 3.377778,1.173333 z"
         sodipodi:ry="1.1733333"
         sodipodi:rx="3.3777778"
         sodipodi:cy="29.475555"
         sodipodi:cx="17.528889"
         id="path3766-3-0"
         style="fill:#ffffff;fill-opacity:1;stroke:#000000;stroke-opacity:1"
         sodipodi:type="arc"
         transform="translate(13.046683,1015.065)" />
      <path
         transform="matrix(0.90630779,0.42261827,-0.42261827,0.90630779,27.27041,1010.9032)"
         d="m 20.906667,29.475555 c 0,0.648015 -1.512283,1.173334 -3.377778,1.173334 -1.865495,0 -3.377778,-0.525319 -3.377778,-1.173334 0,-0.648014 1.512283,-1.173333 3.377778,-1.173333 1.865495,0 3.377778,0.525319 3.377778,1.173333 z"
         sodipodi:ry="1.1733333"
         sodipodi:rx="3.3777778"
         sodipodi:cy="29.475555"
         sodipodi:cx="17.528889"
         id="path3766-4"
         style="fill:#ffffff;fill-opacity:1;stroke:#000000;stroke-opacity:1"
         sodipodi:type="arc" />
      <path
         transform="matrix(0.89663281,0.62646597,-0.89093791,0.78453809,47.944893,1009.093)"
         d="m 18.631111,21.297777 c 0,4.771741 -2.403733,8.640001 -5.368889,8.640001 -2.965155,0 -5.3688886,-3.86826 -5.3688886,-8.640001 0,-4.77174 2.4037336,-8.64 5.3688886,-8.64 2.965156,0 5.368889,3.86826 5.368889,8.64 z"
         sodipodi:ry="8.6400003"
         sodipodi:rx="5.3688889"
         sodipodi:cy="21.297777"
         sodipodi:cx="13.262222"
         id="path3768-4"
         style="fill:#ffffff;fill-opacity:1;stroke:#000000;stroke-opacity:1"
         sodipodi:type="arc" />
      <path
         transform="matrix(0.08715574,-0.99619471,0.99619471,0.08715574,24.453045,1050.0789)"
         d="m 21.191111,22.151112 c 0,2.101136 -0.636751,3.804444 -1.422223,3.804444 -0.785471,0 -1.422222,-1.703308 -1.422222,-3.804444 0,-2.101137 0.636751,-3.804445 1.422222,-3.804445 0.785472,0 1.422223,1.703308 1.422223,3.804445 z"
         sodipodi:ry="3.8044446"
         sodipodi:rx="1.4222223"
         sodipodi:cy="22.151112"
         sodipodi:cx="19.768888"
         id="path3792-0"
         style="fill:#ffffff;fill-opacity:1;stroke:#000000;stroke-opacity:1"
         sodipodi:type="arc" />
      <path
         transform="matrix(0.92229131,0.33568659,-0.32501633,0.89297501,37.610032,1010.7614)"
         d="m 21.617778,9.8488894 c 0,2.1796836 -2.164952,3.9466666 -4.835555,3.9466666 -2.670604,0 -4.835556,-1.766983 -4.835556,-3.9466666 0,-2.1796839 2.164952,-3.9466668 4.835556,-3.9466668 2.670603,0 4.835555,1.7669829 4.835555,3.9466668 z"
         sodipodi:ry="3.9466667"
         sodipodi:rx="4.8355556"
         sodipodi:cy="9.8488894"
         sodipodi:cx="16.782223"
         id="path3770-0"
         style="fill:#ffffff;fill-opacity:1;stroke:#000000;stroke-opacity:1"
         sodipodi:type="arc" />
      <path
         transform="matrix(0.34202013,0.93969262,-0.93969262,0.34202013,50.302142,1006.83)"
         d="m 13.582223,7.6088891 c 0,0.9032924 -1.512283,1.6355555 -3.377778,1.6355555 -1.8654953,0 -3.3777779,-0.7322631 -3.3777779,-1.6355555 0,-0.9032924 1.5122826,-1.6355555 3.3777779,-1.6355555 1.865495,0 3.377778,0.7322631 3.377778,1.6355555 z"
         sodipodi:ry="1.6355555"
         sodipodi:rx="3.3777778"
         sodipodi:cy="7.6088891"
         sodipodi:cx="10.204445"
         id="path3772-3"
         style="fill:#ffffff;fill-opacity:1;stroke:#000000;stroke-opacity:1"
         sodipodi:type="arc" />
      <path
         transform="matrix(0.98480776,0.17364818,-0.17364818,0.98480776,33.13999,1011.4417)"
         d="m 20.479999,9.7066669 c 0,0.2160047 -0.175106,0.3911111 -0.391111,0.3911111 -0.216005,0 -0.391111,-0.1751064 -0.391111,-0.3911111 0,-0.2160047 0.175106,-0.3911111 0.391111,-0.3911111 0.216005,0 0.391111,0.1751064 0.391111,0.3911111 z"
         sodipodi:ry="0.39111111"
         sodipodi:rx="0.39111111"
         sodipodi:cy="9.7066669"
         sodipodi:cx="20.088888"
         id="path3794-3"
         style="fill:#ffffff;fill-opacity:1;stroke:#000000;stroke-opacity:1"
         sodipodi:type="arc" />
      <path
         transform="matrix(1.3928819,0.18738731,-0.21941034,0.94939162,19.299827,1013.2102)"
         d="m 17.493333,27.946667 c 0,1.256754 -1.655552,2.275555 -3.697778,2.275555 -2.042226,0 -3.697778,-1.018801 -3.697778,-2.275555 0,-1.256755 1.655552,-2.275556 3.697778,-2.275556 2.042226,0 3.697778,1.018801 3.697778,2.275556 z"
         sodipodi:ry="2.2755556"
         sodipodi:rx="3.6977777"
         sodipodi:cy="27.946667"
         sodipodi:cx="13.795555"
         id="path3796-9"
         style="fill:#ffffff;fill-opacity:1;stroke:#000000;stroke-opacity:1"
         sodipodi:type="arc" />
    </g>
  </g>
</svg>
