<?xml version="1.0" encoding="UTF-8" standalone="no"?>
<!-- Created with Inkscape (http://www.inkscape.org/) -->

<svg
   xmlns:dc="http://purl.org/dc/elements/1.1/"
   xmlns:cc="http://creativecommons.org/ns#"
   xmlns:rdf="http://www.w3.org/1999/02/22-rdf-syntax-ns#"
   xmlns:svg="http://www.w3.org/2000/svg"
   xmlns="http://www.w3.org/2000/svg"
   xmlns:sodipodi="http://sodipodi.sourceforge.net/DTD/sodipodi-0.dtd"
   xmlns:inkscape="http://www.inkscape.org/namespaces/inkscape"
   width="32"
   height="32"
   id="svg2"
   version="1.1"
   inkscape:version="0.91 r13725"
   sodipodi:docname="rabbit_drowning_02.svg">
  <defs
     id="defs4" />
  <sodipodi:namedview
     id="base"
     pagecolor="#ffffff"
     bordercolor="#666666"
     borderopacity="1.0"
     inkscape:pageopacity="0.0"
     inkscape:pageshadow="2"
     inkscape:zoom="19.931572"
     inkscape:cx="2.3948782"
     inkscape:cy="18.466858"
     inkscape:document-units="px"
     inkscape:current-layer="layer1"
     showgrid="false"
     inkscape:window-width="1357"
     inkscape:window-height="932"
     inkscape:window-x="409"
     inkscape:window-y="16"
     inkscape:window-maximized="0" />
  <metadata
     id="metadata7">
    <rdf:RDF>
      <cc:Work
         rdf:about="">
        <dc:format>image/svg+xml</dc:format>
        <dc:type
           rdf:resource="http://purl.org/dc/dcmitype/StillImage" />
        <dc:title />
      </cc:Work>
    </rdf:RDF>
  </metadata>
  <g
     inkscape:label="Layer 1"
     inkscape:groupmode="layer"
     id="layer1"
     transform="translate(0,-1020.3622)">
    <path
       transform="matrix(0.50825872,0.03805256,-0.09563704,1.1025448,14.724407,1017.7388)"
       sodipodi:type="arc"
       style="fill:#ffffff;fill-opacity:1;stroke:#000000;stroke-opacity:1;stroke-width:1.33153875;stroke-miterlimit:4;stroke-dasharray:none;opacity:0.66"
       id="path3766-3"
       sodipodi:cx="17.528889"
       sodipodi:cy="29.475555"
       sodipodi:rx="3.3777778"
       sodipodi:ry="1.1733333"
       d="m 20.906667,29.475555 a 3.3777778,1.1733333 0 0 1 -3.377778,1.173334 3.3777778,1.1733333 0 0 1 -3.377778,-1.173334 3.3777778,1.1733333 0 0 1 3.377778,-1.173333 3.3777778,1.1733333 0 0 1 3.377778,1.173333 z" />
    <ellipse
       style="fill:#ffffff;fill-opacity:1;stroke:#000000;stroke-width:0.9341656;stroke-miterlimit:4;stroke-dasharray:none;stroke-opacity:1"
       id="path3768"
       transform="matrix(0.99999418,-0.00341252,0.00459194,0.99998946,0,0)"
       cx="11.526358"
       cy="1043.5782"
       rx="5.4017949"
       ry="7.4938984" />
    <path
       sodipodi:type="arc"
       style="fill:#ffffff;fill-opacity:1;stroke:#000000;stroke-opacity:1;stroke-width:1.46173441;stroke-miterlimit:4;stroke-dasharray:none;opacity:0.66"
       id="path3796-0"
       sodipodi:cx="13.795555"
       sodipodi:cy="27.946667"
       sodipodi:rx="3.6977777"
       sodipodi:ry="2.2755556"
       d="m 17.493333,27.946667 a 3.6977777,2.2755556 0 0 1 -3.697778,2.275555 3.6977777,2.2755556 0 0 1 -3.697778,-2.275555 3.6977777,2.2755556 0 0 1 3.697778,-2.275556 3.6977777,2.2755556 0 0 1 3.697778,2.275556 z"
       transform="matrix(0.43753699,-0.0096245,0.02351804,1.0691489,14.148558,1018.0725)" />
    <ellipse
       style="fill:#ffffff;fill-opacity:1;stroke:#000000;stroke-width:1;stroke-miterlimit:4;stroke-dasharray:none;stroke-opacity:1"
       id="path3792-5"
       transform="matrix(0.72943033,-0.68405512,0.68405512,0.72943033,0,0)"
       cx="-695.20715"
       cy="773.53723"
       rx="1.4222223"
       ry="3.8044446" />
    <path
       sodipodi:type="arc"
       style="fill:#ffffff;fill-opacity:1;stroke:#000000;stroke-opacity:1;stroke-width:1.42819318;stroke-miterlimit:4;stroke-dasharray:none;opacity:0.66"
       id="path3766"
       sodipodi:cx="17.528889"
       sodipodi:cy="29.475555"
       sodipodi:rx="3.3777778"
       sodipodi:ry="1.1733333"
       d="m 20.906667,29.475555 a 3.3777778,1.1733333 0 0 1 -3.377778,1.173334 3.3777778,1.1733333 0 0 1 -3.377778,-1.173334 3.3777778,1.1733333 0 0 1 3.377778,-1.173333 3.3777778,1.1733333 0 0 1 3.377778,1.173333 z"
       transform="matrix(0.49816262,0.01101159,-0.0259843,0.98356126,3.573584,1021.8493)" />
    <ellipse
       style="fill:#ffffff;fill-opacity:1;stroke:#000000;stroke-width:1;stroke-miterlimit:4;stroke-dasharray:none;stroke-opacity:1"
       id="path3792"
       transform="matrix(0.82933271,0.5587551,-0.5587551,0.82933271,0,0)"
       cx="590.31824"
       cy="856.40942"
       rx="1.4222223"
       ry="3.8044446" />
    <ellipse
       style="fill:#ffffff;fill-opacity:1;stroke:#000000;stroke-width:1.00200331;stroke-miterlimit:4;stroke-dasharray:none;stroke-opacity:1"
       id="path3772"
       transform="matrix(-0.03467682,0.99939858,-0.99230995,-0.12377788,0,0)"
       cx="1024.0496"
       cy="-50.354836"
       rx="2.746928"
       ry="1.6659604" />
    <ellipse
       style="fill:#ffffff;fill-opacity:1;stroke:#000000;stroke-width:1.00190151;stroke-miterlimit:4;stroke-dasharray:none;stroke-opacity:1"
       id="path3770"
       transform="matrix(0.98742681,0.15807683,-0.07156393,0.99743602,0,0)"
       cx="90.80072"
       cy="1023.2032"
       rx="3.7733941"
       ry="3.7786934" />
    <ellipse
       style="fill:#4d4d4b;fill-opacity:1;stroke:#000000;stroke-width:1.00051284;stroke-miterlimit:4;stroke-dasharray:none;stroke-opacity:1"
       id="path3772-7"
       transform="matrix(-0.41020755,0.9119922,-0.92962328,-0.36851128,0,0)"
       cx="951.34784"
       cy="-440.9819"
       rx="2.8377798"
       ry="1.4678512" />
    <circle
       style="fill:#ffffff;fill-opacity:1;stroke:#000000;stroke-width:1;stroke-miterlimit:4;stroke-dasharray:none;stroke-opacity:1"
       id="path3794"
       transform="matrix(0.99792148,-0.06444157,0.06444157,0.99792148,0,0)"
       cx="-52.038437"
       cy="1033.6765"
       r="0.46522477" />
    <path
       sodipodi:type="arc"
       style="fill:#ffffff;fill-opacity:1;stroke:#000000;stroke-opacity:1;stroke-width:1.48864187;stroke-miterlimit:4;stroke-dasharray:none;opacity:0.66"
       id="path3796"
       sodipodi:cx="13.795555"
       sodipodi:cy="27.946667"
       sodipodi:rx="3.6977777"
       sodipodi:ry="2.2755556"
       d="m 17.493333,27.946667 a 3.6977777,2.2755556 0 0 1 -3.697778,2.275555 3.6977777,2.2755556 0 0 1 -3.697778,-2.275555 3.6977777,2.2755556 0 0 1 3.697778,-2.275556 3.6977777,2.2755556 0 0 1 3.697778,2.275556 z"
       transform="matrix(0.39355872,-0.00844164,0.02458259,1.1460676,5.437939,1016.1747)" />
    <ellipse
       style="fill:#ffffff;fill-opacity:1;stroke:#000000;stroke-width:1;stroke-miterlimit:4;stroke-dasharray:none;stroke-opacity:1"
       id="path3794-0"
       transform="matrix(0.99792148,-0.06444157,0.06444157,0.99792148,0,0)"
       cx="-48.74004"
       cy="1033.7645"
       rx="0.50851458"
       ry="0.42408389" />
    <ellipse
       style="opacity:0.5;fill:#6464fa;fill-opacity:1;stroke:none;stroke-width:1;stroke-linecap:round;stroke-miterlimit:4;stroke-dasharray:none;stroke-opacity:1"
       id="path4145"
       cx="16.305788"
       cy="1035.7554"
       rx="0.60164511"
       ry="0.56404233" />
    <ellipse
       style="opacity:1;fill:#6464fa;fill-opacity:1;stroke:none;stroke-width:1;stroke-linecap:round;stroke-miterlimit:4;stroke-dasharray:none;stroke-opacity:1"
       id="path4145-9"
       cx="16.280703"
       cy="1033.7987"
       rx="0.82741755"
       ry="0.76472896" />
  </g>
</svg>
