<?xml version="1.0" encoding="UTF-8" standalone="no"?>
<!-- Created with Inkscape (http://www.inkscape.org/) -->

<svg
   xmlns:dc="http://purl.org/dc/elements/1.1/"
   xmlns:cc="http://creativecommons.org/ns#"
   xmlns:rdf="http://www.w3.org/1999/02/22-rdf-syntax-ns#"
   xmlns:svg="http://www.w3.org/2000/svg"
   xmlns="http://www.w3.org/2000/svg"
   xmlns:sodipodi="http://sodipodi.sourceforge.net/DTD/sodipodi-0.dtd"
   xmlns:inkscape="http://www.inkscape.org/namespaces/inkscape"
   width="32"
   height="32"
   id="svg2"
   version="1.1"
   inkscape:version="0.91 r13725"
   sodipodi:docname="rabbit_block_rise_right_01.svg">
  <defs
     id="defs4" />
  <sodipodi:namedview
     id="base"
     pagecolor="#ffffff"
     bordercolor="#666666"
     borderopacity="1.0"
     inkscape:pageopacity="0.0"
     inkscape:pageshadow="2"
     inkscape:zoom="18.804621"
     inkscape:cx="-3.3395894"
     inkscape:cy="13.935918"
     inkscape:document-units="px"
     inkscape:current-layer="layer1"
     showgrid="true"
     inkscape:window-width="1920"
     inkscape:window-height="980"
     inkscape:window-x="0"
     inkscape:window-y="0"
     inkscape:window-maximized="1">
    <inkscape:grid
       type="xygrid"
       id="grid9158"
       empspacing="8" />
  </sodipodi:namedview>
  <metadata
     id="metadata7">
    <rdf:RDF>
      <cc:Work
         rdf:about="">
        <dc:format>image/svg+xml</dc:format>
        <dc:type
           rdf:resource="http://purl.org/dc/dcmitype/StillImage" />
        <dc:title></dc:title>
      </cc:Work>
    </rdf:RDF>
  </metadata>
  <g
     inkscape:label="Layer 1"
     inkscape:groupmode="layer"
     id="layer1"
     transform="translate(0,-1020.3622)">
    <ellipse
       style="fill:#ffffff;fill-opacity:1;stroke:#000000;stroke-width:1.00023365;stroke-miterlimit:4;stroke-dasharray:none;stroke-opacity:1"
       id="path3772"
       transform="matrix(0.44200847,0.89701088,0.88308292,-0.46921695,0,0)"
       cx="910.63458"
       cy="-442.58951"
       rx="3.0261164"
       ry="1.656135" />
    <path
       style="fill:#ffffff;fill-opacity:1;stroke:#000000;stroke-width:1;stroke-miterlimit:4;stroke-dasharray:none;stroke-opacity:1"
       d="m 21.867839,1041.825 a 1.9873446,2.7105336 29.244869 0 0 -0.368213,-3.3547 1.9873446,2.7105336 29.244869 0 0 -3.063561,1.3487 1.9873446,2.7105336 29.244869 0 0 0.368249,3.3545 1.9873446,2.7105336 29.244869 0 0 3.063486,-1.3486 z"
       id="path3796-6"
       inkscape:connector-curvature="0" />
    <path
       style="fill:#ffffff;fill-opacity:1;stroke:#000000;stroke-width:1;stroke-miterlimit:4;stroke-dasharray:none;stroke-opacity:1"
       d="m 19.785839,1042.1742 a 1.1225084,2.0604898 55.140633 0 0 2.33077,-0.2535 1.1225084,2.0604898 55.140633 0 0 1.052617,-2.0991 1.1225084,2.0604898 55.140633 0 0 -2.33077,0.2535 1.1225084,2.0604898 55.140633 0 0 -1.052617,2.0991 z"
       id="path3766-84"
       inkscape:connector-curvature="0" />
    <ellipse
       style="fill:#4d4d4b;fill-opacity:1;stroke:#000000;stroke-width:1.00003302;stroke-miterlimit:4;stroke-dasharray:none;stroke-opacity:1"
       id="path3772-7"
       transform="matrix(0.56276571,0.82661645,0.82009049,-0.57223386,0,0)"
       cx="846.59717"
       cy="-572.4007"
       rx="3.1801457"
       ry="1.4544814" />
    <ellipse
       style="fill:#ffffff;fill-opacity:1;stroke:#000000;stroke-width:1.00000036;stroke-miterlimit:4;stroke-dasharray:none;stroke-opacity:1"
       id="path3768-5"
       transform="matrix(-0.99999422,-0.00340142,-0.00460693,0.99998939,0,0)"
       cx="-19.820982"
       cy="1039.9941"
       rx="5.4024944"
       ry="7.4704957" />
    <ellipse
       style="fill:#ffffff;fill-opacity:1;stroke:#000000;stroke-width:1.00190151;stroke-miterlimit:4;stroke-dasharray:none;stroke-opacity:1"
       id="path3770"
       transform="matrix(-0.21555007,0.97649279,0.95403515,0.29969472,0,0)"
       cx="983.10742"
       cy="234.17661"
       rx="3.7733939"
       ry="3.7786934" />
    <ellipse
       style="fill:#ffffff;fill-opacity:1;stroke:#000000;stroke-width:1.00013208;stroke-miterlimit:4;stroke-dasharray:none;stroke-opacity:1"
       id="path3792-5-0"
       transform="matrix(-0.15508054,-0.98790183,-0.99120477,0.13233708,0,0)"
       cx="-1029.5941"
       cy="154.24481"
       rx="1.4504663"
       ry="3.821861" />
    <circle
       style="fill:#ffffff;fill-opacity:1;stroke:#000000;stroke-width:1;stroke-miterlimit:4;stroke-dasharray:none;stroke-opacity:1"
       id="path3794-4"
       cx="503.60529"
       cy="897.51111"
       r="0.39111111"
       transform="matrix(-0.8660254,0.5,0.5,0.8660254,0,0)" />
    <ellipse
       style="fill:#ffffff;fill-opacity:1;stroke:#000000;stroke-width:1;stroke-miterlimit:4;stroke-dasharray:none;stroke-opacity:1"
       id="path3792-4"
       transform="matrix(0.60493781,0.79627272,0.79627272,-0.60493781,0,0)"
       cx="833.61646"
       cy="-607.76849"
       rx="1.4222223"
       ry="3.8044446" />
    <circle
       style="fill:#ffffff;fill-opacity:1;stroke:#000000;stroke-width:1;stroke-miterlimit:4;stroke-dasharray:none;stroke-opacity:1"
       id="path3794-4-3"
       cx="506.59747"
       cy="897.31885"
       r="0.39111111"
       transform="matrix(-0.8660254,0.5,0.5,0.8660254,0,0)" />
    <path
       style="fill:#ffffff;fill-opacity:1;stroke:#000000;stroke-width:0.99999994;stroke-miterlimit:4;stroke-dasharray:none;stroke-opacity:1"
       d="m 13.615903,1047.2775 a 1.9462298,3.2893836 0.996912 0 1 -2.000042,3.2605 1.9462298,3.2893836 0.996912 0 1 -1.8920121,-3.3173 1.9462298,3.2893836 0.996912 0 1 2.0000411,-3.2605 1.9462298,3.2893836 0.996912 0 1 1.892013,3.3173 z"
       id="path3796-7-5"
       inkscape:connector-curvature="0" />
    <path
       style="fill:#ffffff;fill-opacity:1;stroke:#000000;stroke-width:1;stroke-miterlimit:4;stroke-dasharray:none;stroke-opacity:1"
       d="m 13.245857,1049.8271 a 1.1225084,2.0604898 69.065392 0 1 -1.519954,1.7851 1.1225084,2.0604898 69.065392 0 1 -2.3278091,-0.3095 1.1225084,2.0604898 69.065392 0 1 1.5199541,-1.7851 1.1225084,2.0604898 69.065392 0 1 2.327809,0.3095 z"
       id="path3766-8-2"
       inkscape:connector-curvature="0" />
  </g>
</svg>
