<?xml version="1.0" encoding="UTF-8" standalone="no"?>
<!-- Created with Inkscape (http://www.inkscape.org/) -->

<svg
   xmlns:dc="http://purl.org/dc/elements/1.1/"
   xmlns:cc="http://creativecommons.org/ns#"
   xmlns:rdf="http://www.w3.org/1999/02/22-rdf-syntax-ns#"
   xmlns:svg="http://www.w3.org/2000/svg"
   xmlns="http://www.w3.org/2000/svg"
   xmlns:sodipodi="http://sodipodi.sourceforge.net/DTD/sodipodi-0.dtd"
   xmlns:inkscape="http://www.inkscape.org/namespaces/inkscape"
   width="64"
   height="80"
   id="svg2"
   version="1.1"
   inkscape:version="0.48.5 r10040"
   sodipodi:docname="void_hatching_vert_trail_diag_2.svg">
  <defs
     id="defs4" />
  <sodipodi:namedview
     id="base"
     pagecolor="#ffffff"
     bordercolor="#666666"
     borderopacity="1.0"
     inkscape:pageopacity="0.0"
     inkscape:pageshadow="2"
     inkscape:zoom="10.2"
     inkscape:cx="32"
     inkscape:cy="40"
     inkscape:document-units="px"
     inkscape:current-layer="layer1"
     showgrid="true"
     inkscape:window-width="1920"
     inkscape:window-height="1014"
     inkscape:window-x="0"
     inkscape:window-y="27"
     inkscape:window-maximized="1"
     inkscape:snap-grids="false">
    <inkscape:grid
       type="xygrid"
       id="grid3001"
       empspacing="8"
       visible="true"
       enabled="true"
       snapvisiblegridlinesonly="true" />
  </sodipodi:namedview>
  <metadata
     id="metadata7">
    <rdf:RDF>
      <cc:Work
         rdf:about="">
        <dc:format>image/svg+xml</dc:format>
        <dc:type
           rdf:resource="http://purl.org/dc/dcmitype/StillImage" />
        <dc:title></dc:title>
      </cc:Work>
    </rdf:RDF>
  </metadata>
  <g
     inkscape:label="Layer 1"
     inkscape:groupmode="layer"
     id="layer1"
     transform="translate(0,-972.3622)">
    <path
       style="opacity:0.8;color:#000000;fill:none;stroke:#bf0000;stroke-width:1;stroke-linecap:round;stroke-linejoin:round;stroke-miterlimit:4;stroke-opacity:1;stroke-dasharray:none;stroke-dashoffset:0;marker:none;visibility:visible;display:inline;overflow:visible;enable-background:accumulate"
       d="M 63.137255,1.2745098 C 61.993464,2.5163399 60.849673,3.7581699 59.705882,5 c 0,0.03268 0.02311,0.074931 0,0.098039 -0.04622,0.046216 -0.149862,-0.046216 -0.196078,0 -0.02311,0.023108 0.01461,0.06881 0,0.098039 -0.02067,0.041337 -0.07737,0.056702 -0.09804,0.098039 -0.01461,0.02923 -0.565125,0.2710094 -0.588235,0.2941174 -0.04902,0.04902 0.343137,-0.2450984 0.294117,-0.1960784 -0.202847,0.2028466 0.309977,-0.00793 -0.09804,0.1960784 -0.02923,0.014615 -0.06881,-0.014615 -0.09804,0 -0.08267,0.041337 -0.113405,0.1547415 -0.196079,0.1960784 -0.02923,0.014615 -0.07493,-0.023108 -0.09804,0 -0.02311,0.023108 0.02311,0.074931 0,0.098039 -0.02311,0.023108 -0.07493,-0.023108 -0.09804,0 -0.02311,0.023108 0.02311,0.074931 0,0.098039 -0.04622,0.046216 -0.149863,-0.046216 -0.196079,0 -0.02311,0.023108 0.02311,0.074931 0,0.098039 -0.02311,0.023108 -0.06536,0 -0.09804,0 -0.03268,0 -0.07493,-0.023108 -0.09804,0 -0.02311,0.023108 0.02311,0.074931 0,0.098039 -0.04622,0.046216 -0.149862,-0.046216 -0.196079,0 -0.02311,0.023108 0.02311,0.074931 0,0.098039 -0.02311,0.023108 -0.07493,-0.023108 -0.09804,0 -0.02311,0.023108 0.02311,0.074931 0,0.098039 -0.02311,0.023108 -0.07493,-0.023108 -0.09804,0 -0.02311,0.023108 0.02311,0.074931 0,0.098039 -0.04622,0.046216 -0.149862,-0.046216 -0.196078,0 -0.02311,0.023108 0.02311,0.074931 0,0.098039 -0.02311,0.023108 -0.07493,-0.023108 -0.09804,0 -0.02311,0.023108 0.02311,0.074931 0,0.098039 -0.02311,0.023108 -0.07493,-0.023108 -0.09804,0 -0.02311,0.023108 0.02311,0.074931 0,0.098039 -0.02311,0.023108 -0.07493,-0.023108 -0.09804,0 -0.02311,0.023108 0.01461,0.06881 0,0.098039 -0.02067,0.041337 -0.06536,0.06536 -0.09804,0.098039 -0.03268,0.03268 -0.0567,0.077371 -0.09804,0.098039 -0.135232,0.067616 -0.08769,-0.1187309 -0.196079,0.098039 -0.02923,0.058459 0.04622,0.1498623 0,0.1960785 -0.02311,0.023108 -0.07493,-0.023108 -0.09804,0 -0.02311,0.023108 0.02311,0.074931 0,0.098039 -0.02311,0.023108 -0.07493,-0.023108 -0.09804,0 -0.02311,0.023108 0.02311,0.074931 0,0.098039 -0.02311,0.023108 -0.07493,-0.023108 -0.09804,0 -0.02311,0.023108 0.02311,0.074931 0,0.098039 -0.202846,0.2028467 0.0079,-0.3099765 -0.196078,0.098039 -0.01461,0.02923 0.02311,0.074931 0,0.098039 -0.02311,0.023108 -0.07493,-0.023108 -0.09804,0 -0.04622,0.046216 0.04622,0.1498623 0,0.1960784 -0.02311,0.023108 -0.06536,0 -0.09804,0 0,0.03268 0.02311,0.074931 0,0.098039 -0.02311,0.023108 -0.07493,-0.023108 -0.09804,0 -0.02311,0.023108 0.02311,0.074931 0,0.098039 -0.02311,0.023108 -0.06881,-0.014615 -0.09804,0 -0.02603,0.013015 -0.281102,0.2680872 -0.294117,0.2941177 -0.02923,0.058459 0.04622,0.1498623 0,0.1960784 -0.02311,0.023108 -0.06881,-0.014615 -0.09804,0 -0.04134,0.020669 -0.0567,0.077371 -0.09804,0.098039 -0.02923,0.014615 -0.06881,-0.014615 -0.09804,0 -0.04134,0.020668 -0.0567,0.077371 -0.09804,0.098039 -0.02923,0.014615 -0.07493,-0.023108 -0.09804,0 -0.02311,0.023108 0.02311,0.074931 0,0.098039 -0.02311,0.023108 -0.07493,-0.023108 -0.09804,0 -0.04902,0.04902 0.04902,0.2450981 0,0.2941177 -0.02311,0.023108 -0.07493,-0.023108 -0.09804,0 -0.02311,0.023108 0.02311,0.074931 0,0.098039 -0.02311,0.023108 -0.06881,-0.014615 -0.09804,0 -0.04134,0.020668 -0.0567,0.077371 -0.09804,0.098039 -0.02923,0.014615 -0.07493,-0.023108 -0.09804,0 -0.02311,0.023108 0.02311,0.074931 0,0.098039 -0.02311,0.023108 -0.07493,-0.023108 -0.09804,0 -0.02311,0.023108 0.02311,0.074931 0,0.098039 -0.02311,0.023108 -0.07493,-0.023108 -0.09804,0 -0.04622,0.046216 0.04622,0.1498623 0,0.1960784 -0.02311,0.023108 -0.07493,-0.023108 -0.09804,0 -0.02311,0.023108 0.01461,0.06881 0,0.098039 -0.02067,0.04134 -0.06536,0.06536 -0.09804,0.09804 -0.03268,0.03268 -0.0567,0.07737 -0.09804,0.09804 -0.02923,0.01461 -0.07493,-0.02311 -0.09804,0 -0.02311,0.02311 0.01461,0.06881 0,0.09804 -0.02067,0.04134 -0.07737,0.0567 -0.09804,0.09804 -0.01461,0.02923 0.02311,0.07493 0,0.09804 -0.02311,0.02311 -0.07493,-0.02311 -0.09804,0 -0.02311,0.02311 0.01461,0.06881 0,0.09804 -0.02067,0.04134 -0.07737,0.0567 -0.09804,0.09804 -0.01461,0.02923 0.02311,0.07493 0,0.09804 -0.02311,0.02311 -0.07493,-0.02311 -0.09804,0 -0.02311,0.02311 0.01461,0.06881 0,0.09804 -0.02067,0.04134 -0.06536,0.06536 -0.09804,0.09804 -0.03268,0.03268 -0.0567,0.07737 -0.09804,0.09804 -0.02923,0.01461 -0.07493,-0.02311 -0.09804,0 -0.04622,0.04622 0.04622,0.149863 0,0.196079 -0.02311,0.02311 -0.07493,-0.02311 -0.09804,0 -0.02311,0.02311 0.02311,0.07493 0,0.09804 -0.02311,0.02311 -0.07493,-0.02311 -0.09804,0 -0.02311,0.02311 0.01461,0.06881 0,0.09804 -0.02067,0.04134 -0.07737,0.0567 -0.09804,0.09804 -0.01462,0.02923 0.02311,0.07493 0,0.09804 -0.02311,0.02311 -0.07493,-0.02311 -0.09804,0 -0.02311,0.02311 0.02311,0.07493 0,0.09804 -0.02311,0.02311 -0.07493,-0.02311 -0.09804,0 -0.04622,0.04622 0.04622,0.149862 0,0.196078 -0.02311,0.02311 -0.07493,-0.02311 -0.09804,0 -0.04622,0.04622 0.04622,0.149863 0,0.196079 -0.02311,0.02311 -0.07493,-0.02311 -0.09804,0 -0.02311,0.02311 0.02311,0.07493 0,0.09804 -0.02311,0.02311 -0.07493,-0.02311 -0.09804,0 -0.02311,0.02311 0.02311,0.07493 0,0.09804 -0.02311,0.02311 -0.07493,-0.02311 -0.09804,0 -0.04622,0.04622 0.04622,0.149862 0,0.196079 -0.02311,0.02311 -0.07493,-0.02311 -0.09804,0 -0.02311,0.02311 0.02311,0.07493 0,0.09804 -0.02311,0.02311 -0.07493,-0.02311 -0.09804,0 -0.02311,0.02311 0.02311,0.07493 0,0.09804 -0.02311,0.02311 -0.07493,-0.02311 -0.09804,0 -0.02311,0.02311 0.01461,0.06881 0,0.09804 -0.02067,0.04134 -0.07737,0.0567 -0.09804,0.09804 -0.01461,0.02923 0.02311,0.07493 0,0.09804 -0.02311,0.02311 -0.07493,-0.02311 -0.09804,0 -0.02311,0.02311 0.02311,0.07493 0,0.09804 -0.02311,0.02311 -0.07493,-0.02311 -0.09804,0 -0.202846,0.202847 0.309977,-0.0079 -0.09804,0.196078 -0.02923,0.01462 -0.07493,-0.02311 -0.09804,0 -0.02311,0.02311 0.02311,0.07493 0,0.09804 -0.02311,0.02311 -0.07493,-0.02311 -0.09804,0 -0.04622,0.04622 0.04622,0.149862 0,0.196078 -0.02311,0.02311 -0.07493,-0.02311 -0.09804,0 -0.04622,0.04622 0.04622,0.149862 0,0.196078 -0.02311,0.02311 -0.07493,-0.02311 -0.09804,0 -0.02311,0.02311 0.02311,0.07493 0,0.09804 -0.04622,0.04622 -0.149862,-0.04622 -0.196078,0 -0.02311,0.02311 0.02311,0.07493 0,0.09804 -0.02311,0.02311 -0.07493,-0.02311 -0.09804,0 -0.02311,0.02311 0.02311,0.07493 0,0.09804 -0.02311,0.02311 -0.07493,-0.02311 -0.09804,0 -0.04622,0.04622 0.04622,0.149862 0,0.196078 -0.02311,0.02311 -0.07493,-0.02311 -0.09804,0 -0.02311,0.02311 0.02311,0.07493 0,0.09804 -0.02311,0.02311 -0.07493,-0.02311 -0.09804,0 -0.02311,0.02311 0.02311,0.07493 0,0.09804 -0.02311,0.02311 -0.06881,-0.01462 -0.09804,0 -0.04134,0.02067 -0.06536,0.06536 -0.09804,0.09804 -0.03268,0.03268 -0.07737,0.0567 -0.09804,0.09804 -0.02923,0.05846 0.04622,0.149863 0,0.196079 -0.02311,0.02311 -0.06881,-0.01461 -0.09804,0 -0.408016,0.204008 0.104807,-0.0068 -0.09804,0.196078 -0.04622,0.04622 -0.149862,-0.04622 -0.196079,0 -0.02311,0.02311 0.02311,0.07493 0,0.09804 -0.02311,0.02311 -0.07493,-0.02311 -0.09804,0 -0.02311,0.02311 0.02311,0.07493 0,0.09804 -0.02311,0.02311 -0.07493,-0.02311 -0.09804,0 -0.04622,0.04622 0.02923,0.137619 0,0.196078 -0.02067,0.04134 -0.06536,0.06536 -0.09804,0.09804 -0.03268,0.03268 -0.0567,0.07737 -0.09804,0.09804 -0.02923,0.01461 -0.07493,-0.02311 -0.09804,0 -0.02311,0.02311 0.02311,0.07493 0,0.09804 -0.02311,0.02311 -0.07493,-0.02311 -0.09804,0 -0.02311,0.02311 0.02311,0.07493 0,0.09804 -0.02311,0.02311 -0.07493,-0.02311 -0.09804,0 -0.02311,0.02311 0.02311,0.07493 0,0.09804 -0.02311,0.02311 -0.07493,-0.02311 -0.09804,0 -0.196186,0.196185 0.196185,-1.07e-4 0,0.196079 -0.04622,0.04622 -0.149863,-0.04622 -0.196079,0 -0.02311,0.02311 0.02311,0.07493 0,0.09804 -0.02311,0.02311 -0.06536,0 -0.09804,0 0,0.03268 0.02311,0.07493 0,0.09804 -0.02311,0.02311 -0.07493,-0.02311 -0.09804,0 -0.02311,0.02311 0.02311,0.07493 0,0.09804 -0.02311,0.02311 -0.07493,-0.02311 -0.09804,0 -0.02311,0.02311 0.01461,0.06881 0,0.09804 -0.02067,0.04134 -0.07737,0.0567 -0.09804,0.09804 -0.01461,0.02923 0.02311,0.07493 0,0.09804 -0.04622,0.04622 -0.149862,-0.04622 -0.196078,0 -0.02311,0.02311 0.01461,0.06881 0,0.09804 -0.04824,0.09647 -0.34392,0.295684 -0.392157,0.392157 -0.01462,0.02923 0.02311,0.07493 0,0.09804 -0.26158,0.261581 0.0655,-0.26158 -0.196078,0 -0.02311,0.02311 0.02311,0.07493 0,0.09804 -0.02311,0.02311 -0.06881,-0.01461 -0.09804,0 -0.408015,0.204008 0.104808,-0.0068 -0.09804,0.196079 -0.02311,0.02311 -0.06881,-0.01461 -0.09804,0 -0.408016,0.204008 0.104807,-0.0068 -0.09804,0.196078 -0.02311,0.02311 -0.07493,-0.02311 -0.09804,0 -0.02311,0.02311 0.02311,0.07493 0,0.09804 -0.04902,0.04902 -0.245098,-0.04902 -0.294118,0 -0.02311,0.02311 0.02311,0.07493 0,0.09804 -0.02311,0.02311 -0.07493,-0.02311 -0.09804,0 -0.02311,0.02311 0.01461,0.06881 0,0.09804 -0.02067,0.04134 -0.06536,0.06536 -0.09804,0.09804 -0.03268,0.03268 -0.0567,0.07737 -0.09804,0.09804 -0.02923,0.01461 -0.07493,-0.02311 -0.09804,0 -0.02311,0.02311 0.02311,0.07493 0,0.09804 -0.02311,0.02311 -0.07493,-0.02311 -0.09804,0 -0.02311,0.02311 0.02311,0.07493 0,0.09804 -0.262295,0.262295 0.06622,-0.262295 -0.196079,0 -0.02311,0.02311 0.02311,0.07493 0,0.09804 -0.02311,0.02311 -0.07493,-0.02311 -0.09804,0 -0.02311,0.02311 0.02311,0.07493 0,0.09804 -0.04622,0.04622 -0.149862,-0.04622 -0.196078,0 -0.04622,0.04622 0.04622,0.149862 0,0.196079 -0.02311,0.02311 -0.07493,-0.02311 -0.09804,0 -0.02311,0.02311 0.02311,0.07493 0,0.09804 -0.04622,0.04622 -0.149863,-0.04622 -0.196079,0 -0.02311,0.02311 0,0.06536 0,0.09804 -0.03268,0 -0.07493,-0.02311 -0.09804,0 -0.02311,0.02311 0.02311,0.07493 0,0.09804 -0.262295,0.262295 0.06622,-0.262295 -0.196078,0 -0.02311,0.02311 0.02311,0.07493 0,0.09804 -0.02311,0.02311 -0.06881,-0.01461 -0.09804,0 -0.04134,0.02067 -0.0567,0.07737 -0.09804,0.09804 -0.02923,0.01462 -0.07493,-0.02311 -0.09804,0 -0.202847,0.202846 0.309976,-0.0079 -0.09804,0.196078 -0.02923,0.01462 -0.06881,-0.01461 -0.09804,0 -0.04134,0.02067 -0.0567,0.07737 -0.09804,0.09804 -0.02923,0.01462 -0.06881,-0.01461 -0.09804,0 -0.04134,0.02067 -0.0567,0.07737 -0.09804,0.09804 -0.02923,0.01461 -0.07493,-0.02311 -0.09804,0 -0.02311,0.02311 0.01461,0.06881 0,0.09804 -0.02067,0.04134 -0.06536,0.06536 -0.09804,0.09804 -0.03268,0.03268 -0.0567,0.07737 -0.09804,0.09804 -0.02923,0.01461 -0.07493,-0.02311 -0.09804,0 -0.02311,0.02311 0.02311,0.07493 0,0.09804 -0.04622,0.04622 -0.149862,-0.04622 -0.196079,0 -0.02311,0.02311 0.02311,0.07493 0,0.09804 -0.02311,0.02311 -0.07493,-0.02311 -0.09804,0 -0.02311,0.02311 0.02311,0.07493 0,0.09804 -0.02311,0.02311 -0.06881,-0.01462 -0.09804,0 -0.08267,0.04134 -0.113404,0.154741 -0.196078,0.196078 -0.02923,0.01461 -0.06881,-0.01462 -0.09804,0 -0.408015,0.204008 0.104808,-0.0068 -0.09804,0.196079 -0.04622,0.04622 -0.137619,-0.02923 -0.196078,0 -0.117647,0.05882 -0.176471,0.235294 -0.294118,0.294117 -0.02923,0.01462 -0.07493,-0.02311 -0.09804,0 -0.04902,0.04902 0.04902,0.245098 0,0.294118 -0.04622,0.04622 -0.149862,-0.04622 -0.196079,0 -0.02311,0.02311 0.02311,0.07493 0,0.09804 -0.02311,0.02311 -0.07493,-0.02311 -0.09804,0 -0.02311,0.02311 0.02311,0.07493 0,0.09804 -0.02311,0.02311 -0.07493,-0.02311 -0.09804,0 -0.02311,0.02311 0.02311,0.07493 0,0.09804 -0.202847,0.202846 0.0079,-0.309977 -0.196078,0.09804 -0.06762,0.135231 0.11873,0.08769 -0.09804,0.196078 -0.02923,0.01461 -0.07493,-0.02311 -0.09804,0 -0.02311,0.02311 0.02311,0.07493 0,0.09804 -0.26158,0.26158 0.0655,-0.261581 -0.196078,0 -0.02311,0.02311 0.02311,0.07493 0,0.09804 -0.02311,0.02311 -0.07493,-0.02311 -0.09804,0 -0.02311,0.02311 0.01461,0.06881 0,0.09804 -0.02067,0.04134 -0.07737,0.0567 -0.09804,0.09804 -0.01461,0.02923 0.02311,0.07493 0,0.09804 -0.04622,0.04622 -0.137619,-0.02923 -0.196078,0 -0.408016,0.204008 0.104807,-0.0068 -0.09804,0.196079 -0.02311,0.02311 -0.07493,-0.02311 -0.09804,0 -0.202846,0.202846 0.309977,-0.0079 -0.09804,0.196078 -0.02923,0.01462 -0.07493,-0.02311 -0.09804,0 -0.04622,0.04622 0.04622,0.149863 0,0.196079 -0.04622,0.04622 -0.149862,-0.04622 -0.196078,0 -0.02311,0.02311 0.02311,0.07493 0,0.09804 -0.05167,0.05167 -0.135278,0.0575 -0.196079,0.09804 -0.194221,-0.0098 -0.04637,0.144407 -0.09804,0.196079 -0.04622,0.04622 -0.137619,-0.02923 -0.196078,0 -0.408016,0.204007 0.104807,-0.0068 -0.09804,0.196078 -0.04902,0.04902 -0.245098,-0.04902 -0.294117,0 -0.02311,0.02311 0.02311,0.07493 0,0.09804 -0.02311,0.02311 -0.07493,-0.02311 -0.09804,0 -0.02311,0.02311 0.02311,0.07493 0,0.09804 -0.02311,0.02311 -0.07493,-0.02311 -0.09804,0 -0.02311,0.02311 0.02311,0.07493 0,0.09804 -0.04622,0.04622 -0.149862,-0.04622 -0.196078,0 -0.04902,0.04902 0.04902,0.245098 0,0.294117 -0.02311,0.02311 -0.07493,-0.02311 -0.09804,0 -0.02311,0.02311 0.02311,0.07493 0,0.09804 -0.02311,0.02311 -0.07493,-0.02311 -0.09804,0 -0.02311,0.02311 0.02311,0.07493 0,0.09804 -0.02311,0.02311 -0.06881,-0.01461 -0.09804,0 -0.325155,0.325155 0.09243,-0.04622 -0.196078,0.09804 -0.08267,0.04134 -0.113405,0.154741 -0.196079,0.196078 -0.02923,0.01462 -0.07493,-0.02311 -0.09804,0 -0.02311,0.02311 0.02311,0.07493 0,0.09804 -0.02311,0.02311 -0.06881,-0.01461 -0.09804,0 -0.04134,0.02067 -0.06536,0.06536 -0.09804,0.09804 -0.03268,0.03268 -0.07737,0.0567 -0.09804,0.09804 -0.01944,0.03887 0.02004,0.274075 0,0.294118 -0.04622,0.04622 -0.149862,-0.04622 -0.196078,0 -0.02311,0.02311 0.02311,0.07493 0,0.09804 -0.02311,0.02311 -0.07493,-0.02311 -0.09804,0 -0.02311,0.02311 0.01461,0.06881 0,0.09804 -0.02067,0.04134 -0.07737,0.0567 -0.09804,0.09804 -0.01461,0.02923 0.02311,0.07493 0,0.09804 -0.02311,0.02311 -0.07493,-0.02311 -0.09804,0 -0.02311,0.02311 0.02311,0.07493 0,0.09804 -0.02311,0.02311 -0.06881,-0.01461 -0.09804,0 -0.04134,0.02067 -0.0567,0.07737 -0.09804,0.09804 -0.02923,0.01462 -0.07493,-0.02311 -0.09804,0 -0.02311,0.02311 0.01461,0.06881 0,0.09804 -0.02067,0.04134 -0.06536,0.06536 -0.09804,0.09804 -0.03268,0.03268 -0.0567,0.07737 -0.09804,0.09804 -0.02923,0.01461 -0.07493,-0.02311 -0.09804,0 -0.02311,0.02311 0.02311,0.07493 0,0.09804 -0.02311,0.02311 -0.07493,-0.02311 -0.09804,0 -0.02311,0.02311 0.02311,0.07493 0,0.09804 -0.02311,0.02311 -0.07493,-0.02311 -0.09804,0 -0.02311,0.02311 0,0.06536 0,0.09804 -0.03268,0 -0.07493,-0.02311 -0.09804,0 -0.02311,0.02311 0.02311,0.07493 0,0.09804 -0.02311,0.02311 -0.07493,-0.02311 -0.09804,0 -0.02311,0.02311 0.02311,0.07493 0,0.09804 -0.02311,0.02311 -0.06536,0 -0.09804,0 0,0.03268 0.01461,0.06881 0,0.09804 -0.204008,0.408016 0.0068,-0.104808 -0.196078,0.09804 -0.202847,0.202847 0.309976,-0.0079 -0.09804,0.196079 -0.02923,0.01461 -0.07493,-0.02311 -0.09804,0 -0.202847,0.202846 0.309977,-0.0079 -0.09804,0.196078 -0.02923,0.01461 -0.07493,-0.02311 -0.09804,0 -0.02311,0.02311 0.02311,0.07493 0,0.09804 -0.02311,0.02311 -0.07493,-0.02311 -0.09804,0 -0.02311,0.02311 0.02311,0.07493 0,0.09804 -0.02311,0.02311 -0.07493,-0.02311 -0.09804,0 -0.02311,0.02311 0.02311,0.07493 0,0.09804 -0.202846,0.202846 0.0079,-0.309977 -0.196078,0.09804 -0.01461,0.02923 0.02311,0.07493 0,0.09804 -0.02311,0.02311 -0.06881,-0.01461 -0.09804,0 -0.103784,0.05189 -0.0923,0.144187 -0.196079,0.196078 -0.02923,0.01462 -0.07493,-0.02311 -0.09804,0 -0.02311,0.02311 0.02311,0.07493 0,0.09804 -0.02311,0.02311 -0.07493,-0.02311 -0.09804,0 -0.02311,0.02311 0.02311,0.07493 0,0.09804 -0.02311,0.02311 -0.07493,-0.02311 -0.09804,0 -0.02311,0.02311 0.02311,0.07493 0,0.09804 -0.202847,0.202847 0.0079,-0.309976 -0.196079,0.09804 -0.01461,0.02923 0.02311,0.07493 0,0.09804 -0.06557,0.06557 -0.130505,-0.06557 -0.196078,0 -0.202847,0.202846 0.309976,-0.0079 -0.09804,0.196078 -0.261437,0 0.03268,-0.03268 -0.09804,0.09804 -0.02311,0.02311 -0.07493,-0.02311 -0.09804,0 -0.02311,0.02311 0.02311,0.07493 0,0.09804 -0.02311,0.02311 -0.07493,-0.02311 -0.09804,0 -0.202847,0.202847 0.309976,-0.0079 -0.09804,0.196079 -0.02923,0.01461 -0.07493,-0.02311 -0.09804,0 -0.02311,0.02311 0.02311,0.07493 0,0.09804 -0.02311,0.02311 -0.07493,-0.02311 -0.09804,0 -0.262295,0.262295 0.262295,-0.06622 0,0.196078 -0.06557,0.06557 -0.130505,-0.06557 -0.196078,0 -0.02311,0.02311 0.02311,0.07493 0,0.09804 -0.04622,0.04622 -0.149863,-0.04622 -0.196079,0 -0.202846,0.202846 0.309977,-0.0079 -0.09804,0.196078 -0.02923,0.01462 -0.07493,-0.02311 -0.09804,0 -0.04622,0.04622 0.04622,0.149862 0,0.196079 -0.02311,0.02311 -0.07493,-0.02311 -0.09804,0 -0.02311,0.02311 0.02311,0.07493 0,0.09804 -0.02311,0.02311 -0.06881,-0.01461 -0.09804,0 -0.04134,0.02067 -0.0567,0.07737 -0.09804,0.09804 -0.02923,0.01461 -0.07493,-0.02311 -0.09804,0 -0.02311,0.02311 0.02311,0.07493 0,0.09804 -0.02311,0.02311 -0.07493,-0.02311 -0.09804,0 -0.02311,0.02311 0.02311,0.07493 0,0.09804 -0.02311,0.02311 -0.07493,-0.02311 -0.09804,0 -0.196186,0.196186 0.196185,-1.06e-4 0,0.196079 -0.02311,0.02311 -0.07493,-0.02311 -0.09804,0 -0.02311,0.02311 0.02311,0.07493 0,0.09804 -0.04622,0.04622 -0.149862,-0.04622 -0.196078,0 -0.02311,0.02311 0.02311,0.07493 0,0.09804 -0.02311,0.02311 -0.07493,-0.02311 -0.09804,0 -0.02311,0.02311 0.01461,0.06881 0,0.09804 -0.04134,0.08267 -0.154742,0.113404 -0.196079,0.196078 -0.01461,0.02923 0.01461,0.06881 0,0.09804 -0.204008,0.408016 0.0068,-0.104807 -0.196078,0.09804 -0.202847,0.202847 0.309976,-0.0079 -0.09804,0.196079 -0.02923,0.01461 -0.07493,-0.02311 -0.09804,0 -0.202846,0.202846 0.309977,-0.0079 -0.09804,0.196078 -0.261438,0 0.03268,-0.03268 -0.09804,0.09804 -0.02311,0.02311 -0.07493,-0.02311 -0.09804,0 -0.02311,0.02311 0.02311,0.07493 0,0.09804 -0.02311,0.02311 -0.07493,-0.02311 -0.09804,0 -0.02311,0.02311 0.02311,0.07493 0,0.09804 -0.02311,0.02311 -0.07493,-0.02311 -0.09804,0 -0.163398,0.163399 0.261438,0.03268 0.09804,0.196078 -0.02311,0.02311 -0.07493,-0.02311 -0.09804,0 -0.202846,0.202847 0.309977,-0.0079 -0.09804,0.196079 -0.02923,0.01461 -0.07493,-0.02311 -0.09804,0 -0.02311,0.02311 0.02311,0.07493 0,0.09804 -0.02311,0.02311 -0.07493,-0.02311 -0.09804,0 -0.02311,0.02311 0.01461,0.06881 0,0.09804 -0.04134,0.08267 -0.154742,0.113405 -0.196079,0.196079 -0.08566,0.171328 0.09804,0.03664 0.09804,0.196078 0,0.04622 -0.07737,0.0567 -0.09804,0.09804 -0.01461,0.02923 0.02311,0.07493 0,0.09804 -0.02311,0.02311 -0.07493,-0.02311 -0.09804,0 -0.02311,0.02311 0.02311,0.07493 0,0.09804 -0.02311,0.02311 -0.07493,-0.02311 -0.09804,0 -0.02311,0.02311 0.02311,0.07493 0,0.09804 -0.02311,0.02311 -0.07493,-0.02311 -0.09804,0 -0.04622,0.04622 0.04622,0.149862 0,0.196078 -0.02311,0.02311 -0.07493,-0.02311 -0.09804,0 -0.02311,0.02311 0,0.06536 0,0.09804 -0.03268,0 -0.07493,-0.02311 -0.09804,0 -0.02311,0.02311 0.02311,0.07493 0,0.09804 -0.04622,0.04622 -0.137619,-0.02923 -0.196078,0 -0.04134,0.02067 -0.06536,0.06536 -0.09804,0.09804 -0.03268,0.03268 -0.07737,0.0567 -0.09804,0.09804 -0.01462,0.02923 0.01461,0.06881 0,0.09804 -0.02067,0.04134 -0.07737,0.0567 -0.09804,0.09804 -0.01944,0.03887 0.02004,0.274074 0,0.294117 -0.02311,0.02311 -0.07493,-0.02311 -0.09804,0 -0.02311,0.02311 0.01461,0.06881 0,0.09804 -0.02067,0.04134 -0.07737,0.0567 -0.09804,0.09804 -0.01462,0.02923 0.02311,0.07493 0,0.09804 -0.04622,0.04622 -0.149863,-0.04622 -0.196079,0 -0.02311,0.02311 0.01461,0.06881 0,0.09804 -0.02067,0.04134 -0.07737,0.0567 -0.09804,0.09804 -0.06762,0.135231 0.118731,0.08769 -0.09804,0.196079 -0.261438,0 0.03268,-0.03268 -0.09804,0.09804 -0.04622,0.04622 -0.149863,-0.04622 -0.196079,0 -0.163934,0.163934 0.163935,0.03214 0,0.196078 -0.04622,0.04622 -0.149862,-0.04622 -0.196078,0 -0.02311,0.02311 0,0.06536 0,0.09804 0,0.16464 0.02311,0.147993 -0.196079,0.294117 -0.05438,0.03626 -0.149862,-0.04622 -0.196078,0 -0.02311,0.02311 0.02311,0.07493 0,0.09804 -0.02311,0.02311 -0.07493,-0.02311 -0.09804,0 -0.02311,0.02311 0.02311,0.07493 0,0.09804 -0.02311,0.02311 -0.07493,-0.02311 -0.09804,0 -0.02311,0.02311 0,0.06536 0,0.09804 -0.03268,0 -0.07493,-0.02311 -0.09804,0 -0.02311,0.02311 0.02311,0.07493 0,0.09804 -0.02311,0.02311 -0.07493,-0.02311 -0.09804,0 -0.02311,0.02311 0,0.06536 0,0.09804 -0.03268,0 -0.07493,-0.02311 -0.09804,0 -0.02311,0.02311 0.02311,0.07493 0,0.09804 -0.04622,0.04622 -0.149863,-0.04622 -0.196079,0 -0.02311,0.02311 0.02311,0.07493 0,0.09804 -0.02311,0.02311 -0.06881,-0.01461 -0.09804,0 -0.04134,0.02067 -0.0567,0.07737 -0.09804,0.09804 -0.05846,0.02923 -0.149862,-0.04622 -0.196079,0 -0.02311,0.02311 0.01462,0.06881 0,0.09804 -0.02067,0.04134 -0.06536,0.06536 -0.09804,0.09804 -0.03268,0.03268 -0.0567,0.07737 -0.09804,0.09804 -0.02923,0.01461 -0.07493,-0.02311 -0.09804,0 -0.02311,0.02311 0.02311,0.07493 0,0.09804 -0.04902,0.04902 -0.245098,-0.04902 -0.294118,0 -0.02311,0.02311 0.01461,0.06881 0,0.09804 -0.204008,0.408016 0.0068,-0.104807 -0.196078,0.09804 -0.02311,0.02311 0.02311,0.07493 0,0.09804 -0.02311,0.02311 -0.07493,-0.02311 -0.09804,0 -0.02311,0.02311 0.02311,0.07493 0,0.09804 -0.02311,0.02311 -0.07493,-0.02311 -0.09804,0 -0.02311,0.02311 0.02311,0.07493 0,0.09804 -0.02311,0.02311 -0.06881,-0.01461 -0.09804,0 -0.04134,0.02067 -0.0567,0.07737 -0.09804,0.09804 -0.05846,0.02923 -0.149862,-0.04622 -0.196079,0 -0.02311,0.02311 0.01461,0.06881 0,0.09804 -0.09914,0.198283 -0.227517,0.03144 -0.294117,0.09804 -0.02311,0.02311 0.02311,0.07493 0,0.09804 -0.202847,0.202846 0.0079,-0.309977 -0.196079,0.09804 -0.01461,0.02923 0.02311,0.07493 0,0.09804 -0.02311,0.02311 -0.06704,-0.01033 -0.09804,0 -0.116045,0.03868 -0.434262,0.238184 -0.490196,0.294118 -0.04622,0.04622 0.04622,0.149862 0,0.196078 -0.04622,0.04622 -0.149862,-0.04622 -0.196078,0 -0.02311,0.02311 0.02311,0.07493 0,0.09804 -0.04902,0.04902 -0.245098,-0.04902 -0.294118,0 -0.02311,0.02311 0.02311,0.07493 0,0.09804 -0.02311,0.02311 -0.07493,-0.02311 -0.09804,0 -0.02311,0.02311 0.01461,0.06881 0,0.09804 -0.204008,0.408016 0.0068,-0.104807 -0.196079,0.09804 -0.02311,0.02311 0.02311,0.07493 0,0.09804 -0.02311,0.02311 -0.07493,-0.02311 -0.09804,0 -0.02311,0.02311 0.02311,0.07493 0,0.09804 -0.02311,0.02311 -0.07493,-0.02311 -0.09804,0 -0.02311,0.02311 0.02311,0.07493 0,0.09804 -0.04622,0.04622 -0.149862,-0.04622 -0.196079,0 -0.02311,0.02311 0.01461,0.06881 0,0.09804 -0.02067,0.04134 -0.06536,0.06536 -0.09804,0.09804 -0.03268,0.03268 -0.0567,0.07737 -0.09804,0.09804 -0.02923,0.01461 -0.07493,-0.02311 -0.09804,0 -0.02311,0.02311 0.02311,0.07493 0,0.09804 -0.02311,0.02311 -0.07493,-0.02311 -0.09804,0 -0.02311,0.02311 0.02311,0.07493 0,0.09804 -0.02311,0.02311 -0.07493,-0.02311 -0.09804,0 -0.02311,0.02311 0.02311,0.07493 0,0.09804 -0.02311,0.02311 -0.07493,-0.02311 -0.09804,0 -0.02311,0.02311 0.01461,0.06881 0,0.09804 -0.02067,0.04134 -0.07737,0.0567 -0.09804,0.09804 -0.01461,0.02923 0.02311,0.07493 0,0.09804 -0.04622,0.04622 -0.149862,-0.04622 -0.196078,0 -0.02311,0.02311 0.02311,0.07493 0,0.09804 -0.02311,0.02311 -0.07493,-0.02311 -0.09804,0 -0.202846,0.202847 0.309977,-0.0079 -0.09804,0.196078 -0.02923,0.01461 -0.07493,-0.02311 -0.09804,0 -0.04622,0.04622 0.02923,0.13762 0,0.196079 -0.01301,0.02603 -0.268087,0.281102 -0.294118,0.294118 -0.02923,0.01461 -0.07493,-0.02311 -0.09804,0 -0.02311,0.02311 0.02311,0.07493 0,0.09804 -0.02311,0.02311 -0.07493,-0.02311 -0.09804,0 -0.02311,0.02311 0.02311,0.07493 0,0.09804 -0.02311,0.02311 -0.07493,-0.02311 -0.09804,0 -0.02311,0.02311 0.01461,0.06881 0,0.09804 -0.02067,0.04134 -0.07737,0.0567 -0.09804,0.09804 -0.01461,0.02923 0.02311,0.07493 0,0.09804 -0.02311,0.02311 -0.07493,-0.02311 -0.09804,0 -0.02311,0.02311 0.02311,0.07493 0,0.09804 -0.04622,0.04622 -0.149862,-0.04622 -0.196078,0 -0.02311,0.02311 0.02311,0.07493 0,0.09804 -0.02311,0.02311 -0.07493,-0.02311 -0.09804,0 -0.04622,0.04622 0.02923,0.137619 0,0.196078 -0.01302,0.02603 -0.268088,0.281103 -0.294118,0.294118 -0.02923,0.01462 -0.06881,-0.01461 -0.09804,0 -0.04134,0.02067 -0.0567,0.07737 -0.09804,0.09804 -0.02923,0.01462 -0.07493,-0.02311 -0.09804,0 -0.04622,0.04622 0.02923,0.137619 0,0.196079 -0.01301,0.02603 -0.268087,0.281102 -0.294117,0.294117 -0.02923,0.01461 -0.06881,-0.01461 -0.09804,0 -0.04134,0.02067 -0.06536,0.06536 -0.09804,0.09804 -0.03268,0.03268 -0.07737,0.0567 -0.09804,0.09804 -0.01461,0.02923 0.01462,0.06881 0,0.09804 -0.04134,0.08267 -0.154742,0.113405 -0.196078,0.196078 -0.01461,0.02923 0.02311,0.07493 0,0.09804 -0.04622,0.04622 -0.149863,-0.04622 -0.196079,0 -0.02311,0.02311 0.02311,0.07493 0,0.09804 -0.202847,0.202847 0.0079,-0.309977 -0.196078,0.09804 -0.02923,0.05846 0.04622,0.149862 0,0.196079 -0.02311,0.02311 -0.06881,-0.01461 -0.09804,0 -0.08267,0.04134 -0.113404,0.154741 -0.196078,0.196078 -0.05846,0.02923 -0.149862,-0.04622 -0.196078,0 -0.02311,0.02311 0.02311,0.07493 0,0.09804 -0.02311,0.02311 -0.07493,-0.02311 -0.09804,0 -0.163934,0.163935 0.163935,0.03214 0,0.196079 -0.02311,0.02311 -0.07493,-0.02311 -0.09804,0 -0.02311,0.02311 0.02311,0.07493 0,0.09804 -0.02311,0.02311 -0.06881,-0.01461 -0.09804,0 -0.04134,0.02067 -0.0567,0.07737 -0.09804,0.09804 -0.02923,0.01461 -0.07493,-0.02311 -0.09804,0 -0.02311,0.02311 0.02311,0.07493 0,0.09804 -0.02311,0.02311 -0.07493,-0.02311 -0.09804,0 -0.02311,0.02311 0.01461,0.06881 0,0.09804 -0.05217,0.104348 -0.143904,0.09173 -0.196078,0.196079 -0.01462,0.02923 0.02311,0.07493 0,0.09804 -0.04622,0.04622 -0.149862,-0.04622 -0.196079,0 -0.02311,0.02311 0.02311,0.07493 0,0.09804 -0.202846,0.202847 0.0079,-0.309976 -0.196078,0.09804 -0.01461,0.02923 0.01461,0.06881 0,0.09804 -0.02067,0.04134 -0.06536,0.06536 -0.09804,0.09804 -0.03268,0.03268 -0.0567,0.07737 -0.09804,0.09804 -0.261438,0 0.03268,-0.03268 -0.09804,0.09804 -0.02311,0.02311 -0.07493,-0.02311 -0.09804,0 -0.02311,0.02311 0.02311,0.07493 0,0.09804 -0.04622,0.04622 -0.149862,-0.04622 -0.196078,0 -0.163935,0.163934 0.163934,0.03214 0,0.196078 -0.02311,0.02311 -0.07493,-0.02311 -0.09804,0 -0.02311,0.02311 0.01462,0.06881 0,0.09804 -0.04134,0.08267 -0.154741,0.113405 -0.196078,0.196079 -0.01461,0.02923 0.02311,0.07493 0,0.09804 -0.202847,0.202847 0.0079,-0.309977 -0.196078,0.09804 -0.01461,0.02923 0.01461,0.06881 0,0.09804 -0.02067,0.04134 -0.07737,0.0567 -0.09804,0.09804 -0.01461,0.02923 0.01461,0.06881 0,0.09804 -0.02067,0.04134 -0.06536,0.06536 -0.09804,0.09804 -0.03268,0.03268 -0.0567,0.07737 -0.09804,0.09804 -0.02923,0.01461 -0.07493,-0.02311 -0.09804,0 -0.02311,0.02311 0.01461,0.06881 0,0.09804 -0.204008,0.408016 0.0068,-0.104807 -0.196079,0.09804 -0.02311,0.02311 0.01461,0.06881 0,0.09804 -0.02067,0.04134 -0.07737,0.0567 -0.09804,0.09804 -0.01461,0.02923 0.02311,0.07493 0,0.09804 -0.02311,0.02311 -0.06881,-0.01461 -0.09804,0 -0.325155,0.325155 0.09243,-0.04622 -0.196079,0.09804 -0.408015,0.204007 0.104808,-0.0068 -0.09804,0.196078 -0.02311,0.02311 -0.07493,-0.02311 -0.09804,0 -0.02311,0.02311 0.01461,0.06881 0,0.09804 -0.02067,0.04134 -0.07737,0.0567 -0.09804,0.09804 -0.01461,0.02923 0.02311,0.07493 0,0.09804 -0.02311,0.02311 -0.07493,-0.02311 -0.09804,0 -0.02311,0.02311 0.01461,0.06881 0,0.09804 -0.04134,0.08267 -0.154742,0.113404 -0.196079,0.196078 -0.01462,0.02923 0.01461,0.06881 0,0.09804 -0.204008,0.408016 0.0068,-0.104807 -0.196078,0.09804 -0.02311,0.02311 0.02311,0.07493 0,0.09804 -0.02311,0.02311 -0.07493,-0.02311 -0.09804,0 -0.02311,0.02311 0.02311,0.07493 0,0.09804 -0.02311,0.02311 -0.07493,-0.02311 -0.09804,0 -0.02311,0.02311 0.02311,0.07493 0,0.09804 -0.02311,0.02311 -0.07493,-0.02311 -0.09804,0 -0.02311,0.02311 0.01462,0.06881 0,0.09804 -0.05882,0.117647 -0.235294,0.17647 -0.294118,0.294117 -0.01461,0.02923 0.02311,0.07493 0,0.09804 -0.02311,0.02311 -0.07493,-0.02311 -0.09804,0 -0.02311,0.02311 0.02311,0.07493 0,0.09804 -0.202846,0.202846 0.0079,-0.309977 -0.196078,0.09804 -0.01461,0.02923 0.02311,0.07493 0,0.09804 -0.02311,0.02311 -0.07493,-0.02311 -0.09804,0 -0.02311,0.02311 0.02311,0.07493 0,0.09804 -0.02311,0.02311 -0.07493,-0.02311 -0.09804,0 -0.02311,0.02311 0.02311,0.07493 0,0.09804 -0.02311,0.02311 -0.07493,-0.02311 -0.09804,0 -0.02311,0.02311 0.02311,0.07493 0,0.09804 -0.02311,0.02311 -0.07493,-0.02311 -0.09804,0 -0.02311,0.02311 0.02311,0.07493 0,0.09804 -0.02311,0.02311 -0.07493,-0.02311 -0.09804,0 -0.02311,0.02311 0,0.06536 0,0.09804 -0.03268,0 -0.06881,-0.01461 -0.09804,0 -0.408015,0.204008 0.104808,-0.0068 -0.09804,0.196079 -0.02311,0.02311 -0.06881,-0.01461 -0.09804,0 -0.408016,0.204007 0.104807,-0.0068 -0.09804,0.196078 -0.02311,0.02311 -0.07493,-0.02311 -0.09804,0 -0.02311,0.02311 0.02311,0.07493 0,0.09804 -0.02311,0.02311 -0.07493,-0.02311 -0.09804,0 -0.02311,0.02311 0.01461,0.06881 0,0.09804 -0.204007,0.408016 0.0068,-0.104807 -0.196078,0.09804 -0.02311,0.02311 0.02311,0.07493 0,0.09804 -0.202847,0.202846 0.0079,-0.309977 -0.196078,0.09804 -0.02923,0.05846 0.04622,0.149862 0,0.196079 -0.02311,0.02311 -0.07493,-0.02311 -0.09804,0 -0.02311,0.02311 0.02311,0.07493 0,0.09804 -0.02311,0.02311 -0.06536,0 -0.09804,0 0,0.03268 0.01462,0.06881 0,0.09804 -0.204008,0.408016 0.0068,-0.104807 -0.196078,0.09804 -0.02311,0.02311 0.02311,0.07493 0,0.09804 -0.02311,0.02311 -0.07493,-0.02311 -0.09804,0 -0.02311,0.02311 0.01461,0.06881 0,0.09804 -0.04134,0.08267 -0.154741,0.113404 -0.196078,0.196078 -0.01462,0.02923 0.02311,0.07493 0,0.09804 -0.02311,0.02311 -0.06881,-0.01461 -0.09804,0 -0.04134,0.02067 -0.0567,0.07737 -0.09804,0.09804 -0.05846,0.02923 -0.149863,-0.04622 -0.196079,0 -0.04622,0.04622 0.04622,0.149863 0,0.196079 -0.02311,0.02311 -0.07493,-0.02311 -0.09804,0 -0.02311,0.02311 0.02311,0.07493 0,0.09804 -0.02311,0.02311 -0.07493,-0.02311 -0.09804,0 -0.02311,0.02311 0.02311,0.07493 0,0.09804 -0.02311,0.02311 -0.06881,-0.01461 -0.09804,0 -0.08267,0.04134 -0.113405,0.154742 -0.196079,0.196079 -0.02923,0.01461 -0.07493,-0.02311 -0.09804,0 -0.02311,0.02311 0.02311,0.07493 0,0.09804 -0.02311,0.02311 -0.07493,-0.02311 -0.09804,0 -0.02311,0.02311 0.02311,0.07493 0,0.09804 -0.02311,0.02311 -0.07493,-0.02311 -0.09804,0 -0.02311,0.02311 0.02311,0.07493 0,0.09804 -0.02311,0.02311 -0.07493,-0.02311 -0.09804,0 -0.02311,0.02311 0.02311,0.07493 0,0.09804 -0.02311,0.02311 -0.06536,0 -0.09804,0 0,0.03268 0.01462,0.06881 0,0.09804 -0.204008,0.408016 0.0068,-0.104808 -0.196078,0.09804 -0.02311,0.02311 0.02311,0.07493 0,0.09804 -0.202847,0.202847 0.0079,-0.309976 -0.196079,0.09804 -0.01462,0.02923 0.02311,0.07493 0,0.09804 -0.02311,0.02311 -0.07493,-0.02311 -0.09804,0 -0.02311,0.02311 0.02311,0.07493 0,0.09804 -0.02311,0.02311 -0.06881,-0.01462 -0.09804,0 -0.04134,0.02067 -0.0567,0.07737 -0.09804,0.09804 -0.02923,0.01461 -0.07493,-0.02311 -0.09804,0 -0.02311,0.02311 0.02311,0.07493 0,0.09804 -0.04902,0.04902 -0.245098,-0.04902 -0.294117,0 -0.02311,0.02311 0.02311,0.07493 0,0.09804 -0.02311,0.02311 -0.07493,-0.02311 -0.09804,0 -0.02311,0.02311 0,0.06536 0,0.09804 -0.03268,0 -0.07493,-0.02311 -0.09804,0 -0.02311,0.02311 0.02311,0.07493 0,0.09804 -0.02311,0.02311 -0.07493,-0.02311 -0.09804,0 -0.2028466,0.202847 0.309977,-0.0079 -0.098039,0.196078 -0.058459,0.02923 -0.1498623,-0.04622 -0.1960784,0 -0.023108,0.02311 0.023108,0.07493 0,0.09804 -0.023108,0.02311 -0.074931,-0.02311 -0.098039,0 -0.023108,0.02311 0.023108,0.07493 0,0.09804 -0.023108,0.02311 -0.074931,-0.02311 -0.098039,0 -0.046216,0.04622 0.046216,0.149862 0,0.196078 -0.023108,0.02311 -0.074931,-0.02311 -0.098039,0 -0.023108,0.02311 0.023108,0.07493 0,0.09804 -0.023108,0.02311 -0.074931,-0.02311 -0.098039,0 -0.023108,0.02311 0.023108,0.07493 0,0.09804 -0.04902,0.04902 -0.245098,-0.04902 -0.2941177,0 -0.023108,0.02311 0.023108,0.07493 0,0.09804 -0.023108,0.02311 -0.074931,-0.02311 -0.098039,0 -0.046216,0.04622 0.02923,0.137619 0,0.196078 C 8.9085534,54.731913 8.6534814,54.986985 8.627451,55 c -0.02923,0.01461 -0.06881,-0.01461 -0.098039,0 -0.041337,0.02067 -0.065359,0.06536 -0.098039,0.09804 -0.03268,0.03268 -0.077371,0.0567 -0.098039,0.09804 -0.014615,0.02923 0.014615,0.06881 0,0.09804 -0.020668,0.04134 -0.077371,0.0567 -0.098039,0.09804 -0.014615,0.02923 0.023108,0.07493 0,0.09804 -0.046216,0.04622 -0.1498623,-0.04622 -0.1960784,0 -0.023108,0.02311 0.023108,0.07493 0,0.09804 -0.046216,0.04622 -0.1498623,-0.04622 -0.1960784,0 -0.023108,0.02311 0.023108,0.07493 0,0.09804 -0.023108,0.02311 -0.074931,-0.02311 -0.098039,0 -0.046216,0.04622 0.02923,0.137619 0,0.196078 -0.013015,0.02603 -0.2680871,0.281102 -0.2941176,0.294118 -0.02923,0.01461 -0.06881,-0.01461 -0.098039,0 -0.041337,0.02067 -0.06536,0.06536 -0.098039,0.09804 -0.03268,0.03268 -0.077371,0.0567 -0.098039,0.09804 -0.014615,0.02923 0.014615,0.06881 0,0.09804 -0.020668,0.04134 -0.065359,0.06536 -0.098039,0.09804 -0.03268,0.03268 -0.056702,0.07737 -0.098039,0.09804 -0.02923,0.01461 -0.074931,-0.02311 -0.098039,0 -0.023108,0.02311 0.014615,0.06881 0,0.09804 -0.041337,0.08267 -0.1547415,0.113404 -0.1960784,0.196078 -0.02923,0.05846 0.02923,0.137619 0,0.196079 -0.2040079,0.408015 0.00677,-0.104808 -0.1960785,0.09804 -0.023108,0.02311 0.023108,0.07493 0,0.09804 -0.023108,0.02311 -0.068809,-0.01461 -0.098039,0 -0.4080157,0.204008 0.1048074,-0.0068 -0.098039,0.196079 -0.023108,0.02311 -0.074931,-0.02311 -0.098039,0 -0.023108,0.02311 0.023108,0.07493 0,0.09804 -0.023108,0.02311 -0.074931,-0.02311 -0.098039,0 -0.046216,0.04622 0.046216,0.149862 0,0.196078 -0.023108,0.02311 -0.06881,-0.01461 -0.098039,0 -0.2167701,0.108385 -0.030424,0.06085 -0.098039,0.196079 -0.013015,0.02603 -0.2680871,0.281102 -0.2941176,0.294117 -0.02923,0.01461 -0.074931,-0.02311 -0.098039,0 -0.046216,0.04622 0.046216,0.149863 0,0.196079 -0.023108,0.02311 -0.074931,-0.02311 -0.098039,0 -0.023108,0.02311 0.023108,0.07493 0,0.09804 -0.023108,0.02311 -0.074931,-0.02311 -0.098039,0 -0.023108,0.02311 0.023108,0.07493 0,0.09804 -0.2028466,0.202847 0.00793,-0.309976 -0.1960784,0.09804 -0.014615,0.02923 0.023108,0.07493 0,0.09804 -0.023108,0.02311 -0.074931,-0.02311 -0.098039,0 -0.023108,0.02311 0.023108,0.07493 0,0.09804 -0.023108,0.02311 -0.074931,-0.02311 -0.098039,0 -0.046216,0.04622 0.046216,0.149862 0,0.196078 -0.046216,0.04622 -0.1498623,-0.04622 -0.1960784,0 -0.023108,0.02311 0.023108,0.07493 0,0.09804 -0.023108,0.02311 -0.074931,-0.02311 -0.098039,0 -0.023108,0.02311 0.023108,0.07493 0,0.09804 -0.023108,0.02311 -0.074931,-0.02311 -0.098039,0 -0.2028466,0.202846 0.3099765,-0.0079 -0.098039,0.196078 -0.02923,0.01461 -0.074931,-0.02311 -0.098039,0 -0.046216,0.04622 0.02923,0.137619 0,0.196079 -0.2040079,0.408015 0.00677,-0.104808 -0.1960784,0.09804 -0.046216,0.04622 0.046216,0.149862 0,0.196078 -0.046216,0.04622 -0.1498623,-0.04622 -0.1960785,0 -0.023108,0.02311 0.014615,0.06881 0,0.09804 -0.020669,0.04134 -0.077371,0.0567 -0.098039,0.09804 -0.014615,0.02923 0.023108,0.07493 0,0.09804 -0.023108,0.02311 -0.074931,-0.02311 -0.098039,0 -0.04902,0.04902 0.04902,0.245098 0,0.294118 -0.023108,0.02311 -0.06536,0 -0.098039,0 -0.1196746,0 -0.2260764,-0.03804 -0.2941177,0.09804 -0.02923,0.05846 0.02923,0.137619 0,0.196078 -0.020668,0.04134 -0.077371,0.0567 -0.098039,0.09804 -0.02923,0.05846 0.046216,0.149863 0,0.196079 -0.023108,0.02311 -0.06881,-0.01461 -0.098039,0 -0.041337,0.02067 -0.056702,0.07737 -0.098039,0.09804 -0.02923,0.01461 -0.074931,-0.02311 -0.098039,0 -0.023108,0.02311 0.023108,0.07493 0,0.09804 -0.023108,0.02311 -0.074931,-0.02311 -0.098039,0 -0.023108,0.02311 0.023108,0.07493 0,0.09804 -0.023108,0.02311 -0.074931,-0.02311 -0.098039,0 -0.046216,0.04622 0.046216,0.149863 0,0.196079 -0.023108,0.02311 -0.074931,-0.02311 -0.098039,0 -0.023108,0.02311 0.023108,0.07493 0,0.09804 -0.023108,0.02311 -0.074931,-0.02311 -0.098039,0 -0.023108,0.02311 0.023108,0.07493 0,0.09804 -0.023108,0.02311 -0.074931,-0.02311 -0.098039,0 -0.023108,0.02311 0.023108,0.07493 0,0.09804 -0.023108,0.02311 -0.074931,-0.02311 -0.098039,0 -0.023108,0.02311 0.023108,0.07493 0,0.09804 -0.023108,0.02311 -0.074931,-0.02311 -0.098039,0 -0.023108,0.02311 0.023108,0.07493 0,0.09804 -0.023108,0.02311 -0.074931,-0.02311 -0.098039,0 -0.023108,0.02311 0.023108,0.07493 0,0.09804 -0.023108,0.02311 -0.074931,-0.02311 -0.098039,0 -0.023108,0.02311 0.023108,0.07493 0,0.09804 -0.023108,0.02311 -0.074931,-0.02311 -0.098039,0 -0.023108,0.02311 0.023108,0.07493 0,0.09804 -0.023108,0.02311 -0.074931,-0.02311 -0.098039,0 -0.023108,0.02311 0.023108,0.07493 0,0.09804 -0.023108,0.02311 -0.074931,-0.02311 -0.098039,0 -0.023108,0.02311 0.023108,0.07493 0,0.09804 -0.2028466,0.202847 0.00793,-0.309976 -0.1960784,0.09804 -0.014615,0.02923 0.023108,0.07493 0,0.09804 -0.04902,0.04902 -0.2450981,-0.04902 -0.2941177,0 -0.023108,0.02311 0.023108,0.07493 0,0.09804 -0.04902,0.04902 -0.245098,-0.04902 -0.29411764,0 -0.0462161,0.04622 0.0653594,0.196078 0,0.196078 -0.0326797,0 1.27450984,-1.928105 1.27450984,-1.960785"
       id="path3085"
       inkscape:connector-curvature="0"
       transform="translate(0,972.3622)"
       sodipodi:nodetypes="ccsccccsscssssscsssscssssscsssssscccsssssssccssscsssscsccccssccssccssssssscscsccssccsscscscsssccsssscscssssscsssssccsssscssscscsscsssscsssscssccccsssssscsssssssscscssssccscccsssccccssssscscssssssssccssccssssccscccccscscsscsssccccccsscsssssccsssssccsscscsccsccscsssssscssssscccsscscccssccsssccscscssssscssssccccscsssssscsccsssssscsccsssscsssscsccscssccsssssssscsscccccscsssssssscsssccscsssssscscssssccccsccsccccscscsccsssscssscsscscsccscsssccssssscsccsscscsccssssccsssssccscsssssssccscsscsccsssssccssscssccccscccscccscscccscsssssccsssccscsccscssscssccsccccscsccccscccsccssccccssssssccssscsssssssssscccccsssccsccsscccssccscsccssssccsssssssscccscsssccssssscssscssssscsssccsscccscccssssssscccccscscsscsccsssccscscssscssssscssssccssccsccsccsscccccssssscssssssssssssssssssscsccccsc" />
    <path
       style="opacity:0.8;color:#000000;fill:none;stroke:#bf0000;stroke-width:1;stroke-linecap:round;stroke-linejoin:round;stroke-miterlimit:4;stroke-opacity:1;stroke-dasharray:none;stroke-dashoffset:0;marker:none;visibility:visible;display:inline;overflow:visible;enable-background:accumulate"
       d="m 63.235294,16.764706 c -0.130719,0.130719 -1.535948,3.006536 -1.666667,3.137255 0,0.03268 1.28912,-2.676288 1.27451,-2.647058 -0.02067,0.04134 -0.06536,0.06536 -0.09804,0.09804 -0.03268,0.03268 -0.0567,0.07737 -0.09804,0.09804 -0.02923,0.01461 -0.07493,-0.02311 -0.09804,0 -0.04622,0.04622 0.04622,0.149863 0,0.196079 -0.02311,0.02311 -0.07493,-0.02311 -0.09804,0 -0.202846,0.202846 0.309977,-0.0079 -0.09804,0.196078 -0.02923,0.01462 -0.07493,-0.02311 -0.09804,0 -0.06557,0.06557 0.06557,0.130505 0,0.196079 -0.02311,0.02311 -0.06536,0 -0.09804,0 -0.03268,0 -0.07493,-0.02311 -0.09804,0 -0.02004,0.02004 0.01944,0.255246 0,0.294117 -0.02067,0.04134 -0.07737,0.0567 -0.09804,0.09804 -0.06761,0.135231 0.118731,0.08769 -0.09804,0.196078 -0.02923,0.01461 -0.07493,-0.02311 -0.09804,0 -0.02311,0.02311 0.02311,0.07493 0,0.09804 -0.02311,0.02311 -0.07493,-0.02311 -0.09804,0 -0.202847,0.202847 0.309976,-0.0079 -0.09804,0.196079 -0.02923,0.01461 -0.07493,-0.02311 -0.09804,0 -0.04622,0.04622 0.04622,0.149862 0,0.196078 -0.04622,0.04622 -0.149862,-0.04622 -0.196078,0 -0.02311,0.02311 0.02311,0.07493 0,0.09804 -0.202847,0.202847 0.0079,-0.309976 -0.196079,0.09804 -0.02923,0.05846 0.04622,0.149863 0,0.196079 -0.02311,0.02311 -0.07493,-0.02311 -0.09804,0 -0.02311,0.02311 0.02311,0.07493 0,0.09804 -0.02311,0.02311 -0.07493,-0.02311 -0.09804,0 -0.02311,0.02311 0.02311,0.07493 0,0.09804 -0.26158,0.261581 0.0655,-0.26158 -0.196078,0 -0.02311,0.02311 0.02311,0.07493 0,0.09804 -0.02311,0.02311 -0.07493,-0.02311 -0.09804,0 -0.02311,0.02311 0.02311,0.07493 0,0.09804 -0.02311,0.02311 -0.06881,-0.01461 -0.09804,0 -0.04134,0.02067 -0.06536,0.06536 -0.09804,0.09804 -0.03268,0.03268 -0.07737,0.0567 -0.09804,0.09804 -0.01461,0.02923 0.02311,0.07493 0,0.09804 -0.02311,0.02311 -0.07493,-0.02311 -0.09804,0 -0.02311,0.02311 0.02311,0.07493 0,0.09804 -0.02004,0.02004 -0.255245,-0.01944 -0.294117,0 -0.04134,0.02067 -0.0567,0.07737 -0.09804,0.09804 -0.02923,0.01461 -0.07493,-0.02311 -0.09804,0 -0.262295,0.262295 0.262295,-0.06622 0,0.196078 -0.02311,0.02311 -0.06881,-0.01462 -0.09804,0 -0.04134,0.02067 -0.0567,0.07737 -0.09804,0.09804 -0.05846,0.02923 -0.149862,-0.04622 -0.196079,0 -0.02311,0.02311 0.02311,0.07493 0,0.09804 -0.02311,0.02311 -0.07493,-0.02311 -0.09804,0 -0.02311,0.02311 0.02311,0.07493 0,0.09804 -0.262295,0.262295 0.06622,-0.262295 -0.196078,0 -0.05167,0.05167 -0.04637,0.144407 -0.09804,0.196078 -0.04622,0.04622 -0.149863,-0.04622 -0.196079,0 -0.02311,0.02311 0.02311,0.07493 0,0.09804 -0.02311,0.02311 -0.07493,-0.02311 -0.09804,0 -0.04622,0.04622 0.04622,0.149862 0,0.196078 -0.02311,0.02311 -0.06881,-0.01461 -0.09804,0 -0.04134,0.02067 -0.0567,0.07737 -0.09804,0.09804 -0.05846,0.02923 -0.149863,-0.04622 -0.196079,0 -0.02311,0.02311 0.01461,0.06881 0,0.09804 -0.02067,0.04134 -0.06536,0.06536 -0.09804,0.09804 -0.03268,0.03268 -0.0567,0.07737 -0.09804,0.09804 -0.02923,0.01461 -0.07493,-0.02311 -0.09804,0 -0.02311,0.02311 0.02311,0.07493 0,0.09804 -0.02311,0.02311 -0.07493,-0.02311 -0.09804,0 -0.02311,0.02311 0.02311,0.07493 0,0.09804 -0.02311,0.02311 -0.07493,-0.02311 -0.09804,0 -0.02311,0.02311 0.02311,0.07493 0,0.09804 -0.04902,0.04902 -0.245098,-0.04902 -0.294118,0 -0.04622,0.04622 0.04622,0.149862 0,0.196078 -0.02311,0.02311 -0.07493,-0.02311 -0.09804,0 -0.02311,0.02311 0.02311,0.07493 0,0.09804 -0.04622,0.04622 -0.149862,-0.04622 -0.196078,0 -0.02311,0.02311 0.02311,0.07493 0,0.09804 -0.02311,0.02311 -0.07493,-0.02311 -0.09804,0 -0.02311,0.02311 0.02311,0.07493 0,0.09804 -0.04622,0.04622 -0.149863,-0.04622 -0.196079,0 -0.02311,0.02311 0.02311,0.07493 0,0.09804 -0.02311,0.02311 -0.07493,-0.02311 -0.09804,0 -0.02311,0.02311 0.02311,0.07493 0,0.09804 -0.02311,0.02311 -0.07493,-0.02311 -0.09804,0 -0.02311,0.02311 0.02311,0.07493 0,0.09804 -0.04622,0.04622 -0.149863,-0.04622 -0.196079,0 -0.02311,0.02311 0.02311,0.07493 0,0.09804 -0.02311,0.02311 -0.07493,-0.02311 -0.09804,0 -0.02311,0.02311 0.02311,0.07493 0,0.09804 -0.02311,0.02311 -0.07493,-0.02311 -0.09804,0 -0.02311,0.02311 0.02311,0.07493 0,0.09804 -0.04622,0.04622 -0.149862,-0.04622 -0.196079,0 -0.02311,0.02311 0.02311,0.07493 0,0.09804 -0.02311,0.02311 -0.07493,-0.02311 -0.09804,0 -0.02311,0.02311 0.02311,0.07493 0,0.09804 -0.02311,0.02311 -0.06881,-0.01461 -0.09804,0 -0.408016,0.204008 0.104807,-0.0068 -0.09804,0.196079 -0.02311,0.02311 -0.07493,-0.02311 -0.09804,0 -0.02311,0.02311 0.02311,0.07493 0,0.09804 -0.02311,0.02311 -0.07493,-0.02311 -0.09804,0 -0.02311,0.02311 0.02311,0.07493 0,0.09804 -0.04622,0.04622 -0.137619,-0.02923 -0.196078,0 -0.04134,0.02067 -0.0567,0.07737 -0.09804,0.09804 -0.02923,0.01461 -0.07493,-0.02311 -0.09804,0 -0.04622,0.04622 0.04622,0.149863 0,0.196079 -0.02311,0.02311 -0.07493,-0.02311 -0.09804,0 -0.02311,0.02311 0.02311,0.07493 0,0.09804 -0.02311,0.02311 -0.07493,-0.02311 -0.09804,0 -0.02311,0.02311 0.02311,0.07493 0,0.09804 -0.02311,0.02311 -0.07493,-0.02311 -0.09804,0 -0.02311,0.02311 0.02311,0.07493 0,0.09804 -0.06557,0.06557 -0.130505,-0.06557 -0.196079,0 -0.02311,0.02311 0.02311,0.07493 0,0.09804 -0.02311,0.02311 -0.07493,-0.02311 -0.09804,0 -0.06557,0.06557 0.06557,0.130504 0,0.196078 -0.02311,0.02311 -0.07493,-0.02311 -0.09804,0 -0.02311,0.02311 0.02311,0.07493 0,0.09804 -0.02311,0.02311 -0.07493,-0.02311 -0.09804,0 -0.02311,0.02311 0.02311,0.07493 0,0.09804 -0.02311,0.02311 -0.07493,-0.02311 -0.09804,0 -0.02311,0.02311 0.02311,0.07493 0,0.09804 -0.04622,0.04622 -0.149862,-0.04622 -0.196078,0 -0.02311,0.02311 0.02311,0.07493 0,0.09804 -0.02311,0.02311 -0.07493,-0.02311 -0.09804,0 -0.04622,0.04622 0.02923,0.137619 0,0.196078 -0.02067,0.04134 -0.06536,0.06536 -0.09804,0.09804 -0.03268,0.03268 -0.0567,0.07737 -0.09804,0.09804 -0.02923,0.01461 -0.07493,-0.02311 -0.09804,0 -0.02311,0.02311 0.02311,0.07493 0,0.09804 -0.02311,0.02311 -0.07493,-0.02311 -0.09804,0 -0.02311,0.02311 0.02311,0.07493 0,0.09804 -0.02311,0.02311 -0.07493,-0.02311 -0.09804,0 -0.02311,0.02311 0.02311,0.07493 0,0.09804 -0.02311,0.02311 -0.07493,-0.02311 -0.09804,0 -0.04902,0.04902 0.04902,0.245098 0,0.294117 -0.04622,0.04622 -0.149863,-0.04622 -0.196079,0 -0.04622,0.04622 0.04622,0.149862 0,0.196079 -0.02311,0.02311 -0.07493,-0.02311 -0.09804,0 -0.02311,0.02311 0.02311,0.07493 0,0.09804 -0.02311,0.02311 -0.07493,-0.02311 -0.09804,0 -0.02311,0.02311 0.02311,0.07493 0,0.09804 -0.02311,0.02311 -0.07493,-0.02311 -0.09804,0 -0.02311,0.02311 0.02311,0.07493 0,0.09804 -0.02311,0.02311 -0.07493,-0.02311 -0.09804,0 -0.26158,0.261581 0.261581,-0.0655 0,0.196079 -0.02311,0.02311 -0.07493,-0.02311 -0.09804,0 -0.02311,0.02311 0.02311,0.07493 0,0.09804 -0.02311,0.02311 -0.07493,-0.02311 -0.09804,0 -0.02311,0.02311 0.02311,0.07493 0,0.09804 -0.02311,0.02311 -0.07493,-0.02311 -0.09804,0 -0.02311,0.02311 0.02311,0.07493 0,0.09804 -0.02311,0.02311 -0.07493,-0.02311 -0.09804,0 -0.02311,0.02311 0.01461,0.06881 0,0.09804 -0.02067,0.04134 -0.07737,0.0567 -0.09804,0.09804 -0.01461,0.02923 0.02311,0.07493 0,0.09804 -0.02311,0.02311 -0.07493,-0.02311 -0.09804,0 -0.02311,0.02311 0.02311,0.07493 0,0.09804 -0.02311,0.02311 -0.07493,-0.02311 -0.09804,0 -0.02311,0.02311 0.02311,0.07493 0,0.09804 -0.02311,0.02311 -0.07493,-0.02311 -0.09804,0 -0.02311,0.02311 0.02311,0.07493 0,0.09804 -0.02311,0.02311 -0.07493,-0.02311 -0.09804,0 -0.02311,0.02311 0.02311,0.07493 0,0.09804 -0.02311,0.02311 -0.07493,-0.02311 -0.09804,0 -0.02311,0.02311 0.02311,0.07493 0,0.09804 -0.02311,0.02311 -0.07493,-0.02311 -0.09804,0 -0.04622,0.04622 0.02923,0.137619 0,0.196078 -0.0227,0.0454 -0.334496,0.334496 -0.392157,0.392157 -0.03268,0.03268 -0.07737,0.0567 -0.09804,0.09804 -0.01461,0.02923 0.02311,0.07493 0,0.09804 -0.02311,0.02311 -0.07493,-0.02311 -0.09804,0 -0.04622,0.04622 0.02923,0.137619 0,0.196078 -0.204008,0.408016 0.0068,-0.104807 -0.196079,0.09804 -0.02311,0.02311 0.02311,0.07493 0,0.09804 -0.02311,0.02311 -0.06881,-0.01462 -0.09804,0 -0.04134,0.02067 -0.06536,0.06536 -0.09804,0.09804 -0.03268,0.03268 -0.07737,0.0567 -0.09804,0.09804 -0.01461,0.02923 0.02311,0.07493 0,0.09804 -0.02311,0.02311 -0.07493,-0.02311 -0.09804,0 -0.04622,0.04622 0.04622,0.149863 0,0.196079 -0.02311,0.02311 -0.07493,-0.02311 -0.09804,0 -0.02359,0.02359 0.02359,0.368565 0,0.392157 -0.02311,0.02311 -0.07493,-0.02311 -0.09804,0 -0.02311,0.02311 0.02311,0.07493 0,0.09804 -0.202847,0.202846 0.0079,-0.309977 -0.196079,0.09804 -0.0539,0.107804 0.09442,0.19789 -0.09804,0.294118 -0.261438,0 0.03268,-0.03268 -0.09804,0.09804 -0.02311,0.02311 -0.07493,-0.02311 -0.09804,0 -0.196722,0.196721 0.196721,-6.43e-4 0,0.196078 -0.02311,0.02311 -0.07493,-0.02311 -0.09804,0 -0.02311,0.02311 0.02311,0.07493 0,0.09804 -0.02311,0.02311 -0.07493,-0.02311 -0.09804,0 -0.02311,0.02311 0.02311,0.07493 0,0.09804 -0.02311,0.02311 -0.07493,-0.02311 -0.09804,0 -0.02311,0.02311 0.02311,0.07493 0,0.09804 -0.02311,0.02311 -0.07493,-0.02311 -0.09804,0 -0.196721,0.196721 0.196721,-6.43e-4 0,0.196078 -0.02311,0.02311 -0.07493,-0.02311 -0.09804,0 -0.02311,0.02311 0.02311,0.07493 0,0.09804 -0.04622,0.04622 -0.149863,-0.04622 -0.196079,0 -0.02311,0.02311 0.02311,0.07493 0,0.09804 -0.02311,0.02311 -0.07493,-0.02311 -0.09804,0 -0.202847,0.202846 0.309977,-0.0079 -0.09804,0.196078 -0.02923,0.01461 -0.07493,-0.02311 -0.09804,0 -0.261581,0.261581 0.26158,-0.0655 0,0.196079 -0.196186,0.196185 1.06e-4,-0.196186 -0.196079,0 -0.02311,0.02311 0.01461,0.06881 0,0.09804 -0.204008,0.408016 0.0068,-0.104808 -0.196078,0.09804 -0.02311,0.02311 0.01461,0.06881 0,0.09804 -0.02067,0.04134 -0.07737,0.0567 -0.09804,0.09804 -0.01461,0.02923 0.02311,0.07493 0,0.09804 -0.02311,0.02311 -0.07493,-0.02311 -0.09804,0 -0.02311,0.02311 0.02311,0.07493 0,0.09804 -0.02311,0.02311 -0.07493,-0.02311 -0.09804,0 -0.02311,0.02311 0.02311,0.07493 0,0.09804 -0.02311,0.02311 -0.06881,-0.01461 -0.09804,0 -0.08267,0.04134 -0.113405,0.154742 -0.196079,0.196079 -0.02923,0.01461 -0.07493,-0.02311 -0.09804,0 -0.02311,0.02311 0.02311,0.07493 0,0.09804 -0.02311,0.02311 -0.07493,-0.02311 -0.09804,0 -0.262295,0.262295 0.262295,-0.06622 0,0.196078 -0.04622,0.04622 -0.149862,-0.04622 -0.196078,0 -0.02311,0.02311 0.02311,0.07493 0,0.09804 -0.02311,0.02311 -0.07493,-0.02311 -0.09804,0 -0.02311,0.02311 0.02311,0.07493 0,0.09804 -0.04622,0.04622 -0.149862,-0.04622 -0.196078,0 -0.02311,0.02311 0.02311,0.07493 0,0.09804 -0.02311,0.02311 -0.07493,-0.02311 -0.09804,0 -0.202847,0.202847 0.309976,-0.0079 -0.09804,0.196078 -0.02923,0.01461 -0.07493,-0.02311 -0.09804,0 -0.02311,0.02311 0.02311,0.07493 0,0.09804 -0.02311,0.02311 -0.06881,-0.01461 -0.09804,0 -0.04134,0.02067 -0.0567,0.07737 -0.09804,0.09804 -0.02923,0.01461 -0.07493,-0.02311 -0.09804,0 -0.02311,0.02311 0.02311,0.07493 0,0.09804 -0.02311,0.02311 -0.07493,-0.02311 -0.09804,0 -0.02311,0.02311 0.01461,0.06881 0,0.09804 -0.01301,0.02603 -0.268087,0.281103 -0.294117,0.294118 -0.02923,0.01461 -0.06881,-0.01461 -0.09804,0 -0.216771,0.108385 -0.03042,0.06085 -0.09804,0.196078 -0.02067,0.04134 -0.06536,0.06536 -0.09804,0.09804 -0.03268,0.03268 -0.06536,0.06536 -0.09804,0.09804 -0.03268,0.03268 -0.06536,0.06536 -0.09804,0.09804 -0.03268,0.03268 -0.0567,0.07737 -0.09804,0.09804 -0.135232,0.06762 -0.08769,-0.118731 -0.196079,0.09804 -0.02923,0.05846 0.04622,0.149863 0,0.196079 -0.02311,0.02311 -0.07493,-0.02311 -0.09804,0 -0.02311,0.02311 0.02311,0.07493 0,0.09804 -0.02311,0.02311 -0.06881,-0.01461 -0.09804,0 -0.04134,0.02067 -0.0567,0.07737 -0.09804,0.09804 -0.05846,0.02923 -0.149862,-0.04622 -0.196078,0 -0.02311,0.02311 0.02311,0.07493 0,0.09804 -0.02311,0.02311 -0.07493,-0.02311 -0.09804,0 -0.02311,0.02311 0.01461,0.06881 0,0.09804 -0.0094,0.01877 -0.37339,0.382773 -0.392157,0.392157 -0.135231,0.06761 -0.08769,-0.118731 -0.196079,0.09804 -0.01461,0.02923 0.02311,0.07493 0,0.09804 -0.202846,0.202847 0.0079,-0.309977 -0.196078,0.09804 0,0.261438 0.03268,-0.03268 -0.09804,0.09804 -0.202847,0.202847 0.309976,-0.0079 -0.09804,0.196079 -0.05846,0.02923 -0.149863,-0.04622 -0.196079,0 -0.26158,0.26158 0.261581,-0.0655 0,0.196078 -0.02311,0.02311 -0.07493,-0.02311 -0.09804,0 -0.02311,0.02311 0.02311,0.07493 0,0.09804 -0.02311,0.02311 -0.07493,-0.02311 -0.09804,0 -0.02311,0.02311 0.02311,0.07493 0,0.09804 -0.02311,0.02311 -0.07493,-0.02311 -0.09804,0 -0.02311,0.02311 0.02311,0.07493 0,0.09804 -0.02311,0.02311 -0.06881,-0.01461 -0.09804,0 -0.0454,0.0227 -0.334495,0.334496 -0.392157,0.392157 -0.03268,0.03268 -0.0567,0.07737 -0.09804,0.09804 -0.261438,0 0.03268,-0.03268 -0.09804,0.09804 -0.02311,0.02311 -0.07493,-0.02311 -0.09804,0 -0.02311,0.02311 0.02311,0.07493 0,0.09804 -0.02311,0.02311 -0.07493,-0.02311 -0.09804,0 -0.02311,0.02311 0.02311,0.07493 0,0.09804 -0.02311,0.02311 -0.07493,-0.02311 -0.09804,0 -0.04622,0.04622 0.04622,0.149862 0,0.196078 -0.02311,0.02311 -0.07493,-0.02311 -0.09804,0 -0.02311,0.02311 0.02311,0.07493 0,0.09804 -0.02311,0.02311 -0.07493,-0.02311 -0.09804,0 -0.02311,0.02311 0.02311,0.07493 0,0.09804 -0.04622,0.04622 -0.149862,-0.04622 -0.196078,0 -0.04622,0.04622 0.04622,0.149863 0,0.196079 -0.02311,0.02311 -0.06881,-0.01462 -0.09804,0 -0.408015,0.204008 0.104808,-0.0068 -0.09804,0.196078 -0.02311,0.02311 -0.06536,0 -0.09804,0 0,0.03268 0.01462,0.06881 0,0.09804 -0.108385,0.21677 -0.06085,0.03042 -0.196079,0.09804 -0.408015,0.204008 0.104808,-0.0068 -0.09804,0.196078 -0.02311,0.02311 -0.07493,-0.02311 -0.09804,0 -0.02311,0.02311 0.02311,0.07493 0,0.09804 -0.02311,0.02311 -0.07493,-0.02311 -0.09804,0 -0.202847,0.202847 0.309976,-0.0079 -0.09804,0.196079 -0.02923,0.01461 -0.07493,-0.02311 -0.09804,0 -0.04622,0.04622 0.04622,0.149862 0,0.196078 -0.02311,0.02311 -0.07493,-0.02311 -0.09804,0 -0.02311,0.02311 0.02311,0.07493 0,0.09804 -0.02311,0.02311 -0.07493,-0.02311 -0.09804,0 -0.04622,0.04622 0.02923,0.13762 0,0.196079 -0.204008,0.408016 0.0068,-0.104807 -0.196078,0.09804 -0.02311,0.02311 0.02311,0.07493 0,0.09804 -0.02311,0.02311 -0.07493,-0.02311 -0.09804,0 0,0.261438 0.03268,-0.03268 -0.09804,0.09804 -0.02311,0.02311 0.02311,0.07493 0,0.09804 -0.02311,0.02311 -0.07493,-0.02311 -0.09804,0 -0.02311,0.02311 0.02311,0.07493 0,0.09804 -0.02311,0.02311 -0.07493,-0.02311 -0.09804,0 -0.04902,0.04902 0.04902,0.245098 0,0.294118 -0.02311,0.02311 -0.06881,-0.01461 -0.09804,0 -0.408015,0.204008 0.104808,-0.0068 -0.09804,0.196078 -0.261438,0 0.03268,-0.03268 -0.09804,0.09804 -0.02311,0.02311 -0.07493,-0.02311 -0.09804,0 -0.02311,0.02311 0.01461,0.06881 0,0.09804 -0.02067,0.04134 -0.07737,0.0567 -0.09804,0.09804 -0.01461,0.02923 0.02311,0.07493 0,0.09804 -0.02311,0.02311 -0.07493,-0.02311 -0.09804,0 -0.02311,0.02311 0.01461,0.06881 0,0.09804 -0.204008,0.408016 0.0068,-0.104807 -0.196078,0.09804 -0.02311,0.02311 0.01461,0.06881 0,0.09804 -0.02067,0.04134 -0.07737,0.0567 -0.09804,0.09804 -0.01461,0.02923 0.02311,0.07493 0,0.09804 -0.02311,0.02311 -0.07493,-0.02311 -0.09804,0 -0.02004,0.02004 0.01944,0.255246 0,0.294118 -0.02067,0.04134 -0.07737,0.0567 -0.09804,0.09804 -0.01461,0.02923 0.01461,0.06881 0,0.09804 -0.204008,0.408016 0.0068,-0.104807 -0.196078,0.09804 -0.02311,0.02311 0.02311,0.07493 0,0.09804 -0.02311,0.02311 -0.07493,-0.02311 -0.09804,0 -0.202847,0.202846 0.309976,-0.0079 -0.09804,0.196078 -0.135231,0.06762 -0.08769,-0.118731 -0.196078,0.09804 -0.01461,0.02923 0.02311,0.07493 0,0.09804 -0.02311,0.02311 -0.07493,-0.02311 -0.09804,0 -0.02311,0.02311 0.02311,0.07493 0,0.09804 -0.202847,0.202846 0.0079,-0.309977 -0.196079,0.09804 0,0.261438 0.03268,-0.03268 -0.09804,0.09804 -0.02311,0.02311 0.02311,0.07493 0,0.09804 -0.02311,0.02311 -0.07493,-0.02311 -0.09804,0 -0.02311,0.02311 0.02311,0.07493 0,0.09804 -0.02311,0.02311 -0.07493,-0.02311 -0.09804,0 -0.06557,0.06557 0.06557,0.130505 0,0.196079 -0.131148,0.131147 -0.06493,-0.131148 -0.196079,0 -0.02311,0.02311 0.02311,0.07493 0,0.09804 -0.02311,0.02311 -0.06881,-0.01462 -0.09804,0 -0.04134,0.02067 -0.06536,0.06536 -0.09804,0.09804 -0.03268,0.03268 -0.07737,0.0567 -0.09804,0.09804 -0.01461,0.02923 0.02311,0.07493 0,0.09804 -0.02311,0.02311 -0.07493,-0.02311 -0.09804,0 -0.202846,0.202846 0.309977,-0.0079 -0.09804,0.196078 -0.02923,0.01461 -0.06881,-0.01461 -0.09804,0 -0.02603,0.01302 -0.281102,0.268087 -0.294118,0.294118 -0.02923,0.05846 0.04622,0.149862 0,0.196078 -0.04902,0.04902 -0.245098,-0.04902 -0.294117,0 -0.02311,0.02311 0.02311,0.07493 0,0.09804 -0.02311,0.02311 -0.07493,-0.02311 -0.09804,0 -0.02311,0.02311 0.02311,0.07493 0,0.09804 -0.02311,0.02311 -0.07493,-0.02311 -0.09804,0 -0.02311,0.02311 0.02311,0.07493 0,0.09804 -0.02311,0.02311 -0.07493,-0.02311 -0.09804,0 -0.04622,0.04622 0.04622,0.149862 0,0.196078 -0.02311,0.02311 -0.06881,-0.01461 -0.09804,0 -0.04134,0.02067 -0.0567,0.07737 -0.09804,0.09804 -0.02923,0.01461 -0.06881,-0.01461 -0.09804,0 -0.08267,0.04134 -0.113404,0.154741 -0.196078,0.196078 -0.02923,0.01461 -0.07493,-0.02311 -0.09804,0 -0.04622,0.04622 0.04622,0.149862 0,0.196078 -0.02311,0.02311 -0.07493,-0.02311 -0.09804,0 -0.02311,0.02311 0.02311,0.07493 0,0.09804 -0.04622,0.04622 -0.149863,-0.04622 -0.196079,0 -0.02311,0.02311 0.02311,0.07493 0,0.09804 -0.02311,0.02311 -0.07493,-0.02311 -0.09804,0 -0.02311,0.02311 0.02311,0.07493 0,0.09804 -0.02311,0.02311 -0.07493,-0.02311 -0.09804,0 -0.02311,0.02311 0.02311,0.07493 0,0.09804 -0.02311,0.02311 -0.07493,-0.02311 -0.09804,0 -0.02311,0.02311 0.02311,0.07493 0,0.09804 -0.02311,0.02311 -0.07493,-0.02311 -0.09804,0 -0.02311,0.02311 0.02311,0.07493 0,0.09804 -0.02311,0.02311 -0.07493,-0.02311 -0.09804,0 -0.02311,0.02311 0.02311,0.07493 0,0.09804 -0.02311,0.02311 -0.07493,-0.02311 -0.09804,0 -0.02311,0.02311 0.02311,0.07493 0,0.09804 -0.04622,0.04622 -0.149863,-0.04622 -0.196079,0 -0.02311,0.02311 0,0.06536 0,0.09804 -0.03268,0 -0.07493,-0.02311 -0.09804,0 -0.04622,0.04622 0.02923,0.13762 0,0.196079 -0.01302,0.02603 -0.268087,0.281102 -0.294118,0.294117 -0.05846,0.02923 -0.149862,-0.04622 -0.196078,0 -0.02311,0.02311 0.02311,0.07493 0,0.09804 -0.02311,0.02311 -0.07493,-0.02311 -0.09804,0 -0.04622,0.04622 0.04622,0.149862 0,0.196078 -0.02311,0.02311 -0.06881,-0.01461 -0.09804,0 -0.04134,0.02067 -0.0567,0.07737 -0.09804,0.09804 -0.02923,0.01462 -0.07493,-0.02311 -0.09804,0 -0.02311,0.02311 0.02311,0.07493 0,0.09804 -0.02311,0.02311 -0.07493,-0.02311 -0.09804,0 -0.02311,0.02311 0.02311,0.07493 0,0.09804 -0.02311,0.02311 -0.07493,-0.02311 -0.09804,0 -0.202847,0.202846 0.309976,-0.0079 -0.09804,0.196078 -0.02923,0.01461 -0.06881,-0.01461 -0.09804,0 -0.04134,0.02067 -0.0567,0.07737 -0.09804,0.09804 -0.02923,0.01461 -0.07493,-0.02311 -0.09804,0 -0.02311,0.02311 0.02311,0.07493 0,0.09804 -0.02311,0.02311 -0.07493,-0.02311 -0.09804,0 -0.02311,0.02311 0.02311,0.07493 0,0.09804 -0.196186,0.196185 1.07e-4,-0.196185 -0.196079,0 -0.02311,0.02311 0.02311,0.07493 0,0.09804 -0.02311,0.02311 -0.06881,-0.01461 -0.09804,0 -0.04134,0.02067 -0.0567,0.07737 -0.09804,0.09804 -0.02923,0.01461 -0.07493,-0.02311 -0.09804,0 -0.02311,0.02311 0.02311,0.07493 0,0.09804 -0.02311,0.02311 -0.07493,-0.02311 -0.09804,0 -0.02311,0.02311 0.01461,0.06881 0,0.09804 -0.02067,0.04134 -0.07737,0.0567 -0.09804,0.09804 -0.01461,0.02923 0.02311,0.07493 0,0.09804 -0.196721,0.196721 6.43e-4,-0.196721 -0.196078,0 -0.02311,0.02311 0.02311,0.07493 0,0.09804 -0.02311,0.02311 -0.07493,-0.02311 -0.09804,0 -0.202847,0.202847 0.309976,-0.0079 -0.09804,0.196079 -0.05846,0.02923 -0.149862,-0.04622 -0.196078,0 -0.02311,0.02311 0.01461,0.06881 0,0.09804 -0.02067,0.04134 -0.06536,0.06536 -0.09804,0.09804 -0.03268,0.03268 -0.0567,0.07737 -0.09804,0.09804 -0.07843,0.03922 -0.215686,-0.03921 -0.294117,0 -0.21677,0.108385 -0.03042,0.06085 -0.09804,0.196079 -0.04134,0.08267 -0.154742,0.113404 -0.196079,0.196078 -0.06761,0.135231 0.118731,0.08769 -0.09804,0.196079 -0.05846,0.02923 -0.149862,-0.04622 -0.196078,0 -0.04622,0.04622 0.04622,0.149862 0,0.196078 -0.02311,0.02311 -0.06881,-0.01461 -0.09804,0 -0.04134,0.02067 -0.0567,0.07737 -0.09804,0.09804 -0.02923,0.01461 -0.07493,-0.02311 -0.09804,0 -0.02311,0.02311 0.01461,0.06881 0,0.09804 -0.02067,0.04134 -0.06536,0.06536 -0.09804,0.09804 -0.03268,0.03268 -0.0567,0.07737 -0.09804,0.09804 -0.02923,0.01461 -0.07493,-0.02311 -0.09804,0 -0.02311,0.02311 0.01461,0.06881 0,0.09804 -0.204008,0.408016 0.0068,-0.104807 -0.196078,0.09804 -0.02311,0.02311 0.02311,0.07493 0,0.09804 -0.02311,0.02311 -0.07493,-0.02311 -0.09804,0 -0.02311,0.02311 0.02311,0.07493 0,0.09804 -0.02311,0.02311 -0.07493,-0.02311 -0.09804,0 -0.02311,0.02311 0.02311,0.07493 0,0.09804 -0.04622,0.04622 -0.149862,-0.04622 -0.196078,0 -0.06522,0.06522 0.06522,0.130861 0,0.196079 -0.04622,0.04622 -0.149862,-0.04622 -0.196079,0 -0.02311,0.02311 0.02311,0.07493 0,0.09804 -0.02311,0.02311 -0.06881,-0.01461 -0.09804,0 -0.408015,0.204008 0.104808,-0.0068 -0.09804,0.196078 -0.02311,0.02311 -0.07493,-0.02311 -0.09804,0 -0.02311,0.02311 0.02311,0.07493 0,0.09804 -0.02311,0.02311 -0.06881,-0.01461 -0.09804,0 -0.08267,0.04134 -0.113405,0.154742 -0.196079,0.196079 -0.02923,0.01461 -0.06881,-0.01461 -0.09804,0 -0.08267,0.04134 -0.113405,0.154741 -0.196078,0.196078 -0.02923,0.01461 -0.07493,-0.02311 -0.09804,0 -0.202846,0.202847 0.309977,-0.0079 -0.09804,0.196079 -0.05846,0.02923 -0.137619,-0.02923 -0.196078,0 -0.08267,0.04134 -0.113405,0.154741 -0.196079,0.196078 -0.02923,0.01462 -0.07493,-0.02311 -0.09804,0 -0.02311,0.02311 0.01462,0.06881 0,0.09804 -0.02067,0.04134 -0.07737,0.0567 -0.09804,0.09804 -0.01461,0.02923 0.02311,0.07493 0,0.09804 -0.02311,0.02311 -0.06881,-0.01461 -0.09804,0 -0.04134,0.02067 -0.0567,0.07737 -0.09804,0.09804 -0.05846,0.02923 -0.149862,-0.04622 -0.196078,0 -0.02311,0.02311 0.02311,0.07493 0,0.09804 -0.02311,0.02311 -0.07493,-0.02311 -0.09804,0 -0.02311,0.02311 0.02311,0.07493 0,0.09804 -0.02311,0.02311 -0.06536,0 -0.09804,0 0,0.03268 0.01461,0.06881 0,0.09804 -0.02067,0.04134 -0.06536,0.06536 -0.09804,0.09804 -0.03268,0.03268 -0.0567,0.07737 -0.09804,0.09804 -0.02923,0.01461 -0.07493,-0.02311 -0.09804,0 -0.02311,0.02311 0.02311,0.07493 0,0.09804 -0.02311,0.02311 -0.06881,-0.01461 -0.09804,0 -0.04134,0.02067 -0.0567,0.07737 -0.09804,0.09804 -0.02923,0.01461 -0.07493,-0.02311 -0.09804,0 -0.02311,0.02311 0.02311,0.07493 0,0.09804 -0.02311,0.02311 -0.07493,-0.02311 -0.09804,0 -0.02311,0.02311 0.02311,0.07493 0,0.09804 -0.02311,0.02311 -0.06881,-0.01462 -0.09804,0 -0.04134,0.02067 -0.06536,0.06536 -0.09804,0.09804 -0.03268,0.03268 -0.07737,0.0567 -0.09804,0.09804 -0.01461,0.02923 0.02311,0.07493 0,0.09804 -0.04622,0.04622 -0.149862,-0.04622 -0.196078,0 -0.02311,0.02311 0.02311,0.07493 0,0.09804 -0.02311,0.02311 -0.06881,-0.01461 -0.09804,0 -0.04134,0.02067 -0.0567,0.07737 -0.09804,0.09804 -0.02923,0.01461 -0.07493,-0.02311 -0.09804,0 -0.02311,0.02311 0.02311,0.07493 0,0.09804 -0.02311,0.02311 -0.07493,-0.02311 -0.09804,0 -0.02311,0.02311 0.02311,0.07493 0,0.09804 -0.02311,0.02311 -0.07493,-0.02311 -0.09804,0 -0.02311,0.02311 0.02311,0.07493 0,0.09804 -0.04622,0.04622 -0.149862,-0.04622 -0.196079,0 -0.02311,0.02311 0.02311,0.07493 0,0.09804 -0.04622,0.04622 -0.149862,-0.04622 -0.196078,0 -0.02311,0.02311 0.01461,0.06881 0,0.09804 -0.02067,0.04134 -0.07737,0.0567 -0.09804,0.09804 -0.01461,0.02923 0.02311,0.07493 0,0.09804 -0.02311,0.02311 -0.06881,-0.01461 -0.09804,0 -0.04134,0.02067 -0.0567,0.07737 -0.09804,0.09804 -0.02923,0.01461 -0.07493,-0.02311 -0.09804,0 -0.02311,0.02311 0.02311,0.07493 0,0.09804 -0.02311,0.02311 -0.06881,-0.01461 -0.09804,0 -0.408016,0.204008 0.104807,-0.0068 -0.09804,0.196078 -0.02311,0.02311 -0.07493,-0.02311 -0.09804,0 -0.02311,0.02311 0.02311,0.07493 0,0.09804 -0.02311,0.02311 -0.06881,-0.01461 -0.09804,0 -0.117647,0.05882 -0.17647,0.235294 -0.294117,0.294117 -0.02923,0.01461 -0.07493,-0.02311 -0.09804,0 -0.02311,0.02311 0.02311,0.07493 0,0.09804 -0.02311,0.02311 -0.07493,-0.02311 -0.09804,0 -0.02311,0.02311 0.02311,0.07493 0,0.09804 -0.02311,0.02311 -0.07493,-0.02311 -0.09804,0 -0.02311,0.02311 0.02311,0.07493 0,0.09804 -0.02311,0.02311 -0.07493,-0.02311 -0.09804,0 -0.02311,0.02311 0.02311,0.07493 0,0.09804 -0.02311,0.02311 -0.07493,-0.02311 -0.09804,0 -0.02311,0.02311 0.02311,0.07493 0,0.09804 -0.02311,0.02311 -0.07493,-0.02311 -0.09804,0 -0.02311,0.02311 0.02311,0.07493 0,0.09804 -0.02311,0.02311 -0.07493,-0.02311 -0.09804,0 -0.02311,0.02311 0.02311,0.07493 0,0.09804 -0.02311,0.02311 -0.07493,-0.02311 -0.09804,0 -0.02311,0.02311 0.02311,0.07493 0,0.09804 -0.02311,0.02311 -0.07493,-0.02311 -0.09804,0 -0.02311,0.02311 0.01461,0.06881 0,0.09804 -0.02067,0.04134 -0.07737,0.0567 -0.09804,0.09804 -0.01461,0.02923 0.02311,0.07493 0,0.09804 -0.02311,0.02311 -0.06881,-0.01461 -0.09804,0 -0.04134,0.02067 -0.0567,0.07737 -0.09804,0.09804 -0.02923,0.01461 -0.07493,-0.02311 -0.09804,0 -0.04622,0.04622 0.04622,0.149862 0,0.196078 -0.02311,0.02311 -0.07493,-0.02311 -0.09804,0 -0.02311,0.02311 0.01461,0.06881 0,0.09804 -0.02067,0.04134 -0.07737,0.0567 -0.09804,0.09804 -0.01461,0.02923 0.02311,0.07493 0,0.09804 -0.04622,0.04622 -0.149862,-0.04622 -0.196078,0 -0.02311,0.02311 0.02311,0.07493 0,0.09804 -0.02311,0.02311 -0.07493,-0.02311 -0.09804,0 -0.02311,0.02311 0.02311,0.07493 0,0.09804 -0.02311,0.02311 -0.07493,-0.02311 -0.09804,0 -0.04622,0.04622 0.04622,0.149863 0,0.196079 -0.02311,0.02311 -0.07493,-0.02311 -0.09804,0 -0.02311,0.02311 0.02311,0.07493 0,0.09804 -0.02311,0.02311 -0.07493,-0.02311 -0.09804,0 0,0.261438 0.03268,-0.03268 -0.09804,0.09804 -0.02311,0.02311 0.02311,0.07493 0,0.09804 -0.04622,0.04622 -0.149862,-0.04622 -0.196079,0 -0.02311,0.02311 0.02311,0.07493 0,0.09804 -0.02311,0.02311 -0.07493,-0.02311 -0.09804,0 -0.04902,0.04902 0.04902,0.245098 0,0.294117 -0.02311,0.02311 -0.07493,-0.02311 -0.09804,0 -0.02311,0.02311 0.02311,0.07493 0,0.09804 -0.04622,0.04622 -0.149862,-0.04622 -0.196078,0 -0.02311,0.02311 0.01461,0.06881 0,0.09804 -0.02067,0.04134 -0.07737,0.0567 -0.09804,0.09804 -0.02923,0.05846 0.04622,0.149862 0,0.196078 -0.02311,0.02311 -0.07493,-0.02311 -0.09804,0 -0.04622,0.04622 0.05846,0.166849 0,0.196079 -0.05846,0.02923 -0.137619,-0.02923 -0.196078,0 -0.02923,0.01461 0.01462,0.06881 0,0.09804 -0.05882,0.117647 -0.235294,0.176471 -0.294118,0.294118 -0.01462,0.02923 0.02311,0.07493 0,0.09804 -0.02311,0.02311 -0.07493,-0.02311 -0.09804,0 -0.02311,0.02311 0.01461,0.06881 0,0.09804 -0.04824,0.09647 -0.34392,0.295684 -0.392157,0.392157 -0.01461,0.02923 0.02311,0.07493 0,0.09804 -0.02311,0.02311 -0.07493,-0.02311 -0.09804,0 -0.02311,0.02311 0.02311,0.07493 0,0.09804 -0.02311,0.02311 -0.07493,-0.02311 -0.09804,0 -0.04902,0.04902 0.04902,0.245098 0,0.294118 -0.02311,0.02311 -0.07493,-0.02311 -0.09804,0 -0.02311,0.02311 0.02311,0.07493 0,0.09804 -0.02311,0.02311 -0.07493,-0.02311 -0.09804,0 -0.02311,0.02311 0.02311,0.07493 0,0.09804 -0.04622,0.04622 -0.149862,-0.04622 -0.196078,0 -0.02311,0.02311 0.01462,0.06881 0,0.09804 -0.02067,0.04134 -0.07737,0.0567 -0.09804,0.09804 -0.01461,0.02923 0.01461,0.06881 0,0.09804 -0.02067,0.04134 -0.07737,0.0567 -0.09804,0.09804 -0.01462,0.02923 0.02311,0.07493 0,0.09804 -0.02311,0.02311 -0.07493,-0.02311 -0.09804,0 -0.02311,0.02311 0.02311,0.07493 0,0.09804 -0.02311,0.02311 -0.07493,-0.02311 -0.09804,0 -0.02311,0.02311 0.02311,0.07493 0,0.09804 -0.02311,0.02311 -0.07493,-0.02311 -0.09804,0 -0.02311,0.02311 0.02311,0.07493 0,0.09804 -0.02311,0.02311 -0.07493,-0.02311 -0.09804,0 -0.02311,0.02311 0.02311,0.07493 0,0.09804 -0.02311,0.02311 -0.07493,-0.02311 -0.09804,0 -0.02311,0.02311 0.02311,0.07493 0,0.09804 -0.02311,0.02311 -0.07493,-0.02311 -0.09804,0 -0.04622,0.04622 0.04622,0.149862 0,0.196078 -0.02311,0.02311 -0.07493,-0.02311 -0.09804,0 -0.02311,0.02311 0.02311,0.07493 0,0.09804 -0.02311,0.02311 -0.07493,-0.02311 -0.09804,0 -0.02311,0.02311 0.02311,0.07493 0,0.09804 -0.02311,0.02311 -0.07493,-0.02311 -0.09804,0 -0.02311,0.02311 0.02311,0.07493 0,0.09804 -0.02311,0.02311 -0.07493,-0.02311 -0.09804,0 -0.02311,0.02311 0.02311,0.07493 0,0.09804 -0.02311,0.02311 -0.07493,-0.02311 -0.09804,0 -0.04622,0.04622 0.04622,0.149862 0,0.196078 -0.04622,0.04622 -0.149862,-0.04622 -0.196079,0 -0.02311,0.02311 0.01462,0.06881 0,0.09804 -0.07869,0.157377 -0.117389,0.0387 -0.196078,0.196078 -0.01461,0.02923 0.02311,0.07493 0,0.09804 -0.02311,0.02311 -0.07493,-0.02311 -0.09804,0 -0.02311,0.02311 0.02311,0.07493 0,0.09804 -0.02311,0.02311 -0.07493,-0.02311 -0.09804,0 -0.02311,0.02311 0.02311,0.07493 0,0.09804 -0.02311,0.02311 -0.07493,-0.02311 -0.09804,0 -0.02311,0.02311 0.01461,0.06881 0,0.09804 -0.02067,0.04134 -0.07737,0.0567 -0.09804,0.09804 -0.01462,0.02923 0.02311,0.07493 0,0.09804 -0.02311,0.02311 -0.07493,-0.02311 -0.09804,0 -0.02311,0.02311 0.02311,0.07493 0,0.09804 -0.04622,0.04622 -0.149862,-0.04622 -0.196078,0 -0.02311,0.02311 0.02311,0.07493 0,0.09804 -0.02311,0.02311 -0.07493,-0.02311 -0.09804,0 -0.04622,0.04622 0.04622,0.149862 0,0.196078 -0.02311,0.02311 -0.07493,-0.02311 -0.09804,0 -0.04622,0.04622 0.04622,0.149862 0,0.196079 -0.02311,0.02311 -0.06881,-0.01461 -0.09804,0 -0.408016,0.204007 0.104807,-0.0068 -0.09804,0.196078 -0.02311,0.02311 -0.07493,-0.02311 -0.09804,0 -0.04622,0.04622 0.04622,0.149862 0,0.196078 -0.02311,0.02311 -0.06881,-0.01461 -0.09804,0 -0.21677,0.108385 -0.03042,0.06085 -0.09804,0.196079 -0.02067,0.04134 -0.06536,0.06536 -0.09804,0.09804 -0.03268,0.03268 -0.0567,0.07737 -0.09804,0.09804 -0.02923,0.01461 -0.07493,-0.02311 -0.09804,0 -0.02311,0.02311 0.02311,0.07493 0,0.09804 -0.202846,0.202847 0.0079,-0.309976 -0.196078,0.09804 -0.01462,0.02923 0.02311,0.07493 0,0.09804 -0.02311,0.02311 -0.07493,-0.02311 -0.09804,0 -0.04622,0.04622 0.02923,0.137619 0,0.196078 -0.204008,0.408016 0.0068,-0.104807 -0.196079,0.09804 -0.02311,0.02311 0.02311,0.07493 0,0.09804 -0.02311,0.02311 -0.07493,-0.02311 -0.09804,0 -0.02311,0.02311 0.02311,0.07493 0,0.09804 -0.02311,0.02311 -0.07493,-0.02311 -0.09804,0 -0.02311,0.02311 0.01462,0.06881 0,0.09804 -0.02067,0.04134 -0.07737,0.0567 -0.09804,0.09804 -0.01461,0.02923 0.02311,0.07493 0,0.09804 -0.02311,0.02311 -0.07493,-0.02311 -0.09804,0 -0.02311,0.02311 0.01461,0.06881 0,0.09804 -0.02067,0.04134 -0.06536,0.06536 -0.09804,0.09804 -0.03268,0.03268 -0.0567,0.07737 -0.09804,0.09804 -0.02923,0.01462 -0.07493,-0.02311 -0.09804,0 -0.04622,0.04622 0.04622,0.149863 0,0.196079 -0.02311,0.02311 -0.07493,-0.02311 -0.09804,0 -0.02311,0.02311 0.02311,0.07493 0,0.09804 -0.02311,0.02311 -0.07493,-0.02311 -0.09804,0 -0.02311,0.02311 0.02311,0.07493 0,0.09804 -0.02311,0.02311 -0.07493,-0.02311 -0.09804,0 -0.02311,0.02311 0.02311,0.07493 0,0.09804 -0.02311,0.02311 -0.07493,-0.02311 -0.09804,0 -0.02311,0.02311 0.02311,0.07493 0,0.09804 -0.02311,0.02311 -0.07493,-0.02311 -0.09804,0 -0.02311,0.02311 0.02311,0.07493 0,0.09804 -0.02311,0.02311 -0.07493,-0.02311 -0.09804,0 -0.202846,0.202846 0.309977,-0.0079 -0.09804,0.196078 -0.02923,0.01461 -0.07493,-0.02311 -0.09804,0 -0.04622,0.04622 0.04622,0.149863 0,0.196079 -0.02311,0.02311 -0.07493,-0.02311 -0.09804,0 -0.02311,0.02311 0.02311,0.07493 0,0.09804 -0.02311,0.02311 -0.07493,-0.02311 -0.09804,0 -0.02311,0.02311 0.02311,0.07493 0,0.09804 -0.202847,0.202847 0.0079,-0.309976 -0.196079,0.09804 -0.01462,0.02923 0.02311,0.07493 0,0.09804 -0.04622,0.04622 -0.149862,-0.04622 -0.196078,0 -0.04622,0.04622 0.04622,0.149862 0,0.196078 -0.02311,0.02311 -0.07493,-0.02311 -0.09804,0 -0.02311,0.02311 0.01461,0.06881 0,0.09804 -0.204008,0.408016 0.0068,-0.104807 -0.196079,0.09804 -0.02311,0.02311 0.02311,0.07493 0,0.09804 -0.02311,0.02311 -0.07493,-0.02311 -0.09804,0 -0.02311,0.02311 0.02311,0.07493 0,0.09804 -0.04622,0.04622 -0.149862,-0.04622 -0.196079,0 -0.04622,0.04622 0.04622,0.149862 0,0.196078 -0.261437,0 0.03268,-0.03268 -0.09804,0.09804 -0.202846,0.202847 0.0079,-0.309976 -0.196078,0.09804 -0.01462,0.02923 0.02311,0.07493 0,0.09804 -0.02311,0.02311 -0.06881,-0.01461 -0.09804,0 -0.04134,0.02067 -0.0567,0.07737 -0.09804,0.09804 -0.02923,0.01462 -0.07493,-0.02311 -0.09804,0 -0.02311,0.02311 0.02311,0.07493 0,0.09804 -0.02311,0.02311 -0.07493,-0.02311 -0.09804,0 -0.02311,0.02311 0.02311,0.07493 0,0.09804 -0.02311,0.02311 -0.07493,-0.02311 -0.09804,0 -0.02311,0.02311 0.02311,0.07493 0,0.09804 -0.02311,0.02311 -0.07493,-0.02311 -0.09804,0 -0.02311,0.02311 0.02311,0.07493 0,0.09804 -0.04622,0.04622 -0.149863,-0.04622 -0.196079,0 -0.04622,0.04622 0.04622,0.149862 0,0.196078 -0.04622,0.04622 -0.137619,-0.02923 -0.196078,0 -0.08267,0.04134 -0.113405,0.154742 -0.196079,0.196079 -0.02923,0.01461 -0.07493,-0.02311 -0.09804,0 -0.02311,0.02311 0.02311,0.07493 0,0.09804 -0.02311,0.02311 -0.07493,-0.02311 -0.09804,0 -0.04622,0.04622 0.04622,0.149862 0,0.196078 -0.02311,0.02311 -0.06881,-0.01461 -0.09804,0 -0.04134,0.02067 -0.0567,0.07737 -0.09804,0.09804 -0.02923,0.01461 -0.06881,-0.01462 -0.09804,0 -0.08267,0.04134 -0.113404,0.154741 -0.196078,0.196078 -0.02923,0.01461 -0.07493,-0.02311 -0.09804,0 -0.04622,0.04622 0.04622,0.149862 0,0.196079 -0.02311,0.02311 -0.07493,-0.02311 -0.09804,0 -0.02311,0.02311 0.02311,0.07493 0,0.09804 -0.04622,0.04622 -0.149862,-0.04622 -0.196078,0 -0.02311,0.02311 0.02311,0.07493 0,0.09804 -0.04622,0.04622 -0.149862,-0.04622 -0.196079,0 -0.02311,0.02311 0.01461,0.06881 0,0.09804 -0.02067,0.04134 -0.07737,0.0567 -0.09804,0.09804 -0.01461,0.02923 0.02311,0.07493 0,0.09804 -0.02311,0.02311 -0.07493,-0.02311 -0.09804,0 -0.023108,0.02311 0.02311,0.07493 0,0.09804 -0.2614379,0 0.03268,-0.03268 -0.098039,0.09804 -0.046216,0.04622 -0.1376192,-0.02923 -0.1960784,0 -0.041337,0.02067 -0.056702,0.07737 -0.098039,0.09804 -0.02923,0.01462 -0.074931,-0.02311 -0.098039,0 -0.023108,0.02311 0.014615,0.06881 0,0.09804 -0.013015,0.02603 -0.2680872,0.281102 -0.2941176,0.294117 -0.02923,0.01462 -0.074931,-0.02311 -0.098039,0 -0.023108,0.02311 0.023108,0.07493 0,0.09804 -0.046216,0.04622 -0.1498623,-0.04622 -0.1960785,0 -0.023108,0.02311 0.023108,0.07493 0,0.09804 -0.023108,0.02311 -0.074931,-0.02311 -0.098039,0 -0.023108,0.02311 0.023108,0.07493 0,0.09804 -0.023108,0.02311 -0.06881,-0.01462 -0.098039,0 -0.4080157,0.204008 0.1048074,-0.0068 -0.098039,0.196078 -0.023108,0.02311 -0.074931,-0.02311 -0.098039,0 -0.023108,0.02311 0.023108,0.07493 0,0.09804 -0.023108,0.02311 -0.074931,-0.02311 -0.098039,0 -0.023108,0.02311 0.023108,0.07493 0,0.09804 -0.046216,0.04622 -0.1498623,-0.04622 -0.1960784,0 -0.023108,0.02311 0.023108,0.07493 0,0.09804 -0.046216,0.04622 -0.1498623,-0.04622 -0.1960784,0 -0.023108,0.02311 0.023108,0.07493 0,0.09804 -0.023108,0.02311 -0.074931,-0.02311 -0.098039,0 -0.023108,0.02311 0.023108,0.07493 0,0.09804 -0.023108,0.02311 -0.074931,-0.02311 -0.098039,0 -0.046216,0.04622 0.046216,0.149863 0,0.196079 -0.023108,0.02311 -0.074931,-0.02311 -0.098039,0 -0.023108,0.02311 0.023108,0.07493 0,0.09804 -0.04902,0.04902 -0.245098,-0.04902 -0.2941176,0 -0.023108,0.02311 0.023108,0.07493 0,0.09804 -0.023108,0.02311 -0.074931,-0.02311 -0.098039,0 -0.023108,0.02311 0.014615,0.06881 0,0.09804 -0.041337,0.08267 -0.1547415,0.113405 -0.1960785,0.196079 -0.014615,0.02923 0.023108,0.07493 0,0.09804 -0.046216,0.04622 -0.1498623,-0.04622 -0.1960784,0 -0.023108,0.02311 0.023108,0.07493 0,0.09804 -0.023108,0.02311 -0.074931,-0.02311 -0.098039,0 -0.023108,0.02311 0.023108,0.07493 0,0.09804 -0.023108,0.02311 -0.074931,-0.02311 -0.098039,0 -0.023108,0.02311 0.023108,0.07493 0,0.09804 -0.023108,0.02311 -0.074931,-0.02311 -0.098039,0 -0.046216,0.04622 0.046216,0.149862 0,0.196078 -0.023108,0.02311 -0.06881,-0.01461 -0.098039,0 -0.3251552,0.325155 0.092432,-0.04622 -0.1960785,0.09804 -0.4080157,0.204008 0.1048074,-0.0068 -0.098039,0.196079 -0.023108,0.02311 -0.06881,-0.01461 -0.098039,0 -0.4080157,0.204008 0.1048074,-0.0068 -0.098039,0.196078 -0.023108,0.02311 -0.06881,-0.01461 -0.098039,0 -0.082674,0.04134 -0.1134045,0.154742 -0.1960785,0.196079 -0.058459,0.02923 -0.1498623,-0.04622 -0.1960784,0 -0.023108,0.02311 0.014615,0.06881 0,0.09804 -0.020669,0.04134 -0.077371,0.0567 -0.098039,0.09804 -0.014615,0.02923 0.023108,0.07493 0,0.09804 -0.023108,0.02311 -0.06881,-0.01462 -0.098039,0 -0.082674,0.04134 -0.1134045,0.154742 -0.1960785,0.196079 -0.02923,0.01461 -0.074931,-0.02311 -0.098039,0 -0.023108,0.02311 0.023108,0.07493 0,0.09804 -0.023108,0.02311 -0.06881,-0.01462 -0.098039,0 -0.096473,0.04824 -0.2956835,0.34392 -0.3921569,0.392157 -0.02923,0.01462 -0.074931,-0.02311 -0.098039,0 -0.023108,0.02311 0.023108,0.07493 0,0.09804 -0.023108,0.02311 -0.074931,-0.02311 -0.098039,0 -0.2028466,0.202847 0.3099765,-0.0079 -0.098039,0.196078 -0.058459,0.02923 -0.1498623,-0.04622 -0.1960784,0 -0.2028467,0.202847 0.3099765,-0.0079 -0.098039,0.196079 -0.135231,0.06762 -0.087693,-0.118731 -0.1960784,0.09804 -0.014615,0.02923 0.023108,0.07493 0,0.09804 -0.023108,0.02311 -0.06881,-0.01461 -0.098039,0 -0.041337,0.02067 -0.056702,0.07737 -0.098039,0.09804 -0.02923,0.01461 -0.074931,-0.02311 -0.098039,0 -0.023108,0.02311 0.023108,0.07493 0,0.09804 -0.023108,0.02311 -0.074931,-0.02311 -0.098039,0 -0.023108,0.02311 0.023108,0.07493 0,0.09804 -0.2028466,0.202847 0.00793,-0.309977 -0.1960784,0.09804 -0.02923,0.05846 0.046216,0.149862 0,0.196079 -0.046216,0.04622 -0.1498623,-0.04622 -0.1960784,0 -0.023108,0.02311 0.023108,0.07493 0,0.09804 -0.023108,0.02311 -0.074931,-0.02311 -0.098039,0 -0.023108,0.02311 0.023108,0.07493 0,0.09804 -0.023108,0.02311 -0.074931,-0.02311 -0.098039,0 -0.023108,0.02311 0.023108,0.07493 0,0.09804 -0.023108,0.02311 -0.074931,-0.02311 -0.098039,0 -0.046216,0.04622 0.046216,0.149863 0,0.196079 -0.023108,0.02311 -0.074931,-0.02311 -0.098039,0 -0.04902,0.04902 0.04902,0.245098 0,0.294117 -0.023108,0.02311 -0.074931,-0.02311 -0.098039,0 -0.023108,0.02311 0.023108,0.07493 0,0.09804 -0.023108,0.02311 -0.074931,-0.02311 -0.098039,0 -0.046216,0.04622 0.046216,0.149862 0,0.196078 -0.023108,0.02311 -0.074931,-0.02311 -0.098039,0 -0.023108,0.02311 0.023108,0.07493 0,0.09804 -0.023108,0.02311 -0.074931,-0.02311 -0.098039,0 -0.023108,0.02311 0.023108,0.07493 0,0.09804 -0.023108,0.02311 -0.074931,-0.02311 -0.098039,0 -0.04902,0.04902 0.04902,0.245098 0,0.294118 -0.023108,0.02311 -0.074931,-0.02311 -0.098039,0 -0.023108,0.02311 0.023108,0.07493 0,0.09804 -0.023108,0.02311 -0.074931,-0.02311 -0.098039,0 -0.023108,0.02311 0.023108,0.07493 0,0.09804 -0.023108,0.02311 -0.074931,-0.02311 -0.098039,0 -0.023108,0.02311 0.023108,0.07493 0,0.09804 -0.023108,0.02311 -0.074931,-0.02311 -0.098039,0 -0.023108,0.02311 0.023108,0.07493 0,0.09804 -0.023108,0.02311 -0.074931,-0.02311 -0.098039,0 -0.023108,0.02311 0.023108,0.07493 0,0.09804 -0.023108,0.02311 -0.074931,-0.02311 -0.098039,0 -0.04902,0.04902 0.04902,0.245098 0,0.294118 -0.057692,0.05769 -0.1383862,-0.05769 -0.1960785,0 -0.023108,0.02311 0.023108,0.07493 0,0.09804 -0.1307189,0.130719 1.27451,-2.810458 1.27451,-2.549019"
       id="path3087"
       inkscape:connector-curvature="0"
       transform="translate(0,972.3622)"
       sodipodi:nodetypes="cccscscscscsscccssscsccsccsssssssscscsssccsscscssssscssccsccscssssssscsscssscssssscssssscsssccssssscscsssssscsscsssssscsssscssssssssccsssssssssssssssccsssssssssssssscssscscscsscscssccssssssssssssscsscsssccccsssssccsssscssscsscssccsssccccssscccsscscsscccscsccssssssscscsssssscssssccccccccssscscsssscscssssssccssccssccccssccccssccssscssssscsscscssccccssssssscccccscsscsssssssssssssccscccsscccssssscccssssssccsssccsssscccscccccccccscscsccssssscccsccssccccscccsccscscsssccscssccsssscscscsccsssssscscccsccssccssccsssssssssssssssssccsccscsccscsssscsscsscsssssccscsscccssccssssssssscccccsssssssssssscsssssssssccccssssssccssscsscscccscccscsscssscssssccsscscscssssssssssscscsssscsccsccsssccscsccssssssssccccssscccccscsscscccscccccsscssssssccssssssssssscsccsscssssssssscccccccssccsccssccssccccssccssscscssssssscccssscssssccssssssssssccccc" />
  </g>
</svg>
