<?xml version="1.0" encoding="UTF-8"?>
<svg version="1.1" xmlns="http://www.w3.org/2000/svg" width="65" height="32">
<path d="M0 0 C0.66 0 1.32 0 2 0 C1.98839844 0.9178125 1.97679687 1.835625 1.96484375 2.78125 C1.83090071 10.54175415 1.83090071 10.54175415 2.5625 18.25 C3.11236513 22.96312965 2.62389259 27.3160064 2 32 C1.34 32 0.68 32 0 32 C0.01160156 31.10796875 0.02320313 30.2159375 0.03515625 29.296875 C0.04417969 28.12640625 0.05320312 26.9559375 0.0625 25.75 C0.07410156 24.58984375 0.08570313 23.4296875 0.09765625 22.234375 C0.01658378 19.54925466 -0.30559949 17.55151814 -1 15 C-1.31490305 9.90598015 -1.02713637 5.00728982 0 0 Z " fill="#8C8C8C" transform="translate(15,0)"/>
<path d="M0 0 C0.66 0 1.32 0 2 0 C2 2.64 2 5.28 2 8 C1.34 8 0.68 8 0 8 C0 9.98 0 11.96 0 14 C-0.33 14 -0.66 14 -1 14 C-1.08333357 9.1666528 -0.95261487 4.76307437 0 0 Z " fill="#888888" transform="translate(15,0)"/>
<path d="M0 0 C0.33 0 0.66 0 1 0 C1.33 4.29 1.66 8.58 2 13 C-0.43773135 10.56226865 -0.61487376 9.38911094 -1 6 C-0.5625 2.6875 -0.5625 2.6875 0 0 Z " fill="#B0B0B0" transform="translate(15,8)"/>
</svg>
