<?xml version="1.0" encoding="UTF-8" standalone="no"?>
<!-- Created with Inkscape (http://www.inkscape.org/) -->

<svg
   xmlns:dc="http://purl.org/dc/elements/1.1/"
   xmlns:cc="http://creativecommons.org/ns#"
   xmlns:rdf="http://www.w3.org/1999/02/22-rdf-syntax-ns#"
   xmlns:svg="http://www.w3.org/2000/svg"
   xmlns="http://www.w3.org/2000/svg"
   xmlns:sodipodi="http://sodipodi.sourceforge.net/DTD/sodipodi-0.dtd"
   xmlns:inkscape="http://www.inkscape.org/namespaces/inkscape"
   width="16"
   height="16"
   id="svg2"
   version="1.1"
   inkscape:version="0.48.5 r10040"
   sodipodi:docname="void_highlighter_corner_dash_4.svg">
  <defs
     id="defs4" />
  <sodipodi:namedview
     id="base"
     pagecolor="#ffffff"
     bordercolor="#666666"
     borderopacity="1.0"
     inkscape:pageopacity="0.0"
     inkscape:pageshadow="2"
     inkscape:zoom="25.5"
     inkscape:cx="12.917886"
     inkscape:cy="8.0784314"
     inkscape:document-units="px"
     inkscape:current-layer="layer1"
     showgrid="true"
     inkscape:window-width="1920"
     inkscape:window-height="1014"
     inkscape:window-x="0"
     inkscape:window-y="27"
     inkscape:window-maximized="1"
     inkscape:snap-grids="false">
    <inkscape:grid
       type="xygrid"
       id="grid3001"
       empspacing="8"
       visible="true"
       enabled="true"
       snapvisiblegridlinesonly="true" />
  </sodipodi:namedview>
  <metadata
     id="metadata7">
    <rdf:RDF>
      <cc:Work
         rdf:about="">
        <dc:format>image/svg+xml</dc:format>
        <dc:type
           rdf:resource="http://purl.org/dc/dcmitype/StillImage" />
        <dc:title></dc:title>
      </cc:Work>
    </rdf:RDF>
  </metadata>
  <g
     inkscape:label="Layer 1"
     inkscape:groupmode="layer"
     id="layer1"
     transform="translate(0,-1036.3622)">
    <path
       style="fill:#f0e600;fill-opacity:1;stroke:none;opacity:0.5"
       d="m 4.8627449,1039.2184 c 0.05229,-0.07 0.104013,-0.1552 0.156863,-0.2117 0.0436,-0.047 0.111031,0 0.156863,0 0.117647,0 0.235294,0 0.352941,0 0.02728,0 0.181897,-0.038 0.196078,0 0.01654,0.045 0.02268,0.166 0.03922,0.2117 0.01031,0.027 0.136356,0 0.156863,0 0.104575,0 0.20915,0 0.313725,0 0.143791,0 0.287582,0 0.431373,0 0.02051,0 0.146551,-0.027 0.156862,0 0.01654,0.045 0.02268,0.166 0.03922,0.2115 0.01031,0.027 0.136356,0 0.156863,0 0.117647,0 0.235294,0 0.352941,0 0.0095,0 0.116386,0 0.117647,0 0.0092,0.051 -0.0092,0.1624 0,0.2117 0.0092,0.051 0.02614,0 0.03922,0 0.0915,0 0.183006,0 0.27451,0 0.640523,0 1.281045,0 1.921568,0 0.3267981,0 0.6535951,0 0.9803921,0 0.06536,0 0.130719,0 0.196079,0 0.02614,0 0.05229,0 0.07843,0 0.01307,0 0.03922,-0.07 0.03922,0 0,0.07 -0.03922,-0.07 -0.03922,0 0,0.099 0.03922,0.1119 0.03922,0.2115 0,0.07 -0.02997,-0.05 -0.03922,0 -0.0016,0 0,0.7688 0,0.8464 0,1.7635 0,3.5269 0,5.2902 0,0.3529 0,0.7055 0,1.0581 0,0.07 -0.0092,0.1625 0,0.2117 0.0092,0.051 0.02997,-0.051 0.03922,0 0.0092,0.051 -0.0092,0.1624 0,0.2115 0.0092,0.051 0.02997,-0.051 0.03922,0 0.0013,0 0,0.5837 0,0.6349 0,0.07 0,0.1408 0,0.2117 0,0.07 0.01307,0.2115 0,0.2115 -0.01307,0 0,-0.2821 0,-0.2115 0,0.2115 0,0.4232 0,0.6347 0,0.07 0.0092,0.1624 0,0.2117 -0.0092,0.05 -0.02997,-0.051 -0.03922,0 -0.02632,0.1426 0.02632,0.2812 0,0.4232 -0.0092,0.051 -0.02997,-0.051 -0.03922,0 -0.01849,0.099 0.01849,0.3234 0,0.4232 -0.0092,0.051 -0.02997,-0.051 -0.03921,0 -0.08114,0.4378 0.12399,-0.018 -0.03922,0.4232 -0.01169,0.031 -0.02997,-0.051 -0.03922,0 -0.0092,0.051 0.0092,0.1624 0,0.2117 -0.0092,0.051 -0.02997,0.051 -0.03922,0 -0.0092,-0.051 0.0092,-0.1624 0,-0.2117 -0.01849,-0.099 -0.05994,0.099 -0.07843,0 -0.0092,-0.051 0.0092,-0.1624 0,-0.2115 -0.0092,-0.051 -0.02752,0.031 -0.03922,0 -0.01653,-0.045 -0.02268,-0.1678 -0.03922,-0.2117 -0.01418,-0.038 -0.168803,0 -0.196079,0 -0.01307,0 -0.02997,0.051 -0.03922,0 -0.0092,-0.051 0.0092,-0.1624 0,-0.2115 -0.0092,-0.051 -0.02614,0 -0.03922,0 -0.06536,0 -0.130719,0 -0.196079,0 -0.2091501,0 -0.4183001,0 -0.6274501,0 -0.0095,0 -0.116386,0 -0.117648,0 -0.0092,-0.051 0.0092,-0.1624 0,-0.2117 -0.0016,0 -0.142461,0 -0.156862,0 -0.156863,0 -0.313726,0 -0.470589,0 -0.02728,0 -0.181896,0.038 -0.196078,0 -0.01653,-0.045 -0.02268,-0.166 -0.03922,-0.2117 -0.01169,-0.033 -0.02614,0 -0.03921,0 -0.01307,0 -0.02614,0 -0.03922,0 -0.06536,0 -0.130719,0 -0.196078,0 -0.222223,0 -0.444445,0 -0.666667,0 -0.48366,0 -0.96732,0 -1.450981,0 -0.06536,0 -0.130718,0 -0.196078,0 -0.01307,0 -0.02997,0.051 -0.03922,0 -0.0092,-0.051 -0.0092,-0.1624 0,-0.2115 0.0092,-0.051 0.03922,-0.07 0.03922,0 0,0.07 -0.02614,0 -0.03922,0 -0.02614,0 -0.05229,0 -0.07843,0 -0.104575,0 -0.20915,0 -0.313725,0 -0.01307,0 -0.02997,0.05 -0.03922,0 -0.0092,-0.051 0.0092,-0.1624 0,-0.2117 -0.0092,-0.051 -0.02614,0 -0.03922,0 -0.01307,0 -0.02614,0 -0.03922,0 -0.104575,0 -0.20915,0 -0.313725,0 -0.01307,0 -0.02997,-0.051 -0.03922,0 -0.0092,0.051 0.0092,0.1624 0,0.2117 -0.01849,0.099 -0.05995,-0.099 -0.07843,0 -0.0092,0.05 0.0092,0.1624 0,0.2115 -0.01849,0.099 -0.05994,-0.099 -0.07843,0 -0.0092,0.051 0.0092,0.1624 0,0.2117 -0.0039,0.022 -0.113726,0.022 -0.117648,0 -0.0092,-0.051 0,-0.1408 0,-0.2117 0,-0.07 0,-0.1408 0,-0.2115 0,-0.8464 0,-1.693 0,-2.5394 0,-0.051 -0.0013,-0.628 0,-0.6349 0.0092,-0.051 0.02997,0.051 0.03922,0 0.0092,-0.051 0,-0.1407 0,-0.2115 0,-0.07 0,-0.1407 0,-0.2117 0,-0.7052 0,-1.4107 0,-2.1159 0,-0.7761 0,-1.5519 0,-2.3277 0,-0.07 0,-0.1408 0,-0.2117 0,-0.07 -0.0092,-0.1624 0,-0.2117 0.0092,-0.051 0.02997,0.051 0.03922,0 0.0043,-0.024 0.0045,-0.5129 0,-0.6347 -0.01057,-0.2853 -0.03922,-1.1373 -0.03922,-0.8466 0,0.3597 0.104575,0.9875 0.03922,1.0581 -0.06536,0.07 -0.02614,-0.7053 -0.03922,-1.0581 z"
       id="path3840"
       inkscape:connector-curvature="0" />
    <path
       style="fill:#f0e600;fill-opacity:1;stroke:none;opacity:0.5"
       d="m 2.9220755,1041.3435 8.9514655,0 0.77839,0 0.194618,0 -0.194618,0 0.194618,0.046 0,0.1833 0,0.4126 -0.194618,0.046 0,0.046 0,0.3668 0,0.6877 0,0.046 0,0.046 0.194618,0 0,0.2292 0.352941,1.0224 -0.352941,0.7197 0,0.046 -0.428404,0.4706 0.745098,0.6865 0.509804,0.479 2.039216,0.4716 -4.033277,-0.09 0,-0.046 -0.194617,0 0,-0.046 -0.972984,0 0,-0.046 -0.7783892,0 -4.2811383,0 -0.58379,0 -0.194619,0.046 -0.972984,0 0,0.046 -0.194618,0 -0.194619,0 -0.194568,0 -0.19462,0 -0.194617,0.046 -0.194619,0 0.194619,0 -0.194619,-0.046 0,-0.1375 0,-0.3668 0,-1.2378 0,-0.3209 0,-0.1375 0,-0.046 0,0.046 0,-0.4126 0,-0.046 0,-0.046 0.194619,0 0,-0.1834 0,-0.6418 0,-0.046 0,-0.046 0.194617,0 0,-0.046 0,-0.3668 0,-1.2836 0,-0.2293 0,-0.046 -0.194617,0 0,-0.046 0.194617,-0.2292 z"
       id="path3842"
       inkscape:connector-curvature="0"
       sodipodi:nodetypes="cccccccccccccccccccccccccccccccccccccccccccccccccccccccccccccccccccc" />
  </g>
</svg>
