<?xml version="1.0" encoding="UTF-8" standalone="no"?>
<!-- Created with Inkscape (http://www.inkscape.org/) -->

<svg
   xmlns:dc="http://purl.org/dc/elements/1.1/"
   xmlns:cc="http://creativecommons.org/ns#"
   xmlns:rdf="http://www.w3.org/1999/02/22-rdf-syntax-ns#"
   xmlns:svg="http://www.w3.org/2000/svg"
   xmlns="http://www.w3.org/2000/svg"
   xmlns:sodipodi="http://sodipodi.sourceforge.net/DTD/sodipodi-0.dtd"
   xmlns:inkscape="http://www.inkscape.org/namespaces/inkscape"
   width="64"
   height="80"
   id="svg2"
   version="1.1"
   inkscape:version="0.48.5 r10040"
   sodipodi:docname="void_hatching_vert_lead_diag_2.svg">
  <defs
     id="defs4" />
  <sodipodi:namedview
     id="base"
     pagecolor="#ffffff"
     bordercolor="#666666"
     borderopacity="1.0"
     inkscape:pageopacity="0.0"
     inkscape:pageshadow="2"
     inkscape:zoom="10.2"
     inkscape:cx="32"
     inkscape:cy="40"
     inkscape:document-units="px"
     inkscape:current-layer="layer1"
     showgrid="true"
     inkscape:window-width="1920"
     inkscape:window-height="1014"
     inkscape:window-x="0"
     inkscape:window-y="27"
     inkscape:window-maximized="1"
     inkscape:snap-grids="false">
    <inkscape:grid
       type="xygrid"
       id="grid3001"
       empspacing="8"
       visible="true"
       enabled="true"
       snapvisiblegridlinesonly="true" />
  </sodipodi:namedview>
  <metadata
     id="metadata7">
    <rdf:RDF>
      <cc:Work
         rdf:about="">
        <dc:format>image/svg+xml</dc:format>
        <dc:type
           rdf:resource="http://purl.org/dc/dcmitype/StillImage" />
        <dc:title></dc:title>
      </cc:Work>
    </rdf:RDF>
  </metadata>
  <g
     inkscape:label="Layer 1"
     inkscape:groupmode="layer"
     id="layer1"
     transform="translate(0,-972.3622)">
    <path
       style="fill:none;stroke:#bf0000;stroke-width:1;stroke-linecap:round;stroke-linejoin:round;stroke-opacity:1;opacity:0.80000000000000004;color:#000000;stroke-miterlimit:4;stroke-dasharray:none;stroke-dashoffset:0;marker:none;visibility:visible;display:inline;overflow:visible;enable-background:accumulate"
       d="m 1.1764706,1.1764706 c 0.1307189,0.098039 0.4901961,0.1633987 0.3921569,0.2941176 -0.098039,0.130719 -0.3921569,-0.4575163 -0.3921569,-0.2941176 0,0.2092524 0.2760845,0.3160875 0.3921569,0.4901961 0.018127,0.027191 -0.023108,0.074931 0,0.098039 0.046216,0.046216 0.1498623,-0.046216 0.1960784,0 0.023108,0.023108 -0.023108,0.074931 0,0.098039 0.023108,0.023108 0.074931,-0.023108 0.098039,0 0.023108,0.023108 -0.014615,0.06881 0,0.098039 0.041337,0.082674 0.1547415,0.1134045 0.1960784,0.1960784 0.02923,0.058459 -0.046216,0.1498623 0,0.1960785 0.023108,0.023108 0.074931,-0.023108 0.098039,0 0.023108,0.023108 -0.014615,0.068809 0,0.098039 0.03956,0.079121 0.156518,0.1169575 0.1960785,0.1960784 0.014615,0.02923 -0.023108,0.074931 0,0.098039 0.023108,0.023108 0.074931,-0.023108 0.098039,0 0.2028466,0.2028467 -0.3099765,-0.00793 0.098039,0.1960785 0.058459,0.02923 0.1498623,-0.046216 0.1960784,0 0.04902,0.04902 -0.04902,0.245098 0,0.2941176 0.023108,0.023108 0.074931,-0.023108 0.098039,0 0.065395,0.065395 -0.065395,0.1306834 0,0.1960784 0.023108,0.023108 0.074931,-0.023108 0.098039,0 0.023108,0.023108 0,0.06536 0,0.098039 0.03268,0 0.074931,-0.023108 0.098039,0 0.023108,0.023108 -0.023108,0.074931 0,0.098039 0.023108,0.023108 0.074931,-0.023108 0.098039,0 0.046216,0.046216 -0.02923,0.1376191 0,0.1960784 0.041337,0.082674 0.1547415,0.1134045 0.1960784,0.1960784 0.014615,0.02923 -0.023108,0.074931 0,0.098039 0.023108,0.023108 0.06881,-0.014615 0.098039,0 0.4080158,0.2040078 -0.1048074,-0.00677 0.098039,0.1960784 0.023108,0.023108 0.074931,-0.023108 0.098039,0 0.023108,0.023108 -0.014615,0.06881 0,0.098039 0.020668,0.041337 0.06536,0.06536 0.098039,0.098039 0.03268,0.03268 0.056702,0.077371 0.098039,0.098039 0.02923,0.014615 0.074931,-0.023108 0.098039,0 0.046216,0.046216 -0.046216,0.1498623 0,0.1960785 0.2028467,0.2028466 -0.00793,-0.3099765 0.1960785,0.098039 0.014615,0.02923 -0.023108,0.074931 0,0.098039 0.046216,0.046216 0.1498623,-0.046216 0.1960784,0 0.023108,0.023108 -0.023108,0.074931 0,0.098039 0.023108,0.023108 0.074931,-0.023108 0.098039,0 0.023108,0.023108 -0.023108,0.074931 0,0.098039 0.046216,0.046216 0.1498623,-0.046216 0.1960784,0 0.023108,0.023108 0,0.065359 0,0.098039 0.03268,0 0.074931,-0.023108 0.098039,0 0.023108,0.023108 -0.023108,0.074931 0,0.098039 0.046216,0.046216 0.1498623,-0.046216 0.1960784,0 0.023108,0.023108 -0.023108,0.074931 0,0.098039 0.023108,0.023108 0.074931,-0.023108 0.098039,0 0.046216,0.046216 -0.046216,0.1498623 0,0.1960784 0.046216,0.046216 0.1498623,-0.046216 0.1960784,0 0.023108,0.023108 -0.023108,0.074931 0,0.098039 0.046216,0.046216 0.1376192,-0.02923 0.1960785,0 0.041337,0.020669 0.056702,0.077371 0.098039,0.098039 0.02923,0.014615 0.074931,-0.023108 0.098039,0 0.023108,0.023108 -0.014615,0.06881 0,0.098039 0.099141,0.1982824 0.227517,0.031439 0.2941176,0.098039 0.023108,0.023108 -0.023108,0.074931 0,0.098039 0.023108,0.023108 0.074931,-0.023108 0.098039,0 0.023108,0.023108 -0.023108,0.074931 0,0.098039 0.046216,0.046216 0.1498623,-0.046216 0.1960784,0 0.023108,0.023108 -0.023108,0.074931 0,0.098039 0.023108,0.023108 0.074931,-0.023108 0.098039,0 0.023108,0.023108 -0.023108,0.074931 0,0.098039 0.023108,0.023108 0.074931,-0.023108 0.098039,0 0.023108,0.023108 -0.023108,0.074931 0,0.098039 0.023108,0.023108 0.06881,-0.014615 0.098039,0 0.041337,0.020668 0.056702,0.077371 0.098039,0.098039 0.02923,0.014615 0.074931,-0.023108 0.098039,0 0.023108,0.023108 0,0.065359 0,0.098039 0.03268,0 0.074931,-0.023108 0.098039,0 0.023108,0.023108 -0.023108,0.074931 0,0.098039 0.023108,0.023108 0.074931,-0.023108 0.098039,0 0.023108,0.023108 -0.023108,0.074931 0,0.098039 0.046216,0.046216 0.1376191,-0.02923 0.1960784,0 0.041337,0.020668 0.056702,0.077371 0.098039,0.098039 0.02923,0.014615 0.074931,-0.023108 0.098039,0 0.023108,0.023108 0,0.06536 0,0.098039 0.03268,0 0.074931,-0.023108 0.098039,0 0.023108,0.023108 -0.023108,0.074931 0,0.098039 0.2028466,0.2028466 -0.00793,-0.3099766 0.1960784,0.098039 0.014615,0.02923 -0.023108,0.074931 0,0.098039 0.046216,0.046216 0.1376191,-0.02923 0.1960784,0 0.4080158,0.2040079 -0.1048074,-0.00677 0.098039,0.1960784 0.023108,0.023108 0.068809,-0.014615 0.098039,0 0.041337,0.020669 0.056702,0.077371 0.098039,0.098039 0.02923,0.014615 0.074931,-0.023108 0.098039,0 0.04902,0.04902 -0.04902,0.2450981 0,0.2941177 0.023108,0.023108 0.06881,-0.014615 0.098039,0 0.041337,0.020669 0.056702,0.077371 0.098039,0.098039 0.02923,0.014615 0.074931,-0.023108 0.098039,0 0.04902,0.04902 -0.04902,0.245098 0,0.2941176 0.023108,0.023108 0.074931,-0.023108 0.098039,0 0.046216,0.046216 -0.02923,0.1376192 0,0.1960785 0.048237,0.096473 0.3439201,0.2956834 0.3921568,0.3921568 0.014615,0.02923 -0.023108,0.074931 0,0.098039 0.023108,0.023108 0.074931,-0.023108 0.098039,0 0.2028467,0.2028466 -0.3099765,-0.00793 0.098039,0.1960784 0.02923,0.014615 0.074931,-0.023108 0.098039,0 0.046216,0.046216 -0.046216,0.1498623 0,0.1960784 0.023108,0.023108 0.074931,-0.023108 0.098039,0 0.023108,0.023108 -0.014615,0.06881 0,0.098039 0.020668,0.041337 0.065359,0.065359 0.098039,0.098039 0.03268,0.03268 0.056702,0.077371 0.098039,0.098039 0.02923,0.014615 0.074931,-0.023108 0.098039,0 0.046216,0.046216 -0.046216,0.1498623 0,0.1960784 0.023108,0.02311 0.074931,-0.023108 0.098039,0 0.023108,0.02311 -0.023108,0.07493 0,0.09804 0.023108,0.02311 0.074931,-0.02311 0.098039,0 0.023108,0.02311 -0.023108,0.07493 0,0.09804 0.023108,0.02311 0.074931,-0.02311 0.098039,0 0.2028458,0.202847 -0.3099765,-0.0079 0.098039,0.196079 0.02923,0.01462 0.07493,-0.02311 0.09804,0 0.02311,0.02311 -0.01461,0.06881 0,0.09804 0.02067,0.04134 0.07737,0.0567 0.09804,0.09804 0.01461,0.02923 -0.01461,0.06881 0,0.09804 0.02067,0.04134 0.06536,0.06536 0.09804,0.09804 0.03268,0.03268 0.0567,0.07737 0.09804,0.09804 0.02923,0.01461 0.07493,-0.02311 0.09804,0 0.02311,0.02311 -0.02311,0.07493 0,0.09804 0.02311,0.02311 0.07493,-0.02311 0.09804,0 0.02311,0.02311 -0.02311,0.07493 0,0.09804 0.02311,0.02311 0.07493,-0.02311 0.09804,0 0.02311,0.02311 -0.02311,0.07493 0,0.09804 0.02311,0.02311 0.07493,-0.02311 0.09804,0 0.04902,0.04902 -0.04902,0.245098 0,0.294117 0.04622,0.04622 0.149862,-0.04622 0.196078,0 0.02311,0.02311 -0.02311,0.07493 0,0.09804 0.02311,0.02311 0.07493,-0.02311 0.09804,0 0.02311,0.02311 -0.02311,0.07493 0,0.09804 0.02311,0.02311 0.07493,-0.02311 0.09804,0 0.02311,0.02311 -0.02311,0.07493 0,0.09804 0.02311,0.02311 0.07493,-0.02311 0.09804,0 0.04622,0.04622 -0.02923,0.137619 0,0.196078 0.108385,0.21677 0.06085,0.03042 0.196078,0.09804 0.117647,0.05882 0.176471,0.235294 0.294118,0.294117 0.02923,0.01462 0.07493,-0.02311 0.09804,0 0.04622,0.04622 -0.02923,0.137619 0,0.196079 0.108385,0.21677 0.06085,0.03042 0.196079,0.09804 0.04134,0.02067 0.0567,0.07737 0.09804,0.09804 0.02923,0.01461 0.07493,-0.02311 0.09804,0 0.02311,0.02311 -0.01461,0.06881 0,0.09804 0.03478,0.06956 0.161296,0.126513 0.196078,0.196079 0.01462,0.02923 -0.02311,0.07493 0,0.09804 0.02311,0.02311 0.07493,-0.02311 0.09804,0 0.02311,0.02311 -0.02311,0.07493 0,0.09804 0.04622,0.04622 0.137619,-0.02923 0.196078,0 0.09804,0.06536 0.196078,0.130719 0.294118,0.196079 0,0.03268 -0.02311,0.07493 0,0.09804 0.02311,0.02311 0.07493,-0.02311 0.09804,0 0.02311,0.02311 -0.02311,0.07493 0,0.09804 0.02311,0.02311 0.06881,-0.01462 0.09804,0 0.04134,0.02067 0.0567,0.07737 0.09804,0.09804 0.05846,0.02923 0.137619,-0.02923 0.196079,0 0.408015,0.204008 -0.104808,-0.0068 0.09804,0.196079 0.04622,0.04622 0.137619,-0.02923 0.196078,0 0.408016,0.204007 -0.104807,-0.0068 0.09804,0.196078 0.04622,0.04622 0.149862,-0.04622 0.196078,0 0.02311,0.02311 -0.02311,0.07493 0,0.09804 0.02311,0.02311 0.07493,-0.02311 0.09804,0 0.02311,0.02311 -0.02311,0.07493 0,0.09804 0.04622,0.04622 0.137619,-0.02923 0.196079,0 0.04134,0.02067 0.0567,0.07737 0.09804,0.09804 0.02923,0.01461 0.06881,-0.01462 0.09804,0 0.180492,0.09025 0.01559,0.203872 0.196079,0.294117 0.02923,0.01461 0.06881,-0.01461 0.09804,0 0.08267,0.04134 0.113404,0.154742 0.196078,0.196079 0.05846,0.02923 0.149863,-0.04622 0.196079,0 0.02311,0.02311 -0.02311,0.07493 0,0.09804 0.02311,0.02311 0.06881,-0.01461 0.09804,0 0.04134,0.02067 0.0567,0.07737 0.09804,0.09804 0.02923,0.01461 0.06881,-0.01461 0.09804,0 0.08267,0.04134 0.113405,0.154742 0.196079,0.196079 0.02923,0.01461 0.07493,-0.02311 0.09804,0 0.04622,0.04622 -0.04622,0.149862 0,0.196078 0.04902,0.04902 0.245098,-0.04902 0.294118,0 0.02311,0.02311 -0.02311,0.07493 0,0.09804 0.02311,0.02311 0.06881,-0.01461 0.09804,0 0.408016,0.204008 -0.104808,-0.0068 0.09804,0.196079 0.02311,0.02311 0.07493,-0.02311 0.09804,0 0.02311,0.02311 -0.02311,0.07493 0,0.09804 0.02311,0.02311 0.07493,-0.02311 0.09804,0 0.02311,0.02311 -0.02311,0.07493 0,0.09804 0.02311,0.02311 0.07493,-0.02311 0.09804,0 0.02311,0.02311 -0.02311,0.07493 0,0.09804 0.04622,0.04622 0.149862,-0.04622 0.196078,0 0.04622,0.04622 -0.04622,0.149863 0,0.196079 0.02311,0.02311 0.07493,-0.02311 0.09804,0 0,0.261438 -0.03268,-0.03268 0.09804,0.09804 0.04902,0.04902 -0.04902,0.245098 0,0.294118 0.02311,0.02311 0.07493,-0.02311 0.09804,0 0.163934,0.163934 -0.163935,0.03214 0,0.196078 0.02311,0.02311 0.07493,-0.02311 0.09804,0 0.04622,0.04622 -0.02923,0.137619 0,0.196079 0.04134,0.08267 0.154741,0.113404 0.196078,0.196078 0.01461,0.02923 -0.01461,0.06881 0,0.09804 0.02067,0.04134 0.07737,0.0567 0.09804,0.09804 0.01944,0.03887 -0.02004,0.274075 0,0.294118 0.202846,0.202847 -0.0079,-0.309976 0.196078,0.09804 0.01462,0.02923 -0.01461,0.06881 0,0.09804 0.02067,0.04134 0.07737,0.0567 0.09804,0.09804 0.01462,0.02923 -0.01461,0.06881 0,0.09804 0.04134,0.08267 0.154742,0.113404 0.196079,0.196078 0.01461,0.02923 -0.01461,0.06881 0,0.09804 0.02067,0.04134 0.07737,0.0567 0.09804,0.09804 0.03081,0.06162 -0.03081,0.330537 0,0.392157 0.204008,0.408015 -0.0068,-0.104808 0.196078,0.09804 0.04622,0.04622 -0.02923,0.137619 0,0.196078 0.02067,0.04134 0.07737,0.0567 0.09804,0.09804 0.01461,0.02923 -0.01461,0.06881 0,0.09804 0.204007,0.408015 -0.0068,-0.104808 0.196078,0.09804 0.09836,0.09836 -0.09836,0.09772 0,0.196078 0.02311,0.02311 0.07493,-0.02311 0.09804,0 0.04902,0.04902 -0.04902,0.245098 0,0.294118 0.202847,0.202847 -0.0079,-0.309977 0.196079,0.09804 0.01461,0.02923 -0.02311,0.07493 0,0.09804 0.02311,0.02311 0.07493,-0.02311 0.09804,0 0.02311,0.02311 -0.01462,0.06881 0,0.09804 0.04134,0.08267 0.154741,0.113404 0.196078,0.196078 0.01461,0.02923 -0.02311,0.07493 0,0.09804 0.02311,0.02311 0.07493,-0.02311 0.09804,0 0.09836,0.09836 -0.09836,0.09772 0,0.196079 0.02311,0.02311 0.07493,-0.02311 0.09804,0 0.02311,0.02311 -0.02311,0.07493 0,0.09804 0.02311,0.02311 0.07493,-0.02311 0.09804,0 0.02311,0.02311 -0.02311,0.07493 0,0.09804 0.02311,0.02311 0.07493,-0.02311 0.09804,0 0.02311,0.02311 -0.02311,0.07493 0,0.09804 0.02311,0.02311 0.07493,-0.02311 0.09804,0 0.02311,0.02311 0,0.06536 0,0.09804 0.03268,0 0.06881,-0.01461 0.09804,0 0.408015,0.204007 -0.104808,-0.0068 0.09804,0.196078 0.02311,0.02311 0.07493,-0.02311 0.09804,0 0.02311,0.02311 -0.02311,0.07493 0,0.09804 0.02311,0.02311 0.07493,-0.02311 0.09804,0 0.02311,0.02311 -0.02311,0.07493 0,0.09804 0.02311,0.02311 0.07493,-0.02311 0.09804,0 0.02311,0.02311 0,0.06536 0,0.09804 0.03268,0 0.07493,-0.02311 0.09804,0 0.02311,0.02311 -0.02311,0.07493 0,0.09804 0.02311,0.02311 0.06881,-0.01461 0.09804,0 0.08267,0.04134 0.113404,0.154741 0.196078,0.196078 0.02923,0.01461 0.06881,-0.01461 0.09804,0 0.04134,0.02067 0.0567,0.07737 0.09804,0.09804 0.02923,0.01461 0.07493,-0.02311 0.09804,0 0.02311,0.02311 -0.02311,0.07493 0,0.09804 0.02311,0.02311 0.07493,-0.02311 0.09804,0 0.02311,0.02311 -0.02311,0.07493 0,0.09804 0.02311,0.02311 0.07493,-0.02311 0.09804,0 0.02311,0.02311 -0.02311,0.07493 0,0.09804 0.04902,0.04902 0.245098,-0.04902 0.294118,0 0.02311,0.02311 -0.02311,0.07493 0,0.09804 0.04622,0.04622 0.149862,-0.04622 0.196078,0 0.06557,0.06557 -0.06557,0.130505 0,0.196079 0.04622,0.04622 0.149863,-0.04622 0.196079,0 0.02311,0.02311 -0.02311,0.07493 0,0.09804 0.04622,0.04622 0.149862,-0.04622 0.196078,0 0.02311,0.02311 -0.02311,0.07493 0,0.09804 0.02311,0.02311 0.07493,-0.02311 0.09804,0 0.02311,0.02311 -0.02311,0.07493 0,0.09804 0.04622,0.04622 0.149862,-0.04622 0.196078,0 0.02311,0.02311 -0.02311,0.07493 0,0.09804 0.02311,0.02311 0.07493,-0.02311 0.09804,0 0.02311,0.02311 -0.02311,0.07493 0,0.09804 0.04622,0.04622 0.149862,-0.04622 0.196079,0 0,0.261438 -0.03268,-0.03268 0.09804,0.09804 0.02311,0.02311 -0.02311,0.07493 0,0.09804 0.02311,0.02311 0.07493,-0.02311 0.09804,0 0.02311,0.02311 -0.02311,0.07493 0,0.09804 0.02311,0.02311 0.07493,-0.02311 0.09804,0 0.02311,0.02311 -0.02311,0.07493 0,0.09804 0.04622,0.04622 0.149863,-0.04622 0.196079,0 0.02311,0.02311 -0.02311,0.07493 0,0.09804 0.02311,0.02311 0.07493,-0.02311 0.09804,0 0.02311,0.02311 -0.02311,0.07493 0,0.09804 0.02311,0.02311 0.07493,-0.02311 0.09804,0 0.04622,0.04622 -0.04622,0.149862 0,0.196079 0.02311,0.02311 0.07493,-0.02311 0.09804,0 0.02311,0.02311 -0.02311,0.07493 0,0.09804 0.04622,0.04622 0.149863,-0.04622 0.196079,0 0.02311,0.02311 0,0.06536 0,0.09804 0.03268,0 0.07493,-0.02311 0.09804,0 0.02311,0.02311 -0.02311,0.07493 0,0.09804 0.202847,0.202847 -0.0079,-0.309976 0.196078,0.09804 0.01461,0.02923 -0.01461,0.06881 0,0.09804 0.02067,0.04134 0.07737,0.0567 0.09804,0.09804 0.01461,0.02923 -0.02311,0.07493 0,0.09804 0.04622,0.04622 0.137619,-0.02923 0.196078,0 0.04134,0.02067 0.06536,0.06536 0.09804,0.09804 0.03268,0.03268 0.07737,0.0567 0.09804,0.09804 0.01461,0.02923 -0.02311,0.07493 0,0.09804 0.02311,0.02311 0.07493,-0.02311 0.09804,0 0.04622,0.04622 -0.04622,0.149862 0,0.196078 0.02311,0.02311 0.07493,-0.02311 0.09804,0 0.02311,0.02311 -0.02311,0.07493 0,0.09804 0.04622,0.04622 0.149862,-0.04622 0.196078,0 0.02311,0.02311 -0.02311,0.07493 0,0.09804 0.02311,0.02311 0.07493,-0.02311 0.09804,0 0.02311,0.02311 0,0.06536 0,0.09804 0.03268,0 0.07493,-0.02311 0.09804,0 0.02311,0.02311 -0.02311,0.07493 0,0.09804 0.02311,0.02311 0.07493,-0.02311 0.09804,0 0.04622,0.04622 -0.02923,0.137619 0,0.196079 0.204008,0.408015 -0.0068,-0.104808 0.196078,0.09804 0.02311,0.02311 -0.02311,0.07493 0,0.09804 0.02311,0.02311 0.07493,-0.02311 0.09804,0 0.02311,0.02311 -0.02311,0.07493 0,0.09804 0.02311,0.02311 0.07493,-0.02311 0.09804,0 0.02311,0.02311 -0.01462,0.06881 0,0.09804 0.02067,0.04134 0.07737,0.0567 0.09804,0.09804 0.01461,0.02923 -0.02311,0.07493 0,0.09804 0.02311,0.02311 0.07493,-0.02311 0.09804,0 0.02311,0.02311 -0.01462,0.06881 0,0.09804 0.02067,0.04134 0.07737,0.0567 0.09804,0.09804 0.01461,0.02923 -0.02311,0.07493 0,0.09804 0.02311,0.02311 0.07493,-0.02311 0.09804,0 0.02311,0.02311 0,0.06536 0,0.09804 0.03268,0 0.07493,-0.02311 0.09804,0 0.02311,0.02311 -0.02311,0.07493 0,0.09804 0.02311,0.02311 0.07493,-0.02311 0.09804,0 0.02311,0.02311 0,0.06536 0,0.09804 0.03268,0 0.07493,-0.02311 0.09804,0 0.02311,0.02311 -0.02311,0.07493 0,0.09804 0.02311,0.02311 0.07493,-0.02311 0.09804,0 0.06557,0.06557 -0.06557,0.130505 0,0.196079 0.02311,0.02311 0.07493,-0.02311 0.09804,0 0.02311,0.02311 -0.01461,0.06881 0,0.09804 0.02067,0.04134 0.06536,0.06536 0.09804,0.09804 0.03268,0.03268 0.0567,0.07737 0.09804,0.09804 0.261438,0 -0.03268,-0.03268 0.09804,0.09804 0.02311,0.02311 0.07493,-0.02311 0.09804,0 0.04902,0.04902 -0.04902,0.245098 0,0.294117 0.02311,0.02311 0.06881,-0.01461 0.09804,0 0.04134,0.02067 0.0567,0.07737 0.09804,0.09804 0.02923,0.01462 0.07493,-0.02311 0.09804,0 0.02311,0.02311 -0.02311,0.07493 0,0.09804 0.04622,0.04622 0.149863,-0.04622 0.196079,0 0.02311,0.02311 -0.02311,0.07493 0,0.09804 0.02311,0.02311 0.07493,-0.02311 0.09804,0 0.04902,0.04902 -0.04902,0.245098 0,0.294118 0.04622,0.04622 0.149862,-0.04622 0.196078,0 0.02311,0.02311 -0.02311,0.07493 0,0.09804 0.02311,0.02311 0.07493,-0.02311 0.09804,0 0.02311,0.02311 -0.02311,0.07493 0,0.09804 0.02311,0.02311 0.07493,-0.02311 0.09804,0 0.02311,0.02311 -0.02311,0.07493 0,0.09804 0.04622,0.04622 0.149862,-0.04622 0.196078,0 0.06557,0.06557 -0.06557,0.130505 0,0.196079 0.02311,0.02311 0.07493,-0.02311 0.09804,0 0.02311,0.02311 -0.02311,0.07493 0,0.09804 0.02311,0.02311 0.07493,-0.02311 0.09804,0 0.02311,0.02311 -0.02311,0.07493 0,0.09804 0.02311,0.02311 0.07493,-0.02311 0.09804,0 0.02311,0.02311 -0.02311,0.07493 0,0.09804 0.04622,0.04622 0.149862,-0.04622 0.196078,0 0.02311,0.02311 0,0.06536 0,0.09804 0.03268,0 0.07493,-0.02311 0.09804,0 0.04622,0.04622 -0.04622,0.149863 0,0.196079 0.02311,0.02311 0.07493,-0.02311 0.09804,0 0.02311,0.02311 -0.02311,0.07493 0,0.09804 0.04622,0.04622 0.149862,-0.04622 0.196078,0 0.02311,0.02311 -0.02311,0.07493 0,0.09804 0.02311,0.02311 0.06881,-0.01461 0.09804,0 0.04134,0.02067 0.0567,0.07737 0.09804,0.09804 0.02923,0.01461 0.07493,-0.02311 0.09804,0 0.04622,0.04622 -0.02923,0.137619 0,0.196078 0.01301,0.02603 0.268087,0.281102 0.294117,0.294118 0.02923,0.01461 0.07493,-0.02311 0.09804,0 0.02311,0.02311 -0.02311,0.07493 0,0.09804 0.02311,0.02311 0.07493,-0.02311 0.09804,0 0.02311,0.02311 -0.02311,0.07493 0,0.09804 0.02311,0.02311 0.07493,-0.02311 0.09804,0 0.04902,0.04902 -0.04902,0.245098 0,0.294118 0.02311,0.02311 0.06881,-0.01461 0.09804,0 0.08267,0.04134 0.113405,0.154741 0.196079,0.196078 0.02923,0.01462 0.07493,-0.02311 0.09804,0 0.02311,0.02311 0,0.06536 0,0.09804 0.03268,0 0.07493,-0.02311 0.09804,0 0.06557,0.06557 -0.06557,0.130505 0,0.196079 0.02311,0.02311 0.07493,-0.02311 0.09804,0 0.02311,0.02311 -0.02311,0.07493 0,0.09804 0.02311,0.02311 0.07493,-0.02311 0.09804,0 0.02311,0.02311 -0.02311,0.07493 0,0.09804 0.04622,0.04622 0.149862,-0.04622 0.196078,0 0.02311,0.02311 0,0.06536 0,0.09804 0.03268,0 0.07493,-0.02311 0.09804,0 0.02311,0.02311 -0.01462,0.06881 0,0.09804 0.02067,0.04134 0.07737,0.0567 0.09804,0.09804 0.01461,0.02923 -0.02311,0.07493 0,0.09804 0.02311,0.02311 0.07493,-0.02311 0.09804,0 0.02311,0.02311 -0.02311,0.07493 0,0.09804 0.02311,0.02311 0.07493,-0.02311 0.09804,0 0.02311,0.02311 -0.02311,0.07493 0,0.09804 0.04622,0.04622 0.149862,-0.04622 0.196078,0 0.02311,0.02311 -0.02311,0.07493 0,0.09804 0.04622,0.04622 0.149863,-0.04622 0.196079,0 0.04902,0.04902 -0.04902,0.245098 0,0.294117 0.02311,0.02311 0.06881,-0.01461 0.09804,0 0.325155,0.325156 -0.09243,-0.04622 0.196078,0.09804 0.04134,0.02067 0.0567,0.07737 0.09804,0.09804 0.02923,0.01461 0.07493,-0.02311 0.09804,0 0.06557,0.06557 -0.06557,0.130504 0,0.196078 0.02311,0.02311 0.07493,-0.02311 0.09804,0 0.06557,0.06557 -0.06557,0.130505 0,0.196079 0.02311,0.02311 0.06881,-0.01462 0.09804,0 0.04134,0.02067 0.0567,0.07737 0.09804,0.09804 0.02923,0.01461 0.07493,-0.02311 0.09804,0 0.02311,0.02311 -0.02311,0.07493 0,0.09804 0.02311,0.02311 0.07493,-0.02311 0.09804,0 0.02311,0.02311 -0.02311,0.07493 0,0.09804 0.02311,0.02311 0.07493,-0.02311 0.09804,0 0.02311,0.02311 -0.02311,0.07493 0,0.09804 0.02311,0.02311 0.07493,-0.02311 0.09804,0 0.06539,0.0654 -0.0654,0.130683 0,0.196078 0.02311,0.02311 0.06881,-0.01461 0.09804,0 0.04134,0.02067 0.0567,0.07737 0.09804,0.09804 0.05846,0.02923 0.149862,-0.04622 0.196078,0 0.02311,0.02311 -0.01461,0.06881 0,0.09804 0.02067,0.04134 0.07737,0.0567 0.09804,0.09804 0.01461,0.02923 -0.01461,0.06881 0,0.09804 0.204008,0.408016 -0.0068,-0.104808 0.196079,0.09804 0.02311,0.02311 -0.02311,0.07493 0,0.09804 0.02311,0.02311 0.07493,-0.02311 0.09804,0 0.02311,0.02311 -0.02311,0.07493 0,0.09804 0.04902,0.04902 0.245098,-0.04902 0.294118,0 0.02311,0.02311 -0.02311,0.07493 0,0.09804 0.04622,0.04622 0.149862,-0.04622 0.196078,0 0.02311,0.02311 -0.02311,0.07493 0,0.09804 0.02311,0.02311 0.07493,-0.02311 0.09804,0 0.04622,0.04622 -0.04622,0.149862 0,0.196078 0.02311,0.02311 0.07493,-0.02311 0.09804,0 0.02311,0.02311 -0.02311,0.07493 0,0.09804 0.02311,0.02311 0.07493,-0.02311 0.09804,0 0.02311,0.02311 -0.02311,0.07493 0,0.09804 0.02311,0.02311 0.07493,-0.02311 0.09804,0 0.02311,0.02311 -0.02311,0.07493 0,0.09804 0.02311,0.02311 0.07493,-0.02311 0.09804,0 0.02311,0.02311 -0.02311,0.07493 0,0.09804 0.06557,0.06557 0.130505,-0.06557 0.196079,0 0.02311,0.02311 -0.02311,0.07493 0,0.09804 0.02311,0.02311 0.07493,-0.02311 0.09804,0 0.02311,0.02311 -0.02311,0.07493 0,0.09804 0.02311,0.02311 0.07493,-0.02311 0.09804,0 0.02311,0.02311 -0.02311,0.07493 0,0.09804 0.02311,0.02311 0.07493,-0.02311 0.09804,0 0.04622,0.04622 -0.04622,0.149862 0,0.196078 0.02311,0.02311 0.06881,-0.01461 0.09804,0 0.09647,0.04824 0.295683,0.34392 0.392156,0.392157 0.02923,0.01461 0.07493,-0.02311 0.09804,0 0.02311,0.02311 -0.02311,0.07493 0,0.09804 0.02311,0.02311 0.06536,0 0.09804,0 0,0.03268 -0.01461,0.06881 0,0.09804 0.02067,0.04134 0.06536,0.06536 0.09804,0.09804 0.03268,0.03268 0.0567,0.07737 0.09804,0.09804 0.02923,0.01461 0.07493,-0.02311 0.09804,0 0.02311,0.02311 -0.02311,0.07493 0,0.09804 0.02311,0.02311 0.07493,-0.02311 0.09804,0 0.02311,0.02311 -0.02311,0.07493 0,0.09804 0.02311,0.02311 0.07493,-0.02311 0.09804,0 0.02311,0.02311 -0.02311,0.07493 0,0.09804 0.02311,0.02311 0.07493,-0.02311 0.09804,0 0.02311,0.02311 -0.02311,0.07493 0,0.09804 0.02311,0.02311 0.07493,-0.02311 0.09804,0 0.02311,0.02311 -0.02311,0.07493 0,0.09804 0.02311,0.02311 0.07493,-0.02311 0.09804,0 0.02311,0.02311 -0.02311,0.07493 0,0.09804 0.02311,0.02311 0.07493,-0.02311 0.09804,0 0.06557,0.06557 -0.06557,0.130505 0,0.196079 0.02311,0.02311 0.07493,-0.02311 0.09804,0 0.0654,0.06539 -0.0654,0.130683 0,0.196078 0.02311,0.02311 0.06881,-0.01461 0.09804,0 0.04134,0.02067 0.0567,0.07737 0.09804,0.09804 0.02923,0.01461 0.07493,-0.02311 0.09804,0 0.04622,0.04622 -0.04622,0.149863 0,0.196079 0.04622,0.04622 0.149862,-0.04622 0.196078,0 0.02311,0.02311 -0.02311,0.07493 0,0.09804 0.02311,0.02311 0.07493,-0.02311 0.09804,0 0.02311,0.02311 -0.02311,0.07493 0,0.09804 0.02311,0.02311 0.07493,-0.02311 0.09804,0 0.02311,0.02311 -0.02311,0.07493 0,0.09804 0.04622,0.04622 0.149862,-0.04622 0.196078,0 0.02311,0.02311 -0.02311,0.07493 0,0.09804 0.0098,0.0098 0.284314,0.0098 0.294118,0 0.05859,-0.05859 -0.105969,-0.196079 0.09804,-0.196079 0.03161,0 0.141604,0.168842 0.196078,0.196079 0.02923,0.01461 0.07493,-0.02311 0.09804,0 0.202847,0.202846 -0.309976,-0.0079 0.09804,0.196078 0.02923,0.01461 0.07493,-0.02311 0.09804,0 0.02311,0.02311 -0.02311,0.07493 0,0.09804 0.02311,0.02311 0.06881,-0.01461 0.09804,0 0.04134,0.02067 0.0567,0.07737 0.09804,0.09804 0.02923,0.01461 0.06881,-0.01461 0.09804,0 0.408015,0.204007 -0.104808,-0.0068 0.09804,0.196078 0.02311,0.02311 0.06536,0 0.09804,0 0,0.03268 -0.01461,0.06881 0,0.09804 0.108385,0.21677 0.06085,0.03042 0.196078,0.09804 0.04134,0.02067 0.0567,0.07737 0.09804,0.09804 0.02923,0.01461 0.07493,-0.02311 0.09804,0 0.02311,0.02311 -0.02311,0.07493 0,0.09804 0.02311,0.02311 0.07493,-0.02311 0.09804,0 0.02311,0.02311 -0.02311,0.07493 0,0.09804 0.02311,0.02311 0.07493,0.02311 0.09804,0 0.02311,-0.02311 -0.03268,-0.09804 0,-0.09804 0.13922,0 0.09804,0.224413 0.09804,0.294117 0,0.261438 -0.03268,-0.03268 0.09804,0.09804 0.02311,0.02311 -0.02311,0.07493 0,0.09804 0.02311,0.02311 0.07493,-0.02311 0.09804,0 0.02311,0.02311 -0.02311,0.07493 0,0.09804 0.202847,0.202847 -0.0079,-0.309976 0.196078,0.09804 0.01461,0.02923 0,0.06536 0,0.09804 0.03268,0.03268 0.07737,0.0567 0.09804,0.09804 0.01461,0.02923 -0.02311,0.07493 0,0.09804 0.02311,0.02311 0.06881,-0.01461 0.09804,0 0.08267,0.04134 0.113404,0.154741 0.196078,0.196078 0.02923,0.01461 0.07493,-0.02311 0.09804,0 0.04622,0.04622 -0.04622,0.149863 0,0.196079 0.02311,0.02311 0.07493,-0.02311 0.09804,0 0.02311,0.02311 -0.02311,0.07493 0,0.09804 0.02311,0.02311 0.07493,-0.02311 0.09804,0 0.02311,0.02311 -0.02311,0.07493 0,0.09804 0.02311,0.02311 0.07493,-0.02311 0.09804,0 0.02311,0.02311 -0.02311,0.07493 0,0.09804 0.02311,0.02311 0.07493,-0.02311 0.09804,0 0.04622,0.04622 -0.04622,0.149862 0,0.196078 0.02311,0.02311 0.07493,-0.02311 0.09804,0 0.02311,0.02311 0,0.06536 0,0.09804 0.06536,0.06536 0.11917,0.144806 0.196078,0.196079 0.02719,0.01813 0.07493,-0.02311 0.09804,0 0.04622,0.04622 -0.02923,0.137619 0,0.196078 0.02067,0.04134 0.07737,0.0567 0.09804,0.09804 0.01461,0.02923 -0.02311,0.07493 0,0.09804 0.02311,0.02311 0.07493,-0.02311 0.09804,0 0.02311,0.02311 -0.02311,0.07493 0,0.09804 0.02311,0.02311 0.07493,-0.02311 0.09804,0 0.02311,0.02311 -0.02311,0.07493 0,0.09804 0.02311,0.02311 0.07493,-0.02311 0.09804,0 0.02311,0.02311 -0.02311,0.07493 0,0.09804 0.02311,0.02311 0.07493,-0.02311 0.09804,0 0.02311,0.02311 -0.01461,0.06881 0,0.09804 0.02067,0.04134 0.07737,0.0567 0.09804,0.09804 0.02923,0.05846 -0.04622,0.149862 0,0.196078 0.02311,0.02311 0.07493,-0.02311 0.09804,0 0.02311,0.02311 -0.02311,0.07493 0,0.09804 0.02311,0.02311 0.07493,-0.02311 0.09804,0 0.02311,0.02311 -0.01461,0.06881 0,0.09804 0.02067,0.04134 0.07737,0.0567 0.09804,0.09804 0.01462,0.02923 -0.02311,0.07493 0,0.09804 0.02311,0.02311 0.07493,-0.02311 0.09804,0 0.202847,0.202846 -0.309976,-0.0079 0.09804,0.196078 0.02923,0.01461 0.07493,-0.02311 0.09804,0 0.04622,0.04622 -0.04622,0.149863 0,0.196079 0.02311,0.02311 0.07493,-0.02311 0.09804,0 0.02311,0.02311 -0.01461,0.06881 0,0.09804 0.04134,0.08267 0.154741,0.113404 0.196078,0.196078 0.01461,0.02923 -0.02311,0.07493 0,0.09804 0.04622,0.04622 0.149863,-0.04622 0.196079,0 0.04622,0.04622 -0.04622,0.149862 0,0.196078 0.04902,0.04902 0.245098,-0.04902 0.294117,0 0.04622,0.04622 -0.04622,0.149862 0,0.196078 0.02311,0.02311 0.07493,-0.02311 0.09804,0 0.02311,0.02311 -0.01462,0.06881 0,0.09804 0.204008,0.408015 -0.0068,-0.104808 0.196078,0.09804 0.02311,0.02311 -0.02311,0.07493 0,0.09804 0.02311,0.02311 0.06881,-0.01461 0.09804,0 0.04134,0.02067 0.06536,0.06536 0.09804,0.09804 0.130719,0.130719 0.261437,0.261438 0.392156,0.392157 0.03268,0.03268 0.06536,0.06536 0.09804,0.09804 0.03268,0.03268 0.0567,0.07737 0.09804,0.09804 0.02923,0.01461 0.07493,-0.02311 0.09804,0 0.02311,0.02311 -0.02311,0.07493 0,0.09804 0.02311,0.02311 0.07493,-0.02311 0.09804,0 0.02311,0.02311 -0.02311,0.07493 0,0.09804 0.04622,0.04622 0.149863,-0.04622 0.196079,0 0.02311,0.02311 -0.02311,0.07493 0,0.09804 0.02311,0.02311 0.07493,-0.02311 0.09804,0 0.202847,0.202847 -0.309977,-0.0079 0.09804,0.196079 0.261438,0 -0.03268,-0.03268 0.09804,0.09804 0.02311,0.02311 0.07493,-0.02311 0.09804,0 0.202846,0.202846 -0.309977,-0.0079 0.09804,0.196078 0.02923,0.01461 0.07493,-0.02311 0.09804,0 0.02311,0.02311 -0.02311,0.07493 0,0.09804 0.02311,0.02311 0.06881,-0.01461 0.09804,0 0.04134,0.02067 0.0567,0.07737 0.09804,0.09804 0.02923,0.01461 0.07493,-0.02311 0.09804,0 0.02311,0.02311 -0.02311,0.07493 0,0.09804 0.02311,0.02311 0.06881,-0.01461 0.09804,0 0.408016,0.204008 -0.104808,-0.0068 0.09804,0.196078 0.02311,0.02311 0.07493,-0.02311 0.09804,0 0.02311,0.02311 -0.02311,0.07493 0,0.09804 0.02311,0.02311 0.07493,-0.02311 0.09804,0 0.02311,0.02311 -0.02311,0.07493 0,0.09804 0.02311,0.02311 0.07493,-0.02311 0.09804,0 0.04622,0.04622 -0.02923,0.137619 0,0.196078 0.05882,0.117647 0.235294,0.176471 0.294117,0.294118 0.01944,0.03887 -0.02004,0.274075 0,0.294118 0.02311,0.02311 0.06881,-0.01461 0.09804,0 0.0454,0.0227 0.334495,0.334495 0.392156,0.392156 0.03268,0.03268 0.05182,0.09804 0.09804,0.09804 0.03268,0 -0.03268,-0.09804 0,-0.09804 0.04622,0 0.0567,0.07737 0.09804,0.09804 0.02923,0.01461 0.09804,0.03268 0.09804,0 0,-0.04622 -0.09804,-0.05182 -0.09804,-0.09804 0,-0.03268 0.07493,-0.02311 0.09804,0 0.02311,0.02311 -0.02311,0.07493 0,0.09804 0.02311,0.02311 0.07493,-0.02311 0.09804,0 0.0032,0.0032 0,0.27034 0,0.294117 0,0.257862 0.0787,-0.03869 0.196079,0.196079 0.01461,0.02923 -0.02311,0.07493 0,0.09804 0.02311,0.02311 0.07493,-0.02311 0.09804,0 0.02311,0.02311 -0.01461,0.06881 0,0.09804 0.02067,0.04134 0.07737,0.0567 0.09804,0.09804 0.01461,0.02923 -0.02311,0.07493 0,0.09804 0.02311,0.02311 0.07493,-0.02311 0.09804,0 0.02311,0.02311 -0.02311,0.07493 0,0.09804 0.02311,0.02311 0.06881,-0.01461 0.09804,0 0.04134,0.02067 0.0567,0.07737 0.09804,0.09804 0.02923,0.01461 0.07493,-0.02311 0.09804,0 0.02311,0.02311 -0.02311,0.07493 0,0.09804 0.02311,0.02311 0.07493,-0.02311 0.09804,0 0.02359,0.02359 -0.02359,0.368566 0,0.392157 0.03036,0.03036 0.459839,-0.03036 0.490196,0 0.02311,0.02311 -0.01461,0.06881 0,0.09804 0.02067,0.04134 0.07737,0.0567 0.09804,0.09804 0.01461,0.02923 0,0.06536 0,0.09804 0.03268,0.03268 0.07737,0.0567 0.09804,0.09804 0.01461,0.02923 -0.02311,0.07493 0,0.09804 0.02311,0.02311 0.07493,-0.02311 0.09804,0 0.02311,0.02311 -0.02311,0.07493 0,0.09804 0.04902,0.04902 0.245098,-0.04902 0.294118,0 0.04622,0.04622 -0.04622,0.149863 0,0.196079 0.02311,0.02311 0.07493,-0.02311 0.09804,0 0.02311,0.02311 -0.01461,0.06881 0,0.09804 0.02067,0.04134 0.09804,0.05182 0.09804,0.09804 0,0.03268 -0.07493,-0.02311 -0.09804,0 -0.02311,0.02311 -0.02311,0.07493 0,0.09804 0.02311,0.02311 0.07493,-0.02311 0.09804,0 0.02311,0.02311 -0.02311,0.07493 0,0.09804 0.02311,0.02311 0.06536,0 0.09804,0 0,0.03268 -0.02311,0.07493 0,0.09804 0.02311,0.02311 0.07493,-0.02311 0.09804,0 0.02311,0.02311 -0.02311,0.07493 0,0.09804 0.202847,0.202847 -0.0079,-0.309976 0.196079,0.09804 0.01461,0.02923 -0.01461,0.06881 0,0.09804 0.02067,0.04134 0.06536,0.06536 0.09804,0.09804 0.03268,0.03268 0.0567,0.07737 0.09804,0.09804 0.02923,0.01461 0.06881,-0.01461 0.09804,0 0.0454,0.0227 0.334495,0.334496 0.392156,0.392157 0.03268,0.03268 0.0567,0.07737 0.09804,0.09804 0.02923,0.01461 0.06881,-0.01461 0.09804,0 0.04134,0.02067 0.0567,0.07737 0.09804,0.09804 0.02923,0.01461 0.07493,-0.02311 0.09804,0 0.02311,0.02311 -0.02311,0.07493 0,0.09804 0.02311,0.02311 0.07493,-0.02311 0.09804,0 0.04622,0.04622 -0.04622,0.149863 0,0.196079 0.06557,0.06557 0.130504,-0.06557 0.196078,0 0.04622,0.04622 -0.04622,0.149862 0,0.196078 0.04622,0.04622 0.137619,-0.02923 0.196078,0 0.04134,0.02067 0.0567,0.07737 0.09804,0.09804 0.02923,0.01461 0.07493,-0.02311 0.09804,0 0.02311,0.02311 -0.01461,0.06881 0,0.09804 0.204008,0.408015 -0.0068,-0.104808 0.196078,0.09804 0.02311,0.02311 -0.02311,0.07493 0,0.09804 0.02311,0.02311 0.07493,-0.02311 0.09804,0 0.02311,0.02311 -0.02311,0.07493 0,0.09804 0.02311,0.02311 0.06881,-0.01461 0.09804,0 0.117647,0.05882 0.17647,0.235295 0.294117,0.294118 0.02923,0.01461 0.07493,-0.02311 0.09804,0 0.02311,0.02311 -0.02311,0.07493 0,0.09804 0.02311,0.02311 0.07493,-0.02311 0.09804,0 0.02311,0.02311 -0.02311,0.07493 0,0.09804 0.02311,0.02311 0.07493,-0.02311 0.09804,0 0.02311,0.02311 -0.02311,0.07493 0,0.09804 0.02311,0.02311 0.06536,0 0.09804,0 0,0.03268 -0.02311,0.07493 0,0.09804 0.02311,0.02311 0.07493,-0.02311 0.09804,0 0.02311,0.02311 -0.02311,0.07493 0,0.09804 0.02311,0.02311 0.06536,0 0.09804,0 0,0.03268 -0.02311,0.07493 0,0.09804 0.04622,0.04622 0.149862,-0.04622 0.196078,0 0.02311,0.02311 -0.02311,0.07493 0,0.09804 0.02311,0.02311 0.07493,-0.02311 0.09804,0 0.02311,0.02311 -0.02311,0.07493 0,0.09804 0.02311,0.02311 0.07493,-0.02311 0.09804,0 0.202847,0.202846 -0.309976,-0.0079 0.09804,0.196078 0.02923,0.01461 0.06881,-0.01461 0.09804,0 0.04134,0.02067 0.0567,0.07737 0.09804,0.09804 0.02923,0.01461 0.06881,-0.01461 0.09804,0 0.04134,0.02067 0.0567,0.07737 0.09804,0.09804 0.02923,0.01461 0.07493,-0.02311 0.09804,0 0.02311,0.02311 -0.01461,0.06881 0,0.09804 0.204008,0.408016 -0.0068,-0.104808 0.196078,0.09804 0.02311,0.02311 -0.02311,0.07493 0,0.09804 0.02311,0.02311 0.06881,-0.01461 0.09804,0 0.04134,0.02067 0.0567,0.07737 0.09804,0.09804 0.02923,0.01461 0.07493,-0.02311 0.09804,0 0.02311,0.02311 -0.02311,0.07493 0,0.09804 0.02311,0.02311 0.06536,0 0.09804,0 0,0.03268 -0.02311,0.07493 0,0.09804 0.02311,0.02311 0.07493,-0.02311 0.09804,0 0.02311,0.02311 -0.02311,0.07493 0,0.09804 0.02311,0.02311 0.07493,-0.02311 0.09804,0 0.202847,0.202847 -0.309976,-0.0079 0.09804,0.196079 0.05846,0.02923 0.137619,-0.02923 0.196078,0 0.408016,0.204007 -0.104807,-0.0068 0.09804,0.196078 0.02311,0.02311 0.07493,-0.02311 0.09804,0 0.02311,0.02311 -0.02311,0.07493 0,0.09804 0.02311,0.02311 0.06536,0 0.09804,0 0,0.03268 -0.02311,0.07493 0,0.09804 0.02311,0.02311 0.07493,-0.02311 0.09804,0 0.02311,0.02311 -0.02311,0.07493 0,0.09804 0.02311,0.02311 0.07493,-0.02311 0.09804,0 0.02311,0.02311 -0.02311,0.07493 0,0.09804 0.02311,0.02311 0.06881,-0.01461 0.09804,0 0.04134,0.02067 0.0567,0.07737 0.09804,0.09804 0.02923,0.01461 0.07493,-0.02311 0.09804,0 0.04622,0.04622 -0.04622,0.149862 0,0.196079 0.04902,0.04902 0.245098,-0.04902 0.294118,0 0.02311,0.02311 -0.02311,0.07493 0,0.09804 0.02004,0.02004 0.255245,-0.01944 0.294117,0 0.04134,0.02067 0.0567,0.07737 0.09804,0.09804 0.02923,0.01461 0.07493,-0.02311 0.09804,0 0.02311,0.02311 -0.02311,0.07493 0,0.09804 0.06557,0.06557 0.130504,-0.06557 0.196078,0 0.02311,0.02311 -0.02311,0.07493 0,0.09804 0.02311,0.02311 0.07493,-0.02311 0.09804,0 0.02311,0.02311 -0.02311,0.07493 0,0.09804 0.02311,0.02311 0.07493,-0.02311 0.09804,0 0.02311,0.02311 -0.02311,0.07493 0,0.09804 0.02311,0.02311 0.07493,-0.02311 0.09804,0 0.202846,0.202846 -0.309977,-0.0079 0.09804,0.196078 0.06162,0.03081 0.330537,-0.03081 0.392157,0 0.04134,0.02067 0.0567,0.07737 0.09804,0.09804 0.02923,0.01461 0.06536,0 0.09804,0 0.119675,0 0.226077,-0.03804 0.294118,0.09804 0.01461,0.02923 -0.01461,0.06881 0,0.09804 0.04134,0.08267 0.154741,0.113404 0.196078,0.196078 0.01461,0.02923 -0.02311,0.07493 0,0.09804 0.02311,0.02311 0.07493,-0.02311 0.09804,0 0.02311,0.02311 -0.02311,0.07493 0,0.09804 0.02311,0.02311 0.07493,-0.02311 0.09804,0 0.04622,0.04622 -0.04622,0.149862 0,0.196078 0.02311,0.02311 0.07493,-0.02311 0.09804,0 0.02311,0.02311 -0.02311,0.07493 0,0.09804 0.02311,0.02311 0.07493,-0.02311 0.09804,0 0.02311,0.02311 -0.02311,0.07493 0,0.09804 0.02311,0.02311 0.06881,-0.01461 0.09804,0 0.04134,0.02067 0.0567,0.07737 0.09804,0.09804 0.135231,0.06762 0.08769,-0.118731 0.196078,0.09804 0.03092,0.06185 -0.03093,0.428346 0,0.490196 0.03466,0.06931 0.161421,0.126764 0.196078,0.196079 0.01461,0.02923 -0.02311,0.07493 0,0.09804 0.04622,0.04622 0.149863,-0.04622 0.196079,0 0.02311,0.02311 -0.02311,0.07493 0,0.09804 0.02311,0.02311 0.07493,-0.02311 0.09804,0 0.02311,0.02311 -0.02311,0.07493 0,0.09804 0.02311,0.02311 0.07493,-0.02311 0.09804,0 0.04622,0.04622 -0.04622,0.149862 0,0.196079 0.04622,0.04622 0.149863,-0.04622 0.196079,0 0.04622,0.04622 -0.02923,0.137619 0,0.196078 0.04134,0.08267 0.154741,0.113405 0.196078,0.196078 0.01461,0.02923 -0.02311,0.07493 0,0.09804 0.04622,0.04622 0.149862,-0.04622 0.196079,0 0.02004,0.02004 -0.01944,0.255246 0,0.294117 0.204007,0.408016 -0.0068,-0.104807 0.196078,0.09804 0.04622,0.04622 -0.04622,0.149862 0,0.196078 0.02311,0.02311 0.06881,-0.01461 0.09804,0 0.02603,0.01302 0.281103,0.268087 0.294118,0.294118 0.01944,0.03887 -0.02004,0.274075 0,0.294117 0.04622,0.04622 0.149862,-0.04622 0.196078,0 0.02311,0.02311 -0.02311,0.07493 0,0.09804 0.02311,0.02311 0.07493,-0.02311 0.09804,0 0.02311,0.02311 -0.02311,0.07493 0,0.09804 0.02311,0.02311 0.07493,-0.02311 0.09804,0 0.03422,0.03422 -0.0407,0.27377 0,0.294117 0.05846,0.02923 0.137619,-0.02923 0.196078,0 0.05846,0.02923 -0.04622,0.149863 0,0.196079 0.02311,0.02311 0.07493,-0.02311 0.09804,0 0.04902,0.04902 -0.04902,0.245098 0,0.294117 0.02311,0.02311 0.07493,-0.02311 0.09804,0 0.02311,0.02311 -0.02311,0.07493 0,0.09804 0.02311,0.02311 0.07493,-0.02311 0.09804,0 0.02311,0.02311 -0.02311,0.07493 0,0.09804 0.02311,0.02311 0.07493,-0.02311 0.09804,0 0.02311,0.02311 -0.02311,0.07493 0,0.09804 0.02311,0.02311 0.07493,-0.02311 0.09804,0 0.04902,0.04902 -0.04902,0.245098 0,0.294118 0.02311,0.02311 0.07493,-0.02311 0.09804,0 0.02311,0.02311 -0.02311,0.07493 0,0.09804 0.02311,0.02311 0.06881,-0.01461 0.09804,0 0.408015,0.204008 -0.104808,-0.0068 0.09804,0.196078 0.02311,0.02311 0.07493,-0.02311 0.09804,0 0.02311,0.02311 -0.02311,0.07493 0,0.09804 0.02311,0.02311 0.07493,-0.02311 0.09804,0 0.02311,0.02311 -0.02311,0.07493 0,0.09804 0.02311,0.02311 0.07493,-0.02311 0.09804,0 0.04622,0.04622 -0.04622,0.149862 0,0.196078 0.02311,0.02311 0.06536,0 0.09804,0 0,0.03268 -0.02311,0.07493 0,0.09804 0.02311,0.02311 0.07493,-0.02311 0.09804,0 0.04622,0.04622 -0.04622,0.149863 0,0.196079 0.02311,0.02311 0.07493,-0.02311 0.09804,0 0.02311,0.02311 -0.02311,0.07493 0,0.09804 0.02311,0.02311 0.07493,-0.02311 0.09804,0 0.04622,0.04622 -0.04622,0.149862 0,0.196079 0.02311,0.02311 0.06536,0 0.09804,0 0.03268,0 0.07493,0.02311 0.09804,0 0.02311,-0.02311 0,-0.06536 0,-0.09804"
       id="path3039"
       inkscape:connector-curvature="0"
       transform="translate(0,972.3622)" />
    <path
       style="fill:none;stroke:#bf0000;stroke-width:1;stroke-linecap:round;stroke-linejoin:round;stroke-opacity:1;opacity:0.80000000000000004;color:#000000;stroke-miterlimit:4;stroke-dasharray:none;stroke-dashoffset:0;marker:none;visibility:visible;display:inline;overflow:visible;enable-background:accumulate"
       d="m 0.49019608,16.470588 c -0.34807056,1.252275 0.34223227,0.244193 0.49019608,0.392157 0.023108,0.02311 -0.0231081,0.07493 0,0.09804 0.023108,0.02311 0.0749311,-0.02311 0.0980392,0 0.023108,0.02311 -0.023108,0.07493 0,0.09804 0.023108,0.02311 0.074931,-0.02311 0.098039,0 0.020043,0.02004 -0.019436,0.255245 0,0.294117 0.2040079,0.408016 -0.00677,-0.104807 0.1960784,0.09804 0.023108,0.02311 -0.023108,0.07493 0,0.09804 0.023108,0.02311 0.074931,-0.02311 0.098039,0 0.1290984,0.129098 -0.1290983,0.06698 0,0.196078 0.1633987,0.163399 0.03268,-0.261438 0.1960785,-0.09804 0.030358,0.03036 -0.030358,0.459838 0,0.490196 0.046216,0.04622 0.1498623,-0.04622 0.1960784,0 0.046216,0.04622 -0.046216,0.149862 0,0.196078 0.023108,0.02311 0.074931,-0.02311 0.098039,0 0.023108,0.02311 -0.023108,0.07493 0,0.09804 0.023108,0.02311 0.074931,-0.02311 0.098039,0 0.023108,0.02311 -0.023108,0.07493 0,0.09804 0.046216,0.04622 0.1498623,-0.04622 0.1960785,0 0.023108,0.02311 -0.023108,0.07493 0,0.09804 0.023108,0.02311 0.074931,-0.02311 0.098039,0 0.023108,0.02311 0,0.06536 0,0.09804 0.03268,0 0.068809,-0.01461 0.098039,0 0.4080157,0.204008 -0.1048074,-0.0068 0.098039,0.196079 0.023108,0.02311 0.06881,-0.01462 0.098039,0 0.4080158,0.204007 -0.1048074,-0.0068 0.098039,0.196078 0.023108,0.02311 0.074931,-0.02311 0.098039,0 0.023108,0.02311 -0.023108,0.07493 0,0.09804 0.023108,0.02311 0.074931,-0.02311 0.098039,0 0.023108,0.02311 -0.023108,0.07493 0,0.09804 0.023108,0.02311 0.074931,-0.02311 0.098039,0 0.023108,0.02311 -0.023108,0.07493 0,0.09804 0.023108,0.02311 0.06881,-0.01461 0.098039,0 0.026031,0.01301 0.2811024,0.268087 0.2941176,0.294117 0.014615,0.02923 -0.023108,0.07493 0,0.09804 0.023108,0.02311 0.074931,-0.02311 0.098039,0 0.023108,0.02311 -0.023108,0.07493 0,0.09804 0.023108,0.02311 0.074931,-0.02311 0.098039,0 0.023108,0.02311 -0.023108,0.07493 0,0.09804 0.023108,0.02311 0.074931,-0.02311 0.098039,0 0.023108,0.02311 -0.023108,0.07493 0,0.09804 0.023108,0.02311 0.074931,-0.02311 0.098039,0 0.023108,0.02311 -0.023108,0.07493 0,0.09804 0.023108,0.02311 0.074931,-0.02311 0.098039,0 0.023108,0.02311 -0.023108,0.07493 0,0.09804 0.023108,0.02311 0.074931,-0.02311 0.098039,0 0.023108,0.02311 -0.023108,0.07493 0,0.09804 0.023108,0.02311 0.074931,-0.02311 0.098039,0 0.1229508,0.122951 -0.1229509,0.07313 0,0.196078 0.023108,0.02311 0.068809,-0.01462 0.098039,0 0.4080157,0.204008 -0.1048074,-0.0068 0.098039,0.196079 0.023108,0.02311 0.074931,-0.02311 0.098039,0 0.023108,0.02311 -0.023108,0.07493 0,0.09804 0.023108,0.02311 0.074931,-0.02311 0.098039,0 0.023108,0.02311 0,0.06536 0,0.09804 0.03268,0 0.074931,-0.02311 0.098039,0 0.046216,0.04622 -0.046216,0.149862 0,0.196079 0.023108,0.02311 0.074931,-0.02311 0.098039,0 0.023108,0.02311 -0.014615,0.06881 0,0.09804 0.020668,0.04134 0.065359,0.06536 0.098039,0.09804 0.03268,0.03268 0.056702,0.07737 0.098039,0.09804 0.2614379,0 -0.03268,-0.03268 0.098039,0.09804 0.023108,0.02311 0.074931,-0.02311 0.098039,0 0.046216,0.04622 -0.046216,0.149863 0,0.196079 0.023108,0.02311 0.074931,-0.02311 0.098039,0 0.023108,0.02311 -0.014615,0.06881 0,0.09804 0.020669,0.04134 0.077371,0.0567 0.098039,0.09804 0.014615,0.02923 -0.023108,0.07493 0,0.09804 0.023108,0.02311 0.074931,-0.02311 0.098039,0 0.023108,0.02311 -0.023108,0.07493 0,0.09804 0.023108,0.02311 0.074931,-0.02311 0.098039,0 0.023108,0.02311 0,0.06536 0,0.09804 0.03268,0 0.074931,-0.02311 0.098039,0 0.023108,0.02311 -0.023108,0.07493 0,0.09804 0.023108,0.02311 0.074931,-0.02311 0.098039,0 0.1229508,0.122951 -0.1229508,0.07313 0,0.196079 0.023108,0.02311 0.074931,-0.02311 0.098039,0 0.023108,0.02311 -0.023108,0.07493 0,0.09804 0.066601,0.0666 0.1949765,-0.100243 0.2941177,0.09804 0.014615,0.02923 -0.023108,0.07493 0,0.09804 0.2028466,0.202847 -0.00793,-0.309976 0.1960784,0.09804 0.02923,0.05846 -0.046216,0.149863 0,0.196079 0.023108,0.02311 0.06881,-0.01461 0.098039,0 0.041337,0.02067 0.065359,0.06536 0.098039,0.09804 0.03268,0.03268 0.077371,0.0567 0.098039,0.09804 0.014615,0.02923 -0.023108,0.07493 0,0.09804 0.023108,0.02311 0.074931,-0.02311 0.098039,0 0.023108,0.02311 -0.023108,0.07493 0,0.09804 0.046216,0.04622 0.1498623,-0.04622 0.1960784,0 0.023591,0.02359 -0.023591,0.368565 0,0.392157 0.023108,0.02311 0.074931,-0.02311 0.098039,0 0.023108,0.02311 -0.023108,0.07493 0,0.09804 0.023108,0.02311 0.074931,-0.02311 0.098039,0 0.023108,0.02311 -0.023108,0.07493 0,0.09804 0.023108,0.02311 0.074931,-0.02311 0.098039,0 0.023108,0.02311 -0.023108,0.07493 0,0.09804 0.023108,0.02311 0.074931,-0.02311 0.098039,0 0.023108,0.02311 0,0.06536 0,0.09804 0.03268,0 0.068809,-0.01461 0.098039,0 0.2167701,0.108386 0.030424,0.06085 0.098039,0.196079 0.2040079,0.408016 -0.00677,-0.104807 0.1960784,0.09804 0.023108,0.02311 -0.023108,0.07493 0,0.09804 0.023108,0.02311 0.074931,-0.02311 0.098039,0 0.023108,0.02311 -0.023108,0.07493 0,0.09804 0.023108,0.02311 0.074931,-0.02311 0.098039,0 0.023108,0.02311 -0.023108,0.07493 0,0.09804 0.023108,0.02311 0.074931,-0.02311 0.098039,0 0.023108,0.02311 -0.023108,0.07493 0,0.09804 0.023108,0.02311 0.074931,-0.02311 0.098039,0 0.023108,0.02311 -0.023108,0.07493 0,0.09804 0.023108,0.02311 0.074931,-0.02311 0.098039,0 0.023108,0.02311 -0.023108,0.07493 0,0.09804 0.023108,0.02311 0.074931,-0.02311 0.098039,0 0.023108,0.02311 -0.023108,0.07493 0,0.09804 0.023108,0.02311 0.074931,-0.02311 0.098039,0 0.023108,0.02311 -0.023108,0.07493 0,0.09804 0.023108,0.02311 0.065359,0 0.098039,0 0,0.03268 -0.023108,0.07493 0,0.09804 0.023108,0.02311 0.074931,-0.02311 0.098039,0 0.023108,0.02311 -0.023108,0.07493 0,0.09804 0.023108,0.02311 0.074931,-0.02311 0.098039,0 0.023108,0.02311 -0.014615,0.06881 0,0.09804 0.020668,0.04134 0.065359,0.06536 0.098039,0.09804 0.03268,0.03268 0.056702,0.07737 0.098039,0.09804 0.02923,0.01462 0.074931,-0.02311 0.098039,0 0.2028467,0.202847 -0.3099765,-0.0079 0.098039,0.196078 0.02923,0.01462 0.074931,-0.02311 0.098039,0 0.046216,0.04622 -0.02923,0.13762 0,0.196079 0.020668,0.04134 0.065359,0.06536 0.098039,0.09804 0.03268,0.03268 0.056702,0.07737 0.098039,0.09804 0.02923,0.01461 0.074931,-0.02311 0.098039,0 0.023108,0.02311 -0.023108,0.07493 0,0.09804 0.046216,0.04622 0.1498623,-0.04622 0.1960784,0 0.023108,0.02311 -0.023108,0.07493 0,0.09804 0.023108,0.02311 0.06881,-0.01461 0.098039,0 0.117647,0.05882 0.1764705,0.235294 0.2941176,0.294117 0.1352313,0.06762 0.08769,-0.118731 0.1960783,0.09804 0.01461,0.02923 -0.02311,0.07493 0,0.09804 0.02311,0.02311 0.07493,-0.02311 0.09804,0 0.02311,0.02311 -0.02311,0.07493 0,0.09804 0.04622,0.04622 0.137619,-0.02923 0.196078,0 0.08267,0.04134 0.113405,0.154741 0.196079,0.196078 0.02923,0.01461 0.07493,-0.02311 0.09804,0 0.02311,0.02311 -0.02311,0.07493 0,0.09804 0.02311,0.02311 0.07493,-0.02311 0.09804,0 0.202847,0.202846 -0.309977,-0.0079 0.09804,0.196078 0.02923,0.01462 0.06881,-0.01461 0.09804,0 0.04134,0.02067 0.0567,0.07737 0.09804,0.09804 0.135231,0.06762 0.08769,-0.118731 0.196078,0.09804 0.02923,0.05846 -0.04622,0.149863 0,0.196079 0.02311,0.02311 0.06881,-0.01461 0.09804,0 0.08267,0.04134 0.113405,0.154741 0.196079,0.196078 0.05846,0.02923 0.137619,-0.02923 0.196078,0 0.408016,0.204008 -0.104807,-0.0068 0.09804,0.196079 0.02311,0.02311 0.07493,-0.02311 0.09804,0 0.02311,0.02311 -0.02311,0.07493 0,0.09804 0.02311,0.02311 0.06881,-0.01461 0.09804,0 0.04134,0.02067 0.0567,0.07737 0.09804,0.09804 0.02923,0.01461 0.07493,-0.02311 0.09804,0 0.02311,0.02311 -0.02311,0.07493 0,0.09804 0.202847,0.202847 -0.0079,-0.309976 0.196079,0.09804 0.01461,0.02923 -0.02311,0.07493 0,0.09804 0.04622,0.04622 0.137619,-0.02923 0.196078,0 0.08267,0.04134 0.113405,0.154741 0.196078,0.196078 0.02923,0.01461 0.07493,-0.02311 0.09804,0 0.02311,0.02311 -0.02311,0.07493 0,0.09804 0.02311,0.02311 0.07493,-0.02311 0.09804,0 0.02311,0.02311 -0.02311,0.07493 0,0.09804 0.02311,0.02311 0.06881,-0.01461 0.09804,0 0.04134,0.02067 0.0567,0.07737 0.09804,0.09804 0.05846,0.02923 0.137619,-0.02923 0.196079,0 0.408015,0.204008 -0.104808,-0.0068 0.09804,0.196078 0.02311,0.02311 0.07493,-0.02311 0.09804,0 0.02311,0.02311 -0.02311,0.07493 0,0.09804 0.02311,0.02311 0.06704,-0.01034 0.09804,0 0.06932,0.02311 0.135278,0.0575 0.196079,0.09804 0.07691,0.05127 0.113404,0.154741 0.196078,0.196078 0.05846,0.02923 0.149863,-0.04622 0.196079,0 0.02311,0.02311 -0.02311,0.07493 0,0.09804 0.04622,0.04622 0.149862,-0.04622 0.196078,0 0.02311,0.02311 -0.02311,0.07493 0,0.09804 0.02311,0.02311 0.07493,-0.02311 0.09804,0 0.02311,0.02311 -0.02311,0.07493 0,0.09804 0.02311,0.02311 0.07493,-0.02311 0.09804,0 0.114441,0.114441 -0.114442,0.08164 0,0.196078 0.02311,0.02311 0.07493,-0.02311 0.09804,0 0.02311,0.02311 -0.02311,0.07493 0,0.09804 0.04622,0.04622 0.137619,-0.02923 0.196078,0 0.02603,0.01302 0.281103,0.268087 0.294118,0.294117 0.02923,0.05846 -0.04622,0.149862 0,0.196079 0.04622,0.04622 0.149862,-0.04622 0.196078,0 0,0.261437 -0.03268,-0.03268 0.09804,0.09804 0.02311,0.02311 -0.02311,0.07493 0,0.09804 0.02311,0.02311 0.07493,-0.02311 0.09804,0 0.02311,0.02311 -0.02311,0.07493 0,0.09804 0.02311,0.02311 0.07493,-0.02311 0.09804,0 0.02311,0.02311 -0.02311,0.07493 0,0.09804 0.02311,0.02311 0.07493,-0.02311 0.09804,0 0.04622,0.04622 -0.04622,0.149863 0,0.196079 0.04622,0.04622 0.149862,-0.04622 0.196079,0 0.02311,0.02311 -0.02311,0.07493 0,0.09804 0.02311,0.02311 0.07493,-0.02311 0.09804,0 0.04622,0.04622 -0.04622,0.149862 0,0.196079 0.02311,0.02311 0.07493,-0.02311 0.09804,0 0,0.261437 -0.03268,-0.03268 0.09804,0.09804 0.02311,0.02311 -0.02311,0.07493 0,0.09804 0.02311,0.02311 0.07493,-0.02311 0.09804,0 0.02311,0.02311 -0.01461,0.06881 0,0.09804 0.02067,0.04134 0.07737,0.0567 0.09804,0.09804 0.01461,0.02923 -0.02311,0.07493 0,0.09804 0.02311,0.02311 0.06881,-0.01461 0.09804,0 0.21677,0.108385 0.03042,0.06085 0.09804,0.196078 0.204008,0.408016 -0.0068,-0.104807 0.196079,0.09804 0.02311,0.02311 -0.02311,0.07493 0,0.09804 0.02311,0.02311 0.07493,-0.02311 0.09804,0 0.02311,0.02311 -0.02311,0.07493 0,0.09804 0.02311,0.02311 0.07493,-0.02311 0.09804,0 0.02311,0.02311 -0.01462,0.06881 0,0.09804 0.02067,0.04134 0.07737,0.0567 0.09804,0.09804 0.01461,0.02923 -0.02311,0.07493 0,0.09804 0.02311,0.02311 0.07493,-0.02311 0.09804,0 0.02311,0.02311 -0.02311,0.07493 0,0.09804 0.02311,0.02311 0.07493,-0.02311 0.09804,0 0.02311,0.02311 -0.02311,0.07493 0,0.09804 0.02311,0.02311 0.07493,-0.02311 0.09804,0 0.04622,0.04622 -0.04622,0.149862 0,0.196078 0.02311,0.02311 0.07493,-0.02311 0.09804,0 0.02311,0.02311 -0.02311,0.07493 0,0.09804 0.02311,0.02311 0.07493,-0.02311 0.09804,0 0.02311,0.02311 -0.02311,0.07493 0,0.09804 0.02311,0.02311 0.07493,-0.02311 0.09804,0 0.02311,0.02311 -0.02311,0.07493 0,0.09804 0.04622,0.04622 0.149863,-0.04622 0.196079,0 0,0.261438 -0.03268,-0.03268 0.09804,0.09804 0.09836,0.09836 -0.09836,0.09772 0,0.196078 0.02311,0.02311 0.07493,-0.02311 0.09804,0 0.02311,0.02311 -0.02311,0.07493 0,0.09804 0.02311,0.02311 0.07493,-0.02311 0.09804,0 0.202846,0.202846 -0.309977,-0.0079 0.09804,0.196078 0.05846,0.02923 0.149862,-0.04622 0.196078,0 0.02311,0.02311 -0.02311,0.07493 0,0.09804 0.02311,0.02311 0.07493,-0.02311 0.09804,0 0.04622,0.04622 -0.04622,0.149863 0,0.196079 0.02311,0.02311 0.06881,-0.01461 0.09804,0 0.117647,0.05882 0.17647,0.235294 0.294117,0.294117 0.02923,0.01461 0.06881,-0.01461 0.09804,0 0.216771,0.108385 0.03042,0.06085 0.09804,0.196079 0.02067,0.04134 0.06536,0.06536 0.09804,0.09804 0.03268,0.03268 0.0567,0.07737 0.09804,0.09804 0.02923,0.01461 0.07493,-0.02311 0.09804,0 0.02311,0.02311 -0.02311,0.07493 0,0.09804 0.02311,0.02311 0.06536,0 0.09804,0 0,0.03268 -0.02311,0.07493 0,0.09804 0.04622,0.04622 0.149862,-0.04622 0.196078,0 0.04622,0.04622 -0.04622,0.149862 0,0.196078 0.02311,0.02311 0.07493,-0.02311 0.09804,0 0.202847,0.202847 -0.309976,-0.0079 0.09804,0.196079 0.02923,0.01461 0.06536,0 0.09804,0 0.03268,0.03268 0.0567,0.07737 0.09804,0.09804 0.02923,0.01461 0.07493,-0.02311 0.09804,0 0.02311,0.02311 -0.02311,0.07493 0,0.09804 0.04622,0.04622 0.149862,-0.04622 0.196079,0 0.02311,0.02311 -0.02311,0.07493 0,0.09804 0.02311,0.02311 0.07493,-0.02311 0.09804,0 0.02311,0.02311 -0.02311,0.07493 0,0.09804 0.02311,0.02311 0.07493,-0.02311 0.09804,0 0.02311,0.02311 -0.02311,0.07493 0,0.09804 0.02311,0.02311 0.07493,-0.02311 0.09804,0 0.02311,0.02311 0,0.06536 0,0.09804 0.03268,0 0.07493,-0.02311 0.09804,0 0.02311,0.02311 -0.02311,0.07493 0,0.09804 0.05841,0.05841 0.294118,-0.09785 0.294118,0.09804 0,0.04622 -0.07737,0.0567 -0.09804,0.09804 -0.01006,0.02011 -0.01383,0.280291 0,0.294117 0.02311,0.02311 0.07493,-0.02311 0.09804,0 0.02311,0.02311 -0.01461,0.06881 0,0.09804 0.02067,0.04134 0.07737,0.0567 0.09804,0.09804 0.03386,0.06772 -0.03441,0.455782 0,0.490196 0.04622,0.04622 0.149863,-0.04622 0.196079,0 0.02311,0.02311 -0.02311,0.07493 0,0.09804 0.202846,0.202847 -0.0079,-0.309977 0.196078,0.09804 0.06762,0.135231 -0.118731,0.08769 0.09804,0.196079 0.02923,0.01461 0.07493,-0.02311 0.09804,0 0.202846,0.202846 -0.309977,-0.0079 0.09804,0.196078 0.107804,0.0539 0.19789,-0.09442 0.294117,0.09804 0,0.261438 -0.03268,-0.03268 0.09804,0.09804 0.02311,0.02311 -0.02311,0.07493 0,0.09804 0.02311,0.02311 0.07493,-0.02311 0.09804,0 0.02311,0.02311 -0.02311,0.07493 0,0.09804 0.02311,0.02311 0.07493,-0.02311 0.09804,0 0.02311,0.02311 -0.02311,0.07493 0,0.09804 0.02311,0.02311 0.07493,-0.02311 0.09804,0 0.02311,0.02311 -0.02311,0.07493 0,0.09804 0.02311,0.02311 0.06881,-0.01461 0.09804,0 0.08267,0.04134 0.113405,0.154742 0.196079,0.196079 0.02923,0.01461 0.07493,-0.02311 0.09804,0 0.02311,0.02311 -0.01461,0.06881 0,0.09804 0.02067,0.04134 0.07737,0.0567 0.09804,0.09804 0.01461,0.02923 -0.02311,0.07493 0,0.09804 0.02311,0.02311 0.07493,-0.02311 0.09804,0 0.02311,0.02311 -0.02311,0.07493 0,0.09804 0.04622,0.04622 0.149862,-0.04622 0.196078,0 0.02311,0.02311 -0.02311,0.07493 0,0.09804 0.02311,0.02311 0.07493,-0.02311 0.09804,0 0.02311,0.02311 -0.02311,0.07493 0,0.09804 0.02311,0.02311 0.07493,-0.02311 0.09804,0 0.04622,0.04622 -0.04622,0.149862 0,0.196078 0.02311,0.02311 0.07493,-0.02311 0.09804,0 0.02311,0.02311 -0.02311,0.07493 0,0.09804 0.02311,0.02311 0.07493,-0.02311 0.09804,0 0.02311,0.02311 -0.02311,0.07493 0,0.09804 0.02311,0.02311 0.07493,-0.02311 0.09804,0 0.02311,0.02311 -0.02311,0.07493 0,0.09804 0.02311,0.02311 0.06536,0 0.09804,0 0,0.03268 -0.01462,0.06881 0,0.09804 0.108385,0.21677 0.06085,0.03042 0.196079,0.09804 0.408015,0.204007 -0.104808,-0.0068 0.09804,0.196078 0.02311,0.02311 0.07493,-0.02311 0.09804,0 0.02311,0.02311 -0.02311,0.07493 0,0.09804 0.02311,0.02311 0.07493,-0.02311 0.09804,0 0.02311,0.02311 -0.02311,0.07493 0,0.09804 0.02311,0.02311 0.07493,-0.02311 0.09804,0 0.02311,0.02311 -0.02311,0.07493 0,0.09804 0.02311,0.02311 0.07493,-0.02311 0.09804,0 0.02311,0.02311 -0.02311,0.07493 0,0.09804 0.02311,0.02311 0.07493,-0.02311 0.09804,0 0.02311,0.02311 -0.02311,0.07493 0,0.09804 0.02311,0.02311 0.07493,-0.02311 0.09804,0 0.02311,0.02311 -0.02311,0.07493 0,0.09804 0.02311,0.02311 0.06881,-0.01461 0.09804,0 0.04134,0.02067 0.0567,0.07737 0.09804,0.09804 0.02923,0.01461 0.07493,-0.02311 0.09804,0 0.02311,0.02311 -0.02311,0.07493 0,0.09804 0.02311,0.02311 0.06881,-0.01461 0.09804,0 0.408016,0.204008 -0.104807,-0.0068 0.09804,0.196078 0.02311,0.02311 0.07493,-0.02311 0.09804,0 0.02311,0.02311 0,0.06536 0,0.09804 0.03268,0 0.07493,-0.02311 0.09804,0 0.02311,0.02311 -0.02311,0.07493 0,0.09804 0.04902,0.04902 0.245098,-0.04902 0.294117,0 0.02311,0.02311 -0.02311,0.07493 0,0.09804 0.02311,0.02311 0.07493,-0.02311 0.09804,0 0.02311,0.02311 -0.02311,0.07493 0,0.09804 0.02311,0.02311 0.07493,-0.02311 0.09804,0 0.06557,0.06557 -0.06557,0.130505 0,0.196078 0.02311,0.02311 0.06881,-0.01461 0.09804,0 0.04134,0.02067 0.0567,0.07737 0.09804,0.09804 0.02923,0.01461 0.07493,-0.02311 0.09804,0 0.02311,0.02311 -0.02311,0.07493 0,0.09804 0.04622,0.04622 0.149863,-0.04622 0.196079,0 0.02311,0.02311 -0.01461,0.06881 0,0.09804 0.204008,0.408016 -0.0068,-0.104807 0.196078,0.09804 0.02311,0.02311 -0.02311,0.07493 0,0.09804 0.02311,0.02311 0.07493,-0.02311 0.09804,0 0.02311,0.02311 -0.02311,0.07493 0,0.09804 0.202846,0.202846 -0.0079,-0.309977 0.196078,0.09804 0.01461,0.02923 -0.02311,0.07493 0,0.09804 0.04622,0.04622 0.149862,-0.04622 0.196078,0 0.02311,0.02311 -0.02311,0.07493 0,0.09804 0.02311,0.02311 0.07493,-0.02311 0.09804,0 0.02311,0.02311 -0.02311,0.07493 0,0.09804 0.02311,0.02311 0.06881,-0.01461 0.09804,0 0.04134,0.02067 0.06536,0.06536 0.09804,0.09804 0.03268,0.03268 0.07737,0.0567 0.09804,0.09804 0.01462,0.02923 -0.02311,0.07493 0,0.09804 0.02311,0.02311 0.07493,-0.02311 0.09804,0 0.04902,0.04902 -0.04902,0.245098 0,0.294118 0.04622,0.04622 0.149863,-0.04622 0.196079,0 0.02311,0.02311 0,0.06536 0,0.09804 0.03268,0 0.07493,-0.02311 0.09804,0 0.02311,0.02311 -0.02311,0.07493 0,0.09804 0.02311,0.02311 0.06881,-0.01461 0.09804,0 0.04134,0.02067 0.0567,0.07737 0.09804,0.09804 0.02923,0.01461 0.07493,-0.02311 0.09804,0 0.02311,0.02311 -0.01461,0.06881 0,0.09804 0.02067,0.04134 0.07737,0.0567 0.09804,0.09804 0.01461,0.02923 -0.01461,0.06881 0,0.09804 0.108385,0.21677 0.06085,0.03042 0.196078,0.09804 0.408016,0.204008 -0.104807,-0.0068 0.09804,0.196079 0.04622,0.04622 0.149862,-0.04622 0.196078,0 0.06557,0.06557 -0.06557,0.130504 0,0.196078 0.02311,0.02311 0.06881,-0.01461 0.09804,0 0.103784,0.05189 0.0923,0.144187 0.196079,0.196079 0.02923,0.01461 0.07493,-0.02311 0.09804,0 0.02311,0.02311 -0.02311,0.07493 0,0.09804 0.02311,0.02311 0.07493,-0.02311 0.09804,0 0.02311,0.02311 -0.02311,0.07493 0,0.09804 0.202847,0.202847 -0.0079,-0.309976 0.196079,0.09804 0.01461,0.02923 -0.02311,0.07493 0,0.09804 0.202846,0.202846 -0.0079,-0.309977 0.196078,0.09804 0.01461,0.02923 -0.02311,0.07493 0,0.09804 0.02311,0.02311 0.06536,0 0.09804,0 0.036,0 0.388212,0.0039 0.392157,0 0.0098,-0.0098 -0.04575,-0.339869 0.09804,-0.196078 0.02311,0.02311 -0.02311,0.07493 0,0.09804 0.04622,0.04622 0.149863,-0.04622 0.196079,0 0.02311,0.02311 -0.02311,0.07493 0,0.09804 0.02311,0.02311 0.07493,-0.02311 0.09804,0 0.02311,0.02311 -0.02311,0.07493 0,0.09804 0.02311,0.02311 0.07493,-0.02311 0.09804,0 0.02311,0.02311 -0.02311,0.07493 0,0.09804 0.04902,0.04902 0.245098,-0.04902 0.294118,0 0.02311,0.02311 -0.02311,0.07493 0,0.09804 0.02311,0.02311 0.07493,-0.02311 0.09804,0 0.04622,0.04622 -0.04622,0.149862 0,0.196078 0.02311,0.02311 0.07493,-0.02311 0.09804,0 0.02311,0.02311 0,0.06536 0,0.09804 0.03268,0 0.07493,-0.02311 0.09804,0 0.02311,0.02311 -0.02311,0.07493 0,0.09804 0.04622,0.04622 0.149863,-0.04622 0.196079,0 0.02311,0.02311 -0.02311,0.07493 0,0.09804 0.04622,0.04622 0.149862,-0.04622 0.196078,0 0.202847,0.202846 -0.309976,-0.0079 0.09804,0.196078 0.05846,0.02923 0.149862,-0.04622 0.196078,0 0.02311,0.02311 -0.01461,0.06881 0,0.09804 0.02067,0.04134 0.07737,0.0567 0.09804,0.09804 0.01461,0.02923 -0.02311,0.07493 0,0.09804 0.04622,0.04622 0.149862,-0.04622 0.196079,0 0.04622,0.04622 -0.04622,0.149862 0,0.196078 0.04902,0.04902 0.245098,-0.04902 0.294117,0 0.02311,0.02311 -0.01461,0.06881 0,0.09804 0.02067,0.04134 0.07737,0.0567 0.09804,0.09804 0.01461,0.02923 -0.02311,0.07493 0,0.09804 0.04902,0.04902 0.245099,-0.04902 0.294118,0 0.02311,0.02311 -0.02311,0.07493 0,0.09804 0.02311,0.02311 0.07493,-0.02311 0.09804,0 0.06557,0.06557 -0.06557,0.130505 0,0.196078 0.07664,0.07664 0.170554,-0.08528 0.196079,-0.09804 0.02923,-0.01461 0.06536,0 0.09804,0 0.03268,0 0.07493,-0.02311 0.09804,0 0.04622,0.04622 -0.04622,0.149863 0,0.196079 0.02311,0.02311 0.07493,-0.02311 0.09804,0 0.04902,0.04902 -0.04902,0.245098 0,0.294117 0.04622,0.04622 0.149863,-0.04622 0.196079,0 0.02311,0.02311 -0.02311,0.07493 0,0.09804 0.06557,0.06557 0.130505,-0.06557 0.196078,0 0.04622,0.04622 -0.04622,0.149862 0,0.196078 0.02311,0.02311 0.07493,-0.02311 0.09804,0 0.02311,0.02311 -0.01461,0.06881 0,0.09804 0.02067,0.04134 0.07737,0.0567 0.09804,0.09804 0.01461,0.02923 -0.01461,0.06881 0,0.09804 0.02067,0.04134 0.07737,0.0567 0.09804,0.09804 0.02923,0.05846 -0.04622,0.149862 0,0.196078 0.202847,0.202847 -0.0079,-0.309976 0.196078,0.09804 0.02923,0.05846 -0.04622,0.149863 0,0.196079 0.02311,0.02311 0.07493,-0.02311 0.09804,0 0.04622,0.04622 -0.04622,0.149862 0,0.196078 0.02311,0.02311 0.07493,-0.02311 0.09804,0 0.04622,0.04622 -0.04622,0.149863 0,0.196079 0.02311,0.02311 0.07493,-0.02311 0.09804,0 0.02311,0.02311 -0.01461,0.06881 0,0.09804 0.02067,0.04134 0.07737,0.0567 0.09804,0.09804 0.01461,0.02923 -0.02311,0.07493 0,0.09804 0.02311,0.02311 0.07493,-0.02311 0.09804,0 0.02311,0.02311 -0.02311,0.07493 0,0.09804 0.02311,0.02311 0.07493,-0.02311 0.09804,0 0.02311,0.02311 -0.01461,0.06881 0,0.09804 0.02067,0.04134 0.07737,0.0567 0.09804,0.09804 0.01461,0.02923 -0.01461,0.06881 0,0.09804 0.204008,0.408016 -0.0068,-0.104807 0.196078,0.09804 0.04622,0.04622 -0.04622,0.149862 0,0.196078 0.02311,0.02311 0.07493,-0.02311 0.09804,0 0.02311,0.02311 -0.02311,0.07493 0,0.09804 0.02311,0.02311 0.07493,-0.02311 0.09804,0 0.02311,0.02311 -0.02311,0.07493 0,0.09804 0.02311,0.02311 0.07493,-0.02311 0.09804,0 0.02311,0.02311 -0.02311,0.07493 0,0.09804 0.02311,0.02311 0.07493,-0.02311 0.09804,0 0.04622,0.04622 -0.02923,0.137619 0,0.196078 0.04134,0.08267 0.154742,0.113405 0.196079,0.196078 0.01461,0.02923 -0.02311,0.07493 0,0.09804 0.02311,0.02311 0.07493,-0.02311 0.09804,0 0.02311,0.02311 -0.02311,0.07493 0,0.09804 0.202846,0.202847 -0.0079,-0.309977 0.196078,0.09804 0.01461,0.02923 -0.02311,0.07493 0,0.09804 0.02311,0.02311 0.07493,-0.02311 0.09804,0 0.04622,0.04622 -0.04622,0.149863 0,0.196079 0.02311,0.02311 0.07493,-0.02311 0.09804,0 0.02311,0.02311 -0.01461,0.06881 0,0.09804 0.02067,0.04134 0.06536,0.06536 0.09804,0.09804 0.03268,0.03268 0.0567,0.07737 0.09804,0.09804 0.02923,0.01461 0.07493,-0.02311 0.09804,0 0.02311,0.02311 -0.01461,0.06881 0,0.09804 0.02067,0.04134 0.07737,0.0567 0.09804,0.09804 0.02923,0.05846 -0.04622,0.149862 0,0.196078 0.04622,0.04622 0.149862,-0.04622 0.196078,0 0.04622,0.04622 -0.04622,0.149863 0,0.196079 0.05167,0.05167 0.144407,0.04637 0.196078,0.09804 0.02311,0.02311 -0.01461,0.06881 0,0.09804 0.04134,0.08267 0.154742,0.113405 0.196079,0.196079 0.01461,0.02923 -0.02311,0.07493 0,0.09804 0.02311,0.02311 0.07493,-0.02311 0.09804,0 0.02311,0.02311 -0.02311,0.07493 0,0.09804 0.02311,0.02311 0.07493,-0.02311 0.09804,0 0.02311,0.02311 -0.02311,0.07493 0,0.09804 0.02311,0.02311 0.07493,-0.02311 0.09804,0 0.202847,0.202847 -0.309976,-0.0079 0.09804,0.196079 0.02923,0.01461 0.07493,-0.02311 0.09804,0 0.02311,0.02311 -0.02311,0.07493 0,0.09804 0.02311,0.02311 0.07493,-0.02311 0.09804,0 0.04622,0.04622 -0.04622,0.149862 0,0.196078 0.02311,0.02311 0.06536,0 0.09804,0 0,0.03268 -0.02311,0.07493 0,0.09804 0.02311,0.02311 0.07493,-0.02311 0.09804,0 0.02311,0.02311 -0.02311,0.07493 0,0.09804 0.202846,0.202846 -0.0079,-0.309977 0.196078,0.09804 0.01461,0.02923 -0.02311,0.07493 0,0.09804 0.202847,0.202847 -0.0079,-0.309976 0.196078,0.09804 0.01461,0.02923 -0.01461,0.06881 0,0.09804 0.02067,0.04134 0.07737,0.0567 0.09804,0.09804 0.02923,0.05846 -0.04622,0.149862 0,0.196078 0.02311,0.02311 0.07493,-0.02311 0.09804,0 0.02311,0.02311 -0.02311,0.07493 0,0.09804 0.02311,0.02311 0.09804,-0.03268 0.09804,0 0,0.138889 -0.457516,-0.277777 0.09804,0 0.02923,0.01461 -0.02311,0.07493 0,0.09804 0.02311,0.02311 0.07493,-0.02311 0.09804,0 0.02311,0.02311 -0.01461,0.06881 0,0.09804 0.0094,0.01877 0.373391,0.382773 0.392157,0.392157 0.02923,0.01461 0.07493,-0.02311 0.09804,0 0.02311,0.02311 -0.02311,0.07493 0,0.09804 0.02311,0.02311 0.07493,-0.02311 0.09804,0 0.04622,0.04622 -0.04622,0.149862 0,0.196078 0.02311,0.02311 0.06881,-0.01461 0.09804,0 0.104348,0.05217 0.09173,0.143905 0.196078,0.196079 0.02923,0.01461 0.06536,0 0.09804,0 0.03268,0.03268 0.0567,0.07737 0.09804,0.09804 0.02923,0.01461 0.07493,-0.02311 0.09804,0 0.02359,0.02359 -0.02359,0.368566 0,0.392157 0.02311,0.02311 0.07493,-0.02311 0.09804,0 0.02311,0.02311 -0.02311,0.07493 0,0.09804 0.04622,0.04622 0.137619,-0.02923 0.196079,0 0.21677,0.108385 0.03042,0.06085 0.09804,0.196079 0.05189,0.103783 0.144186,0.09229 0.196078,0.196078 0.01461,0.02923 -0.01461,0.06881 0,0.09804 0.204008,0.408016 -0.0068,-0.104807 0.196079,0.09804 0.04622,0.04622 -0.04622,0.149863 0,0.196079 0.02311,0.02311 0.07493,-0.02311 0.09804,0 0.02311,0.02311 -0.02311,0.07493 0,0.09804 0.02311,0.02311 0.06536,0 0.09804,0 0,0.03268 -0.02311,0.07493 0,0.09804 0.05167,0.05167 0.144407,0.04637 0.196079,0.09804 0.02004,0.02004 -0.01944,0.255246 0,0.294118 0.02067,0.04134 0.07737,0.0567 0.09804,0.09804 0.01462,0.02923 -0.01461,0.06881 0,0.09804 0.02067,0.04134 0.06536,0.06536 0.09804,0.09804 0.03268,0.03268 0.0567,0.07737 0.09804,0.09804 0.02923,0.01461 0.07493,-0.02311 0.09804,0 0.02311,0.02311 -0.02311,0.07493 0,0.09804 0.02311,0.02311 0.07493,-0.02311 0.09804,0 0.02311,0.02311 -0.01461,0.06881 0,0.09804 0.02067,0.04134 0.07737,0.0567 0.09804,0.09804 0.02923,0.05846 -0.04622,0.149862 0,0.196078 0.04622,0.04622 0.137619,-0.02923 0.196078,0 0.21677,0.108385 0.03042,0.06085 0.09804,0.196078 0.02067,0.04134 0.07737,0.0567 0.09804,0.09804 0.01461,0.02923 -0.02311,0.07493 0,0.09804 0.02311,0.02311 0.07493,-0.02311 0.09804,0 0.02311,0.02311 -0.02311,0.07493 0,0.09804 0.04622,0.04622 0.149862,-0.04622 0.196078,0 0.02311,0.02311 -0.02311,0.07493 0,0.09804 0.02311,0.02311 0.07493,-0.02311 0.09804,0 0.02004,0.02004 -0.01944,0.255246 0,0.294118 0.02067,0.04134 0.0724,0.05958 0.09804,0.09804 0.04053,0.0608 0.04637,0.144407 0.09804,0.196079 0.02311,0.02311 0.07493,-0.02311 0.09804,0 0.04622,0.04622 -0.04622,0.149862 0,0.196078 0.02311,0.02311 0.06536,0 0.09804,0 0.03268,0.03268 0.0724,0.05959 0.09804,0.09804 0.05971,0.08956 0.08368,0.237921 0.196078,0.294118 0.05846,0.02923 0.149862,-0.04622 0.196079,0 0.02311,0.02311 -0.02311,0.07493 0,0.09804 0.202846,0.202847 -0.0079,-0.309976 0.196078,0.09804 0.03093,0.06185 -0.03092,0.428347 0,0.490196 0.02067,0.04134 0.07737,0.0567 0.09804,0.09804 0.01461,0.02923 -0.01461,0.06881 0,0.09804 0.02067,0.04134 0.06536,0.06536 0.09804,0.09804 0.03268,0.03268 0.06536,0.06536 0.09804,0.09804 0.03268,0.03268 0.06536,0.06536 0.09804,0.09804 0.03268,0.03268 0.07737,0.0567 0.09804,0.09804 0.144255,0.28851 -0.227116,-0.129077 0.09804,0.196078 0.03268,0.03268 0.06536,0.06536 0.09804,0.09804 0.03268,0.03268 0.0567,0.07737 0.09804,0.09804 0.135231,0.06762 0.08769,-0.118731 0.196078,0.09804 0.01461,0.02923 -0.01461,0.06881 0,0.09804 0.02067,0.04134 0.06536,0.06536 0.09804,0.09804 0.03268,0.03268 0.0567,0.07737 0.09804,0.09804 0.02923,0.01461 0.06881,-0.01461 0.09804,0 0.04134,0.02067 0.06536,0.06536 0.09804,0.09804 0.03268,0.03268 0.07737,0.0567 0.09804,0.09804 0.02923,0.05846 -0.02923,0.137619 0,0.196078 0.02067,0.04134 0.06536,0.06536 0.09804,0.09804 0.05766,0.05766 0.369456,0.346757 0.392156,0.392156 0.01461,0.02923 -0.02311,0.07493 0,0.09804 0.02311,0.02311 0.07493,-0.02311 0.09804,0 0.0666,0.0666 -0.100244,0.194976 0.09804,0.294117 0.02923,0.01461 0.06881,-0.01462 0.09804,0 0.04134,0.02067 0.0567,0.07737 0.09804,0.09804 0.05846,0.02923 0.149863,-0.04622 0.196079,0 0.02311,0.02311 -0.02311,0.07493 0,0.09804 0.02311,0.02311 0.07493,-0.02311 0.09804,0 0.02311,0.02311 -0.02311,0.07493 0,0.09804 0.02311,0.02311 0.07493,-0.02311 0.09804,0 0.02311,0.02311 -0.02311,0.07493 0,0.09804 0.02311,0.02311 0.07493,-0.02311 0.09804,0 0.02311,0.02311 -0.02311,0.07493 0,0.09804 0.02311,0.02311 0.07493,-0.02311 0.09804,0 0.02311,0.02311 -0.02311,0.07493 0,0.09804 0.04622,0.04622 0.149862,-0.04622 0.196078,0 0.02311,0.02311 -0.02311,0.07493 0,0.09804 0.04622,0.04622 0.149862,-0.04622 0.196078,0 0.02311,0.02311 -0.02311,0.07493 0,0.09804 0.02311,0.02311 0.06881,-0.01462 0.09804,0 0.04134,0.02067 0.0567,0.07737 0.09804,0.09804 0.02923,0.01462 0.07493,-0.02311 0.09804,0 0.02311,0.02311 -0.02311,0.07493 0,0.09804 0.202847,0.202847 -0.0079,-0.309976 0.196078,0.09804 0.01461,0.02923 -0.02311,0.07493 0,0.09804 0.06536,0.06536 0.163399,-0.03268 0.09804,-0.09804 -0.06536,-0.06536 -0.163399,0.03268 -0.09804,0.09804 0.02683,0.02683 0.338972,-0.02659 0.392157,0 0.04134,0.02067 0.0567,0.07737 0.09804,0.09804 0.02923,0.01462 0.07493,-0.02311 0.09804,0 0.02311,0.02311 -0.02311,0.07493 0,0.09804 0.02311,0.02311 0.07493,-0.02311 0.09804,0 0.02311,0.02311 -0.02311,0.07493 0,0.09804 0.04902,0.04902 0.245098,-0.04902 0.294118,0 0.02311,0.02311 -0.02311,0.07493 0,0.09804 0.02311,0.02311 0.07493,-0.02311 0.09804,0 0.04622,0.04622 -0.04622,0.149862 0,0.196078 0.04622,0.04622 0.137619,-0.02923 0.196078,0 0.08267,0.04134 0.113405,0.154742 0.196079,0.196079 0.02923,0.01461 0.07493,-0.02311 0.09804,0 0.02311,0.02311 -0.02311,0.07493 0,0.09804 0.02311,0.02311 0.07493,-0.02311 0.09804,0 0.02311,0.02311 -0.01461,0.06881 0,0.09804 0.02067,0.04134 0.06536,0.06536 0.09804,0.09804 0.03268,0.03268 0.0567,0.07737 0.09804,0.09804 0.05318,0.02659 0.365331,-0.02683 0.392156,0 0.02311,0.02311 -0.01461,0.06881 0,0.09804 0.02067,0.04134 0.07737,0.0567 0.09804,0.09804 0.02923,0.05846 -0.04622,0.149862 0,0.196078 0.02311,0.02311 0.07493,-0.02311 0.09804,0 0.202846,0.202847 -0.309977,-0.0079 0.09804,0.196079 0.02923,0.01461 0.06881,-0.01462 0.09804,0 0.04134,0.02067 0.06536,0.06536 0.09804,0.09804 0.03268,0.03268 0.07737,0.0567 0.09804,0.09804 0.01461,0.02923 -0.01461,0.06881 0,0.09804 0.02067,0.04134 0.07737,0.0567 0.09804,0.09804 0.01461,0.02923 -0.02311,0.07493 0,0.09804 0.02311,0.02311 0.07493,-0.02311 0.09804,0 0.02311,0.02311 0,0.06536 0,0.09804 0.03268,0 0.06881,-0.01461 0.09804,0 0.02603,0.01301 0.281103,0.268087 0.294118,0.294118 0.01461,0.02923 -0.01461,0.06881 0,0.09804 0.02067,0.04134 0.06536,0.06536 0.09804,0.09804 0.03268,0.03268 0.06536,0.06536 0.09804,0.09804 0.02378,0.02378 0.294118,0.287812 0.294118,0.294118 0,0.04622 -0.06536,0.06536 -0.09804,0.09804 -0.03268,0.03268 -0.0567,0.07737 -0.09804,0.09804 -0.02923,0.01462 -0.07493,-0.02311 -0.09804,0 -0.06761,0.06762 0.07252,0.183317 0.09804,0.196079 0.02923,0.01461 0.07493,-0.02311 0.09804,0 0.02311,0.02311 -0.01461,0.06881 0,0.09804 0.02067,0.04134 0.07737,0.0567 0.09804,0.09804 0.02923,0.05846 -0.04622,0.149863 0,0.196079 0.02359,0.02359 0.368566,-0.02359 0.392157,0 0.02311,0.02311 -0.01461,0.06881 0,0.09804 0.06261,0.125217 0.13347,0.07086 0.196078,0.196078 0.01461,0.02923 -0.01461,0.06881 0,0.09804 0.02067,0.04134 0.07737,0.0567 0.09804,0.09804 0.01461,0.02923 -0.02311,0.07493 0,0.09804 0.04902,0.04902 0.245098,-0.04902 0.294117,0 0.02311,0.02311 -0.01461,0.06881 0,0.09804 0.04134,0.08267 0.154742,0.113405 0.196079,0.196079 0.06761,0.135231 -0.118731,0.08769 0.09804,0.196078 0.05846,0.02923 0.13267,-0.01585 0.196078,0 0.100257,0.02506 0.201686,0.05182 0.294118,0.09804 0.21677,0.108385 0.03042,0.06085 0.09804,0.196079 0.05882,0.117647 0.235294,0.17647 0.294118,0.294117 0.01461,0.02923 -0.02311,0.07493 0,0.09804 0.02359,0.02359 0.368565,-0.02359 0.392157,0 0.04622,0.04622 -0.04622,0.149862 0,0.196078 0.02311,0.02311 0.07493,-0.02311 0.09804,0 0,0.261438 -0.03268,-0.03268 0.09804,0.09804 0.02311,0.02311 -0.02311,0.07493 0,0.09804 0.02311,0.02311 0.07493,-0.02311 0.09804,0 0.02311,0.02311 -0.02311,0.07493 0,0.09804 0.02311,0.02311 0.07493,-0.02311 0.09804,0 0.04622,0.04622 -0.04622,0.149862 0,0.196078 0.02311,0.02311 0.06536,0 0.09804,0 0,0.03268 -0.02311,0.07493 0,0.09804 0.02311,0.02311 0.07493,-0.02311 0.09804,0 0.02311,0.02311 -0.01461,0.06881 0,0.09804 0.02067,0.04134 0.06536,0.06536 0.09804,0.09804 0.03268,0.03268 0.0567,0.07737 0.09804,0.09804 0.02923,0.01461 0.07493,-0.02311 0.09804,0 0.02311,0.02311 -0.01461,0.06881 0,0.09804 0.02067,0.04134 0.07737,0.0567 0.09804,0.09804 0.01461,0.02923 -0.02311,0.07493 0,0.09804 0.02311,0.02311 0.07493,-0.02311 0.09804,0 0.02311,0.02311 -0.02311,0.07493 0,0.09804 0.02311,0.02311 0.07493,-0.02311 0.09804,0 0.02311,0.02311 -0.02311,0.07493 0,0.09804 0.02311,0.02311 0.07493,-0.02311 0.09804,0 0.02311,0.02311 -0.02311,0.07493 0,0.09804 0.202846,0.202847 -0.0079,-0.309976 0.196078,0.09804 0.01461,0.02923 -0.02311,0.07493 0,0.09804 0.02311,0.02311 0.07493,-0.02311 0.09804,0 0.02311,0.02311 -0.01461,0.06881 0,0.09804 0.04134,0.08267 0.154742,0.113404 0.196079,0.196078 0.01461,0.02923 -0.02311,0.07493 0,0.09804 0.06557,0.06557 0.130504,-0.06557 0.196078,0 0.02311,0.02311 -0.02311,0.07493 0,0.09804 0.02311,0.02311 0.07493,-0.02311 0.09804,0 0.04622,0.04622 -0.04622,0.149862 0,0.196078 0.02311,0.02311 0.07493,-0.02311 0.09804,0 0.02311,0.02311 -0.01461,0.06881 0,0.09804 0.02067,0.04134 0.07737,0.0567 0.09804,0.09804 0.01461,0.02923 -0.02311,0.07493 0,0.09804 0.04622,0.04622 0.149862,-0.04622 0.196078,0 0.04622,0.04622 -0.04622,0.149862 0,0.196078 0.04622,0.04622 0.149862,-0.04622 0.196079,0 0.04902,0.04902 -0.04902,0.245098 0,0.294118 0.02311,0.02311 0.07493,-0.02311 0.09804,0 0.02311,0.02311 -0.02311,0.07493 0,0.09804 0.04622,0.04622 0.149862,-0.04622 0.196078,0 0.02311,0.02311 -0.02311,0.07493 0,0.09804 0.02311,0.02311 0.07493,-0.02311 0.09804,0 0.02311,0.02311 -0.01461,0.06881 0,0.09804 0.02067,0.04134 0.07737,0.0567 0.09804,0.09804 0.01461,0.02923 -0.02311,0.07493 0,0.09804 0.261438,0 -0.03268,-0.03268 0.09804,0.09804 0.02311,0.02311 0.07493,-0.02311 0.09804,0 0.02004,0.02004 -0.01944,0.255246 0,0.294118 0.204008,0.408016 -0.0068,-0.104808 0.196078,0.09804 0.202847,0.202847 -0.309976,-0.0079 0.09804,0.196079 0.02923,0.01461 0.07493,-0.02311 0.09804,0 0.04622,0.04622 -0.04622,0.149862 0,0.196078 0.02311,0.02311 0.07493,-0.02311 0.09804,0 0.02311,0.02311 -0.02311,0.07493 0,0.09804 0.02311,0.02311 0.06536,0 0.09804,0 0,0.03268 -0.02311,0.07493 0,0.09804 0.02311,0.02311 0.07493,-0.02311 0.09804,0 0.04622,0.04622 -0.04622,0.149863 0,0.196079 0.02311,0.02311 0.06881,-0.01462 0.09804,0 0.04134,0.02067 0.0567,0.07737 0.09804,0.09804 0.02923,0.01461 0.07493,-0.02311 0.09804,0 0.04622,0.04622 -0.02923,0.137619 0,0.196078 0.02067,0.04134 0.07737,0.0567 0.09804,0.09804 0.01461,0.02923 -0.02311,0.07493 0,0.09804 0.02311,0.02311 0.07493,-0.02311 0.09804,0 0.02311,0.02311 -0.02311,0.07493 0,0.09804 0.04622,0.04622 0.149862,-0.04622 0.196078,0 0.02311,0.02311 -0.02311,0.07493 0,0.09804 0.02311,0.02311 0.06881,-0.01462 0.09804,0 0.408016,0.204008 -0.104807,-0.0068 0.09804,0.196079 0.02311,0.02311 0.07493,-0.02311 0.09804,0 0.02311,0.02311 -0.02311,0.07493 0,0.09804 0.02311,0.02311 0.07493,-0.02311 0.09804,0 0.202847,0.202847 -0.309977,-0.0079 0.09804,0.196078 0.03887,0.01944 0.274075,-0.02004 0.294118,0 0.02311,0.02311 -0.02311,0.07493 0,0.09804 0.02311,0.02311 0.06881,-0.01461 0.09804,0 0.08267,0.04134 0.113405,0.154741 0.196078,0.196078 0.02923,0.01462 0.06881,-0.01461 0.09804,0 0.08267,0.04134 0.113404,0.154742 0.196078,0.196078 0.02923,0.01462 0.06881,-0.01461 0.09804,0 0.04134,0.02067 0.0567,0.07737 0.09804,0.09804 0.02923,0.01462 0.07493,-0.02311 0.09804,0 0.02311,0.02311 -0.02311,0.07493 0,0.09804 0.04622,0.04622 0.149862,-0.04622 0.196078,0 0.02311,0.02311 -0.02311,0.07493 0,0.09804 0.02311,0.02311 0.07493,-0.02311 0.09804,0 0.04902,0.04902 -0.04902,0.245098 0,0.294118 0.02311,0.02311 0.07493,-0.02311 0.09804,0 0,0.03268 0,0.06536 0,0.09804 0,0.03268 -0.02311,0.07493 0,0.09804 0.02311,0.02311 0.07493,-0.02311 0.09804,0 0.04902,0.04902 -0.04902,0.245098 0,0.294118 0.02311,0.02311 0.07493,-0.02311 0.09804,0 0.02311,0.02311 -0.02311,0.07493 0,0.09804 0.04622,0.04622 0.149862,-0.04622 0.196078,0 0.02311,0.02311 -0.02311,0.07493 0,0.09804 0.04622,0.04622 0.149863,-0.04622 0.196079,0 0.02311,0.02311 -0.02311,0.07493 0,0.09804 0.02311,0.02311 0.07493,-0.02311 0.09804,0 0.04622,0.04622 -0.04622,0.149863 0,0.196079 0.02311,0.02311 0.07493,-0.02311 0.09804,0 0.02311,0.02311 0.03268,0.09804 0,0.09804 -0.03268,0 -0.03268,-0.09804 0,-0.09804 0.04622,0 0.0567,0.07737 0.09804,0.09804 0.02011,0.01005 0.280291,0.01383 0.294117,0 0.04902,-0.04902 -0.04902,-0.245098 0,-0.294118 0.261438,0 -0.03268,0.03268 0.09804,-0.09804 0.04902,-0.04902 0.245098,0.04902 0.294118,0 0.02311,-0.02311 0,-0.06536 0,-0.09804"
       id="path3058"
       inkscape:connector-curvature="0"
       transform="translate(0,972.3622)" />
  </g>
</svg>
