<?xml version="1.0" encoding="UTF-8" standalone="no"?>
<!-- Created with Inkscape (http://www.inkscape.org/) -->

<svg
   xmlns:dc="http://purl.org/dc/elements/1.1/"
   xmlns:cc="http://creativecommons.org/ns#"
   xmlns:rdf="http://www.w3.org/1999/02/22-rdf-syntax-ns#"
   xmlns:svg="http://www.w3.org/2000/svg"
   xmlns="http://www.w3.org/2000/svg"
   xmlns:sodipodi="http://sodipodi.sourceforge.net/DTD/sodipodi-0.dtd"
   xmlns:inkscape="http://www.inkscape.org/namespaces/inkscape"
   width="64"
   height="80"
   id="svg2"
   version="1.1"
   inkscape:version="0.48.5 r10040"
   sodipodi:docname="void_hatching_vert_trail_diag_1.svg">
  <defs
     id="defs4" />
  <sodipodi:namedview
     id="base"
     pagecolor="#ffffff"
     bordercolor="#666666"
     borderopacity="1.0"
     inkscape:pageopacity="0.0"
     inkscape:pageshadow="2"
     inkscape:zoom="10.2"
     inkscape:cx="32"
     inkscape:cy="40"
     inkscape:document-units="px"
     inkscape:current-layer="layer1"
     showgrid="true"
     inkscape:window-width="1920"
     inkscape:window-height="1014"
     inkscape:window-x="0"
     inkscape:window-y="27"
     inkscape:window-maximized="1"
     inkscape:snap-grids="false">
    <inkscape:grid
       type="xygrid"
       id="grid3001"
       empspacing="8"
       visible="true"
       enabled="true"
       snapvisiblegridlinesonly="true" />
  </sodipodi:namedview>
  <metadata
     id="metadata7">
    <rdf:RDF>
      <cc:Work
         rdf:about="">
        <dc:format>image/svg+xml</dc:format>
        <dc:type
           rdf:resource="http://purl.org/dc/dcmitype/StillImage" />
        <dc:title></dc:title>
      </cc:Work>
    </rdf:RDF>
  </metadata>
  <g
     inkscape:label="Layer 1"
     inkscape:groupmode="layer"
     id="layer1"
     transform="translate(0,-972.3622)">
    <path
       style="fill:none;stroke:#bf0000;stroke-width:1;stroke-linecap:round;stroke-linejoin:round;stroke-opacity:1;opacity:0.80000000000000004;color:#000000;stroke-miterlimit:4;stroke-dasharray:none;stroke-dashoffset:0;marker:none;visibility:visible;display:inline;overflow:visible;enable-background:accumulate"
       d="m 62.254902,1.372549 c -0.130719,0.098039 -0.276617,0.1785773 -0.392157,0.2941177 -0.02311,0.023108 0.02311,0.074931 0,0.098039 -0.02311,0.023108 -0.06881,-0.014615 -0.09804,0 -0.04134,0.020668 -0.06536,0.06536 -0.09804,0.098039 -0.03268,0.03268 -0.07737,0.056702 -0.09804,0.098039 -0.06761,0.1352311 0.118731,0.087693 -0.09804,0.1960784 -0.02923,0.014615 -0.07493,-0.023108 -0.09804,0 -0.02311,0.023108 0.02311,0.074931 0,0.098039 -0.02311,0.023108 -0.06881,-0.014615 -0.09804,0 -0.04134,0.020668 -0.06536,0.065359 -0.09804,0.098039 -0.03268,0.03268 -0.07737,0.056702 -0.09804,0.098039 -0.01461,0.02923 0.02311,0.074931 0,0.098039 -0.02311,0.023108 -0.07493,-0.023108 -0.09804,0 -0.0654,0.065395 0.06539,0.1306833 0,0.1960784 -0.02311,0.023108 -0.07493,-0.023108 -0.09804,0 -0.02311,0.023108 0.02311,0.074931 0,0.098039 -0.26158,0.2615803 0.0655,-0.2615804 -0.196078,0 -0.02311,0.023108 0.01461,0.068809 0,0.098039 -0.02067,0.041337 -0.07737,0.056702 -0.09804,0.098039 -0.01461,0.02923 0.02311,0.074931 0,0.098039 -0.202846,0.2028466 0.0079,-0.3099765 -0.196078,0.098039 -0.02923,0.058459 0.04622,0.1498623 0,0.1960784 -0.02311,0.023108 -0.07493,-0.023108 -0.09804,0 -0.02311,0.023108 0.01461,0.06881 0,0.098039 -0.04134,0.082674 -0.154742,0.1134045 -0.196079,0.1960784 -0.01461,0.02923 0.02311,0.074931 0,0.098039 -0.02311,0.023108 -0.07493,-0.023108 -0.09804,0 -0.02311,0.023108 0.02311,0.074931 0,0.098039 -0.02311,0.023108 -0.07493,-0.023108 -0.09804,0 -0.02311,0.023108 0.02311,0.074931 0,0.098039 -0.02311,0.023108 -0.07493,-0.023108 -0.09804,0 -0.02311,0.023108 0.02311,0.074931 0,0.098039 -0.02311,0.023108 -0.07493,-0.023108 -0.09804,0 -0.02311,0.023108 0.02311,0.074931 0,0.098039 -0.02311,0.023108 -0.06536,0 -0.09804,0 0,0.03268 0.02311,0.074931 0,0.098039 -0.02311,0.023108 -0.07493,-0.023108 -0.09804,0 -0.02311,0.023108 0.01461,0.06881 0,0.098039 -0.04134,0.082674 -0.154742,0.1134045 -0.196079,0.1960784 -0.01461,0.02923 0.02311,0.074931 0,0.098039 -0.02311,0.023108 -0.07493,-0.023108 -0.09804,0 -0.02311,0.023108 0.02311,0.074931 0,0.098039 -0.02311,0.023108 -0.07493,-0.023108 -0.09804,0 -0.04902,0.04902 0.04902,0.245098 0,0.2941176 -0.02311,0.023108 -0.06881,-0.014615 -0.09804,0 -0.08267,0.041337 -0.113405,0.1547415 -0.196079,0.1960784 -0.02923,0.014615 -0.07493,-0.023108 -0.09804,0 -0.04622,0.046216 0.02923,0.1376192 0,0.1960785 -0.02067,0.041337 -0.06536,0.065359 -0.09804,0.098039 -0.03268,0.03268 -0.0567,0.077371 -0.09804,0.098039 -0.02923,0.014615 -0.06881,-0.014615 -0.09804,0 -0.04134,0.020669 -0.0567,0.077371 -0.09804,0.098039 -0.02923,0.014615 -0.07493,-0.023108 -0.09804,0 -0.02311,0.023108 0.02311,0.074931 0,0.098039 -0.02311,0.023108 -0.07493,-0.023108 -0.09804,0 -0.04622,0.046216 0.04622,0.1498623 0,0.1960785 -0.02311,0.023108 -0.07493,-0.023108 -0.09804,0 -0.202847,0.2028466 0.309976,-0.00793 -0.09804,0.1960784 -0.05846,0.02923 -0.137619,-0.02923 -0.196078,0 -0.09647,0.048237 -0.295683,0.3439202 -0.392157,0.3921569 -0.02923,0.014615 -0.07493,-0.023108 -0.09804,0 -0.02311,0.023108 0.02311,0.074931 0,0.098039 -0.02311,0.023108 -0.07493,-0.023108 -0.09804,0 -0.02311,0.023108 0.02311,0.074931 0,0.098039 -0.04622,0.046216 -0.149863,-0.046216 -0.196079,0 -0.04622,0.046216 0.04622,0.1498623 0,0.1960784 -0.02311,0.023108 -0.07493,-0.023108 -0.09804,0 -0.202847,0.2028467 0.309977,-0.00793 -0.09804,0.1960785 -0.05846,0.02923 -0.149862,-0.046216 -0.196079,0 -0.02311,0.023108 0.01461,0.068809 0,0.098039 -0.204007,0.4080157 0.0068,-0.1048074 -0.196078,0.098039 -0.02311,0.023108 0.02311,0.074931 0,0.098039 -0.02311,0.023108 -0.07493,-0.023108 -0.09804,0 -0.02311,0.023108 0.02311,0.074931 0,0.098039 -0.02311,0.023108 -0.07493,-0.023108 -0.09804,0 -0.02311,0.023108 0.02311,0.074931 0,0.098039 -0.02311,0.023108 -0.07493,-0.023108 -0.09804,0 -0.02311,0.023108 0.02311,0.074931 0,0.098039 -0.02311,0.023108 -0.07493,-0.023108 -0.09804,0 -0.02311,0.023108 0.02311,0.074931 0,0.098039 -0.02311,0.023108 -0.07493,-0.023108 -0.09804,0 -0.02311,0.023108 0.02311,0.074931 0,0.098039 -0.02311,0.023108 -0.06881,-0.014615 -0.09804,0 -0.04134,0.020669 -0.06536,0.065359 -0.09804,0.098039 -0.03268,0.03268 -0.07737,0.056702 -0.09804,0.098039 -0.01461,0.02923 0.02311,0.074931 0,0.098039 -0.04622,0.046216 -0.149862,-0.046216 -0.196078,0 -0.04622,0.046216 0.04622,0.1498623 0,0.1960785 -0.02311,0.023108 -0.07493,-0.023108 -0.09804,0 -0.04622,0.046216 0.02923,0.1376191 0,0.1960784 -0.02067,0.041337 -0.07737,0.056702 -0.09804,0.098039 -0.01461,0.02923 0.02311,0.074931 0,0.098039 -0.02311,0.023108 -0.07493,-0.023108 -0.09804,0 -0.02311,0.023108 0.02311,0.074931 0,0.098039 -0.02311,0.023108 -0.07493,-0.023108 -0.09804,0 -0.02311,0.023108 0.02311,0.074931 0,0.098039 -0.202847,0.2028466 0.0079,-0.3099766 -0.196078,0.098039 -0.01461,0.02923 0.02311,0.074931 0,0.098039 -0.02311,0.023108 -0.07493,-0.023108 -0.09804,0 -0.04622,0.046216 0.02923,0.1376191 0,0.1960784 -0.02067,0.041337 -0.07737,0.056702 -0.09804,0.098039 -0.01461,0.02923 0.02311,0.074931 0,0.098039 -0.02311,0.023108 -0.06881,-0.014615 -0.09804,0 -0.408016,0.2040078 0.104807,-0.00677 -0.09804,0.1960784 -0.02311,0.023108 -0.07493,-0.023108 -0.09804,0 -0.02311,0.023108 0.02311,0.074931 0,0.098039 -0.02311,0.02311 -0.07493,-0.023108 -0.09804,0 -0.02311,0.02311 0,0.06536 0,0.09804 0,0.06536 0.02923,0.137619 0,0.196079 -0.01461,0.02923 -0.07493,-0.02311 -0.09804,0 -0.02311,0.02311 0.02311,0.07493 0,0.09804 -0.26158,0.26158 0.0655,-0.261581 -0.196078,0 -0.04902,0.04902 0.04902,0.245098 0,0.294118 -0.02311,0.02311 -0.06881,-0.01462 -0.09804,0 -0.408015,0.204007 0.104808,-0.0068 -0.09804,0.196078 -0.202846,0.202847 0.0079,-0.309977 -0.196078,0.09804 -0.02923,0.05846 0.04622,0.149862 0,0.196079 -0.02311,0.02311 -0.07493,-0.02311 -0.09804,0 -0.04622,0.04622 0.04622,0.149862 0,0.196078 -0.04622,0.04622 -0.149863,-0.04622 -0.196079,0 -0.02311,0.02311 0.02311,0.07493 0,0.09804 -0.02311,0.02311 -0.07493,-0.02311 -0.09804,0 -0.04622,0.04622 0.04622,0.149863 0,0.196079 -0.02311,0.02311 -0.07493,-0.02311 -0.09804,0 -0.02311,0.02311 0.01461,0.06881 0,0.09804 -0.02067,0.04134 -0.06536,0.06536 -0.09804,0.09804 -0.03268,0.03268 -0.0567,0.07737 -0.09804,0.09804 -0.02923,0.01461 -0.06881,-0.01462 -0.09804,0 -0.04134,0.02067 -0.06536,0.06536 -0.09804,0.09804 -0.03268,0.03268 -0.07737,0.0567 -0.09804,0.09804 -0.01461,0.02923 0.02311,0.07493 0,0.09804 -0.02311,0.02311 -0.07493,-0.02311 -0.09804,0 -0.04902,0.04902 0.04902,0.245098 0,0.294118 -0.04622,0.04622 -0.149862,-0.04622 -0.196078,0 -0.02311,0.02311 0.02311,0.07493 0,0.09804 -0.02311,0.02311 -0.07493,-0.02311 -0.09804,0 -0.04622,0.04622 0.04622,0.149862 0,0.196078 -0.02311,0.02311 -0.07493,-0.02311 -0.09804,0 -0.02311,0.02311 0.02311,0.07493 0,0.09804 -0.02311,0.02311 -0.07493,-0.02311 -0.09804,0 -0.02311,0.02311 0.02311,0.07493 0,0.09804 -0.02311,0.02311 -0.07493,-0.02311 -0.09804,0 -0.02311,0.02311 0.02311,0.07493 0,0.09804 -0.02311,0.02311 -0.06881,-0.01461 -0.09804,0 -0.04134,0.02067 -0.06536,0.06536 -0.09804,0.09804 -0.03268,0.03268 -0.06536,0.06536 -0.09804,0.09804 -0.05161,0.05161 -0.267937,0.241757 -0.294117,0.294118 -0.01461,0.02923 0.01461,0.06881 0,0.09804 -0.04134,0.08267 -0.154742,0.113405 -0.196079,0.196079 -0.01461,0.02923 0.02311,0.07493 0,0.09804 -0.02311,0.02311 -0.06881,-0.01461 -0.09804,0 -0.04134,0.02067 -0.06536,0.06536 -0.09804,0.09804 -0.03268,0.03268 -0.07737,0.0567 -0.09804,0.09804 -0.01461,0.02923 0.02311,0.07493 0,0.09804 -0.02311,0.02311 -0.06881,-0.01461 -0.09804,0 -0.08267,0.04134 -0.113405,0.154742 -0.196079,0.196079 -0.02923,0.01461 -0.07493,-0.02311 -0.09804,0 -0.02311,0.02311 0.01461,0.06881 0,0.09804 -0.204008,0.408016 0.0068,-0.104807 -0.196079,0.09804 -0.02311,0.02311 0.02311,0.07493 0,0.09804 -0.02311,0.02311 -0.07493,-0.02311 -0.09804,0 -0.02311,0.02311 0.02311,0.07493 0,0.09804 -0.04622,0.04622 -0.149862,-0.04622 -0.196078,0 -0.02311,0.02311 0.02311,0.07493 0,0.09804 -0.02311,0.02311 -0.07493,-0.02311 -0.09804,0 -0.02311,0.02311 0.02311,0.07493 0,0.09804 -0.261438,0 0.03268,-0.03268 -0.09804,0.09804 -0.02311,0.02311 -0.07493,-0.02311 -0.09804,0 -0.02311,0.02311 0.02311,0.07493 0,0.09804 -0.26158,0.26158 0.0655,-0.261581 -0.196078,0 -0.02311,0.02311 0.02311,0.07493 0,0.09804 -0.02004,0.02004 -0.255246,-0.01944 -0.294118,0 -0.408016,0.204008 0.104807,-0.0068 -0.09804,0.196078 -0.02311,0.02311 -0.07493,-0.02311 -0.09804,0 -0.02311,0.02311 0.02311,0.07493 0,0.09804 -0.02311,0.02311 -0.06881,-0.01462 -0.09804,0 -0.04134,0.02067 -0.0567,0.07737 -0.09804,0.09804 -0.02923,0.01461 -0.07493,-0.02311 -0.09804,0 -0.02311,0.02311 0.02311,0.07493 0,0.09804 -0.02311,0.02311 -0.06881,-0.01462 -0.09804,0 -0.04134,0.02067 -0.0567,0.07737 -0.09804,0.09804 -0.02923,0.01461 -0.07493,-0.02311 -0.09804,0 -0.02311,0.02311 0.02311,0.07493 0,0.09804 -0.02311,0.02311 -0.06881,-0.01461 -0.09804,0 -0.04134,0.02067 -0.0567,0.07737 -0.09804,0.09804 -0.02923,0.01461 -0.07493,-0.02311 -0.09804,0 -0.02311,0.02311 0.02311,0.07493 0,0.09804 -0.202847,0.202846 0.0079,-0.309977 -0.196079,0.09804 -0.01461,0.02923 0.02311,0.07493 0,0.09804 -0.02311,0.02311 -0.06881,-0.01461 -0.09804,0 -0.04134,0.02067 -0.0567,0.07737 -0.09804,0.09804 -0.05846,0.02923 -0.149862,-0.04622 -0.196079,0 -0.02311,0.02311 0.02311,0.07493 0,0.09804 -0.02311,0.02311 -0.07493,-0.02311 -0.09804,0 -0.02311,0.02311 0.02311,0.07493 0,0.09804 -0.02311,0.02311 -0.07493,-0.02311 -0.09804,0 -0.02311,0.02311 0.01461,0.06881 0,0.09804 -0.02067,0.04134 -0.07737,0.0567 -0.09804,0.09804 -0.01461,0.02923 0.02311,0.07493 0,0.09804 -0.02311,0.02311 -0.06881,-0.01462 -0.09804,0 -0.04134,0.02067 -0.0567,0.07737 -0.09804,0.09804 -0.02923,0.01461 -0.06881,-0.01462 -0.09804,0 -0.21677,0.108385 -0.03042,0.06085 -0.09804,0.196078 -0.01301,0.02603 -0.268087,0.281103 -0.294118,0.294118 -0.02923,0.01462 -0.06881,-0.01461 -0.09804,0 -0.02603,0.01302 -0.281102,0.268087 -0.294118,0.294117 -0.01461,0.02923 0.02311,0.07493 0,0.09804 -0.202846,0.202846 0.0079,-0.309977 -0.196078,0.09804 -0.01461,0.02923 0.02311,0.07493 0,0.09804 -0.04622,0.04622 -0.149862,-0.04622 -0.196078,0 -0.02311,0.02311 0.01461,0.06881 0,0.09804 -0.02067,0.04134 -0.07737,0.0567 -0.09804,0.09804 -0.01461,0.02923 0.01461,0.06881 0,0.09804 -0.01301,0.02603 -0.268087,0.281102 -0.294117,0.294117 -0.02923,0.01461 -0.06536,0 -0.09804,0 -0.03268,0.03268 -0.0567,0.07737 -0.09804,0.09804 -0.02923,0.01461 -0.07493,-0.02311 -0.09804,0 -0.06557,0.06557 0.06557,0.130504 0,0.196078 -0.02311,0.02311 -0.07493,-0.02311 -0.09804,0 -0.02311,0.02311 0.01461,0.06881 0,0.09804 -0.204008,0.408016 0.0068,-0.104807 -0.196079,0.09804 -0.02311,0.02311 0.02311,0.07493 0,0.09804 -0.02311,0.02311 -0.07493,-0.02311 -0.09804,0 -0.02311,0.02311 0,0.06536 0,0.09804 -0.03268,0 -0.06881,-0.01461 -0.09804,0 -0.198283,0.09914 -0.03144,0.227517 -0.09804,0.294118 -0.02311,0.02311 -0.07493,-0.02311 -0.09804,0 -0.02311,0.02311 0.02311,0.07493 0,0.09804 -0.02311,0.02311 -0.07493,-0.02311 -0.09804,0 -0.02311,0.02311 0.02311,0.07493 0,0.09804 -0.02311,0.02311 -0.07493,-0.02311 -0.09804,0 -0.02311,0.02311 0.02311,0.07493 0,0.09804 -0.02311,0.02311 -0.07493,-0.02311 -0.09804,0 0,0.261438 0.03268,-0.03268 -0.09804,0.09804 -0.02311,0.02311 0.02311,0.07493 0,0.09804 -0.02311,0.02311 -0.07493,-0.02311 -0.09804,0 -0.02311,0.02311 0.01461,0.06881 0,0.09804 -0.02067,0.04134 -0.07737,0.0567 -0.09804,0.09804 -0.01461,0.02923 0.02311,0.07493 0,0.09804 -0.02004,0.02004 -0.255246,-0.01944 -0.294117,0 -0.216771,0.108385 -0.03042,0.06085 -0.09804,0.196079 -0.02067,0.04134 -0.06536,0.06536 -0.09804,0.09804 -0.03268,0.03268 -0.0567,0.07737 -0.09804,0.09804 -0.02923,0.01462 -0.07493,-0.02311 -0.09804,0 -0.02311,0.02311 0.02311,0.07493 0,0.09804 -0.02311,0.02311 -0.07493,-0.02311 -0.09804,0 -0.02311,0.02311 0.02311,0.07493 0,0.09804 -0.02311,0.02311 -0.07493,-0.02311 -0.09804,0 -0.06557,0.06557 0.06557,0.130504 0,0.196078 -0.02311,0.02311 -0.07493,-0.02311 -0.09804,0 -0.02311,0.02311 0.02311,0.07493 0,0.09804 -0.06557,0.06557 -0.130505,-0.06557 -0.196078,0 -0.202847,0.202847 0.309976,-0.0079 -0.09804,0.196079 -0.05846,0.02923 -0.137619,-0.02923 -0.196078,0 -0.192455,0.09623 -0.04414,0.186313 -0.09804,0.294117 -0.04134,0.08267 -0.154742,0.113405 -0.196079,0.196079 -0.01461,0.02923 0.02311,0.07493 0,0.09804 -0.202846,0.202847 0.0079,-0.309977 -0.196078,0.09804 -0.01461,0.02923 0.02311,0.07493 0,0.09804 -0.262295,0.262295 0.06622,-0.262295 -0.196079,0 -0.02311,0.02311 0.01461,0.06881 0,0.09804 -0.204007,0.408015 0.0068,-0.104808 -0.196078,0.09804 -0.02311,0.02311 0.02311,0.07493 0,0.09804 -0.02311,0.02311 -0.07493,-0.02311 -0.09804,0 -0.02311,0.02311 0.02311,0.07493 0,0.09804 -0.02311,0.02311 -0.06881,-0.01461 -0.09804,0 -0.04134,0.02067 -0.0567,0.07737 -0.09804,0.09804 -0.02923,0.01462 -0.07493,-0.02311 -0.09804,0 -0.04622,0.04622 0.04622,0.149863 0,0.196079 -0.02311,0.02311 -0.07493,-0.02311 -0.09804,0 -0.04902,0.04902 0.04902,0.245098 0,0.294118 -0.02004,0.02004 -0.255246,-0.01944 -0.294118,0 -0.198282,0.09914 -0.03144,0.227517 -0.09804,0.294117 -0.02004,0.02004 -0.255246,-0.01944 -0.294118,0 -0.04134,0.02067 -0.0567,0.07737 -0.09804,0.09804 -0.02923,0.01461 -0.07493,-0.02311 -0.09804,0 -0.02311,0.02311 0.02311,0.07493 0,0.09804 -0.02311,0.02311 -0.06881,-0.01462 -0.09804,0 -0.04134,0.02067 -0.0567,0.07737 -0.09804,0.09804 -0.02923,0.01461 -0.07493,-0.02311 -0.09804,0 -0.02311,0.02311 0.02311,0.07493 0,0.09804 -0.02311,0.02311 -0.07493,-0.02311 -0.09804,0 -0.02311,0.02311 0.02311,0.07493 0,0.09804 -0.02311,0.02311 -0.06881,-0.01462 -0.09804,0 -0.04134,0.02067 -0.06536,0.06536 -0.09804,0.09804 -0.03268,0.03268 -0.07737,0.0567 -0.09804,0.09804 -0.01461,0.02923 0.02311,0.07493 0,0.09804 -0.26158,0.26158 0.0655,-0.26158 -0.196078,0 -0.04622,0.04622 0.04622,0.149862 0,0.196078 -0.05167,0.05167 -0.126754,0.07493 -0.196078,0.09804 -0.031,0.01033 -0.07493,-0.02311 -0.09804,0 -0.02311,0.02311 0.01461,0.06881 0,0.09804 -0.02067,0.04134 -0.07737,0.0567 -0.09804,0.09804 -0.01461,0.02923 0.02311,0.07493 0,0.09804 -0.04622,0.04622 -0.149862,-0.04622 -0.196078,0 -0.02311,0.02311 0.02311,0.07493 0,0.09804 -0.02311,0.02311 -0.07493,-0.02311 -0.09804,0 -0.02311,0.02311 0.02311,0.07493 0,0.09804 -0.02311,0.02311 -0.07493,-0.02311 -0.09804,0 -0.02311,0.02311 0.02311,0.07493 0,0.09804 -0.02311,0.02311 -0.07493,-0.02311 -0.09804,0 -0.02311,0.02311 0.02311,0.07493 0,0.09804 -0.02311,0.02311 -0.07493,-0.02311 -0.09804,0 -0.202847,0.202847 0.309976,-0.0079 -0.09804,0.196079 -0.02923,0.01461 -0.06881,-0.01461 -0.09804,0 -0.08267,0.04134 -0.113404,0.154741 -0.196078,0.196078 -0.02923,0.01462 -0.07493,-0.02311 -0.09804,0 -0.02311,0.02311 0.02311,0.07493 0,0.09804 -0.02311,0.02311 -0.07493,-0.02311 -0.09804,0 -0.0666,0.0666 0.100243,0.194977 -0.09804,0.294118 -0.02923,0.01461 -0.06536,0 -0.09804,0 -0.03268,0.03268 -0.0567,0.07737 -0.09804,0.09804 -0.02923,0.01461 -0.07493,-0.02311 -0.09804,0 -0.02311,0.02311 0.01461,0.06881 0,0.09804 -0.02067,0.04134 -0.07737,0.0567 -0.09804,0.09804 -0.01461,0.02923 0.02311,0.07493 0,0.09804 -0.02311,0.02311 -0.07493,-0.02311 -0.09804,0 -0.02311,0.02311 0.02311,0.07493 0,0.09804 -0.02311,0.02311 -0.07493,-0.02311 -0.09804,0 -0.02311,0.02311 0.02311,0.07493 0,0.09804 -0.04622,0.04622 -0.137619,-0.02923 -0.196078,0 -0.04134,0.02067 -0.06536,0.06536 -0.09804,0.09804 -0.03268,0.03268 -0.07737,0.0567 -0.09804,0.09804 -0.01461,0.02923 0.01461,0.06881 0,0.09804 -0.02067,0.04134 -0.06536,0.06536 -0.09804,0.09804 -0.03268,0.03268 -0.0567,0.07737 -0.09804,0.09804 -0.02923,0.01461 -0.06881,-0.01462 -0.09804,0 -0.04134,0.02067 -0.06536,0.06536 -0.09804,0.09804 -0.03268,0.03268 -0.07737,0.0567 -0.09804,0.09804 -0.01461,0.02923 0.02311,0.07493 0,0.09804 -0.02311,0.02311 -0.07493,-0.02311 -0.09804,0 -0.04622,0.04622 0.04622,0.149862 0,0.196078 -0.02311,0.02311 -0.07493,-0.02311 -0.09804,0 -0.02311,0.02311 0.02311,0.07493 0,0.09804 -0.02311,0.02311 -0.07493,-0.02311 -0.09804,0 -0.02311,0.02311 0.02311,0.07493 0,0.09804 -0.04622,0.04622 -0.149863,-0.04622 -0.196079,0 -0.02311,0.02311 0.01461,0.06881 0,0.09804 -0.04134,0.08267 -0.154741,0.113404 -0.196078,0.196078 -0.02923,0.05846 0.04622,0.149863 0,0.196079 -0.04622,0.04622 -0.149863,-0.04622 -0.196079,0 -0.04622,0.04622 0.04622,0.149862 0,0.196078 -0.02311,0.02311 -0.07493,-0.02311 -0.09804,0 -0.02311,0.02311 0.02311,0.07493 0,0.09804 -0.02311,0.02311 -0.07493,-0.02311 -0.09804,0 -0.0666,0.0666 0.100243,0.194977 -0.09804,0.294118 -0.02923,0.01461 -0.07493,-0.02311 -0.09804,0 -0.03036,0.03036 0.03036,0.459839 0,0.490196 -0.111575,0.111576 -0.182542,-0.209615 -0.294117,-0.09804 -0.02311,0.02311 0.02311,0.07493 0,0.09804 -0.02311,0.02311 -0.07493,-0.02311 -0.09804,0 -0.02311,0.02311 0.02311,0.07493 0,0.09804 -0.02311,0.02311 -0.07493,-0.02311 -0.09804,0 -0.02311,0.02311 0.02311,0.07493 0,0.09804 -0.02311,0.02311 -0.06881,-0.01461 -0.09804,0 -0.04134,0.02067 -0.06536,0.06536 -0.09804,0.09804 -0.03268,0.03268 -0.06536,0.06536 -0.09804,0.09804 -0.03268,0.03268 -0.05182,0.09804 -0.09804,0.09804 -0.09243,0 -0.103646,-0.196078 -0.196078,-0.196078 -0.03268,0 0.02311,0.07493 0,0.09804 -0.02004,0.02004 -0.255246,-0.01944 -0.294118,0 -0.04134,0.02067 -0.0567,0.07737 -0.09804,0.09804 -0.02923,0.01461 -0.06881,-0.01461 -0.09804,0 -0.04134,0.02067 -0.0567,0.07737 -0.09804,0.09804 -0.02923,0.01461 -0.07493,-0.02311 -0.09804,0 -0.02311,0.02311 0.02311,0.07493 0,0.09804 -0.02311,0.02311 -0.06881,-0.01462 -0.09804,0 -0.04134,0.02067 -0.0567,0.07737 -0.09804,0.09804 -0.02923,0.01461 -0.07493,-0.02311 -0.09804,0 -0.02311,0.02311 0.02311,0.07493 0,0.09804 -0.02311,0.02311 -0.07493,-0.02311 -0.09804,0 -0.02311,0.02311 0.02311,0.07493 0,0.09804 -0.02311,0.02311 -0.07493,-0.02311 -0.09804,0 -0.04622,0.04622 0.04622,0.149863 0,0.196079 -0.04622,0.04622 -0.137619,-0.02923 -0.196078,0 -0.04134,0.02067 -0.0567,0.07737 -0.09804,0.09804 -0.02923,0.01462 -0.07085,-0.01813 -0.09804,0 -0.06536,0.06536 -0.130719,0.130719 -0.196079,0.196078 0,0.03268 0.02311,0.07493 0,0.09804 -0.04622,0.04622 -0.149862,-0.04622 -0.196078,0 -0.202847,0.202846 0.309976,-0.0079 -0.09804,0.196078 -0.174291,0.08715 -0.05447,-0.05447 -0.09804,-0.09804 -0.02311,-0.02311 -0.06536,0 -0.09804,0 -0.03268,0 -0.07493,-0.02311 -0.09804,0 -0.02311,0.02311 0.02311,0.07493 0,0.09804 -0.02004,0.02004 -0.255246,-0.01944 -0.294118,0 -0.117647,0.05882 -0.17647,0.235294 -0.294117,0.294118 -0.05846,0.02923 -0.13762,-0.02923 -0.196079,0 -0.325155,0.325155 0.09243,-0.04622 -0.196078,0.09804 -0.408016,0.204008 0.104807,-0.0068 -0.09804,0.196078 -0.02311,0.02311 -0.06881,-0.01461 -0.09804,0 -0.08267,0.04134 -0.113404,0.154742 -0.196078,0.196079 -0.02923,0.01461 -0.07493,-0.02311 -0.09804,0 -0.02311,0.02311 0.02311,0.07493 0,0.09804 -0.02311,0.02311 -0.07493,-0.02311 -0.09804,0 -0.02311,0.02311 0,0.06536 0,0.09804 -0.03268,0 -0.07493,-0.02311 -0.09804,0 -0.202846,0.202847 0.309977,-0.0079 -0.09804,0.196079 -0.02923,0.01461 -0.06536,0 -0.09804,0 -0.03268,0.03268 -0.0567,0.07737 -0.09804,0.09804 -0.02923,0.01461 -0.07493,-0.02311 -0.09804,0 -0.02311,0.02311 0.02311,0.07493 0,0.09804 -0.02311,0.02311 -0.07493,-0.02311 -0.09804,0 -0.02311,0.02311 0.02311,0.07493 0,0.09804 -0.02311,0.02311 -0.07493,-0.02311 -0.09804,0 -0.02311,0.02311 0.01461,0.06881 0,0.09804 -0.02067,0.04134 -0.07737,0.0567 -0.09804,0.09804 -0.01462,0.02923 0.02311,0.07493 0,0.09804 -0.04622,0.04622 -0.149863,-0.04622 -0.196079,0 -0.02311,0.02311 0.01461,0.06881 0,0.09804 -0.204008,0.408016 0.0068,-0.104807 -0.196078,0.09804 -0.02311,0.02311 0.02311,0.07493 0,0.09804 -0.02311,0.02311 -0.07493,-0.02311 -0.09804,0 -0.163935,0.163934 0.163934,0.03214 0,0.196078 -0.02311,0.02311 -0.06881,-0.01461 -0.09804,0 -0.408015,0.204008 0.104808,-0.0068 -0.09804,0.196078 -0.02311,0.02311 -0.07493,-0.02311 -0.09804,0 -0.04622,0.04622 0.02923,0.13762 0,0.196079 -0.204008,0.408016 0.0068,-0.104808 -0.196079,0.09804 -0.02311,0.02311 0.02311,0.07493 0,0.09804 -0.02311,0.02311 -0.07493,-0.02311 -0.09804,0 -0.02311,0.02311 0.02311,0.07493 0,0.09804 -0.02311,0.02311 -0.07493,-0.02311 -0.09804,0 -0.02311,0.02311 0.01462,0.06881 0,0.09804 -0.02067,0.04134 -0.07737,0.0567 -0.09804,0.09804 -0.01461,0.02923 0.02311,0.07493 0,0.09804 -0.02311,0.02311 -0.07493,-0.02311 -0.09804,0 -0.04622,0.04622 0.04622,0.149862 0,0.196079 -0.202847,0.202846 0.0079,-0.309977 -0.196079,0.09804 -0.05246,0.104918 0.05246,0.09116 0,0.196078 -0.02067,0.04134 -0.07737,0.0567 -0.09804,0.09804 -0.01462,0.02923 0.01461,0.06881 0,0.09804 -0.02067,0.04134 -0.07737,0.0567 -0.09804,0.09804 -0.02923,0.05846 0.02923,0.137619 0,0.196078 -0.02067,0.04134 -0.07737,0.0567 -0.09804,0.09804 -0.01462,0.02923 0.01461,0.06881 0,0.09804 -0.02067,0.04134 -0.07737,0.0567 -0.09804,0.09804 -0.01461,0.02923 0.02311,0.07493 0,0.09804 -0.02311,0.02311 -0.07493,-0.02311 -0.09804,0 -0.04622,0.04622 0.02923,0.137619 0,0.196079 -0.02067,0.04134 -0.07737,0.0567 -0.09804,0.09804 -0.03922,0.07843 0.03922,0.215686 0,0.294117 -0.02067,0.04134 -0.07737,0.0567 -0.09804,0.09804 -0.02923,0.05846 0.02923,0.137619 0,0.196078 -0.02067,0.04134 -0.07737,0.0567 -0.09804,0.09804 -0.01461,0.02923 0.02311,0.07493 0,0.09804 -0.02311,0.02311 -0.07493,-0.02311 -0.09804,0 -0.02311,0.02311 0.01461,0.06881 0,0.09804 -0.02067,0.04134 -0.07737,0.0567 -0.09804,0.09804 -0.01461,0.02923 0.01461,0.06881 0,0.09804 -0.02067,0.04134 -0.07737,0.0567 -0.09804,0.09804 -0.03922,0.07843 0.03922,0.215687 0,0.294118 -0.02067,0.04134 -0.07737,0.0567 -0.09804,0.09804 -0.03922,0.07843 0.03922,0.215687 0,0.294118 -0.02067,0.04134 -0.07737,0.0567 -0.09804,0.09804 -0.01461,0.02923 0.01462,0.06881 0,0.09804 -0.02067,0.04134 -0.07737,0.0567 -0.09804,0.09804 -0.02923,0.05846 0.04622,0.149862 0,0.196078 -0.02311,0.02311 -0.07493,-0.02311 -0.09804,0 -0.04622,0.04622 0.04622,0.149862 0,0.196078 -0.02311,0.02311 -0.07493,-0.02311 -0.09804,0 -0.02311,0.02311 0.01462,0.06881 0,0.09804 -0.02067,0.04134 -0.07737,0.0567 -0.09804,0.09804 -0.01461,0.02923 0.02311,0.07493 0,0.09804 -0.02311,0.02311 -0.07493,-0.02311 -0.09804,0 -0.04902,0.04902 0.04902,0.245098 0,0.294118 -0.04622,0.04622 -0.149862,-0.04622 -0.196078,0 -0.02311,0.02311 0.02311,0.07493 0,0.09804 -0.02311,0.02311 -0.07493,-0.02311 -0.09804,0 -0.02311,0.02311 0.02311,0.07493 0,0.09804 -0.04622,0.04622 -0.149863,-0.04622 -0.196079,0 -0.02311,0.02311 0.01461,0.06881 0,0.09804 -0.02067,0.04134 -0.07737,0.0567 -0.09804,0.09804 -0.01461,0.02923 0.02311,0.07493 0,0.09804 -0.04622,0.04622 -0.149862,-0.04622 -0.196078,0 -0.02311,0.02311 0.02311,0.07493 0,0.09804 -0.02311,0.02311 -0.06881,-0.01461 -0.09804,0 -0.04134,0.02067 -0.0567,0.07737 -0.09804,0.09804 -0.02923,0.01461 -0.07493,-0.02311 -0.09804,0 -0.04622,0.04622 0.04622,0.149863 0,0.196079 -0.02311,0.02311 -0.07493,-0.02311 -0.09804,0 -0.202847,0.202846 0.309976,-0.0079 -0.09804,0.196078 -0.05846,0.02923 -0.137619,-0.02923 -0.196078,0 -0.04134,0.02067 -0.06536,0.06536 -0.09804,0.09804 -0.03268,0.03268 -0.07737,0.0567 -0.09804,0.09804 -0.01462,0.02923 0.02311,0.07493 0,0.09804 -0.02311,0.02311 -0.07493,-0.02311 -0.09804,0 -0.02311,0.02311 0.02311,0.07493 0,0.09804 -0.02311,0.02311 -0.06881,-0.01461 -0.09804,0 -0.325155,0.325155 0.09243,-0.04622 -0.196078,0.09804 -0.04134,0.02067 -0.0567,0.07737 -0.09804,0.09804 -0.02923,0.01461 -0.07493,-0.02311 -0.09804,0 -0.163934,0.163935 0.163935,0.03214 0,0.196079 -0.02311,0.02311 -0.06881,-0.01461 -0.09804,0 -0.117647,0.05882 -0.17647,0.235294 -0.294118,0.294117 -0.02923,0.01461 -0.06881,-0.01461 -0.09804,0 -0.21677,0.108385 -0.03042,0.06085 -0.09804,0.196079 -0.02067,0.04134 -0.06536,0.06536 -0.09804,0.09804 -0.03268,0.03268 -0.0567,0.07737 -0.09804,0.09804 -0.05846,0.02923 -0.149863,-0.04622 -0.196079,0 -0.04622,0.04622 0.02923,0.137619 0,0.196079 -0.204008,0.408015 0.0068,-0.104808 -0.196078,0.09804 -0.02311,0.02311 0.01461,0.06881 0,0.09804 -0.108385,0.21677 -0.06085,0.03042 -0.196079,0.09804 -0.408015,0.204008 0.104808,-0.0068 -0.09804,0.196079 -0.02311,0.02311 -0.07493,-0.02311 -0.09804,0 -0.02311,0.02311 0.02311,0.07493 0,0.09804 -0.02311,0.02311 -0.07493,-0.02311 -0.09804,0 -0.02311,0.02311 0.01461,0.06881 0,0.09804 -0.02067,0.04134 -0.07737,0.0567 -0.09804,0.09804 -0.01461,0.02923 0.01461,0.06881 0,0.09804 -0.204007,0.408015 0.0068,-0.104808 -0.196078,0.09804 -0.02311,0.02311 0.02311,0.07493 0,0.09804 -0.02311,0.02311 -0.07493,-0.02311 -0.09804,0 -0.02311,0.02311 0.02311,0.07493 0,0.09804 -0.202847,0.202847 0.0079,-0.309976 -0.196079,0.09804 -0.02923,0.05846 0.04622,0.149862 0,0.196078 -0.02311,0.02311 -0.07493,-0.02311 -0.09804,0 -0.02311,0.02311 0,0.06536 0,0.09804 -0.03268,0 -0.07493,-0.02311 -0.09804,0 -0.02311,0.02311 0.02311,0.07493 0,0.09804 -0.02311,0.02311 -0.07493,-0.02311 -0.09804,0 -0.02311,0.02311 0.02311,0.07493 0,0.09804 -0.02311,0.02311 -0.06881,-0.01461 -0.09804,0 -0.04134,0.02067 -0.06536,0.06536 -0.09804,0.09804 -0.03268,0.03268 -0.07737,0.0567 -0.09804,0.09804 -0.02923,0.05846 0.04622,0.149862 0,0.196078 -0.02311,0.02311 -0.07493,-0.02311 -0.09804,0 -0.202847,0.202847 0.309976,-0.0079 -0.09804,0.196079 -0.05846,0.02923 -0.149863,-0.04622 -0.196079,0 -0.02311,0.02311 0.02311,0.07493 0,0.09804 -0.02311,0.02311 -0.07493,-0.02311 -0.09804,0 -0.163934,0.163935 0.163934,0.03214 0,0.196079 -0.02311,0.02311 -0.07493,-0.02311 -0.09804,0 -0.09836,0.09836 0.09836,0.09772 0,0.196078 -0.02311,0.02311 -0.06536,0 -0.09804,0 0,0.03268 0.02311,0.07493 0,0.09804 -0.04622,0.04622 -0.149863,-0.04622 -0.196079,0 -0.202846,0.202847 0.309977,-0.0079 -0.09804,0.196079 -0.02923,0.01461 -0.07493,-0.02311 -0.09804,0 -0.02311,0.02311 0.01462,0.06881 0,0.09804 -0.02067,0.04134 -0.07737,0.0567 -0.09804,0.09804 -0.01461,0.02923 0.01461,0.06881 0,0.09804 -0.108385,0.21677 -0.06085,0.03042 -0.196078,0.09804 -0.02603,0.01301 -0.281102,0.268087 -0.294118,0.294117 -0.01461,0.02923 0.02311,0.07493 0,0.09804 -0.02311,0.02311 -0.07493,-0.02311 -0.09804,0 -0.02311,0.02311 0.01461,0.06881 0,0.09804 -0.05882,0.117647 -0.235294,0.17647 -0.294117,0.294117 -0.01461,0.02923 0.02311,0.07493 0,0.09804 -0.202847,0.202847 0.0079,-0.309976 -0.196079,0.09804 0,0.261438 0.03268,-0.03268 -0.09804,0.09804 -0.02311,0.02311 0.02311,0.07493 0,0.09804 -0.02311,0.02311 -0.07493,-0.02311 -0.09804,0 -0.02311,0.02311 0.02311,0.07493 0,0.09804 -0.02311,0.02311 -0.07493,-0.02311 -0.09804,0 -0.02311,0.02311 0.01462,0.06881 0,0.09804 -0.04134,0.08267 -0.154741,0.113404 -0.196078,0.196078 -0.01461,0.02923 0.02311,0.07493 0,0.09804 -0.02311,0.02311 -0.07493,-0.02311 -0.09804,0 -0.02311,0.02311 0.02311,0.07493 0,0.09804 -0.02311,0.02311 -0.07493,-0.02311 -0.09804,0 -0.02311,0.02311 0.01461,0.06881 0,0.09804 -0.05217,0.104347 -0.143905,0.09173 -0.196079,0.196078 -0.01462,0.02923 0.02311,0.07493 0,0.09804 -0.02311,0.02311 -0.07493,-0.02311 -0.09804,0 -0.02311,0.02311 0.02311,0.07493 0,0.09804 -0.04622,0.04622 -0.149862,-0.04622 -0.196078,0 -0.02311,0.02311 0.01461,0.06881 0,0.09804 -0.02067,0.04134 -0.07737,0.0567 -0.09804,0.09804 -0.01461,0.02923 0.02311,0.07493 0,0.09804 -0.02311,0.02311 -0.06881,-0.01462 -0.09804,0 -0.408016,0.204008 0.104808,-0.0068 -0.09804,0.196079 -0.02311,0.02311 -0.07493,-0.02311 -0.09804,0 -0.02311,0.02311 0.02311,0.07493 0,0.09804 -0.202847,0.202846 0.0079,-0.309977 -0.196079,0.09804 -0.01461,0.02923 0,0.06536 0,0.09804 -0.03268,0.03268 -0.07737,0.0567 -0.09804,0.09804 -0.01461,0.02923 0.01461,0.06881 0,0.09804 -0.108385,0.21677 -0.06085,0.03042 -0.196078,0.09804 -0.408016,0.204008 0.104807,-0.0068 -0.09804,0.196078 -0.202846,0.202847 0.0079,-0.309976 -0.196078,0.09804 -0.02923,0.05846 0.04622,0.149863 0,0.196079 -0.04622,0.04622 -0.149862,-0.04622 -0.196078,0 -0.02311,0.02311 0.02311,0.07493 0,0.09804 -0.04902,0.04902 -0.245099,-0.04902 -0.294118,0 -0.02311,0.02311 0.02311,0.07493 0,0.09804 -0.02311,0.02311 -0.07493,-0.02311 -0.09804,0 -0.04622,0.04622 0.02923,0.137619 0,0.196079 -0.02067,0.04134 -0.07737,0.0567 -0.09804,0.09804 -0.01461,0.02923 0.02311,0.07493 0,0.09804 -0.02311,0.02311 -0.06536,0 -0.09804,0 -0.03268,0 -0.06536,0 -0.09804,0 -0.03268,0 -0.06536,0 -0.09804,0 -0.03268,0 -0.07493,-0.02311 -0.09804,0 -0.02311,0.02311 0.02311,0.07493 0,0.09804 -0.04622,0.04622 -0.149863,-0.04622 -0.196079,0 -0.04902,0.04902 0.04902,0.245098 0,0.294118 -0.02311,0.02311 -0.06881,-0.01461 -0.09804,0 -0.04134,0.02067 -0.0567,0.07737 -0.09804,0.09804 -0.02923,0.01461 -0.06881,-0.01461 -0.09804,0 -0.408015,0.204008 0.104808,-0.0068 -0.09804,0.196079 -0.02311,0.02311 -0.07493,-0.02311 -0.09804,0 -0.02311,0.02311 0.02311,0.07493 0,0.09804 -0.02311,0.02311 -0.07493,-0.02311 -0.09804,0 -0.02311,0.02311 0.02311,0.07493 0,0.09804 -0.02311,0.02311 -0.06881,-0.01461 -0.09804,0 -0.408016,0.204008 0.104807,-0.0068 -0.09804,0.196079 -0.202846,0.202846 0.0079,-0.309977 -0.196078,0.09804 -0.02923,0.05846 0.02923,0.137619 0,0.196078 -0.02067,0.04134 -0.06536,0.06536 -0.09804,0.09804 -0.03268,0.03268 -0.0567,0.07737 -0.09804,0.09804 -0.02923,0.01461 -0.06881,-0.01461 -0.09804,0 -0.04134,0.02067 -0.0567,0.07737 -0.09804,0.09804 -0.03887,0.01944 -0.274075,-0.02004 -0.294118,0 -0.02311,0.02311 0,0.06536 0,0.09804 -0.03268,0 -0.06881,-0.01461 -0.09804,0 -0.121147,0.06057 -0.09804,0.09466 -0.09804,0.196079 0,0.03268 -0.01462,0.06881 0,0.09804 0.03986,0.07972 0.155519,0.08112 0.09804,0.196078 -0.204008,0.408016 0.0068,-0.104807 -0.196078,0.09804 -0.02311,0.02311 0.02311,0.07493 0,0.09804 -0.02311,0.02311 -0.06881,-0.01461 -0.09804,0 -0.408016,0.204007 0.104807,-0.0068 -0.09804,0.196078 -0.02311,0.02311 -0.07493,-0.02311 -0.09804,0 -0.04622,0.04622 0.04622,0.149862 0,0.196078 -0.02311,0.02311 -0.07493,-0.02311 -0.09804,0 -0.02311,0.02311 0.02311,0.07493 0,0.09804 -0.04622,0.04622 -0.149862,-0.04622 -0.196078,0 -0.02311,0.02311 0.01461,0.06881 0,0.09804 -0.04134,0.08267 -0.154742,0.113404 -0.196079,0.196078 -0.01462,0.02923 0.02311,0.07493 0,0.09804 -0.02311,0.02311 -0.07493,-0.02311 -0.09804,0 -0.04622,0.04622 0.04622,0.149862 0,0.196078 -0.04622,0.04622 -0.149862,-0.04622 -0.196079,0 -0.02311,0.02311 0.01462,0.06881 0,0.09804 -0.04134,0.08267 -0.154741,0.113405 -0.196078,0.196079 -0.01461,0.02923 0.02311,0.07493 0,0.09804 -0.02311,0.02311 -0.07493,-0.02311 -0.09804,0 -0.02311,0.02311 0.02311,0.07493 0,0.09804 -0.02311,0.02311 -0.06881,-0.01461 -0.09804,0 -0.04134,0.02067 -0.0567,0.07737 -0.09804,0.09804 -0.02923,0.01461 -0.09804,0.03268 -0.09804,0 0,-0.03268 0.09804,-0.03268 0.09804,0 0,0.03268 -0.07493,-0.02311 -0.09804,0 -0.02311,0.02311 0,0.06536 0,0.09804 -0.03268,0 -0.06881,-0.01461 -0.09804,0 -0.408016,0.204008 0.104807,-0.0068 -0.09804,0.196079 -0.02311,0.02311 -0.07493,-0.02311 -0.09804,0 -0.02311,0.02311 0.02311,0.07493 0,0.09804 -0.02311,0.02311 -0.06881,-0.01461 -0.09804,0 -0.04134,0.02067 -0.0567,0.07737 -0.09804,0.09804 -0.02923,0.01461 -0.06881,-0.01461 -0.09804,0 -0.04134,0.02067 -0.0567,0.07737 -0.09804,0.09804 -0.02923,0.01461 -0.07493,-0.02311 -0.09804,0 -0.02311,0.02311 0.02311,0.07493 0,0.09804 -0.02311,0.02311 -0.07493,-0.02311 -0.09804,0 -0.02311,0.02311 0.02311,0.07493 0,0.09804 -0.02311,0.02311 -0.07493,-0.02311 -0.09804,0 -0.023108,0.02311 0.02311,0.07493 0,0.09804 -0.046216,0.04622 -0.1498623,-0.04622 -0.1960784,0 -0.023591,0.02359 0.023591,0.368566 0,0.392157 -0.2028467,0.202847 0.00793,-0.309976 -0.1960785,0.09804 -0.02923,0.05846 0.046216,0.149863 0,0.196079 -0.023108,0.02311 -0.06881,-0.01461 -0.098039,0 -0.041337,0.02067 -0.056702,0.07737 -0.098039,0.09804 -0.038872,0.01944 -0.2740749,-0.02004 -0.2941176,0 -0.023108,0.02311 0.023108,0.07493 0,0.09804 -0.023108,0.02311 -0.06881,-0.01461 -0.098039,0 -0.041337,0.02067 -0.056702,0.07737 -0.098039,0.09804 -0.02923,0.01461 -0.074931,-0.02311 -0.098039,0 -0.023108,0.02311 0.023108,0.07493 0,0.09804 -0.023108,0.02311 -0.074931,-0.02311 -0.098039,0 -0.023108,0.02311 0.023108,0.07493 0,0.09804 -0.2028466,0.202846 0.00793,-0.309977 -0.1960784,0.09804 -0.014615,0.02923 0.023108,0.07493 0,0.09804 -0.046216,0.04622 -0.1498623,-0.04622 -0.1960785,0 -0.023108,0.02311 0.023108,0.07493 0,0.09804 -0.023108,0.02311 -0.074931,-0.02311 -0.098039,0 -0.066601,0.0666 0.1002432,0.194977 -0.098039,0.294118 -0.1918887,0.09594 -0.049857,-0.147897 -0.098039,-0.196078 -0.023108,-0.02311 -0.074931,-0.02311 -0.098039,0 -0.046216,0.04622 0.046216,0.149862 0,0.196078 -0.2028467,0.202847 0.00793,-0.309976 -0.1960785,0.09804 -0.014615,0.02923 0.023108,0.07493 0,0.09804 -0.046216,0.04622 -0.1498623,-0.04622 -0.1960784,0 -0.046216,0.04622 0.046216,0.149862 0,0.196078 -0.023108,0.02311 -0.074931,-0.02311 -0.098039,0 -0.065217,0.06522 0.065217,0.130861 0,0.196078 -0.023108,0.02311 -0.074931,-0.02311 -0.098039,0 -0.046216,0.04622 0.02923,0.13762 0,0.196079 -0.020669,0.04134 -0.077371,0.0567 -0.098039,0.09804 -0.014615,0.02923 0.014615,0.06881 0,0.09804 -0.041337,0.08267 -0.1547415,0.113405 -0.1960785,0.196079 -0.014615,0.02923 0.014615,0.06881 0,0.09804 -0.2040078,0.408016 0.00677,-0.104808 -0.1960784,0.09804 -0.023108,0.02311 0.014615,0.06881 0,0.09804 -0.3251551,0.325155 0.046216,-0.09243 -0.098039,0.196079 -0.2040079,0.408015 0.00677,-0.104808 -0.1960784,0.09804 -0.023108,0.02311 0.023108,0.07493 0,0.09804 -0.023108,0.02311 -0.06881,-0.01461 -0.098039,0 -0.041337,0.02067 -0.065359,0.06536 -0.098039,0.09804 -0.03268,0.03268 -0.077371,0.0567 -0.098039,0.09804 -0.014615,0.02923 0.023108,0.07493 0,0.09804 -0.023108,0.02311 -0.074931,-0.02311 -0.098039,0 -0.046216,0.04622 0.02923,0.137619 0,0.196078 -0.2040079,0.408016 0.00677,-0.104807 -0.1960784,0.09804 -0.023108,0.02311 0.023108,0.07493 0,0.09804 -0.023108,0.02311 -0.074931,-0.02311 -0.098039,0 -0.023108,0.02311 0.014615,0.06881 0,0.09804 -0.041337,0.08267 -0.1547414,0.113404 -0.1960784,0.196078 -0.02923,0.05846 0.046216,0.149863 0,0.196079 -0.023108,0.02311 -0.074931,-0.02311 -0.098039,0 -0.023108,0.02311 0.014615,0.06881 0,0.09804 -0.020669,0.04134 -0.077371,0.0567 -0.098039,0.09804 -0.014615,0.02923 0.023108,0.07493 0,0.09804 -0.023108,0.02311 -0.06881,-0.01461 -0.098039,0 -0.4080158,0.204008 0.1048074,-0.0068 -0.098039,0.196079 -0.023108,0.02311 -0.074931,-0.02311 -0.098039,0 -0.023108,0.02311 0.023108,0.07493 0,0.09804 -0.023108,0.02311 -0.06881,-0.01461 -0.098039,0 -0.041337,0.02067 -0.056702,0.07737 -0.098039,0.09804 -0.02923,0.01461 -0.074931,-0.02311 -0.098039,0 -0.046216,0.04622 0.046216,0.149863 0,0.196079 -0.023108,0.02311 -0.074931,-0.02311 -0.098039,0 -0.023108,0.02311 0.023108,0.07493 0,0.09804 -0.046216,0.04622 -0.1498623,-0.04622 -0.1960785,0 -0.023108,0.02311 0.023108,0.07493 0,0.09804 -0.023108,0.02311 -0.074931,-0.02311 -0.098039,0 -0.023108,0.02311 0.023108,0.07493 0,0.09804 -0.023591,0.02359 -0.3685656,-0.02359 -0.3921568,0 -0.023108,0.02311 0.023108,0.07493 0,0.09804 -0.023108,0.02311 -0.06536,0 -0.098039,0 0,0.03268 0.023108,0.07493 0,0.09804 -0.023108,0.02311 -0.074931,-0.02311 -0.098039,0 -0.023108,0.02311 0.023108,0.07493 0,0.09804 -0.023108,0.02311 -0.074931,-0.02311 -0.098039,0 -0.023108,0.02311 0.023108,0.07493 0,0.09804 -0.023108,0.02311 -0.074931,-0.02311 -0.098039,0 -0.023108,0.02311 0.023108,0.07493 0,0.09804 -0.04902,0.04902 -0.245098,-0.04902 -0.2941177,0 -0.023108,0.02311 0,0.06536 0,0.09804 -0.03268,0 -0.074931,-0.02311 -0.098039,0 -0.046216,0.04622 0.046216,0.149862 0,0.196078 -0.023108,0.02311 -0.074931,-0.02311 -0.098039,0 -0.023108,0.02311 0.023108,0.07493 0,0.09804 -0.023108,0.02311 -0.074931,-0.02311 -0.098039,0 -0.023108,0.02311 0.023108,0.07493 0,0.09804 -0.023108,0.02311 -0.074931,-0.02311 -0.098039,0 -0.023108,0.02311 0.023108,0.07493 0,0.09804 -0.2028466,0.202846 0.00793,-0.309977 -0.1960784,0.09804 -0.014615,0.02923 0.014615,0.06881 0,0.09804 -0.020668,0.04134 -0.077371,0.0567 -0.098039,0.09804 -0.014615,0.02923 0.023108,0.07493 0,0.09804 -0.023108,0.02311 -0.074931,-0.02311 -0.098039,0 -0.023108,0.02311 0.023108,0.07493 0,0.09804 -0.023108,0.02311 -0.074931,-0.02311 -0.098039,0 -0.023108,0.02311 0.023108,0.07493 0,0.09804 -0.023108,0.02311 -0.074931,-0.02311 -0.098039,0 -0.023108,0.02311 0.023108,0.07493 0,0.09804 -0.2028466,0.202847 0.00793,-0.309976 -0.1960784,0.09804 -0.02923,0.05846 0.046216,0.149863 0,0.196079 -0.023108,0.02311 -0.074931,-0.02311 -0.098039,0 -0.1307189,0.130719 0.1633987,0.09804 -0.098039,0.09804"
       id="path3132"
       inkscape:connector-curvature="0"
       transform="translate(0,972.3622)" />
    <path
       style="opacity:0.8;color:#000000;fill:none;stroke:#bf0000;stroke-width:1;stroke-linecap:round;stroke-linejoin:round;stroke-miterlimit:4;stroke-opacity:1;stroke-dasharray:none;stroke-dashoffset:0;marker:none;visibility:visible;display:inline;overflow:visible;enable-background:accumulate"
       d="m 63.431373,16.372549 c -0.130719,0.03268 -0.359478,0.228758 -0.392157,0.09804 -0.03268,-0.130719 -0.983154,2.257664 -1.078431,2.35294 -0.124441,0.124441 1.137798,-2.333605 0.980391,-2.254902 -0.04134,0.02067 -0.0567,0.07737 -0.09804,0.09804 -0.02923,0.01461 -0.07493,-0.02311 -0.09804,0 -0.02311,0.02311 0.02311,0.07493 0,0.09804 -0.02311,0.02311 -0.07493,-0.02311 -0.09804,0 -0.02311,0.02311 0.02311,0.07493 0,0.09804 -0.02311,0.02311 -0.06536,0 -0.09804,0 -0.03268,0 -0.07493,-0.02311 -0.09804,0 -0.02311,0.02311 0.02311,0.07493 0,0.09804 -0.02311,0.02311 -0.07493,-0.02311 -0.09804,0 -0.04622,0.04622 0.04622,0.149863 0,0.196079 -0.04902,0.04902 -0.245098,-0.04902 -0.294117,0 -0.02311,0.02311 0.02311,0.07493 0,0.09804 -0.02311,0.02311 -0.07493,-0.02311 -0.09804,0 -0.02311,0.02311 0.02311,0.07493 0,0.09804 -0.02311,0.02311 -0.07493,-0.02311 -0.09804,0 -0.02311,0.02311 0.02311,0.07493 0,0.09804 -0.02311,0.02311 -0.07493,-0.02311 -0.09804,0 -0.04622,0.04622 0.04622,0.149863 0,0.196079 -0.02311,0.02311 -0.07493,-0.02311 -0.09804,0 -0.02311,0.02311 0.02311,0.07493 0,0.09804 -0.04622,0.04622 -0.137619,-0.02923 -0.196079,0 -0.08267,0.04134 -0.113404,0.154742 -0.196078,0.196078 -0.02923,0.01462 -0.07493,-0.02311 -0.09804,0 -0.261581,0.261581 0.26158,-0.0655 0,0.196079 -0.02311,0.02311 -0.07493,-0.02311 -0.09804,0 -0.02311,0.02311 0.02311,0.07493 0,0.09804 -0.261438,0 0.03268,-0.03268 -0.09804,0.09804 -0.04902,0.04902 -0.245098,-0.04902 -0.294117,0 -0.02311,0.02311 0.02311,0.07493 0,0.09804 -0.02311,0.02311 -0.07493,-0.02311 -0.09804,0 -0.202846,0.202846 0.309977,-0.0079 -0.09804,0.196078 -0.02923,0.01461 -0.07493,-0.02311 -0.09804,0 -0.202847,0.202847 0.309976,-0.0079 -0.09804,0.196078 -0.02923,0.01461 -0.07493,-0.02311 -0.09804,0 -0.02311,0.02311 0.02311,0.07493 0,0.09804 -0.04622,0.04622 -0.149862,-0.04622 -0.196078,0 -0.04622,0.04622 0.02923,0.137619 0,0.196078 -0.02067,0.04134 -0.06536,0.06536 -0.09804,0.09804 -0.03268,0.03268 -0.0567,0.07737 -0.09804,0.09804 -0.02923,0.01461 -0.07493,-0.02311 -0.09804,0 -0.02311,0.02311 0.02311,0.07493 0,0.09804 -0.02311,0.02311 -0.07493,-0.02311 -0.09804,0 -0.02311,0.02311 0.02311,0.07493 0,0.09804 -0.26158,0.26158 0.0655,-0.26158 -0.196078,0 -0.02311,0.02311 0.01461,0.06881 0,0.09804 -0.204008,0.408016 0.0068,-0.104807 -0.196079,0.09804 -0.202846,0.202847 0.309977,-0.0079 -0.09804,0.196079 -0.261438,0 0.03268,-0.03268 -0.09804,0.09804 -0.02311,0.02311 -0.07493,-0.02311 -0.09804,0 -0.02311,0.02311 0.02311,0.07493 0,0.09804 -0.02311,0.02311 -0.07493,-0.02311 -0.09804,0 -0.02311,0.02311 0.02311,0.07493 0,0.09804 -0.02311,0.02311 -0.07493,-0.02311 -0.09804,0 -0.02311,0.02311 0.01461,0.06881 0,0.09804 -0.04134,0.08267 -0.154741,0.113404 -0.196078,0.196078 -0.01461,0.02923 0.02311,0.07493 0,0.09804 -0.02311,0.02311 -0.06881,-0.01462 -0.09804,0 -0.216771,0.108385 -0.03042,0.06085 -0.09804,0.196079 -0.204008,0.408015 0.0068,-0.104808 -0.196078,0.09804 -0.02311,0.02311 0.02311,0.07493 0,0.09804 -0.02311,0.02311 -0.07493,-0.02311 -0.09804,0 -0.02311,0.02311 0.02311,0.07493 0,0.09804 -0.02311,0.02311 -0.07493,-0.02311 -0.09804,0 -0.02311,0.02311 0.02311,0.07493 0,0.09804 -0.04622,0.04622 -0.149862,-0.04622 -0.196078,0 -0.04622,0.04622 0.02923,0.137619 0,0.196078 -0.204008,0.408016 0.0068,-0.104807 -0.196078,0.09804 -0.02311,0.02311 0.02311,0.07493 0,0.09804 -0.02311,0.02311 -0.07493,-0.02311 -0.09804,0 -0.02311,0.02311 0.02311,0.07493 0,0.09804 -0.02311,0.02311 -0.07493,-0.02311 -0.09804,0 -0.02311,0.02311 0.02311,0.07493 0,0.09804 -0.04622,0.04622 -0.149862,-0.04622 -0.196078,0 -0.04622,0.04622 0.04622,0.149862 0,0.196078 -0.02311,0.02311 -0.06536,0 -0.09804,0 0,0.03268 0.01461,0.06881 0,0.09804 -0.02067,0.04134 -0.06536,0.06536 -0.09804,0.09804 -0.03268,0.03268 -0.0567,0.07737 -0.09804,0.09804 -0.05846,0.02923 -0.149862,-0.04622 -0.196078,0 -0.02311,0.02311 0.02311,0.07493 0,0.09804 -0.02311,0.02311 -0.06881,-0.01462 -0.09804,0 -0.04134,0.02067 -0.06536,0.06536 -0.09804,0.09804 -0.03268,0.03268 -0.07737,0.0567 -0.09804,0.09804 -0.01461,0.02923 0.01461,0.06881 0,0.09804 -0.204008,0.408016 0.0068,-0.104808 -0.196078,0.09804 -0.02311,0.02311 0.02311,0.07493 0,0.09804 -0.02311,0.02311 -0.07493,-0.02311 -0.09804,0 -0.04622,0.04622 0.02923,0.137619 0,0.196079 -0.04134,0.08267 -0.154741,0.113404 -0.196078,0.196078 -0.01461,0.02923 0.01461,0.06881 0,0.09804 -0.102332,0.204665 -0.289825,-0.0086 -0.392157,0.196079 -0.01944,0.03887 0.02004,0.274075 0,0.294117 -0.02311,0.02311 -0.07493,-0.02311 -0.09804,0 -0.02311,0.02311 0.02311,0.07493 0,0.09804 -0.261438,0 0.03268,-0.03268 -0.09804,0.09804 -0.262295,0.262295 0.06622,-0.262295 -0.196079,0 -0.04622,0.04622 0.02923,0.137619 0,0.196078 -0.204008,0.408016 0.0068,-0.104807 -0.196078,0.09804 -0.04902,0.04902 0.04902,0.245099 0,0.294118 -0.02311,0.02311 -0.06881,-0.01461 -0.09804,0 -0.408016,0.204008 0.104807,-0.0068 -0.09804,0.196079 -0.02311,0.02311 -0.07493,-0.02311 -0.09804,0 -0.02311,0.02311 0.01461,0.06881 0,0.09804 -0.02067,0.04134 -0.07737,0.0567 -0.09804,0.09804 -0.01461,0.02923 0.02311,0.07493 0,0.09804 -0.02311,0.02311 -0.07493,-0.02311 -0.09804,0 -0.02311,0.02311 0.02311,0.07493 0,0.09804 -0.02311,0.02311 -0.07493,-0.02311 -0.09804,0 -0.04622,0.04622 0.02923,0.13762 0,0.196079 -0.04134,0.08267 -0.154741,0.113404 -0.196078,0.196078 -0.02923,0.05846 0.04622,0.149863 0,0.196079 -0.26158,0.26158 0.0655,-0.261581 -0.196078,0 -0.04622,0.04622 0.04622,0.149862 0,0.196078 -0.02311,0.02311 -0.07493,-0.02311 -0.09804,0 -0.02311,0.02311 0.01461,0.06881 0,0.09804 -0.02067,0.04134 -0.07737,0.0567 -0.09804,0.09804 -0.01461,0.02923 0.01461,0.06881 0,0.09804 -0.02067,0.04134 -0.07737,0.0567 -0.09804,0.09804 -0.01461,0.02923 0.02311,0.07493 0,0.09804 -0.02311,0.02311 -0.07493,-0.02311 -0.09804,0 -0.02311,0.02311 0.02311,0.07493 0,0.09804 -0.02311,0.02311 -0.07493,-0.02311 -0.09804,0 -0.04622,0.04622 0.04622,0.149863 0,0.196079 -0.02311,0.02311 -0.07493,-0.02311 -0.09804,0 -0.02311,0.02311 0.02311,0.07493 0,0.09804 -0.02311,0.02311 -0.07493,-0.02311 -0.09804,0 -0.02004,0.02004 0.01944,0.255246 0,0.294118 -0.04134,0.08267 -0.154741,0.113404 -0.196078,0.196078 -0.01462,0.02923 0.02311,0.07493 0,0.09804 -0.02311,0.02311 -0.07493,-0.02311 -0.09804,0 -0.02311,0.02311 0.02311,0.07493 0,0.09804 -0.02311,0.02311 -0.07493,-0.02311 -0.09804,0 -0.02311,0.02311 0.01461,0.06881 0,0.09804 -0.02067,0.04134 -0.07737,0.0567 -0.09804,0.09804 -0.01461,0.02923 0.01461,0.06881 0,0.09804 -0.02067,0.04134 -0.07737,0.0567 -0.09804,0.09804 -0.01461,0.02923 0.02311,0.07493 0,0.09804 -0.02311,0.02311 -0.07493,-0.02311 -0.09804,0 -0.02311,0.02311 0.02311,0.07493 0,0.09804 -0.02311,0.02311 -0.07493,-0.02311 -0.09804,0 -0.02311,0.02311 0.01461,0.06881 0,0.09804 -0.02067,0.04134 -0.07737,0.0567 -0.09804,0.09804 -0.01461,0.02923 0.02311,0.07493 0,0.09804 -0.02311,0.02311 -0.07493,-0.02311 -0.09804,0 -0.26158,0.26158 0.26158,-0.0655 0,0.196078 -0.04622,0.04622 -0.149862,-0.04622 -0.196078,0 -0.02004,0.02004 0.01944,0.255246 0,0.294118 -0.204008,0.408015 0.0068,-0.104808 -0.196079,0.09804 -0.02311,0.02311 0.02311,0.07493 0,0.09804 -0.02311,0.02311 -0.07493,-0.02311 -0.09804,0 -0.02311,0.02311 0.02311,0.07493 0,0.09804 -0.02311,0.02311 -0.07493,-0.02311 -0.09804,0 -0.04622,0.04622 0.04622,0.149863 0,0.196079 -0.02311,0.02311 -0.07493,-0.02311 -0.09804,0 -0.02311,0.02311 0.02311,0.07493 0,0.09804 -0.02311,0.02311 -0.07493,-0.02311 -0.09804,0 -0.02311,0.02311 0,0.06536 0,0.09804 0,0.03268 0.02311,0.07493 0,0.09804 -0.02311,0.02311 -0.07493,-0.02311 -0.09804,0 -0.02311,0.02311 0.02311,0.07493 0,0.09804 -0.02311,0.02311 -0.07493,-0.02311 -0.09804,0 -0.02311,0.02311 0.01461,0.06881 0,0.09804 -0.02067,0.04134 -0.07737,0.0567 -0.09804,0.09804 -0.01461,0.02923 0.02311,0.07493 0,0.09804 -0.02311,0.02311 -0.07493,-0.02311 -0.09804,0 0,0.261438 0.03268,-0.03268 -0.09804,0.09804 -0.02311,0.02311 0.02311,0.07493 0,0.09804 -0.02311,0.02311 -0.07493,-0.02311 -0.09804,0 -0.04622,0.04622 0.04622,0.149862 0,0.196078 -0.02311,0.02311 -0.07493,-0.02311 -0.09804,0 -0.04622,0.04622 0.04622,0.149862 0,0.196079 -0.261438,0 0.03268,-0.03268 -0.09804,0.09804 -0.02311,0.02311 -0.07493,-0.02311 -0.09804,0 -0.02311,0.02311 0.02311,0.07493 0,0.09804 -0.202846,0.202847 0.0079,-0.309977 -0.196078,0.09804 -0.02923,0.05846 0.02923,0.137619 0,0.196079 -0.204008,0.408015 0.0068,-0.104808 -0.196079,0.09804 -0.202846,0.202846 0.309977,-0.0079 -0.09804,0.196078 -0.261438,0 0.03268,-0.03268 -0.09804,0.09804 -0.02311,0.02311 -0.07493,-0.02311 -0.09804,0 -0.02311,0.02311 0.01461,0.06881 0,0.09804 -0.02067,0.04134 -0.07737,0.0567 -0.09804,0.09804 -0.02923,0.05846 0.02923,0.137619 0,0.196078 -0.108385,0.21677 -0.06085,0.03042 -0.196079,0.09804 -0.408016,0.204007 0.104808,-0.0068 -0.09804,0.196078 -0.02311,0.02311 -0.07493,-0.02311 -0.09804,0 -0.02311,0.02311 0.02311,0.07493 0,0.09804 -0.202847,0.202847 0.0079,-0.309976 -0.196079,0.09804 -0.02923,0.05846 0.04622,0.149863 0,0.196079 -0.04622,0.04622 -0.149862,-0.04622 -0.196078,0 -0.04622,0.04622 0.02923,0.137619 0,0.196078 -0.02067,0.04134 -0.07737,0.0567 -0.09804,0.09804 -0.01461,0.02923 0.02311,0.07493 0,0.09804 -0.02311,0.02311 -0.07493,-0.02311 -0.09804,0 -0.02311,0.02311 0.02311,0.07493 0,0.09804 -0.02311,0.02311 -0.07493,-0.02311 -0.09804,0 -0.02311,0.02311 0.02311,0.07493 0,0.09804 -0.02311,0.02311 -0.07493,-0.02311 -0.09804,0 -0.196721,0.196721 0.196721,-6.43e-4 0,0.196079 -0.02311,0.02311 -0.07493,-0.02311 -0.09804,0 -0.02311,0.02311 0.02311,0.07493 0,0.09804 -0.02311,0.02311 -0.06881,-0.01461 -0.09804,0 -0.08267,0.04134 -0.113405,0.154741 -0.196079,0.196078 -0.05846,0.02923 -0.149862,-0.04622 -0.196078,0 -0.02311,0.02311 0.02311,0.07493 0,0.09804 -0.02311,0.02311 -0.07493,-0.02311 -0.09804,0 -0.02311,0.02311 0.02311,0.07493 0,0.09804 -0.02311,0.02311 -0.06881,-0.01461 -0.09804,0 -0.117647,0.05882 -0.17647,0.235294 -0.294117,0.294117 -0.02923,0.01461 -0.07493,-0.02311 -0.09804,0 -0.02311,0.02311 0.02311,0.07493 0,0.09804 -0.04622,0.04622 -0.149862,-0.04622 -0.196078,0 -0.262295,0.262296 0.262295,-0.06622 0,0.196079 -0.02311,0.02311 -0.07493,-0.02311 -0.09804,0 -0.02311,0.02311 0.02311,0.07493 0,0.09804 -0.02311,0.02311 -0.07493,-0.02311 -0.09804,0 -0.02311,0.02311 0.02311,0.07493 0,0.09804 -0.02311,0.02311 -0.07493,-0.02311 -0.09804,0 -0.04622,0.04622 0.04622,0.149863 0,0.196079 -0.04902,0.04902 -0.245098,-0.04902 -0.294117,0 -0.02311,0.02311 0.02311,0.07493 0,0.09804 -0.02311,0.02311 -0.07493,-0.02311 -0.09804,0 -0.02311,0.02311 0.02311,0.07493 0,0.09804 -0.202846,0.202847 0.0079,-0.309976 -0.196078,0.09804 -0.01461,0.02923 0.02311,0.07493 0,0.09804 -0.02311,0.02311 -0.07493,-0.02311 -0.09804,0 -0.02311,0.02311 0.02311,0.07493 0,0.09804 -0.02004,0.02004 -0.255246,-0.01944 -0.294118,0 -0.09647,0.04824 -0.295683,0.34392 -0.392157,0.392157 -0.02923,0.01461 -0.06881,-0.01461 -0.09804,0 -0.08267,0.04134 -0.113404,0.154741 -0.196078,0.196078 -0.02923,0.01461 -0.07493,-0.02311 -0.09804,0 -0.02311,0.02311 0.02311,0.07493 0,0.09804 -0.04622,0.04622 -0.137619,-0.02923 -0.196078,0 -0.08267,0.04134 -0.113405,0.154742 -0.196078,0.196079 -0.02923,0.01461 -0.07493,-0.02311 -0.09804,0 -0.02311,0.02311 0.02311,0.07493 0,0.09804 -0.02311,0.02311 -0.06881,-0.01461 -0.09804,0 -0.04134,0.02067 -0.0567,0.07737 -0.09804,0.09804 -0.02923,0.01461 -0.07493,-0.02311 -0.09804,0 -0.02311,0.02311 0.02311,0.07493 0,0.09804 -0.04902,0.04902 -0.245098,-0.04902 -0.294118,0 -0.02311,0.02311 0.01461,0.06881 0,0.09804 -0.02067,0.04134 -0.06536,0.06536 -0.09804,0.09804 -0.03268,0.03268 -0.0567,0.07737 -0.09804,0.09804 -0.02923,0.01462 -0.07493,-0.02311 -0.09804,0 -0.02311,0.02311 0.02311,0.07493 0,0.09804 -0.02311,0.02311 -0.07493,-0.02311 -0.09804,0 -0.02311,0.02311 0.02311,0.07493 0,0.09804 -0.262295,0.262295 0.06622,-0.262296 -0.196078,0 -0.02311,0.02311 0.02311,0.07493 0,0.09804 -0.04622,0.04622 -0.149863,-0.04622 -0.196079,0 -0.202846,0.202846 0.309977,-0.0079 -0.09804,0.196078 -0.05846,0.02923 -0.149862,-0.04622 -0.196078,0 -0.02311,0.02311 0.02311,0.07493 0,0.09804 -0.02311,0.02311 -0.07493,-0.02311 -0.09804,0 -0.02311,0.02311 0.02311,0.07493 0,0.09804 -0.02311,0.02311 -0.07493,-0.02311 -0.09804,0 -0.202846,0.202846 0.309977,-0.0079 -0.09804,0.196078 -0.07843,0.03922 -0.215686,-0.03922 -0.294118,0 -0.408015,0.204008 0.104808,-0.0068 -0.09804,0.196078 -0.02311,0.02311 -0.07493,-0.02311 -0.09804,0 -0.02311,0.02311 0.02311,0.07493 0,0.09804 -0.02311,0.02311 -0.06881,-0.01462 -0.09804,0 -0.325155,0.325155 0.09243,-0.04622 -0.196079,0.09804 -0.08267,0.04134 -0.113404,0.154741 -0.196078,0.196078 -0.02923,0.01461 -0.07493,-0.02311 -0.09804,0 -0.02311,0.02311 0.02311,0.07493 0,0.09804 -0.06557,0.06557 -0.130505,-0.06557 -0.196079,0 -0.02311,0.02311 0.02311,0.07493 0,0.09804 -0.02311,0.02311 -0.06881,-0.01461 -0.09804,0 -0.04134,0.02067 -0.0567,0.07737 -0.09804,0.09804 -0.02923,0.01461 -0.07493,-0.02311 -0.09804,0 -0.202847,0.202847 0.309976,-0.0079 -0.09804,0.196078 -0.03887,0.01944 -0.274074,-0.02004 -0.294117,0 -0.02311,0.02311 0.02311,0.07493 0,0.09804 -0.02311,0.02311 -0.07493,-0.02311 -0.09804,0 -0.261581,0.26158 0.26158,-0.0655 0,0.196078 -0.04622,0.04622 -0.149863,-0.04622 -0.196079,0 -0.02311,0.02311 0.02311,0.07493 0,0.09804 -0.02311,0.02311 -0.07493,-0.02311 -0.09804,0 -0.02311,0.02311 0.02311,0.07493 0,0.09804 -0.04902,0.04902 -0.245098,-0.04902 -0.294118,0 -0.02311,0.02311 0.02311,0.07493 0,0.09804 -0.02311,0.02311 -0.06881,-0.01461 -0.09804,0 -0.04134,0.02067 -0.0567,0.07737 -0.09804,0.09804 -0.02923,0.01461 -0.07493,-0.02311 -0.09804,0 -0.02311,0.02311 0.02311,0.07493 0,0.09804 -0.02311,0.02311 -0.06881,-0.01461 -0.09804,0 -0.04134,0.02067 -0.0567,0.07737 -0.09804,0.09804 -0.02923,0.01461 -0.07493,-0.02311 -0.09804,0 -0.04902,0.04902 0.04902,0.245098 0,0.294118 -0.0044,0.0044 -0.443971,0 -0.490196,0 -0.03268,0 -0.07493,-0.02311 -0.09804,0 -0.02311,0.02311 -0.02311,0.07493 0,0.09804 0.02311,0.02311 0.07493,-0.02311 0.09804,0 0.02311,0.02311 0.02311,0.07493 0,0.09804 -0.02311,0.02311 -0.07493,-0.02311 -0.09804,0 -0.04902,0.04902 0.04902,0.245098 0,0.294118 -0.04622,0.04622 -0.149863,-0.04622 -0.196079,0 -0.02311,0.02311 0.02311,0.07493 0,0.09804 -0.04622,0.04622 -0.149862,-0.04622 -0.196078,0 -0.04622,0.04622 0.04622,0.149863 0,0.196079 -0.04622,0.04622 -0.149863,-0.04622 -0.196079,0 -0.02311,0.02311 0.02311,0.07493 0,0.09804 -0.02004,0.02004 -0.255246,-0.01944 -0.294117,0 -0.04134,0.02067 -0.0567,0.07737 -0.09804,0.09804 -0.02923,0.01461 -0.07493,-0.02311 -0.09804,0 -0.06557,0.06557 0.06557,0.130505 0,0.196079 -0.02311,0.02311 -0.06881,-0.01461 -0.09804,0 -0.408016,0.204007 0.104807,-0.0068 -0.09804,0.196078 -0.02311,0.02311 -0.07493,-0.02311 -0.09804,0 -0.02311,0.02311 0.02311,0.07493 0,0.09804 -0.02311,0.02311 -0.07493,-0.02311 -0.09804,0 -0.02311,0.02311 0.02311,0.07493 0,0.09804 -0.02311,0.02311 -0.07493,-0.02311 -0.09804,0 -0.02311,0.02311 0,0.06536 0,0.09804 -0.03268,0 -0.06881,-0.01461 -0.09804,0 -0.408016,0.204008 0.104807,-0.0068 -0.09804,0.196078 -0.02311,0.02311 -0.07493,-0.02311 -0.09804,0 -0.02311,0.02311 0.02311,0.07493 0,0.09804 -0.02311,0.02311 -0.07493,-0.02311 -0.09804,0 -0.02311,0.02311 0.02311,0.07493 0,0.09804 -0.02311,0.02311 -0.07493,-0.02311 -0.09804,0 -0.02311,0.02311 0.02311,0.07493 0,0.09804 -0.02311,0.02311 -0.07493,-0.02311 -0.09804,0 -0.02311,0.02311 0.02311,0.07493 0,0.09804 -0.02311,0.02311 -0.07493,-0.02311 -0.09804,0 -0.02311,0.02311 0.02311,0.07493 0,0.09804 -0.196186,0.196185 1.07e-4,-0.196185 -0.196079,0 -0.02311,0.02311 0.02311,0.07493 0,0.09804 -0.02311,0.02311 -0.07493,-0.02311 -0.09804,0 -0.02311,0.02311 0.02311,0.07493 0,0.09804 -0.02311,0.02311 -0.07493,-0.02311 -0.09804,0 -0.02311,0.02311 0.02311,0.07493 0,0.09804 -0.02311,0.02311 -0.07493,-0.02311 -0.09804,0 -0.02311,0.02311 0.02311,0.07493 0,0.09804 -0.02311,0.02311 -0.07493,-0.02311 -0.09804,0 -0.02311,0.02311 0.02311,0.07493 0,0.09804 -0.02311,0.02311 -0.07493,-0.02311 -0.09804,0 -0.02311,0.02311 0.02311,0.07493 0,0.09804 -0.202846,0.202847 0.0079,-0.309976 -0.196078,0.09804 -0.01461,0.02923 0.02311,0.07493 0,0.09804 -0.202847,0.202847 0.0079,-0.309977 -0.196079,0.09804 -0.01461,0.02923 0.02311,0.07493 0,0.09804 -0.02311,0.02311 -0.07493,-0.02311 -0.09804,0 -0.02311,0.02311 0.02311,0.07493 0,0.09804 -0.02311,0.02311 -0.06881,-0.01461 -0.09804,0 -0.08267,0.04134 -0.113405,0.154741 -0.196079,0.196078 -0.02923,0.01461 -0.07493,-0.02311 -0.09804,0 -0.02311,0.02311 0.01461,0.06881 0,0.09804 -0.02067,0.04134 -0.07737,0.0567 -0.09804,0.09804 -0.01461,0.02923 0.02311,0.07493 0,0.09804 -0.02311,0.02311 -0.07493,-0.02311 -0.09804,0 -0.02311,0.02311 0.02311,0.07493 0,0.09804 -0.02311,0.02311 -0.07493,-0.02311 -0.09804,0 -0.02311,0.02311 0.02311,0.07493 0,0.09804 -0.0666,0.0666 -0.194977,-0.100243 -0.294118,0.09804 -0.01944,0.03887 0.02004,0.274075 0,0.294118 -0.02311,0.02311 -0.07493,-0.02311 -0.09804,0 -0.02311,0.02311 0.02311,0.07493 0,0.09804 -0.02004,0.02004 -0.255246,-0.01944 -0.294118,0 -0.198282,0.09914 -0.03144,0.227517 -0.09804,0.294118 -0.02311,0.02311 -0.07493,-0.02311 -0.09804,0 -0.202847,0.202846 0.309976,-0.0079 -0.09804,0.196078 -0.02923,0.01461 -0.06881,-0.01461 -0.09804,0 -0.04134,0.02067 -0.0567,0.07737 -0.09804,0.09804 -0.02923,0.01461 -0.07493,-0.02311 -0.09804,0 -0.04622,0.04622 0.02923,0.13762 0,0.196079 -0.05882,0.117647 -0.235294,0.17647 -0.294118,0.294118 -0.02923,0.05846 0.02923,0.137619 0,0.196078 -0.02067,0.04134 -0.07737,0.0567 -0.09804,0.09804 -0.01462,0.02923 0.02311,0.07493 0,0.09804 -0.02311,0.02311 -0.07493,-0.02311 -0.09804,0 -0.202847,0.202847 0.309976,-0.0079 -0.09804,0.196079 -0.107804,0.0539 -0.19789,-0.09442 -0.294117,0.09804 -0.02923,0.05846 0.04622,0.149862 0,0.196078 -0.202847,0.202847 0.0079,-0.309976 -0.196079,0.09804 -0.06762,0.135231 0.118731,0.08769 -0.09804,0.196078 -0.05846,0.02923 -0.149862,-0.04622 -0.196078,0 -0.06557,0.06557 0.06557,0.130505 0,0.196079 -0.02311,0.02311 -0.07493,-0.02311 -0.09804,0 -0.04622,0.04622 0.02923,0.137619 0,0.196078 -0.02067,0.04134 -0.06536,0.06536 -0.09804,0.09804 -0.03268,0.03268 -0.0567,0.07737 -0.09804,0.09804 -0.02923,0.01461 -0.07493,-0.02311 -0.09804,0 -0.02311,0.02311 0.02311,0.07493 0,0.09804 -0.02311,0.02311 -0.07493,-0.02311 -0.09804,0 -0.02311,0.02311 0.01461,0.06881 0,0.09804 -0.02067,0.04134 -0.07737,0.0567 -0.09804,0.09804 -0.01461,0.02923 0.01461,0.06881 0,0.09804 -0.108385,0.21677 -0.06085,0.03042 -0.196078,0.09804 -0.408016,0.204008 0.104807,-0.0068 -0.09804,0.196079 -0.02311,0.02311 -0.07493,-0.02311 -0.09804,0 -0.02311,0.02311 0.02311,0.07493 0,0.09804 -0.02311,0.02311 -0.07493,-0.02311 -0.09804,0 -0.02311,0.02311 0.02311,0.07493 0,0.09804 -0.02311,0.02311 -0.07493,-0.02311 -0.09804,0 -0.04622,0.04622 0.04622,0.149863 0,0.196079 -0.04622,0.04622 -0.149862,-0.04622 -0.196078,0 -0.02311,0.02311 0.01462,0.06881 0,0.09804 -0.02067,0.04134 -0.07737,0.0567 -0.09804,0.09804 -0.01461,0.02923 0.02311,0.07493 0,0.09804 -0.02311,0.02311 -0.07493,-0.02311 -0.09804,0 -0.02311,0.02311 0.02311,0.07493 0,0.09804 -0.02311,0.02311 -0.07493,-0.02311 -0.09804,0 -0.04622,0.04622 0.04622,0.149862 0,0.196078 -0.02311,0.02311 -0.07493,-0.02311 -0.09804,0 -0.02311,0.02311 0.01461,0.06881 0,0.09804 -0.05882,0.117647 -0.235294,0.176471 -0.294118,0.294118 -0.01461,0.02923 0.02311,0.07493 0,0.09804 -0.02311,0.02311 -0.07493,-0.02311 -0.09804,0 -0.02311,0.02311 0.02311,0.07493 0,0.09804 -0.04622,0.04622 -0.149862,-0.04622 -0.196078,0 -0.04622,0.04622 0.02923,0.137619 0,0.196079 -0.204008,0.408016 0.0068,-0.104808 -0.196079,0.09804 -0.02311,0.02311 0.02311,0.07493 0,0.09804 -0.02311,0.02311 -0.07493,-0.02311 -0.09804,0 -0.202847,0.202847 0.309976,-0.0079 -0.09804,0.196079 -0.135231,0.06762 -0.08769,-0.118731 -0.196079,0.09804 -0.01462,0.02923 0.02311,0.07493 0,0.09804 -0.02311,0.02311 -0.07493,-0.02311 -0.09804,0 -0.02311,0.02311 0.01461,0.06881 0,0.09804 -0.01302,0.02603 -0.268087,0.281103 -0.294118,0.294118 -0.135231,0.06761 -0.08769,-0.118731 -0.196078,0.09804 -0.02923,0.05846 0.04622,0.149862 0,0.196079 -0.02311,0.02311 -0.06881,-0.01461 -0.09804,0 -0.408016,0.204007 0.104807,-0.0068 -0.09804,0.196078 -0.04902,0.04902 -0.245098,-0.04902 -0.294118,0 -0.04622,0.04622 0.04622,0.149862 0,0.196078 -0.02311,0.02311 -0.07493,-0.02311 -0.09804,0 -0.02311,0.02311 0.02311,0.07493 0,0.09804 -0.02311,0.02311 -0.07493,-0.02311 -0.09804,0 -0.02311,0.02311 0.01462,0.06881 0,0.09804 -0.02067,0.04134 -0.07737,0.0567 -0.09804,0.09804 -0.01461,0.02923 0.02311,0.07493 0,0.09804 -0.04622,0.04622 -0.149862,-0.04622 -0.196078,0 -0.02311,0.02311 0.02311,0.07493 0,0.09804 -0.02311,0.02311 -0.07493,-0.02311 -0.09804,0 -0.04622,0.04622 0.04622,0.149862 0,0.196078 -0.02311,0.02311 -0.07493,-0.02311 -0.09804,0 -0.02311,0.02311 0.02311,0.07493 0,0.09804 -0.02311,0.02311 -0.07493,-0.02311 -0.09804,0 -0.02311,0.02311 0.02311,0.07493 0,0.09804 -0.02311,0.02311 -0.07493,-0.02311 -0.09804,0 -0.02311,0.02311 0.02311,0.07493 0,0.09804 -0.04622,0.04622 -0.149862,-0.04622 -0.196078,0 -0.02311,0.02311 0.02311,0.07493 0,0.09804 -0.02311,0.02311 -0.07493,-0.02311 -0.09804,0 -0.04622,0.04622 0.04622,0.149862 0,0.196078 -0.02311,0.02311 -0.07493,-0.02311 -0.09804,0 -0.02311,0.02311 0.02311,0.07493 0,0.09804 -0.02311,0.02311 -0.07493,-0.02311 -0.09804,0 -0.02311,0.02311 0.02311,0.07493 0,0.09804 -0.02311,0.02311 -0.07493,-0.02311 -0.09804,0 -0.02311,0.02311 0.02311,0.07493 0,0.09804 -0.04622,0.04622 -0.149863,-0.04622 -0.196079,0 -0.04622,0.04622 0.04622,0.149862 0,0.196078 -0.02311,0.02311 -0.07493,-0.02311 -0.09804,0 -0.04622,0.04622 0.04622,0.149863 0,0.196079 -0.202847,0.202846 0.0079,-0.309977 -0.196078,0.09804 -0.01461,0.02923 0.02311,0.07493 0,0.09804 -0.04622,0.04622 -0.149863,-0.04622 -0.196079,0 -0.02311,0.02311 0.02311,0.07493 0,0.09804 -0.02311,0.02311 -0.07493,-0.02311 -0.09804,0 -0.02311,0.02311 0.02311,0.07493 0,0.09804 -0.02311,0.02311 -0.07493,-0.02311 -0.09804,0 -0.04622,0.04622 0.04622,0.149862 0,0.196078 -0.02311,0.02311 -0.07493,-0.02311 -0.09804,0 -0.02311,0.02311 0.02311,0.07493 0,0.09804 -0.02311,0.02311 -0.06881,-0.01461 -0.09804,0 -0.04134,0.02067 -0.0567,0.07737 -0.09804,0.09804 -0.02923,0.01461 -0.07493,-0.02311 -0.09804,0 -0.02311,0.02311 0.02311,0.07493 0,0.09804 -0.02311,0.02311 -0.07493,-0.02311 -0.09804,0 -0.04622,0.04622 0.04622,0.149862 0,0.196078 -0.02311,0.02311 -0.07493,-0.02311 -0.09804,0 -0.02311,0.02311 0.02311,0.07493 0,0.09804 -0.02311,0.02311 -0.07493,-0.02311 -0.09804,0 -0.02311,0.02311 0.02311,0.07493 0,0.09804 -0.04622,0.04622 -0.149862,-0.04622 -0.196078,0 -0.02311,0.02311 0.02311,0.07493 0,0.09804 -0.02311,0.02311 -0.07493,-0.02311 -0.09804,0 -0.02311,0.02311 0.02311,0.07493 0,0.09804 -0.02311,0.02311 -0.07493,-0.02311 -0.09804,0 -0.04622,0.04622 0.02923,0.137619 0,0.196078 -0.02067,0.04134 -0.06536,0.06536 -0.09804,0.09804 -0.03268,0.03268 -0.0567,0.07737 -0.09804,0.09804 -0.05846,0.02923 -0.149862,-0.04622 -0.196079,0 -0.02311,0.02311 0.02311,0.07493 0,0.09804 -0.02311,0.02311 -0.07493,-0.02311 -0.09804,0 -0.02311,0.02311 0.02311,0.07493 0,0.09804 -0.02311,0.02311 -0.07493,-0.02311 -0.09804,0 -0.04622,0.04622 0.04622,0.149863 0,0.196079 -0.02311,0.02311 -0.07493,-0.02311 -0.09804,0 -0.02311,0.02311 0.02311,0.07493 0,0.09804 -0.02311,0.02311 -0.07493,-0.02311 -0.09804,0 -0.02311,0.02311 0.02311,0.07493 0,0.09804 -0.04622,0.04622 -0.149863,-0.04622 -0.196079,0 -0.02311,0.02311 0.02311,0.07493 0,0.09804 -0.02311,0.02311 -0.07493,-0.02311 -0.09804,0 -0.02311,0.02311 0.02311,0.07493 0,0.09804 -0.02311,0.02311 -0.07493,-0.02311 -0.09804,0 -0.04622,0.04622 0.04622,0.149862 0,0.196078 -0.02311,0.02311 -0.07493,-0.02311 -0.09804,0 -0.02311,0.02311 0.02311,0.07493 0,0.09804 -0.02311,0.02311 -0.07493,-0.02311 -0.09804,0 -0.02311,0.02311 0.02311,0.07493 0,0.09804 -0.04902,0.04902 -0.245098,-0.04902 -0.294117,0 -0.02311,0.02311 0.02311,0.07493 0,0.09804 -0.02311,0.02311 -0.07493,-0.02311 -0.09804,0 -0.04622,0.04622 0.04622,0.149862 0,0.196078 -0.02311,0.02311 -0.07493,-0.02311 -0.09804,0 -0.02311,0.02311 0.02311,0.07493 0,0.09804 -0.02311,0.02311 -0.07493,-0.02311 -0.09804,0 -0.02311,0.02311 0.02311,0.07493 0,0.09804 -0.02311,0.02311 -0.07493,-0.02311 -0.09804,0 -0.02311,0.02311 0.02311,0.07493 0,0.09804 -0.04622,0.04622 -0.137619,-0.02923 -0.196079,0 -0.21677,0.108385 -0.03042,0.06085 -0.09804,0.196078 -0.01302,0.02603 -0.268087,0.281103 -0.294117,0.294118 -0.05846,0.02923 -0.149863,-0.04622 -0.196079,0 -0.02311,0.02311 0.02311,0.07493 0,0.09804 -0.02311,0.02311 -0.07493,-0.02311 -0.09804,0 -0.02311,0.02311 0.02311,0.07493 0,0.09804 -0.02311,0.02311 -0.07493,-0.02311 -0.09804,0 -0.02311,0.02311 0.02311,0.07493 0,0.09804 -0.02311,0.02311 -0.07493,-0.02311 -0.09804,0 -0.02311,0.02311 0.02311,0.07493 0,0.09804 -0.02311,0.02311 -0.06881,-0.01462 -0.09804,0 -0.04134,0.02067 -0.0567,0.07737 -0.09804,0.09804 -0.02923,0.01461 -0.07493,-0.02311 -0.09804,0 -0.02311,0.02311 0.02311,0.07493 0,0.09804 -0.02311,0.02311 -0.07493,-0.02311 -0.09804,0 -0.02311,0.02311 0.02311,0.07493 0,0.09804 -0.02311,0.02311 -0.07493,-0.02311 -0.09804,0 -0.02311,0.02311 0.02311,0.07493 0,0.09804 -0.02311,0.02311 -0.07493,-0.02311 -0.09804,0 -0.02311,0.02311 0.02311,0.07493 0,0.09804 -0.02311,0.02311 -0.07493,-0.02311 -0.09804,0 -0.02311,0.02311 0,0.06536 0,0.09804 -0.03268,0 -0.06881,-0.01461 -0.09804,0 -0.408016,0.204008 0.104807,-0.0068 -0.09804,0.196078 -0.04622,0.04622 -0.149863,-0.04622 -0.196079,0 -0.02311,0.02311 0.02311,0.07493 0,0.09804 -0.02311,0.02311 -0.07493,-0.02311 -0.09804,0 -0.02311,0.02311 0.02311,0.07493 0,0.09804 -0.02311,0.02311 -0.06881,-0.01461 -0.09804,0 -0.408016,0.204008 0.104807,-0.0068 -0.09804,0.196078 -0.02311,0.02311 -0.07493,-0.02311 -0.09804,0 -0.02311,0.02311 0.02311,0.07493 0,0.09804 -0.02311,0.02311 -0.07493,-0.02311 -0.09804,0 -0.02311,0.02311 0.02311,0.07493 0,0.09804 -0.04622,0.04622 -0.149862,-0.04622 -0.196078,0 -0.02311,0.02311 0.02311,0.07493 0,0.09804 -0.04622,0.04622 -0.149863,-0.04622 -0.196079,0 -0.02311,0.02311 0.02311,0.07493 0,0.09804 -0.02311,0.02311 -0.07493,-0.02311 -0.09804,0 -0.02311,0.02311 0.02311,0.07493 0,0.09804 -0.02311,0.02311 -0.07493,-0.02311 -0.09804,0 -0.02311,0.02311 0.02311,0.07493 0,0.09804 -0.02311,0.02311 -0.07493,-0.02311 -0.09804,0 -0.02311,0.02311 0.02311,0.07493 0,0.09804 -0.02311,0.02311 -0.07493,-0.02311 -0.09804,0 -0.02311,0.02311 0.02311,0.07493 0,0.09804 -0.04622,0.04622 -0.137619,-0.02923 -0.196078,0 -0.04134,0.02067 -0.0567,0.07737 -0.09804,0.09804 -0.02923,0.01461 -0.07493,-0.02311 -0.09804,0 -0.02311,0.02311 0.02311,0.07493 0,0.09804 -0.02311,0.02311 -0.06881,-0.01461 -0.09804,0 -0.206451,0.103226 0.01037,0.09285 -0.196078,0.196079 -0.02923,0.01461 -0.07493,-0.02311 -0.09804,0 -0.02311,0.02311 0.02311,0.07493 0,0.09804 -0.02311,0.02311 -0.07493,-0.02311 -0.09804,0 -0.02311,0.02311 0.02923,0.08342 0,0.09804 -0.05846,0.02923 -0.137619,-0.02923 -0.196078,0 -0.02923,0.01461 0.01461,0.06881 0,0.09804 -0.204008,0.408015 0.0068,-0.104808 -0.196079,0.09804 -0.02311,0.02311 0.02311,0.07493 0,0.09804 -0.02311,0.02311 -0.07493,-0.02311 -0.09804,0 -0.202846,0.202847 0.309977,-0.0079 -0.09804,0.196078 -0.05846,0.02923 -0.149862,-0.04622 -0.196078,0 -0.02311,0.02311 0.02311,0.07493 0,0.09804 -0.02311,0.02311 -0.06881,-0.01461 -0.09804,0 -0.408015,0.204007 0.104808,-0.0068 -0.09804,0.196078 -0.02311,0.02311 -0.07493,-0.02311 -0.09804,0 -0.02311,0.02311 0.02311,0.07493 0,0.09804 -0.02311,0.02311 -0.07493,-0.02311 -0.09804,0 -0.02311,0.02311 0.02311,0.07493 0,0.09804 -0.02311,0.02311 -0.07493,-0.02311 -0.09804,0 -0.02311,0.02311 0.02311,0.07493 0,0.09804 -0.202847,0.202846 0.0079,-0.309977 -0.196079,0.09804 -0.01461,0.02923 0.01461,0.06881 0,0.09804 -0.02067,0.04134 -0.07737,0.0567 -0.09804,0.09804 -0.01461,0.02923 0.02311,0.07493 0,0.09804 -0.02311,0.02311 -0.07493,-0.02311 -0.09804,0 -0.04622,0.04622 0.04622,0.149862 0,0.196078 -0.02311,0.02311 -0.07493,-0.02311 -0.09804,0 -0.02311,0.02311 0.02311,0.07493 0,0.09804 -0.02311,0.02311 -0.07493,-0.02311 -0.09804,0 -0.02311,0.02311 0.02311,0.07493 0,0.09804 -0.02311,0.02311 -0.07493,-0.02311 -0.09804,0 -0.02311,0.02311 0.02311,0.07493 0,0.09804 -0.02311,0.02311 -0.07493,-0.02311 -0.09804,0 -0.02311,0.02311 0.01461,0.06881 0,0.09804 -0.02067,0.04134 -0.07737,0.0567 -0.09804,0.09804 -0.01461,0.02923 0.02311,0.07493 0,0.09804 -0.02311,0.02311 -0.07493,-0.02311 -0.09804,0 -0.02311,0.02311 0.02311,0.07493 0,0.09804 -0.202846,0.202847 0.0079,-0.309976 -0.196078,0.09804 -0.02923,0.05846 0.04622,0.149862 0,0.196078 -0.02311,0.02311 -0.07493,-0.02311 -0.09804,0 -0.02311,0.02311 0.02311,0.07493 0,0.09804 -0.02311,0.02311 -0.07493,-0.02311 -0.09804,0 -0.02311,0.02311 0.02311,0.07493 0,0.09804 -0.202847,0.202846 0.0079,-0.309977 -0.196079,0.09804 -0.01461,0.02923 0.02311,0.07493 0,0.09804 -0.02311,0.02311 -0.07493,-0.02311 -0.09804,0 -0.02311,0.02311 0.02311,0.07493 0,0.09804 -0.02311,0.02311 -0.07493,-0.02311 -0.09804,0 -0.0666,0.0666 0.100243,0.194977 -0.09804,0.294118 -0.02923,0.01461 -0.06536,0 -0.09804,0 -0.03268,0 -0.07493,0.02311 -0.09804,0 -0.02311,-0.02311 0.02311,-0.07493 0,-0.09804 -0.02311,-0.02311 -0.06536,0 -0.09804,0 -0.03268,0 -0.06881,-0.01461 -0.09804,0 -0.04134,0.02067 -0.0567,0.07737 -0.09804,0.09804 -0.02923,0.01461 -0.07493,-0.02311 -0.09804,0 -0.02311,0.02311 0.02311,0.07493 0,0.09804 -0.202846,0.202847 0.0079,-0.309976 -0.196078,0.09804 -0.02923,0.05846 0.02923,0.137619 0,0.196079 -0.04134,0.08267 -0.154742,0.113404 -0.196079,0.196078 -0.01461,0.02923 0.02311,0.07493 0,0.09804 -0.02311,0.02311 -0.07493,-0.02311 -0.09804,0 -0.02311,0.02311 0.02311,0.07493 0,0.09804 -0.02311,0.02311 -0.07493,-0.02311 -0.09804,0 -0.04622,0.04622 0.04622,0.149862 0,0.196078 -0.02311,0.02311 -0.07493,-0.02311 -0.09804,0 -0.02311,0.02311 0.02311,0.07493 0,0.09804 -0.02311,0.02311 -0.07493,-0.02311 -0.09804,0 -0.04622,0.04622 0.04622,0.149863 0,0.196079 -0.02311,0.02311 -0.07493,-0.02311 -0.09804,0 -0.02311,0.02311 0.02311,0.07493 0,0.09804 -0.202846,0.202846 0.0079,-0.309977 -0.196078,0.09804 -0.01462,0.02923 0.02311,0.07493 0,0.09804 -0.02311,0.02311 -0.07493,-0.02311 -0.09804,0 -0.02311,0.02311 0.02311,0.07493 0,0.09804 -0.05167,0.05167 -0.126755,0.07493 -0.196079,0.09804 -0.031,0.01033 -0.07493,-0.02311 -0.09804,0 -0.04902,0.04902 0.04902,0.245098 0,0.294117 -0.02311,0.02311 -0.06881,-0.01461 -0.09804,0 -0.04134,0.02067 -0.0567,0.07737 -0.09804,0.09804 -0.02923,0.01461 -0.07493,-0.02311 -0.09804,0 -0.04902,0.04902 0.04902,0.245098 0,0.294117 -0.02311,0.02311 -0.07493,-0.02311 -0.09804,0 -0.02311,0.02311 0.01461,0.06881 0,0.09804 -0.02067,0.04134 -0.07737,0.0567 -0.09804,0.09804 -0.01462,0.02923 0.02311,0.07493 0,0.09804 -0.04622,0.04622 -0.149862,-0.04622 -0.196079,0 -0.02311,0.02311 0.02311,0.07493 0,0.09804 -0.02311,0.02311 -0.07493,-0.02311 -0.09804,0 -0.02683,0.02683 0.02659,0.338972 0,0.392157 -0.204008,0.408016 0.0068,-0.104807 -0.196078,0.09804 -0.02311,0.02311 0.02311,0.07493 0,0.09804 -0.02311,0.02311 -0.07493,-0.02311 -0.09804,0 -0.02311,0.02311 0.02311,0.07493 0,0.09804 -0.02004,0.02004 -0.255246,-0.01944 -0.294118,0 -0.408016,0.204007 0.104807,-0.0068 -0.09804,0.196078 -0.02311,0.02311 -0.07493,-0.02311 -0.09804,0 -0.04902,0.04902 0.04902,0.245098 0,0.294118 -0.04622,0.04622 -0.149862,-0.04622 -0.196078,0 -0.04622,0.04622 0.05846,0.166848 0,0.196078 -0.05846,0.02923 -0.137619,-0.02923 -0.196078,0 -0.02923,0.01462 -0.02311,0.07493 0,0.09804 0.02311,0.02311 0.09804,-0.03268 0.09804,0 0,0.204008 -0.137487,0.03945 -0.196079,0.09804 -0.02311,0.02311 0.02311,0.07493 0,0.09804 -0.02311,0.02311 -0.07493,-0.02311 -0.09804,0 -0.02311,0.02311 0.02311,0.07493 0,0.09804 -0.04902,0.04902 -0.245098,-0.04902 -0.294117,0 -0.02311,0.02311 0.02311,0.07493 0,0.09804 -0.02311,0.02311 -0.07493,-0.02311 -0.09804,0 -0.02311,0.02311 0.02311,0.07493 0,0.09804 -0.02311,0.02311 -0.07493,-0.02311 -0.09804,0 -0.02311,0.02311 0.01462,0.06881 0,0.09804 -0.02067,0.04134 -0.07737,0.0567 -0.09804,0.09804 -0.01944,0.03887 0.02004,0.274075 0,0.294117 -0.02311,0.02311 -0.07493,-0.02311 -0.09804,0 -0.02311,0.02311 0.02311,0.07493 0,0.09804 -0.02311,0.02311 -0.07493,-0.02311 -0.09804,0 -0.02311,0.02311 0.02311,0.07493 0,0.09804 -0.02311,0.02311 -0.07493,-0.02311 -0.09804,0 -0.02311,0.02311 0.02311,0.07493 0,0.09804 -0.02311,0.02311 -0.06881,-0.01462 -0.09804,0 -0.041337,0.02067 -0.056702,0.07737 -0.098039,0.09804 -0.02923,0.01461 -0.074931,-0.02311 -0.098039,0 -0.023108,0.02311 0.023108,0.07493 0,0.09804 -0.023108,0.02311 -0.074931,-0.02311 -0.098039,0 -0.023108,0.02311 0.023108,0.07493 0,0.09804 -0.023108,0.02311 -0.074931,-0.02311 -0.098039,0 -0.023108,0.02311 0.023108,0.07493 0,0.09804 -0.023108,0.02311 -0.06881,-0.01462 -0.098039,0 -0.082674,0.04134 -0.1134045,0.154741 -0.1960784,0.196078 -0.02923,0.01462 -0.06881,-0.01461 -0.098039,0 -0.4080158,0.204008 0.1048074,-0.0068 -0.098039,0.196079 -0.023108,0.02311 -0.074931,-0.02311 -0.098039,0 -0.2028466,0.202846 0.3099766,-0.0079 -0.098039,0.196078 -0.02923,0.01462 -0.074931,-0.02311 -0.098039,0 -0.023108,0.02311 0.014615,0.06881 0,0.09804 -0.020668,0.04134 -0.065359,0.06536 -0.098039,0.09804 -0.03268,0.03268 -0.056702,0.07737 -0.098039,0.09804 -0.02923,0.01462 -0.074931,-0.02311 -0.098039,0 -0.023108,0.02311 0.023108,0.07493 0,0.09804 -0.023108,0.02311 -0.074931,-0.02311 -0.098039,0 -0.023108,0.02311 0.014615,0.06881 0,0.09804 -0.020668,0.04134 -0.077371,0.0567 -0.098039,0.09804 -0.014615,0.02923 0.023108,0.07493 0,0.09804 -0.023108,0.02311 -0.074931,-0.02311 -0.098039,0 -0.023108,0.02311 0.023108,0.07493 0,0.09804 -0.023108,0.02311 -0.074931,-0.02311 -0.098039,0 -0.023108,0.02311 0.023108,0.07493 0,0.09804 -0.023108,0.02311 -0.074931,-0.02311 -0.098039,0 -0.023108,0.02311 0.023108,0.07493 0,0.09804 -0.023108,0.02311 -0.074931,-0.02311 -0.098039,0 -0.023108,0.02311 0.023108,0.07493 0,0.09804 -0.023108,0.02311 -0.074931,-0.02311 -0.098039,0 -0.023108,0.02311 0.023108,0.07493 0,0.09804 -0.023108,0.02311 -0.074931,-0.02311 -0.098039,0 -0.023108,0.02311 0.023108,0.07493 0,0.09804 -0.023108,0.02311 -0.074931,-0.02311 -0.098039,0 -0.023108,0.02311 0.023108,0.07493 0,0.09804 -0.046216,0.04622 -0.1498623,-0.04622 -0.1960784,0 -0.023108,0.02311 0.014615,0.06881 0,0.09804 -0.020668,0.04134 -0.065359,0.06536 -0.098039,0.09804 -0.03268,0.03268 -0.056702,0.07737 -0.098039,0.09804 -0.02923,0.01461 -0.074931,-0.02311 -0.098039,0 -0.023108,0.02311 0.014615,0.06881 0,0.09804 -0.2040078,0.408016 0.00677,-0.104807 -0.1960784,0.09804 -0.023108,0.02311 0.023108,0.07493 0,0.09804 -0.023108,0.02311 -0.06881,-0.01461 -0.098039,0 -0.1176471,0.05882 -0.1764706,0.235294 -0.2941176,0.294117 -0.02923,0.01462 -0.074931,-0.02311 -0.098039,0 -0.2028466,0.202847 0.3099766,-0.0079 -0.098039,0.196079 -0.058459,0.02923 -0.1376191,-0.02923 -0.1960784,0 -0.4080157,0.204008 0.1048074,-0.0068 -0.098039,0.196078 -0.023108,0.02311 -0.074931,-0.02311 -0.098039,0 -0.023108,0.02311 0.023108,0.07493 0,0.09804 -0.023108,0.02311 -0.074931,-0.02311 -0.098039,0 -0.023108,0.02311 0.014615,0.06881 0,0.09804 -0.020668,0.04134 -0.077371,0.0567 -0.098039,0.09804 -0.014615,0.02923 0.023108,0.07493 0,0.09804 -0.046216,0.04622 -0.1376191,-0.02923 -0.1960784,0 -0.041337,0.02067 -0.056702,0.07737 -0.098039,0.09804 -0.02923,0.01462 -0.074931,-0.02311 -0.098039,0 -0.023108,0.02311 0.023108,0.07493 0,0.09804 -0.023108,0.02311 -0.074931,-0.02311 -0.098039,0 -0.023108,0.02311 0.014615,0.06881 0,0.09804 -0.020668,0.04134 -0.065359,0.06536 -0.098039,0.09804 -0.03268,0.03268 -0.056702,0.07737 -0.098039,0.09804 -0.02923,0.01461 -0.074931,-0.02311 -0.098039,0 -0.023108,0.02311 0.023108,0.07493 0,0.09804 -0.046216,0.04622 -0.1498623,-0.04622 -0.1960784,0 -0.023108,0.02311 0.023108,0.07493 0,0.09804 -0.023108,0.02311 -0.074931,-0.02311 -0.098039,0 -0.068182,0.06818 0.068182,0.127897 0,0.196079 -0.023108,0.02311 -0.074931,-0.02311 -0.098039,0 -0.023108,0.02311 0.014615,0.06881 0,0.09804 -0.020668,0.04134 -0.065359,0.06536 -0.098039,0.09804 -0.03268,0.03268 -0.056702,0.07737 -0.098039,0.09804 -0.02923,0.01461 -0.074931,-0.02311 -0.098039,0 -0.023108,0.02311 0.023108,0.07493 0,0.09804 -0.023108,0.02311 -0.074931,-0.02311 -0.098039,0 -0.046216,0.04622 0.046216,0.149862 0,0.196078 -0.04902,0.04902 -0.2450981,-0.04902 -0.2941177,0 -0.023108,0.02311 0.014615,0.06881 0,0.09804 -0.2040078,0.408016 0.00677,-0.104807 -0.1960784,0.09804 -0.023108,0.02311 0.014615,0.06881 0,0.09804 -0.020668,0.04134 -0.06536,0.06536 -0.098039,0.09804 -0.03268,0.03268 -0.056702,0.07737 -0.098039,0.09804 -0.058459,0.02923 -0.1376192,-0.02923 -0.1960785,0 -0.4080157,0.204008 0.1048074,-0.0068 -0.098039,0.196079 -0.023108,0.02311 -0.074931,-0.02311 -0.098039,0 -0.2028466,0.202846 0.3099765,-0.0079 -0.098039,0.196078 -0.02923,0.01462 -0.074931,-0.02311 -0.098039,0 -0.023108,0.02311 0.014615,0.06881 0,0.09804 -0.020669,0.04134 -0.077371,0.0567 -0.098039,0.09804 -0.014615,0.02923 0.023108,0.07493 0,0.09804 -0.023108,0.02311 -0.06881,-0.01462 -0.098039,0 -0.02603,0.01301 -0.2811024,0.268087 -0.2941176,0.294117 -0.014615,0.02923 0.014615,0.06881 0,0.09804 -0.020669,0.04134 -0.077371,0.0567 -0.098039,0.09804 -0.014615,0.02923 0.023108,0.07493 0,0.09804 -0.023108,0.02311 -0.074931,-0.02311 -0.098039,0 -0.046216,0.04622 0.046216,0.149862 0,0.196079 -0.046216,0.04622 -0.1498623,-0.04622 -0.1960785,0 -0.023108,0.02311 0.023108,0.07493 0,0.09804 -0.023108,0.02311 -0.074931,-0.02311 -0.098039,0 -0.023108,0.02311 0.023108,0.07493 0,0.09804 -0.023108,0.02311 -0.074931,-0.02311 -0.098039,0 -0.023591,0.02359 0.023591,0.368566 0,0.392157 -0.023108,0.02311 -0.074931,-0.02311 -0.098039,0 -0.04902,0.04902 0.04902,0.245098 0,0.294117 -0.023108,0.02311 -0.074931,-0.02311 -0.098039,0 -0.046216,0.04622 0.046216,0.149863 0,0.196079 -0.023108,0.02311 -0.074931,-0.02311 -0.098039,0 -0.130719,0.130719 4.2810457,-5.392156 4.0196081,-5.392156"
       id="path3140"
       inkscape:connector-curvature="0"
       transform="translate(0,972.3622)"
       sodipodi:nodetypes="cssscsssssssscssssssscssccssscsssscscsscsscssssscccssssssccscccssssscscsssssccccsscscscccsscccccscssscsccsccsssscscscsccccsssscsssccssssccccssssccssscccsssscssssssssccscssscscssscsccsscssccsscccscssssssssscscsssccsscsssssscsssscsssccccssccssccssscscsssssscccsssscccsscccsscsccsccssscsssssccssccssssssssscscccsccscccssssscccsssssssssssssssssssssscscsssccsccsssssccsscsscccscsscssccccsccssscssscccccsssssccccsssscsccssscscssccssccscccscsssccscsscsssssscsscssssssccsccscsssscssccssscsssscssssssscsssscsssscsssscssssssscssssssscscsssssssccsssssssssccccsssccsssscscsssssssssscssccsssccccssccsccsssssscccsscsssssssccsssccsssscsssscssssccsscccsssscssscsscssscssccsssccscssccsssccsscscsscsssssssscccssssssccssssssccccccscscsssccsssssssssssssssscscsscsccccscsssccsccssscscssssccscscsssscsccccscccsccscsccsscssssccccsccc" />
  </g>
</svg>
