<?xml version="1.0" encoding="UTF-8" standalone="no"?>
<!-- Created with Inkscape (http://www.inkscape.org/) -->

<svg
   xmlns:dc="http://purl.org/dc/elements/1.1/"
   xmlns:cc="http://creativecommons.org/ns#"
   xmlns:rdf="http://www.w3.org/1999/02/22-rdf-syntax-ns#"
   xmlns:svg="http://www.w3.org/2000/svg"
   xmlns="http://www.w3.org/2000/svg"
   xmlns:sodipodi="http://sodipodi.sourceforge.net/DTD/sodipodi-0.dtd"
   xmlns:inkscape="http://www.inkscape.org/namespaces/inkscape"
   width="32"
   height="65"
   id="svg2"
   version="1.1"
   inkscape:version="0.48.5 r10040"
   sodipodi:docname="void_torn_bottom_1.svg">
  <defs
     id="defs4" />
  <sodipodi:namedview
     id="base"
     pagecolor="#ffffff"
     bordercolor="#666666"
     borderopacity="1.0"
     inkscape:pageopacity="0.0"
     inkscape:pageshadow="2"
     inkscape:zoom="12.75"
     inkscape:cx="16"
     inkscape:cy="32"
     inkscape:document-units="px"
     inkscape:current-layer="layer1"
     showgrid="true"
     inkscape:window-width="1920"
     inkscape:window-height="1014"
     inkscape:window-x="0"
     inkscape:window-y="27"
     inkscape:window-maximized="1"
     inkscape:snap-grids="false">
    <inkscape:grid
       type="xygrid"
       id="grid3001"
       empspacing="8"
       visible="true"
       enabled="true"
       snapvisiblegridlinesonly="true" />
  </sodipodi:namedview>
  <metadata
     id="metadata7">
    <rdf:RDF>
      <cc:Work
         rdf:about="">
        <dc:format>image/svg+xml</dc:format>
        <dc:type
           rdf:resource="http://purl.org/dc/dcmitype/StillImage" />
        <dc:title />
      </cc:Work>
    </rdf:RDF>
  </metadata>
  <g
     inkscape:label="Layer 1"
     inkscape:groupmode="layer"
     id="layer1"
     transform="translate(0,-987.3622)">
    <path
       style="fill:#646464;fill-opacity:1;stroke:none"
       d="m 31.892412,1003.3028 -1.8925,-0.2543 -1.6577,0.6825 -1.9222,-0.2997 -0.455,-0.155 -0.5159,0.2087 -1.3937,-0.418 -1.0164,-0.3897 -0.5997,0.6628 -1.8975,-0.2025 c -0.5012,0.01 1.0414,1.5832 -0.8848,0.491 l -1.0375,-0.6256 -0.9719,0.5245 -1.5471,-0.3503 -2.2097,0.5794 -0.38075,-0.2395 -0.48065,0.06 -3.7644865,-0.5905 -0.7440136,0.4332 -1.8559,0.36 -3.0252,-0.2888 -0.4444,0.499 -1.051175,-0.925 -2.7329251,0.4509 -0.3073,0.041 -0.1387,0 -0.069,0 -0.035,0 0.035,0 -0.1040001,0 -0.035,0 -0.035,0 0,0.035 -1.2651,50.052 36.1698003,0.035 0.6846,-49.9914"
       id="path3186"
       inkscape:connector-curvature="0"
       sodipodi:nodetypes="cccccccccccccccccccccccccccccccccccc" />
    <path
       style="fill:#ffffff;fill-opacity:1;stroke:none"
       d="m 31.751626,1004.1554 -1.463498,-0.727 0.05955,1.3258 -1.21405,-1.2648 -0.6178,0.3022 -0.8182,-0.6196 -1.9434,0.549 -1.6141,-0.5721 -0.3545,0.5287 -0.3084,-0.526 -1.0137,0.4324 -1.085,-0.2451 -1.1946,0.2717 -1.1044,0.2875 -1.1266,-0.4883 -0.3502,0.6699 -0.2905,-0.5713 -1.4807,0.1471 -2.2981,0.3245 -0.5123,-0.274 -0.6368,-0.2405 -4.7752002,0.2039 -0.502,0.1304 -0.4349,-0.039 -0.9323,0.5023 -1.1606,-0.7329 -1.6918,0.3438 -0.8447,-0.4804 -0.2852446,0.8066 -0.1277554,-0.7435 -3.7627002,-0.2937 0.6740002,0.6279 0.54639991,-0.2762 -0.069,0 -0.035,0 0.035,0 -0.10400001,0 -0.035,0 -0.035,0 0,0.035 -1.2652001,50.0519 36.1699004,0.042 0.6846,-49.9913"
       id="path3186-7"
       inkscape:connector-curvature="0"
       sodipodi:nodetypes="ccccccccccccccccccccccccccccccccccccccccccc" />
  </g>
</svg>
