<?xml version="1.0" encoding="UTF-8"?>
<svg version="1.1" xmlns="http://www.w3.org/2000/svg" width="64" height="32">
<path d="M0 0 C0.66 0.33 1.32 0.66 2 1 C3.25361942 7.83792412 3.25361942 7.83792412 2.5234375 11.18359375 C1.77136946 15.23016882 1.89537601 19.20703141 1.9375 23.3125 C1.94201172 24.14845703 1.94652344 24.98441406 1.95117188 25.84570312 C1.96289452 27.89716649 1.98082797 29.94859273 2 32 C1.34 32 0.68 32 0 32 C-1.00333682 24.8725925 -0.9564381 18.11441828 -0.5625 10.9375 C-0.51029297 9.88111328 -0.45808594 8.82472656 -0.40429688 7.73632812 C-0.2759218 5.15715618 -0.14102952 2.57850564 0 0 Z " fill="#ACACAC" transform="translate(47,0)"/>
<path d="M0 0 C0.66 0 1.32 0 2 0 C2 2.97 2 5.94 2 9 C1.34 9 0.68 9 0 9 C-1.10844919 5.67465243 -0.84454356 3.37817425 0 0 Z " fill="#9A9A9A" transform="translate(47,23)"/>
</svg>
