<?xml version="1.0" encoding="UTF-8" standalone="no"?>
<!-- Created with Inkscape (http://www.inkscape.org/) -->

<svg
   xmlns:dc="http://purl.org/dc/elements/1.1/"
   xmlns:cc="http://creativecommons.org/ns#"
   xmlns:rdf="http://www.w3.org/1999/02/22-rdf-syntax-ns#"
   xmlns:svg="http://www.w3.org/2000/svg"
   xmlns="http://www.w3.org/2000/svg"
   xmlns:sodipodi="http://sodipodi.sourceforge.net/DTD/sodipodi-0.dtd"
   xmlns:inkscape="http://www.inkscape.org/namespaces/inkscape"
   width="32"
   height="64"
   id="svg2"
   version="1.1"
   inkscape:version="0.48.5 r10040"
   sodipodi:docname="void_torn_top_1.svg">
  <defs
     id="defs4" />
  <sodipodi:namedview
     id="base"
     pagecolor="#ffffff"
     bordercolor="#666666"
     borderopacity="1.0"
     inkscape:pageopacity="0.0"
     inkscape:pageshadow="2"
     inkscape:zoom="20.4"
     inkscape:cx="13.441575"
     inkscape:cy="18.128589"
     inkscape:document-units="px"
     inkscape:current-layer="layer1"
     showgrid="true"
     inkscape:window-width="1920"
     inkscape:window-height="1014"
     inkscape:window-x="0"
     inkscape:window-y="27"
     inkscape:window-maximized="1"
     inkscape:snap-grids="false">
    <inkscape:grid
       type="xygrid"
       id="grid3001"
       empspacing="8"
       visible="true"
       enabled="true"
       snapvisiblegridlinesonly="true" />
  </sodipodi:namedview>
  <metadata
     id="metadata7">
    <rdf:RDF>
      <cc:Work
         rdf:about="">
        <dc:format>image/svg+xml</dc:format>
        <dc:type
           rdf:resource="http://purl.org/dc/dcmitype/StillImage" />
        <dc:title></dc:title>
      </cc:Work>
    </rdf:RDF>
  </metadata>
  <g
     inkscape:label="Layer 1"
     inkscape:groupmode="layer"
     id="layer1"
     transform="translate(0,-988.3622)">
    <path
       style="fill:#646464;fill-opacity:1;stroke:none"
       d="m -0.38128307,47.847463 c 0,0.04622 0.0462161,0.138648 0,0.138648 -0.0462161,0 -0.0326797,-0.171328 0,-0.138648 0.0416587,0.04166 0.0127819,0.11861 0.0346621,0.17331 0.008582,0.02146 0.0529843,-0.01634 0.0693242,0 0.00817,0.0082 -0.00817,0.02649 0,0.03466 0.00817,0.0082 0.0264922,-0.0082 0.0346621,0 0.00817,0.0082 -0.00817,0.02649 0,0.03466 0.00817,0.0082 0.0264922,-0.0082 0.0346621,0 0.0163399,0.01634 -0.0163399,0.05298 0,0.06932 0.007086,0.0071 0.090243,-0.0069 0.10398629,0 0.01461482,0.0073 0.02004727,0.02735 0.0346621,0.03466 0.0089619,0.0045 0.18340401,0 0.20797258,0 0.011554,0 0.0231081,0 0.0346621,0 0.011554,0 0.0346621,-0.01155 0.0346621,0 0,0.01155 -0.0462161,0 -0.0346621,0 0.0231081,0 0.0462161,0 0.0693242,0 0.011554,0 0.0264922,0.0082 0.0346621,0 0.00817,-0.0082 -0.00817,-0.02649 0,-0.03466 0.017331,-0.01733 0.0866552,0.01733 0.10398629,0 0.00817,-0.0082 -0.00817,-0.02649 0,-0.03466 0.00817,-0.0082 0.0264922,0.0082 0.0346621,0 0.00817,-0.0082 -0.00817,-0.02649 0,-0.03466 0.010733,-0.01073 0.16257746,0.01073 0.17331048,0 0.00817,-0.0082 -0.00817,-0.02649 0,-0.03466 0.00817,-0.0082 0.0751013,-0.129983 0.0866552,-0.129983 0.011554,0 -0.028885,0.129983 -0.0173311,0.129983 0.11554032,0 0.23108064,0 0.34662093,0 0.011554,0 0.023108,0 0.034662,0 0.011554,0 0.026492,0.0082 0.034662,0 0.00817,-0.0082 -0.00817,-0.02649 0,-0.03466 0.00817,-0.0082 0.023108,0 0.034662,0 0.011554,0 0.023108,0 0.034662,0 0.069324,0 0.1386484,0 0.2079726,0 0.011554,0 0.023108,0 0.034662,0 0.011554,0 0.024328,0.0052 0.034662,0 0.014615,-0.0073 0.020047,-0.02735 0.034662,-0.03466 0.018804,-0.0094 0.1291641,0.0095 0.1386484,0 0.00817,-0.0082 -0.00817,-0.02649 0,-0.03466 0.01634,-0.01634 0.052984,0.01634 0.069324,0 0.00817,-0.0082 -0.00817,-0.02649 0,-0.03466 0.017331,-0.01733 0.086655,0.01733 0.1039863,0 0,-0.09243 -0.011554,0.01155 0.034662,-0.03466 0.00817,-0.0082 -0.00817,-0.02649 0,-0.03466 0.00817,-0.0082 0.023108,0 0.034662,0 0.011554,0 0.023108,0 0.034662,0 0.011554,0 0.034662,-0.01155 0.034662,0 0,0.01155 -0.046216,0 -0.034662,0 0.047139,0 0.111984,-0.01867 0.1386484,0.03466 0.00517,0.01033 -0.00817,0.02649 0,0.03466 0.00817,0.0082 0.026492,-0.0082 0.034662,0 0.00817,0.0082 -0.00817,0.02649 0,0.03466 0.00817,0.0082 0.026492,-0.0082 0.034662,0 0.00817,0.0082 0,0.02311 0,0.03466 0.011554,0 0.026492,-0.0082 0.034662,0 0.00817,0.0082 -0.00817,0.02649 0,0.03466 0.017331,0.01733 0.086655,-0.01733 0.1039863,0 0.00817,0.0082 -0.00817,0.02649 0,0.03466 0.01634,0.01634 0.06165,-0.232978 0.07799,-0.216638 0.00817,0.0082 -0.016836,0.243128 -0.00867,0.251298 0.01634,0.01634 0.052984,-0.01634 0.069324,0 0.00817,0.0082 0.1044818,-0.22481 0.1126518,-0.21664 0.017331,0.01733 -0.025997,0.23397 -0.00867,0.2513 0.00817,0.0082 -0.00817,0.02649 0,0.03466 0.00834,0.0083 0.1303076,-0.0083 0.1386484,0 0.00817,0.0082 -0.00817,0.02649 0,0.03466 0.00834,0.0083 0.1303076,-0.0083 0.1386484,0 0.00817,0.0082 -0.00817,0.02649 0,0.03466 0.01634,0.01634 0.052984,-0.01634 0.069324,0 0.00817,0.0082 -0.00817,0.02649 0,0.03466 0.00817,0.0082 0.023108,0 0.034662,0 0.069324,0 0.1386484,0 0.2079725,0 0.011554,0 0.026492,-0.0082 0.034662,0 0.00817,0.0082 -0.00817,0.02649 0,0.03466 0.00817,0.0082 0.023108,0 0.034662,0 0.05777,0 0.1935301,-0.242635 0.2513002,-0.242635 0.080878,0 0.083767,0.242635 0.164645,0.242635 0.011554,0 0.026492,0.0082 0.034662,0 0.00817,-0.0082 -0.00817,-0.02649 0,-0.03466 0.092432,0 -0.011554,0.01155 0.034662,-0.03466 0.010733,-0.01073 0.1625775,0.01073 0.1733105,0 0.00817,-0.0082 -0.00817,-0.02649 0,-0.03466 0.00817,-0.0082 0.024328,0.0052 0.034662,0 0.014615,-0.0073 0.020047,-0.02736 0.034662,-0.03466 0.020669,-0.01033 0.052984,0.01634 0.069324,0 0.00817,-0.0082 -0.00817,-0.02649 0,-0.03466 0.01634,-0.01634 0.052984,0.01634 0.069324,0 0.00817,-0.0082 -0.00817,-0.02649 0,-0.03466 0.00817,-0.0082 0.024328,0.0052 0.034662,0 0.014615,-0.0073 0.020047,-0.02735 0.034662,-0.03466 0.023942,-0.01197 0.1611434,0.01217 0.1733105,0 0.00817,-0.0082 -0.00817,-0.02649 0,-0.03466 0.00157,-0.0016 0.1569673,0 0.1733104,0 0.011554,0 0.026492,0.0082 0.034662,0 0.00817,-0.0082 -0.00817,-0.02649 0,-0.03466 0.00817,-0.0082 0.023108,0 0.034662,0 0.011554,0 0.023108,0 0.034662,0 0.1386484,0 0.2772968,0 0.4159452,0 0.012729,0 0.1372535,0.0014 0.1386484,0 0.00817,-0.0082 -0.00817,-0.02649 0,-0.03466 0.00817,-0.0082 0.023108,0 0.034662,0 0.011554,0 0.4130566,-0.155979 0.4246106,-0.155979 0.3466209,0 0.3032933,0.155979 0.6499143,0.155979 0.1386484,0 0.2772968,0 0.4159452,0 0.011554,0 0.023108,0 0.034662,0 0.011554,0 0.026492,0.0082 0.034662,0 0.00817,-0.0082 -0.00817,-0.02649 0,-0.03466 0.012167,-0.01217 0.1493682,0.01197 0.1733104,0 0.014615,-0.0073 0.020047,-0.02736 0.034662,-0.03466 0.023942,-0.01197 0.1611435,0.01217 0.1733105,0 0.00817,-0.0082 -0.00817,-0.02649 0,-0.03466 0.00834,-0.0083 0.1303076,0.0083 0.1386484,0 0.00817,-0.0082 -0.00817,-0.02649 0,-0.03466 0.01634,-0.01634 0.052984,0.01634 0.069324,0 0.00817,-0.0082 -0.00817,-0.02649 0,-0.03466 0.017331,-0.01733 0.086655,0.01733 0.1039863,0 0.00817,-0.0082 -0.00817,-0.02649 0,-0.03466 0.017331,-0.01733 0.086655,0.01733 0.1039863,0 0.00817,-0.0082 -0.00817,-0.02649 0,-0.03466 0.01634,-0.01634 0.052984,0.01634 0.069324,0 0.00817,-0.0082 -0.00817,-0.02649 0,-0.03466 0.017331,-0.01733 0.086655,0.01733 0.1039863,0 0.00817,-0.0082 -0.00817,-0.02649 0,-0.03466 0.00817,-0.0082 0.023108,0 0.034662,0 0.092432,0 0.2455232,-0.277297 0.3379554,-0.277297 0.1155404,0 0.170422,0.277297 0.2859623,0.277297 0.018126,0 0.1295343,-0.0046 0.1386484,0 0.014615,0.0073 0.020047,0.02736 0.034662,0.03466 0.021048,0.01052 0.186925,-0.01052 0.2079726,0 0.014615,0.0073 0.020047,0.02736 0.034662,0.03466 0.00896,0.0045 0.183404,0 0.2079726,0 0.012729,0 0.1372535,0.0014 0.1386484,0 0.00817,-0.0082 -0.00817,-0.02649 0,-0.03466 0.00817,-0.0082 0.023108,0 0.034662,0 0.011554,0 0.026492,-0.0082 0.034662,0 0.00817,0.0082 -0.00817,0.02649 0,0.03466 0.017331,0.01733 0.086655,-0.01733 0.1039863,0 0.00817,0.0082 -0.00817,0.02649 0,0.03466 0.00817,0.0082 0.026492,-0.0082 0.034662,0 0.00817,0.0082 -0.00817,0.02649 0,0.03466 0.00347,0.0035 0.1005201,0.0035 0.1039863,0 0.01634,-0.01634 -0.01634,-0.05298 0,-0.06933 0.01634,-0.01634 0.052984,0.01634 0.069324,0 0.00817,-0.0082 -0.00817,-0.02649 0,-0.03466 0.00817,-0.0082 0.024328,0.0052 0.034662,0 0.014615,-0.0073 0.020047,-0.02735 0.034662,-0.03466 0.018804,-0.0094 0.1291641,0.0095 0.1386484,0 0.00817,-0.0082 -0.00817,-0.02649 0,-0.03466 0.01634,-0.01634 0.052984,0.01634 0.069324,0 0.00817,-0.0082 -0.00817,-0.02649 0,-0.03466 0.00817,-0.0082 0.024328,0.0052 0.034662,0 0.014615,-0.0073 0.020047,-0.02736 0.034662,-0.03466 0.020669,-0.01033 0.052984,0.01634 0.069324,0 0.00817,-0.0082 -0.00817,-0.02649 0,-0.03466 0.01634,-0.01634 0.052984,0.01634 0.069324,0 0.00817,-0.0082 -0.00817,-0.02649 0,-0.03466 0.017331,-0.01733 0.086655,0.01733 0.103986,0 0.0082,-0.0082 -0.0082,-0.02649 0,-0.03466 0.0082,-0.0082 0.02311,0 0.03466,0 0.01155,0 0.02311,0 0.03466,0 0.01155,0 0.02311,0 0.03466,0 0.01155,0 0.03466,-0.01155 0.03466,0 0,0.01155 -0.03466,-0.01155 -0.03466,0 0,0.01118 0.05969,0.05006 0.06932,0.06932 0,0.09243 -0.01155,-0.01155 0.03466,0.03466 0.0082,0.0082 -0.0082,0.02649 0,0.03466 0.0082,0.0082 0.02649,-0.0082 0.03466,0 0.0082,0.0082 -0.0052,0.02433 0,0.03466 0.0046,0.0092 0.09478,0.09939 0.103986,0.103986 0.01033,0.0052 0.02433,-0.0052 0.03466,0 0.01462,0.0073 0.02005,0.02736 0.03466,0.03466 0.01033,0.0052 0.02649,-0.0082 0.03466,0 0.01634,0.01634 -0.01634,0.05298 0,0.06932 0.0071,0.0071 0.09024,-0.0069 0.103987,0 0.01461,0.0073 0.02005,0.02735 0.03466,0.03466 0.01033,0.0052 0.02433,-0.0052 0.03466,0 0.144255,0.07213 -0.03705,-0.0024 0.03466,0.06932 0.0082,0.0082 0.02649,-0.0082 0.03466,0 0.0082,0.0082 -0.0082,0.02649 0,0.03466 0.01634,0.01634 0.05298,-0.01634 0.06932,0 0.0082,0.0082 -0.0082,0.02649 0,0.03466 0.01634,0.01634 0.05299,-0.01634 0.06932,0 0.0082,0.0082 -0.0082,0.02649 0,0.03466 0.0071,0.0071 0.09024,-0.0069 0.103987,0 0.01462,0.0073 0.02005,0.02736 0.03466,0.03466 0.01374,0.0069 0.0969,-0.0071 0.103986,0 0.0082,0.0082 -0.0082,0.02649 0,0.03466 0.01634,0.01634 0.04866,-0.01033 0.06932,0 0.01462,0.0073 0.167364,-0.22394 0.03466,0.03466 0.01374,0.0069 0.0969,-0.0071 0.103987,0 0.0082,0.0082 -0.0082,0.02649 0,0.03466 0.0082,0.0082 0.110986,-0.195842 0.03466,0 0.01462,0.0073 0.150033,-0.22395 0.03466,0.03466 0.01374,0.0069 0.0969,-0.0071 0.103986,0 0.01634,0.01634 -0.01634,0.05298 0,0.06932 0.0082,0.0082 0.02433,-0.0052 0.03466,0 0.01461,0.0073 0.167364,-0.22394 0.03466,0.03466 0.01034,0.0052 0.02649,-0.0082 0.03466,0 0.0082,0.0082 -0.0082,0.02649 0,0.03466 0.01634,0.01634 0.05298,-0.01634 0.06932,0 0.0082,0.0082 -0.0082,0.02649 0,0.03466 0.0082,0.0082 0.02649,-0.0082 0.03466,0 0.0082,0.0082 -0.0082,0.02649 0,0.03466 0.0082,0.0082 0.02311,0 0.03466,0 0.02411,0 0.160775,-0.0063 0.17331,0 0.01462,0.0073 0.02005,0.02736 0.03466,0.03466 0.01374,0.0069 0.0969,-0.0071 0.103987,0 0.0082,0.0082 -0.0082,0.02649 0,0.03466 0.0083,0.0083 0.130307,-0.0083 0.138648,0 0.0082,0.0082 -0.0082,0.02649 0,0.03466 0.0083,0.0083 0.130308,-0.0083 0.138648,0 0.0082,0.0082 -0.0082,0.02649 0,0.03466 0.01733,0.01733 0.08666,-0.01733 0.103987,0 0.0082,0.0082 -0.0082,0.02649 0,0.03466 0.0082,0.0082 0.02433,-0.0052 0.03466,0 0.01462,0.0073 0.02005,0.02735 0.03466,0.03466 0.01033,0.0052 0.02649,-0.0082 0.03466,0 0.0082,0.0082 -0.0082,0.02649 0,0.03466 0.0082,0.0082 0.02649,-0.0082 0.03466,0 0.0082,0.0082 -0.0082,0.02649 0,0.03466 0.0082,0.0082 0.02649,-0.0082 0.03466,0 0.0082,0.0082 -0.0082,0.02649 0,0.03466 0.0082,0.0082 0.02649,-0.0082 0.03466,0 0.0082,0.0082 0,0.02311 0,0.03466 0.01155,0 0.02433,-0.0052 0.03466,0 0.144256,0.07213 -0.03705,-0.0024 0.03466,0.06932 0.0082,0.0082 0.02433,-0.0052 0.03466,0 0.02923,0.01461 0.04009,0.05471 0.06932,0.06932 0.02067,0.01033 0.05298,-0.01634 0.06932,0 0.0082,0.0082 -0.0082,0.02649 0,0.03466 0.0082,0.0082 0.02649,0.0082 0.03466,0 0.0082,-0.0082 -0.0082,-0.02649 0,-0.03466 0.0011,-0.0011 0.09558,0 0.103986,0 0.01155,0 0.02649,-0.0082 0.03466,0 0.0082,0.0082 -0.0082,0.02649 0,0.03466 0.01634,0.01634 0.05298,-0.01634 0.06932,0 0.01634,0.01634 -0.01634,0.05298 0,0.06932 0.0014,0.0014 0.125919,0 0.138648,0 0.06932,0 0.138648,0 0.207973,0 0.01561,0 0.09344,0.0053 0.103986,0 0.01461,-0.0073 0.02005,-0.02736 0.03466,-0.03466 0.01033,-0.0052 0.02433,0.0052 0.03466,0 0.01461,-0.0073 0.02005,-0.02736 0.03466,-0.03466 0.01033,-0.0052 0.02311,0 0.03466,0 0.01155,0 0.02311,0 0.03466,0 0.01155,0 0.02311,0 0.03466,0 0.01155,0 0.02649,0.0082 0.03466,0 0.0082,-0.0082 -0.0082,-0.02649 0,-0.03466 0.0082,-0.0082 0.02433,0.0052 0.03466,0 0.01461,-0.0073 0.02005,-0.02736 0.03466,-0.03466 0.01033,-0.0052 0.02649,0.0082 0.03466,0 0.0082,-0.0082 -0.0082,-0.02649 0,-0.03466 0.0082,-0.0082 0.02433,0.0052 0.03466,0 0.01462,-0.0073 0.02005,-0.02735 0.03466,-0.03466 0.0188,-0.0094 0.129164,0.0095 0.138649,0 0.0082,-0.0082 -0.0082,-0.02649 0,-0.03466 0.0083,-0.0083 0.130307,0.0083 0.138648,0 0.0082,-0.0082 -0.0082,-0.02649 0,-0.03466 0.01634,-0.01634 0.05298,0.01634 0.06932,0 0.01634,-0.01634 -0.01634,-0.05298 0,-0.06932 0.0083,-0.0083 0.130308,0.0083 0.138649,0 0.0082,-0.0082 -0.0082,-0.02649 0,-0.03466 0.01634,-0.01634 0.0087,-0.184864 0.0087,-0.207973 l 0,-0.06932 0,0.03466 0.103986,0 0.03466,0.03466 0.03466,-0.03466 0.173311,0 0.03466,-0.03466 0.17331,0 0.03466,-0.06932 0.138649,0 0.138648,0 0.03466,-0.03466 0.207973,0 0.03466,-0.06932 0,-0.03466 0.103986,0 c 0.0082,-0.0082 0.05246,0.181483 0.06066,0.173313 0.0082,-0.0082 0.02433,0.0052 0.03466,0 0.01462,-0.0073 0.02005,-0.02736 0.03466,-0.03466 0.01033,-0.0052 0.02649,0.0082 0.03466,0 0.0082,-0.0082 -0.0082,-0.02649 0,-0.03466 0.0082,-0.0082 0.02649,0.0082 0.03466,0 0.0082,-0.0082 -0.0082,-0.02649 0,-0.03466 0.0082,-0.0082 0.02649,0.0082 0.03466,0 0.0082,-0.0082 -0.0082,-0.02649 0,-0.03466 0.0082,-0.0082 0.02649,0.0082 0.03466,0 0.0082,-0.0082 -0.0082,-0.02649 0,-0.03466 0.0082,-0.0082 0.02649,0.0082 0.03466,0 0.0082,-0.0082 -0.0082,-0.02649 0,-0.03466 0.02312,-0.02312 0.0462,0.02312 0.06932,0 0.0082,-0.0082 -0.0082,-0.02649 0,-0.03466 0.0011,-0.0011 0.09558,0 0.103986,0 0.01155,0 0.02649,-0.0082 0.03466,0 0.0082,0.0082 0.0082,0.02649 0,0.03466 -0.0082,0.0082 -0.02311,0 -0.03466,0 -0.01155,0 -0.02649,0.0082 -0.03466,0 -0.04757,-0.04758 0.06117,-0.03466 0.06932,-0.03466 0.01813,0 0.129535,-0.0046 0.138649,0 0.01461,0.0073 0.02005,0.02736 0.03466,0.03466 0.01055,0.0053 0.08838,0 0.103986,0 0.288851,0 0.577702,0 0.866553,0 0.103986,0 0.207972,0 0.311959,0 0.01155,0 0.02311,0 0.03466,0 0.01155,0 0.02649,0.0082 0.03466,0 0.0082,-0.0082 -0.0082,-0.02649 0,-0.03466 0.01733,-0.01733 0.08666,0.01733 0.103986,0 0.0082,-0.0082 -0.0082,-0.02649 0,-0.03466 0.01733,-0.01733 0.08666,0.01733 0.103986,0 0.0083,-0.0083 -0.0083,-0.130307 0,-0.138648 0.01634,-0.01634 0.04866,0.01033 0.06933,0 0.01461,-0.0073 0.02005,-0.02736 0.03466,-0.03466 0.02067,-0.01033 0.05298,0.01634 0.06932,0 0.0082,-0.0082 -0.0082,-0.02649 0,-0.03466 0.0082,-0.0082 0.02649,0.0082 0.03466,0 0.0082,-0.0082 -0.0082,-0.02649 0,-0.03466 0.0014,-0.0014 0.125919,0 0.138648,0 0.01155,0 0.02649,-0.0082 0.03466,0 0.0082,0.0082 0.0052,0.02433 0,0.03466 -0.0073,0.01461 -0.02005,0.02735 -0.03466,0.03466 -0.01033,0.0052 -0.04622,0 -0.03466,0 0.196419,0 0.01155,-0.02311 0.06932,0.03466 0.01634,0.01634 0.05298,-0.01634 0.06933,0 0.05124,0.05124 -0.104174,0.0519 0,0.103986 0.0188,0.0094 0.129164,-0.0095 0.138648,0 0.0082,0.0082 -0.0082,0.02649 0,0.03466 0.0011,0.0011 0.09558,0 0.103986,0 0.589256,0 0.753901,-0.355286 1.343156,-0.355286 0.127095,0 0.6788,0.355286 0.805894,0.355286 0.02411,0 0.160776,-0.0063 0.173311,0 0.01461,0.0073 0.02005,0.02736 0.03466,0.03466 0.01033,0.0052 0.02311,0 0.03466,0 0.01155,0 0.02311,0 0.03466,0 0.06932,0 0.138648,0 0.207973,0 0.150202,0 0.300404,0 0.450607,0 0.02457,0 0.199011,-0.0045 0.207972,0 0.01462,0.0073 0.02005,0.02736 0.03466,0.03466 0.0188,0.0094 0.129164,-0.0095 0.138648,0 0.0082,0.0082 -0.0082,0.02649 0,0.03466 0.0082,0.0082 0.02311,0 0.03466,0 0.02411,0 0.160776,-0.0063 0.173311,0 0.01461,0.0073 0.02005,0.02735 0.03466,0.03466 0.0091,0.0046 0.120523,0 0.138648,0 0.11554,0 0.231081,0 0.346621,0 0.09243,0 0.184865,0 0.277297,0 0.01155,0 0.02311,0 0.03466,0 0.01155,0 0.02649,-0.0082 0.03466,0 0.0082,0.0082 -0.0082,0.02649 0,0.03466 0.0082,0.0082 0.02311,0 0.03466,0 0.01155,0 0.02311,0 0.03466,0 0.138649,0 0.277297,0 0.415945,0 0.09243,0 0.184865,0 0.277297,0 0.01155,0 0.02311,0 0.03466,0 0.01155,0 0.02649,-0.0082 0.03466,0 0.0082,0.0082 -0.0082,0.02649 0,0.03466 0.0082,0.0082 0.02311,0 0.03466,0 0.01155,0 0.02311,0 0.03466,0 0.17331,0 0.34662,0 0.519931,0 0.681688,0 1.424035,-0.311959 2.105723,-0.311959 l 0.277296,0 0.03466,0 0.03466,0 0,0.03466 0.03466,0 0.03466,0 0.277297,0 0.03466,0 0.03466,0 0,0.03466 0.03466,0 0.03466,0 0.381283,0 0.03466,0 0.03466,0 0.03466,0.03466 0.03466,0 0.03466,0 0.17331,0 c 0.207973,0 0.355286,0.311959 0.563259,0.311959 0.05777,0 0.11554,0 0.17331,0 0.01155,0 0.02649,0.0082 0.03466,0 0.0082,-0.0082 -0.0082,-0.02649 0,-0.03466 0.0082,-0.0082 0.02311,0 0.03466,0 0.02457,0 0.19901,0.0045 0.207972,0 0.01461,-0.0073 0.02005,-0.02736 0.03466,-0.03466 0.01033,-0.0052 0.02311,0 0.03466,0 0.01155,0 0.02311,0 0.03466,0 0.06933,0 0.138649,0 0.207973,0 0.01155,0 0.02311,0 0.03466,0 0.01155,0 0.02649,0.0082 0.03466,0 0.0082,-0.0082 -0.0082,-0.02649 0,-0.03466 0.0011,-0.0011 0.09558,0 0.103986,0 0.219527,0 0.54304,0.04333 0.762566,0.04333 l 0.277297,0 0.03466,0 0.03466,0 0,-0.03466 0.173311,0 0.03466,0 0,-0.03466 0.138648,0 0,-0.03466 0.103987,0 0,-0.03466 0.03466,0 0,-0.06932 0.03466,0 0,-0.06932 0.03466,0 0,-0.06932 0.03466,0 0,-0.03466 0.03466,0 -0.03466,0 c 0.174848,0.01833 0.414313,0.12712 0.485269,0 l 0.03466,0 0.03466,0 0.01733,0.138646 0.01733,-0.103986 0.03466,0.03466 0.06932,0 0,0.03466 0.103986,0 0.03466,0.03466 0.173311,0 0,0.03466 0.138648,0 0.06932,0 0.03466,0 -0.03466,0 0.103987,0 0.03466,0 0.03466,0 0,-0.03466 1.265167,-50.0520686 -36.1698984,-0.03466 -0.6845768,49.9914096"
       id="path3186"
       inkscape:connector-curvature="0"
       transform="translate(0,988.3622)"
       sodipodi:nodetypes="csscccscccccsssssscccscccssssscsssscccscccccssssccscscsccscscccccccsccssscsssscccccccsccccccsscsssscssssssccccccscccccsccccsssccccsscsscccsccccccccscccccsccccssssscscccccccsccccccsccccccccccccccsccccscccsccccccccccccccccccccccccscccsccssssccccsssccccccccccccssccscccccccccccccccccccccccccccccscsccscsccssssccccccccscccscccsscsccsssccssssccccsccssssccsssssccssssccccccccccccccccccsssccsccssssccsscccccccccccccccccccccccccccccccccccccccccccc" />
    <path
       style="fill:#ffffff;fill-opacity:1;stroke:none"
       d="m -0.04737072,1035.8991 0,0.1386 0,-0.1386 0.03466,0.1733 0.06932,0 0,0.035 0.03466,0 0,0.035 0.03466,0 0,0.069 0.103986,0 0.03466,0.035 0.207973,0 0.03466,0 0.03466,0 -0.03466,0 0.06932,0 0.03466,0 0,-0.035 0.103986,0 0,-0.035 0.03466,0 0,-0.035 0.173311,0 0,-0.035 0.03466,0 0.03466,0 0.34662102,0 -0.077992,-0.3553 0.1473118,0.3553 0,-0.035 0.03466,0 0.03466,0 0.207972,0 0.03466,0 0.03466,0 0.03466,-0.035 0.138649,0 0,-0.035 0.06932,0 0,-0.035 0.103986,0 0.03466,-0.035 0,-0.035 0.03466,0 0.03466,0 0.03466,0 -0.03466,0 0.138648,0.035 0,0.035 0.03466,0 0,0.035 0.03466,0 0,0.035 0.03466,0 0,0.035 0.103987,0 0,0.035 0.06932,0 0,0.035 0.06932,0 0,0.035 0.103986,0 0,0.035 0.138648,0 0,0.035 0.138649,0 0,0.035 0.06932,0 0,0.035 0.03466,0 0.207972,0 0.03466,0 0,0.035 0.03466,0 0.173311,0 0.242635,0 0.03466,0 0,-0.035 0.03466,-0.035 0.17331,0 0,-0.035 0.03466,0 0.03466,-0.035 0.06932,0 0,-0.035 0.06932,0 0,-0.035 0.03466,0 0.03466,-0.035 0.173311,0 0,-0.035 0.17331,0 0.03466,0 0,-0.035 0.03466,0 0.03466,0 0.415945,0 0.138649,0 0,-0.035 0.03466,0 0.03466,0 0.9792033,-0.156 0.4766047,0.156 0.03466,0 0.03466,0 0,-0.035 0.17331,0 0.03466,-0.035 c 0.02394,-0.012 0.039827,-0.326 0.051994,-0.338 0.0082,-0.01 -0.0082,-0.026 0,-0.035 0.0083,-0.01 0.130307,0.01 0.138648,0 0.0082,-0.01 -0.0082,-0.026 0,-0.035 0.01634,-0.016 0.05298,0.016 0.06932,0 0.0082,-0.01 -0.0082,-0.026 0,-0.035 0.01733,-0.017 0.08666,0.017 0.103987,0 0.0082,-0.01 -0.0082,-0.026 0,-0.035 0.01733,-0.017 0.08666,0.017 0.103986,0 0.0082,-0.01 -0.0082,-0.026 0,-0.035 0.01634,-0.016 0.05298,0.016 0.06932,0 0.0082,-0.01 -0.0082,-0.027 0,-0.035 0.01733,-0.017 0.08665,0.017 0.103987,0 0.0082,-0.01 -0.0082,-0.026 0,-0.035 0.0082,-0.01 0.02311,0 0.03466,0 0.09243,0 0.36684,0.312 0.459272,0.312 0.115541,0 0.049105,-0.312 0.164645,-0.312 0.01813,0 0.129535,0 0.138649,0 0.01462,0.01 0.02005,0.027 0.03466,0.035 0.02105,0.011 0.186925,-0.011 0.207972,0 0.01461,0.01 0.02005,0.027 0.03466,0.035 0.009,0 0.183404,0 0.207973,0 0.01273,0 0.137253,0 0.138648,0 0.0082,-0.01 -0.0082,-0.027 0,-0.035 0.0082,-0.01 0.02311,0 0.03466,0 0.01155,0 0.02649,-0.01 0.03466,0 0.0082,0.01 -0.0082,0.027 0,0.035 0.01733,0.017 0.08666,-0.017 0.103987,0 0.0082,0.01 -0.0082,0.026 0,0.035 0.0082,0.01 0.02649,-0.01 0.03466,0 0.0082,0.01 -0.0082,0.026 0,0.035 0.0035,0 0.10052,0 0.103986,0 0.01634,-0.016 -0.01634,-0.053 0,-0.069 0.01634,-0.016 0.05298,0.016 0.06932,0 0.0082,-0.01 -0.0082,-0.027 0,-0.035 0.0082,-0.01 0.02433,0.01 0.03466,0 0.01461,-0.01 0.02005,-0.027 0.03466,-0.035 0.0188,-0.01 0.129164,0.01 0.138648,0 0.0082,-0.01 -0.0082,-0.026 0,-0.035 0.01634,-0.016 0.05298,0.016 0.06932,0 0.0082,-0.01 -0.0082,-0.026 0,-0.035 0.0082,-0.01 0.02433,0.01 0.03466,0 0.01461,-0.01 0.02005,-0.027 0.03466,-0.035 0.02067,-0.01 0.05298,0.016 0.06932,0 0.0082,-0.01 -0.0082,-0.026 0,-0.035 0.01634,-0.016 0.05298,0.016 0.06932,0 0.0082,-0.01 -0.0082,-0.026 0,-0.035 0.01733,-0.017 0.08666,0.017 0.103987,0 0.0082,-0.01 -0.0082,-0.026 0,-0.035 0.0082,-0.01 0.02311,0 0.03466,0 0.01155,0 0.02311,0 0.03466,0 0.01155,0 0.02311,0 0.03466,0 0.01155,0 0.03466,-0.012 0.03466,0 0,0.012 -0.03466,-0.012 -0.03466,0 0,0.011 0.05969,0.05 0.06932,0.069 0,0.092 -0.01155,-0.012 0.03466,0.035 0.0082,0.01 -0.0082,0.027 0,0.035 0.0082,0.01 0.02649,-0.01 0.03466,0 0.0082,0.01 -0.0052,0.024 0,0.035 0.0046,0.01 0.09478,0.099 0.103986,0.104 0.01033,0.01 0.02433,-0.01 0.03466,0 0.01462,0.01 0.02005,0.027 0.03466,0.035 0.01033,0.01 0.02649,-0.01 0.03466,0 0.01634,0.016 -0.01634,0.053 0,0.069 0.0071,0.01 0.09024,-0.01 0.103987,0 0.01461,0.01 0.02005,0.027 0.03466,0.035 0.01033,0.01 0.02433,-0.01 0.03466,0 0.144255,0.072 -0.03705,0 0.03466,0.069 0.0082,0.01 0.02649,-0.01 0.03466,0 0.0082,0.01 -0.0082,0.027 0,0.035 0.01634,0.016 0.05298,-0.016 0.06932,0 0.0082,0.01 0.16511,-0.4929 0.17331,-0.4849 0.01634,0.016 -0.12032,0.5039 -0.10399,0.5199 0.0082,0.01 -0.0082,0.026 0,0.035 0.0071,0.01 0.09024,-0.01 0.103987,0 0.01462,0.01 0.02005,0.027 0.03466,0.035 0.01374,0.01 0.0969,-0.01 0.103986,0 0.0082,0.01 -0.0082,0.027 0,0.035 0.01634,0.016 0.22197,-0.4259 0.24263,-0.4159 0.01462,0.01 -0.15326,0.4429 -0.13865,0.4509 0.01374,0.01 0.0969,-0.01 0.103987,0 0.0082,0.01 -0.0082,0.026 0,0.035 0.0082,0.01 0.02433,-0.01 0.03466,0 0.01462,0.01 0.02005,0.027 0.03466,0.035 0.01374,0.01 -0.102407,0.2326 -0.09532,0.2426 l 0,0.069 0.03466,0 0.03466,0.035 0.03466,0 0,0.035 0.06932,0 0,0.035 0.03466,0 0,0.035 0.03466,0 0.17331,0 0.03466,0.035 0.103987,0 0,0.035 0.138648,0 0,0.035 0.138648,0 0,0.035 0.103987,0 0,0.035 0.03466,0 0.03466,0.035 0.03466,0 0,0.035 c 0.0082,0.01 0.225797,-0.2526 0.233967,-0.2426 0.0082,0.01 -0.0082,0.026 0,0.035 0.0082,0.01 0.02649,-0.01 0.03466,0 0.0082,0.01 -0.0082,0.026 0,0.035 0.0082,0.01 0.02649,-0.01 0.03466,0 0.0082,0.01 0,0.023 0,0.035 0.01155,0 0.02433,-0.01 0.03466,0 0.144256,0.072 -0.03705,0 0.03466,0.069 0.0082,0.01 0.02433,-0.01 0.03466,0 0.02923,0.015 0.04009,0.055 0.06932,0.069 0.02067,0.01 0.05298,-0.016 0.06932,0 0.0082,0.01 -0.0082,0.026 0,0.035 0.0082,0.01 0.02649,0.01 0.03466,0 0.0082,-0.01 -0.0082,-0.026 0,-0.035 0.0011,0 0.09558,0 0.103986,0 0.01155,0 0.02649,-0.01 0.03466,0 0.0082,0.01 -0.0082,0.026 0,0.035 0.01634,0.016 0.05298,-0.016 0.06932,0 0.01634,0.016 -0.01634,0.053 0,0.069 0.0014,0 0.125919,0 0.138648,0 0.06932,0 0.138648,0 0.207973,0 0.01561,0 0.09344,0.01 0.103986,0 0.01461,-0.01 0.02005,-0.027 0.03466,-0.035 0.01033,-0.01 0.02433,0.01 0.03466,0 0.01461,-0.01 0.02005,-0.027 0.03466,-0.035 0.01033,-0.01 0.02311,0 0.03466,0 0.01155,0 0.02311,0 0.03466,0 0.01155,0 0.02311,0 0.03466,0 0.01155,0 0.02649,0.01 0.03466,0 0.0082,-0.01 -0.0082,-0.026 0,-0.035 0.0082,-0.01 0.02433,0.01 0.03466,0 0.01461,-0.01 0.02005,-0.027 0.03466,-0.035 0.01033,-0.01 0.02649,0.01 0.03466,0 0.0082,-0.01 -0.0082,-0.026 0,-0.035 0.0082,-0.01 0.02433,0.01 0.03466,0 0.01462,-0.01 0.02005,-0.027 0.03466,-0.035 0.0188,-0.01 0.129164,0.01 0.138649,0 0.0082,-0.01 -0.0082,-0.026 0,-0.035 0.0083,-0.01 0.130307,0.01 0.138648,0 0.0082,-0.01 -0.0082,-0.027 0,-0.035 0.01634,-0.016 0.05298,0.016 0.06932,0 0.01634,-0.016 -0.01634,-0.053 0,-0.069 0.0083,-0.01 0.130308,0.01 0.138649,0 0.0082,-0.01 -0.0082,-0.026 0,-0.035 0.01634,-0.016 0.05298,0.016 0.06932,0 0.01634,-0.016 -0.02311,-0.069 0,-0.069 0.01155,0 -0.0082,0.026 0,0.035 0.0071,0.01 0.09024,-0.01 0.103986,0 0.01462,0.01 0.02005,0.027 0.03466,0.035 0.06162,0.031 0.01926,-0.019 0.03466,-0.035 0.01217,-0.012 0.149368,0.012 0.173311,0 0.01461,-0.01 0.02005,-0.027 0.03466,-0.035 0.02187,-0.011 0.151443,0.011 0.17331,0 0.144256,-0.072 -0.03705,0 0.03466,-0.069 0.0014,0 0.12592,0 0.138649,0 0.01813,0 0.129534,0 0.138648,0 0.01462,-0.01 0.02005,-0.027 0.03466,-0.035 0.02105,-0.01 0.186925,0.011 0.207973,0 0.009,0 0.05857,-0.045 0.03466,-0.069 -0.0069,-0.01 -0.105195,0.018 0,-0.035 0.01374,-0.01 0.0969,0.01 0.103986,0 0.0082,-0.01 -0.0082,-0.026 0,-0.035 0.0082,-0.01 0.02433,0.01 0.03466,0 0.01462,-0.01 0.02005,-0.027 0.03466,-0.035 0.01033,-0.01 0.02649,0.01 0.03466,0 0.0082,-0.01 -0.0082,-0.026 0,-0.035 0.0082,-0.01 0.02649,0.01 0.03466,0 0.0082,-0.01 -0.0082,-0.027 0,-0.035 0.0082,-0.01 0.02649,0.01 0.03466,0 0.0082,-0.01 -0.0082,-0.026 0,-0.035 0.0082,-0.01 0.02649,0.01 0.03466,0 0.0082,-0.01 -0.0082,-0.026 0,-0.035 0.0082,-0.01 0.02649,0.01 0.03466,0 0.0082,-0.01 -0.0082,-0.026 0,-0.035 0.02312,-0.023 0.0462,0.023 0.06932,0 0.0082,-0.01 -0.0082,-0.027 0,-0.035 0.0011,0 0.09558,0 0.103986,0 0.01155,0 0.02649,-0.01 0.03466,0 0.0082,0.01 0.0082,0.027 0,0.035 -0.0082,0.01 -0.02311,0 -0.03466,0 -0.01155,0 -0.02649,0.01 -0.03466,0 -0.04757,-0.048 0.06117,-0.035 0.06932,-0.035 0.01813,0 0.129535,0 0.138649,0 0.01461,0.01 0.02005,0.027 0.03466,0.035 0.01055,0.01 0.08838,0 0.103986,0 0.288851,0 0.577702,0 0.866553,0 0.103986,0 0.207972,0 0.311959,0 0.01155,0 0.02311,0 0.03466,0 0.01155,0 0.02649,0.01 0.03466,0 0.0082,-0.01 -0.0082,-0.027 0,-0.035 0.01733,-0.017 0.08666,0.017 0.103986,0 0.0082,-0.01 -0.0082,-0.026 0,-0.035 0.01733,-0.017 0.08666,0.017 0.103986,0 0.0083,-0.01 -0.0083,-0.1303 0,-0.1387 0.01634,-0.016 0.04866,0.01 0.06933,0 0.01461,-0.01 0.02005,-0.027 0.03466,-0.035 0.02067,-0.01 0.05298,0.016 0.06932,0 0.0082,-0.01 -0.0082,-0.026 0,-0.035 0.0082,-0.01 0.02649,0.01 0.03466,0 0.0082,-0.01 -0.0082,-0.026 0,-0.035 0.0014,0 0.125919,0 0.138648,0 0.01155,0 0.02649,-0.01 0.03466,0 0.0082,0.01 0.0052,0.024 0,0.035 -0.0073,0.015 -0.02005,0.027 -0.03466,0.035 -0.01033,0.01 -0.04622,0 -0.03466,0 0.196419,0 0.01155,-0.023 0.06932,0.035 0.01634,0.016 0.05298,-0.016 0.06933,0 0.05124,0.051 -0.104174,0.052 0,0.104 0.0188,0.01 0.129164,-0.01 0.138648,0 0.0082,0.01 -0.0082,0.026 0,0.035 0.0011,0 0.09558,0 0.103986,0 0.589256,0 1.178512,0 1.767767,0 0.127095,0 0.254189,0 0.381283,0 0.02411,0 0.160776,-0.01 0.173311,0 0.01461,0.01 0.02005,0.027 0.03466,0.035 0.01033,0.01 0.02311,0 0.03466,0 0.01155,0 0.02311,0 0.03466,0 0.06932,0 0.225303,-0.8925 0.294628,-0.8925 0.150202,0 0.213749,0.8925 0.363952,0.8925 0.02457,0 0.199011,0 0.207972,0 0.01462,0.01 0.02005,0.027 0.03466,0.035 0.0188,0.01 0.129164,-0.01 0.138648,0 0.0082,0.01 -0.0082,0.026 0,0.035 0.0082,0.01 0.02311,0 0.03466,0 0.02411,0 0.160776,-0.01 0.173311,0 0.01461,0.01 0.02005,0.027 0.03466,0.035 0.0091,0 0.120523,0 0.138648,0 0.11554,0 0.231081,0 0.346621,0 0.09243,0 0.184865,0 0.277297,0 0.01155,0 0.02311,0 0.03466,0 0.01155,0 0.02649,-0.01 0.03466,0 0.0082,0.01 -0.0082,0.026 0,0.035 0.0082,0.01 0.02311,0 0.03466,0 0.01155,0 0.02311,0 0.03466,0 0.138649,0 0.277297,0 0.415945,0 0.09243,0 0.184865,0 0.277297,0 0.01155,0 0.02311,0 0.03466,0 0.01155,0 0.02649,-0.01 0.03466,0 0.0082,0.01 -0.0082,0.026 0,0.035 0.0082,0.01 0.02311,0 0.03466,0 0.01155,0 0.02311,0 0.03466,0 0.17331,0 0.537262,0.4593 0.710573,0.4593 0.681688,0 1.172734,-0.4593 1.854422,-0.4593 0.09243,0 0.184864,0 0.277296,0 0.01156,0 0.02311,0 0.03466,0 0.01155,0 0.02649,-0.01 0.03466,0 0.0082,0.01 -0.0082,0.026 0,0.035 0.0082,0.01 0.02311,0 0.03466,0 0.01155,0 0.02311,0 0.03466,0 0.09243,0 0.184864,0 0.277297,0 0.01155,0 0.02311,0 0.03466,0 0.01155,0 0.02649,-0.01 0.03466,0 0.0082,0.01 -0.0082,0.026 0,0.035 0.0082,0.01 0.02311,0 0.03466,0 0.01155,0 0.02311,0 0.03466,0 0.127094,0 0.254189,0 0.381283,0 0.01155,0 0.02311,0 0.03466,0 0.01155,0 0.02433,-0.01 0.03466,0 0.01461,0.01 0.02005,0.027 0.03466,0.035 0.01034,0.01 0.02311,0 0.03466,0 0.01156,0 0.02311,0 0.03466,0 0.05777,0 0.11554,0 0.17331,0 0.207973,0 0.415945,0 0.623918,0 0.05777,0 0.11554,0 0.17331,0 0.01155,0 0.02649,0.01 0.03466,0 0.0082,-0.01 -0.0082,-0.026 0,-0.035 0.0082,-0.01 0.02311,0 0.03466,0 0.02457,0 0.19901,0 0.207972,0 0.01461,-0.01 0.02005,-0.027 0.03466,-0.035 0.01033,-0.01 0.02311,0 0.03466,0 0.01155,0 0.02311,0 0.03466,0 0.06933,0 0.138649,0 0.207973,0 0.01155,0 0.02311,0 0.03466,0 0.01155,0 0.02649,0.01 0.03466,0 0.0082,-0.01 -0.0082,-0.026 0,-0.035 0.0011,0 0.09558,0 0.103986,0 0.219527,0 0.54304,0.043 0.762566,0.043 l 0.277297,0 0.03466,0 0.03466,0 0,-0.035 0.173311,0 0.03466,0 0,-0.035 0.138648,0 0,-0.035 0.103987,0 0,-0.035 0.03466,0 0,-0.069 0.03466,0 0,-0.069 0.03466,0 0,-0.069 0.03466,0 0,-0.035 0.03466,0 -0.03466,0 c 0.174848,0.018 0.414313,0.1271 0.485269,0 l 0.03466,0 0.03466,0 0.01733,0.1386 0.01733,-0.104 0.03466,0.035 0.06932,0 0,0.035 0.103986,0 0.03466,0.035 0.173311,0 0,0.035 0.138648,0 0.06932,0 0.03466,0 -0.03466,0 0.103987,0 0.03466,0 0.03466,0 0,-0.035 1.265208,-50.05199 -36.1699,-0.033 -0.684576,49.99139"
       id="path3186-0"
       inkscape:connector-curvature="0"
       sodipodi:nodetypes="ccccccccccccccccccccccccccccccccccccccccccccccccccccccccccccccccccccccccccccccccccccccccccccccccccccccccccccccccscccccsccccsssccccsscsscccsccccccccscccccsccccssssscscccccccsccccccsccccccccccccccccccccccccccccccccccccccccccccccccscccsccssssccccsssccccccccccccssccsscccsccccscccccccccccccccccccscsccscsccssssccccccccscccscccsscsccsssccssssccccsccssssccsssssccssssssccssssccssssccsssssccsccssssccsscccccccccccccccccccccccccccccccccccccccccccc" />
  </g>
</svg>
