<?xml version="1.0" encoding="UTF-8"?>
<svg version="1.1" xmlns="http://www.w3.org/2000/svg" width="32" height="65">
<path d="M0 0 C1.09570312 0.10183594 2.19140625 0.20367187 3.3203125 0.30859375 C4.16335937 0.39238281 5.00640625 0.47617188 5.875 0.5625 C5.875 1.2225 5.875 1.8825 5.875 2.5625 C-0.22793654 3.63648045 -6.18765567 3.71198817 -12.375 3.6875 C-13.36757812 3.69136719 -14.36015625 3.69523437 -15.3828125 3.69921875 C-16.33414062 3.69792969 -17.28546875 3.69664063 -18.265625 3.6953125 C-19.12704102 3.69418457 -19.98845703 3.69305664 -20.87597656 3.69189453 C-23.125 3.5625 -23.125 3.5625 -26.125 2.5625 C-26.125 1.9025 -26.125 1.2425 -26.125 0.5625 C-24.21074219 0.57990234 -24.21074219 0.57990234 -22.2578125 0.59765625 C-20.58854313 0.60703417 -18.91927217 0.61613437 -17.25 0.625 C-16.40824219 0.63337891 -15.56648437 0.64175781 -14.69921875 0.65039062 C-13.89355469 0.65361328 -13.08789062 0.65683594 -12.2578125 0.66015625 C-11.51418457 0.66539307 -10.77055664 0.67062988 -10.00439453 0.67602539 C-6.36690459 0.45630172 -3.92943435 -0.37622244 0 0 Z " fill="#A8A8A8" transform="translate(26.125,14.4375)"/>
<path d="M0 0 C2.8203125 0.0234375 2.8203125 0.0234375 6.125 0.375 C7.22070312 0.48585938 8.31640625 0.59671875 9.4453125 0.7109375 C10.28835937 0.80632813 11.13140625 0.90171875 12 1 C12 1.66 12 2.32 12 3 C9.69 3.33 7.38 3.66 5 4 C5 3.34 5 2.68 5 2 C2.69 2 0.38 2 -2 2 C-1.34 1.34 -0.68 0.68 0 0 Z " fill="#868686" transform="translate(20,14)"/>
</svg>
