<?xml version="1.0" encoding="UTF-8" standalone="no"?>
<!-- Created with Inkscape (http://www.inkscape.org/) -->

<svg
   xmlns:dc="http://purl.org/dc/elements/1.1/"
   xmlns:cc="http://creativecommons.org/ns#"
   xmlns:rdf="http://www.w3.org/1999/02/22-rdf-syntax-ns#"
   xmlns:svg="http://www.w3.org/2000/svg"
   xmlns="http://www.w3.org/2000/svg"
   xmlns:sodipodi="http://sodipodi.sourceforge.net/DTD/sodipodi-0.dtd"
   xmlns:inkscape="http://www.inkscape.org/namespaces/inkscape"
   width="80"
   height="64"
   id="svg2"
   version="1.1"
   inkscape:version="0.48.5 r10040"
   sodipodi:docname="void_hatching_horz_trail_diag_1.svg">
  <defs
     id="defs4" />
  <sodipodi:namedview
     id="base"
     pagecolor="#ffffff"
     bordercolor="#666666"
     borderopacity="1.0"
     inkscape:pageopacity="0.0"
     inkscape:pageshadow="2"
     inkscape:zoom="12.75"
     inkscape:cx="40"
     inkscape:cy="32"
     inkscape:document-units="px"
     inkscape:current-layer="layer1"
     showgrid="true"
     inkscape:window-width="1920"
     inkscape:window-height="1014"
     inkscape:window-x="0"
     inkscape:window-y="27"
     inkscape:window-maximized="1"
     inkscape:snap-grids="false">
    <inkscape:grid
       type="xygrid"
       id="grid3001"
       empspacing="8"
       visible="true"
       enabled="true"
       snapvisiblegridlinesonly="true" />
  </sodipodi:namedview>
  <metadata
     id="metadata7">
    <rdf:RDF>
      <cc:Work
         rdf:about="">
        <dc:format>image/svg+xml</dc:format>
        <dc:type
           rdf:resource="http://purl.org/dc/dcmitype/StillImage" />
        <dc:title></dc:title>
      </cc:Work>
    </rdf:RDF>
  </metadata>
  <g
     inkscape:label="Layer 1"
     inkscape:groupmode="layer"
     id="layer1"
     transform="translate(0,-988.3622)">
    <path
       style="opacity:0.8;color:#000000;fill:none;stroke:#bf0000;stroke-width:1;stroke-linecap:round;stroke-linejoin:round;stroke-miterlimit:4;stroke-opacity:1;stroke-dasharray:none;stroke-dashoffset:0;marker:none;visibility:visible;display:inline;overflow:visible;enable-background:accumulate"
       d="m 63.607843,0.70588235 c -0.104575,0.10457517 -0.221338,0.19824154 -0.313725,0.31372545 -0.03266,0.04083 0.02338,0.1100954 0,0.1568628 -0.01653,0.03307 -0.0619,0.045362 -0.07843,0.078431 -0.01169,0.023384 0.01849,0.059945 0,0.078431 -0.01849,0.018486 -0.05994,-0.018486 -0.07843,0 -0.01849,0.018486 0.01849,0.059945 0,0.078431 -0.01849,0.018487 -0.05505,-0.011692 -0.07843,0 -0.03307,0.016535 -0.05229,0.052288 -0.07843,0.078431 -0.02614,0.026144 -0.0619,0.045362 -0.07843,0.078431 -0.01169,0.023384 0.01849,0.059945 0,0.078431 -0.01849,0.018487 -0.05994,-0.018486 -0.07843,0 -0.01849,0.018487 0.01169,0.055048 0,0.078431 -0.01653,0.03307 -0.0619,0.045362 -0.07843,0.078431 -0.01169,0.023384 0.01849,0.059945 0,0.078431 -0.162277,0.1622773 0.0063,-0.2479812 -0.156863,0.078431 -0.01169,0.023384 0.01169,0.055048 0,0.078431 -0.04706,0.094118 -0.188235,0.1411765 -0.235294,0.2352941 -0.01169,0.023384 0.01849,0.059945 0,0.078431 -0.162277,0.1622773 0.0063,-0.2479812 -0.156863,0.078431 -0.01169,0.023384 0.01169,0.055048 0,0.078431 -0.03307,0.066139 -0.123793,0.090724 -0.156862,0.1568628 -0.01169,0.023384 0.01849,0.059945 0,0.078431 -0.03697,0.036973 -0.11989,-0.036973 -0.156863,0 -0.03697,0.036973 0.03697,0.1198899 0,0.1568628 -0.01849,0.018486 -0.05994,-0.018486 -0.07843,0 -0.01849,0.018486 0.01849,0.059945 0,0.078431 -0.05328,0.05328 -0.155982,-0.080195 -0.235295,0.078431 -0.02338,0.046768 0.03697,0.1198899 0,0.1568628 -0.01849,0.018486 -0.05994,-0.018487 -0.07843,0 -0.01849,0.018486 0.01849,0.059945 0,0.078431 -0.01849,0.018487 -0.05994,-0.018486 -0.07843,0 -0.01849,0.018487 0.01169,0.055048 0,0.078431 -0.0075,0.015013 -0.298712,0.3062188 -0.313726,0.3137255 -0.02338,0.011692 -0.05994,-0.018486 -0.07843,0 -0.05229,0.052288 0.05229,0.1045752 0,0.1568628 -0.03697,0.036973 -0.11989,-0.036973 -0.156863,0 -0.03697,0.036973 0.03697,0.1198898 0,0.1568627 -0.03697,0.036973 -0.11989,-0.036973 -0.156863,0 -0.01849,0.018486 0.01849,0.059945 0,0.078431 -0.01849,0.018486 -0.05994,-0.018487 -0.07843,0 -0.01849,0.018486 0.01849,0.059945 0,0.078431 -0.01849,0.018487 -0.05994,-0.018486 -0.07843,0 -0.01849,0.018487 0.01849,0.059945 0,0.078431 -0.01849,0.018486 -0.05994,-0.018486 -0.07843,0 -0.01849,0.018486 0.01169,0.055048 0,0.078431 -0.01653,0.03307 -0.0619,0.045362 -0.07843,0.078431 -0.01169,0.023384 0.01849,0.059945 0,0.078431 -0.01849,0.018486 -0.05994,-0.018486 -0.07843,0 -0.01849,0.018486 0.01849,0.059945 0,0.078431 -0.162277,0.1622773 0.0063,-0.2479812 -0.156862,0.078431 -0.01169,0.023384 0.01849,0.059945 0,0.078431 -0.01849,0.018486 -0.05994,-0.018486 -0.07843,0 -0.03697,0.036973 0.02338,0.1100953 0,0.1568627 -0.01653,0.03307 -0.05229,0.052288 -0.07843,0.078431 -0.02614,0.026144 -0.04536,0.061897 -0.07843,0.078431 -0.02338,0.011692 -0.05994,-0.018486 -0.07843,0 -0.01849,0.018486 0.01849,0.059945 0,0.078431 -0.01849,0.018487 -0.05994,-0.018486 -0.07843,0 -0.01849,0.018487 0.01849,0.059945 0,0.078431 -0.01849,0.018486 -0.05994,-0.018486 -0.07843,0 -0.01849,0.018486 0.01169,0.055048 0,0.078431 -0.01654,0.033069 -0.0619,0.045362 -0.07843,0.078431 -0.01169,0.023384 0.01849,0.059945 0,0.078431 -0.01849,0.018486 -0.05994,-0.018486 -0.07843,0 -0.01849,0.018486 0.01849,0.059945 0,0.078431 -0.03697,0.036973 -0.11989,-0.036973 -0.156863,0 -0.03697,0.036973 0.03697,0.1198898 0,0.1568627 -0.01849,0.018486 -0.05505,-0.011692 -0.07843,0 -0.03307,0.016535 -0.05229,0.052288 -0.07843,0.078431 -0.02614,0.026144 -0.0619,0.045362 -0.07843,0.078431 -0.02338,0.046767 0.03697,0.1198898 0,0.1568627 -0.01849,0.018486 -0.05505,-0.011692 -0.07843,0 -0.03307,0.016535 -0.04536,0.061897 -0.07843,0.078431 -0.02338,0.011692 -0.05994,-0.018486 -0.07843,0 -0.01849,0.018486 0.01169,0.055048 0,0.078431 -0.163207,0.3264125 0.0054,-0.083846 -0.156863,0.078431 -0.03697,0.036973 0.03697,0.1198899 0,0.1568628 -0.01849,0.018486 -0.05505,-0.011692 -0.07843,0 -0.03307,0.016535 -0.04536,0.061897 -0.07843,0.078431 -0.04677,0.023384 -0.11989,-0.036973 -0.156862,0 -0.01849,0.018486 0.01849,0.059945 0,0.078431 -0.01849,0.018487 -0.05994,-0.018486 -0.07843,0 -0.01849,0.018487 0.01169,0.055048 0,0.078431 -0.01654,0.03307 -0.0619,0.045362 -0.07843,0.078431 -0.01169,0.023384 0.01849,0.059945 0,0.078431 -0.01849,0.018487 -0.05994,-0.018486 -0.07843,0 -0.01849,0.018487 0.01849,0.059945 0,0.078431 -0.03697,0.036973 -0.110095,-0.023384 -0.156862,0 -0.03307,0.016535 -0.05229,0.052288 -0.07843,0.078431 -0.02614,0.026144 -0.0619,0.045362 -0.07843,0.078431 -0.01169,0.023384 0.01849,0.059945 0,0.078431 -0.01849,0.018486 -0.05994,-0.018486 -0.07843,0 -0.03697,0.036973 0.03697,0.1198899 0,0.1568628 -0.01849,0.018486 -0.05994,-0.018486 -0.07843,0 -0.01849,0.018486 0.01849,0.059945 0,0.078431 -0.03697,0.036973 -0.110095,-0.023384 -0.156863,0 -0.02082,0.010412 -0.224881,0.2144698 -0.235294,0.2352942 -0.01169,0.023384 0.01169,0.055048 0,0.078431 -0.01653,0.03307 -0.05229,0.052288 -0.07843,0.078431 -0.02614,0.026144 -0.04536,0.061897 -0.07843,0.078431 -0.04677,0.023384 -0.11989,-0.036973 -0.156863,0 -0.01849,0.018486 0.01849,0.059945 0,0.078431 -0.01849,0.018486 -0.05994,-0.018487 -0.07843,0 -0.01849,0.018486 0.01849,0.059945 0,0.078431 -0.01849,0.018487 -0.05994,-0.018486 -0.07843,0 -0.03697,0.036973 0.03697,0.1198899 0,0.1568628 -0.162277,0.1622773 0.0063,-0.2479812 -0.156863,0.078431 -0.01169,0.023384 0.01849,0.059945 0,0.078431 -0.03697,0.036973 -0.119889,-0.036973 -0.156862,0 -0.01849,0.018486 0.01849,0.059945 0,0.078431 -0.01849,0.018486 -0.05994,-0.018486 -0.07843,0 -0.03697,0.036973 0.03697,0.1198898 0,0.1568627 -0.01849,0.018486 -0.05994,-0.018486 -0.07843,0 -0.01849,0.018486 0.01169,0.055048 0,0.078431 -0.01653,0.03307 -0.0619,0.045362 -0.07843,0.078431 -0.01169,0.023384 0.01849,0.059945 0,0.078431 -0.03697,0.036973 -0.110095,-0.023384 -0.156862,0 -0.03307,0.016535 -0.04536,0.061896 -0.07843,0.078431 -0.02338,0.011692 -0.05994,-0.018486 -0.07843,0 -0.03697,0.036973 0.02338,0.1100953 0,0.1568628 -0.01653,0.03307 -0.0619,0.045362 -0.07843,0.078431 -0.01169,0.023384 0.01849,0.059945 0,0.078431 -0.01849,0.018486 -0.05994,-0.018486 -0.07843,0 -0.01849,0.018486 0.01849,0.059945 0,0.078431 -0.03697,0.036973 -0.11989,-0.036973 -0.156862,0 -0.01849,0.018486 0.01849,0.059945 0,0.078431 -0.01849,0.018486 -0.05994,-0.018486 -0.07843,0 -0.01849,0.018486 0.01849,0.059945 0,0.078431 -0.01849,0.018486 -0.05994,-0.018486 -0.07843,0 -0.03697,0.036973 0.03697,0.1198899 0,0.1568628 -0.01849,0.018486 -0.05994,-0.018486 -0.07843,0 -0.01849,0.018486 0.01849,0.059945 0,0.078431 -0.03697,0.036973 -0.119889,-0.036973 -0.156862,0 -0.01849,0.018486 0.01849,0.059945 0,0.078431 -0.01849,0.018486 -0.05505,-0.011692 -0.07843,0 -0.326412,0.1632063 0.08385,-0.00541 -0.07843,0.1568628 -0.01849,0.018486 -0.05995,-0.018486 -0.07843,0 -0.162278,0.1622773 0.247981,-0.00634 -0.07843,0.1568627 -0.02338,0.011692 -0.05994,-0.018486 -0.07843,0 -0.01849,0.018486 0.01849,0.059945 0,0.078432 -0.03697,0.03697 -0.11989,-0.03697 -0.156863,0 -0.01849,0.01849 0.01169,0.05505 0,0.07843 -0.163206,0.326413 0.0054,-0.08385 -0.156863,0.07843 -0.03697,0.03697 0.03697,0.11989 0,0.156863 -0.01849,0.01849 -0.05994,-0.01849 -0.07843,0 -0.01849,0.01849 0.01849,0.05995 0,0.07843 -0.01849,0.01849 -0.05995,-0.01849 -0.07843,0 -0.01849,0.01849 0.01849,0.05994 0,0.07843 -0.03697,0.03697 -0.110096,-0.02338 -0.156863,0 -0.03307,0.01653 -0.05229,0.05229 -0.07843,0.07843 -0.02614,0.02614 -0.0619,0.04536 -0.07843,0.07843 -0.01169,0.02338 0.01169,0.05505 0,0.07843 -0.01041,0.02082 -0.21447,0.224882 -0.235294,0.235294 -0.02338,0.01169 -0.05994,-0.01849 -0.07843,0 -0.01849,0.01849 0.01849,0.05994 0,0.07843 -0.01849,0.01849 -0.05994,-0.01849 -0.07843,0 -0.03697,0.03697 0.02338,0.110095 0,0.156862 -0.01041,0.02083 -0.21447,0.224882 -0.235294,0.235294 -0.04677,0.02338 -0.11989,-0.03697 -0.156863,0 -0.01849,0.01849 0.01849,0.05995 0,0.07843 -0.01849,0.01849 -0.05995,-0.01849 -0.07843,0 -0.03697,0.03697 0.03697,0.11989 0,0.156863 -0.01849,0.01849 -0.05994,-0.01849 -0.07843,0 -0.01849,0.01849 0.01849,0.05994 0,0.07843 -0.01849,0.01849 -0.05994,-0.01849 -0.07843,0 -0.01849,0.01849 0.01849,0.05994 0,0.07843 -0.01849,0.01849 -0.05994,-0.01849 -0.07843,0 -0.01849,0.01849 0.01849,0.05994 0,0.07843 -0.162277,0.162277 0.0063,-0.247982 -0.156863,0.07843 -0.01169,0.02338 0.01849,0.05995 0,0.07843 -0.01849,0.01849 -0.05994,-0.01849 -0.07843,0 -0.03697,0.03697 0.02338,0.110096 0,0.156863 -0.08671,0.173416 -0.04868,0.02434 -0.156863,0.07843 -0.03307,0.01654 -0.05229,0.05229 -0.07843,0.07843 -0.04129,0.04129 -0.21435,0.193405 -0.235295,0.235294 -0.01169,0.02338 0.01849,0.05994 0,0.07843 -0.01849,0.01849 -0.05994,-0.01849 -0.07843,0 -0.01849,0.01849 0.01849,0.05994 0,0.07843 -0.01849,0.01849 -0.05505,-0.01169 -0.07843,0 -0.326413,0.163206 0.08385,-0.0054 -0.07843,0.156862 -0.01849,0.01849 -0.05994,-0.01849 -0.07843,0 -0.01849,0.01849 0.01849,0.05994 0,0.07843 -0.01849,0.01849 -0.05994,-0.01849 -0.07843,0 -0.01849,0.01849 0.01849,0.05995 0,0.07843 -0.01849,0.01849 -0.05994,-0.01849 -0.07843,0 -0.03697,0.03697 0.03697,0.11989 0,0.156863 -0.03697,0.03697 -0.11989,-0.03697 -0.156862,0 -0.01849,0.01849 0.01169,0.05505 0,0.07843 -0.163207,0.326413 0.0054,-0.08385 -0.156863,0.07843 -0.01849,0.01849 0.01169,0.05505 0,0.07843 -0.01653,0.03307 -0.0619,0.04536 -0.07843,0.07843 -0.01169,0.02338 0.01169,0.05505 0,0.07843 -0.163206,0.326412 0.0054,-0.08385 -0.156862,0.07843 -0.01849,0.01849 0.01849,0.05994 0,0.07843 -0.01849,0.01849 -0.05994,-0.01849 -0.07843,0 -0.01849,0.01849 0.01849,0.05994 0,0.07843 -0.01849,0.01849 -0.05994,-0.01849 -0.07843,0 -0.01849,0.01849 0.01849,0.05994 0,0.07843 -0.01849,0.01849 -0.05995,-0.01849 -0.07843,0 -0.01849,0.01849 0.01169,0.05505 0,0.07843 -0.01654,0.03307 -0.0619,0.04536 -0.07843,0.07843 -0.01169,0.02338 0.01849,0.05995 0,0.07843 -0.01849,0.01849 -0.05994,-0.01849 -0.07843,0 -0.01849,0.01849 0.01849,0.05995 0,0.07843 -0.01849,0.01849 -0.05994,-0.01849 -0.07843,0 -0.01849,0.01849 0.01849,0.05995 0,0.07843 -0.01849,0.01849 -0.05994,-0.01849 -0.07843,0 -0.01849,0.01849 0.01169,0.05505 0,0.07843 -0.01653,0.03307 -0.0619,0.04536 -0.07843,0.07843 -0.01169,0.02338 0.01849,0.05994 0,0.07843 -0.03697,0.03697 -0.11989,-0.03697 -0.156863,0 -0.03697,0.03697 0.03697,0.11989 0,0.156863 -0.01849,0.01849 -0.05995,-0.01849 -0.07843,0 -0.01849,0.01849 0.01849,0.05994 0,0.07843 -0.01849,0.01849 -0.05994,-0.01849 -0.07843,0 -0.03697,0.03697 0.03697,0.11989 0,0.156863 -0.01849,0.01849 -0.05505,-0.01169 -0.07843,0 -0.03307,0.01653 -0.04536,0.0619 -0.07843,0.07843 -0.02338,0.01169 -0.05505,-0.01169 -0.07843,0 -0.326413,0.163206 0.08385,-0.0054 -0.07843,0.156862 -0.01849,0.01849 -0.05995,-0.01849 -0.07843,0 -0.01849,0.01849 0.01849,0.05995 0,0.07843 -0.01849,0.01849 -0.05994,-0.01849 -0.07843,0 -0.01849,0.01849 0.01849,0.05995 0,0.07843 -0.01849,0.01849 -0.05994,-0.01849 -0.07843,0 -0.01849,0.01849 0.01849,0.05995 0,0.07843 -0.01849,0.01849 -0.05994,-0.01849 -0.07843,0 -0.01849,0.01849 0.01849,0.05995 0,0.07843 -0.03697,0.03697 -0.11989,-0.03697 -0.156863,0 -0.03697,0.03697 0.03697,0.11989 0,0.156863 -0.01849,0.01849 -0.05994,-0.01849 -0.07843,0 -0.01849,0.01849 0.01849,0.05994 0,0.07843 -0.01849,0.01849 -0.05505,-0.01169 -0.07843,0 -0.03307,0.01653 -0.04536,0.0619 -0.07843,0.07843 -0.02338,0.01169 -0.05995,-0.01849 -0.07843,0 -0.01849,0.01849 0.01849,0.05994 0,0.07843 -0.01849,0.01849 -0.05994,-0.01849 -0.07843,0 -0.01849,0.01849 0.01849,0.05995 0,0.07843 -0.01849,0.01849 -0.05994,-0.01849 -0.07843,0 -0.01849,0.01849 0.01849,0.05994 0,0.07843 -0.03697,0.03697 -0.11989,-0.03697 -0.156863,0 -0.01849,0.01849 0.01849,0.05995 0,0.07843 -0.01849,0.01849 -0.05994,-0.01849 -0.07843,0 -0.01849,0.01849 0.01849,0.05994 0,0.07843 -0.162277,0.162277 0.0063,-0.247981 -0.156863,0.07843 -0.05409,0.108185 0.09498,0.07015 -0.07843,0.156863 -0.04677,0.02338 -0.11989,-0.03697 -0.156863,0 -0.01849,0.01849 0.01849,0.05994 0,0.07843 -0.01849,0.01849 -0.05505,-0.01169 -0.07843,0 -0.03307,0.01653 -0.05229,0.05229 -0.07843,0.07843 -0.02614,0.02614 -0.0619,0.04536 -0.07843,0.07843 -0.01169,0.02338 0.01849,0.05995 0,0.07843 -0.01849,0.01849 -0.05505,-0.01169 -0.07843,0 -0.03307,0.01654 -0.04536,0.0619 -0.07843,0.07843 -0.02338,0.01169 -0.05505,-0.01169 -0.07843,0 -0.326413,0.163206 0.08385,-0.0054 -0.07843,0.156863 -0.03697,0.03697 -0.11989,-0.03697 -0.156863,0 -0.01849,0.01849 0.01849,0.05994 0,0.07843 -0.01849,0.01849 -0.05994,-0.01849 -0.07843,0 -0.01849,0.01849 0.01849,0.05994 0,0.07843 -0.01849,0.01849 -0.05505,-0.01169 -0.07843,0 -0.06614,0.03307 -0.09072,0.123793 -0.156863,0.156862 -0.04677,0.02338 -0.119889,-0.03697 -0.156862,0 -0.01849,0.01849 0.01169,0.05505 0,0.07843 -0.163207,0.326412 0.0054,-0.08385 -0.156863,0.07843 -0.01849,0.01849 0.01849,0.05994 0,0.07843 -0.01849,0.01849 -0.05995,-0.01849 -0.07843,0 -0.01849,0.01849 0.01849,0.05994 0,0.07843 -0.01849,0.01849 -0.05994,-0.01849 -0.07843,0 -0.01849,0.01849 0.01849,0.05995 0,0.07843 -0.01849,0.01849 -0.05994,-0.01849 -0.07843,0 -0.01849,0.01849 0.01849,0.05994 0,0.07843 -0.05229,0.05229 -0.104575,-0.05229 -0.156863,0 -0.01849,0.01849 0.01169,0.05505 0,0.07843 -0.01653,0.03307 -0.0619,0.04536 -0.07843,0.07843 -0.01169,0.02338 0.01849,0.05994 0,0.07843 -0.01849,0.01849 -0.05505,-0.01169 -0.07843,0 -0.03307,0.01653 -0.05229,0.05229 -0.07843,0.07843 -0.02614,0.02614 -0.0619,0.04536 -0.07843,0.07843 -0.01169,0.02338 0.01849,0.05994 0,0.07843 -0.162278,0.162277 0.0063,-0.247981 -0.156863,0.07843 -0.05409,0.108185 0.09499,0.07015 -0.07843,0.156863 -0.04677,0.02338 -0.119889,-0.03697 -0.156862,0 -0.01849,0.01849 0.01169,0.05505 0,0.07843 -0.01654,0.03307 -0.0619,0.04536 -0.07843,0.07843 -0.01169,0.02338 0.01849,0.05994 0,0.07843 -0.03697,0.03697 -0.11989,-0.03697 -0.156862,0 -0.01849,0.01849 0.01849,0.05995 0,0.07843 -0.01849,0.01849 -0.05994,-0.01849 -0.07843,0 -0.01849,0.01849 0.01169,0.05505 0,0.07843 -0.04706,0.09412 -0.188235,0.141176 -0.235294,0.235294 -0.01169,0.02338 0.01849,0.05994 0,0.07843 -0.01849,0.01849 -0.05994,0.01849 -0.07843,0 -0.01849,-0.01849 -0.02614,-0.07843 0,-0.07843 0.02614,0 0.01849,0.05994 0,0.07843 -0.01849,0.01849 -0.05505,-0.01169 -0.07843,0 -0.03307,0.01653 -0.04536,0.0619 -0.07843,0.07843 -0.02338,0.01169 -0.05505,-0.01169 -0.07843,0 -0.03307,0.01653 -0.05229,0.05229 -0.07843,0.07843 -0.02614,0.02614 -0.0619,0.04536 -0.07843,0.07843 -0.02338,0.04677 0.03697,0.11989 0,0.156863 -0.01849,0.01849 -0.05505,-0.01169 -0.07843,0 -0.03307,0.01654 -0.04536,0.0619 -0.07843,0.07843 -0.02338,0.01169 -0.07843,0.02614 -0.07843,0 0,-0.02614 0.05994,-0.01849 0.07843,0 0.01849,0.01849 0,0.05229 0,0.07843 0,0.02614 0.01849,0.05994 0,0.07843 -0.01849,0.01849 -0.05505,-0.01169 -0.07843,0 -0.326413,0.163207 0.08385,-0.0054 -0.07843,0.156863 -0.01849,0.01849 -0.05994,-0.01849 -0.07843,0 -0.01849,0.01849 0.01849,0.05994 0,0.07843 -0.01849,0.01849 -0.05994,-0.01849 -0.07843,0 -0.01849,0.01849 0.01849,0.05995 0,0.07843 -0.01849,0.01849 -0.05994,-0.01849 -0.07843,0 -0.01849,0.01849 0.01849,0.05994 0,0.07843 -0.01849,0.01849 -0.05505,-0.01169 -0.07843,0 -0.03307,0.01654 -0.04536,0.0619 -0.07843,0.07843 -0.02338,0.01169 -0.05994,-0.01849 -0.07843,0 -0.01849,0.01849 0.01849,0.05994 0,0.07843 -0.03697,0.03697 -0.11989,-0.03697 -0.156863,0 -0.01849,0.01849 0.01849,0.05994 0,0.07843 -0.01849,0.01849 -0.05505,-0.01169 -0.07843,0 -0.03307,0.01654 -0.04536,0.0619 -0.07843,0.07843 -0.04677,0.02338 -0.11989,-0.03697 -0.156863,0 -0.01849,0.01849 0.01849,0.05995 0,0.07843 -0.01849,0.01849 -0.05994,-0.01849 -0.07843,0 -0.01849,0.01849 0.01169,0.05505 0,0.07843 -0.01654,0.03307 -0.0619,0.04536 -0.07843,0.07843 -0.01169,0.02338 0.01849,0.05995 0,0.07843 -0.01849,0.01849 -0.05994,-0.01849 -0.07843,0 -0.01849,0.01849 0.01849,0.05994 0,0.07843 -0.03697,0.03697 -0.11989,-0.03697 -0.156863,0 -0.01849,0.01849 0.01849,0.05995 0,0.07843 -0.01849,0.01849 -0.05505,-0.01169 -0.07843,0 -0.326413,0.163206 0.08385,-0.0054 -0.07843,0.156863 -0.01849,0.01849 -0.05994,-0.01849 -0.07843,0 -0.01849,0.01849 0.01849,0.05994 0,0.07843 -0.01849,0.01849 -0.05995,-0.01849 -0.07843,0 -0.01849,0.01849 0.01849,0.05994 0,0.07843 -0.01849,0.01849 -0.05994,-0.01849 -0.07843,0 -0.162277,0.162278 0.247981,-0.0063 -0.07843,0.156863 -0.04677,0.02338 -0.11989,-0.03697 -0.156863,0 -0.01849,0.01849 0.01169,0.05505 0,0.07843 -0.01653,0.03307 -0.0619,0.04536 -0.07843,0.07843 -0.01169,0.02338 0.01849,0.05995 0,0.07843 -0.162278,0.162277 0.0063,-0.247981 -0.156863,0.07843 -0.01169,0.02338 0.02338,0.06674 0,0.07843 -0.04677,0.02338 -0.110095,-0.02338 -0.156863,0 -0.02338,0.01169 0.01849,0.05995 0,0.07843 -0.01849,0.01849 -0.05994,-0.01849 -0.07843,0 -0.01849,0.01849 0.01849,0.05994 0,0.07843 -0.01849,0.01849 -0.05994,-0.01849 -0.07843,0 -0.162277,0.162277 0.247982,-0.0063 -0.07843,0.156862 -0.02338,0.01169 -0.05994,-0.01849 -0.07843,0 -0.01849,0.01849 0.01849,0.05994 0,0.07843 -0.01849,0.01849 -0.05505,-0.01169 -0.07843,0 -0.03307,0.01654 -0.04536,0.0619 -0.07843,0.07843 -0.02338,0.01169 -0.05994,-0.01849 -0.07843,0 -0.01849,0.01849 0.01169,0.05505 0,0.07843 -0.01653,0.03307 -0.05229,0.05229 -0.07843,0.07843 -0.02614,0.02614 -0.04536,0.0619 -0.07843,0.07843 -0.02338,0.01169 -0.05994,-0.01849 -0.07843,0 -0.01849,0.01849 0.01169,0.05505 0,0.07843 -0.01653,0.03307 -0.0619,0.04536 -0.07843,0.07843 -0.01169,0.02338 0.01849,0.05995 0,0.07843 -0.03697,0.03697 -0.110095,-0.02338 -0.156863,0 -0.03307,0.01654 -0.04536,0.0619 -0.07843,0.07843 -0.02338,0.01169 -0.05994,-0.01849 -0.07843,0 -0.01849,0.01849 0.01849,0.05994 0,0.07843 -0.162278,0.162277 0.0063,-0.247981 -0.156863,0.07843 0,0.20915 0.02614,-0.02614 -0.07843,0.07843 -0.03921,0.03922 0.03922,0.196078 0,0.235294 -0.03697,0.03697 -0.119889,-0.03697 -0.156862,0 -0.01849,0.01849 0.01169,0.05505 0,0.07843 -0.01041,0.02082 -0.21447,0.224882 -0.235294,0.235295 -0.0311,0.01555 -0.21926,-0.01603 -0.235295,0 -0.01849,0.01849 0.01849,0.05994 0,0.07843 -0.03697,0.03697 -0.110095,-0.02338 -0.156862,0 -0.06614,0.03307 -0.09072,0.123793 -0.156863,0.156863 -0.02338,0.01169 -0.05994,-0.01849 -0.07843,0 -0.01849,0.01849 0.01849,0.05994 0,0.07843 -0.115033,0.115033 -0.07059,-0.14902 -0.07843,-0.156863 -0.01849,-0.01849 -0.05229,0 -0.07843,0 -0.02614,0 -0.05994,-0.01849 -0.07843,0 -0.01849,0.01849 0.01849,0.05995 0,0.07843 -0.01849,0.01849 -0.05994,-0.01849 -0.07843,0 -0.01849,0.01849 0.01849,0.05994 0,0.07843 -0.01849,0.01849 -0.05994,-0.01849 -0.07843,0 -0.03697,0.03697 0.03697,0.11989 0,0.156863 -0.01849,0.01849 -0.05505,-0.01169 -0.07843,0 -0.03307,0.01653 -0.04536,0.0619 -0.07843,0.07843 -0.02338,0.01169 -0.05505,-0.01169 -0.07843,0 -0.03307,0.01654 -0.04536,0.0619 -0.07843,0.07843 -0.02338,0.01169 -0.05505,-0.01169 -0.07843,0 -0.158626,0.07931 -0.02515,0.182014 -0.07843,0.235295 -0.01849,0.01849 -0.05505,-0.01169 -0.07843,0 -0.03307,0.01653 -0.04536,0.0619 -0.07843,0.07843 -0.04677,0.02338 -0.11989,-0.03697 -0.156863,0 -0.01849,0.01849 0.01169,0.05505 0,0.07843 -0.01653,0.03307 -0.0619,0.04536 -0.07843,0.07843 -0.01169,0.02338 0.01849,0.05995 0,0.07843 -0.01849,0.01849 -0.05994,-0.01849 -0.07843,0 -0.01849,0.01849 0.01849,0.05994 0,0.07843 -0.01849,0.01849 -0.05994,-0.01849 -0.07843,0 -0.01849,0.01849 0.01849,0.05995 0,0.07843 -0.01849,0.01849 -0.05995,-0.01849 -0.07843,0 -0.01849,0.01849 0.01849,0.05994 0,0.07843 -0.03697,0.03697 -0.11989,-0.03697 -0.156863,0 -0.01849,0.01849 0.01849,0.05994 0,0.07843 -0.01849,0.01849 -0.05994,-0.01849 -0.07843,0 -0.01849,0.01849 0.01169,0.05505 0,0.07843 -0.01653,0.03307 -0.0619,0.04536 -0.07843,0.07843 -0.01169,0.02338 0.01849,0.05994 0,0.07843 -0.01849,0.01849 -0.05994,-0.01849 -0.07843,0 -0.01849,0.01849 0.01849,0.05995 0,0.07843 -0.03697,0.03697 -0.110096,-0.02338 -0.156863,0 -0.03307,0.01653 -0.04536,0.0619 -0.07843,0.07843 -0.02338,0.01169 -0.05994,-0.01849 -0.07843,0 -0.01849,0.01849 0.01849,0.05994 0,0.07843 -0.01849,0.01849 -0.05994,-0.01849 -0.07843,0 -0.01849,0.01849 0.01169,0.05505 0,0.07843 -0.163206,0.326413 0.0054,-0.08385 -0.156863,0.07843 -0.01849,0.01849 0.01849,0.05994 0,0.07843 -0.01849,0.01849 -0.05994,-0.01849 -0.07843,0 -0.01849,0.01849 0.01849,0.05995 0,0.07843 -0.05229,0.05229 -0.104575,-0.05229 -0.156863,0 -0.01849,0.01849 0.01169,0.05505 0,0.07843 -0.163206,0.326412 0.0054,-0.08385 -0.156863,0.07843 -0.01849,0.01849 0.01849,0.05994 0,0.07843 -0.01849,0.01849 -0.05994,-0.01849 -0.07843,0 -0.01849,0.01849 0.01169,0.05505 0,0.07843 -0.01653,0.03307 -0.05229,0.05229 -0.07843,0.07843 -0.02614,0.02614 -0.04536,0.0619 -0.07843,0.07843 -0.02338,0.01169 -0.05994,-0.01849 -0.07843,0 -0.01849,0.01849 0.01849,0.05994 0,0.07843 -0.03697,0.03697 -0.110096,-0.02338 -0.156863,0 -0.03307,0.01654 -0.05229,0.05229 -0.07843,0.07843 -0.02614,0.02614 -0.0619,0.04536 -0.07843,0.07843 -0.01169,0.02338 0.01849,0.05994 0,0.07843 -0.01849,0.01849 -0.05994,-0.01849 -0.07843,0 -0.01849,0.01849 0.01849,0.05995 0,0.07843 -0.01849,0.01849 -0.05994,-0.01849 -0.07843,0 -0.01849,0.01849 0.01849,0.05994 0,0.07843 -0.03697,0.03697 -0.119889,-0.03697 -0.156862,0 -0.01849,0.01849 0.01849,0.05994 0,0.07843 -0.01849,0.01849 -0.05994,-0.01849 -0.07843,0 -0.01849,0.01849 0.01169,0.05505 0,0.07843 -0.03307,0.06614 -0.123793,0.09072 -0.156862,0.156862 -0.01169,0.02338 0.01169,0.05505 0,0.07843 -0.0722,0.144393 -0.163098,0.01247 -0.235294,0.156862 -0.01169,0.02338 0.01849,0.05994 0,0.07843 -0.162278,0.162277 0.0063,-0.247981 -0.156863,0.07843 -0.01169,0.02338 0.01849,0.05995 0,0.07843 -0.01849,0.01849 -0.05994,-0.01849 -0.07843,0 -0.01849,0.01849 0.01169,0.05505 0,0.07843 -0.03307,0.06614 -0.123793,0.09072 -0.156862,0.156863 -0.01169,0.02338 0.01849,0.05994 0,0.07843 -0.01849,0.01849 -0.05994,-0.01849 -0.07843,0 -0.01849,0.01849 0.01169,0.05505 0,0.07843 -0.04706,0.09412 -0.188235,0.141177 -0.235294,0.235294 -0.01169,0.02338 0.01849,0.05994 0,0.07843 -0.01849,0.01849 -0.05505,-0.01169 -0.07843,0 -0.01501,0.0075 -0.306219,0.298712 -0.313726,0.313725 -0.01169,0.02338 0.01849,0.05995 0,0.07843 -0.01849,0.01849 -0.05994,-0.01849 -0.07843,0 -0.01849,0.01849 0.01849,0.05995 0,0.07843 -0.01849,0.01849 -0.05995,-0.01849 -0.07843,0 -0.01849,0.01849 0.01849,0.05994 0,0.07843 -0.01849,0.01849 -0.05994,-0.01849 -0.07843,0 -0.01849,0.01849 0.01849,0.05995 0,0.07843 -0.01849,0.01849 -0.05994,-0.01849 -0.07843,0 -0.01849,0.01849 0.01849,0.05994 0,0.07843 -0.01849,0.01849 -0.05994,-0.01849 -0.07843,0 -0.01849,0.01849 0.01849,0.05994 0,0.07843 -0.01849,0.01849 -0.05994,-0.01849 -0.07843,0 -0.01849,0.01849 0.01849,0.05994 0,0.07843 -0.01849,0.01849 -0.05994,-0.01849 -0.07843,0 -0.01849,0.01849 0.01169,0.05505 0,0.07843 -0.0075,0.01501 -0.298712,0.306219 -0.313726,0.313726 -0.02338,0.01169 -0.05505,-0.01169 -0.07843,0 -0.09412,0.04706 -0.141177,0.188235 -0.235294,0.235294 -0.02338,0.01169 -0.05995,-0.01849 -0.07843,0 -0.01849,0.01849 0.01849,0.05995 0,0.07843 -0.01849,0.01849 -0.05995,-0.01849 -0.07843,0 -0.01849,0.01849 0.01169,0.05505 0,0.07843 -0.01654,0.03307 -0.0619,0.04536 -0.07843,0.07843 -0.02338,0.04677 0.02338,0.110095 0,0.156863 -0.01653,0.03307 -0.0619,0.04536 -0.07843,0.07843 -0.01169,0.02338 0.01169,0.05505 0,0.07843 -0.01653,0.03307 -0.0619,0.04536 -0.07843,0.07843 -0.01169,0.02338 0.01849,0.05995 0,0.07843 -0.03922,0.03922 -0.196079,-0.03922 -0.235294,0 -0.01849,0.01849 0.01169,0.05505 0,0.07843 -0.01654,0.03307 -0.0619,0.04536 -0.07843,0.07843 -0.01169,0.02338 0.01849,0.05995 0,0.07843 -0.01849,0.01849 -0.05994,-0.01849 -0.07843,0 -0.162277,0.162278 0.247981,-0.0063 -0.07843,0.156863 -0.02338,0.01169 -0.05505,-0.01169 -0.07843,0 -0.03307,0.01654 -0.04536,0.0619 -0.07843,0.07843 -0.04677,0.02338 -0.11989,-0.03697 -0.156863,0 -0.03697,0.03697 0.03697,0.119889 0,0.156862 -0.01849,0.01849 -0.05995,0.01849 -0.07843,0 -0.01849,-0.01849 -0.02614,-0.07843 0,-0.07843 0.02614,0 0.01849,0.05994 0,0.07843 -0.01849,0.01849 -0.05505,-0.01169 -0.07843,0 -0.03307,0.01653 -0.04536,0.0619 -0.07843,0.07843 -0.20915,0 0.02614,-0.02614 -0.07843,0.07843 -0.01849,0.01849 -0.05995,-0.01849 -0.07843,0 -0.01849,0.01849 0.01849,0.05994 0,0.07843 -0.01849,0.01849 -0.05994,-0.01849 -0.07843,0 -0.01849,0.01849 0.01849,0.05994 0,0.07843 -0.03697,0.03697 -0.11989,-0.03697 -0.156863,0 -0.01849,0.01849 0.01169,0.05505 0,0.07843 -0.01653,0.03307 -0.05229,0.05229 -0.07843,0.07843 -0.02614,0.02614 -0.04536,0.0619 -0.07843,0.07843 -0.02338,0.01169 -0.05995,-0.01849 -0.07843,0 -0.162277,0.162277 0.247981,-0.0063 -0.07843,0.156863 -0.02338,0.01169 -0.05505,-0.01169 -0.07843,0 -0.06614,0.03307 -0.09072,0.123793 -0.156862,0.156862 -0.02338,0.01169 -0.05995,-0.01849 -0.07843,0 -0.01849,0.01849 0.01169,0.05505 0,0.07843 -0.01653,0.03307 -0.0619,0.04536 -0.07843,0.07843 -0.02338,0.04677 0.03697,0.11989 0,0.156863 -0.01849,0.01849 -0.05505,-0.01169 -0.07843,0 -0.03307,0.01654 -0.04536,0.0619 -0.07843,0.07843 -0.02338,0.01169 -0.05505,-0.01169 -0.07843,0 -0.03307,0.01653 -0.05229,0.05229 -0.07843,0.07843 -0.02614,0.02614 -0.0619,0.04536 -0.07843,0.07843 -0.01169,0.02338 0.01849,0.05994 0,0.07843 -0.01849,0.01849 -0.05994,-0.01849 -0.07843,0 -0.03697,0.03697 0.03697,0.11989 0,0.156863 -0.03922,0.03922 -0.196079,-0.03922 -0.235295,0 -0.01849,0.01849 0.01849,0.05995 0,0.07843 -0.01849,0.01849 -0.05994,-0.01849 -0.07843,0 -0.01849,0.01849 0.01849,0.05994 0,0.07843 -0.01849,0.01849 -0.05505,-0.01169 -0.07843,0 -0.326413,0.163206 0.08385,-0.0054 -0.07843,0.156863 -0.01849,0.01849 -0.05994,-0.01849 -0.07843,0 -0.01849,0.01849 0.01849,0.05994 0,0.07843 -0.01849,0.01849 -0.05994,-0.01849 -0.07843,0 -0.01849,0.01849 0.01849,0.05994 0,0.07843 -0.03697,0.03697 -0.11989,-0.03697 -0.156863,0 -0.01849,0.01849 0.01849,0.05994 0,0.07843 -0.01849,0.01849 -0.05994,-0.01849 -0.07843,0 -0.01849,0.01849 0.01849,0.05994 0,0.07843 -0.01849,0.01849 -0.05994,-0.01849 -0.07843,0 -0.01849,0.01849 0.01849,0.05995 0,0.07843 -0.01849,0.01849 -0.05995,-0.01849 -0.07843,0 -0.01849,0.01849 0.01849,0.05994 0,0.07843 -0.162278,0.162277 0.0063,-0.247981 -0.156863,0.07843 -0.01169,0.02338 0.01849,0.05994 0,0.07843 -0.03922,0.03921 -0.196078,-0.03922 -0.235294,0 -0.05217,0.05217 0.05217,0.104688 0,0.156862 -0.03697,0.03697 -0.11989,-0.03697 -0.156863,0 -0.01849,0.01849 0.01849,0.05995 0,0.07843 -0.01849,0.01849 -0.05994,-0.01849 -0.07843,0 -0.01849,0.01849 0.01169,0.05505 0,0.07843 -0.01653,0.03307 -0.05229,0.05229 -0.07843,0.07843 -0.02614,0.02614 -0.04536,0.0619 -0.07843,0.07843 -0.02338,0.01169 -0.05505,-0.01169 -0.07843,0 -0.06614,0.03307 -0.09072,0.123793 -0.156863,0.156863 -0.02338,0.01169 -0.05995,-0.01849 -0.07843,0 -0.01849,0.01849 0.01849,0.05994 0,0.07843 -0.01849,0.01849 -0.05994,-0.01849 -0.07843,0 -0.01849,0.01849 0.01849,0.05994 0,0.07843 -0.01849,0.01849 -0.05994,-0.01849 -0.07843,0 -0.01849,0.01849 0.01849,0.05995 0,0.07843 -0.01849,0.01849 -0.05995,-0.01849 -0.07843,0 -0.01849,0.01849 0.01849,0.05995 0,0.07843 -0.01849,0.01849 -0.05994,-0.01849 -0.07843,0 -0.01849,0.01849 0.01849,0.05994 0,0.07843 -0.01849,0.01849 -0.05505,-0.01169 -0.07843,0 -0.02083,0.01041 -0.224882,0.21447 -0.235294,0.235295 -0.01169,0.02338 0.01849,0.05994 0,0.07843 -0.01849,0.01849 -0.05994,-0.01849 -0.07843,0 -0.01849,0.01849 0.01849,0.05994 0,0.07843 -0.03697,0.03697 -0.11989,-0.03697 -0.156863,0 -0.162277,0.162278 0.247982,-0.0063 -0.07843,0.156863 -0.108185,0.05409 -0.07015,-0.09499 -0.156863,0.07843 -0.02338,0.04677 0.03697,0.11989 0,0.156863 -0.03922,0.03922 -0.196078,-0.03922 -0.235294,0 -0.01849,0.01849 0.01849,0.05994 0,0.07843 -0.01849,0.01849 -0.05505,-0.01169 -0.07843,0 -0.03632,0.01816 -0.267597,0.267596 -0.313726,0.313725 -0.02614,0.02614 -0.04536,0.0619 -0.07843,0.07843 -0.04677,0.02338 -0.11989,-0.03697 -0.156863,0 -0.01849,0.01849 0.01169,0.05505 0,0.07843 -0.02094,0.04189 -0.194003,0.194003 -0.235294,0.235294 -0.02614,0.02614 -0.05229,0.05229 -0.07843,0.07843 -0.02614,0.02614 -0.04536,0.0619 -0.07843,0.07843 -0.02338,0.01169 -0.05994,-0.01849 -0.07843,0 -0.01849,0.01849 0.01169,0.05505 0,0.07843 -0.01041,0.02082 -0.21447,0.224882 -0.235294,0.235294 -0.02338,0.01169 -0.05505,-0.01169 -0.07843,0 -0.03307,0.01654 -0.04536,0.0619 -0.07843,0.07843 -0.02338,0.01169 -0.05995,-0.01849 -0.07843,0 -0.01849,0.01849 0.01169,0.05505 0,0.07843 -0.01653,0.03307 -0.05229,0.05229 -0.07843,0.07843 -0.02614,0.02614 -0.04767,0.05792 -0.07843,0.07843 -0.0395,0.172797 -0.161348,0.04146 -0.235294,0.07843 -0.03307,0.01653 -0.05229,0.05229 -0.07843,0.07843 -0.02614,0.02614 -0.0619,0.04536 -0.07843,0.07843 -0.01169,0.02338 0.02338,0.06674 0,0.07843 -0.04677,0.02338 -0.107258,-0.01653 -0.156863,0 -0.07015,0.02338 -0.09534,0.115845 -0.156862,0.156863 -0.04864,0.03243 -0.108222,0.046 -0.156863,0.07843 -0.11541,0.07694 -0.198316,0.236786 -0.313726,0.313726 -0.0395,0.172797 -0.161348,0.04146 -0.235294,0.07843 -0.03307,0.01654 -0.04767,0.05792 -0.07843,0.07843 -0.04864,0.03243 -0.108222,0.046 -0.156863,0.07843 -0.03076,0.02051 -0.05229,0.05229 -0.07843,0.07843 -0.07843,0.07843 -0.156863,0.156863 -0.235294,0.235294 -0.02614,0.02614 -0.04767,0.05792 -0.07843,0.07843 -0.0395,0.172797 -0.161348,0.04146 -0.235294,0.07843 -0.03307,0.01654 -0.05229,0.05229 -0.07843,0.07843 -0.06163,0.06163 -0.342198,0.367178 -0.392157,0.392157 -0.02338,0.01169 -0.05229,0 -0.07843,0 -0.05229,0.02614 -0.108222,0.046 -0.156863,0.07843 -0.195093,0.130062 -0.009,0.01802 -0.07843,0.156862 -0.01622,0.03245 -0.20205,0.213132 -0.235294,0.235295 -0.04864,0.03243 -0.101403,0.05994 -0.156862,0.07843 -0.0496,0.01654 -0.11989,-0.03697 -0.156863,0 -0.01849,0.01849 0.01169,0.05505 0,0.07843 -0.01653,0.03307 -0.05229,0.05229 -0.07843,0.07843 -0.02614,0.02614 -0.04536,0.0619 -0.07843,0.07843 -0.02338,0.01169 -0.05505,-0.01169 -0.07843,0 -0.09412,0.04706 -0.141177,0.188235 -0.235294,0.235294 -0.02338,0.01169 -0.05505,-0.01169 -0.07843,0 -0.06614,0.03307 -0.09072,0.123793 -0.156863,0.156863 -0.02338,0.01169 -0.05505,-0.01169 -0.07843,0 -0.144393,0.0722 -0.01247,0.163097 -0.156863,0.235294 -0.02338,0.01169 -0.05229,0 -0.07843,0 -0.02614,0.02614 -0.04536,0.0619 -0.07843,0.07843 -0.0311,0.01555 -0.21926,-0.01603 -0.235295,0 -0.01849,0.01849 0.01169,0.05505 0,0.07843 -0.0075,0.01501 -0.298712,0.306219 -0.313725,0.313725 -0.108185,0.05409 -0.07015,-0.09498 -0.156863,0.07843 -0.01169,0.02338 0.01169,0.05505 0,0.07843 -0.02498,0.04996 -0.330528,0.330528 -0.392157,0.392157 -0.02614,0.02614 -0.0619,0.04536 -0.07843,0.07843 -0.01169,0.02338 0.01169,0.05505 0,0.07843 -0.01654,0.03307 -0.05229,0.05229 -0.07843,0.07843 -0.02614,0.02614 -0.04536,0.0619 -0.07843,0.07843 -0.02338,0.01169 -0.05505,-0.01169 -0.07843,0 -0.03307,0.01654 -0.04536,0.0619 -0.07843,0.07843 -0.04677,0.02338 -0.110096,-0.02338 -0.156863,0 -0.03307,0.01653 -0.05229,0.05229 -0.07843,0.07843 -0.07843,0.07843 -0.156862,0.156863 -0.235294,0.235294 -0.05229,0.05229 -0.09534,0.115845 -0.156862,0.156863 -0.124439,0.08296 -0.30384,0.102818 -0.392157,0.235294 -0.03243,0.04864 -0.046,0.108222 -0.07843,0.156863 -0.0476,0.0714 -0.200535,0.165777 -0.235294,0.235294 -0.01169,0.02338 0.01849,0.05994 0,0.07843 -0.01849,0.01849 -0.05505,-0.01169 -0.07843,0 -0.03307,0.01654 -0.04767,0.05792 -0.07843,0.07843 -0.04864,0.03243 -0.115525,0.03709 -0.156862,0.07843 -0.04134,0.04134 -0.05229,0.104575 -0.07843,0.156863 -0.05229,0.02614 -0.115525,0.03709 -0.156862,0.07843 -0.04134,0.04134 -0.0371,0.115526 -0.07843,0.156863 -0.04134,0.04134 -0.104575,0.05229 -0.156863,0.07843 -0.104575,0.05229 -0.20915,0.104575 -0.313725,0.156863 -0.05229,0.02614 -0.108222,0.046 -0.156863,0.07843 -0.03076,0.02051 -0.04767,0.05792 -0.07843,0.07843 -0.04864,0.03243 -0.115526,0.03709 -0.156863,0.07843 -0.04134,0.04134 -0.03709,0.115526 -0.07843,0.156863 -0.04134,0.04134 -0.108222,0.046 -0.156863,0.07843 -0.11541,0.07694 -0.198316,0.236786 -0.313725,0.313726 -0.04864,0.03243 -0.115526,0.03709 -0.156863,0.07843 -0.04134,0.04134 -0.0371,0.115526 -0.07843,0.156863 -0.04134,0.04134 -0.110095,0.04336 -0.156862,0.07843 -0.08873,0.06655 -0.143005,0.173768 -0.235294,0.235294 -0.04864,0.03243 -0.115526,0.03709 -0.156863,0.07843 -0.04134,0.04134 -0.04336,0.110095 -0.07843,0.156862 -0.04437,0.05916 -0.104575,0.104576 -0.156862,0.156863 -0.02614,0.02614 -0.04767,0.05792 -0.07843,0.07843 -0.09728,0.06485 -0.22019,0.08671 -0.313725,0.156862 -0.05916,0.04437 -0.104575,0.104575 -0.156863,0.156863 -0.02614,0.02614 -0.05792,0.04767 -0.07843,0.07843 -0.133605,0.200407 -0.0091,0.144107 -0.235294,0.313726 -0.09353,0.07015 -0.231052,0.07419 -0.313726,0.156863 -0.04134,0.04134 -0.03709,0.115525 -0.07843,0.156862 -0.04134,0.04134 -0.110096,0.04336 -0.156863,0.07843 -0.564155,0.423116 0.16552,-0.08709 -0.235294,0.313725 -0.189932,0.09497 -0.115526,0.0371 -0.235294,0.156863 -0.02614,0.02614 -0.0619,0.04536 -0.07843,0.07843 -0.05409,0.108185 0.09498,0.07015 -0.07843,0.156863 -0.02338,0.01169 -0.05505,-0.01169 -0.07843,0 -0.03307,0.01653 -0.04767,0.05792 -0.07843,0.07843 -0.04864,0.03243 -0.108221,0.046 -0.156863,0.07843 -0.03076,0.02051 -0.05229,0.05229 -0.07843,0.07843 -0.02614,0.02614 -0.0619,0.04536 -0.07843,0.07843 -0.05409,0.108184 0.09498,0.07015 -0.07843,0.156862 -0.02338,0.01169 -0.05505,-0.01169 -0.07843,0 -0.06614,0.03307 -0.09534,0.115845 -0.156863,0.156863 -0.09728,0.06485 -0.216443,0.09201 -0.313725,0.156863 -0.253998,0.169332 0.03264,-0.0097 -0.07843,0.156863 -0.02051,0.03077 -0.361387,0.371643 -0.392156,0.392156 -0.02175,0.0145 -0.05994,-0.01849 -0.07843,0 -0.04134,0.04134 -0.03709,0.115526 -0.07843,0.156863 -0.04134,0.04134 -0.108222,0.046 -0.156863,0.07843 -0.180186,0.120123 0.03363,0.0448 -0.156863,0.235294 -0.190494,0.190494 -0.11517,-0.02332 -0.235294,0.156862 -0.03243,0.04864 -0.046,0.108222 -0.07843,0.156863 -0.02051,0.03076 -0.05229,0.05229 -0.07843,0.07843 -0.02614,0.02614 -0.04767,0.05792 -0.07843,0.07843 0.0089,0.148582 -0.1830065,0.05229 -0.2352941,0.07843 -0.03307,0.01654 -0.052288,0.05229 -0.078431,0.07843 -0.061629,0.06163 -0.3421983,0.367177 -0.3921569,0.392157 -0.023384,0.01169 -0.055048,-0.01169 -0.078431,0 -0.069517,0.03476 -0.1638968,0.187695 -0.2352941,0.235294 -0.048641,0.03243 -0.1082217,0.046 -0.1568627,0.07843 -0.1616244,0.10775 0.00517,0.154279 -0.1568628,0.235294 -0.023384,0.01169 -0.055048,-0.01169 -0.078431,0 -0.069517,0.03476 -0.1638969,0.187696 -0.2352942,0.235294 -0.048641,0.03243 -0.1155257,0.0371 -0.1568627,0.07843 -0.1622773,0.162277 0.2479812,-0.0063 -0.078431,0.156862 -0.023384,0.01169 -0.055048,-0.01169 -0.078431,0 C 8.0907236,51.48405 8.0661391,51.574774 8,51.607843 c -0.1081849,0.05409 -0.070155,-0.09499 -0.1568627,0.07843 -0.011692,0.02338 0.011692,0.05505 0,0.07843 -0.016535,0.03307 -0.052288,0.05229 -0.078431,0.07843 -0.026144,0.02614 -0.045362,0.0619 -0.078431,0.07843 -0.023384,0.01169 -0.055048,-0.01169 -0.078431,0 -0.020824,0.01041 -0.2248819,0.214469 -0.2352941,0.235294 -0.011692,0.02338 0.011692,0.05505 0,0.07843 -0.016535,0.03307 -0.052288,0.05229 -0.078431,0.07843 -0.026144,0.02614 -0.045362,0.0619 -0.078431,0.07843 -0.023384,0.01169 -0.055048,-0.01169 -0.078431,0 -0.1734161,0.08671 -0.024339,0.04868 -0.078431,0.156863 -0.1632063,0.326412 0.00541,-0.08385 -0.1568627,0.07843 -0.018487,0.01849 0.011692,0.05505 0,0.07843 -0.016535,0.03307 -0.061897,0.04536 -0.078431,0.07843 -0.011692,0.02338 0.018486,0.05994 0,0.07843 -0.018486,0.01849 -0.055048,-0.01169 -0.078431,0 -0.020824,0.01041 -0.2248819,0.21447 -0.2352941,0.235294 -0.023384,0.04677 0.036973,0.11989 0,0.156863 -0.018486,0.01849 -0.055048,-0.01169 -0.078431,0 -0.094118,0.04706 -0.1411764,0.188235 -0.2352941,0.235294 -0.023384,0.01169 -0.059945,-0.01849 -0.078431,0 -0.036973,0.03697 0.023384,0.110095 0,0.156863 -0.00751,0.01501 -0.2987122,0.306219 -0.3137255,0.313725 -0.1081849,0.05409 -0.070155,-0.09498 -0.1568628,0.07843 -0.011692,0.02338 0.011692,0.05505 0,0.07843 -0.016535,0.03307 -0.061897,0.04536 -0.078431,0.07843 -0.011692,0.02338 0.011692,0.05505 0,0.07843 -0.03307,0.06614 -0.1237932,0.09072 -0.1568628,0.156863 -0.011692,0.02338 0.011692,0.05505 0,0.07843 -0.016535,0.03307 -0.052288,0.05229 -0.078431,0.07843 -0.026144,0.02614 -0.045362,0.0619 -0.078431,0.07843 -0.023384,0.01169 -0.059945,-0.01849 -0.078431,0 -0.018486,0.01849 0.011692,0.05505 0,0.07843 -0.016535,0.03307 -0.061897,0.04536 -0.078431,0.07843 -0.011692,0.02338 0.011692,0.05505 0,0.07843 -0.03307,0.06614 -0.1237932,0.09072 -0.1568627,0.156863 -0.031373,0.06274 0.031372,0.172549 0,0.235294 -0.16,0.32 0.00314,-0.163138 -0.1568628,0.156862 -0.054092,0.108185 0.094985,0.07015 -0.078431,0.156863 -0.023384,0.01169 -0.059945,-0.01849 -0.078431,0 -0.018486,0.01849 0.011692,0.05505 0,0.07843 -0.2601241,0.260124 0.036973,-0.07395 -0.078431,0.156862 -0.038589,0.07718 -0.2751361,0.236547 -0.3137255,0.313726 -0.023384,0.04677 0.023384,0.110095 0,0.156862 -0.1632063,0.326413 0.044626,0.07302 -0.117647,0.235293 l 0,0.07843 -0.1568628,0 0,0.07843 -0.078431,0.07843 0,0.07843 -0.078431,0.07843 0,0.07843 -0.1568628,0.156863 0,0.07843 -0.1568627,0.156863 0,0.07843 -0.078431,0 0,0.07843 -0.078431,0 0,0.235294 -0.078431,0.07843 0,0.07843 -0.078431,0 0,0.07843 -0.1568627,0.07843 0,0.07843 -0.078431,0 0,0.07843 -0.078431,0.07843 0,0.156863 -0.078431,0.07843 0,0.156862 -0.078431,0 0,0.156863 -0.078431,0 0,0.07843 -0.078431,0.07843 0,0.07843 -0.078431,0.07843 0,0.156862 -0.078431,0 0,0.235294 -0.078431,0.07843 0,0.156863 -0.078431,0 0,0.07843 -0.078431,0 0,0.235294 -0.078431,0 0,0.07843 -0.078431,0 0,0.235294 -0.078431,0 0,0.392157 -0.078431,0 0,0.07843 0,0.07843 0,0.07843 0,0.07843 -0.078431,0 0,0.07843 -0.078431,0.07843 0,0.392156 -0.078431,0.07843 0,0.392157 0,0.392157 0.8039215,0.764704 1.4901965,0.117648 0.4509804,-0.333335 0.6862745,-0.803924"
       id="path10168"
       inkscape:connector-curvature="0"
       transform="translate(0,988.3622)"
       sodipodi:nodetypes="ccccsscccccccccccccccccccscccccccccccscscccssccssccsccccsccssccsscccccccccscsccsccccccccsccsccscccccscscccccccsccscccsccccssccsssccsccsccccsccsccsccscscsssssccccccssssssccsccsssssscssscsccscccscsssssccccscscsccscccsscccscccscscscccsscccsscssccsscccscsccccsccssssccscscsscsscccscscscccccsccssssssscccsccccssssscssscssccsscsccccscccssccscsscsscccccccccssscssccscscscccccssccccsccsccsscsscsssccccccsccccccsssccscssccsscccsssscssccscsscscsscscsscsscsssccssccsscssssscccsccsscssssssscsssccccccccccccccsccccccssccscsssccscccsccccccccscsscccssscsssscssssccsccccccscscsccsssscccssccssscccccssscccsscsssccccsccscccscccccssccsscccccccscsssccsccccscssccsccccsscccssccccccccccccccccccccscssccscccccccccsccscscssccsccsccccccccccccccccccccccccscccsccccccccccccccccsccccsscscscscccccccccccccccccccccccccccccccccccccccccccccccccccccccccccccccccc" />
    <path
       style="opacity:0.8;color:#000000;fill:none;stroke:#bf0000;stroke-width:1;stroke-linecap:round;stroke-linejoin:round;stroke-miterlimit:4;stroke-opacity:1;stroke-dasharray:none;stroke-dashoffset:0;marker:none;visibility:visible;display:inline;overflow:visible;enable-background:accumulate"
       d="M 75.607843,5.882353 C 75.503268,5.9346405 76.100257,3.6261204 76,3.6862745 c -0.02614,0.026144 -0.05229,0.052288 -0.07843,0.078431 0,0.026144 0.01849,0.059945 0,0.078431 -0.01849,0.018486 -0.05994,-0.018486 -0.07843,0 -0.03697,0.036973 0.03697,0.1198898 0,0.1568627 -0.01849,0.018486 -0.05994,-0.018486 -0.07843,0 -0.162277,0.1622773 0.247981,-0.00634 -0.07843,0.1568627 -0.04677,0.023384 -0.11989,-0.036973 -0.156863,0 -0.01849,0.018487 0.01169,0.055048 0,0.078431 -0.163207,0.3264126 0.0054,-0.083846 -0.156863,0.078431 -0.03697,0.036973 0.02338,0.1100953 0,0.1568627 -0.163206,0.3264126 0.0054,-0.083846 -0.156863,0.078431 -0.01849,0.018486 0.01849,0.059945 0,0.078431 -0.01849,0.018486 -0.05994,-0.018486 -0.07843,0 -0.01849,0.018486 0.01849,0.059945 0,0.078431 -0.01849,0.018486 -0.05994,-0.018486 -0.07843,0 -0.01849,0.018486 0.01849,0.059945 0,0.078431 -0.01849,0.018486 -0.05994,-0.018486 -0.07843,0 -0.03697,0.036973 0.03697,0.1198899 0,0.1568628 -0.08926,0.08926 -0.146033,-0.1676919 -0.235294,-0.078431 -0.01849,0.018486 0.01849,0.059945 0,0.078431 -0.01849,0.018486 -0.05994,-0.018486 -0.07843,0 -0.01849,0.018486 0.01849,0.059945 0,0.078431 -0.01604,0.016034 -0.204197,-0.015549 -0.235294,0 -0.03307,0.016535 -0.04536,0.061897 -0.07843,0.078431 -0.02338,0.011692 -0.05505,-0.011692 -0.07843,0 -0.02083,0.010412 -0.224882,0.2144698 -0.235294,0.2352941 -0.02338,0.046768 0.03697,0.1198899 0,0.1568628 -0.03697,0.036973 -0.11989,-0.036973 -0.156863,0 -0.01849,0.018486 0.01849,0.059945 0,0.078431 -0.162277,0.1622773 0.0063,-0.2479813 -0.156863,0.078431 -0.01169,0.023384 0.01169,0.055048 0,0.078431 -0.01653,0.03307 -0.0619,0.045362 -0.07843,0.078431 -0.01169,0.023384 0.01169,0.055048 0,0.078431 -0.01654,0.03307 -0.0619,0.045362 -0.07843,0.078431 -0.01555,0.031097 0.01603,0.2192599 0,0.2352941 -0.01849,0.018486 -0.05994,0.018486 -0.07843,0 -0.01849,-0.018486 0,-0.1045751 0,-0.078431 0,0.4444444 0.05229,0.026144 -0.07843,0.1568627 -0.01849,0.018487 0.01849,0.059945 0,0.078431 -0.01849,0.018486 -0.05994,-0.018486 -0.07843,0 -0.01849,0.018486 0.01849,0.059945 0,0.078431 -0.01849,0.018486 -0.05994,-0.018486 -0.07843,0 -0.01849,0.018486 0.01849,0.059945 0,0.078431 -0.01849,0.018487 -0.05994,-0.018486 -0.07843,0 -0.01849,0.018487 0.01849,0.059945 0,0.078431 -0.01849,0.018486 -0.05995,-0.018486 -0.07843,0 -0.01603,0.016034 0.01555,0.2041967 0,0.2352941 -0.163206,0.3264126 0.0054,-0.083846 -0.156863,0.078431 -0.03697,0.036973 0.03697,0.1198898 0,0.1568627 -0.01849,0.018486 -0.05994,-0.018486 -0.07843,0 -0.01849,0.018486 0.01169,0.055048 0,0.078431 -0.01654,0.03307 -0.0619,0.045362 -0.07843,0.078431 -0.01169,0.023384 0.01849,0.059945 0,0.078431 -0.01849,0.018486 -0.05994,-0.018486 -0.07843,0 -0.03697,0.036973 0.02338,0.1100954 0,0.1568628 -0.163206,0.3264126 0.0054,-0.083846 -0.156862,0.078431 -0.03697,0.036973 0.02338,0.1100953 0,0.1568627 -0.163207,0.3264126 0.0054,-0.083846 -0.156863,0.078431 -0.01849,0.018486 0.01169,0.055048 0,0.078431 -0.163206,0.3264125 0.0054,-0.083846 -0.156863,0.078431 -0.03697,0.036973 0.03697,0.1198899 0,0.1568628 -0.01849,0.018486 -0.05994,-0.018486 -0.07843,0 -0.01849,0.018486 0.01849,0.059945 0,0.078431 -0.01849,0.018486 -0.05994,-0.018486 -0.07843,0 -0.01849,0.018486 0.01849,0.059945 0,0.078431 -0.01849,0.018486 -0.05994,-0.018486 -0.07843,0 -0.01849,0.018486 0.01849,0.059945 0,0.078431 -0.01849,0.018486 -0.05994,-0.018486 -0.07843,0 -0.03697,0.036973 0.03697,0.1198898 0,0.1568627 -0.03697,0.036973 -0.11989,-0.036973 -0.156863,0 -0.03922,0.039216 0.03922,0.1960785 0,0.2352942 -0.03697,0.036973 -0.11989,-0.036973 -0.156863,0 -0.01849,0.018486 0.01169,0.055048 0,0.078431 -0.01654,0.03307 -0.0619,0.045362 -0.07843,0.078431 -0.01169,0.023384 0.01849,0.059945 0,0.078431 -0.01849,0.018486 -0.05994,-0.018486 -0.07843,0 -0.01849,0.018486 0.01849,0.059945 0,0.078431 -0.01849,0.018486 -0.05994,-0.018486 -0.07843,0 -0.01849,0.018486 0.01849,0.059945 0,0.078431 -0.01849,0.018486 -0.05995,-0.018486 -0.07843,0 -0.01849,0.018486 0.01849,0.059945 0,0.078431 -0.01849,0.018486 -0.05994,-0.018486 -0.07843,0 -0.01849,0.018486 0.01849,0.059945 0,0.078431 -0.01849,0.018486 -0.05994,-0.018486 -0.07843,0 -0.01849,0.018486 0.01169,0.055048 0,0.078431 -0.01041,0.020824 -0.21447,0.224882 -0.235294,0.2352942 -0.02338,0.011692 -0.05994,-0.018486 -0.07843,0 -0.01849,0.018486 0.01849,0.059945 0,0.078431 -0.01849,0.018486 -0.05994,-0.018486 -0.07843,0 -0.01849,0.018486 0.01849,0.059945 0,0.078431 -0.01849,0.018486 -0.05505,-0.011692 -0.07843,0 -0.06614,0.03307 -0.09072,0.1237932 -0.156863,0.1568627 -0.02338,0.011692 -0.05994,-0.018486 -0.07843,0 -0.01849,0.018486 0.01849,0.059945 0,0.078431 -0.01849,0.018486 -0.05994,-0.018486 -0.07843,0 -0.01849,0.018486 0.01849,0.059945 0,0.078432 -0.01849,0.01849 -0.05994,-0.01849 -0.07843,0 -0.01849,0.01849 0,0.05229 0,0.07843 -0.02614,0 -0.05505,-0.01169 -0.07843,0 -0.03307,0.01653 -0.05229,0.05229 -0.07843,0.07843 -0.02614,0.02614 -0.0619,0.04536 -0.07843,0.07843 -0.01169,0.02338 0.01849,0.05995 0,0.07843 -0.01849,0.01849 -0.05994,-0.01849 -0.07843,0 -0.162277,0.162277 0.247982,-0.0063 -0.07843,0.156863 -0.04677,0.02338 -0.11989,-0.03697 -0.156863,0 -0.01849,0.01849 0.01849,0.05994 0,0.07843 -0.01849,0.01849 -0.05505,-0.01169 -0.07843,0 -0.03307,0.01654 -0.05229,0.05229 -0.07843,0.07843 -0.02614,0.02614 -0.0619,0.04536 -0.07843,0.07843 -0.01169,0.02338 0.01169,0.05505 0,0.07843 -0.163206,0.326413 0.0054,-0.08385 -0.156863,0.07843 -0.01849,0.01849 0.01849,0.05995 0,0.07843 -0.03697,0.03697 -0.110095,-0.02338 -0.156862,0 -0.03307,0.01653 -0.05229,0.05229 -0.07843,0.07843 -0.02614,0.02614 -0.0619,0.04536 -0.07843,0.07843 -0.01169,0.02338 0.01169,0.05505 0,0.07843 -0.08671,0.173416 -0.04868,0.02434 -0.156863,0.07843 -0.326412,0.163206 0.08385,-0.0054 -0.07843,0.156862 -0.03922,0.03922 -0.196079,-0.03921 -0.235294,0 -0.03697,0.03697 0.03697,0.11989 0,0.156863 -0.01849,0.01849 -0.05994,-0.01849 -0.07843,0 -0.01849,0.01849 0.01849,0.05994 0,0.07843 -0.01849,0.01849 -0.05505,-0.01169 -0.07843,0 -0.09412,0.04706 -0.141177,0.188235 -0.235294,0.235294 -0.02338,0.01169 -0.05994,-0.01849 -0.07843,0 -0.01849,0.01849 0.01849,0.05995 0,0.07843 -0.01849,0.01849 -0.05994,-0.01849 -0.07843,0 -0.01849,0.01849 0.01849,0.05995 0,0.07843 -0.01849,0.01849 -0.05505,-0.01169 -0.07843,0 -0.02083,0.01041 -0.224882,0.21447 -0.235294,0.235294 -0.01169,0.02338 0.01849,0.05995 0,0.07843 -0.01849,0.01849 -0.05505,-0.01169 -0.07843,0 -0.06614,0.03307 -0.09072,0.123793 -0.156863,0.156863 -0.02338,0.01169 -0.05994,-0.01849 -0.07843,0 -0.03697,0.03697 0.03697,0.119889 0,0.156862 -0.01849,0.01849 -0.05995,-0.01849 -0.07843,0 -0.01849,0.01849 0.01849,0.05994 0,0.07843 -0.01849,0.01849 -0.05994,-0.01849 -0.07843,0 -0.01849,0.01849 0.01849,0.05994 0,0.07843 -0.162277,0.162277 0.0063,-0.247981 -0.156862,0.07843 -0.01169,0.02338 0.01849,0.05994 0,0.07843 -0.01849,0.01849 -0.05994,-0.01849 -0.07843,0 -0.01849,0.01849 0.01849,0.05995 0,0.07843 -0.01849,0.01849 -0.05505,-0.01169 -0.07843,0 -0.03307,0.01653 -0.05229,0.05229 -0.07843,0.07843 -0.02614,0.02614 -0.0619,0.04536 -0.07843,0.07843 -0.01169,0.02338 0.01849,0.05995 0,0.07843 -0.01849,0.01849 -0.05505,-0.01169 -0.07843,0 -0.03307,0.01654 -0.05229,0.05229 -0.07843,0.07843 -0.02614,0.02614 -0.0619,0.04536 -0.07843,0.07843 -0.01169,0.02338 0.01849,0.05995 0,0.07843 -0.01849,0.01849 -0.05505,-0.01169 -0.07843,0 -0.326413,0.163207 0.08385,-0.0054 -0.07843,0.156863 -0.01849,0.01849 -0.05994,-0.01849 -0.07843,0 -0.01849,0.01849 0.01849,0.05994 0,0.07843 -0.01849,0.01849 -0.05995,-0.01849 -0.07843,0 -0.01849,0.01849 0.01849,0.05994 0,0.07843 -0.01849,0.01849 -0.05994,-0.01849 -0.07843,0 -0.01849,0.01849 0.01849,0.05994 0,0.07843 -0.01849,0.01849 -0.05994,-0.01849 -0.07843,0 -0.01849,0.01849 0.01849,0.05994 0,0.07843 -0.01849,0.01849 -0.05994,-0.01849 -0.07843,0 -0.01849,0.01849 0.01849,0.05995 0,0.07843 -0.01849,0.01849 -0.05994,-0.01849 -0.07843,0 -0.01849,0.01849 0.01849,0.05995 0,0.07843 -0.01849,0.01849 -0.05994,-0.01849 -0.07843,0 -0.01849,0.01849 0.01169,0.05505 0,0.07843 -0.0075,0.01501 -0.298713,0.306219 -0.313726,0.313725 -0.02338,0.01169 -0.05994,-0.01849 -0.07843,0 -0.01849,0.01849 0.01849,0.05995 0,0.07843 -0.01849,0.01849 -0.05994,-0.01849 -0.07843,0 -0.03697,0.03697 0.03697,0.11989 0,0.156862 -0.01849,0.01849 -0.05505,-0.01169 -0.07843,0 -0.03307,0.01653 -0.04536,0.0619 -0.07843,0.07843 -0.02338,0.01169 -0.05505,-0.01169 -0.07843,0 -0.07718,0.03859 -0.236547,0.275136 -0.313725,0.313725 -0.108185,0.05409 -0.07015,-0.09498 -0.156863,0.07843 -0.01169,0.02338 0.01169,0.05505 0,0.07843 -0.163206,0.326413 0.0054,-0.08385 -0.156863,0.07843 -0.01849,0.01849 0.01849,0.05995 0,0.07843 -0.03697,0.03697 -0.11989,-0.03697 -0.156863,0 -0.01849,0.01849 0.01849,0.05994 0,0.07843 -0.03697,0.03697 -0.119889,-0.03697 -0.156862,0 -0.03922,0.03922 0.03921,0.196079 0,0.235294 -0.162278,0.162278 0.0063,-0.247981 -0.156863,0.07843 -0.01169,0.02338 0.01169,0.05505 0,0.07843 -0.03307,0.06614 -0.123793,0.09072 -0.156863,0.156863 -0.01169,0.02338 0.01849,0.05994 0,0.07843 -0.01849,0.01849 -0.05994,-0.01849 -0.07843,0 -0.01849,0.01849 0.01849,0.05994 0,0.07843 -0.01849,0.01849 -0.05505,-0.01169 -0.07843,0 -0.326413,0.163207 0.08384,-0.0054 -0.07843,0.156863 -0.01849,0.01849 -0.05994,-0.01849 -0.07843,0 -0.01849,0.01849 0.01849,0.05994 0,0.07843 -0.01849,0.01849 -0.05994,-0.01849 -0.07843,0 -0.01849,0.01849 0.01849,0.05995 0,0.07843 -0.01849,0.01849 -0.05994,-0.01849 -0.07843,0 -0.01849,0.01849 0.01849,0.05994 0,0.07843 -0.01849,0.01849 -0.05229,0 -0.07843,0 0,0.02614 0.01169,0.05505 0,0.07843 -0.163207,0.326412 0.0054,-0.08385 -0.156863,0.07843 -0.01849,0.01849 0.01849,0.05994 0,0.07843 -0.01849,0.01849 -0.05995,-0.01849 -0.07843,0 -0.01849,0.01849 0.01849,0.05995 0,0.07843 -0.01849,0.01849 -0.05994,-0.01849 -0.07843,0 -0.01849,0.01849 0.01849,0.05994 0,0.07843 -0.01849,0.01849 -0.05994,-0.01849 -0.07843,0 -0.01849,0.01849 0.01849,0.05994 0,0.07843 -0.01849,0.01849 -0.05994,-0.01849 -0.07843,0 -0.01849,0.01849 0.01849,0.05994 0,0.07843 -0.01849,0.01849 -0.05505,-0.01169 -0.07843,0 -0.326413,0.163206 0.08385,-0.0054 -0.07843,0.156863 -0.01849,0.01849 -0.05994,-0.01849 -0.07843,0 -0.01849,0.01849 0.01849,0.05995 0,0.07843 -0.01849,0.01849 -0.05505,-0.01169 -0.07843,0 -0.07718,0.03859 -0.236547,0.275136 -0.313726,0.313726 -0.02338,0.01169 -0.05505,-0.01169 -0.07843,0 -0.173416,0.08671 -0.02434,0.04868 -0.07843,0.156862 -0.01654,0.03307 -0.05229,0.05229 -0.07843,0.07843 -0.02614,0.02614 -0.04536,0.0619 -0.07843,0.07843 -0.02338,0.01169 -0.05505,-0.01169 -0.07843,0 -0.326413,0.163206 0.08384,-0.0054 -0.07843,0.156863 -0.01849,0.01849 -0.05505,-0.01169 -0.07843,0 -0.06614,0.03307 -0.09072,0.123793 -0.156863,0.156863 -0.02338,0.01169 -0.05994,-0.01849 -0.07843,0 -0.162278,0.162277 0.247981,-0.0063 -0.07843,0.156862 -0.02338,0.01169 -0.05995,-0.01849 -0.07843,0 -0.162277,0.162278 0.247981,-0.0063 -0.07843,0.156863 -0.02338,0.01169 -0.05505,-0.01169 -0.07843,0 -0.03307,0.01654 -0.04536,0.0619 -0.07843,0.07843 -0.02338,0.01169 -0.05505,-0.01169 -0.07843,0 -0.03307,0.01654 -0.05229,0.05229 -0.07843,0.07843 -0.02614,0.02614 -0.0619,0.04536 -0.07843,0.07843 -0.02338,0.04677 0.03697,0.11989 0,0.156863 -0.01849,0.01849 -0.05505,-0.01169 -0.07843,0 -0.03307,0.01654 -0.04536,0.0619 -0.07843,0.07843 -0.04677,0.02338 -0.110095,-0.02338 -0.156863,0 -0.173416,0.08671 -0.02434,0.04868 -0.07843,0.156863 -0.01653,0.03307 -0.0619,0.04536 -0.07843,0.07843 -0.01169,0.02338 0.01849,0.05994 0,0.07843 -0.01849,0.01849 -0.05505,-0.01169 -0.07843,0 -0.260124,0.260124 0.07395,-0.03697 -0.156863,0.07843 -0.03307,0.01654 -0.04536,0.0619 -0.07843,0.07843 -0.04677,0.02338 -0.110095,-0.02338 -0.156863,0 -0.173416,0.08671 -0.02434,0.04868 -0.07843,0.156862 -0.01041,0.02083 -0.21447,0.224882 -0.235294,0.235294 -0.02338,0.01169 -0.05994,-0.01849 -0.07843,0 -0.01849,0.01849 0.01849,0.05995 0,0.07843 -0.01849,0.01849 -0.05994,-0.01849 -0.07843,0 -0.03697,0.03697 0.03697,0.11989 0,0.156862 -0.01849,0.01849 -0.05994,-0.01849 -0.07843,0 -0.01849,0.01849 0.01849,0.05994 0,0.07843 -0.01849,0.01849 -0.05994,-0.01849 -0.07843,0 -0.01849,0.01849 0.01849,0.05994 0,0.07843 -0.01849,0.01849 -0.05505,-0.01169 -0.07843,0 -0.03307,0.01654 -0.04536,0.0619 -0.07843,0.07843 -0.02338,0.01169 -0.05994,-0.01849 -0.07843,0 -0.03697,0.03697 0.03697,0.119889 0,0.156862 -0.01849,0.01849 -0.05994,-0.01849 -0.07843,0 -0.01849,0.01849 0.01849,0.05995 0,0.07843 -0.01849,0.01849 -0.05994,-0.01849 -0.07843,0 -0.01849,0.01849 0.01169,0.05505 0,0.07843 -0.01653,0.03307 -0.05229,0.05229 -0.07843,0.07843 -0.02614,0.02614 -0.04536,0.0619 -0.07843,0.07843 -0.02338,0.01169 -0.05994,-0.01849 -0.07843,0 -0.01849,0.01849 0.01169,0.05505 0,0.07843 -0.01653,0.03307 -0.0619,0.04536 -0.07843,0.07843 -0.01169,0.02338 0.01169,0.05505 0,0.07843 -0.03307,0.06614 -0.123793,0.09072 -0.156863,0.156863 -0.01169,0.02338 0.01849,0.05995 0,0.07843 -0.03697,0.03697 -0.11989,-0.03697 -0.156863,0 -0.03697,0.03697 0.03697,0.11989 0,0.156863 -0.01849,0.01849 -0.05994,-0.01849 -0.07843,0 -0.01849,0.01849 0.01849,0.05995 0,0.07843 -0.01849,0.01849 -0.05994,-0.01849 -0.07843,0 -0.03922,0.03922 0.03921,0.196079 0,0.235294 -0.03697,0.03697 -0.11989,-0.03697 -0.156863,0 -0.01849,0.01849 0.01169,0.05505 0,0.07843 -0.01654,0.03307 -0.0619,0.04536 -0.07843,0.07843 -0.01169,0.02338 0.01849,0.05994 0,0.07843 -0.01849,0.01849 -0.05994,-0.01849 -0.07843,0 -0.01849,0.01849 0.01849,0.05994 0,0.07843 -0.01849,0.01849 -0.05994,-0.01849 -0.07843,0 -0.03697,0.03697 0.03697,0.11989 0,0.156863 -0.01849,0.01849 -0.05994,-0.01849 -0.07843,0 -0.01849,0.01849 0.01169,0.05505 0,0.07843 -0.01653,0.03307 -0.0619,0.04536 -0.07843,0.07843 -0.01169,0.02338 0.01169,0.05505 0,0.07843 -0.163206,0.326412 0.0054,-0.08385 -0.156863,0.07843 -0.01849,0.01849 0.01849,0.05995 0,0.07843 -0.162277,0.162278 0.0063,-0.247981 -0.156862,0.07843 -0.03137,0.06274 0.03137,0.172549 0,0.235294 -0.01653,0.03307 -0.0619,0.04536 -0.07843,0.07843 -0.01169,0.02338 0.01849,0.05994 0,0.07843 -0.01849,0.01849 -0.05994,-0.01849 -0.07843,0 -0.01849,0.01849 0.01169,0.05505 0,0.07843 -0.03307,0.06614 -0.123793,0.09072 -0.156863,0.156863 -0.01169,0.02338 0.01849,0.05994 0,0.07843 -0.01849,0.01849 -0.05994,-0.01849 -0.07843,0 -0.01849,0.01849 0.01849,0.05995 0,0.07843 -0.01849,0.01849 -0.05994,-0.01849 -0.07843,0 -0.03697,0.03697 0.02338,0.110095 0,0.156862 -0.04706,0.09412 -0.188235,0.141177 -0.235294,0.235294 -0.01169,0.02338 0.01849,0.05995 0,0.07843 -0.01849,0.01849 -0.05994,-0.01849 -0.07843,0 -0.01849,0.01849 0.01849,0.05994 0,0.07843 -0.01849,0.01849 -0.05994,-0.01849 -0.07843,0 -0.01849,0.01849 0.01849,0.05994 0,0.07843 -0.01849,0.01849 -0.05994,-0.01849 -0.07843,0 -0.03697,0.03697 0.03697,0.11989 0,0.156863 -0.01849,0.01849 -0.05995,-0.01849 -0.07843,0 -0.01849,0.01849 0.01849,0.05994 0,0.07843 -0.01849,0.01849 -0.05994,-0.01849 -0.07843,0 -0.01849,0.01849 0.01849,0.05995 0,0.07843 -0.01849,0.01849 -0.05994,-0.01849 -0.07843,0 -0.01849,0.01849 0.01849,0.05994 0,0.07843 -0.01849,0.01849 -0.05505,-0.01169 -0.07843,0 -0.03307,0.01654 -0.05229,0.05229 -0.07843,0.07843 -0.02614,0.02614 -0.0619,0.04536 -0.07843,0.07843 -0.01169,0.02338 0.01169,0.05505 0,0.07843 -0.01653,0.03307 -0.05229,0.05229 -0.07843,0.07843 -0.02614,0.02614 -0.04536,0.0619 -0.07843,0.07843 -0.20915,0 0.02614,-0.02614 -0.07843,0.07843 -0.01849,0.01849 -0.05994,-0.01849 -0.07843,0 -0.01849,0.01849 0.01849,0.05994 0,0.07843 -0.01849,0.01849 -0.05994,-0.01849 -0.07843,0 -0.01849,0.01849 0.01169,0.05505 0,0.07843 -0.01653,0.03307 -0.0619,0.04536 -0.07843,0.07843 -0.02338,0.04677 0.03697,0.11989 0,0.156862 -0.03697,0.03697 -0.11989,-0.03697 -0.156863,0 -0.01849,0.01849 0.01849,0.05994 0,0.07843 -0.01849,0.01849 -0.05505,-0.01169 -0.07843,0 -0.326413,0.163206 0.08384,-0.0054 -0.07843,0.156863 -0.01849,0.01849 -0.05994,-0.01849 -0.07843,0 -0.01849,0.01849 0.01169,0.05505 0,0.07843 -0.01653,0.03307 -0.05229,0.05229 -0.07843,0.07843 -0.02614,0.02614 -0.04536,0.0619 -0.07843,0.07843 -0.02338,0.01169 -0.05505,-0.01169 -0.07843,0 -0.03307,0.01653 -0.04536,0.0619 -0.07843,0.07843 -0.02338,0.01169 -0.05994,-0.01849 -0.07843,0 -0.01849,0.01849 0.01849,0.05994 0,0.07843 -0.01849,0.01849 -0.05995,-0.01849 -0.07843,0 -0.03697,0.03697 0.03697,0.11989 0,0.156863 -0.01849,0.01849 -0.05994,-0.01849 -0.07843,0 -0.01849,0.01849 0.01169,0.05505 0,0.07843 -0.08671,0.173416 -0.04868,0.02434 -0.156863,0.07843 -0.03307,0.01654 -0.05229,0.05229 -0.07843,0.07843 -0.02614,0.02614 -0.05229,0.05229 -0.07843,0.07843 -0.02614,0.02614 -0.0619,0.04536 -0.07843,0.07843 -0.01169,0.02338 0.01169,0.05505 0,0.07843 -0.01653,0.03307 -0.05229,0.05229 -0.07843,0.07843 -0.02614,0.02614 -0.04536,0.0619 -0.07843,0.07843 -0.209151,0 0.02614,-0.02614 -0.07843,0.07843 -0.01849,0.01849 -0.05994,-0.01849 -0.07843,0 -0.01849,0.01849 0.01849,0.05994 0,0.07843 -0.01849,0.01849 -0.05994,-0.01849 -0.07843,0 -0.01849,0.01849 0.01849,0.05994 0,0.07843 -0.01849,0.01849 -0.05994,-0.01849 -0.07843,0 -0.03697,0.03697 0.03697,0.11989 0,0.156863 -0.01849,0.01849 -0.05994,-0.01849 -0.07843,0 -0.01849,0.01849 0.01849,0.05994 0,0.07843 -0.03697,0.03697 -0.11989,-0.03697 -0.156863,0 -0.01849,0.01849 0.01849,0.05994 0,0.07843 -0.01849,0.01849 -0.05994,-0.01849 -0.07843,0 -0.03697,0.03697 0.03697,0.11989 0,0.156863 -0.162278,0.162277 0.0063,-0.247982 -0.156863,0.07843 -0.01169,0.02338 0.01849,0.05994 0,0.07843 -0.01849,0.01849 -0.05994,-0.01849 -0.07843,0 -0.01849,0.01849 0.01169,0.05505 0,0.07843 -0.03859,0.07718 -0.275136,0.236546 -0.313725,0.313725 -0.01169,0.02338 0.01849,0.05994 0,0.07843 -0.01849,0.01849 -0.05994,-0.01849 -0.07843,0 -0.01849,0.01849 0.01849,0.05994 0,0.07843 -0.01849,0.01849 -0.05994,-0.01849 -0.07843,0 -0.01849,0.01849 0.01849,0.05994 0,0.07843 -0.01849,0.01849 -0.05994,-0.01849 -0.07843,0 -0.05229,0.05229 0.05229,0.104575 0,0.156863 -0.01849,0.01849 -0.05505,-0.01169 -0.07843,0 -0.326412,0.163206 0.08385,-0.0054 -0.07843,0.156863 -0.01849,0.01849 -0.05995,-0.01849 -0.07843,0 -0.01849,0.01849 0.01849,0.05995 0,0.07843 -0.01849,0.01849 -0.05994,-0.01849 -0.07843,0 -0.01849,0.01849 0.01169,0.05505 0,0.07843 -0.04706,0.09412 -0.188235,0.141177 -0.235294,0.235295 -0.01169,0.02338 0.01849,0.05994 0,0.07843 -0.03697,0.03697 -0.11989,-0.03697 -0.156862,0 -0.03697,0.03697 0.03697,0.11989 0,0.156863 -0.01849,0.01849 -0.05994,-0.01849 -0.07843,0 -0.01849,0.01849 0.01169,0.05505 0,0.07843 -0.163206,0.326413 0.0054,-0.08385 -0.156863,0.07843 -0.01849,0.01849 0.01849,0.05994 0,0.07843 -0.01849,0.01849 -0.05994,-0.01849 -0.07843,0 -0.01849,0.01849 0,0.05229 0,0.07843 -0.02614,0 -0.05505,-0.01169 -0.07843,0 -0.326413,0.163206 0.08385,-0.0054 -0.07843,0.156863 -0.01849,0.01849 -0.05994,-0.01849 -0.07843,0 -0.01849,0.01849 0.01169,0.05505 0,0.07843 -0.163206,0.326413 0.0054,-0.08385 -0.156863,0.07843 -0.01849,0.01849 0.01849,0.05994 0,0.07843 -0.03697,0.03697 -0.11989,-0.03697 -0.156863,0 -0.01849,0.01849 0.01169,0.05505 0,0.07843 -0.01653,0.03307 -0.0619,0.04536 -0.07843,0.07843 -0.01169,0.02338 0.01849,0.05994 0,0.07843 -0.01849,0.01849 -0.05994,-0.01849 -0.07843,0 -0.01849,0.01849 0.01849,0.05994 0,0.07843 -0.01849,0.01849 -0.05505,-0.01169 -0.07843,0 -0.06614,0.03307 -0.09072,0.123793 -0.156862,0.156862 -0.02338,0.01169 -0.05505,-0.01169 -0.07843,0 -0.326412,0.163207 0.08385,-0.0054 -0.07843,0.156863 -0.01849,0.01849 -0.05994,-0.01849 -0.07843,0 -0.01849,0.01849 0.01849,0.05995 0,0.07843 -0.01849,0.01849 -0.05994,-0.01849 -0.07843,0 -0.01849,0.01849 0.01849,0.05994 0,0.07843 -0.01849,0.01849 -0.05994,-0.01849 -0.07843,0 -0.01849,0.01849 0.01849,0.05994 0,0.07843 -0.01849,0.01849 -0.05995,-0.01849 -0.07843,0 -0.01849,0.01849 0.01849,0.05995 0,0.07843 -0.01849,0.01849 -0.05994,-0.01849 -0.07843,0 -0.01849,0.01849 0.01849,0.05994 0,0.07843 -0.01849,0.01849 -0.05505,-0.01169 -0.07843,0 -0.06614,0.03307 -0.09072,0.123793 -0.156863,0.156863 -0.02338,0.01169 -0.05994,-0.01849 -0.07843,0 -0.01849,0.01849 0.01169,0.05505 0,0.07843 -0.163206,0.326413 0.0054,-0.08385 -0.156862,0.07843 -0.01849,0.01849 0.01849,0.05994 0,0.07843 -0.01849,0.01849 -0.05995,-0.01849 -0.07843,0 -0.01849,0.01849 0.01849,0.05994 0,0.07843 -0.01849,0.01849 -0.05995,-0.01849 -0.07843,0 -0.01849,0.01849 0.01849,0.05995 0,0.07843 -0.01849,0.01849 -0.05994,-0.01849 -0.07843,0 -0.01849,0.01849 0.01849,0.05994 0,0.07843 -0.01849,0.01849 -0.05994,-0.01849 -0.07843,0 -0.01849,0.01849 0.01849,0.05994 0,0.07843 -0.162277,0.162278 0.0063,-0.247981 -0.156863,0.07843 -0.01169,0.02338 0.01849,0.05994 0,0.07843 -0.03697,0.03697 -0.119889,-0.03697 -0.156862,0 -0.01849,0.01849 0.01849,0.05994 0,0.07843 -0.01849,0.01849 -0.05994,-0.01849 -0.07843,0 -0.01849,0.01849 0.01849,0.05994 0,0.07843 -0.01849,0.01849 -0.05994,-0.01849 -0.07843,0 -0.01849,0.01849 0.01849,0.05994 0,0.07843 -0.01849,0.01849 -0.05994,-0.01849 -0.07843,0 -0.01849,0.01849 0.01849,0.05994 0,0.07843 -0.01849,0.01849 -0.05994,-0.01849 -0.07843,0 -0.03697,0.03697 0.03697,0.11989 0,0.156863 -0.03697,0.03697 -0.110095,-0.02338 -0.156863,0 -0.03307,0.01653 -0.04536,0.0619 -0.07843,0.07843 -0.02338,0.01169 -0.05995,-0.01849 -0.07843,0 -0.01849,0.01849 0.01849,0.05994 0,0.07843 -0.01849,0.01849 -0.05994,-0.01849 -0.07843,0 -0.01849,0.01849 0.01849,0.05994 0,0.07843 -0.01849,0.01849 -0.05994,-0.01849 -0.07843,0 -0.03697,0.03697 0.03697,0.11989 0,0.156863 -0.03697,0.03697 -0.110095,-0.02338 -0.156863,0 -0.03307,0.01654 -0.05229,0.05229 -0.07843,0.07843 -0.02614,0.02614 -0.04536,0.0619 -0.07843,0.07843 -0.02338,0.01169 -0.05994,-0.01849 -0.07843,0 -0.03697,0.03697 0.03697,0.11989 0,0.156863 -0.01849,0.01849 -0.05994,-0.01849 -0.07843,0 -0.01849,0.01849 0.01849,0.05994 0,0.07843 -0.01849,0.01849 -0.05994,-0.01849 -0.07843,0 -0.01849,0.01849 0.01849,0.05994 0,0.07843 -0.03697,0.03697 -0.110095,-0.02338 -0.156862,0 -0.03307,0.01653 -0.05229,0.05229 -0.07843,0.07843 -0.02614,0.02614 -0.0619,0.04536 -0.07843,0.07843 -0.01169,0.02338 0.01169,0.05505 0,0.07843 -0.163206,0.326413 0.0054,-0.08384 -0.156863,0.07843 -0.01849,0.01849 0.01849,0.05994 0,0.07843 -0.01849,0.01849 -0.05994,-0.01849 -0.07843,0 -0.01849,0.01849 0.01849,0.05994 0,0.07843 -0.03697,0.03697 -0.110096,-0.02338 -0.156863,0 -0.158626,0.07931 -0.02515,0.182013 -0.07843,0.235294 -0.01849,0.01849 -0.05994,-0.01849 -0.07843,0 -0.01849,0.01849 0.01169,0.05505 0,0.07843 -0.01653,0.03307 -0.05229,0.05229 -0.07843,0.07843 -0.02614,0.02614 -0.04536,0.0619 -0.07843,0.07843 -0.04677,0.02338 -0.11989,-0.03697 -0.156863,0 -0.01849,0.01849 0.01849,0.05994 0,0.07843 -0.01849,0.01849 -0.05994,-0.01849 -0.07843,0 -0.03697,0.03697 0.03697,0.11989 0,0.156863 -0.01849,0.01849 -0.05994,-0.01849 -0.07843,0 -0.01849,0.01849 0.01849,0.05994 0,0.07843 -0.01849,0.01849 -0.05994,-0.01849 -0.07843,0 -0.162278,0.162278 0.247981,-0.0063 -0.07843,0.156863 -0.0311,0.01555 -0.21926,-0.01603 -0.235294,0 -0.03697,0.03697 0.02338,0.110095 0,0.156863 -0.163206,0.326412 0.0054,-0.08385 -0.156863,0.07843 -0.01849,0.01849 0.01849,0.05994 0,0.07843 -0.01849,0.01849 -0.05994,-0.01849 -0.07843,0 -0.01849,0.01849 0.01849,0.05994 0,0.07843 -0.03697,0.03697 -0.110095,-0.02338 -0.156863,0 -0.173416,0.08671 -0.02434,0.04868 -0.07843,0.156863 -0.163206,0.326412 0.0054,-0.08385 -0.156863,0.07843 -0.01849,0.01849 0.01849,0.05994 0,0.07843 -0.01849,0.01849 -0.05505,-0.01169 -0.07843,0 -0.06614,0.03307 -0.09072,0.123794 -0.156863,0.156863 -0.02338,0.01169 -0.05505,-0.01169 -0.07843,0 -0.06614,0.03307 -0.09072,0.123793 -0.156863,0.156863 -0.02338,0.01169 -0.05505,-0.01169 -0.07843,0 -0.03307,0.01654 -0.05229,0.05229 -0.07843,0.07843 -0.02614,0.02614 -0.0619,0.04536 -0.07843,0.07843 -0.05409,0.108184 0.09499,0.07015 -0.07843,0.156862 -0.04677,0.02338 -0.110095,-0.02338 -0.156862,0 -0.03307,0.01653 -0.04536,0.0619 -0.07843,0.07843 -0.02338,0.01169 -0.05505,-0.01169 -0.07843,0 -0.326413,0.163206 0.08385,-0.0054 -0.07843,0.156862 -0.01849,0.01849 -0.05994,-0.01849 -0.07843,0 -0.01849,0.01849 0.01849,0.05994 0,0.07843 -0.01849,0.01849 -0.05994,-0.01849 -0.07843,0 -0.01849,0.01849 0.01849,0.05994 0,0.07843 -0.03697,0.03697 -0.11989,-0.03697 -0.156863,0 -0.01849,0.01849 0.01849,0.05994 0,0.07843 -0.03697,0.03697 -0.11989,-0.03697 -0.156863,0 -0.01849,0.01849 0.01849,0.05994 0,0.07843 -0.01849,0.01849 -0.05994,-0.01849 -0.07843,0 -0.01849,0.01849 0.01849,0.05994 0,0.07843 -0.01849,0.01849 -0.05994,-0.01849 -0.07843,0 -0.01849,0.01849 0.01849,0.05994 0,0.07843 -0.03697,0.03697 -0.11989,-0.03697 -0.156863,0 -0.01849,0.01849 0.01849,0.05994 0,0.07843 -0.162277,0.162277 0.0063,-0.247981 -0.156863,0.07843 -0.01169,0.02338 0.01849,0.05994 0,0.07843 -0.03922,0.03922 -0.196078,-0.03922 -0.235294,0 -0.01849,0.01849 0.01849,0.05994 0,0.07843 -0.01849,0.01849 -0.05994,-0.01849 -0.07843,0 -0.01849,0.01849 0.01849,0.05994 0,0.07843 -0.01849,0.01849 -0.05994,-0.01849 -0.07843,0 -0.03697,0.03697 0.03697,0.119889 0,0.156862 -0.01849,0.01849 -0.05505,-0.01169 -0.07843,0 -0.03307,0.01653 -0.04536,0.0619 -0.07843,0.07843 -0.02338,0.01169 -0.05994,-0.01849 -0.07843,0 -0.01849,0.01849 0.01849,0.05994 0,0.07843 -0.03697,0.03697 -0.110095,-0.02338 -0.156863,0 -0.326412,0.163206 0.08385,-0.0054 -0.07843,0.156863 -0.01849,0.01849 -0.05505,-0.01169 -0.07843,0 -0.06614,0.03307 -0.09072,0.123793 -0.156863,0.156863 -0.02338,0.01169 -0.05994,-0.01849 -0.07843,0 -0.01849,0.01849 0.01849,0.05994 0,0.07843 -0.03697,0.03697 -0.110096,-0.02338 -0.156863,0 -0.03307,0.01653 -0.04536,0.0619 -0.07843,0.07843 -0.02338,0.01169 -0.05994,-0.01849 -0.07843,0 -0.01849,0.01849 0.01849,0.05995 0,0.07843 -0.01849,0.01849 -0.05505,-0.01169 -0.07843,0 -0.06614,0.03307 -0.09072,0.123793 -0.156863,0.156862 -0.02338,0.01169 -0.05994,-0.01849 -0.07843,0 -0.162278,0.162278 0.247981,-0.0063 -0.07843,0.156863 -0.04677,0.02338 -0.11989,-0.03697 -0.156863,0 -0.01849,0.01849 0.01849,0.05994 0,0.07843 -0.01849,0.01849 -0.05505,-0.01169 -0.07843,0 -0.03307,0.01653 -0.04536,0.0619 -0.07843,0.07843 -0.02338,0.01169 -0.05994,-0.01849 -0.07843,0 -0.01849,0.01849 0.01169,0.05505 0,0.07843 -0.163206,0.326413 0.0054,-0.08385 -0.156862,0.07843 -0.01849,0.01849 0.01849,0.05995 0,0.07843 -0.01849,0.01849 -0.05505,-0.01169 -0.07843,0 -0.03307,0.01654 -0.04536,0.0619 -0.07843,0.07843 -0.04677,0.02338 -0.11989,-0.03697 -0.156863,0 -0.03697,0.03697 0.03697,0.11989 0,0.156863 -0.01849,0.01849 -0.05995,-0.01849 -0.07843,0 -0.01849,0.01849 0.01849,0.05994 0,0.07843 -0.01849,0.01849 -0.05505,-0.01169 -0.07843,0 -0.03307,0.01653 -0.04536,0.0619 -0.07843,0.07843 -0.02338,0.01169 -0.05994,-0.01849 -0.07843,0 -0.01849,0.01849 0.01849,0.05994 0,0.07843 -0.01849,0.01849 -0.05994,-0.01849 -0.07843,0 -0.01849,0.01849 0.01849,0.05994 0,0.07843 -0.01849,0.01849 -0.05994,-0.01849 -0.07843,0 -0.01849,0.01849 0.01849,0.05994 0,0.07843 -0.01849,0.01849 -0.05994,-0.01849 -0.07843,0 -0.01849,0.01849 0.01849,0.05994 0,0.07843 -0.01849,0.01849 -0.05994,-0.01849 -0.07843,0 -0.01849,0.01849 0.01849,0.05994 0,0.07843 -0.01849,0.01849 -0.05994,-0.01849 -0.07843,0 -0.01849,0.01849 0.01849,0.05994 0,0.07843 -0.01849,0.01849 -0.05994,-0.01849 -0.07843,0 -0.01849,0.01849 0.01849,0.05994 0,0.07843 -0.01849,0.01849 -0.05994,-0.01849 -0.07843,0 -0.01849,0.01849 0.01849,0.05994 0,0.07843 -0.01849,0.01849 -0.05994,-0.01849 -0.07843,0 -0.01849,0.01849 0.01849,0.05995 0,0.07843 -0.01849,0.01849 -0.05994,-0.01849 -0.07843,0 -0.01849,0.01849 0.01849,0.05994 0,0.07843 -0.01849,0.01849 -0.05994,-0.01849 -0.07843,0 -0.03697,0.03697 0.03697,0.119889 0,0.156862 -0.01849,0.01849 -0.05505,-0.01169 -0.07843,0 -0.03307,0.01653 -0.04536,0.0619 -0.07843,0.07843 -0.02338,0.01169 -0.05994,-0.01849 -0.07843,0 -0.03697,0.03697 0.02338,0.110095 0,0.156862 -0.01653,0.03307 -0.0619,0.04536 -0.07843,0.07843 -0.01169,0.02338 0.01169,0.05505 0,0.07843 -0.01653,0.03307 -0.05229,0.05229 -0.07843,0.07843 -0.02614,0.02614 -0.04536,0.0619 -0.07843,0.07843 -0.02338,0.01169 -0.05994,-0.01849 -0.07843,0 -0.01849,0.01849 0.01849,0.05994 0,0.07843 -0.01849,0.01849 -0.05994,-0.01849 -0.07843,0 -0.01849,0.01849 0.01169,0.05505 0,0.07843 -0.01654,0.03307 -0.0619,0.04536 -0.07843,0.07843 -0.02338,0.04677 0.02338,0.110095 0,0.156863 -0.163207,0.326412 0.0054,-0.08385 -0.156863,0.07843 -0.01849,0.01849 0.01849,0.05994 0,0.07843 -0.01849,0.01849 -0.05994,-0.01849 -0.07843,0 -0.01849,0.01849 0.01849,0.05994 0,0.07843 -0.01849,0.01849 -0.05994,-0.01849 -0.07843,0 -0.01849,0.01849 0.01849,0.05994 0,0.07843 -0.01849,0.01849 -0.05994,-0.01849 -0.07843,0 -0.01849,0.01849 0.01169,0.05505 0,0.07843 -0.01654,0.03307 -0.0619,0.04536 -0.07843,0.07843 -0.01169,0.02338 0.01849,0.05995 0,0.07843 -0.01849,0.01849 -0.05994,-0.01849 -0.07843,0 -0.01849,0.01849 0.01849,0.05994 0,0.07843 -0.01849,0.01849 -0.05994,-0.01849 -0.07843,0 -0.01849,0.01849 0.01849,0.05994 0,0.07843 -0.01849,0.01849 -0.05994,-0.01849 -0.07843,0 -0.01849,0.01849 0.01169,0.05505 0,0.07843 -0.01653,0.03307 -0.0619,0.04536 -0.07843,0.07843 -0.01169,0.02338 0.01849,0.05994 0,0.07843 -0.01849,0.01849 -0.05994,-0.01849 -0.07843,0 -0.01849,0.01849 0.01849,0.05995 0,0.07843 -0.01849,0.01849 -0.05994,-0.01849 -0.07843,0 -0.01849,0.01849 0.01849,0.05994 0,0.07843 -0.01849,0.01849 -0.05994,-0.01849 -0.07843,0 -0.01849,0.01849 0.01169,0.05505 0,0.07843 -0.01654,0.03307 -0.0619,0.04536 -0.07843,0.07843 -0.01169,0.02338 0.01849,0.05994 0,0.07843 -0.01849,0.01849 -0.05505,-0.01169 -0.07843,0 -0.326413,0.163206 0.08385,-0.0054 -0.07843,0.156863 -0.01849,0.01849 -0.05994,-0.01849 -0.07843,0 -0.01849,0.01849 0.01849,0.05994 0,0.07843 -0.01849,0.01849 -0.05994,-0.01849 -0.07843,0 -0.01849,0.01849 0.01849,0.05995 0,0.07843 -0.01849,0.01849 -0.05994,-0.01849 -0.07843,0 -0.01849,0.01849 0.01849,0.05995 0,0.07843 -0.01849,0.01849 -0.05994,-0.01849 -0.07843,0 -0.01849,0.01849 0.01849,0.05994 0,0.07843 -0.01849,0.01849 -0.05994,-0.01849 -0.07843,0 -0.01849,0.01849 0.01849,0.05994 0,0.07843 -0.03697,0.03697 -0.11989,-0.03697 -0.156863,0 -0.03697,0.03697 0.03697,0.11989 0,0.156863 -0.162277,0.162277 0.0063,-0.247982 -0.156863,0.07843 -0.01169,0.02338 0.01849,0.05994 0,0.07843 -0.01849,0.01849 -0.05994,-0.01849 -0.07843,0 -0.01849,0.01849 0.01849,0.05994 0,0.07843 -0.01849,0.01849 -0.05994,-0.01849 -0.07843,0 -0.01849,0.01849 0.01849,0.05994 0,0.07843 -0.162277,0.162277 0.0063,-0.247981 -0.156862,0.07843 -0.01169,0.02338 0.01169,0.05505 0,0.07843 -0.03307,0.06614 -0.123793,0.09072 -0.156863,0.156863 -0.01169,0.02338 0.01169,0.05505 0,0.07843 -0.07931,0.158626 -0.182014,0.02515 -0.235294,0.07843 -0.01849,0.01849 0.01849,0.05994 0,0.07843 -0.01849,0.01849 -0.05994,-0.01849 -0.07843,0 -0.01849,0.01849 0.01169,0.05505 0,0.07843 -0.0075,0.01501 -0.298713,0.306219 -0.313726,0.313725 -0.04677,0.02338 -0.11989,-0.03697 -0.156863,0 -0.03697,0.03697 0.03697,0.11989 0,0.156863 -0.01849,0.01849 -0.05505,-0.01169 -0.07843,0 -0.03307,0.01653 -0.04536,0.0619 -0.07843,0.07843 -0.02338,0.01169 -0.05505,-0.01169 -0.07843,0 -0.144393,0.0722 -0.01247,0.163097 -0.156863,0.235294 -0.02338,0.01169 -0.05505,-0.01169 -0.07843,0 -0.03307,0.01653 -0.04536,0.0619 -0.07843,0.07843 -0.02338,0.01169 -0.05994,-0.01849 -0.07843,0 -0.01849,0.01849 0.01849,0.05995 0,0.07843 -0.01849,0.01849 -0.05505,-0.01169 -0.07843,0 -0.09412,0.04706 -0.141177,0.188236 -0.235294,0.235295 -0.04677,0.02338 -0.11989,-0.03697 -0.156863,0 -0.01849,0.01849 0.01169,0.05505 0,0.07843 -0.163206,0.326413 0.0054,-0.08385 -0.156863,0.07843 -0.01849,0.01849 0.01849,0.05994 0,0.07843 -0.01849,0.01849 -0.05994,-0.01849 -0.07843,0 -0.01849,0.01849 0.01169,0.05505 0,0.07843 -0.01654,0.03307 -0.05229,0.05229 -0.07843,0.07843 -0.02614,0.02614 -0.04536,0.0619 -0.07843,0.07843 -0.02338,0.01169 -0.05505,-0.01169 -0.07843,0 -0.06614,0.03307 -0.09072,0.123793 -0.156863,0.156863 -0.02338,0.01169 -0.05994,-0.01849 -0.07843,0 -0.01849,0.01849 0.01169,0.05505 0,0.07843 -0.01041,0.02082 -0.21447,0.224882 -0.235294,0.235294 -0.04677,0.02338 -0.110096,-0.02338 -0.156863,0 -0.173416,0.08671 -0.02434,0.04868 -0.07843,0.156863 -0.01041,0.02082 -0.214469,0.224882 -0.235294,0.235294 -0.02338,0.01169 -0.05994,-0.01849 -0.07843,0 -0.01849,0.01849 0.01849,0.05994 0,0.07843 -0.01849,0.01849 -0.05994,-0.01849 -0.07843,0 -0.01849,0.01849 0.01849,0.05995 0,0.07843 -0.01849,0.01849 -0.05505,-0.01169 -0.07843,0 -0.09412,0.04706 -0.141176,0.188235 -0.235294,0.235294 -0.02338,0.01169 -0.05995,-0.01849 -0.07843,0 -0.01849,0.01849 0.01849,0.05994 0,0.07843 -0.01849,0.01849 -0.05994,-0.01849 -0.07843,0 -0.01849,0.01849 0.01849,0.05994 0,0.07843 -0.01849,0.01849 -0.05994,-0.01849 -0.07843,0 -0.01849,0.01849 0.01849,0.05994 0,0.07843 -0.01849,0.01849 -0.05505,-0.01169 -0.07843,0 -0.06614,0.03307 -0.09072,0.123793 -0.156863,0.156863 -0.02338,0.01169 -0.05994,-0.01849 -0.07843,0 -0.01849,0.01849 0.01169,0.05505 0,0.07843 -0.01653,0.03307 -0.0619,0.04536 -0.07843,0.07843 -0.01169,0.02338 0.01849,0.05994 0,0.07843 -0.01849,0.01849 -0.05505,-0.01169 -0.07843,0 -0.06614,0.03307 -0.09072,0.123793 -0.156863,0.156863 -0.02338,0.01169 -0.05994,-0.01849 -0.07843,0 -0.01849,0.01849 0.01849,0.05994 0,0.07843 -0.01849,0.01849 -0.05995,-0.01849 -0.07843,0 -0.01849,0.01849 0.01849,0.05995 0,0.07843 -0.01849,0.01849 -0.05995,-0.01849 -0.07843,0 -0.01849,0.01849 0.01849,0.05994 0,0.07843 -0.01849,0.01849 -0.05994,-0.01849 -0.07843,0 -0.01849,0.01849 0.01849,0.05994 0,0.07843 -0.01849,0.01849 -0.05229,0 -0.07843,0 0,0.02614 0.01169,0.05505 0,0.07843 -0.163206,0.326413 0.0054,-0.08385 -0.156863,0.07843 -0.01849,0.01849 0.01849,0.05994 0,0.07843 -0.01849,0.01849 -0.05994,-0.01849 -0.07843,0 -0.01849,0.01849 0.01849,0.05994 0,0.07843 -0.01849,0.01849 -0.05994,-0.01849 -0.07843,0 -0.01849,0.01849 0.01169,0.05505 0,0.07843 -0.04706,0.09412 -0.188236,0.141176 -0.235294,0.235294 -0.01169,0.02338 0.01169,0.05505 0,0.07843 -0.163207,0.326413 0.0054,-0.08385 -0.156863,0.07843 -0.01849,0.01849 0.01849,0.05994 0,0.07843 -0.01849,0.01849 -0.05994,-0.01849 -0.07843,0 -0.01849,0.01849 0.01169,0.05505 0,0.07843 -0.01653,0.03307 -0.0619,0.04536 -0.07843,0.07843 -0.01169,0.02338 0.01849,0.05994 0,0.07843 -0.01849,0.01849 -0.05995,-0.01849 -0.07843,0 -0.01849,0.01849 0.01169,0.05505 0,0.07843 -0.01654,0.03307 -0.05229,0.05229 -0.07843,0.07843 -0.02614,0.02614 -0.04536,0.0619 -0.07843,0.07843 -0.02338,0.01169 -0.06274,-0.02092 -0.07843,0 -0.07015,0.09353 -0.09671,0.213469 -0.156863,0.313726 -0.01902,0.0317 -0.05229,0.05229 -0.07843,0.07843 -0.02614,0.02614 -0.04536,0.0619 -0.07843,0.07843 -0.02338,0.01169 -0.05995,-0.01849 -0.07843,0 -0.01849,0.01849 0.01849,0.05994 0,0.07843 -0.01849,0.01849 -0.05994,-0.01849 -0.07843,0 -0.01849,0.01849 0,0.05229 0,0.07843 0,0.02614 0.01849,0.05995 0,0.07843 -0.01849,0.01849 -0.05505,-0.01169 -0.07843,0 -0.06614,0.03307 -0.09072,0.123793 -0.156863,0.156862 -0.02338,0.01169 -0.05994,-0.01849 -0.07843,0 -0.01849,0.01849 0.01849,0.05994 0,0.07843 -0.01849,0.01849 -0.05995,-0.01849 -0.07843,0 -0.01849,0.01849 0.01169,0.05505 0,0.07843 -0.01653,0.03307 -0.0619,0.04536 -0.07843,0.07843 -0.01169,0.02338 0.01169,0.05505 0,0.07843 -0.01654,0.03307 -0.05229,0.05229 -0.07843,0.07843 -0.02614,0.02614 -0.04536,0.0619 -0.07843,0.07843 -0.02338,0.01169 -0.05994,-0.01849 -0.07843,0 -0.01849,0.01849 0.01849,0.05995 0,0.07843 -0.01849,0.01849 -0.05994,-0.01849 -0.07843,0 -0.01849,0.01849 0.01849,0.05994 0,0.07843 -0.162278,0.162278 0.0063,-0.247981 -0.156863,0.07843 -0.01555,0.0311 0.01603,0.21926 0,0.235294 -0.03922,0.03922 -0.196079,-0.03922 -0.235294,0 -0.01849,0.01849 0.01169,0.05505 0,0.07843 -0.03307,0.06614 -0.123793,0.09072 -0.156863,0.156863 -0.01169,0.02338 0.01849,0.05994 0,0.07843 -0.01849,0.01849 -0.05994,-0.01849 -0.07843,0 -0.03697,0.03697 0.03697,0.11989 0,0.156863 -0.03697,0.03697 -0.11989,-0.03697 -0.156863,0 -0.01849,0.01849 0.01849,0.05994 0,0.07843 -0.03697,0.03697 -0.11989,-0.03697 -0.156863,0 -0.01849,0.01849 0.01849,0.05994 0,0.07843 -0.01849,0.01849 -0.05994,-0.01849 -0.07843,0 -0.01849,0.01849 0.01169,0.05505 0,0.07843 -0.01041,0.02083 -0.21447,0.224882 -0.235294,0.235294 -0.108185,0.05409 -0.07015,-0.09498 -0.156863,0.07843 0,0.20915 0.02614,-0.02614 -0.07843,0.07843 -0.162278,0.162277 0.247981,-0.0063 -0.07843,0.156863 -0.02338,0.01169 -0.05994,-0.01849 -0.07843,0 -0.01849,0.01849 0.01849,0.05994 0,0.07843 -0.01849,0.01849 -0.05505,-0.01169 -0.07843,0 -0.03307,0.01653 -0.04536,0.0619 -0.07843,0.07843 -0.02338,0.01169 -0.05505,-0.01169 -0.07843,0 -0.173416,0.08671 -0.02434,0.04868 -0.07843,0.156862 -0.163206,0.326413 0.0054,-0.08385 -0.156862,0.07843 -0.01849,0.01849 0.01169,0.05505 0,0.07843 -0.08671,0.173416 -0.04868,0.02434 -0.156863,0.07843 -0.03307,0.01654 -0.05229,0.05229 -0.07843,0.07843 -0.02614,0.02614 -0.0619,0.04536 -0.07843,0.07843 -0.02338,0.04677 0.03697,0.11989 0,0.156863 -0.01849,0.01849 -0.05505,-0.01169 -0.07843,0 -0.06614,0.03307 -0.09072,0.123793 -0.156863,0.156863 -0.02338,0.01169 -0.05994,-0.01849 -0.07843,0 -0.01849,0.01849 0.01849,0.05994 0,0.07843 -0.01849,0.01849 -0.05505,-0.01169 -0.07843,0 -0.173416,0.08671 -0.02434,0.04868 -0.07843,0.156863 -0.01653,0.03307 -0.0619,0.04536 -0.07843,0.07843 -0.01169,0.02338 0.01849,0.05994 0,0.07843 -0.01849,0.01849 -0.05994,-0.01849 -0.07843,0 -0.01849,0.01849 0.01849,0.05994 0,0.07843 -0.05217,0.05217 -0.104689,-0.05217 -0.156863,0 0,0.20915 0.02614,-0.02614 -0.07843,0.07843 -0.01849,0.01849 0.01169,0.05505 0,0.07843 -0.01654,0.03307 -0.0619,0.04536 -0.07843,0.07843 -0.02338,0.04677 0.03697,0.11989 0,0.156863 -0.01849,0.01849 -0.05994,-0.01849 -0.07843,0 -0.01849,0.01849 0.01849,0.05994 0,0.07843 -0.03697,0.03697 -0.11989,-0.03697 -0.156863,0 -0.01849,0.01849 0.01849,0.05994 0,0.07843 -0.01849,0.01849 -0.05994,-0.01849 -0.07843,0 -0.01849,0.01849 0.01849,0.05994 0,0.07843 -0.01849,0.01849 -0.05994,-0.01849 -0.07843,0 -0.01849,0.01849 0.01169,0.05505 0,0.07843 -0.03307,0.06614 -0.123793,0.09072 -0.156863,0.156863 -0.01169,0.02338 0.01849,0.05994 0,0.07843 -0.01849,0.01849 -0.05505,-0.01169 -0.07843,0 -0.06614,0.03307 -0.09072,0.123794 -0.156863,0.156863 -0.02338,0.01169 -0.05995,-0.01849 -0.07843,0 -0.05328,0.05328 0.08019,0.155981 -0.07843,0.235294 -0.04677,0.02338 -0.11989,-0.03697 -0.156863,0 -0.01849,0.01849 0.01849,0.05994 0,0.07843 -0.01849,0.01849 -0.05505,-0.01169 -0.07843,0 -0.03307,0.01653 -0.05229,0.05229 -0.07843,0.07843 -0.02614,0.02614 -0.0619,0.04536 -0.07843,0.07843 -0.02338,0.04677 0.02338,0.110096 0,0.156863 -0.163206,0.326413 0.0054,-0.08385 -0.156862,0.07843 -0.03697,0.03697 0.03697,0.119889 0,0.156862 -0.01849,0.01849 -0.05505,-0.01169 -0.07843,0 -0.326412,0.163207 0.08385,-0.0054 -0.07843,0.156863 -0.01849,0.01849 -0.05994,-0.01849 -0.07843,0 -0.03697,0.03697 0.03697,0.11989 0,0.156863 -0.01849,0.01849 -0.05995,-0.01849 -0.07843,0 -0.01849,0.01849 0.01849,0.05994 0,0.07843 -0.01849,0.01849 -0.05994,-0.01849 -0.07843,0 -0.03697,0.03697 0.03697,0.11989 0,0.156863 -0.01849,0.01849 -0.05505,-0.01169 -0.07843,0 -0.326412,0.163206 0.08385,-0.0054 -0.07843,0.156863 -0.01849,0.01849 -0.05994,-0.01849 -0.07843,0 -0.01849,0.01849 0.01849,0.05994 0,0.07843 -0.01849,0.01849 -0.05995,-0.01849 -0.07843,0 -0.01849,0.01849 0.01849,0.05994 0,0.07843 -0.01849,0.01849 -0.05994,-0.01849 -0.07843,0 -0.01603,0.01603 0.01555,0.204197 0,0.235294 -0.01654,0.03307 -0.0619,0.04536 -0.07843,0.07843 -0.01169,0.02338 0.01849,0.05994 0,0.07843 -0.03697,0.03697 -0.119889,-0.03697 -0.156862,0 -0.01849,0.01849 0.01169,0.05505 0,0.07843 -0.01654,0.03307 -0.0619,0.04536 -0.07843,0.07843 -0.01169,0.02338 0.01849,0.05994 0,0.07843 -0.01849,0.01849 -0.05995,-0.01849 -0.07843,0 -0.03697,0.03697 0.03697,0.11989 0,0.156863 -0.01849,0.01849 -0.05994,-0.01849 -0.07843,0 -0.01849,0.01849 0.01849,0.05995 0,0.07843 -0.01849,0.01849 -0.05994,-0.01849 -0.07843,0 -0.01849,0.01849 0.01849,0.05994 0,0.07843 -0.01849,0.01849 -0.05995,-0.01849 -0.07843,0 -0.01849,0.01849 0.01169,0.05505 0,0.07843 -0.04706,0.09412 -0.188235,0.141177 -0.235294,0.235294 -0.01169,0.02338 0.01849,0.05995 0,0.07843 -0.01849,0.01849 -0.05994,-0.01849 -0.07843,0 -0.01849,0.01849 0.01849,0.05994 0,0.07843 -0.01849,0.01849 -0.05994,-0.01849 -0.07843,0 -0.01849,0.01849 0.01169,0.05505 0,0.07843 -0.01653,0.03307 -0.0619,0.04536 -0.07843,0.07843 -0.01169,0.02338 0.01849,0.05994 0,0.07843 -0.01849,0.01849 -0.05505,-0.01169 -0.07843,0 -0.03307,0.01653 -0.04536,0.0619 -0.07843,0.07843 -0.02338,0.01169 -0.05994,-0.01849 -0.07843,0 -0.03697,0.03697 0.03697,0.119889 0,0.156862 -0.01849,0.01849 -0.05994,-0.01849 -0.07843,0 -0.01849,0.01849 0.01169,0.05505 0,0.07843 -0.01654,0.03307 -0.0619,0.04536 -0.07843,0.07843 -0.01169,0.02338 0.01849,0.05994 0,0.07843 -0.01849,0.01849 -0.05994,-0.01849 -0.07843,0 -0.01849,0.01849 0.01849,0.05994 0,0.07843 -0.01849,0.01849 -0.05505,-0.01169 -0.07843,0 -0.03307,0.01653 -0.05229,0.05229 -0.07843,0.07843 -0.02614,0.02614 -0.0619,0.04536 -0.07843,0.07843 -0.01169,0.02338 0.01169,0.05505 0,0.07843 -0.01654,0.03307 -0.05229,0.05229 -0.07843,0.07843 -0.02614,0.02614 -0.04536,0.0619 -0.07843,0.07843 -0.02338,0.01169 -0.05994,-0.01849 -0.07843,0 -0.01849,0.01849 0.01849,0.05994 0,0.07843 -0.01849,0.01849 -0.05505,-0.01169 -0.07843,0 -0.03307,0.01653 -0.05229,0.05229 -0.07843,0.07843 -0.02614,0.02614 -0.0619,0.04536 -0.07843,0.07843 -0.02338,0.04677 0.03697,0.11989 0,0.156863 -0.01849,0.01849 -0.05994,-0.01849 -0.07843,0 -0.01849,0.01849 0.01849,0.05994 0,0.07843 -0.01849,0.01849 -0.05994,-0.01849 -0.07843,0 -0.01849,0.01849 0.01849,0.05995 0,0.07843 -0.03697,0.03697 -0.110095,-0.02338 -0.156863,0 -0.326412,0.163207 0.08385,-0.0054 -0.07843,0.156863 -0.01849,0.01849 -0.05994,-0.01849 -0.07843,0 -0.03697,0.03697 0.03697,0.11989 0,0.156863 -0.01849,0.01849 -0.05995,-0.01849 -0.07843,0 -0.01849,0.01849 0.01849,0.05994 0,0.07843 -0.03697,0.03697 -0.119889,-0.03697 -0.156862,0 -0.01849,0.01849 0.01849,0.05994 0,0.07843 -0.01849,0.01849 -0.05995,-0.01849 -0.07843,0 -0.01849,0.01849 0.01849,0.05994 0,0.07843 -0.01849,0.01849 -0.05994,-0.01849 -0.07843,0 -0.03697,0.03697 0.03697,0.11989 0,0.156863 -0.162277,0.162277 0.0063,-0.247982 -0.156863,0.07843 -0.01169,0.02338 0.01849,0.05994 0,0.07843 -0.03697,0.03697 -0.110095,-0.02338 -0.156863,0 -0.03307,0.01653 -0.05229,0.05229 -0.07843,0.07843 -0.02614,0.02614 -0.0619,0.04536 -0.07843,0.07843 -0.01169,0.02338 0.01169,0.05505 0,0.07843 -0.01654,0.03307 -0.05229,0.05229 -0.07843,0.07843 -0.02614,0.02614 -0.04536,0.0619 -0.07843,0.07843 -0.02338,0.01169 -0.05994,-0.01849 -0.07843,0 -0.01849,0.01849 0.01849,0.05994 0,0.07843 -0.03922,0.03921 -0.196079,-0.03922 -0.235295,0 -0.03697,0.03697 0.03697,0.119889 0,0.156862 -0.03922,0.03922 -0.196078,-0.03922 -0.235294,0 -0.01849,0.01849 0.01169,0.05505 0,0.07843 -0.01653,0.03307 -0.0619,0.04536 -0.07843,0.07843 -0.01169,0.02338 0.01849,0.05995 0,0.07843 -0.01849,0.01849 -0.05994,-0.01849 -0.07843,0 -0.01849,0.01849 0.01849,0.05994 0,0.07843 -0.01849,0.01849 -0.05994,-0.01849 -0.07843,0 -0.03697,0.03697 0.03697,0.11989 0,0.156863 -0.01849,0.01849 -0.05995,-0.01849 -0.07843,0 -0.01849,0.01849 0.01849,0.05994 0,0.07843 -0.03922,0.03922 -0.196079,-0.03922 -0.235294,0 -0.01849,0.01849 0.01169,0.05505 0,0.07843 -0.163207,0.326413 0.0054,-0.08385 -0.156863,0.07843 -0.01849,0.01849 0.01849,0.05994 0,0.07843 -0.03697,0.03697 -0.110095,-0.02338 -0.156863,0 -0.326412,0.163206 0.08385,-0.0054 -0.07843,0.156863 -0.03697,0.03697 -0.11989,-0.03697 -0.156863,0 -0.03697,0.03697 0.03697,0.11989 0,0.156863 -0.01849,0.01849 -0.05995,-0.01849 -0.07843,0 -0.01849,0.01849 0.01849,0.05994 0,0.07843 -0.01849,0.01849 -0.05994,-0.01849 -0.07843,0 -0.01849,0.01849 0.01849,0.05994 0,0.07843 -0.01849,0.01849 -0.05229,0 -0.07843,0 -0.02614,0 -0.05229,0 -0.07843,0 -0.209151,0 0.02614,-0.02614 -0.07843,0.07843 -0.01849,0.01849 -0.05994,-0.01849 -0.07843,0 -0.01849,0.01849 0,0.05229 0,0.07843 0,0.02614 2.431373,-4.49673 0,0.07843"
       id="path10184"
       inkscape:connector-curvature="0"
       transform="translate(0,988.3622)"
       sodipodi:nodetypes="cccscccsccsccssssscccsscccccsccccccccsscssssccsccscsccsccscccscsssssscscccccssssscssssccssssccssscsccsccsccscscscccscsscccssssscsccscscsccssscssccscccsccscsscsssssscscsccscscccsccscccscccscsssscssscsscscsccssssssscscssscscscscsccccccscccccccscccccsscscssssccscscscscsccsccccscsccccsssscsccscccccssscsscscscsssssccsscsscsccscssssccccsscscscccssccsscssccscsssssscsscssccsssssssssscscccssssccsscsscscsscscccsssscscscssssccssscsscscsccsssscscssssssssccccssssccscscsssscscscssscsscsccsscsssccccssscscsscsccsccccscsssscscssssscscscsssscccssccscssccscscsccsccsscccccccsccssssssssssssssssscssscccscccscsssccccsssssscccsssssccsscsssccsscssscscsssscccssssscsccssscccccccsccscsccscsscscscssccscssscsscsssssscsccsscsscccssscscssssssscssccsccsccssccssscscssccccscscsscccscssccscsscccscssccsscscsccscsssccssscscccsscssssscssccccscsccccscsccsscscsscssccscccsccscsscsscsssccsccscsccssscsccscsscsccssscccsccscscssccscsccscscccccccsssccscscscccccssssssssc" />
  </g>
</svg>
