<?xml version="1.0" encoding="UTF-8" standalone="no"?>
<!-- Created with Inkscape (http://www.inkscape.org/) -->

<svg
   xmlns:dc="http://purl.org/dc/elements/1.1/"
   xmlns:cc="http://creativecommons.org/ns#"
   xmlns:rdf="http://www.w3.org/1999/02/22-rdf-syntax-ns#"
   xmlns:svg="http://www.w3.org/2000/svg"
   xmlns="http://www.w3.org/2000/svg"
   xmlns:sodipodi="http://sodipodi.sourceforge.net/DTD/sodipodi-0.dtd"
   xmlns:inkscape="http://www.inkscape.org/namespaces/inkscape"
   width="80"
   height="64"
   id="svg2"
   version="1.1"
   inkscape:version="0.48.5 r10040"
   sodipodi:docname="void_hatching_horz_lead_diag_1.svg">
  <defs
     id="defs4" />
  <sodipodi:namedview
     id="base"
     pagecolor="#ffffff"
     bordercolor="#666666"
     borderopacity="1.0"
     inkscape:pageopacity="0.0"
     inkscape:pageshadow="2"
     inkscape:zoom="12.75"
     inkscape:cx="40"
     inkscape:cy="32"
     inkscape:document-units="px"
     inkscape:current-layer="layer1"
     showgrid="true"
     inkscape:window-width="1920"
     inkscape:window-height="1014"
     inkscape:window-x="0"
     inkscape:window-y="27"
     inkscape:window-maximized="1"
     inkscape:snap-grids="false">
    <inkscape:grid
       type="xygrid"
       id="grid3001"
       empspacing="8"
       visible="true"
       enabled="true"
       snapvisiblegridlinesonly="true" />
  </sodipodi:namedview>
  <metadata
     id="metadata7">
    <rdf:RDF>
      <cc:Work
         rdf:about="">
        <dc:format>image/svg+xml</dc:format>
        <dc:type
           rdf:resource="http://purl.org/dc/dcmitype/StillImage" />
        <dc:title></dc:title>
      </cc:Work>
    </rdf:RDF>
  </metadata>
  <g
     inkscape:label="Layer 1"
     inkscape:groupmode="layer"
     id="layer1"
     transform="translate(0,-988.3622)">
    <path
       style="opacity:0.80000000000000004;color:#000000;fill:none;stroke:#bf0000;stroke-width:1;stroke-linecap:round;stroke-linejoin:round;stroke-miterlimit:4;stroke-opacity:1;stroke-dasharray:none;stroke-dashoffset:0;marker:none;visibility:visible;display:inline;overflow:visible;enable-background:accumulate"
       d="M 16.627451,1.6470588 C 17.4174,1.4749158 16.362795,0.75495149 16.470588,0.8627451 c 0.162278,0.1622773 -0.0063,-0.24798121 0.156863,0.0784314 0.01169,0.0233837 -0.01169,0.0550477 0,0.0784313 0.03307,0.066139 0.123793,0.090724 0.156863,0.1568628 0.01169,0.023384 -0.01849,0.059945 0,0.078431 0.01849,0.018486 0.05995,-0.018487 0.07843,0 0.01849,0.018486 -0.01849,0.059945 0,0.078431 0.162277,0.1622773 -0.0063,-0.2479812 0.156863,0.078431 0.02338,0.046767 -0.03697,0.1198898 0,0.1568628 0.01849,0.018486 0.05994,-0.018487 0.07843,0 0.03697,0.036973 -0.03697,0.1198898 0,0.1568627 0.01849,0.018486 0.05994,-0.018487 0.07843,0 0.01849,0.018486 0,0.052288 0,0.078431 0.02614,0 0.05505,-0.011692 0.07843,0 0.03307,0.016535 0.05229,0.052288 0.07843,0.078431 0.02614,0.026144 0.0619,0.045362 0.07843,0.078431 0.01169,0.023384 -0.01849,0.059945 0,0.078431 0.01849,0.018486 0.05995,-0.018487 0.07843,0 0.03697,0.036973 -0.03697,0.1198898 0,0.1568627 0.01849,0.018486 0.05994,-0.018486 0.07843,0 0.01849,0.018486 -0.01849,0.059945 0,0.078431 0.01849,0.018486 0.05994,-0.018486 0.07843,0 0.01849,0.018486 -0.01849,0.059945 0,0.078431 0.01849,0.018486 0.05995,-0.018486 0.07843,0 0.01849,0.018486 -0.01849,0.059945 0,0.078431 0.01849,0.018486 0.05994,-0.018486 0.07843,0 0.01849,0.018486 -0.01169,0.055048 0,0.078431 0.01653,0.03307 0.0619,0.045362 0.07843,0.078431 0.01169,0.023384 -0.01849,0.059945 0,0.078431 0.01849,0.018486 0.05995,-0.018486 0.07843,0 0.05229,0.052288 -0.05229,0.1045751 0,0.1568627 0.01849,0.018486 0.05994,-0.018486 0.07843,0 0.01849,0.018486 -0.01849,0.059945 0,0.078431 0.01849,0.018486 0.05994,-0.018486 0.07843,0 0.01849,0.018486 -0.01849,0.059945 0,0.078431 0.01849,0.018486 0.05994,-0.018486 0.07843,0 0.03697,0.036973 -0.03697,0.1198898 0,0.1568627 0.03697,0.036973 0.11989,-0.036973 0.156863,0 0.01849,0.018487 -0.01849,0.059945 0,0.078431 0.01849,0.018486 0.05994,-0.018487 0.07843,0 0.03921,0.039216 -0.03922,0.1960784 0,0.2352941 0.01849,0.018486 0.05994,-0.018487 0.07843,0 0.01849,0.018486 -0.01849,0.059945 0,0.078431 0.01849,0.018486 0.05995,-0.018487 0.07843,0 0.01849,0.018486 -0.01849,0.059945 0,0.078431 0.01849,0.018486 0.05994,-0.018486 0.07843,0 0.01849,0.018486 -0.01849,0.059945 0,0.078431 0.162277,0.1622773 -0.0063,-0.2479812 0.156862,0.078431 0.01169,0.023384 -0.01849,0.059945 0,0.078431 0.01849,0.018486 0.05994,-0.018486 0.07843,0 0.03697,0.036973 -0.03697,0.1198898 0,0.1568627 0.01849,0.018486 0.05994,-0.018486 0.07843,0 0.01849,0.018486 -0.01849,0.059945 0,0.078431 0.03697,0.036973 0.11989,-0.036973 0.156863,0 0.03697,0.036973 -0.03697,0.1198898 0,0.1568627 0.03697,0.036973 0.11989,-0.036973 0.156863,0 0.03697,0.036973 -0.03697,0.1198899 0,0.1568628 0.01849,0.018486 0.05994,-0.018486 0.07843,0 0.01849,0.018486 -0.01849,0.059945 0,0.078431 0.01849,0.018486 0.05994,-0.018486 0.07843,0 0.01849,0.018486 -0.01849,0.059945 0,0.078431 0.03697,0.036973 0.110096,-0.023384 0.156863,0 0.03307,0.016535 0.05229,0.052288 0.07843,0.078431 0.02614,0.026144 0.0619,0.045362 0.07843,0.078431 0.01169,0.023384 -0.01849,0.059945 0,0.078431 0.01849,0.018486 0.05994,-0.018486 0.07843,0 0.01849,0.018486 -0.01849,0.059945 0,0.078431 0.01849,0.018486 0.05995,-0.018486 0.07843,0 0.01849,0.018486 -0.01849,0.059945 0,0.078431 0.01849,0.018486 0.05994,-0.018486 0.07843,0 0.01849,0.018486 -0.01849,0.059945 0,0.078431 0.03697,0.036973 0.110095,-0.023384 0.156863,0 0.173416,0.086708 0.02434,0.048678 0.07843,0.1568628 0.01654,0.03307 0.05229,0.052288 0.07843,0.078431 0.02614,0.026144 0.04536,0.061896 0.07843,0.078431 0.02338,0.011692 0.05994,-0.018486 0.07843,0 0.01849,0.018487 -0.01849,0.059945 0,0.078431 0.01849,0.018486 0.05994,-0.018486 0.07843,0 0.01849,0.018486 -0.01849,0.059945 0,0.078431 0.162277,0.1622773 -0.0063,-0.2479812 0.156862,0.078431 0.01169,0.023384 -0.01849,0.059945 0,0.078431 0.162278,0.1622773 -0.0063,-0.2479812 0.156863,0.078431 0.01169,0.023384 -0.01849,0.059945 0,0.078431 0.01849,0.018486 0.05505,-0.011692 0.07843,0 0.03307,0.016535 0.04536,0.061897 0.07843,0.078431 0.04677,0.023384 0.11989,-0.036973 0.156863,0 0.01849,0.018486 -0.01169,0.055048 0,0.078431 0.01653,0.03307 0.05229,0.052288 0.07843,0.078431 0.02614,0.026144 0.04536,0.061897 0.07843,0.078431 0.02338,0.011692 0.05994,-0.018486 0.07843,0 0.01849,0.018486 -0.01169,0.055048 0,0.078431 0.163206,0.3264126 -0.0054,-0.083846 0.156862,0.078431 0.01849,0.018487 -0.01849,0.059945 0,0.078431 0.01849,0.018486 0.05994,-0.018486 0.07843,0 0.01849,0.018486 -0.01849,0.059945 0,0.078431 0.01849,0.018486 0.05505,-0.011692 0.07843,0 0.03307,0.016535 0.04536,0.061897 0.07843,0.078431 0.02338,0.011692 0.05994,-0.018486 0.07843,0 0.162277,0.1622773 -0.247981,-0.00634 0.07843,0.1568628 0.02338,0.011692 0.05994,-0.018487 0.07843,0 0.03697,0.036973 -0.03697,0.1198898 0,0.1568627 0.03921,0.039216 0.196078,-0.039216 0.235294,0 0.01849,0.018486 -0.01849,0.059945 0,0.078431 0.01849,0.018486 0.05994,-0.018487 0.07843,0 0.162277,0.1622773 -0.247981,-0.00634 0.07843,0.1568627 0.02338,0.011692 0.05994,-0.018486 0.07843,0 0.03697,0.036973 -0.03697,0.1198899 0,0.1568628 0.01849,0.018486 0.05505,-0.011692 0.07843,0 0.03307,0.016535 0.04536,0.061897 0.07843,0.078431 0.02338,0.011692 0.05994,-0.018486 0.07843,0 0.01849,0.018486 -0.01849,0.059945 0,0.078431 0.01849,0.018486 0.05995,-0.018486 0.07843,0 0.01849,0.018486 -0.01849,0.059945 0,0.078431 0.01849,0.018486 0.05994,-0.018486 0.07843,0 0.01849,0.018486 -0.01849,0.059945 0,0.078431 0.01849,0.018486 0.05994,-0.018486 0.07843,0 0.03697,0.036973 -0.03697,0.1198898 0,0.1568627 0.01849,0.018487 0.05995,-0.018486 0.07843,0 0.01849,0.018487 -0.01849,0.059945 0,0.078431 0.03921,0.039216 0.196078,-0.039216 0.235294,0 0.162277,0.1622773 -0.247982,-0.00634 0.07843,0.1568627 0.02338,0.011692 0.05994,-0.018486 0.07843,0 0.03697,0.036973 -0.03697,0.1198899 0,0.1568628 0.01849,0.018486 0.05994,-0.018486 0.07843,0 0.01849,0.018486 -0.01849,0.059945 0,0.078431 0.05217,0.052174 0.104689,-0.052174 0.156863,0 0.01849,0.018486 -0.01849,0.059945 0,0.078431 0.01849,0.018486 0.05994,-0.018486 0.07843,0 0.01849,0.018486 0.01849,0.059945 0,0.078431 -0.01849,0.018486 -0.05994,-0.018486 -0.07843,0 -0.03697,0.036973 0.03697,0.1198898 0,0.1568627 -0.01849,0.018486 -0.05994,-0.018486 -0.07843,0 -0.01849,0.018486 0,0.052288 0,0.078431 0,0.026144 -0.01849,0.059945 0,0.078431 0.162277,0.1622773 -0.0063,-0.2479812 0.156863,0.078431 0.01169,0.023384 -0.02338,0.06674 0,0.078431 0.04677,0.023384 0.110095,-0.023384 0.156863,0 0.04677,0.023384 -0.03697,0.1198899 0,0.1568628 0.01849,0.018486 0.05505,-0.011692 0.07843,0 0.326413,0.1632063 -0.08385,-0.00541 0.07843,0.1568627 0.03697,0.036973 0.11989,-0.036973 0.156863,0 0.01849,0.018486 -0.01169,0.055048 0,0.078431 0.01654,0.03307 0.0619,0.045362 0.07843,0.078431 0.01169,0.023384 -0.01849,0.059945 0,0.078431 0.01849,0.018486 0.05505,-0.011692 0.07843,0 0.260124,0.2601242 -0.07395,-0.036973 0.156863,0.078431 0.326412,0.1632063 -0.08385,-0.00541 0.07843,0.1568628 0.01603,0.016034 0.204197,-0.015549 0.235294,0 0.173416,0.086708 0.02434,0.048678 0.07843,0.1568627 0.08671,0.1734161 0.04868,0.024339 0.156863,0.078431 0.144394,0.072197 0.01247,0.1630974 0.156863,0.2352948 0.02338,0.01169 0.05505,-0.01169 0.07843,0 0.06614,0.03307 0.09072,0.123793 0.156863,0.156862 0.02338,0.01169 0.05505,-0.01169 0.07843,0 0.03307,0.01653 0.05229,0.05229 0.07843,0.07843 0.02614,0.02614 0.0619,0.04536 0.07843,0.07843 0.05409,0.108185 -0.09499,0.07015 0.07843,0.156863 0.04677,0.02338 0.110095,-0.02338 0.156862,0 0.02082,0.01041 0.224882,0.21447 0.235294,0.235294 0.01169,0.02338 -0.01849,0.05994 0,0.07843 0.01849,0.01849 0.05994,-0.01849 0.07843,0 0.01849,0.01849 -0.01849,0.05994 0,0.07843 0.03697,0.03697 0.11989,-0.03697 0.156863,0 0.01849,0.01849 -0.01849,0.05995 0,0.07843 0.01849,0.01849 0.05994,-0.01849 0.07843,0 0.01849,0.01849 -0.01849,0.05994 0,0.07843 0.01849,0.01849 0.05995,-0.01849 0.07843,0 0.01849,0.01849 -0.01849,0.05994 0,0.07843 0.01849,0.01849 0.05994,-0.01849 0.07843,0 0.162277,0.162277 -0.247982,-0.0063 0.07843,0.156863 0.02338,0.01169 0.05995,-0.01849 0.07843,0 0.01849,0.01849 -0.01849,0.05995 0,0.07843 0.05328,0.05328 0.155982,-0.08019 0.235295,0.07843 0.01169,0.02338 -0.01169,0.05505 0,0.07843 0.01653,0.03307 0.0619,0.04536 0.07843,0.07843 0.01169,0.02338 -0.01849,0.05994 0,0.07843 0.01849,0.01849 0.05505,-0.01169 0.07843,0 0.06614,0.03307 0.09072,0.123793 0.156863,0.156862 0.04677,0.02338 0.11989,-0.03697 0.156863,0 0.03697,0.03697 -0.03697,0.11989 0,0.156863 0.01849,0.01849 0.05994,-0.01849 0.07843,0 0.01849,0.01849 -0.01849,0.05995 0,0.07843 0.01849,0.01849 0.05995,-0.01849 0.07843,0 0.01849,0.01849 -0.01849,0.05994 0,0.07843 0.01849,0.01849 0.05505,-0.01169 0.07843,0 0.06614,0.03307 0.09072,0.123793 0.156863,0.156862 0.02338,0.01169 0.05994,-0.01849 0.07843,0 0.01849,0.01849 -0.01849,0.05995 0,0.07843 0.01849,0.01849 0.05994,-0.01849 0.07843,0 0.01849,0.01849 -0.01849,0.05995 0,0.07843 0.01849,0.01849 0.05995,-0.01849 0.07843,0 0.01849,0.01849 -0.01849,0.05995 0,0.07843 0.01849,0.01849 0.05994,-0.01849 0.07843,0 0.01849,0.01849 -0.01849,0.05994 0,0.07843 0.03697,0.03697 0.11989,-0.03697 0.156863,0 0.01849,0.01849 -0.01849,0.05994 0,0.07843 0.01849,0.01849 0.05994,-0.01849 0.07843,0 0.01849,0.01849 -0.01849,0.05994 0,0.07843 0.01849,0.01849 0.05505,-0.01169 0.07843,0 0.06614,0.03307 0.09072,0.123793 0.156862,0.156862 0.02338,0.01169 0.05995,-0.01849 0.07843,0 0.01849,0.01849 -0.01849,0.05994 0,0.07843 0.01849,0.01849 0.05995,-0.01849 0.07843,0 0.01849,0.01849 -0.01849,0.05995 0,0.07843 0.01849,0.01849 0.05994,-0.01849 0.07843,0 0.01849,0.01849 -0.01849,0.05995 0,0.07843 0.01849,0.01849 0.05505,-0.01169 0.07843,0 0.03307,0.01653 0.04536,0.0619 0.07843,0.07843 0.02338,0.01169 0.05994,-0.01849 0.07843,0 0.01849,0.01849 -0.01849,0.05995 0,0.07843 0.01849,0.01849 0.05994,-0.01849 0.07843,0 0.01849,0.01849 -0.01849,0.05995 0,0.07843 0.01849,0.01849 0.05229,0 0.07843,0 0,0.02614 -0.01169,0.05505 0,0.07843 0.01654,0.03307 0.05229,0.05229 0.07843,0.07843 0.02614,0.02614 0.04536,0.0619 0.07843,0.07843 0.02338,0.01169 0.05505,-0.01169 0.07843,0 0.02083,0.01041 0.224882,0.21447 0.235295,0.235294 0.01169,0.02338 -0.01849,0.05994 0,0.07843 0.01849,0.01849 0.05994,-0.01849 0.07843,0 0.01849,0.01849 -0.01849,0.05994 0,0.07843 0.01849,0.01849 0.05995,-0.01849 0.07843,0 0.01849,0.01849 -0.01849,0.05995 0,0.07843 0.03697,0.03697 0.11989,-0.03697 0.156863,0 0.01849,0.01849 -0.01849,0.05995 0,0.07843 0.03697,0.03697 0.11989,-0.03697 0.156863,0 0.03697,0.03697 -0.03697,0.11989 0,0.156863 0.01849,0.01849 0.05994,-0.01849 0.07843,0 0.01849,0.01849 -0.01849,0.05995 0,0.07843 0.01849,0.01849 0.05994,-0.01849 0.07843,0 0.01849,0.01849 -0.01849,0.05994 0,0.07843 0.01849,0.01849 0.05994,-0.01849 0.07843,0 0.01849,0.01849 -0.01849,0.05994 0,0.07843 0.03697,0.03697 0.110095,-0.02338 0.156863,0 0.326412,0.163207 -0.08385,-0.0054 0.07843,0.156863 0.01849,0.01849 0.05995,-0.01849 0.07843,0 0.01849,0.01849 -0.01849,0.05994 0,0.07843 0.01849,0.01849 0.05994,-0.01849 0.07843,0 0.01849,0.01849 -0.01849,0.05994 0,0.07843 0.01849,0.01849 0.05994,-0.01849 0.07843,0 0.01849,0.01849 -0.01849,0.05995 0,0.07843 0.01849,0.01849 0.05995,-0.01849 0.07843,0 0.01849,0.01849 -0.01849,0.05994 0,0.07843 0.03697,0.03697 0.119889,-0.03697 0.156862,0 0.03922,0.03922 -0.03922,0.196078 0,0.235294 0.01849,0.01849 0.05994,-0.01849 0.07843,0 0.01849,0.01849 -0.01169,0.05505 0,0.07843 0.163206,0.326413 -0.0054,-0.08385 0.156862,0.07843 0.01849,0.01849 -0.01849,0.05995 0,0.07843 0.03697,0.03697 0.11989,-0.03697 0.156863,0 0.01849,0.01849 -0.01849,0.05994 0,0.07843 0.01849,0.01849 0.05995,-0.01849 0.07843,0 0.01849,0.01849 -0.01169,0.05505 0,0.07843 0.03307,0.06614 0.123793,0.09072 0.156862,0.156862 0.01169,0.02338 -0.01849,0.05994 0,0.07843 0.03922,0.03922 0.196079,-0.03922 0.235294,0 0.03697,0.03697 -0.03697,0.119889 0,0.156862 0.01849,0.01849 0.05994,-0.01849 0.07843,0 0.01849,0.01849 -0.01849,0.05995 0,0.07843 0.01849,0.01849 0.05994,-0.01849 0.07843,0 0.01849,0.01849 -0.01849,0.05994 0,0.07843 0.01849,0.01849 0.05994,-0.01849 0.07843,0 0.01849,0.01849 -0.01849,0.05994 0,0.07843 0.01849,0.01849 0.05994,-0.01849 0.07843,0 0.01849,0.01849 -0.01849,0.05994 0,0.07843 0.03697,0.03697 0.11989,-0.03697 0.156863,0 0.03697,0.03697 -0.03697,0.11989 0,0.156863 0.01849,0.01849 0.05994,-0.01849 0.07843,0 0.01849,0.01849 -0.01849,0.05995 0,0.07843 0.03697,0.03697 0.11989,-0.03697 0.156863,0 0.01849,0.01849 -0.01849,0.05994 0,0.07843 0.01849,0.01849 0.05994,-0.01849 0.07843,0 0.01849,0.01849 -0.01849,0.05995 0,0.07843 0.01849,0.01849 0.05995,-0.01849 0.07843,0 0.01849,0.01849 -0.01849,0.05995 0,0.07843 0.01849,0.01849 0.05994,-0.01849 0.07843,0 0.162277,0.162277 -0.247981,-0.0063 0.07843,0.156863 0.209151,0 -0.02614,-0.02614 0.07843,0.07843 0.01849,0.01849 0.05994,-0.01849 0.07843,0 0.01849,0.01849 -0.01849,0.05994 0,0.07843 0.01849,0.01849 0.05505,-0.01169 0.07843,0 0.03307,0.01653 0.05229,0.05229 0.07843,0.07843 0.02614,0.02614 0.104575,0.104575 0.07843,0.07843 -0.05229,-0.05229 -0.123793,-0.09072 -0.156863,-0.156862 -0.01169,-0.02338 0.05505,-0.01169 0.07843,0 0.03307,0.01653 0.0619,0.04536 0.07843,0.07843 0,0.20915 -0.02614,-0.02614 0.07843,0.07843 0.01849,0.01849 -0.01849,0.05994 0,0.07843 0.03697,0.03697 0.11989,-0.03697 0.156863,0 0.01849,0.01849 -0.01169,0.05505 0,0.07843 0.04706,0.09412 0.188235,0.141177 0.235294,0.235294 0.01169,0.02338 -0.01849,0.05994 0,0.07843 0.03697,0.03697 0.11989,-0.03697 0.156863,0 0.01849,0.01849 -0.01849,0.05994 0,0.07843 0.01849,0.01849 0.05505,-0.01169 0.07843,0 0.03307,0.01654 0.04536,0.0619 0.07843,0.07843 0.02338,0.01169 0.05994,-0.01849 0.07843,0 0.03697,0.03697 -0.03697,0.11989 0,0.156863 0.01849,0.01849 0.05505,-0.01169 0.07843,0 0.03307,0.01653 0.04536,0.0619 0.07843,0.07843 0.02338,0.01169 0.05994,-0.01849 0.07843,0 0.01849,0.01849 -0.01849,0.05994 0,0.07843 0.01849,0.01849 0.05995,-0.01849 0.07843,0 0.01849,0.01849 -0.01849,0.05994 0,0.07843 0.01849,0.01849 0.05995,-0.01849 0.07843,0 0.01849,0.01849 -0.01849,0.05994 0,0.07843 0.01849,0.01849 0.05994,-0.01849 0.07843,0 0.162278,0.162277 -0.247981,-0.0063 0.07843,0.156862 0.02338,0.01169 0.05994,-0.01849 0.07843,0 0.01849,0.01849 -0.01849,0.05994 0,0.07843 0.03697,0.03697 0.110095,-0.02338 0.156863,0 0.326412,0.163206 -0.08385,-0.0054 0.07843,0.156862 0.01849,0.01849 0.05994,-0.01849 0.07843,0 0.162277,0.162278 -0.247982,-0.0063 0.07843,0.156863 0.02338,0.01169 0.05505,-0.01169 0.07843,0 0.06614,0.03307 0.09072,0.123793 0.156863,0.156863 0.02338,0.01169 0.05994,-0.01849 0.07843,0 0.01849,0.01849 -0.01169,0.05505 0,0.07843 0.01653,0.03307 0.0619,0.04536 0.07843,0.07843 0.01169,0.02338 -0.01849,0.05994 0,0.07843 0.01849,0.01849 0.05505,-0.01169 0.07843,0 0.09412,0.04706 0.141177,0.188235 0.235294,0.235294 0.108185,0.05409 0.07015,-0.09498 0.156863,0.07843 0.02338,0.04677 -0.03697,0.119889 0,0.156862 0.01849,0.01849 0.05994,-0.01849 0.07843,0 0.01849,0.01849 -0.01169,0.05505 0,0.07843 0.01654,0.03307 0.05229,0.05229 0.07843,0.07843 0.02614,0.02614 0.04536,0.0619 0.07843,0.07843 0.08624,0.04312 0.158312,-0.07553 0.235294,0.07843 0.01169,0.02338 -0.01169,0.05505 0,0.07843 0.01653,0.03307 0.0619,0.04536 0.07843,0.07843 0.01169,0.02338 -0.01849,0.05994 0,0.07843 0.01849,0.01849 0.05505,-0.01169 0.07843,0 0.06614,0.03307 0.09072,0.123793 0.156863,0.156863 0.02338,0.01169 0.05505,-0.01169 0.07843,0 0.326413,0.163206 -0.08385,-0.0054 0.07843,0.156862 0.01849,0.01849 0.05994,-0.01849 0.07843,0 0.01849,0.01849 -0.01849,0.05995 0,0.07843 0.01849,0.01849 0.05505,-0.01169 0.07843,0 0.03307,0.01654 0.04536,0.0619 0.07843,0.07843 0.02338,0.01169 0.05994,-0.01849 0.07843,0 0.01849,0.01849 -0.01849,0.05994 0,0.07843 0.01849,0.01849 0.05995,-0.01849 0.07843,0 0.01849,0.01849 -0.01849,0.05995 0,0.07843 0.01849,0.01849 0.05994,-0.01849 0.07843,0 0.01849,0.01849 -0.01169,0.05505 0,0.07843 0.01041,0.02082 0.21447,0.224882 0.235294,0.235294 0.02338,0.01169 0.05994,-0.01849 0.07843,0 0.01849,0.01849 -0.01849,0.05994 0,0.07843 0.01849,0.01849 0.05229,0 0.07843,0 0,0.02614 -0.01169,0.05505 0,0.07843 0.163206,0.326413 -0.0054,-0.08385 0.156862,0.07843 0.01849,0.01849 -0.01849,0.05994 0,0.07843 0.03697,0.03697 0.11989,-0.03697 0.156863,0 0.01849,0.01849 -0.01169,0.05505 0,0.07843 0.163206,0.326413 -0.0054,-0.08385 0.156863,0.07843 0.01849,0.01849 -0.01849,0.05994 0,0.07843 0.01849,0.01849 0.05994,-0.01849 0.07843,0 0.01849,0.01849 -0.01849,0.05995 0,0.07843 0.01849,0.01849 0.05995,-0.01849 0.07843,0 0.01849,0.01849 -0.01849,0.05994 0,0.07843 0.01849,0.01849 0.05995,-0.01849 0.07843,0 0.01849,0.01849 -0.01849,0.05994 0,0.07843 0.01849,0.01849 0.05994,-0.01849 0.07843,0 0.01849,0.01849 -0.01849,0.05994 0,0.07843 0.01849,0.01849 0.05994,-0.01849 0.07843,0 0.01849,0.01849 -0.01849,0.05994 0,0.07843 0.01849,0.01849 0.05994,-0.01849 0.07843,0 0.01849,0.01849 -0.01849,0.05994 0,0.07843 0.01849,0.01849 0.05994,-0.01849 0.07843,0 0.01849,0.01849 -0.01849,0.05994 0,0.07843 0.01849,0.01849 0.05229,0 0.07843,0 0,0.02614 -0.01169,0.05505 0,0.07843 0.163206,0.326413 -0.0054,-0.08385 0.156863,0.07843 0.01849,0.01849 -0.01169,0.05505 0,0.07843 0.01653,0.03307 0.0619,0.04536 0.07843,0.07843 0.01169,0.02338 -0.01849,0.05995 0,0.07843 0.01849,0.01849 0.05505,-0.01169 0.07843,0 0.03307,0.01654 0.05229,0.05229 0.07843,0.07843 0.02614,0.02614 0.0619,0.04536 0.07843,0.07843 0.01169,0.02338 -0.01849,0.05995 0,0.07843 0.01849,0.01849 0.05994,-0.01849 0.07843,0 0.01849,0.01849 -0.01849,0.05994 0,0.07843 0.01849,0.01849 0.05994,-0.01849 0.07843,0 0.01849,0.01849 -0.01849,0.05994 0,0.07843 0.01849,0.01849 0.05995,-0.01849 0.07843,0 0.01849,0.01849 -0.01169,0.05505 0,0.07843 0.03307,0.06614 0.123793,0.09072 0.156863,0.156862 0.01169,0.02338 -0.01849,0.05994 0,0.07843 0.01849,0.01849 0.05994,-0.01849 0.07843,0 0.01849,0.01849 -0.01849,0.05994 0,0.07843 0.01849,0.01849 0.05994,-0.01849 0.07843,0 0.01849,0.01849 -0.01849,0.05995 0,0.07843 0.03697,0.03697 0.11989,-0.03697 0.156862,0 0.03922,0.03922 -0.03921,0.196078 0,0.235294 0.01849,0.01849 0.05994,-0.01849 0.07843,0 0.03697,0.03697 -0.03697,0.119889 0,0.156862 0.01849,0.01849 0.05994,-0.01849 0.07843,0 0.01849,0.01849 -0.01849,0.05995 0,0.07843 0.162278,0.162277 -0.0063,-0.247981 0.156863,0.07843 0.01169,0.02338 -0.01849,0.05994 0,0.07843 0.01849,0.01849 0.05994,-0.01849 0.07843,0 0.01849,0.01849 -0.01169,0.05505 0,0.07843 0.01653,0.03307 0.0619,0.04536 0.07843,0.07843 0.02338,0.04677 -0.03697,0.11989 0,0.156863 0.01849,0.01849 0.05994,-0.01849 0.07843,0 0.01849,0.01849 -0.01169,0.05505 0,0.07843 0.01654,0.03307 0.0619,0.04536 0.07843,0.07843 0.01169,0.02338 -0.01849,0.05995 0,0.07843 0.01849,0.01849 0.05994,-0.01849 0.07843,0 0.01849,0.01849 -0.01849,0.05994 0,0.07843 0.01849,0.01849 0.05994,-0.01849 0.07843,0 0.162278,0.162278 -0.247981,-0.0063 0.07843,0.156863 0.02338,0.01169 0.05994,-0.01849 0.07843,0 0.03922,0.03922 -0.03922,0.196079 0,0.235294 0.01849,0.01849 0.05994,-0.01849 0.07843,0 0.01849,0.01849 -0.01849,0.05994 0,0.07843 0.01849,0.01849 0.05994,-0.01849 0.07843,0 0.162277,0.162277 -0.247982,-0.0063 0.07843,0.156862 0.02338,0.01169 0.05995,-0.01849 0.07843,0 0.01849,0.01849 -0.01169,0.05505 0,0.07843 0.01653,0.03307 0.0619,0.04536 0.07843,0.07843 0.01169,0.02338 -0.01849,0.05994 0,0.07843 0.01849,0.01849 0.05994,-0.01849 0.07843,0 0.03697,0.03697 -0.03697,0.119889 0,0.156862 0.01849,0.01849 0.05994,-0.01849 0.07843,0 0.01849,0.01849 -0.01849,0.05994 0,0.07843 0.01849,0.01849 0.05994,-0.01849 0.07843,0 0.01849,0.01849 -0.01169,0.05505 0,0.07843 0.03307,0.06614 0.123793,0.09072 0.156863,0.156863 0.01169,0.02338 -0.01169,0.05505 0,0.07843 0.04706,0.09412 0.188235,0.141177 0.235294,0.235294 0.01169,0.02338 -0.01849,0.05994 0,0.07843 0.01849,0.01849 0.05994,-0.01849 0.07843,0 0.01849,0.01849 -0.01169,0.05505 0,0.07843 0.01653,0.03307 0.0619,0.04536 0.07843,0.07843 0.01169,0.02338 -0.01849,0.05994 0,0.07843 0.03697,0.03697 0.119889,-0.03697 0.156862,0 0.01849,0.01849 -0.01169,0.05505 0,0.07843 0.04706,0.09412 0.188236,0.141177 0.235294,0.235294 0.01169,0.02338 -0.01849,0.05994 0,0.07843 0.01849,0.01849 0.05505,-0.01169 0.07843,0 0.03307,0.01653 0.04536,0.0619 0.07843,0.07843 0.02338,0.01169 0.05994,-0.01849 0.07843,0 0.01849,0.01849 -0.01169,0.05505 0,0.07843 0.01653,0.03307 0.0619,0.04536 0.07843,0.07843 0.01169,0.02338 -0.01849,0.05994 0,0.07843 0.01849,0.01849 0.05994,-0.01849 0.07843,0 0.01849,0.01849 -0.01169,0.05505 0,0.07843 0.01654,0.03307 0.05229,0.05229 0.07843,0.07843 0.02614,0.02614 0.04536,0.0619 0.07843,0.07843 0.108185,0.05409 0.07015,-0.09498 0.156863,0.07843 0,0.20915 -0.02614,-0.02614 0.07843,0.07843 0.162277,0.162277 -0.247981,-0.0063 0.07843,0.156863 0.02338,0.01169 0.05994,-0.01849 0.07843,0 0.01849,0.01849 -0.01849,0.05994 0,0.07843 0.03697,0.03697 0.110095,-0.02338 0.156863,0 0.158626,0.07931 0.02515,0.182014 0.07843,0.235294 0.01849,0.01849 0.05505,-0.01169 0.07843,0 0.09412,0.04706 0.141177,0.188236 0.235294,0.235294 0.02338,0.01169 0.05994,-0.01849 0.07843,0 0.01849,0.01849 -0.01849,0.05995 0,0.07843 0.01849,0.01849 0.05505,-0.01169 0.07843,0 0.326413,0.163206 -0.08385,-0.0054 0.07843,0.156862 0.01849,0.01849 0.05994,-0.01849 0.07843,0 0.01849,0.01849 -0.01849,0.05995 0,0.07843 0.01849,0.01849 0.05505,-0.01169 0.07843,0 0.06452,0.03226 0.255719,0.275054 0.313726,0.313725 0.02175,0.0145 0.05505,-0.01169 0.07843,0 0.07718,0.03859 0.236547,0.275136 0.313726,0.313726 0.04677,0.02338 0.110095,-0.02338 0.156862,0 0.03307,0.01654 0.04536,0.0619 0.07843,0.07843 0.02338,0.01169 0.05505,-0.01169 0.07843,0 0.173416,0.08671 0.02434,0.04868 0.07843,0.156863 0.163206,0.326413 -0.0054,-0.08385 0.156862,0.07843 0.01849,0.01849 -0.01849,0.05994 0,0.07843 0.03697,0.03697 0.110096,-0.02338 0.156863,0 0.03307,0.01653 0.04536,0.0619 0.07843,0.07843 0.02338,0.01169 0.05505,-0.01169 0.07843,0 0.03307,0.01653 0.04536,0.0619 0.07843,0.07843 0.02338,0.01169 0.05994,-0.01849 0.07843,0 0.01849,0.01849 -0.01849,0.05994 0,0.07843 0.01849,0.01849 0.05505,-0.01169 0.07843,0 0.03307,0.01654 0.04536,0.0619 0.07843,0.07843 0.02338,0.01169 0.05505,-0.01169 0.07843,0 0.06614,0.03307 0.09072,0.123793 0.156862,0.156863 0.02338,0.01169 0.05505,-0.01169 0.07843,0 0.03307,0.01654 0.04536,0.0619 0.07843,0.07843 0.02338,0.01169 0.05505,-0.01169 0.07843,0 0.06614,0.03307 0.09072,0.123793 0.156862,0.156863 0.02338,0.01169 0.05505,-0.01169 0.07843,0 0.03307,0.01654 0.04536,0.0619 0.07843,0.07843 0.04677,0.02338 0.11989,-0.03697 0.156863,0 0.01849,0.01849 -0.01849,0.05994 0,0.07843 0.01849,0.01849 0.05994,-0.01849 0.07843,0 0.01849,0.01849 -0.01849,0.05994 0,0.07843 0.02146,0.02146 0.271178,-0.02127 0.313726,0 0.03307,0.01654 0.04536,0.0619 0.07843,0.07843 0.02338,0.01169 0.05994,-0.01849 0.07843,0 0.01849,0.01849 -0.01849,0.05994 0,0.07843 0.01849,0.01849 0.05994,-0.01849 0.07843,0 0.01849,0.01849 -0.01849,0.05994 0,0.07843 0.01849,0.01849 0.05994,-0.01849 0.07843,0 0.01849,0.01849 -0.01849,0.05994 0,0.07843 0.03922,0.03921 0.196079,-0.03922 0.235294,0 0.01849,0.01849 -0.01849,0.05994 0,0.07843 0.01849,0.01849 0.05994,-0.01849 0.07843,0 0.01849,0.01849 -0.01849,0.05994 0,0.07843 0.03697,0.03697 0.110095,-0.02338 0.156862,0 0.03307,0.01653 0.04536,0.0619 0.07843,0.07843 0.02338,0.01169 0.05994,-0.01849 0.07843,0 0.01849,0.01849 -0.01849,0.05994 0,0.07843 0.01849,0.01849 0.05995,-0.01849 0.07843,0 0.01849,0.01849 -0.01849,0.05995 0,0.07843 0.01849,0.01849 0.05994,-0.01849 0.07843,0 0.01849,0.01849 -0.01849,0.05994 0,0.07843 0.01849,0.01849 0.05994,-0.01849 0.07843,0 0.01849,0.01849 -0.01849,0.05994 0,0.07843 0.01849,0.01849 0.05994,-0.01849 0.07843,0 0.01849,0.01849 -0.01849,0.05995 0,0.07843 0.05229,0.05229 0.104575,-0.05229 0.156862,0 0.01849,0.01849 -0.01849,0.05994 0,0.07843 0.01849,0.01849 0.05994,-0.01849 0.07843,0 0.03697,0.03697 -0.03697,0.11989 0,0.156863 0.01849,0.01849 0.05994,-0.01849 0.07843,0 0.01849,0.01849 -0.01849,0.05994 0,0.07843 0.01849,0.01849 0.05995,-0.01849 0.07843,0 0.05217,0.05217 -0.05217,0.104689 0,0.156863 0.01849,0.01849 0.05994,-0.01849 0.07843,0 0.03697,0.03697 -0.03697,0.11989 0,0.156863 0.01849,0.01849 0.05994,-0.01849 0.07843,0 0.01849,0.01849 -0.01169,0.05505 0,0.07843 0.01653,0.03307 0.0619,0.04536 0.07843,0.07843 0.01169,0.02338 -0.01169,0.05505 0,0.07843 0.01653,0.03307 0.0619,0.04536 0.07843,0.07843 0.01169,0.02338 -0.01169,0.05505 0,0.07843 0.01653,0.03307 0.0619,0.04536 0.07843,0.07843 0.01169,0.02338 -0.01169,0.05505 0,0.07843 0.01654,0.03307 0.05229,0.05229 0.07843,0.07843 0.02614,0.02614 0.04536,0.0619 0.07843,0.07843 0.02338,0.01169 0.05994,-0.01849 0.07843,0 0.01849,0.01849 -0.01849,0.05994 0,0.07843 0.01849,0.01849 0.05994,-0.01849 0.07843,0 0.03697,0.03697 -0.03697,0.11989 0,0.156863 0.01849,0.01849 0.05994,-0.01849 0.07843,0 0.03922,0.03922 -0.03922,0.196079 0,0.235294 0.162277,0.162277 -0.0063,-0.247981 0.156863,0.07843 0.01169,0.02338 -0.01169,0.05505 0,0.07843 0.03307,0.06614 0.123793,0.09072 0.156863,0.156863 0.01169,0.02338 -0.01169,0.05505 0,0.07843 0.163206,0.326413 -0.0054,-0.08385 0.156862,0.07843 0.03697,0.03697 -0.03697,0.11989 0,0.156863 0.01849,0.01849 0.05994,-0.01849 0.07843,0 0.01849,0.01849 -0.01169,0.05505 0,0.07843 0.01653,0.03307 0.0619,0.04536 0.07843,0.07843 0.01169,0.02338 -0.01849,0.05994 0,0.07843 0.01849,0.01849 0.05994,-0.01849 0.07843,0 0.01849,0.01849 -0.01849,0.05995 0,0.07843 0.01849,0.01849 0.05994,-0.01849 0.07843,0 0.01849,0.01849 -0.01849,0.05995 0,0.07843 0.01849,0.01849 0.05994,-0.01849 0.07843,0 0.01849,0.01849 -0.01849,0.05994 0,0.07843 0.01849,0.01849 0.05994,-0.01849 0.07843,0 0.01603,0.01604 -0.01555,0.204197 0,0.235295 0.163206,0.326412 -0.0054,-0.08385 0.156862,0.07843 0.01849,0.01849 -0.01849,0.05994 0,0.07843 0.01849,0.01849 0.05505,-0.01169 0.07843,0 0.326412,0.163207 -0.08385,-0.0054 0.07843,0.156863 0.01849,0.01849 0.05994,-0.01849 0.07843,0 0.05217,0.05217 -0.05217,0.104689 0,0.156863 0.01849,0.01849 0.05994,-0.01849 0.07843,0 0.03697,0.03697 -0.02338,0.110095 0,0.156863 0.03307,0.06614 0.123793,0.09072 0.156863,0.156862 0.01169,0.02338 -0.01169,0.05505 0,0.07843 0.163206,0.326412 -0.0054,-0.08385 0.156862,0.07843 0.01849,0.01849 -0.01849,0.05994 0,0.07843 0.01849,0.01849 0.05994,-0.01849 0.07843,0 0.03697,0.03697 -0.02338,0.110096 0,0.156863 0.260124,0.260124 -0.03697,-0.07395 0.07843,0.156863 0.163206,0.326412 -0.0054,-0.08385 0.156863,0.07843 0.01849,0.01849 -0.01849,0.05994 0,0.07843 0.01849,0.01849 0.05994,-0.01849 0.07843,0 0.01849,0.01849 -0.01169,0.05505 0,0.07843 0.01653,0.03307 0.0619,0.04536 0.07843,0.07843 0.01169,0.02338 -0.01169,0.05505 0,0.07843 0.01653,0.03307 0.0619,0.04536 0.07843,0.07843 0.01169,0.02338 -0.01169,0.05505 0,0.07843 0.163206,0.326413 -0.0054,-0.08384 0.156863,0.07843 0.03697,0.03697 -0.03697,0.11989 0,0.156863 0.01849,0.01849 0.05994,-0.01849 0.07843,0 0.01849,0.01849 -0.01169,0.05505 0,0.07843 0.01654,0.03307 0.0619,0.04536 0.07843,0.07843 0.01169,0.02338 -0.01849,0.05994 0,0.07843 0.01849,0.01849 0.05994,-0.01849 0.07843,0 0.01849,0.01849 -0.01169,0.05505 0,0.07843 0.01654,0.03307 0.0619,0.04536 0.07843,0.07843 0.02338,0.04677 -0.02338,0.110096 0,0.156863 0.01653,0.03307 0.05229,0.05229 0.07843,0.07843 0.02614,0.02614 0.04536,0.0619 0.07843,0.07843 0.02338,0.01169 0.05505,-0.01169 0.07843,0 0.326413,0.163206 -0.08385,-0.0054 0.07843,0.156863 0.162277,0.162277 -0.0063,-0.247982 0.156862,0.07843 0.02338,0.04677 -0.02338,0.110095 0,0.156863 0.02498,0.04996 0.330528,0.330528 0.392157,0.392157 0.06163,0.06163 0.367178,0.342198 0.392157,0.392157 0.01169,0.02338 -0.01849,0.05994 0,0.07843 0.01849,0.01849 0.05994,-0.01849 0.07843,0 0.01849,0.01849 -0.01849,0.05994 0,0.07843 0.01849,0.01849 0.05994,-0.01849 0.07843,0 0.01849,0.01849 -0.01169,0.05505 0,0.07843 0.01653,0.03307 0.05229,0.05229 0.07843,0.07843 0.02614,0.02614 0.04536,0.0619 0.07843,0.07843 0.02338,0.01169 0.05995,-0.01849 0.07843,0 0.01849,0.01849 -0.01169,0.05505 0,0.07843 0.01654,0.03307 0.0619,0.04536 0.07843,0.07843 0.01169,0.02338 -0.01849,0.05994 0,0.07843 0.01849,0.01849 0.05994,-0.01849 0.07843,0 0.01849,0.01849 -0.01169,0.05505 0,0.07843 0.01653,0.03307 0.0619,0.04536 0.07843,0.07843 0.05409,0.108185 -0.09499,0.07015 0.07843,0.156863 0.02338,0.01169 0.05505,-0.01169 0.07843,0 0.06614,0.03307 0.09072,0.123793 0.156863,0.156863 0.02338,0.01169 0.05994,-0.01849 0.07843,0 0.01849,0.01849 -0.01849,0.05994 0,0.07843 0.03697,0.03697 0.11989,-0.03697 0.156863,0 0.01849,0.01849 -0.01849,0.05994 0,0.07843 0.01849,0.01849 0.05994,-0.01849 0.07843,0 0.01849,0.01849 -0.01169,0.05505 0,0.07843 0.163206,0.326412 -0.0054,-0.08385 0.156863,0.07843 0.01849,0.01849 -0.01849,0.05994 0,0.07843 0.01849,0.01849 0.05995,-0.01849 0.07843,0 0.01849,0.01849 -0.01849,0.05994 0,0.07843 0.01849,0.01849 0.05505,-0.01169 0.07843,0 0.03307,0.01653 0.05229,0.05229 0.07843,0.07843 0.02614,0.02614 0.0619,0.04536 0.07843,0.07843 0.01169,0.02338 -0.01849,0.05994 0,0.07843 0.162278,0.162277 -0.0063,-0.247981 0.156863,0.07843 0.01169,0.02338 -0.01849,0.05994 0,0.07843 0.01849,0.01849 0.05994,-0.01849 0.07843,0 0.01849,0.01849 -0.01169,0.05505 0,0.07843 0.0075,0.01501 0.298713,0.306219 0.313726,0.313726 0.02338,0.01169 0.05994,-0.01849 0.07843,0 0.01849,0.01849 -0.01849,0.05994 0,0.07843 0.01849,0.01849 0.05505,-0.01169 0.07843,0 0.03307,0.01654 0.04536,0.0619 0.07843,0.07843 0.02338,0.01169 0.05995,-0.01849 0.07843,0 0.01849,0.01849 -0.01169,0.05505 0,0.07843 0.08671,0.173416 0.04868,0.02434 0.156863,0.07843 0.326413,0.163206 -0.08385,-0.0054 0.07843,0.156863 0.01849,0.01849 0.05994,-0.01849 0.07843,0 0.01849,0.01849 -0.01849,0.05994 0,0.07843 0.03922,0.03922 0.196078,-0.03921 0.235294,0 0.01849,0.01849 -0.01849,0.05995 0,0.07843 0.01849,0.01849 0.05505,-0.01169 0.07843,0 0.06614,0.03307 0.09072,0.123793 0.156863,0.156862 0.02338,0.01169 0.05994,-0.01849 0.07843,0 0.01849,0.01849 -0.01849,0.05994 0,0.07843 0.01849,0.01849 0.05994,-0.01849 0.07843,0 0.01849,0.01849 -0.01849,0.05994 0,0.07843 0.01849,0.01849 0.05505,-0.01169 0.07843,0 0.260124,0.260124 -0.07394,-0.03697 0.156863,0.07843 0.03307,0.01653 0.04536,0.0619 0.07843,0.07843 0.02338,0.01169 0.05994,-0.01849 0.07843,0 0.01849,0.01849 -0.01849,0.05994 0,0.07843 0.03697,0.03697 0.116033,-0.03266 0.156863,0 0.115483,0.09239 0.198241,0.221339 0.313725,0.313726 0.04083,0.03266 0.110095,-0.02338 0.156863,0 0.03307,0.01653 0.05229,0.05229 0.07843,0.07843 0.02614,0.02614 0.0619,0.04536 0.07843,0.07843 0.01169,0.02338 -0.01849,0.05994 0,0.07843 0.01849,0.01849 0.05994,-0.01849 0.07843,0 0.01849,0.01849 -0.01849,0.05994 0,0.07843 0.01849,0.01849 0.05994,-0.01849 0.07843,0 0.01849,0.01849 -0.01849,0.05994 0,0.07843 0.03922,0.03922 0.196079,-0.03922 0.235294,0 0.01849,0.01849 -0.01169,0.05505 0,0.07843 0.08671,0.173416 0.04868,0.02434 0.156863,0.07843 0.03307,0.01653 0.04536,0.0619 0.07843,0.07843 0.02338,0.01169 0.05994,-0.01849 0.07843,0 0.01849,0.01849 -0.01849,0.05994 0,0.07843 0.162277,0.162277 -0.0063,-0.247981 0.156863,0.07843 0.01169,0.02338 -0.01849,0.05994 0,0.07843 0.03697,0.03697 0.119889,-0.03697 0.156862,0 0.01849,0.01849 -0.01169,0.05505 0,0.07843 0.163207,0.326413 -0.0054,-0.08385 0.156863,0.07843 0.01849,0.01849 -0.01849,0.05994 0,0.07843 0.01849,0.01849 0.05994,-0.01849 0.07843,0 0.01849,0.01849 -0.01849,0.05994 0,0.07843 0.01849,0.01849 0.05994,-0.01849 0.07843,0 0.162277,0.162278 -0.247981,-0.0063 0.07843,0.156863 0.04677,0.02338 0.110096,-0.02338 0.156863,0 0.06614,0.03307 0.09072,0.123793 0.156863,0.156863 0.02338,0.01169 0.05994,-0.01849 0.07843,0 0.05217,0.05217 -0.05217,0.104689 0,0.156863 0.01849,0.01849 0.05505,-0.01169 0.07843,0 0.326413,0.163206 -0.08384,-0.0054 0.07843,0.156862 0.03697,0.03697 0.110095,-0.02338 0.156863,0 0.03307,0.01653 0.04536,0.0619 0.07843,0.07843 0.02338,0.01169 0.05994,-0.01849 0.07843,0 0.03697,0.03697 -0.03697,0.11989 0,0.156862 0.01849,0.01849 0.05994,-0.01849 0.07843,0 0.01849,0.01849 -0.01849,0.05994 0,0.07843 0.01849,0.01849 0.05994,-0.01849 0.07843,0 0.162277,0.162277 -0.247981,-0.0063 0.07843,0.156863 0.04677,0.02338 0.110096,-0.02338 0.156863,0 0.173416,0.08671 0.02434,0.04868 0.07843,0.156862 0.01653,0.03307 0.05229,0.05229 0.07843,0.07843 0.02614,0.02614 0.05229,0.05229 0.07843,0.07843 0.02614,0.02614 0.04536,0.0619 0.07843,0.07843 0.02338,0.01169 0.05994,-0.01849 0.07843,0 0.01849,0.01849 -0.01849,0.05994 0,0.07843 0.01849,0.01849 0.05994,-0.01849 0.07843,0 0.01849,0.01849 -0.01849,0.05994 0,0.07843 0.01849,0.01849 0.05994,-0.01849 0.07843,0 0.01849,0.01849 -0.01849,0.05994 0,0.07843 0.01849,0.01849 0.05505,-0.01169 0.07843,0 0.03307,0.01653 0.05229,0.05229 0.07843,0.07843 0.02614,0.02614 0.0619,0.04536 0.07843,0.07843 0.01169,0.02338 -0.01849,0.05995 0,0.07843 0.03697,0.03697 0.11989,-0.03697 0.156863,0 0.01849,0.01849 -0.01169,0.05505 0,0.07843 0.01653,0.03307 0.05229,0.05229 0.07843,0.07843 0.02614,0.02614 0.04536,0.0619 0.07843,0.07843 0.02338,0.01169 0.05994,-0.01849 0.07843,0 0.01849,0.01849 -0.01169,0.05505 0,0.07843 0.01653,0.03307 0.05229,0.05229 0.07843,0.07843 0.02614,0.02614 0.04536,0.0619 0.07843,0.07843 0.02338,0.01169 0.05994,-0.01849 0.07843,0 0.01849,0.01849 -0.01169,0.05505 0,0.07843 0.04706,0.09412 0.188235,0.141177 0.235294,0.235294 0.01169,0.02338 -0.01849,0.05994 0,0.07843 0.01849,0.01849 0.05505,-0.01169 0.07843,0 0.03307,0.01653 0.05229,0.05229 0.07843,0.07843 0.02614,0.02614 0.0619,0.04536 0.07843,0.07843 0.01169,0.02338 -0.01169,0.05505 0,0.07843 0.02094,0.04189 0.194003,0.194003 0.235294,0.235294 0.02614,0.02614 0.05229,0.05229 0.07843,0.07843 0.02614,0.02614 0.04536,0.0619 0.07843,0.07843 0.02338,0.01169 0.05994,-0.01849 0.07843,0 0.03697,0.03697 -0.03697,0.11989 0,0.156863 0.162278,0.162277 -0.0063,-0.247982 0.156863,0.07843 0.05409,0.108185 -0.09498,0.07015 0.07843,0.156863 0.108185,0.05409 0.07015,-0.09499 0.156863,0.07843 0.02338,0.04677 -0.03697,0.11989 0,0.156863 0.01849,0.01849 0.05505,-0.01169 0.07843,0 0.326412,0.163206 -0.08385,-0.0054 0.07843,0.156862 0.01849,0.01849 0.05505,-0.01169 0.07843,0 0.02083,0.01041 0.224882,0.21447 0.235294,0.235295 0.01169,0.02338 -0.01169,0.05505 0,0.07843 0.01654,0.03307 0.05229,0.05229 0.07843,0.07843 0.02614,0.02614 0.04536,0.0619 0.07843,0.07843 0.02338,0.01169 0.05505,-0.01169 0.07843,0 0.02082,0.01041 0.224882,0.214469 0.235294,0.235294 0.02338,0.04677 -0.02338,0.110095 0,0.156863 0.01653,0.03307 0.05229,0.05229 0.07843,0.07843 0.02614,0.02614 0.05229,0.05229 0.07843,0.07843 0.260125,0.260124 -0.03697,-0.07395 0.07843,0.156863 0.03859,0.07718 0.275136,0.236547 0.313725,0.313726 0.01169,0.02338 -0.01169,0.05505 0,0.07843 0.03859,0.07718 0.275136,0.236547 0.313726,0.313725 0.01169,0.02338 -0.01169,0.05505 0,0.07843 0.01653,0.03307 0.0619,0.04536 0.07843,0.07843 0.01169,0.02338 -0.01169,0.05505 0,0.07843 0.01654,0.03307 0.0619,0.04536 0.07843,0.07843 0.01169,0.02338 -0.01169,0.05505 0,0.07843 0.08671,0.173416 0.04868,0.02434 0.156862,0.07843 0.326413,0.163206 -0.08385,-0.0054 0.07843,0.156862 0.01849,0.01849 0.05994,-0.01849 0.07843,0 0.01849,0.01849 -0.01169,0.05505 0,0.07843 0.01654,0.03307 0.0619,0.04536 0.07843,0.07843 0.02338,0.04677 -0.03697,0.11989 0,0.156863 0.01849,0.01849 0.05505,-0.01169 0.07843,0 0.326412,0.163206 -0.08385,-0.0054 0.07843,0.156863 0.01849,0.01849 0.05505,-0.01169 0.07843,0 0.326412,0.163206 -0.08385,-0.0054 0.07843,0.156862 0.01849,0.01849 0.05994,-0.01849 0.07843,0 0.01849,0.01849 -0.01849,0.05994 0,0.07843 0.01849,0.01849 0.05994,-0.01849 0.07843,0 0.01849,0.01849 -0.01169,0.05505 0,0.07843 0.01653,0.03307 0.05229,0.05229 0.07843,0.07843 0.04613,0.04613 0.295566,0.277405 0.313726,0.313725 0.01169,0.02338 -0.01169,0.05505 0,0.07843 0.01653,0.03307 0.0619,0.04536 0.07843,0.07843 0.01169,0.02338 -0.01169,0.05505 0,0.07843 0.163206,0.326413 -0.0054,-0.08385 0.156863,0.07843 0.01849,0.01849 -0.01169,0.05505 0,0.07843 0.163206,0.326412 -0.0054,-0.08385 0.156862,0.07843 0.01849,0.01849 -0.01849,0.05994 0,0.07843 0.01849,0.01849 0.05994,-0.01849 0.07843,0 0.05263,0.05263 -0.05263,0.104231 0,0.156862 0.01849,0.01849 0.05994,-0.01849 0.07843,0 0.01849,0.01849 -0.01849,0.05994 0,0.07843 0.01849,0.01849 0.05994,-0.01849 0.07843,0 0.01849,0.01849 -0.01849,0.05994 0,0.07843 0.01849,0.01849 0.05505,-0.01169 0.07843,0 0.03307,0.01654 0.04536,0.0619 0.07843,0.07843 0.02338,0.01169 0.05994,-0.01849 0.07843,0 0.01849,0.01849 -0.01849,0.05994 0,0.07843 0.01849,0.01849 0.05994,-0.01849 0.07843,0 0.01849,0.01849 -0.01169,0.05505 0,0.07843 0.01654,0.03307 0.0619,0.04536 0.07843,0.07843 0.01169,0.02338 -0.01169,0.05505 0,0.07843 0.163207,0.326413 -0.0054,-0.08385 0.156863,0.07843 0.01849,0.01849 -0.01849,0.05994 0,0.07843 0.01849,0.01849 0.05994,-0.01849 0.07843,0 0.01849,0.01849 -0.01849,0.05994 0,0.07843 0.01849,0.01849 0.05994,-0.01849 0.07843,0 0.01849,0.01849 -0.01169,0.05505 0,0.07843 0.01653,0.03307 0.0619,0.04536 0.07843,0.07843 0.02338,0.04677 -0.03697,0.11989 0,0.156863 0.01849,0.01849 0.05505,-0.01169 0.07843,0 0.01501,0.0075 0.306218,0.298712 0.313725,0.313725 0.01169,0.02338 -0.01169,0.05505 0,0.07843 0.08671,0.173417 0.04868,0.02434 0.156863,0.07843 0.326412,0.163206 -0.08385,-0.0054 0.07843,0.156863 0.01849,0.01849 0.05505,-0.01169 0.07843,0 0.03307,0.01653 0.05229,0.05229 0.07843,0.07843 0.02614,0.02614 0.0619,0.04536 0.07843,0.07843 0.02338,0.04677 -0.03697,0.11989 0,0.156863 0.01849,0.01849 0.05994,-0.01849 0.07843,0 0.01849,0.01849 -0.01849,0.05994 0,0.07843 0.01849,0.01849 0.05994,-0.01849 0.07843,0 0.01849,0.01849 0,0.05229 0,0.07843 0.02614,0 0.05505,-0.01169 0.07843,0 0.326413,0.163206 -0.08384,-0.0054 0.07843,0.156863 0.162277,0.162277 -0.0063,-0.247982 0.156863,0.07843 0.01169,0.02338 -0.01849,0.05994 0,0.07843 0.01849,0.01849 0.05994,-0.01849 0.07843,0 0.01849,0.01849 -0.01169,0.05505 0,0.07843 0.04706,0.09412 0.188235,0.141176 0.235294,0.235294 0.01169,0.02338 -0.01849,0.05994 0,0.07843 0.01849,0.01849 0.05505,-0.01169 0.07843,0 0.03307,0.01653 0.05229,0.05229 0.07843,0.07843 0.02614,0.02614 0.0619,0.04536 0.07843,0.07843 0.05409,0.108185 -0.09498,0.07015 0.07843,0.156863 0.02338,0.01169 0.05994,-0.01849 0.07843,0 0.01849,0.01849 -0.01849,0.05994 0,0.07843 0.01849,0.01849 0.05505,-0.01169 0.07843,0 0.03307,0.01653 0.04536,0.0619 0.07843,0.07843 0.02338,0.01169 0.05994,-0.01849 0.07843,0 0.01849,0.01849 -0.01169,0.05505 0,0.07843 0.163206,0.326412 -0.0054,-0.08385 0.156863,0.07843 0.01849,0.01849 -0.01169,0.05505 0,0.07843 0.01041,0.02083 0.21447,0.224882 0.235294,0.235295 0.02338,0.01169 0.05505,-0.01169 0.07843,0 0.03307,0.01653 0.05229,0.05229 0.07843,0.07843 0.02614,0.02614 0.05229,0.05229 0.07843,0.07843 0.04129,0.04129 0.21435,0.193406 0.235294,0.235294 0.01169,0.02338 -0.01849,0.05994 0,0.07843 0.01849,0.01849 0.05505,-0.01169 0.07843,0 0.06614,0.03307 0.09072,0.123793 0.156863,0.156863 0.02338,0.01169 0.05505,-0.01169 0.07843,0 0.03307,0.01653 0.05229,0.05229 0.07843,0.07843 0.02614,0.02614 0.0619,0.04536 0.07843,0.07843 0.05409,0.108185 -0.09498,0.07015 0.07843,0.156863 0.04677,0.02338 0.110095,-0.02338 0.156862,0 0.03307,0.01654 0.04536,0.0619 0.07843,0.07843 0.02338,0.01169 0.05994,-0.01849 0.07843,0 0.01849,0.01849 -0.01849,0.05994 0,0.07843 0.01849,0.01849 0.05994,-0.01849 0.07843,0 0.01849,0.01849 -0.01169,0.05505 0,0.07843 0.01653,0.03307 0.05229,0.05229 0.07843,0.07843 0.02614,0.02614 0.04536,0.0619 0.07843,0.07843 0.02338,0.01169 0.05994,-0.01849 0.07843,0 0.01849,0.01849 -0.01849,0.05994 0,0.07843 0.01849,0.01849 0.05505,-0.01169 0.07843,0 0.03632,0.01816 0.267597,0.267597 0.313726,0.313726 0.02614,0.02614 0.04536,0.0619 0.07843,0.07843 0.02338,0.01169 0.05505,-0.01169 0.07843,0 0.03307,0.01653 0.05229,0.05229 0.07843,0.07843 0.02614,0.02614 0.0619,0.04536 0.07843,0.07843 0.01169,0.02338 -0.01849,0.05994 0,0.07843 0.162277,0.162278 -0.0063,-0.247981 0.156863,0.07843 0.05409,0.108185 -0.09499,0.07015 0.07843,0.156862 0.04677,0.02338 0.11989,-0.03697 0.156863,0 0.01849,0.01849 -0.01849,0.05994 0,0.07843 0.01849,0.01849 0.05505,-0.01169 0.07843,0 0.03307,0.01653 0.04536,0.0619 0.07843,0.07843 0.02338,0.01169 0.05505,-0.01169 0.07843,0 0.06614,0.03307 0.09072,0.123793 0.156863,0.156863 0.02338,0.01169 0.05994,-0.01849 0.07843,0 0.162277,0.162277 -0.247981,-0.0063 0.07843,0.156863 0.04677,0.02338 0.110095,-0.02338 0.156862,0 0.06614,0.03307 0.09072,0.123793 0.156863,0.156862 0.02338,0.01169 0.05994,-0.01849 0.07843,0 0.03697,0.03697 -0.03697,0.11989 0,0.156863 0.01849,0.01849 0.05505,-0.01169 0.07843,0 0.06614,0.03307 0.09072,0.123793 0.156863,0.156863 0.04677,0.02338 0.119889,-0.03697 0.156862,0 0.01849,0.01849 -0.01849,0.05995 0,0.07843 0.01849,0.01849 0.05994,-0.01849 0.07843,0 0.03697,0.03697 -0.03697,0.11989 0,0.156863 0.03697,0.03697 0.119889,-0.03697 0.156862,0 0.01849,0.01849 -0.01849,0.05994 0,0.07843 0.01849,0.01849 0.05505,-0.01169 0.07843,0 0.03307,0.01653 0.04536,0.0619 0.07843,0.07843 0.108185,0.05409 0.07015,-0.09499 0.156863,0.07843 0.01169,0.02338 -0.01849,0.05994 0,0.07843 0.03697,0.03697 0.11989,-0.03697 0.156863,0 0.01849,0.01849 -0.01849,0.05994 0,0.07843 0.01849,0.01849 0.05505,-0.01169 0.07843,0 0.03307,0.01654 0.05229,0.05229 0.07843,0.07843 0.02614,0.02614 0.0619,0.04536 0.07843,0.07843 0,0.20915 -0.02614,-0.02614 0.07843,0.07843 0.01849,0.01849 -0.01849,0.05994 0,0.07843 0.01849,0.01849 0.05994,-0.01849 0.07843,0 0.01849,0.01849 -0.01849,0.05994 0,0.07843 0.162278,0.162277 -0.0063,-0.247981 0.156863,0.07843 0,0.20915 -0.02614,-0.02614 0.07843,0.07843 0.01849,0.01849 -0.01849,0.05994 0,0.07843 0.01849,0.01849 0.05994,-0.01849 0.07843,0 0.01849,0.01849 -0.01849,0.05994 0,0.07843 0.01849,0.01849 0.05994,-0.01849 0.07843,0 0.01849,0.01849 -0.01849,0.05994 0,0.07843 0.01849,0.01849 0.05994,-0.01849 0.07843,0 0.01849,0.01849 0,0.05229 0,0.07843 0.02614,0 0.05505,-0.01169 0.07843,0 0.326413,0.163206 -0.08385,-0.0054 0.07843,0.156863 0.03697,0.03697 0.11989,-0.03697 0.156863,0 0.01849,0.01849 -0.01169,0.05505 0,0.07843 0.08671,0.173416 0.04868,0.02434 0.156863,0.07843 0.03307,0.01653 0.05229,0.05229 0.07843,0.07843 0.02614,0.02614 0.0619,0.04536 0.07843,0.07843 0.01169,0.02338 -0.01849,0.05994 0,0.07843 0.01849,0.01849 0.05994,-0.01849 0.07843,0 0.01849,0.01849 -0.01849,0.05994 0,0.07843 0.01849,0.01849 0.05994,-0.01849 0.07843,0 0.03697,0.03697 -0.03697,0.11989 0,0.156863 0.01849,0.01849 0.05505,-0.01169 0.07843,0 0.03307,0.01653 0.05229,0.05229 0.07843,0.07843 0.02614,0.02614 0.0619,0.04536 0.07843,0.07843 0.01169,0.02338 -0.01849,0.05994 0,0.07843 0.01849,0.01849 0.05994,-0.01849 0.07843,0 0.01849,0.01849 -0.01169,0.05505 0,0.07843 0.01653,0.03307 0.05229,0.05229 0.07843,0.07843 0.02614,0.02614 0.04536,0.0619 0.07843,0.07843 0.02338,0.01169 0.05994,-0.01849 0.07843,0 0.01849,0.01849 -0.01849,0.05994 0,0.07843 0.01849,0.01849 0.05994,-0.01849 0.07843,0 0.01849,0.01849 -0.01169,0.05505 0,0.07843 0.01654,0.03307 0.05229,0.05229 0.07843,0.07843 0.05891,0.05891 0.173515,0.156863 0.07843,0.156863 -0.02614,0 0,-0.05229 0,-0.07843 0,-0.05229 -0.627451,-1.986928 -0.627451,-2.039215"
       id="path9543"
       inkscape:connector-curvature="0"
       transform="translate(0,988.3622)"
       sodipodi:nodetypes="cscccscccccccccccsccsssscssccsccsssscscscccscssccsccsccsccssscsccssscsscsccccssccccscsccccsccssscccccccsccccccsscsssccccscccsccsssccssccccccccccscscccsssccscccssssccsscssccccccsscccsccsscscscccsscssssccsccscccscscccscccsssccccccscsssscccssssccsccsscccscscsccscssssssccsccsscccscssscsscccsscssscsccscccsscscsscssccscscsccsscccscscsccsscscscccssccssssscscscscssccscssssssssscscccccsccsssscscsssscccscsccsscccscccssscscsssccccsscsssscssssccscsssccsccsscsccscsscsssscscscssscccsscsccccssccscccsccccsssccsssssccsssccssccsssssccsscssccscscccccccscssscsccscsccsccsscscsscccsscscsccscsscccssccccsccsccsscccscscccsssssscsccccsscccscsscssscscscscscssccsscccsscssccscsssscccsscccscssssscsccsscscscsssscccscscccscssscccsscsssssscsccccscscscsssscsccsscscccccsccccscsccsscsssccccsscscccscscssscssccscscsssssssccsssccscsssscccccssccsccssscsccssssscsccssccssccccsssssccsccccssscscssssccscscccsccscscccscscccsccscccscscscsssscssssssscsccscscssssccscsscscssscsssc" />
    <path
       style="fill:none;stroke:#bf0000;stroke-width:1;stroke-linecap:round;stroke-linejoin:round;stroke-opacity:1;opacity:0.80000000000000004;color:#000000;stroke-miterlimit:4;stroke-dasharray:none;stroke-dashoffset:0;marker:none;visibility:visible;display:inline;overflow:visible;enable-background:accumulate"
       d="m 0.54901961,0.78431373 c 0.26923454,-0.0614612 0.22680901,0.30948297 0.39215686,0.39215687 0.0233837,0.011692 0.0550477,-0.011692 0.0784313,0 0.03307,0.016535 0.045362,0.061897 0.078431,0.078431 0.031097,0.015549 0.2192599,-0.016034 0.2352941,0 0.018486,0.018486 -0.018486,0.059945 0,0.078431 0.018486,0.018486 0.059945,-0.018486 0.078431,0 0.018487,0.018486 -0.011692,0.055048 0,0.078431 0.010412,0.020824 0.2144697,0.2248819 0.2352941,0.2352941 0.086244,0.043122 0.1583121,-0.075533 0.2352941,0.078431 0.023384,0.046767 -0.023384,0.1100953 0,0.1568627 0.010412,0.020824 0.2144698,0.224882 0.2352942,0.2352942 0.08,0.04 0.076863,-0.04 0.1568627,0 0.1734161,0.086708 0.024339,0.048678 0.078431,0.1568627 0.016535,0.03307 0.052288,0.052288 0.078431,0.078431 0.026144,0.026144 0.045362,0.061897 0.078431,0.078431 0.023384,0.011692 0.055048,-0.011692 0.078431,0 0.03632,0.01816 0.2675965,0.2675966 0.3137255,0.3137255 0.026144,0.026144 0.045362,0.061897 0.078431,0.078431 0.023384,0.011692 0.055048,-0.011692 0.078431,0 0.066139,0.03307 0.090724,0.1237932 0.1568628,0.1568628 0.023384,0.011692 0.055048,-0.011692 0.078431,0 0.041889,0.020944 0.1940028,0.1940027 0.2352942,0.2352941 0.026144,0.026144 0.052287,0.052288 0.078431,0.078431 0.026144,0.026144 0.061897,0.045362 0.078431,0.078431 0.011692,0.023384 -0.018486,0.059945 0,0.078431 0.036973,0.036973 0.1198899,-0.036973 0.1568628,0 0.018486,0.018486 -0.018486,0.059945 0,0.078431 0.018486,0.018486 0.055048,-0.011692 0.078431,0 C 4.2479812,3.6926181 3.8377227,3.5239972 4,3.6862745 c 0.018486,0.018486 0.059945,-0.018486 0.078431,0 0.018486,0.018486 -0.018487,0.059945 0,0.078431 0.018486,0.018486 0.059945,-0.018486 0.078431,0 0.036973,0.036973 -0.036973,0.1198898 0,0.1568627 0.036973,0.036973 0.1100954,-0.023384 0.1568628,0 0.03307,0.016535 0.045362,0.061897 0.078431,0.078431 0.023384,0.011692 0.059945,-0.018486 0.078431,0 0.018486,0.018486 -0.018486,0.059945 0,0.078431 0.018486,0.018486 0.059945,-0.018487 0.078431,0 0.018486,0.018486 -0.018486,0.059945 0,0.078431 0.018486,0.018487 0.059945,-0.018486 0.078431,0 0.018486,0.018487 -0.018486,0.059945 0,0.078431 0.018486,0.018486 0.059945,-0.018486 0.078431,0 0.018486,0.018486 -0.018486,0.059945 0,0.078431 0.018486,0.018486 0.055048,-0.011692 0.078431,0 0.03307,0.016535 0.045362,0.061897 0.078431,0.078431 0.023384,0.011692 0.059945,-0.018486 0.078431,0 0.018486,0.018486 -0.018486,0.059945 0,0.078431 0.018486,0.018486 0.059945,-0.018486 0.078431,0 0.018486,0.018486 -0.018486,0.059945 0,0.078431 0.018486,0.018486 0.059945,-0.018486 0.078431,0 0.018487,0.018486 -0.011692,0.055048 0,0.078431 0.016535,0.03307 0.052288,0.052288 0.078431,0.078431 0.026144,0.026144 0.045362,0.061896 0.078431,0.078431 0.023384,0.011692 0.055048,-0.011692 0.078431,0 0.066139,0.03307 0.090724,0.1237932 0.1568628,0.1568628 0.023384,0.011692 0.059945,-0.018486 0.078431,0 0.036973,0.036973 -0.023384,0.1100953 0,0.1568627 0.016535,0.03307 0.052288,0.052288 0.078431,0.078431 0.026144,0.026144 0.045362,0.061897 0.078431,0.078431 0.046767,0.023384 0.1198898,-0.036973 0.1568627,0 0.018486,0.018486 -0.018486,0.059945 0,0.078431 0.018486,0.018487 0.059945,-0.018486 0.078431,0 0.018486,0.018487 -0.011692,0.055048 0,0.078431 0.016535,0.03307 0.061897,0.045362 0.078431,0.078431 0.011692,0.023384 -0.018486,0.059945 0,0.078431 0.018486,0.018486 0.059945,-0.018486 0.078431,0 0.018486,0.018486 -0.018486,0.059945 0,0.078431 0.051724,0.051724 0.1051386,-0.051724 0.1568627,0 0.018487,0.018486 -0.018486,0.059945 0,0.078431 0.036973,0.036973 0.1198898,-0.036973 0.1568627,0 0.036973,0.036973 -0.023384,0.1100953 0,0.1568627 0.016535,0.03307 0.052288,0.052288 0.078431,0.078431 0.026144,0.026144 0.045362,0.061897 0.078431,0.078431 0.023384,0.011692 0.059945,-0.018486 0.078431,0 0.018486,0.018486 -0.018487,0.059945 0,0.078431 0.018486,0.018486 0.055048,-0.011692 0.078431,0 0.03307,0.016535 0.045362,0.061896 0.078431,0.078431 0.023384,0.011692 0.059945,-0.018486 0.078431,0 0.018486,0.018486 -0.011692,0.055048 0,0.078431 0.1632063,0.3264126 -0.00541,-0.083846 0.1568627,0.078431 0.018486,0.018486 -0.018486,0.059945 0,0.078431 0.018486,0.018486 0.059945,-0.018486 0.078431,0 0.018486,0.018486 0,0.052288 0,0.078431 0.026144,0 0.059945,-0.018486 0.078431,0 0.018486,0.018487 -0.018486,0.059945 0,0.078431 0.018486,0.018486 0.059945,-0.018486 0.078431,0 0.018486,0.018486 -0.018486,0.059945 0,0.078431 0.018486,0.018486 0.055048,-0.011692 0.078431,0 0.03307,0.016535 0.045362,0.061897 0.078431,0.078431 0.023384,0.011692 0.059945,-0.018486 0.078431,0 0.018486,0.018487 -0.011692,0.055048 0,0.078431 0.016535,0.03307 0.061897,0.045362 0.078431,0.078431 0.011692,0.023384 -0.018486,0.059945 0,0.078431 0.051724,0.051724 0.1051386,-0.051724 0.1568628,0 0.1622773,0.1622773 -0.2479812,-0.00634 0.078431,0.1568627 0.023384,0.011692 0.059945,-0.018486 0.078431,0 0.018487,0.018486 -0.011692,0.055048 0,0.078431 0.03307,0.066139 0.1237932,0.090724 0.1568628,0.1568627 0.011692,0.023384 -0.018486,0.059945 0,0.078431 0.018486,0.018486 0.055048,-0.011692 0.078431,0 0.03307,0.016535 0.045362,0.061897 0.078431,0.078431 0.023384,0.011692 0.059945,-0.018486 0.078431,0 0.018486,0.018486 -0.011692,0.055048 0,0.078431 0.016535,0.03307 0.061897,0.045362 0.078431,0.078431 0.011692,0.023384 -0.018486,0.059945 0,0.078431 0.018486,0.018486 0.059945,-0.018486 0.078431,0 0.018486,0.018486 -0.018486,0.059945 0,0.078431 0.018486,0.018486 0.059945,-0.018487 0.078431,0 0.018486,0.018486 -0.018486,0.059945 0,0.078431 0.018486,0.018487 0.059945,-0.018486 0.078431,0 0.018486,0.018487 -0.018486,0.059945 0,0.078431 0.018486,0.018486 0.059945,-0.018486 0.078431,0 0.036973,0.036973 -0.036973,0.1198898 0,0.1568627 0.018486,0.018486 0.055048,-0.011692 0.078431,0 0.020824,0.010412 0.224882,0.2144698 0.2352941,0.2352942 0.011692,0.023384 -0.018486,0.059945 0,0.078431 0.1622773,0.1622773 -0.00634,-0.2479812 0.1568628,0.078431 0.011692,0.023384 -0.011692,0.055048 0,0.078431 0.047059,0.094118 0.1882353,0.1411765 0.2352941,0.2352941 0.011692,0.023384 -0.018486,0.059945 0,0.078431 0.018486,0.018486 0.055048,-0.011692 0.078431,0 0.033069,0.016535 0.052288,0.052288 0.078431,0.078431 0.026144,0.026144 0.061896,0.045362 0.078431,0.078431 0.023384,0.046767 -0.036973,0.1198899 0,0.1568628 0.018486,0.018486 0.059945,-0.018486 0.078431,0 0.018486,0.018486 -0.018486,0.059945 0,0.078431 0.018486,0.018486 0.055048,-0.011692 0.078431,0 0.033069,0.016535 0.045362,0.061897 0.078431,0.078431 0.023384,0.011692 0.059945,-0.018486 0.078431,0 0.162278,0.1622773 -0.2479812,-0.00634 0.078432,0.1568628 0.02338,0.011692 0.05995,-0.018486 0.07843,0 0.03697,0.036973 -0.02338,0.1100953 0,0.1568627 0.07931,0.1586259 0.182014,0.025151 0.235294,0.078431 0.01849,0.018486 -0.01169,0.055048 0,0.078431 0.01654,0.03307 0.05229,0.052288 0.07843,0.078431 0.02614,0.026144 0.04536,0.061897 0.07843,0.078432 0.02338,0.01169 0.05994,-0.01849 0.07843,0 0.03697,0.03697 -0.02338,0.110095 0,0.156862 0.08671,0.173417 0.04868,0.02434 0.156863,0.07843 0.03307,0.01654 0.05229,0.05229 0.07843,0.07843 0.02614,0.02614 0.05229,0.05229 0.07843,0.07843 0.02614,0.02614 0.0619,0.04536 0.07843,0.07843 0.01169,0.02338 -0.01169,0.05505 0,0.07843 0.163206,0.326413 -0.0054,-0.08385 0.156863,0.07843 0.01849,0.01849 -0.01849,0.05994 0,0.07843 0.03697,0.03697 0.11989,-0.03697 0.156863,0 0.01849,0.01849 -0.01169,0.05505 0,0.07843 0.03307,0.06614 0.123793,0.09072 0.156862,0.156863 0.02338,0.04677 -0.03697,0.11989 0,0.156863 0.03697,0.03697 0.11989,-0.03697 0.156863,0 0.01849,0.01849 -0.01849,0.05995 0,0.07843 0.01849,0.01849 0.05994,-0.01849 0.07843,0 0.01849,0.01849 -0.01849,0.05995 0,0.07843 0.01849,0.01849 0.05505,-0.01169 0.07843,0 0.03307,0.01653 0.05229,0.05229 0.07843,0.07843 0.02614,0.02614 0.0619,0.04536 0.07843,0.07843 0.02338,0.04677 -0.02338,0.110096 0,0.156863 0.08671,0.173416 0.04868,0.02434 0.156862,0.07843 0.326413,0.163206 -0.08385,-0.0054 0.07843,0.156862 0.01849,0.01849 0.05995,-0.01849 0.07843,0 0.162277,0.162278 -0.247981,-0.0063 0.07843,0.156863 0.02338,0.01169 0.05995,-0.01849 0.07843,0 0.03697,0.03697 -0.03697,0.11989 0,0.156863 0.01849,0.01849 0.05995,-0.01849 0.07843,0 0.01849,0.01849 -0.01849,0.05995 0,0.07843 0.01849,0.01849 0.05995,-0.01849 0.07843,0 0.01849,0.01849 -0.01849,0.05995 0,0.07843 0.01849,0.01849 0.05994,-0.01849 0.07843,0 0.01849,0.01849 -0.01169,0.05505 0,0.07843 0.01653,0.03307 0.0619,0.04536 0.07843,0.07843 0.01169,0.02338 -0.01849,0.05995 0,0.07843 0.03697,0.03697 0.11989,-0.03697 0.156863,0 0.03697,0.03697 -0.03697,0.119889 0,0.156862 0.01849,0.01849 0.05994,-0.01849 0.07843,0 0.01849,0.01849 -0.01169,0.05505 0,0.07843 0.03307,0.06614 0.123794,0.09072 0.156863,0.156862 0.01169,0.02338 -0.01849,0.05994 0,0.07843 0.03697,0.03697 0.11989,-0.03697 0.156863,0 0.01849,0.01849 -0.01849,0.05995 0,0.07843 0.01849,0.01849 0.05995,-0.01849 0.07843,0 0.03697,0.03697 -0.02338,0.110096 0,0.156863 0.01654,0.03307 0.0619,0.04536 0.07843,0.07843 0.01169,0.02338 -0.01849,0.05995 0,0.07843 0.01849,0.01849 0.05994,-0.01849 0.07843,0 0.01849,0.01849 -0.01849,0.05994 0,0.07843 0.03697,0.03697 0.11989,-0.03697 0.156863,0 0.01849,0.01849 -0.01849,0.05995 0,0.07843 0.01849,0.01849 0.05994,-0.01849 0.07843,0 0.03697,0.03697 -0.03697,0.11989 0,0.156863 0.01849,0.01849 0.05994,-0.01849 0.07843,0 0.01849,0.01849 -0.01849,0.05994 0,0.07843 0.01849,0.01849 0.05994,-0.01849 0.07843,0 0.01849,0.01849 -0.01849,0.05994 0,0.07843 0.01849,0.01849 0.05994,-0.01849 0.07843,0 0.01849,0.01849 -0.01849,0.05994 0,0.07843 0.01849,0.01849 0.05994,-0.01849 0.07843,0 0.01849,0.01849 -0.01849,0.05994 0,0.07843 0.162277,0.162277 -0.0063,-0.247982 0.156862,0.07843 0.02338,0.04677 -0.03697,0.11989 0,0.156863 0.01849,0.01849 0.05995,-0.01849 0.07843,0 0.01849,0.01849 -0.01849,0.05995 0,0.07843 0.01849,0.01849 0.05995,-0.01849 0.07843,0 0.01849,0.01849 -0.01849,0.05995 0,0.07843 0.01849,0.01849 0.05995,-0.01849 0.07843,0 0.01849,0.01849 -0.01849,0.05994 0,0.07843 0.01849,0.01849 0.05994,-0.01849 0.07843,0 0.01849,0.01849 -0.01849,0.05994 0,0.07843 0.01849,0.01849 0.05994,-0.01849 0.07843,0 0.01849,0.01849 -0.01849,0.05995 0,0.07843 0.01849,0.01849 0.05995,-0.01849 0.07843,0 0.05229,0.05229 -0.05229,0.104575 0,0.156862 0.01849,0.01849 0.05994,-0.01849 0.07843,0 0.01849,0.01849 -0.01849,0.05994 0,0.07843 0.01849,0.01849 0.05994,-0.01849 0.07843,0 0.01849,0.01849 -0.01849,0.05995 0,0.07843 0.01849,0.01849 0.05994,-0.01849 0.07843,0 0.01849,0.01849 -0.01849,0.05994 0,0.07843 0.01849,0.01849 0.05995,-0.01849 0.07843,0 0.01849,0.01849 -0.01849,0.05994 0,0.07843 0.01849,0.01849 0.05994,-0.01849 0.07843,0 0.03697,0.03697 -0.03697,0.11989 0,0.156863 0.01849,0.01849 0.05994,-0.01849 0.07843,0 0.01849,0.01849 -0.01849,0.05995 0,0.07843 0.01849,0.01849 0.05995,-0.01849 0.07843,0 0.01849,0.01849 -0.01849,0.05995 0,0.07843 0.01849,0.01849 0.05995,-0.01849 0.07843,0 0.01849,0.01849 -0.01849,0.05995 0,0.07843 0.01849,0.01849 0.05995,-0.01849 0.07843,0 0.03697,0.03697 -0.03697,0.11989 0,0.156863 0.01849,0.01849 0.05995,-0.01849 0.07843,0 0.01849,0.01849 -0.01849,0.05994 0,0.07843 0.03697,0.03697 0.11989,-0.03697 0.156863,0 0.03697,0.03697 -0.03697,0.11989 0,0.156863 0.01849,0.01849 0.05994,-0.01849 0.07843,0 0.01849,0.01849 -0.01849,0.05995 0,0.07843 0.01849,0.01849 0.05994,-0.01849 0.07843,0 0.01849,0.01849 -0.01849,0.05994 0,0.07843 0.01849,0.01849 0.05994,-0.01849 0.07843,0 0.01849,0.01849 -0.01849,0.05995 0,0.07843 0.01849,0.01849 0.05994,-0.01849 0.07843,0 0.01849,0.01849 -0.01849,0.05994 0,0.07843 0.01849,0.01849 0.05995,-0.01849 0.07843,0 0.01849,0.01849 -0.01169,0.05505 0,0.07843 0.01654,0.03307 0.0619,0.04536 0.07843,0.07843 0.01169,0.02338 -0.01849,0.05994 0,0.07843 0.01849,0.01849 0.05505,-0.01169 0.07843,0 0.03307,0.01654 0.04536,0.0619 0.07843,0.07843 0.02338,0.01169 0.05994,-0.01849 0.07843,0 0.01849,0.01849 -0.01849,0.05995 0,0.07843 0.01849,0.01849 0.05994,-0.01849 0.07843,0 0.01849,0.01849 -0.01849,0.05994 0,0.07843 0.01849,0.01849 0.05994,-0.01849 0.07843,0 0.01849,0.01849 -0.01169,0.05505 0,0.07843 0.163207,0.326412 -0.0054,-0.08385 0.156863,0.07843 0.01849,0.01849 -0.01169,0.05505 0,0.07843 0.01041,0.02083 0.21447,0.224882 0.235294,0.235295 0.02338,0.01169 0.05994,-0.01849 0.07843,0 0.01849,0.01849 -0.01169,0.05505 0,0.07843 0.03307,0.06614 0.123794,0.09072 0.156863,0.156863 0.01169,0.02338 -0.01849,0.05995 0,0.07843 0.01849,0.01849 0.05994,-0.01849 0.07843,0 0.01849,0.01849 -0.01849,0.05994 0,0.07843 0.05328,0.05328 0.155981,-0.08019 0.235294,0.07843 0.02338,0.04677 -0.03697,0.11989 0,0.156863 0.01849,0.01849 0.05505,-0.01169 0.07843,0 0.06614,0.03307 0.09072,0.123793 0.156863,0.156862 0.02338,0.01169 0.05995,-0.01849 0.07843,0 0.01849,0.01849 -0.01849,0.05994 0,0.07843 0.03697,0.03697 0.11989,-0.03697 0.156863,0 0.03697,0.03697 -0.03697,0.11989 0,0.156862 0.01849,0.01849 0.05505,-0.01169 0.07843,0 0.03307,0.01654 0.04536,0.0619 0.07843,0.07843 0.02338,0.01169 0.05505,-0.01169 0.07843,0 0.326413,0.163206 -0.08385,-0.0054 0.07843,0.156863 0.01849,0.01849 0.05994,-0.01849 0.07843,0 0.01849,0.01849 -0.01849,0.05994 0,0.07843 0.03922,0.03922 0.196078,-0.03922 0.235294,0 0.162277,0.162277 -0.247981,-0.0063 0.07843,0.156863 0.01609,0.008 0.224234,0.01106 0.235294,0 0.01849,-0.01849 -0.02614,-0.07843 0,-0.07843 0.02529,0 0.113284,0.135073 0.156863,0.156863 0.02338,0.01169 0.05505,-0.01169 0.07843,0 0.326412,0.163206 -0.08385,-0.0054 0.07843,0.156863 0.01849,0.01849 0.05994,-0.01849 0.07843,0 0.03697,0.03697 -0.03697,0.11989 0,0.156863 0.03922,0.03921 0.196079,-0.03922 0.235294,0 0.01849,0.01849 -0.01849,0.05994 0,0.07843 0.162278,0.162277 -0.0063,-0.247981 0.156863,0.07843 0.01169,0.02338 -0.01169,0.05505 0,0.07843 0.01654,0.03307 0.0619,0.04536 0.07843,0.07843 0.01169,0.02338 -0.01849,0.05994 0,0.07843 0.01849,0.01849 0.05505,-0.01169 0.07843,0 0.06614,0.03307 0.09072,0.123794 0.156863,0.156863 0.02338,0.01169 0.05994,-0.01849 0.07843,0 0.01849,0.01849 -0.01849,0.05995 0,0.07843 0.01849,0.01849 0.05994,-0.01849 0.07843,0 0.01849,0.01849 -0.01849,0.05994 0,0.07843 0.01849,0.01849 0.05995,-0.01849 0.07843,0 0.01849,0.01849 -0.01849,0.05994 0,0.07843 0.01849,0.01849 0.05505,-0.01169 0.07843,0 0.03307,0.01654 0.04536,0.0619 0.07843,0.07843 0.04677,0.02338 0.11989,-0.03697 0.156863,0 0.03697,0.03697 -0.03697,0.119889 0,0.156862 0.03697,0.03697 0.11989,-0.03697 0.156863,0 0.03697,0.03697 -0.03697,0.11989 0,0.156863 0.01849,0.01849 0.05505,-0.01169 0.07843,0 0.03307,0.01654 0.04536,0.0619 0.07843,0.07843 0.02338,0.01169 0.05505,-0.01169 0.07843,0 0.03307,0.01653 0.04536,0.0619 0.07843,0.07843 0.02338,0.01169 0.05995,-0.01849 0.07843,0 0.03697,0.03697 -0.03697,0.11989 0,0.156863 0.01849,0.01849 0.05505,-0.01169 0.07843,0 0.03307,0.01653 0.04536,0.0619 0.07843,0.07843 0.02338,0.01169 0.05994,-0.01849 0.07843,0 0.01849,0.01849 -0.01849,0.05994 0,0.07843 0.03697,0.03697 0.11989,-0.03697 0.156863,0 0.01849,0.01849 -0.01849,0.05995 0,0.07843 0.01849,0.01849 0.05229,0 0.07843,0 0,0.02614 -0.01169,0.05505 0,0.07843 0.163206,0.326413 -0.0054,-0.08385 0.156863,0.07843 0.01849,0.01849 -0.01849,0.05995 0,0.07843 0.01849,0.01849 0.05995,-0.01849 0.07843,0 0.162277,0.162277 -0.247981,-0.0063 0.07843,0.156863 0.20915,0 -0.02614,-0.02614 0.07843,0.07843 0.01849,0.01849 0.05995,-0.01849 0.07843,0 0.162278,0.162277 -0.247981,-0.0063 0.07843,0.156863 0.02338,0.01169 0.05994,-0.01849 0.07843,0 0.03697,0.03697 -0.03697,0.11989 0,0.156862 0.01849,0.01849 0.05994,-0.01849 0.07843,0 0.01849,0.01849 -0.01849,0.05994 0,0.07843 0.01849,0.01849 0.05505,-0.01169 0.07843,0 0.03307,0.01654 0.04536,0.0619 0.07843,0.07843 0.02338,0.01169 0.05994,-0.01849 0.07843,0 0.03697,0.03697 -0.03697,0.11989 0,0.156863 0.01849,0.01849 0.05994,-0.01849 0.07843,0 0.01849,0.01849 -0.01849,0.05995 0,0.07843 0.01849,0.01849 0.05995,-0.01849 0.07843,0 0.01849,0.01849 -0.01169,0.05505 0,0.07843 0.01653,0.03307 0.0619,0.04536 0.07843,0.07843 0.01169,0.02338 -0.01849,0.05994 0,0.07843 0.03697,0.03697 0.11989,-0.03697 0.156862,0 0.01849,0.01849 -0.01849,0.05994 0,0.07843 0.01849,0.01849 0.05994,-0.01849 0.07843,0 0.03697,0.03697 -0.03697,0.11989 0,0.156863 0.01849,0.01849 0.05994,-0.01849 0.07843,0 0.01849,0.01849 -0.01849,0.05994 0,0.07843 0.01849,0.01849 0.05995,-0.01849 0.07843,0 0.01849,0.01849 -0.01849,0.05995 0,0.07843 0.01849,0.01849 0.05994,-0.01849 0.07843,0 0.01849,0.01849 -0.01849,0.05994 0,0.07843 0.01849,0.01849 0.05994,-0.01849 0.07843,0 0.03697,0.03697 -0.03697,0.11989 0,0.156862 0.01849,0.01849 0.05994,-0.01849 0.07843,0 0.01849,0.01849 -0.01849,0.05994 0,0.07843 0.01849,0.01849 0.05994,-0.01849 0.07843,0 0.03697,0.03697 -0.03697,0.11989 0,0.156863 0.01849,0.01849 0.05994,-0.01849 0.07843,0 0.01849,0.01849 -0.01849,0.05994 0,0.07843 0.01849,0.01849 0.05994,-0.01849 0.07843,0 0.01849,0.01849 -0.01169,0.05505 0,0.07843 0.01654,0.03307 0.0619,0.04536 0.07843,0.07843 0.01169,0.02338 -0.01849,0.05994 0,0.07843 0.01849,0.01849 0.05995,-0.01849 0.07843,0 0.01849,0.01849 -0.01849,0.05994 0,0.07843 0.01849,0.01849 0.05994,-0.01849 0.07843,0 0.01849,0.01849 -0.01169,0.05505 0,0.07843 0.01654,0.03307 0.0619,0.04536 0.07843,0.07843 0.01169,0.02338 -0.01169,0.05505 0,0.07843 0.163207,0.326412 -0.0054,-0.08385 0.156863,0.07843 0.03697,0.03697 -0.03697,0.11989 0,0.156863 0.01849,0.01849 0.05994,-0.01849 0.07843,0 0.01849,0.01849 -0.01849,0.05994 0,0.07843 0.03697,0.03697 0.11989,-0.03697 0.156863,0 0.03922,0.03922 -0.03922,0.196078 0,0.235294 0.01849,0.01849 0.05994,-0.01849 0.07843,0 0.01849,0.01849 -0.01849,0.05994 0,0.07843 0.01849,0.01849 0.05994,-0.01849 0.07843,0 0.01849,0.01849 -0.01849,0.05994 0,0.07843 0.01849,0.01849 0.05994,-0.01849 0.07843,0 0.01849,0.01849 -0.01849,0.05994 0,0.07843 0.162278,0.162278 -0.0063,-0.247981 0.156863,0.07843 0.01169,0.02338 -0.01849,0.05995 0,0.07843 0.01849,0.01849 0.05994,-0.01849 0.07843,0 0.03697,0.03697 -0.03697,0.11989 0,0.156863 0.01849,0.01849 0.05995,-0.01849 0.07843,0 0.01849,0.01849 -0.01849,0.05995 0,0.07843 0.03697,0.03697 0.11989,-0.03697 0.156862,0 0.01849,0.01849 -0.01849,0.05994 0,0.07843 0.01849,0.01849 0.05995,-0.01849 0.07843,0 0.162277,0.162278 -0.247981,-0.0063 0.07843,0.156863 0.02338,0.01169 0.05994,-0.01849 0.07843,0 0.03697,0.03697 -0.03697,0.11989 0,0.156863 0.01849,0.01849 0.05994,-0.01849 0.07843,0 0.01849,0.01849 -0.01849,0.05994 0,0.07843 0.01849,0.01849 0.05994,-0.01849 0.07843,0 0.01849,0.01849 -0.01849,0.05994 0,0.07843 0.01849,0.01849 0.05505,-0.01169 0.07843,0 0.03307,0.01653 0.04536,0.0619 0.07843,0.07843 0.02338,0.01169 0.05994,-0.01849 0.07843,0 0.01849,0.01849 -0.01849,0.05994 0,0.07843 0.01849,0.01849 0.05994,-0.01849 0.07843,0 0.03697,0.03697 -0.03697,0.11989 0,0.156863 0.03697,0.03697 0.11989,-0.03697 0.156863,0 0.01849,0.01849 -0.01849,0.05994 0,0.07843 0.03697,0.03697 0.110095,-0.02338 0.156862,0 0.173416,0.08671 0.02434,0.04868 0.07843,0.156862 0.163206,0.326413 -0.0054,-0.08385 0.156862,0.07843 0.01849,0.01849 -0.01849,0.05994 0,0.07843 0.01849,0.01849 0.05505,-0.01169 0.07843,0 0.06614,0.03307 0.09072,0.123793 0.156863,0.156863 0.02338,0.01169 0.05994,-0.01849 0.07843,0 0.01849,0.01849 -0.01849,0.05994 0,0.07843 0.03697,0.03697 0.110095,-0.02338 0.156863,0 0.06614,0.03307 0.09072,0.123793 0.156862,0.156863 0.02338,0.01169 0.05994,-0.01849 0.07843,0 0.01849,0.01849 -0.01849,0.05995 0,0.07843 0.01849,0.01849 0.05994,-0.01849 0.07843,0 0.162277,0.162278 -0.247981,-0.0063 0.07843,0.156863 0.04677,0.02338 0.110095,-0.02338 0.156862,0 0.260124,0.260124 -0.07395,-0.03697 0.156863,0.07843 0.144393,0.0722 0.01247,0.163098 0.156863,0.235295 0.02338,0.01169 0.05505,-0.01169 0.07843,0 0.06614,0.03307 0.09072,0.123793 0.156863,0.156862 0.04677,0.02338 0.11989,-0.03697 0.156863,0 0.162277,0.162278 -0.247982,-0.0063 0.07843,0.156863 0.02338,0.01169 0.05505,-0.01169 0.07843,0 0.03307,0.01654 0.04536,0.0619 0.07843,0.07843 0.02338,0.01169 0.05994,-0.01849 0.07843,0 0.01849,0.01849 -0.01849,0.05994 0,0.07843 0.03697,0.03697 0.11989,-0.03697 0.156863,0 0.01849,0.01849 -0.01849,0.05994 0,0.07843 0.01849,0.01849 0.05505,-0.01169 0.07843,0 0.03307,0.01654 0.04536,0.0619 0.07843,0.07843 0.02338,0.01169 0.05995,-0.01849 0.07843,0 0.01849,0.01849 -0.01849,0.05994 0,0.07843 0.01849,0.01849 0.05994,-0.01849 0.07843,0 0.01849,0.01849 -0.01849,0.05994 0,0.07843 0.01849,0.01849 0.05995,-0.01849 0.07843,0 0.01849,0.01849 -0.01849,0.05995 0,0.07843 0.01849,0.01849 0.05995,-0.01849 0.07843,0 0.01849,0.01849 -0.01849,0.05994 0,0.07843 0.01849,0.01849 0.05994,-0.01849 0.07843,0 0.01849,0.01849 -0.01849,0.05994 0,0.07843 0.03697,0.03697 0.110096,-0.02338 0.156863,0 0.03307,0.01654 0.05229,0.05229 0.07843,0.07843 0.02614,0.02614 0.0619,0.04536 0.07843,0.07843 0.02338,0.04677 -0.03697,0.11989 0,0.156863 0.01849,0.01849 0.05994,-0.01849 0.07843,0 0.01849,0.01849 -0.01849,0.05994 0,0.07843 0.01849,0.01849 0.05994,-0.01849 0.07843,0 0.01849,0.01849 -0.01849,0.05994 0,0.07843 0.01849,0.01849 0.05995,-0.01849 0.07843,0 0.01849,0.01849 -0.01849,0.05995 0,0.07843 0.01849,0.01849 0.05994,-0.01849 0.07843,0 0.01849,0.01849 -0.01849,0.05994 0,0.07843 0.162278,0.162278 -0.0063,-0.247981 0.156863,0.07843 0.02338,0.04677 -0.03697,0.11989 0,0.156862 0.01849,0.01849 0.05505,-0.01169 0.07843,0 0.06614,0.03307 0.09072,0.123794 0.156862,0.156863 0.02338,0.01169 0.05994,-0.01849 0.07843,0 0.01849,0.01849 -0.01849,0.05994 0,0.07843 0.01849,0.01849 0.05994,-0.01849 0.07843,0 0.01849,0.01849 -0.01849,0.05994 0,0.07843 0.01849,0.01849 0.05994,-0.01849 0.07843,0 0.03697,0.03697 -0.03697,0.11989 0,0.156863 0.01849,0.01849 0.05994,-0.01849 0.07843,0 0.01849,0.01849 -0.01849,0.05995 0,0.07843 0.03697,0.03697 0.11989,-0.03697 0.156863,0 0.01849,0.01849 -0.01849,0.05994 0,0.07843 0.01849,0.01849 0.05994,-0.01849 0.07843,0 0.01849,0.01849 -0.01169,0.05505 0,0.07843 0.03307,0.06614 0.123793,0.09072 0.156863,0.156863 0.01169,0.02338 -0.01849,0.05994 0,0.07843 0.01849,0.01849 0.05505,-0.01169 0.07843,0 0.326413,0.163206 -0.08385,-0.0054 0.07843,0.156863 0.01849,0.01849 0.05994,-0.01849 0.07843,0 0.01849,0.01849 -0.01849,0.05994 0,0.07843 0.01849,0.01849 0.05994,-0.01849 0.07843,0 0.01849,0.01849 -0.01169,0.05505 0,0.07843 0.01654,0.03307 0.0619,0.04536 0.07843,0.07843 0.01169,0.02338 -0.01849,0.05994 0,0.07843 0.01849,0.01849 0.05994,-0.01849 0.07843,0 0.01849,0.01849 -0.01169,0.05505 0,0.07843 0.01654,0.03307 0.05229,0.05229 0.07843,0.07843 0.02614,0.02614 0.04536,0.0619 0.07843,0.07843 0.02338,0.01169 0.05994,-0.01849 0.07843,0 0.03697,0.03697 -0.02338,0.110096 0,0.156863 0.163206,0.326413 -0.0054,-0.08385 0.156863,0.07843 0.03697,0.03697 -0.03697,0.11989 0,0.156863 0.01849,0.01849 0.05994,-0.01849 0.07843,0 0.01849,0.01849 -0.01849,0.05995 0,0.07843 0.01849,0.01849 0.05995,-0.01849 0.07843,0 0.03697,0.03697 -0.03697,0.119889 0,0.156862 0.03697,0.03697 0.119889,-0.03697 0.156862,0 0.01849,0.01849 -0.01849,0.05994 0,0.07843 0.01849,0.01849 0.05995,-0.01849 0.07843,0 0.01849,0.01849 -0.01169,0.05505 0,0.07843 0.01653,0.03307 0.0619,0.04536 0.07843,0.07843 0.01169,0.02338 -0.01169,0.05505 0,0.07843 0.01653,0.03307 0.0619,0.04536 0.07843,0.07843 0.01169,0.02338 -0.01169,0.05505 0,0.07843 0.08671,0.173416 0.04868,0.02434 0.156863,0.07843 0.03307,0.01654 0.05229,0.05229 0.07843,0.07843 0.02614,0.02614 0.0619,0.04536 0.07843,0.07843 0.01169,0.02338 -0.01169,0.05505 0,0.07843 0.01654,0.03307 0.0619,0.04536 0.07843,0.07843 0.02338,0.04677 -0.03697,0.11989 0,0.156863 0.03697,0.03697 0.11989,-0.03697 0.156863,0 0.01849,0.01849 -0.01169,0.05505 0,0.07843 0.03307,0.06614 0.123793,0.09072 0.156863,0.156863 0.02338,0.04677 -0.03697,0.11989 0,0.156863 0.03697,0.03697 0.11989,-0.03697 0.156862,0 0.03697,0.03697 -0.03697,0.11989 0,0.156863 0.01849,0.01849 0.05994,-0.01849 0.07843,0 0.01849,0.01849 -0.01849,0.05994 0,0.07843 0.01849,0.01849 0.05994,-0.01849 0.07843,0 0.01849,0.01849 -0.01169,0.05505 0,0.07843 0.01653,0.03307 0.05229,0.05229 0.07843,0.07843 0.02614,0.02614 0.04536,0.0619 0.07843,0.07843 0.04677,0.02338 0.11989,-0.03697 0.156863,0 0.03921,0.03922 -0.03922,0.196079 0,0.235294 0.01849,0.01849 0.05994,-0.01849 0.07843,0 0.01849,0.01849 -0.01849,0.05994 0,0.07843 0.01849,0.01849 0.05995,-0.01849 0.07843,0 0.01849,0.01849 -0.01849,0.05994 0,0.07843 0.01849,0.01849 0.05994,-0.01849 0.07843,0 0.01849,0.01849 0,0.05229 0,0.07843 0.02614,0 0.05505,-0.01169 0.07843,0 0.173416,0.08671 0.02434,0.04868 0.07843,0.156863 0.02094,0.04189 0.194002,0.194003 0.235294,0.235294 0.02614,0.02614 0.04536,0.0619 0.07843,0.07843 0.108185,0.05409 0.07015,-0.09499 0.156863,0.07843 0.02338,0.04677 -0.02338,0.110095 0,0.156863 0.163206,0.326412 -0.0054,-0.08385 0.156863,0.07843 0.01849,0.01849 -0.01169,0.05505 0,0.07843 0.08671,0.173416 0.04868,0.02434 0.156862,0.07843 0.326413,0.163206 -0.08385,-0.0054 0.07843,0.156863 0.01849,0.01849 0.05995,-0.01849 0.07843,0 0.01849,0.01849 -0.01169,0.05505 0,0.07843 0.163206,0.326413 -0.0054,-0.08385 0.156863,0.07843 0.01849,0.01849 -0.01849,0.05994 0,0.07843 0.03697,0.03697 0.110095,-0.02338 0.156863,0 0.02082,0.01041 0.224881,0.21447 0.235294,0.235294 0.01169,0.02338 -0.01849,0.05994 0,0.07843 0.01849,0.01849 0.05505,-0.01169 0.07843,0 0.06614,0.03307 0.09072,0.123793 0.156863,0.156863 0.108185,0.05409 0.07015,-0.09499 0.156863,0.07843 0.05409,0.108185 -0.09499,0.07015 0.07843,0.156863 0.02338,0.01169 0.05505,-0.01169 0.07843,0 0.03307,0.01653 0.04536,0.0619 0.07843,0.07843 0.02338,0.01169 0.05994,-0.01849 0.07843,0 0.01849,0.01849 -0.01849,0.05994 0,0.07843 0.01849,0.01849 0.05994,-0.01849 0.07843,0 0.01849,0.01849 -0.01849,0.05995 0,0.07843 0.03697,0.03697 0.110096,-0.02338 0.156863,0 0.09412,0.04706 0.141177,0.188236 0.235294,0.235294 0.02338,0.01169 0.05994,-0.01849 0.07843,0 0.01849,0.01849 -0.01169,0.05505 0,0.07843 0.163206,0.326412 -0.0054,-0.08385 0.156862,0.07843 0.01849,0.01849 -0.01849,0.05994 0,0.07843 0.03922,0.03922 0.196079,-0.03921 0.235294,0 0.01849,0.01849 -0.01169,0.05505 0,0.07843 0.01654,0.03307 0.0619,0.04536 0.07843,0.07843 0.01169,0.02338 -0.01849,0.05994 0,0.07843 0.01849,0.01849 0.05994,-0.01849 0.07843,0 0.01849,0.01849 -0.01849,0.05994 0,0.07843 0.01849,0.01849 0.05994,-0.01849 0.07843,0 0.01849,0.01849 -0.01849,0.05994 0,0.07843 0.01849,0.01849 0.05505,-0.01169 0.07843,0 0.03307,0.01653 0.04536,0.0619 0.07843,0.07843 0.04677,0.02338 0.11989,-0.03697 0.156863,0 0.03697,0.03697 -0.02338,0.110095 0,0.156862 0.163206,0.326413 -0.0054,-0.08384 0.156863,0.07843 0.01849,0.01849 -0.01849,0.05994 0,0.07843 0.01849,0.01849 0.05994,-0.01849 0.07843,0 0.01849,0.01849 -0.01849,0.05994 0,0.07843 0.03697,0.03697 0.11989,-0.03697 0.156863,0 0.01849,0.01849 -0.01849,0.05994 0,0.07843 0.01849,0.01849 0.05994,-0.01849 0.07843,0 0.01849,0.01849 -0.01849,0.05994 0,0.07843 0.01849,0.01849 0.05995,-0.01849 0.07843,0 0.01849,0.01849 -0.01849,0.05994 0,0.07843 0.162277,0.162277 -0.0063,-0.247982 0.156862,0.07843 0.01169,0.02338 -0.01849,0.05995 0,0.07843 0.01849,0.01849 0.05994,-0.01849 0.07843,0 0.01849,0.01849 -0.01849,0.05994 0,0.07843 0.03697,0.03697 0.11989,-0.03697 0.156863,0 0.01849,0.01849 -0.01169,0.05505 0,0.07843 0.01653,0.03307 0.05229,0.05229 0.07843,0.07843 0.02614,0.02614 0.04536,0.0619 0.07843,0.07843 0.108185,0.05409 0.07015,-0.09499 0.156863,0.07843 0,0.209151 -0.02614,-0.02614 0.07843,0.07843 0.01849,0.01849 -0.01849,0.05994 0,0.07843 0.01849,0.01849 0.05505,-0.01169 0.07843,0 0.03307,0.01654 0.04536,0.0619 0.07843,0.07843 0.02338,0.01169 0.05994,-0.01849 0.07843,0 0.01849,0.01849 -0.01169,0.05505 0,0.07843 0.163206,0.326412 -0.0054,-0.08385 0.156862,0.07843 0.01849,0.01849 -0.01849,0.05994 0,0.07843 0.01849,0.01849 0.05994,-0.01849 0.07843,0 0.03697,0.03697 -0.03697,0.119889 0,0.156862 0.01849,0.01849 0.05505,-0.01169 0.07843,0 0.326413,0.163207 -0.08385,-0.0054 0.07843,0.156863 0.162278,0.162277 -0.0063,-0.247981 0.156863,0.07843 0.01169,0.02338 -0.01849,0.05994 0,0.07843 0.162277,0.162277 -0.0063,-0.247981 0.156863,0.07843 0.01169,0.02338 -0.01849,0.05994 0,0.07843 0.01849,0.01849 0.05505,-0.01169 0.07843,0 0.326413,0.163206 -0.08385,-0.0054 0.07843,0.156862 0.01849,0.01849 0.05994,-0.01849 0.07843,0 0.162277,0.162278 -0.247981,-0.0063 0.07843,0.156863 0.108185,0.05409 0.07015,-0.09499 0.156863,0.07843 0.01169,0.02338 -0.01849,0.05994 0,0.07843 0.01849,0.01849 0.05994,-0.01849 0.07843,0 0.01849,0.01849 -0.01849,0.05994 0,0.07843 0.01849,0.01849 0.05994,-0.01849 0.07843,0 0.162277,0.162277 -0.247981,-0.0063 0.07843,0.156863 0.108185,0.05409 0.07015,-0.09498 0.156863,0.07843 0.01169,0.02338 -0.01849,0.05994 0,0.07843 0.01849,0.01849 0.05994,-0.01849 0.07843,0 0.01849,0.01849 -0.01169,0.05505 0,0.07843 0.01653,0.03307 0.0619,0.04536 0.07843,0.07843 0.01169,0.02338 -0.01169,0.05505 0,0.07843 0.163206,0.326412 -0.0054,-0.08385 0.156862,0.07843 0.162278,0.162277 -0.247981,-0.0063 0.07843,0.156863 0.02338,0.01169 0.05994,-0.01849 0.07843,0 0.01849,0.01849 -0.01169,0.05505 0,0.07843 0.163207,0.326413 -0.0054,-0.08385 0.156863,0.07843 0.01849,0.01849 -0.01169,0.05505 0,0.07843 0.163206,0.326413 -0.0054,-0.08385 0.156863,0.07843 0.01849,0.01849 -0.01849,0.05994 0,0.07843 0.01849,0.01849 0.05994,-0.01849 0.07843,0 0.01849,0.01849 -0.01849,0.05994 0,0.07843 0.01849,0.01849 0.05505,-0.01169 0.07843,0 0.09412,0.04706 0.141177,0.188235 0.235295,0.235294 0.02338,0.01169 0.05994,-0.01849 0.07843,0 0.01849,0.01849 -0.01169,0.05505 0,0.07843 0.163206,0.326412 -0.0054,-0.08385 0.156863,0.07843 0.01849,0.01849 -0.01849,0.05994 0,0.07843 0.01849,0.01849 0.05994,-0.01849 0.07843,0 0.01849,0.01849 -0.01849,0.05994 0,0.07843 0.01849,0.01849 0.05994,-0.01849 0.07843,0 0.01849,0.01849 -0.01169,0.05505 0,0.07843 0.163207,0.326413 -0.0054,-0.08385 0.156863,0.07843 0.162277,0.162278 -0.247981,-0.0063 0.07843,0.156863 0.02338,0.01169 0.05994,-0.01849 0.07843,0 0.01849,0.01849 -0.01849,0.05994 0,0.07843 0.01849,0.01849 0.05994,-0.01849 0.07843,0 0.01849,0.01849 -0.01169,0.05505 0,0.07843 0.163207,0.326413 -0.0054,-0.08385 0.156863,0.07843 0.01849,0.01849 -0.01849,0.05995 0,0.07843 0.01849,0.01849 0.05994,-0.01849 0.07843,0 0.01849,0.01849 -0.01849,0.05994 0,0.07843 0.01849,0.01849 0.05994,-0.01849 0.07843,0 0.01849,0.01849 -0.01849,0.05994 0,0.07843 0.01849,0.01849 0.05994,-0.01849 0.07843,0 0.01849,0.01849 -0.01849,0.05994 0,0.07843 0.01849,0.01849 0.05505,-0.01169 0.07843,0 0.03307,0.01653 0.04536,0.0619 0.07843,0.07843 0.02338,0.01169 0.05994,-0.01849 0.07843,0 0.01849,0.01849 -0.01849,0.05994 0,0.07843 0.01849,0.01849 0.05994,-0.01849 0.07843,0 0.01849,0.01849 -0.01849,0.05994 0,0.07843 0.01849,0.01849 0.05994,-0.01849 0.07843,0 0.01849,0.01849 -0.01849,0.05994 0,0.07843 0.01849,0.01849 0.05994,-0.01849 0.07843,0 0.01849,0.01849 -0.01849,0.05995 0,0.07843 0.01849,0.01849 0.05994,-0.01849 0.07843,0 0.01849,0.01849 -0.01169,0.05505 0,0.07843 0.01653,0.03307 0.0619,0.04536 0.07843,0.07843 0.01169,0.02338 -0.01849,0.05994 0,0.07843 0.01849,0.01849 0.05505,-0.01169 0.07843,0 0.03307,0.01653 0.05229,0.05229 0.07843,0.07843 0.02614,0.02614 0.0619,0.04536 0.07843,0.07843 0.01169,0.02338 -0.01849,0.05994 0,0.07843 0.01849,0.01849 0.05994,-0.01849 0.07843,0 0.01849,0.01849 -0.01849,0.05994 0,0.07843 0.01849,0.01849 0.05994,-0.01849 0.07843,0 0.03697,0.03697 -0.03697,0.11989 0,0.156863 0.01849,0.01849 0.05994,-0.01849 0.07843,0 0.01849,0.01849 -0.01849,0.05994 0,0.07843 0.01849,0.01849 0.05994,-0.01849 0.07843,0 0.01849,0.01849 -0.01849,0.05994 0,0.07843 0.01849,0.01849 0.05994,-0.01849 0.07843,0 0.01849,0.01849 -0.01849,0.05994 0,0.07843 0.01849,0.01849 0.05994,-0.01849 0.07843,0 0.03697,0.03697 -0.02338,0.110095 0,0.156863 0.163207,0.326412 -0.0054,-0.08385 0.156863,0.07843 0.01849,0.01849 -0.01849,0.05994 0,0.07843 0.01849,0.01849 0.05994,-0.01849 0.07843,0 0.01849,0.01849 -0.01849,0.05994 0,0.07843 0.01849,0.01849 0.05994,-0.01849 0.07843,0 0.01849,0.01849 -0.01849,0.05994 0,0.07843 0.01849,0.01849 0.05994,-0.01849 0.07843,0 0.01849,0.01849 -0.01169,0.05505 0,0.07843 0.01653,0.03307 0.0619,0.04536 0.07843,0.07843 0.01169,0.02338 -0.01849,0.05994 0,0.07843 0.01849,0.01849 0.05994,-0.01849 0.07843,0 0.01849,0.01849 -0.01169,0.05505 0,0.07843 0.01654,0.03307 0.0619,0.04536 0.07843,0.07843 0.01169,0.02338 -0.01849,0.05994 0,0.07843 0.01849,0.01849 0.05994,-0.01849 0.07843,0 0.01849,0.01849 -0.01849,0.05994 0,0.07843 0.01849,0.01849 0.05994,-0.01849 0.07843,0 0.01849,0.01849 -0.01169,0.05505 0,0.07843 0.03307,0.06614 0.123793,0.09072 0.156863,0.156863 0.01169,0.02338 -0.01849,0.05995 0,0.07843 0.01849,0.01849 0.05994,-0.01849 0.07843,0 0.01849,0.01849 -0.01849,0.05994 0,0.07843 0.01849,0.01849 0.05994,-0.01849 0.07843,0 0.01849,0.01849 -0.01849,0.05994 0,0.07843 0.01849,0.01849 0.05994,-0.01849 0.07843,0 0.01849,0.01849 -0.01849,0.05994 0,0.07843 0.01849,0.01849 0.05995,-0.01849 0.07843,0 0.01849,0.01849 -0.01849,0.05994 0,0.07843 0.01849,0.01849 0.05994,-0.01849 0.07843,0 0.03922,0.03922 -0.03922,0.196078 0,0.235294 0.01849,0.01849 0.05994,-0.01849 0.07843,0 0.03697,0.03697 -0.03697,0.11989 0,0.156863 0.01849,0.01849 0.05505,-0.01169 0.07843,0 0.173416,0.08671 0.02434,0.04868 0.07843,0.156863 0.163206,0.326412 -0.0054,-0.08385 0.156863,0.07843 0.03697,0.03697 -0.02338,0.110095 0,0.156863 0.02035,0.04069 0.235294,0.210951 0.235294,0.235294 0,0.03697 -0.07843,0.04146 -0.07843,0.07843 0,0.03697 0.0619,0.04536 0.07843,0.07843 0.01169,0.02338 -0.01849,0.05994 0,0.07843 0.01849,0.01849 0.05994,-0.01849 0.07843,0 0.01849,0.01849 -0.01849,0.05994 0,0.07843 0.162277,0.162278 -0.0063,-0.247981 0.156863,0.07843 0.01169,0.02338 -0.01849,0.05995 0,0.07843 0.01849,0.01849 0.05994,-0.01849 0.07843,0 0.01849,0.01849 -0.01169,0.05505 0,0.07843 0.03307,0.06614 0.123793,0.09072 0.156863,0.156863 0.05409,0.108185 -0.09499,0.07015 0.07843,0.156863 0.04677,0.02338 0.11989,-0.03697 0.156863,0 0.01849,0.01849 -0.01849,0.05994 0,0.07843 0.01849,0.01849 0.05994,-0.01849 0.07843,0 0.03697,0.03697 -0.03697,0.11989 0,0.156863 0.01849,0.01849 0.05994,-0.01849 0.07843,0 0.01849,0.01849 -0.01849,0.05994 0,0.07843 0.01849,0.01849 0.05994,-0.01849 0.07843,0 0.01849,0.01849 -0.01849,0.05994 0,0.07843 0.01849,0.01849 0.05994,-0.01849 0.07843,0 0.01849,0.01849 -0.01849,0.05994 0,0.07843 0.01849,0.01849 0.05994,-0.01849 0.07843,0 0.01849,0.01849 -0.01849,0.05994 0,0.07843 0.01849,0.01849 0.05994,-0.01849 0.07843,0 0.01849,0.01849 -0.01849,0.05994 0,0.07843 0.01849,0.01849 0.05994,-0.01849 0.07843,0 0.01603,0.01603 -0.01555,0.204197 0,0.235294 0.03859,0.07718 0.275136,0.236547 0.313725,0.313725 0.01169,0.02338 0,0.05229 0,0.07843 0,0.02614 0,0.05229 0,0.07843 0,0.02614 0.01169,0.05505 0,0.07843 -0.08671,0.173416 -0.04868,0.02434 -0.156862,0.07843 -0.108866,0.05443 -0.07843,0.139554 -0.07843,0.235294 0,0.02614 0,0.05229 0,0.07843 0,0.02614 -0.01849,0.05994 0,0.07843 0.01849,0.01849 0.05505,-0.01169 0.07843,0 0.01501,0.0075 0.306218,0.298712 0.313725,0.313725 0.01169,0.02338 -0.01169,0.05505 0,0.07843 0.01653,0.03307 0.0619,0.04536 0.07843,0.07843 0.01169,0.02338 -0.01849,0.05995 0,0.07843 0.01849,0.01849 0.05505,-0.01169 0.07843,0 0.01501,0.0075 0.306219,0.298713 0.313725,0.313726 0.01169,0.02338 -0.01849,0.05994 0,0.07843 0.01849,0.01849 0.05229,0 0.07843,0 0.09574,0 0.180861,-0.03043 0.235294,0.07843 0.02338,0.04677 -0.03697,0.11989 0,0.156862 0.01849,0.01849 0.05994,-0.01849 0.07843,0 0.01849,0.01849 -0.01169,0.05505 0,0.07843 0.01654,0.03307 0.0619,0.04536 0.07843,0.07843 0.01169,0.02338 -0.01849,0.05994 0,0.07843 0.03697,0.03697 0.11989,-0.03697 0.156863,0 0.01849,0.01849 -0.01849,0.05994 0,0.07843 0.162278,0.162277 -0.0063,-0.247981 0.156863,0.07843 0.01169,0.02338 -0.01849,0.05995 0,0.07843 0.01849,0.01849 0.05994,-0.01849 0.07843,0 0.03922,0.03922 -0.03922,0.196078 0,0.235294 0.01849,0.01849 0.05994,-0.01849 0.07843,0 0.01849,0.01849 0,0.05229 0,0.07843 0.02614,0 0.05505,-0.01169 0.07843,0 0.173416,0.08671 0.02434,0.04868 0.07843,0.156863 0.01653,0.03307 0.05229,0.05229 0.07843,0.07843 0.02614,0.02614 0.04536,0.0619 0.07843,0.07843 0.02338,0.01169 0.05994,-0.01849 0.07843,0 0.01849,0.01849 -0.01849,0.05994 0,0.07843 0.01849,0.01849 0.05994,-0.01849 0.07843,0 0.03697,0.03697 -0.03697,0.11989 0,0.156863 0.01849,0.01849 0.05994,-0.01849 0.07843,0 0.01849,0.01849 -0.01849,0.05994 0,0.07843 0.01849,0.01849 0.05995,-0.01849 0.07843,0 0.01849,0.01849 -0.01169,0.05505 0,0.07843 0.01653,0.03307 0.05229,0.05229 0.07843,0.07843 0.02614,0.02614 0.04536,0.0619 0.07843,0.07843 0.02338,0.01169 0.05994,-0.01849 0.07843,0 0.03697,0.03697 -0.02338,0.110096 0,0.156863 0.01041,0.02082 0.21447,0.224882 0.235294,0.235294 0.02338,0.01169 0.05505,-0.01169 0.07843,0 0.03307,0.01653 0.04536,0.0619 0.07843,0.07843 0.02338,0.01169 0.05995,-0.01849 0.07843,0 0.03697,0.03697 -0.02338,0.110096 0,0.156863 0.01041,0.02083 0.21447,0.224882 0.235294,0.235294 0.108185,0.05409 0.07015,-0.09498 0.156863,0.07843 0.01169,0.02338 -0.01169,0.05505 0,0.07843 0.01653,0.03307 0.05229,0.05229 0.07843,0.07843 0.02614,0.02614 0.04536,0.0619 0.07843,0.07843 0.02338,0.01169 0.05994,-0.01849 0.07843,0 0.162277,0.162277 -0.247981,-0.0063 0.07843,0.156863 0.04677,0.02338 0.11989,-0.03697 0.156863,0 0.03697,0.03697 -0.03697,0.119889 0,0.156862 0.01849,0.01849 0.05505,-0.01169 0.07843,0 0.326412,0.163207 -0.08385,-0.0054 0.07843,0.156863 0.01849,0.01849 0.05995,-0.01849 0.07843,0 0.01849,0.01849 -0.01849,0.05995 0,0.07843 0.01849,0.01849 0.05505,-0.01169 0.07843,0 0.03307,0.01653 0.04536,0.0619 0.07843,0.07843 0.02338,0.01169 0.05994,-0.01849 0.07843,0 0.01849,0.01849 -0.01169,0.05505 0,0.07843 0.01653,0.03307 0.0619,0.04536 0.07843,0.07843 0.01169,0.02338 -0.01849,0.05994 0,0.07843 0.01849,0.01849 0.05505,-0.01169 0.07843,0 0.326413,0.163206 -0.08385,-0.0054 0.07843,0.156863 0.01849,0.01849 0.05994,-0.01849 0.07843,0 0.01849,0.01849 -0.01849,0.05994 0,0.07843 0.03697,0.03697 0.11989,-0.03697 0.156863,0 0.01849,0.01849 -0.01169,0.05505 0,0.07843 0.163206,0.326413 -0.0054,-0.08384 0.156862,0.07843 0.01849,0.01849 -0.01169,0.05505 0,0.07843 0.01041,0.02083 0.21447,0.224882 0.235294,0.235294 0.02338,0.01169 0.05994,-0.01849 0.07843,0 0.01849,0.01849 -0.01849,0.05995 0,0.07843 0.01849,0.01849 0.05505,-0.01169 0.07843,0 0.09412,0.04706 0.141177,0.188235 0.235294,0.235294 0.02338,0.01169 0.05994,-0.01849 0.07843,0 0.01849,0.01849 -0.01849,0.05994 0,0.07843 0.01849,0.01849 0.05994,-0.01849 0.07843,0 0.01849,0.01849 0,0.05229 0,0.07843 0.02614,0 0.05505,-0.01169 0.07843,0 0.02083,0.01041 0.224882,0.214469 0.235295,0.235294 0.01169,0.02338 -0.01849,0.05994 0,0.07843 0.01849,0.01849 0.05994,-0.01849 0.07843,0 0.01849,0.01849 -0.01849,0.05994 0,0.07843 0.01849,0.01849 0.05505,-0.01169 0.07843,0 0.06614,0.03307 0.09072,0.123794 0.156863,0.156863 0.02338,0.01169 0.05994,-0.01849 0.07843,0 0.01849,0.01849 -0.01849,0.05994 0,0.07843 0.01849,0.01849 0.05994,-0.01849 0.07843,0 0.03697,0.03697 -0.03697,0.119889 0,0.156862 0.01849,0.01849 0.05994,-0.01849 0.07843,0 0.01849,0.01849 -0.01849,0.05994 0,0.07843 0.162277,0.162277 -0.0063,-0.247982 0.156863,0.07843 0.01169,0.02338 -0.01849,0.05994 0,0.07843 0.01849,0.01849 0.05994,-0.01849 0.07843,0 0.01849,0.01849 -0.01849,0.05994 0,0.07843 0.03697,0.03697 0.110096,-0.02338 0.156863,0 0.326413,0.163206 -0.08385,-0.0054 0.07843,0.156862 0.01849,0.01849 0.05994,-0.01849 0.07843,0 0.01849,0.01849 -0.01849,0.05994 0,0.07843 0.03697,0.03697 0.110095,-0.02338 0.156863,0 0.03307,0.01654 0.04536,0.0619 0.07843,0.07843 0.04677,0.02338 0.11989,-0.03697 0.156863,0 0.03697,0.03697 -0.02338,0.110096 0,0.156863 0.163206,0.326413 -0.0054,-0.08385 0.156862,0.07843 0.01849,0.01849 -0.01849,0.05994 0,0.07843 0.01849,0.01849 0.05505,-0.01169 0.07843,0 0.03307,0.01653 0.04536,0.0619 0.07843,0.07843 0.108185,0.05409 0.07015,-0.09498 0.156863,0.07843 0.02338,0.04677 -0.02338,0.110096 0,0.156863 0.03307,0.06614 0.123793,0.09072 0.156863,0.156863 0.01169,0.02338 -0.01849,0.05994 0,0.07843 0.03697,0.03697 0.119889,-0.03697 0.156862,0 0.01849,0.01849 -0.01849,0.05994 0,0.07843 0.01849,0.01849 0.05994,-0.01849 0.07843,0 0.162277,0.162277 -0.247981,-0.0063 0.07843,0.156862 0.02338,0.01169 0.05994,-0.01849 0.07843,0 0.01849,0.01849 -0.01849,0.05994 0,0.07843 0.01849,0.01849 0.05994,-0.01849 0.07843,0 0.01849,0.01849 -0.01849,0.05994 0,0.07843 0.01849,0.01849 0.05994,-0.01849 0.07843,0 0.01849,0.01849 -0.01849,0.05994 0,0.07843 0.162278,0.162277 -0.0063,-0.247982 0.156863,0.07843 0.01169,0.02338 -0.01169,0.05505 0,0.07843 0.01653,0.03307 0.05229,0.05229 0.07843,0.07843 0.02614,0.02614 0.04536,0.0619 0.07843,0.07843 0.02338,0.01169 0.05505,-0.01169 0.07843,0 0.03307,0.01654 0.04536,0.0619 0.07843,0.07843 0.04677,0.02338 0.11989,-0.03697 0.156863,0 0.03697,0.03697 -0.03697,0.11989 0,0.156863 0.01849,0.01849 0.05994,-0.01849 0.07843,0 0.01849,0.01849 -0.01849,0.05994 0,0.07843 0.01849,0.01849 0.05505,-0.01169 0.07843,0 0.03307,0.01653 0.05229,0.05229 0.07843,0.07843 0.02614,0.02614 0.0619,0.04536 0.07843,0.07843 0.01169,0.02338 -0.01849,0.05995 0,0.07843 0.03697,0.03697 0.11989,-0.03697 0.156862,0 0.03697,0.03697 -0.03697,0.11989 0,0.156862 0.209151,0 -0.02614,-0.02614 0.07843,0.07843 0.01849,0.01849 0.05505,-0.01169 0.07843,0 0.03307,0.01653 0.05229,0.05229 0.07843,0.07843 0.02614,0.02614 0.104575,0.05229 0.07843,0.07843 -0.02614,0.02614 -0.07843,-0.04146 -0.07843,-0.07843 0,-0.02614 0.05229,0 0.07843,0 0.20915,0 -0.02614,-0.02614 0.07843,0.07843 0.01849,0.01849 0.05995,-0.01849 0.07843,0 0.03697,0.03697 -0.02338,0.110095 0,0.156862 0.01041,0.02083 0.214469,0.224882 0.235294,0.235294 0.02338,0.01169 0.05994,-0.01849 0.07843,0 0.162277,0.162278 -0.247981,-0.0063 0.07843,0.156863 0.02338,0.01169 0.05994,-0.01849 0.07843,0 0.01849,0.01849 -0.01169,0.05505 0,0.07843 0.03307,0.06614 0.123793,0.09072 0.156863,0.156862 0.01169,0.02338 -0.01849,0.05994 0,0.07843 0.01849,0.01849 0.05505,-0.01169 0.07843,0 0.03307,0.01653 0.04536,0.0619 0.07843,0.07843 0.02338,0.01169 0.05994,-0.01849 0.07843,0 0.03697,0.03697 -0.03697,0.11989 0,0.156863 0.01849,0.01849 0.05994,-0.01849 0.07843,0 0.01849,0.01849 -0.01849,0.05994 0,0.07843 0.01849,0.01849 0.05994,-0.01849 0.07843,0 0.01849,0.01849 -0.01849,0.05994 0,0.07843 0.01849,0.01849 0.05994,-0.01849 0.07843,0 0.01849,0.01849 -0.01849,0.05994 0,0.07843 0.01849,0.01849 0.05994,-0.01849 0.07843,0 0.01849,0.01849 -0.01849,0.05994 0,0.07843 0.05229,0.05229 0.104575,-0.05229 0.156863,0 0.03697,0.03697 -0.02338,0.110096 0,0.156863 0.163206,0.326413 -0.0054,-0.08385 0.156863,0.07843 0.03921,0.03922 -0.03922,0.196079 0,0.235294 0.03921,0.03922 0.196078,-0.03921 0.235294,0 0.03697,0.03697 -0.03697,0.11989 0,0.156863 0.01603,0.01603 0.204197,-0.01555 0.235294,0 0.03307,0.01653 0.05229,0.05229 0.07843,0.07843 0.02614,0.02614 0.0619,0.04536 0.07843,0.07843 0.01169,0.02338 -0.01849,0.05994 0,0.07843 0.03697,0.03697 0.11989,-0.03697 0.156862,0 0.01849,0.01849 -0.01849,0.05994 0,0.07843 0.01849,0.01849 0.05505,-0.01169 0.07843,0 0.06614,0.03307 0.09072,0.123793 0.156863,0.156862 0.02338,0.01169 0.05994,-0.01849 0.07843,0 0.03697,0.03697 -0.03697,0.11989 0,0.156863 0.03697,0.03697 0.11989,-0.03697 0.156863,0 0.03697,0.03697 -0.03697,0.11989 0,0.156863 0.03697,0.03697 0.11989,-0.03697 0.156862,0 0.01849,0.01849 -0.01849,0.05994 0,0.07843 0.03697,0.03697 0.11989,-0.03697 0.156863,0 0.01849,0.01849 -0.01849,0.05995 0,0.07843 0.01849,0.01849 0.05994,-0.01849 0.07843,0 0.01849,0.01849 -0.01849,0.05994 0,0.07843 0.01849,0.01849 0.05994,-0.01849 0.07843,0 0.01849,0.01849 -0.01849,0.05994 0,0.07843 0.01849,0.01849 0.05505,-0.01169 0.07843,0 0.03307,0.01653 0.04536,0.0619 0.07843,0.07843 0.02338,0.01169 0.05994,-0.01849 0.07843,0 0.01849,0.01849 -0.01849,0.05994 0,0.07843 0.03697,0.03697 0.110095,-0.02338 0.156863,0 0.03307,0.01653 0.04536,0.0619 0.07843,0.07843 0.02338,0.01169 0.05505,-0.01169 0.07843,0 0.03307,0.01653 0.04536,0.0619 0.07843,0.07843 0.02338,0.01169 0.05505,-0.01169 0.07843,0 0.03307,0.01653 0.04536,0.0619 0.07843,0.07843 0.02338,0.01169 0.05505,-0.01169 0.07843,0 0.03307,0.01654 0.04536,0.0619 0.07843,0.07843 0.02338,0.01169 0.05994,-0.01849 0.07843,0 0.01849,0.01849 -0.01849,0.05995 0,0.07843 0.01887,0.01887 0.294852,-0.01887 0.313725,0 0.01849,0.01849 0.02614,0.07843 0,0.07843 -0.02614,0 -0.02614,-0.07843 0,-0.07843 0.111376,0 0.07843,0.17953 0.07843,0.235294"
       id="path9562"
       inkscape:connector-curvature="0"
       transform="translate(0,988.3622)" />
  </g>
</svg>
