<?xml version="1.0" encoding="UTF-8" standalone="no"?>
<!-- Created with Inkscape (http://www.inkscape.org/) -->

<svg
   xmlns:dc="http://purl.org/dc/elements/1.1/"
   xmlns:cc="http://creativecommons.org/ns#"
   xmlns:rdf="http://www.w3.org/1999/02/22-rdf-syntax-ns#"
   xmlns:svg="http://www.w3.org/2000/svg"
   xmlns="http://www.w3.org/2000/svg"
   xmlns:sodipodi="http://sodipodi.sourceforge.net/DTD/sodipodi-0.dtd"
   xmlns:inkscape="http://www.inkscape.org/namespaces/inkscape"
   width="64"
   height="64"
   id="svg2"
   version="1.1"
   inkscape:version="0.48.5 r10040"
   sodipodi:docname="void_torn_top_left.svg">
  <defs
     id="defs4" />
  <sodipodi:namedview
     id="base"
     pagecolor="#ffffff"
     bordercolor="#666666"
     borderopacity="1.0"
     inkscape:pageopacity="0.0"
     inkscape:pageshadow="2"
     inkscape:zoom="32"
     inkscape:cx="47.707474"
     inkscape:cy="6.4301709"
     inkscape:document-units="px"
     inkscape:current-layer="layer1"
     showgrid="true"
     inkscape:window-width="1920"
     inkscape:window-height="1014"
     inkscape:window-x="0"
     inkscape:window-y="27"
     inkscape:window-maximized="1"
     inkscape:snap-grids="false">
    <inkscape:grid
       type="xygrid"
       id="grid3001"
       empspacing="8"
       visible="true"
       enabled="true"
       snapvisiblegridlinesonly="true" />
  </sodipodi:namedview>
  <metadata
     id="metadata7">
    <rdf:RDF>
      <cc:Work
         rdf:about="">
        <dc:format>image/svg+xml</dc:format>
        <dc:type
           rdf:resource="http://purl.org/dc/dcmitype/StillImage" />
        <dc:title></dc:title>
      </cc:Work>
    </rdf:RDF>
  </metadata>
  <g
     inkscape:label="Layer 1"
     inkscape:groupmode="layer"
     id="layer1"
     transform="translate(0,-988.3622)">
    <path
       style="fill:#646464;fill-opacity:1;stroke:none"
       d="m -1.908529,986.62552 c 0.1599019,0 -0.084378,0 -0.1320487,0 l -0.066981,0 -0.066982,0 0,0.0476 -2.4210937,68.00768 52.6788564,0.036 -0.233992,-1.5687 0.464596,-1.0261 -0.02193,-0.447 -0.179404,-1.2495 0.318922,-0.5642 -0.09805,-0.8866 5.465082,-0.6122 -3.865445,-0.097 -2.291654,-0.371 0.602974,-2.3165 -0.193027,-2.1862 0.29852,-1.3188 0.252789,-0.4242 -0.20024,-0.9113 -0.258708,-3.0007 0.321929,-0.8572 0.846763,-0.033 0.441343,-0.3744 0.463907,0.164 0.970247,-0.208 1.468431,0.238 1.129623,0.3524 1.650723,-0.4351 3.844683,-0.7331 0.462977,0.4445 0.474082,-0.2409 2.371995,0.5223 0.819811,-0.3038 2.058018,-0.019 0.466538,-49.44989"
       id="path3186"
       inkscape:connector-curvature="0"
       sodipodi:nodetypes="ccccccccccccccccccccccccccccccccccccc" />
    <path
       style="fill:#ffffff;fill-opacity:1;stroke:none"
       d="m -2.1405751,986.25405 c 0.1599019,0 -0.084378,0 -0.1320487,0 l -0.066981,0 -0.066982,0 0,0.048 -2.4210937,68.00765 52.6788565,0.036 -0.233992,-1.5687 0.0091,-0.9457 0.433586,-0.5274 -0.179404,-1.2495 -0.145005,-0.7522 0.365879,-0.6986 3.402582,-0.1434 -2.521695,-0.1283 -1.541654,-0.2772 0.571724,-2.8478 -0.193027,-2.5612 -0.866117,-0.5397 0.940705,0.048 0.276481,-1.7878 -0.536449,-1.1039 0.277741,-1.8968 0.04068,-1.3885 1.128013,0.4979 0.90525,-0.2104 2.344928,-0.4075 1.223373,0.7899 0.938252,0 0.712471,-0.433 2.484501,-0.2163 1.360182,-0.5168 1.345304,0.1077 0.956807,0.5848 1.006943,0.033 2.877829,-0.3231 0.466538,-49.44985"
       id="path3186-1"
       inkscape:connector-curvature="0"
       sodipodi:nodetypes="ccccccccccccccccccccccccccccccccccccc" />
  </g>
</svg>
