<?xml version="1.0" encoding="UTF-8"?>
<svg version="1.1" xmlns="http://www.w3.org/2000/svg" width="65" height="32">
<path d="M0 0 C0.99 0.33 1.98 0.66 3 1 C3.02902168 5.41665288 3.04680608 9.83328123 3.0625 14.25 C3.07087891 15.50425781 3.07925781 16.75851563 3.08789062 18.05078125 C3.09111328 19.25605469 3.09433594 20.46132813 3.09765625 21.703125 C3.10289307 22.81333008 3.10812988 23.92353516 3.11352539 25.06738281 C3.01658493 27.57157379 2.73230276 29.6181156 2 32 C1.34 32 0.68 32 0 32 C0 21.44 0 10.88 0 0 Z " fill="#808080" transform="translate(15,0)"/>
<path d="M0 0 C0.99 0.33 1.98 0.66 3 1 C3.05383848 3.45862401 3.09359038 5.9160755 3.125 8.375 C3.14175781 9.07367188 3.15851562 9.77234375 3.17578125 10.4921875 C3.19344267 12.32897486 3.10303261 14.16601963 3 16 C2.34 16.66 1.68 17.32 1 18 C0.67 12.06 0.34 6.12 0 0 Z " fill="#AAAAAA" transform="translate(15,0)"/>
</svg>
