<?xml version="1.0" encoding="UTF-8" standalone="no"?>
<!-- Created with Inkscape (http://www.inkscape.org/) -->

<svg
   xmlns:dc="http://purl.org/dc/elements/1.1/"
   xmlns:cc="http://creativecommons.org/ns#"
   xmlns:rdf="http://www.w3.org/1999/02/22-rdf-syntax-ns#"
   xmlns:svg="http://www.w3.org/2000/svg"
   xmlns="http://www.w3.org/2000/svg"
   xmlns:sodipodi="http://sodipodi.sourceforge.net/DTD/sodipodi-0.dtd"
   xmlns:inkscape="http://www.inkscape.org/namespaces/inkscape"
   width="16"
   height="16"
   id="svg2"
   version="1.1"
   inkscape:version="0.48.5 r10040"
   sodipodi:docname="void_highlighter_corner_dash_3.svg">
  <defs
     id="defs4" />
  <sodipodi:namedview
     id="base"
     pagecolor="#ffffff"
     bordercolor="#666666"
     borderopacity="1.0"
     inkscape:pageopacity="0.0"
     inkscape:pageshadow="2"
     inkscape:zoom="25.5"
     inkscape:cx="7.5098039"
     inkscape:cy="8.0784314"
     inkscape:document-units="px"
     inkscape:current-layer="layer1"
     showgrid="true"
     inkscape:window-width="1920"
     inkscape:window-height="1014"
     inkscape:window-x="0"
     inkscape:window-y="27"
     inkscape:window-maximized="1"
     inkscape:snap-grids="false">
    <inkscape:grid
       type="xygrid"
       id="grid3001"
       empspacing="8"
       visible="true"
       enabled="true"
       snapvisiblegridlinesonly="true" />
  </sodipodi:namedview>
  <metadata
     id="metadata7">
    <rdf:RDF>
      <cc:Work
         rdf:about="">
        <dc:format>image/svg+xml</dc:format>
        <dc:type
           rdf:resource="http://purl.org/dc/dcmitype/StillImage" />
        <dc:title></dc:title>
      </cc:Work>
    </rdf:RDF>
  </metadata>
  <g
     inkscape:label="Layer 1"
     inkscape:groupmode="layer"
     id="layer1"
     transform="translate(0,-1036.3622)">
    <path
       style="fill:#f0e600;fill-opacity:1;stroke:none;opacity:0.5"
       d="m 3.1793956,1041.2249 c 0.7107368,0.1344 0.5827304,0.1177 1.2505007,0.1177 0.059539,0 0.1365249,-0.01 0.1786625,0 0.041909,0.01 -0.041909,0.03 0,0.039 0.026421,0.01 0.5359281,0 0.5359281,0 0,0.013 -0.1786168,-0.013 -0.1786168,0 0,0.018 0.1033164,0.031 0.1786168,0.039 0.046966,0.01 0.6211551,0 0.7145725,0 0.059539,0 0.1190779,0 0.1786624,0 0.059539,0 0.1365249,-0.01 0.178617,0 0.041909,0.01 -0.04191,0.03 0,0.039 0.00593,0 0.4926064,0 0.5359328,0 0.8932119,0 1.786424,0 2.6796408,0 0.47638,0 -0.059539,-0.013 0.1786624,0.039 0.041909,0.01 0.1190779,0 0.1786625,0 0.084229,0 0.8851167,0 0.8932167,0 0.04191,-0.01 -0.04191,-0.03 0,-0.039 0.04191,-0.01 0.119078,0 0.178662,0 0.35728,0 0.714573,0 1.071857,0 0.05954,0 0.136525,0.01 0.178662,0 0.04191,-0.01 -0.04191,-0.03 0,-0.039 0.08423,-0.019 0.27305,0.018 0.35728,0 0.04191,-0.01 -0.05954,-0.039 0,-0.039 0.05954,0 0,0.026 0,0.039 0,0.026 0,0.052 0,0.078 0,0.065 0,0.1307 0,0.196 0,0.3268 0,0.6536 0,0.9804 0,0.018 -0.02733,0.1057 0,0.1177 0.03781,0.016 0.140989,0.023 0.178662,0.039 0.02642,0.012 0,0.026 0,0.039 0,0.013 0,0.026 0,0.039 0,0.079 0,0.1569 0,0.2353 0,0.013 0,0.026 0,0.039 0,0.013 -0.04191,0.03 0,0.039 0.04191,0.01 0.136525,-0.01 0.178663,0 0.04191,0.01 0,0.026 0,0.039 0,0.013 0,0.026 0,0.039 0,0.078 0,0.1568 0,0.2353 0,0.013 -0.04191,0.03 0,0.039 0.04191,0.01 0.136524,-0.01 0.178662,0 0.04191,0.01 0,0.026 0,0.039 0,0.078 0,0.1569 0,0.2353 0,0.6013 0,1.2026 0,1.8039 0,0.065 0,0.1307 0,0.1961 0,0.013 -0.04191,0.03 0,0.039 0.04191,0.01 0.136525,-0.01 0.178617,0 0.04191,0.01 0,0.026 0,0.039 0,0.013 0,0.026 0,0.039 0,0.1308 0,0.2615 0,0.3922 0,0.014 -0.0073,0.1553 0,0.1569 0.04191,0.01 0.136525,-0.01 0.178662,0 0.01777,0 0.01777,0.1137 0,0.1176 -0.04282,0.01 -0.671583,-0.01 -0.714572,0 -0.06268,0.014 0.06168,0.169 0,0.1961 -0.03781,0.017 -0.140989,0.023 -0.178663,0.039 -0.05325,0.023 0.08423,0.06 0,0.078 -0.04191,0.01 -0.136524,-0.01 -0.178616,0 -0.04888,0.011 0.04847,0.1356 0,0.1569 -0.03781,0.017 -0.14099,0.023 -0.178663,0.039 -0.05325,0.023 0.08423,0.06 0,0.078 -0.08933,0.02 -0.44661,-0.02 -0.535928,0 -0.04191,0.01 0.04191,0.03 0,0.039 -0.04191,0.01 -0.136525,-0.01 -0.178662,0 -0.08423,0.018 0.08423,0.06 0,0.078 -0.04888,0.011 -0.617657,-0.011 -0.714568,0 -0.7434722,0.082 0.190962,0 -0.178663,0.078 -0.04191,0.01 -0.119078,0 -0.178662,0 -0.297741,0 -0.5954766,0 -0.8932125,0 -0.059539,0 -0.1365249,0.01 -0.1786623,0 -0.041909,-0.01 0.041909,-0.03 0,-0.039 -0.055212,-0.012 -0.8384473,0.012 -0.8932121,0 -0.04191,-0.01 0.041909,-0.03 0,-0.039 -0.089331,-0.02 -0.4466107,0.02 -0.5359283,0 -0.041909,-0.01 0.041909,-0.03 0,-0.039 -0.041909,-0.01 -0.1190779,0 -0.1786624,0 -0.043277,0 -0.5301839,0 -0.5359282,0 -0.04191,0.01 0.041909,0.03 0,0.039 -0.00728,0 -0.6489657,0 -0.7145724,0 -0.1190779,0 -0.2382014,0 -0.3572793,0 -0.059539,0 -0.2382015,0 -0.1786625,0 0.1190778,0 0.4763801,0 0.3572793,0 -0.1786168,0 -0.3572793,0 -0.5359281,0 -0.059539,0 -0.125365,0.01 -0.1786625,0 -0.0753,-0.01 -0.1033165,-0.031 -0.1786625,-0.039 -0.046191,-0.01 -0.9452346,0 -1.0718564,0 -0.059539,0 -0.136525,0.01 -0.1786624,0 -0.041909,-0.01 0.04191,-0.03 0,-0.039 -0.084229,-0.018 -0.2730502,0.018 -0.3572795,0 -0.041909,-0.01 0.04191,-0.03 0,-0.039 -0.041909,-0.01 -0.1365249,0.01 -0.1786623,0 -0.04191,-0.01 0,-0.026 0,-0.039 0,-0.013 -0.04191,-0.03 0,-0.039 0.084229,-0.019 0.2730957,0.018 0.3572793,0 0.089331,-0.02 -0.089331,-0.098 0,-0.1177 0.084229,-0.019 0.2730502,0.018 0.3572793,0 0.04191,-0.01 -0.041909,-0.03 0,-0.039 0.04191,-0.01 0.136525,0.01 0.1786626,0 0.055302,-0.012 -0.055302,-0.1839 0,-0.1961 0.041909,-0.01 0.1365249,0.01 0.1786625,0 0.055302,-0.012 -0.055302,-0.1839 0,-0.196 0.041909,-0.01 0.1365249,0.01 0.1786623,0 0.04191,-0.01 0,-0.026 0,-0.039 0,-0.065 0,-0.1307 0,-0.196 0,-0.013 0,-0.026 0,-0.039 0,-0.013 -0.041909,-0.03 0,-0.039 0.04191,-0.01 0.136525,0.01 0.1786625,0 0.04282,-0.01 -0.04282,-0.1474 0,-0.1568 0.04191,-0.01 0.136525,0.01 0.178617,0 0.041909,-0.01 0,-0.026 0,-0.039 0,-0.013 0,-0.026 0,-0.039 0,-0.1307 0,-0.2614 0,-0.3921 0,-0.019 0.0082,-0.1943 0,-0.1961 -0.041909,-0.01 -0.1365249,0.01 -0.178617,0 -0.084229,-0.018 0.084229,-0.06 0,-0.078 -0.084229,-0.019 -0.2730957,0.018 -0.3572793,0 -0.084229,-0.019 0.084229,-0.06 0,-0.079 -0.041909,-0.01 -0.136525,0.01 -0.1786625,0 -0.084229,-0.019 0.053253,-0.055 0,-0.078 -0.03781,-0.016 -0.1409892,-0.023 -0.1786625,-0.039 -0.023687,-0.01 0,-0.1364 0,-0.1569 0,-0.019 0.0082,-0.1943 0,-0.1961 -0.04191,-0.01 -0.136525,0.01 -0.1786624,0 -0.041909,-0.01 0,-0.026 0,-0.039 0,-0.018 0.0082,-0.1943 0,-0.1961 -0.041909,-0.01 -0.1365249,0.01 -0.178617,0 -0.041909,-0.01 0,-0.026 0,-0.039 0,-0.013 0,-0.026 0,-0.039 0,-0.1438 0,-0.2876 0,-0.4314 0,-0.01 0.00593,-0.1163 0,-0.1176 -0.041909,-0.01 -0.1365249,0.01 -0.1786625,0 -0.04282,-0.01 0.04282,-0.1474 0,-0.1569 -0.041909,-0.01 -0.1365249,0.01 -0.1786623,0 -0.04191,-0.01 0,-0.026 0,-0.039 0,-0.013 0,-0.026 0,-0.039 0,-0.1176 0,-0.2353 0,-0.3529 0,-0.019 0.0082,-0.1943 0,-0.1961 -0.04191,-0.01 -0.136525,0.01 -0.1786625,0 -0.089331,-0.02 0.089331,-0.098 0,-0.1177 -0.04191,-0.01 -0.136525,0.01 -0.178617,0 -0.0082,0 0,-0.1776 0,-0.196 0,-0.013 0.041909,-0.03 0,-0.039 -0.041909,-0.01 -0.1365249,0.01 -0.1786623,0 -0.04191,-0.01 0.041909,-0.03 0,-0.039 -0.04191,-0.01 -0.136525,0.01 -0.1786626,0 -0.089331,-0.02 0.089331,-0.098 0,-0.1176 -0.041909,-0.01 -0.1365249,0.01 -0.1786625,0 -0.089331,-0.02 0.089331,-0.098 0,-0.1177 -0.041909,-0.01 -0.1365249,0.01 -0.1786625,0 -0.084229,-0.018 0.053252,-0.055 0,-0.078 -0.0753,-0.033 -0.2819786,-0.045 -0.3572793,-0.078 -0.026421,-0.012 0.026421,-0.028 0,-0.039 -0.03781,-0.017 -0.1409892,-0.023 -0.1786625,-0.039 -0.053252,-0.023 0.084229,-0.06 0,-0.078 -0.041909,-0.01 -0.136525,0.01 -0.1786624,0 -0.089331,-0.02 0.089331,-0.098 0,-0.1176 -0.041909,-0.01 -0.1365249,0.01 -0.1786625,0 -0.00593,0 0,-0.1082 0,-0.1177 0,-0.018 -0.0082,-0.1943 0,-0.1961 0.04191,-0.01 0.136525,0.01 0.1786625,0 0.041909,-0.01 -0.041909,-0.03 0,-0.039 0.041909,-0.01 0.136525,0.01 0.1786624,0 0.084229,-0.018 -0.084229,-0.06 0,-0.078 0.041909,-0.01 0.1365249,0.01 0.1786625,0 0.041909,-0.01 -0.041909,-0.03 0,-0.039 0.055302,-0.012 0.8378959,0.012 0.8932121,0 0.089331,-0.02 -0.089331,-0.098 0,-0.1177 0.04191,-0.01 0.136525,0.01 0.1786625,0 0.04191,-0.01 0,-0.026 0,-0.039 0,-0.013 0,-0.026 0,-0.039 0,-0.078 0,-0.1569 0,-0.2353 z"
       id="path3817"
       inkscape:connector-curvature="0" />
    <path
       style="fill:#f0e600;fill-opacity:1;stroke:none;opacity:0.5"
       d="m 5.0980391,1038.7947 c 0.169935,0 0.339869,0 0.509804,0 0.0095,0 0.116386,0 0.117647,0 0.0092,0.051 -0.0092,0.165 0,0.2158 0.0013,0 0.108136,0 0.117647,0 0.222222,0 0.444445,0 0.666667,0 0.104575,0 0.20915,0 0.313725,0 0.01307,0 0.02997,-0.051 0.03922,0 0.0092,0.051 -0.0092,0.165 0,0.2156 0.0092,0.051 0.02614,0 0.03922,0 0.0915,0 0.183006,0 0.27451,0 0.379084,0 0.758169,0 1.137254,0 0.01849,0 0.194302,-0.018 0.196079,0 0.0092,0.051 -0.0092,0.165 0,0.2158 0.0092,0.051 0.02614,0 0.03922,0 0.0915,0 0.183006,0 0.274509,0 0.54902,0 1.09804,0 1.6470589,0 0.07843,0 0.156863,0 0.235294,0 0.02614,0 0.05229,0 0.07843,0 0.01307,0 0.05229,0 0.03921,0 -0.02614,0 -0.104575,0 -0.07843,0 0.03922,0 0.07843,0 0.117647,0 0.01307,0 0.02614,0 0.03922,0 0.01307,0 0.02997,0.051 0.03922,0 0.0092,-0.051 -0.0092,-0.165 0,-0.2158 0.0092,-0.051 0.02614,0 0.03922,0 0.01307,0 0.02614,0 0.03922,0 0.01307,0 0.05229,0 0.03921,0 -0.02614,0 -0.07843,-0.1433 -0.07843,0 0,0.1614 0.05776,0.1015 0.07843,0.2158 0.0092,0.051 0,0.1432 0,0.2156 0,0.072 0.0092,0.165 0,0.2157 -0.0092,0.051 -0.02997,-0.051 -0.03921,0 -0.01849,0.1016 0.01849,0.3297 0,0.4314 -0.0092,0.051 -0.02997,-0.051 -0.03922,0 -0.01214,0.067 0.01214,1.0116 0,1.0784 -0.0092,0.051 -0.02997,-0.051 -0.03922,0 -0.0094,0.053 0.0094,0.8109 0,0.8627 -0.0092,0.051 -0.02997,-0.051 -0.03922,0 -0.0092,0.051 0,0.1433 0,0.2158 0,0.072 0,0.1433 0,0.2156 0,0.719 0,1.4379 0,2.1569 0,0.5752 -0.01307,-0.072 0.03922,0.2156 0.0094,0.053 -0.0094,0.8109 0,0.8628 0.0092,0.051 0.02997,-0.051 0.03922,0 0.01849,0.1015 -0.01849,0.3296 0,0.4313 0.0092,0.051 0.02997,-0.051 0.03922,0 0.01961,0.1088 -0.01961,0.5393 0,0.6472 0.0092,0.051 0.02997,-0.051 0.03921,0 0.0092,0.051 0,0.1432 0,0.2156 0,0.072 0,0.1432 0,0.2158 0,0.1432 0,0.2876 0,0.4312 0,0.072 0,0.2875 0,0.2157 0,-0.1432 0,-0.5751 0,-0.4313 0,0.2156 0,0.4313 0,0.6469 0,0.073 -0.0092,0.165 0,0.2158 0.0092,0.051 0.02997,-0.051 0.03922,0 0.0092,0.051 0,0.1433 0,0.2156 0,0.3596 0,0.719 0,1.0786 0,0.072 0,0.1432 0,0.2156 0,0.072 0.0092,0.165 0,0.2157 -0.0018,0.018 -0.177588,0 -0.196078,0 -0.143791,0 -0.287582,0 -0.431373,0 -0.01307,0 -0.02614,0 -0.03922,0 -0.01307,0 -0.02997,0.051 -0.03922,0 -0.0092,-0.051 0.0092,-0.165 0,-0.2157 -0.0018,-0.018 -0.177589,0 -0.196079,0 -0.104575,0 0.01307,0.072 -0.03921,-0.2156 -0.0092,-0.051 -0.02614,0 -0.03922,0 -0.0278,0 -0.2251549,0.027 -0.2352939,0 -0.01654,-0.045 -0.02268,-0.1705 -0.03922,-0.2158 -0.01169,-0.033 -0.02614,0 -0.03922,0 -0.01307,0 -0.02614,0 -0.03922,0 -0.07843,0 -0.156863,0 -0.235294,0 -0.01307,0 -0.02614,0 -0.03922,0 -0.01307,0 -0.02752,0.033 -0.03922,0 -0.01653,-0.045 -0.02268,-0.1705 -0.03921,-0.2156 -0.01194,-0.033 -0.09999,0 -0.117647,0 -0.07843,0 -0.156863,0 -0.235295,0 -0.287581,0 -0.575163,0 -0.862745,0 -0.0915,0 -0.183006,0 -0.274509,0 -0.01307,0 -0.02997,0.051 -0.03922,0 -0.0092,-0.051 0.0092,-0.165 0,-0.2158 -0.0092,-0.051 -0.02614,0 -0.03922,0 -0.01307,0 -0.02614,0 -0.03922,0 -0.143791,0 -0.287582,0 -0.431373,0 -0.640523,0 -1.281046,0 -1.921569,0 -0.0915,0 -0.183006,0 -0.274509,0 -0.01307,0 -0.02997,-0.051 -0.03922,0 -0.0092,0.051 0.0058,0.1505 0,0.2158 -0.0083,0.091 -0.03095,0.1251 -0.03922,0.2156 -0.0058,0.063 0.01307,0.2158 0,0.2158 -0.01307,0 0,-0.1433 0,-0.2158 0,-0.2156 0,-0.4314 0,-0.647 0,-1.0066 0,-2.0131 0,-3.0196 0,-2.3725 0,-4.745 0,-7.1177 z"
       id="path3819"
       inkscape:connector-curvature="0" />
  </g>
</svg>
