<?xml version="1.0" encoding="UTF-8"?>
<svg version="1.1" xmlns="http://www.w3.org/2000/svg" width="65" height="64">
<path d="M0 0 C4.29 0 8.58 0 13 0 C13 0.66 13 1.32 13 2 C13.99 2 14.98 2 16 2 C16.84681133 7.08086796 17.09038099 11.84828377 17 17 C16.34 17 15.68 17 15 17 C14.96261719 16.15695313 14.92523438 15.31390625 14.88671875 14.4453125 C14.82097656 13.34960938 14.75523438 12.25390625 14.6875 11.125 C14.60048828 9.48917969 14.60048828 9.48917969 14.51171875 7.8203125 C14.34285156 6.88960937 14.17398437 5.95890625 14 5 C10.71508627 2.81005752 9.16904361 2.64722661 5.3125 2.375 C4.31863281 2.30023438 3.32476562 2.22546875 2.30078125 2.1484375 C1.54152344 2.09945312 0.78226562 2.05046875 0 2 C0 1.34 0 0.68 0 0 Z " fill="#989898" transform="translate(0,47)"/>
</svg>
