<?xml version="1.0" encoding="UTF-8"?>
<svg version="1.1" xmlns="http://www.w3.org/2000/svg" width="65" height="32">
<path d="M0 0 C0.99 0.33 1.98 0.66 3 1 C3.02902168 5.41665288 3.04680608 9.83328123 3.0625 14.25 C3.07087891 15.50425781 3.07925781 16.75851563 3.08789062 18.05078125 C3.09111328 19.25605469 3.09433594 20.46132813 3.09765625 21.703125 C3.10289307 22.81333008 3.10812988 23.92353516 3.11352539 25.06738281 C3.01658493 27.57157379 2.73230276 29.6181156 2 32 C1.34 32 0.68 32 0 32 C0.01740234 30.69289063 0.01740234 30.69289063 0.03515625 29.359375 C0.08900001 22.25199852 -0.12252187 15.29939442 -0.87890625 8.23046875 C-0.91886719 7.49441406 -0.95882813 6.75835937 -1 6 C-0.67 5.67 -0.34 5.34 0 5 C0.04063832 3.33382885 0.042721 1.66611905 0 0 Z " fill="#939393" transform="translate(15,0)"/>
</svg>
