<?xml version="1.0" encoding="UTF-8"?>
<svg version="1.1" xmlns="http://www.w3.org/2000/svg" width="32" height="64">
<path d="M0 0 C0.66 0 1.32 0 2 0 C2.33 0.66 2.66 1.32 3 2 C9.6 2 16.2 2 23 2 C23 2.66 23 3.32 23 4 C20.18772378 4.93742541 18.41253156 5.13470844 15.5 5.125 C14.7265625 5.12757812 13.953125 5.13015625 13.15625 5.1328125 C11 5 11 5 8 4 C6.66474283 3.92026524 5.32587917 3.89228662 3.98828125 3.90234375 C3.23095703 3.90556641 2.47363281 3.90878906 1.69335938 3.91210938 C0.51483398 3.92467773 0.51483398 3.92467773 -0.6875 3.9375 C-1.48478516 3.94201172 -2.28207031 3.94652344 -3.10351562 3.95117188 C-5.06904257 3.9629415 -7.03453085 3.98087652 -9 4 C-9 3.34 -9 2.68 -9 2 C-6.03 2 -3.06 2 0 2 C0 1.34 0 0.68 0 0 Z " fill="#969696" transform="translate(9,45)"/>
</svg>
