<?xml version="1.0" encoding="UTF-8" standalone="no"?>
<!-- Created with Inkscape (http://www.inkscape.org/) -->

<svg
   xmlns:dc="http://purl.org/dc/elements/1.1/"
   xmlns:cc="http://creativecommons.org/ns#"
   xmlns:rdf="http://www.w3.org/1999/02/22-rdf-syntax-ns#"
   xmlns:svg="http://www.w3.org/2000/svg"
   xmlns="http://www.w3.org/2000/svg"
   xmlns:sodipodi="http://sodipodi.sourceforge.net/DTD/sodipodi-0.dtd"
   xmlns:inkscape="http://www.inkscape.org/namespaces/inkscape"
   width="32"
   height="64"
   id="svg2"
   version="1.1"
   inkscape:version="0.48.5 r10040"
   sodipodi:docname="void_torn_top_4.svg">
  <defs
     id="defs4" />
  <sodipodi:namedview
     id="base"
     pagecolor="#ffffff"
     bordercolor="#666666"
     borderopacity="1.0"
     inkscape:pageopacity="0.0"
     inkscape:pageshadow="2"
     inkscape:zoom="40.8"
     inkscape:cx="13.441575"
     inkscape:cy="18.128589"
     inkscape:document-units="px"
     inkscape:current-layer="layer1"
     showgrid="true"
     inkscape:window-width="1920"
     inkscape:window-height="1014"
     inkscape:window-x="0"
     inkscape:window-y="27"
     inkscape:window-maximized="1"
     inkscape:snap-grids="false">
    <inkscape:grid
       type="xygrid"
       id="grid3001"
       empspacing="8"
       visible="true"
       enabled="true"
       snapvisiblegridlinesonly="true" />
  </sodipodi:namedview>
  <metadata
     id="metadata7">
    <rdf:RDF>
      <cc:Work
         rdf:about="">
        <dc:format>image/svg+xml</dc:format>
        <dc:type
           rdf:resource="http://purl.org/dc/dcmitype/StillImage" />
        <dc:title></dc:title>
      </cc:Work>
    </rdf:RDF>
  </metadata>
  <g
     inkscape:label="Layer 1"
     inkscape:groupmode="layer"
     id="layer1"
     transform="translate(0,-988.3622)">
    <path
       style="fill:#646464;fill-opacity:1;stroke:none"
       d="m -0.38128307,1036.2097 0.65857987,0.3466 1.1970735,1.0522 0.7625651,0 0.9705294,0.2773 1.1438482,-0.2427 2.31886,-0.1039 1.4506417,-0.5893 1.4298109,0.3466 0.8318744,-0.104 0.778637,-0.7402 0.519913,0.3119 1.21314,0.5199 1.005173,-0.104 0.944563,-0.4852 1.065846,-0.104 0.589241,-0.1386 1.629114,-0.2773 1.61799,1.1517 2.756179,0.4939 0.852795,-0.748 -0.01594,0.7478 2.873149,-0.229 1.964507,0.1393 2.360282,-1.0964 0.935863,-0.3813 c 0.661421,0.013 0.57318,0.1203 1.213154,0.1733 0.400916,-0.056 0.09142,-1.2046 0.214674,-1.6712 0.407933,-16.1385 0.815867,-32.277 1.2238,-48.41553 -12.056633,-0.0115 -24.113266,-0.0231 -36.1698984,-0.0347 -0.2281923,16.66383 -0.4563845,33.32763 -0.6845768,49.99143"
       id="path3186"
       inkscape:connector-curvature="0"
       sodipodi:nodetypes="ccccccccccccccccccccccccccccccc" />
    <path
       style="fill:#ffffff;fill-opacity:1;stroke:none"
       d="m -0.04737072,1035.8991 0.554579,0.3473 1.16976542,0.7239 0.8962865,0.029 0.6028709,-0.6829 1.3390816,-0.21 2.2954318,0.8419 1.2218297,-0.392 1.455798,-0.035 0.5521108,0.1901 c 2.02069,0.1866 0.373676,-0.8545 0.683063,-0.2401 l 0.270606,-0.4468 0.700142,0.3325 1.100507,0.037 0.784488,0.312 1.156531,-0.384 1.143837,-0.242 0.554572,-0.315 1.733099,-0.035 0.491217,0.5777 2.530327,0.07 0.454072,0.3357 0.284278,-0.3777 2.828033,0.6045 2.776746,-0.3175 2.738275,-0.049 1.449845,-0.9732 c 0.550336,0.02 0.531842,0.093 1.109174,0.1746 0.526096,0.074 0.1363,-1.1071 0.280815,-1.5457 0.409007,-16.1804 0.818013,-32.3609 1.22702,-48.54129 -12.056633,-0.011 -24.113266,-0.022 -36.1698998,-0.033 -0.228192,16.66379 -0.456384,33.32759 -0.684576,49.99139"
       id="path3186-0"
       inkscape:connector-curvature="0"
       sodipodi:nodetypes="cccccccccccccccccccccccccccccccc" />
  </g>
</svg>
