<?xml version="1.0" encoding="UTF-8"?>
<svg version="1.1" xmlns="http://www.w3.org/2000/svg" width="65" height="65">
<path d="M0 0 C0.66 0 1.32 0 2 0 C2.02684679 2.64590014 2.04676357 5.29153096 2.0625 7.9375 C2.07087891 8.69224609 2.07925781 9.44699219 2.08789062 10.22460938 C2.09652441 12.14994313 2.05224333 14.07535581 2 16 C0.06826897 17.93173103 -3.39155594 17.63390259 -6 18 C-6.66 18.33 -7.32 18.66 -8 19 C-10.3494053 18.39239518 -12.68529088 17.72870472 -15 17 C-15 16.34 -15 15.68 -15 15 C-10.05 15 -5.1 15 0 15 C-0.33 13.02 -0.66 11.04 -1 9 C-1.21875 2.4375 -1.21875 2.4375 0 0 Z " fill="#848484" transform="translate(15,0)"/>
<path d="M0 0 C3.73487777 0.4979837 5.81237635 0.87491756 9 3 C5.79937313 4.60031344 3.27728194 3.03173691 0 2 C0 1.34 0 0.68 0 0 Z " fill="#9C9C9C" transform="translate(0,15)"/>
</svg>
