<?xml version="1.0" encoding="UTF-8"?>
<svg version="1.1" xmlns="http://www.w3.org/2000/svg" width="32" height="65">
<path d="M0 0 C0.63164063 0.0721875 1.26328125 0.144375 1.9140625 0.21875 C9.62568579 1.01880314 17.25180183 1.10180114 25 1 C24.67 1.99 24.34 2.98 24 4 C23.40719238 3.9285376 22.81438477 3.8570752 22.20361328 3.78344727 C15.73565878 3.06261722 9.37869417 2.87812639 2.875 2.9375 C1.44027344 2.94426758 1.44027344 2.94426758 -0.0234375 2.95117188 C-2.34902758 2.96279983 -4.6744776 2.97913898 -7 3 C-7 2.34 -7 1.68 -7 1 C-4.69 1.33 -2.38 1.66 0 2 C0 1.34 0 0.68 0 0 Z " fill="#AAAAAA" transform="translate(7,14)"/>
<path d="M0 0 C4.62 0 9.24 0 14 0 C13.67 0.99 13.34 1.98 13 3 C11.58249437 2.88490339 10.16598831 2.75746342 8.75 2.625 C7.96109375 2.55539063 7.1721875 2.48578125 6.359375 2.4140625 C4 2 4 2 0 0 Z " fill="#979797" transform="translate(18,15)"/>
</svg>
