<?xml version="1.0" encoding="UTF-8"?>
<svg version="1.1" xmlns="http://www.w3.org/2000/svg" width="65" height="32">
<path d="M0 0 C0.99 0.33 1.98 0.66 3 1 C2.98839844 2.14339844 2.97679687 3.28679688 2.96484375 4.46484375 C2.95546712 5.95572754 2.94636679 7.44661309 2.9375 8.9375 C2.92912109 9.69224609 2.92074219 10.44699219 2.91210938 11.22460938 C2.90347559 13.14994313 2.94775667 15.07535581 3 17 C3.33 17.33 3.66 17.66 4 18 C3.71917202 20.34023315 3.37531446 22.67305036 3 25 C2.814375 26.299375 2.62875 27.59875 2.4375 28.9375 C2.2209375 30.4534375 2.2209375 30.4534375 2 32 C1.34 32 0.68 32 0 32 C-1.125 26.25 -1.125 26.25 0 24 C-0.23651573 21.90514642 -0.47679581 19.8106335 -0.73828125 17.71875 C-1.29898507 11.89412519 -1.8641134 5.59234019 0 0 Z " fill="#8F8F8F" transform="translate(15,0)"/>
<path d="M0 0 C0.33 0 0.66 0 1 0 C1 3.63 1 7.26 1 11 C0.34 11 -0.32 11 -1 11 C-2.0257259 6.58937864 -2.03684712 4.07369424 0 0 Z " fill="#777777" transform="translate(16,21)"/>
</svg>
