<?xml version="1.0" encoding="UTF-8"?>
<svg version="1.1" xmlns="http://www.w3.org/2000/svg" width="32" height="64">
<path d="M0 0 C10.56 0 21.12 0 32 0 C32 0.66 32 1.32 32 2 C29.18772378 2.93742541 27.41253156 3.13470844 24.5 3.125 C23.7265625 3.12757812 22.953125 3.13015625 22.15625 3.1328125 C20 3 20 3 17 2 C14.25392224 2.08767087 11.54908492 2.22956735 8.8125 2.4375 C7.68811523 2.51581055 7.68811523 2.51581055 6.54101562 2.59570312 C4.69362918 2.72513784 2.84675629 2.86186518 1 3 C0.67 2.01 0.34 1.02 0 0 Z " fill="#919191" transform="translate(0,47)"/>
</svg>
