<?xml version="1.0" encoding="UTF-8"?>
<svg version="1.1" xmlns="http://www.w3.org/2000/svg" width="64" height="65">
<path d="M0 0 C0.66 0 1.32 0 2 0 C1.938125 1.010625 1.87625 2.02125 1.8125 3.0625 C2.02642827 7.55499372 3.04613532 10.01085961 5 14 C5.69867188 13.98839844 6.39734375 13.97679687 7.1171875 13.96484375 C8.02726562 13.95582031 8.93734375 13.94679688 9.875 13.9375 C10.77992187 13.92589844 11.68484375 13.91429687 12.6171875 13.90234375 C15 14 15 14 17 15 C17 15.66 17 16.32 17 17 C12.05 17 7.1 17 2 17 C-0.22232361 11.72198142 -1.46632923 7.82911532 -1 2 C-0.67 1.34 -0.34 0.68 0 0 Z " fill="#939393" transform="translate(47,0)"/>
</svg>
