<?xml version="1.0" encoding="UTF-8"?>
<svg version="1.1" xmlns="http://www.w3.org/2000/svg" width="32" height="65">
<path d="M0 0 C0.33 0.33 0.66 0.66 1 1 C4.19169252 0.84927072 7.35869498 0.59415754 10.54101562 0.31640625 C15.79818035 -0.10090983 15.79818035 -0.10090983 18 1 C18 1.66 18 2.32 18 3 C11.25 4.125 11.25 4.125 9 3 C7.2595583 2.91550372 5.51590278 2.89276976 3.7734375 2.90234375 C2.2265625 2.90717773 2.2265625 2.90717773 0.6484375 2.91210938 C-0.43179687 2.92048828 -1.51203125 2.92886719 -2.625 2.9375 C-3.71296875 2.94201172 -4.8009375 2.94652344 -5.921875 2.95117188 C-8.61463789 2.96298224 -11.30729188 2.97945222 -14 3 C-14 2.34 -14 1.68 -14 1 C-9.23258627 0.04651725 -4.84034716 -0.16407956 0 0 Z " fill="#A1A1A1" transform="translate(14,14)"/>
<path d="M0 0 C0 0.66 0 1.32 0 2 C-2.3260857 2.38063221 -4.66055264 2.71269945 -7 3 C-7.33 2.67 -7.66 2.34 -8 2 C-9.51469448 1.76807135 -11.03754562 1.58784762 -12.5625 1.4375 C-13.38878906 1.35371094 -14.21507812 1.26992188 -15.06640625 1.18359375 C-15.70449219 1.12300781 -16.34257812 1.06242187 -17 1 C-17 0.67 -17 0.34 -17 0 C-14.72979256 -0.19493195 -12.45879711 -0.38070418 -10.1875 -0.5625 C-8.92292969 -0.66691406 -7.65835937 -0.77132813 -6.35546875 -0.87890625 C-3 -1 -3 -1 0 0 Z " fill="#898989" transform="translate(32,15)"/>
</svg>
