<?xml version="1.0" encoding="UTF-8"?>
<svg version="1.1" xmlns="http://www.w3.org/2000/svg" width="64" height="32">
<path d="M0 0 C0.66 0 1.32 0 2 0 C1.67 2.31 1.34 4.62 1 7 C2.11375 7.0928125 2.11375 7.0928125 3.25 7.1875 C6.94570593 8.27941311 8.03449378 9.72415631 10 13 C10.5625 15.9375 10.5625 15.9375 10 19 C8.49596633 21.19099715 6.79576797 23.02465524 5 25 C5 25.66 5 26.32 5 27 C4.34 27 3.68 27 3 27 C2.67 28.65 2.34 30.3 2 32 C1.34 32 0.68 32 0 32 C0 29.36 0 26.72 0 24 C0.969375 23.54625 1.93875 23.0925 2.9375 22.625 C6.07079582 21.34213779 6.07079582 21.34213779 7 19 C7.43080407 14.91605531 7.43080407 14.91605531 5.8125 11.3125 C3.61894721 9.72406522 1.35469515 8.3364486 -1 7 C-0.67 4.69 -0.34 2.38 0 0 Z " fill="#9A9A9A" transform="translate(47,0)"/>
</svg>
