<?xml version="1.0" encoding="UTF-8" standalone="no"?>
<!-- Created with Inkscape (http://www.inkscape.org/) -->

<svg
   xmlns:dc="http://purl.org/dc/elements/1.1/"
   xmlns:cc="http://creativecommons.org/ns#"
   xmlns:rdf="http://www.w3.org/1999/02/22-rdf-syntax-ns#"
   xmlns:svg="http://www.w3.org/2000/svg"
   xmlns="http://www.w3.org/2000/svg"
   xmlns:sodipodi="http://sodipodi.sourceforge.net/DTD/sodipodi-0.dtd"
   xmlns:inkscape="http://www.inkscape.org/namespaces/inkscape"
   width="128"
   height="128"
   id="svg2"
   version="1.1"
   inkscape:version="0.48.4 r9939"
   inkscape:export-filename="/home/andy/code/public/rabbit-escape/doc/www/downarrow.png"
   inkscape:export-xdpi="90"
   inkscape:export-ydpi="90"
   sodipodi:docname="arrows.svg">
  <defs
     id="defs4" />
  <sodipodi:namedview
     id="base"
     pagecolor="#ffffff"
     bordercolor="#666666"
     borderopacity="1.0"
     inkscape:pageopacity="0.0"
     inkscape:pageshadow="2"
     inkscape:zoom="3.96875"
     inkscape:cx="64"
     inkscape:cy="64"
     inkscape:document-units="px"
     inkscape:current-layer="layer1"
     showgrid="false"
     showguides="false"
     inkscape:window-width="1024"
     inkscape:window-height="717"
     inkscape:window-x="0"
     inkscape:window-y="26"
     inkscape:window-maximized="1" />
  <metadata
     id="metadata7">
    <rdf:RDF>
      <cc:Work
         rdf:about="">
        <dc:format>image/svg+xml</dc:format>
        <dc:type
           rdf:resource="http://purl.org/dc/dcmitype/StillImage" />
        <dc:title></dc:title>
      </cc:Work>
    </rdf:RDF>
  </metadata>
  <g
     inkscape:label="Layer 1"
     inkscape:groupmode="layer"
     id="layer1"
     transform="translate(0,-924.36218)">
    <path
       style="fill:#f0ff8a;fill-opacity:1;stroke:none"
       d="M 16 32 L 64 64 L 112 32 L 16 32 z M 64.90625 36.84375 C 64.9678 36.85075 65.01 36.87625 65.0625 36.90625 C 65.23765 37.00735 65.33375 37.25155 65.34375 37.53125 C 65.69279 37.28445 66.03878 37.1726 66.28125 37.3125 C 66.75062 37.5835 66.6534 38.5932 66.09375 39.5625 C 65.74397 40.1684 65.31442 40.6277 64.90625 40.8125 C 65.21643 41.1004 65.4268 41.4597 65.5 41.875 C 65.61259 42.5136 65.38175 43.15545 64.90625 43.65625 C 66.32636 43.97765 67.74844 45.59085 68.34375 47.8125 C 68.82698 49.616 68.6213 51.34905 67.96875 52.46875 C 67.99195 52.54845 68 52.63475 68 52.71875 C 68 53.47285 67.00658 54.09375 65.78125 54.09375 C 65.59194 54.09375 65.42543 54.05825 65.25 54.03125 C 64.90294 54.24605 64.25952 54.375 63.5 54.375 C 62.3807 54.375 61.46875 54.0763 61.46875 53.6875 C 61.46875 53.5168 61.677587 53.372 61.96875 53.25 C 61.83683 53.1566 61.75 53.0486 61.75 52.9375 C 61.75 52.5876 62.505535 52.304 63.46875 52.25 C 63.11911 51.8196 62.82093 51.29145 62.5625 50.71875 C 62.198762 51.27845 61.788366 51.63625 61.5 51.53125 C 61.057142 51.37005 61.068821 50.27835 61.5 49.09375 C 61.617561 48.77075 61.727207 48.47605 61.875 48.21875 C 61.727151 46.7908 62.011329 45.51205 62.59375 44.65625 C 61.252769 44.69895 60.098043 43.9628 59.90625 42.875 C 59.690442 41.651 60.763703 40.42935 62.3125 40.15625 C 62.691866 40.089495 63.060054 40.077729 63.40625 40.125 C 63.353213 40.118102 63.294805 40.088375 63.25 40.0625 C 62.83001 39.82 62.90547 38.89865 63.40625 38.03125 C 63.84443 37.27225 64.47516 36.78975 64.90625 36.84375 z M 63.40625 40.125 C 63.590071 40.1501 63.767658 40.194509 63.9375 40.25 C 63.9285 40.1608 63.9305 40.07045 63.9375 39.96875 C 63.747255 40.073 63.565361 40.145695 63.40625 40.125 z "
       id="path7462"
       transform="translate(0,924.36218)"
       inkscape:export-filename="/home/andy/code/public/rabbit-escape/doc/www/downarrow.png"
       inkscape:export-xdpi="90"
       inkscape:export-ydpi="90" />
    <path
       style="fill:#f0ff8a;fill-opacity:1;stroke:none"
       d="M 64 71.84375 L 16 103.84375 L 112 103.84375 L 64 71.84375 z M 64.90625 81.71875 C 64.96783 81.72575 65.01 81.75125 65.0625 81.78125 C 65.23765 81.88235 65.33385 82.12645 65.34375 82.40625 C 65.69279 82.15945 66.03878 82.0475 66.28125 82.1875 C 66.75062 82.4585 66.6534 83.4682 66.09375 84.4375 C 65.74397 85.0434 65.31442 85.5026 64.90625 85.6875 C 65.21643 85.9754 65.42676 86.3347 65.5 86.75 C 65.61259 87.3885 65.38175 88.03035 64.90625 88.53125 C 66.32636 88.85255 67.74844 90.4658 68.34375 92.6875 C 68.82698 94.491 68.6213 96.22395 67.96875 97.34375 C 67.9923 97.42345 68 97.50975 68 97.59375 C 68 98.34785 67.00658 98.96875 65.78125 98.96875 C 65.59194 98.96875 65.42543 98.93325 65.25 98.90625 C 64.90294 99.12095 64.25952 99.25 63.5 99.25 C 62.3807 99.25 61.46875 98.9513 61.46875 98.5625 C 61.46875 98.3917 61.677587 98.2469 61.96875 98.125 C 61.83683 98.0316 61.75 97.9236 61.75 97.8125 C 61.75 97.4625 62.505535 97.18 63.46875 97.125 C 63.11911 96.6946 62.82093 96.16635 62.5625 95.59375 C 62.198762 96.15345 61.788366 96.51115 61.5 96.40625 C 61.057142 96.24505 61.068821 95.15335 61.5 93.96875 C 61.617561 93.64565 61.727207 93.35105 61.875 93.09375 C 61.727151 91.66575 62.011329 90.38705 62.59375 89.53125 C 61.252769 89.57395 60.098043 88.8377 59.90625 87.75 C 59.690442 86.526 60.763703 85.30435 62.3125 85.03125 C 62.8933 84.92905 63.44779 84.965 63.9375 85.125 C 63.9287 85.0358 63.9301 84.94535 63.9375 84.84375 C 63.68384 84.98275 63.42922 85.041 63.25 84.9375 C 62.83001 84.695 62.90547 83.77365 63.40625 82.90625 C 63.84443 82.14725 64.47516 81.66475 64.90625 81.71875 z "
       transform="translate(0,924.36218)"
       id="path7462-6"
       inkscape:export-filename="/home/andy/code/public/rabbit-escape/doc/www/uparrow.png"
       inkscape:export-xdpi="90"
       inkscape:export-ydpi="90" />
  </g>
</svg>
