<?xml version="1.0" encoding="UTF-8" standalone="no"?>
<!-- Created with Inkscape (http://www.inkscape.org/) -->

<svg
   xmlns:dc="http://purl.org/dc/elements/1.1/"
   xmlns:cc="http://creativecommons.org/ns#"
   xmlns:rdf="http://www.w3.org/1999/02/22-rdf-syntax-ns#"
   xmlns:svg="http://www.w3.org/2000/svg"
   xmlns="http://www.w3.org/2000/svg"
   xmlns:sodipodi="http://sodipodi.sourceforge.net/DTD/sodipodi-0.dtd"
   xmlns:inkscape="http://www.inkscape.org/namespaces/inkscape"
   width="32"
   height="32"
   viewBox="0 0 32 32.000001"
   id="svg2"
   version="1.1"
   inkscape:version="0.91 r13725"
   sodipodi:docname="dinamit.svg">
  <defs
     id="defs4" />
  <sodipodi:namedview
     id="base"
     pagecolor="#ffffff"
     bordercolor="#666666"
     borderopacity="1.0"
     inkscape:pageopacity="0.0"
     inkscape:pageshadow="2"
     inkscape:zoom="11.48028"
     inkscape:cx="22.538028"
     inkscape:cy="10.238823"
     inkscape:document-units="px"
     inkscape:current-layer="layer1"
     showgrid="false"
     units="px"
     inkscape:window-width="1600"
     inkscape:window-height="847"
     inkscape:window-x="0"
     inkscape:window-y="0"
     inkscape:window-maximized="1" />
  <metadata
     id="metadata7">
    <rdf:RDF>
      <cc:Work
         rdf:about="">
        <dc:format>image/svg+xml</dc:format>
        <dc:type
           rdf:resource="http://purl.org/dc/dcmitype/StillImage" />
        <dc:title></dc:title>
      </cc:Work>
    </rdf:RDF>
  </metadata>
  <g
     inkscape:label="Layer 1"
     inkscape:groupmode="layer"
     id="layer1"
     transform="translate(0,-1020.3622)">
    <g
       id="g4360"
       transform="matrix(0.2285794,-0.64474373,0.64474373,0.2285794,-655.72827,809.10768)">
      <g
         transform="translate(4.3115217,-0.61593167)"
         id="g4316">
        <g
           id="g4310"
           transform="matrix(0.2778533,0.96062352,-0.96062352,0.2778533,1009.5685,734.64816)">
          <path
             sodipodi:nodetypes="ccccc"
             inkscape:connector-curvature="0"
             id="rect4301"
             d="m -999.39862,270.3344 c 5.16579,-2.28792 8.16723,-0.34365 8.53332,0.65017 l -0.83834,25.62133 c -3.64423,2.69442 -5.86869,1.33166 -8.10404,0 z"
             style="opacity:1;fill:#550000;fill-opacity:1;stroke:none;stroke-width:3;stroke-miterlimit:4;stroke-dasharray:none;stroke-opacity:1"
             transform="matrix(0.25881905,-0.96592583,0.96592583,0.25881905,0,0)" />
          <ellipse
             ry="4.6502838"
             rx="4.850462"
             cy="1031.5745"
             cx="5.2970128"
             id="path4308"
             style="opacity:1;fill:#ffeeaa;fill-opacity:1;stroke:none;stroke-width:3;stroke-miterlimit:4;stroke-dasharray:none;stroke-opacity:1" />
        </g>
        <path
           style="fill:none;fill-rule:evenodd;stroke:#333333;stroke-width:1px;stroke-linecap:butt;stroke-linejoin:miter;stroke-opacity:1"
           d="m 19.956186,1026.0619 c 0,0 4.373115,-6.8984 0.18478,-9.3621"
           id="path4314"
           inkscape:connector-curvature="0" />
      </g>
      <g
         id="g4346">
        <g
           id="g4322"
           transform="translate(-3.69559,-0.12318633)">
          <g
             id="g4324"
             transform="matrix(0.2778533,0.96062352,-0.96062352,0.2778533,1009.5685,734.64816)">
            <path
               sodipodi:nodetypes="ccccc"
               inkscape:connector-curvature="0"
               id="path4326"
               d="m -999.39862,270.3344 c 5.16579,-2.28792 8.16723,-0.34365 8.53332,0.65017 l -0.83834,25.62133 c -3.64423,2.69442 -5.86869,1.33166 -8.10404,0 z"
               style="opacity:1;fill:#550000;fill-opacity:1;stroke:none;stroke-width:3;stroke-miterlimit:4;stroke-dasharray:none;stroke-opacity:1"
               transform="matrix(0.25881905,-0.96592583,0.96592583,0.25881905,0,0)" />
            <ellipse
               ry="4.6502838"
               rx="4.850462"
               cy="1031.5745"
               cx="5.2970128"
               id="ellipse4328"
               style="opacity:1;fill:#ffeeaa;fill-opacity:1;stroke:none;stroke-width:3;stroke-miterlimit:4;stroke-dasharray:none;stroke-opacity:1" />
          </g>
          <path
             style="fill:none;fill-rule:evenodd;stroke:#333333;stroke-width:1px;stroke-linecap:butt;stroke-linejoin:miter;stroke-opacity:1"
             d="m 19.956186,1026.0619 c 0,0 4.373115,-6.8984 0.18478,-9.3621"
             id="path4330"
             inkscape:connector-curvature="0" />
        </g>
        <g
           transform="translate(-11.333142,-0.12318633)"
           id="g4332">
          <g
             transform="matrix(0.2778533,0.96062352,-0.96062352,0.2778533,1009.5685,734.64816)"
             id="g4334">
            <path
               transform="matrix(0.25881905,-0.96592583,0.96592583,0.25881905,0,0)"
               style="opacity:1;fill:#550000;fill-opacity:1;stroke:none;stroke-width:3;stroke-miterlimit:4;stroke-dasharray:none;stroke-opacity:1"
               d="m -999.39862,270.3344 c 5.16579,-2.28792 8.16723,-0.34365 8.53332,0.65017 l -0.83834,25.62133 c -3.64423,2.69442 -5.86869,1.33166 -8.10404,0 z"
               id="path4336"
               inkscape:connector-curvature="0"
               sodipodi:nodetypes="ccccc" />
            <ellipse
               style="opacity:1;fill:#ffeeaa;fill-opacity:1;stroke:none;stroke-width:3;stroke-miterlimit:4;stroke-dasharray:none;stroke-opacity:1"
               id="ellipse4338"
               cx="5.2970128"
               cy="1031.5745"
               rx="4.850462"
               ry="4.6502838" />
          </g>
          <path
             inkscape:connector-curvature="0"
             id="path4340"
             d="m 19.956186,1026.0619 c 0,0 4.373115,-6.8984 0.18478,-9.3621"
             style="fill:none;fill-rule:evenodd;stroke:#333333;stroke-width:1px;stroke-linecap:butt;stroke-linejoin:miter;stroke-opacity:1" />
        </g>
        <path
           style="fill:#000000;fill-rule:evenodd;stroke:none;stroke-width:1px;stroke-linecap:butt;stroke-linejoin:miter;stroke-opacity:1"
           d="m 4.3552946,1032.11 c 0,0 16.4630134,2.8348 24.0412264,0 l 0,5.0962 c 0,0 -14.586762,1.8697 -24.1283323,0 z"
           id="path4342"
           inkscape:connector-curvature="0" />
        <path
           inkscape:connector-curvature="0"
           id="path4344"
           d="m 4.3552946,1042.2143 c 0,0 16.4630134,2.8348 24.0412264,0 l 0,5.0962 c 0,0 -14.586762,1.8697 -24.1283323,0 z"
           style="fill:#000000;fill-rule:evenodd;stroke:none;stroke-width:1px;stroke-linecap:butt;stroke-linejoin:miter;stroke-opacity:1" />
      </g>
    </g>
  </g>
</svg>
