<?xml version="1.0" encoding="UTF-8"?>
<svg xmlns="http://www.w3.org/2000/svg" xmlns:xlink="http://www.w3.org/1999/xlink" width="32px" height="px" viewBox="0 0 32 32" version="1.1">
<g id="surface1">
<path style=" stroke:none;fill-rule:nonzero;fill:rgb(94.117647%,94.117647%,95.294118%);fill-opacity:1;" d="M 15.976562 -0.0195312 C 16.039062 -0.0195312 16.105469 -0.0195312 16.167969 -0.0195312 C 17.082031 -0.015625 17.976562 0.00390625 18.875 0.1875 C 18.9375 0.199219 19 0.210938 19.0625 0.222656 C 22.089844 0.820312 24.851562 2.222656 27.0625 4.375 C 27.125 4.433594 27.125 4.433594 27.1875 4.496094 C 27.746094 5.035156 28.273438 5.578125 28.734375 6.207031 C 28.8125 6.3125 28.898438 6.421875 28.980469 6.527344 C 29.472656 7.167969 29.871094 7.851562 30.25 8.5625 C 30.292969 8.640625 30.292969 8.640625 30.332031 8.71875 C 31.054688 10.089844 31.53125 11.605469 31.8125 13.125 C 31.824219 13.175781 31.832031 13.226562 31.84375 13.277344 C 32.1875 15.03125 32.171875 17.125 31.8125 18.875 C 31.800781 18.9375 31.789062 19 31.777344 19.0625 C 31.269531 21.632812 30.183594 23.949219 28.5625 26 C 28.511719 26.066406 28.460938 26.128906 28.410156 26.195312 C 27.617188 27.167969 26.707031 28.082031 25.6875 28.8125 C 25.601562 28.875 25.519531 28.9375 25.433594 28.996094 C 23.480469 30.421875 21.257812 31.375 18.875 31.8125 C 18.824219 31.824219 18.773438 31.832031 18.722656 31.84375 C 16.96875 32.1875 14.875 32.171875 13.125 31.8125 C 13.0625 31.800781 13 31.789062 12.933594 31.773438 C 10.363281 31.261719 8.054688 30.171875 6 28.5625 C 5.964844 28.535156 5.933594 28.511719 5.898438 28.484375 C 4.882812 27.683594 3.941406 26.734375 3.1875 25.6875 C 3.132812 25.613281 3.078125 25.542969 3.027344 25.46875 C 2.078125 24.179688 1.324219 22.765625 0.8125 21.25 C 0.785156 21.171875 0.785156 21.171875 0.761719 21.09375 C 0.558594 20.484375 0.398438 19.867188 0.265625 19.238281 C 0.253906 19.179688 0.242188 19.121094 0.226562 19.0625 C 0.0234375 18.050781 -0.0234375 17.054688 -0.0195312 16.023438 C -0.0195312 15.960938 -0.0195312 15.894531 -0.0195312 15.832031 C -0.015625 14.917969 0.00390625 14.023438 0.1875 13.125 C 0.207031 13.03125 0.207031 13.03125 0.222656 12.9375 C 0.699219 10.523438 1.683594 8.261719 3.1875 6.3125 C 3.246094 6.234375 3.246094 6.234375 3.308594 6.15625 C 4.191406 5.03125 5.210938 3.957031 6.375 3.125 C 6.410156 3.101562 6.441406 3.074219 6.476562 3.050781 C 8.410156 1.65625 10.558594 0.714844 12.890625 0.234375 C 12.9375 0.226562 12.980469 0.214844 13.027344 0.207031 C 14.011719 0.015625 14.980469 -0.0234375 15.976562 -0.0195312 Z M 15.976562 -0.0195312 "/>
<path style=" stroke:none;fill-rule:nonzero;fill:rgb(88.235295%,87.450981%,95.294118%);fill-opacity:1;" d="M 16 0 C 20.15625 0 24.0625 1.457031 27.0625 4.375 C 27.125 4.433594 27.125 4.433594 27.1875 4.496094 C 27.746094 5.035156 28.273438 5.578125 28.734375 6.207031 C 28.8125 6.3125 28.898438 6.421875 28.980469 6.527344 C 29.472656 7.167969 29.871094 7.851562 30.25 8.5625 C 30.277344 8.613281 30.304688 8.664062 30.332031 8.71875 C 31.054688 10.089844 31.53125 11.605469 31.8125 13.125 C 31.824219 13.175781 31.832031 13.226562 31.84375 13.277344 C 32.1875 15.03125 32.171875 17.125 31.8125 18.875 C 31.800781 18.9375 31.789062 19 31.777344 19.0625 C 31.269531 21.632812 30.183594 23.949219 28.5625 26 C 28.511719 26.066406 28.460938 26.128906 28.410156 26.195312 C 27.617188 27.167969 26.707031 28.082031 25.6875 28.8125 C 25.601562 28.875 25.519531 28.9375 25.433594 28.996094 C 23.273438 30.570312 20.804688 31.546875 18.160156 31.925781 C 18.082031 31.9375 18.082031 31.9375 18.003906 31.949219 C 17.332031 32.035156 16.6875 32 16 32 C 16 30.535156 16 29.070312 16 27.5625 C 16.164062 27.5 16.328125 27.4375 16.5 27.375 C 16.695312 27.210938 16.792969 27.117188 16.875 26.875 C 16.882812 26.695312 16.886719 26.515625 16.890625 26.335938 C 16.890625 26.285156 16.890625 26.230469 16.890625 26.175781 C 16.890625 26.0625 16.894531 25.953125 16.894531 25.839844 C 16.894531 25.667969 16.898438 25.5 16.898438 25.328125 C 16.902344 25.21875 16.902344 25.109375 16.902344 25 C 16.902344 24.925781 16.902344 24.925781 16.90625 24.847656 C 16.902344 24.515625 16.847656 24.324219 16.625 24.0625 C 16.414062 23.933594 16.242188 23.871094 16 23.8125 C 16 23.195312 16 22.574219 16 21.9375 C 16.164062 21.921875 16.328125 21.910156 16.496094 21.894531 C 17.226562 21.820312 17.914062 21.640625 18.574219 21.320312 C 18.757812 21.234375 18.859375 21.1875 19.0625 21.179688 C 19.292969 21.265625 19.511719 21.375 19.738281 21.480469 C 21.203125 22.089844 22.867188 22.011719 24.320312 21.421875 C 24.941406 21.152344 25.492188 20.753906 26 20.3125 C 26.039062 20.28125 26.078125 20.246094 26.117188 20.210938 C 27.0625 19.335938 27.75 17.882812 27.820312 16.589844 C 27.882812 14.820312 27.5 13.328125 26.289062 11.984375 C 25.277344 10.902344 23.847656 10.167969 22.351562 10.105469 C 21.265625 10.085938 20.054688 10.191406 19.125 10.8125 C 18.832031 10.792969 18.59375 10.691406 18.324219 10.574219 C 17.976562 10.429688 17.632812 10.316406 17.269531 10.230469 C 17.230469 10.21875 17.1875 10.210938 17.144531 10.199219 C 16.761719 10.113281 16.40625 10.097656 16 10.0625 C 16 9.445312 16 8.824219 16 8.1875 C 16.164062 8.125 16.328125 8.0625 16.5 8 C 16.695312 7.835938 16.792969 7.742188 16.875 7.5 C 16.882812 7.320312 16.886719 7.140625 16.890625 6.960938 C 16.890625 6.910156 16.890625 6.855469 16.890625 6.800781 C 16.890625 6.6875 16.894531 6.578125 16.894531 6.464844 C 16.894531 6.292969 16.898438 6.125 16.898438 5.953125 C 16.902344 5.84375 16.902344 5.734375 16.902344 5.625 C 16.902344 5.574219 16.902344 5.523438 16.90625 5.472656 C 16.902344 5.140625 16.847656 4.949219 16.625 4.6875 C 16.414062 4.558594 16.242188 4.496094 16 4.4375 C 16 2.972656 16 1.507812 16 0 Z M 16 0 "/>
<path style=" stroke:none;fill-rule:nonzero;fill:rgb(47.843137%,47.843137%,57.647061%);fill-opacity:1;" d="M 18.546875 10.609375 C 18.902344 10.75 18.902344 10.75 19.265625 10.695312 C 19.3125 10.667969 19.359375 10.640625 19.40625 10.613281 C 20.605469 9.964844 22.203125 9.859375 23.503906 10.234375 C 23.585938 10.257812 23.667969 10.285156 23.75 10.3125 C 23.789062 10.324219 23.832031 10.339844 23.871094 10.351562 C 25.433594 10.878906 26.640625 12.035156 27.378906 13.496094 C 27.742188 14.277344 27.898438 15.09375 27.894531 15.953125 C 27.894531 16.023438 27.894531 16.089844 27.894531 16.164062 C 27.886719 16.675781 27.84375 17.132812 27.6875 17.625 C 27.667969 17.683594 27.667969 17.683594 27.648438 17.746094 C 27.136719 19.34375 26.054688 20.578125 24.578125 21.359375 C 23.097656 22.074219 21.429688 22.140625 19.882812 21.605469 C 19.609375 21.503906 19.367188 21.410156 19.125 21.25 C 18.828125 21.269531 18.570312 21.375 18.300781 21.492188 C 16.839844 22.097656 15.234375 22.132812 13.761719 21.527344 C 13.1875 21.269531 12.667969 20.972656 12.1875 20.5625 C 12.113281 20.5 12.113281 20.5 12.035156 20.4375 C 10.945312 19.507812 10.179688 18.058594 10.0625 16.625 C 9.972656 14.867188 10.4375 13.269531 11.625 11.9375 C 13.433594 10.003906 16.175781 9.574219 18.546875 10.609375 Z M 18.546875 10.609375 "/>
<path style=" stroke:none;fill-rule:nonzero;fill:rgb(38.039216%,38.039216%,45.09804%);fill-opacity:1;" d="M 21.9375 10.0625 C 22.8125 10.0625 22.8125 10.0625 23.207031 10.164062 C 23.25 10.175781 23.296875 10.1875 23.34375 10.199219 C 24.929688 10.613281 26.25 11.566406 27.097656 12.980469 C 27.632812 13.910156 27.898438 14.882812 27.894531 15.953125 C 27.894531 16.023438 27.894531 16.089844 27.894531 16.164062 C 27.886719 16.675781 27.84375 17.132812 27.6875 17.625 C 27.675781 17.664062 27.664062 17.703125 27.648438 17.746094 C 27.136719 19.34375 26.054688 20.578125 24.578125 21.359375 C 23.722656 21.773438 22.886719 21.9375 21.9375 21.9375 C 21.9375 18.019531 21.9375 14.101562 21.9375 10.0625 Z M 21.9375 10.0625 "/>
<path style=" stroke:none;fill-rule:nonzero;fill:rgb(38.431373%,38.431373%,45.490196%);fill-opacity:1;" d="M 18.75 10.6875 C 18.871094 10.792969 18.871094 10.792969 18.9375 10.875 C 18.890625 10.910156 18.84375 10.941406 18.796875 10.976562 C 18.042969 11.507812 18.042969 11.507812 17.4375 12.1875 C 17.402344 12.179688 17.367188 12.171875 17.332031 12.164062 C 16.097656 11.875 15 11.925781 13.878906 12.5625 C 13.574219 12.761719 13.316406 12.992188 13.0625 13.25 C 13.027344 13.28125 12.992188 13.316406 12.957031 13.351562 C 12.242188 14.097656 11.964844 15.105469 11.972656 16.113281 C 12.007812 17.222656 12.464844 18.160156 13.25 18.9375 C 13.28125 18.972656 13.316406 19.007812 13.347656 19.042969 C 14.027344 19.707031 15.078125 20.027344 16.003906 20.019531 C 16.4375 20.007812 16.855469 19.945312 17.265625 19.804688 C 17.4375 19.8125 17.4375 19.8125 17.535156 19.902344 C 17.609375 19.988281 17.679688 20.078125 17.75 20.167969 C 18.078125 20.550781 18.523438 20.839844 18.9375 21.125 C 18.769531 21.332031 18.550781 21.40625 18.3125 21.5 C 18.269531 21.515625 18.230469 21.53125 18.1875 21.550781 C 16.753906 22.097656 15.1875 22.113281 13.761719 21.527344 C 13.1875 21.269531 12.667969 20.972656 12.1875 20.5625 C 12.113281 20.5 12.113281 20.5 12.035156 20.4375 C 10.945312 19.507812 10.179688 18.058594 10.0625 16.625 C 9.972656 14.867188 10.4375 13.269531 11.625 11.9375 C 13.460938 9.976562 16.367188 9.515625 18.75 10.6875 Z M 18.75 10.6875 "/>
<path style=" stroke:none;fill-rule:nonzero;fill:rgb(94.117647%,94.117647%,95.294118%);fill-opacity:1;" d="M 17.375 12.1875 C 17.347656 12.230469 17.320312 12.273438 17.289062 12.320312 C 17.210938 12.445312 17.132812 12.566406 17.054688 12.691406 C 16.988281 12.796875 16.921875 12.898438 16.851562 12.996094 C 16.054688 14.160156 15.890625 15.753906 16.132812 17.113281 C 16.363281 18.105469 16.792969 18.980469 17.375 19.8125 C 17.039062 19.949219 16.738281 20.042969 16.375 20.0625 C 16.265625 20.070312 16.265625 20.070312 16.152344 20.074219 C 15.101562 20.113281 14.148438 19.796875 13.351562 19.097656 C 13.253906 19.003906 13.15625 18.910156 13.0625 18.8125 C 13.023438 18.777344 12.984375 18.738281 12.945312 18.699219 C 12.199219 17.941406 11.902344 16.855469 11.910156 15.820312 C 11.945312 14.738281 12.425781 13.816406 13.1875 13.0625 C 13.226562 13.023438 13.261719 12.984375 13.300781 12.945312 C 14.355469 11.929688 16.027344 11.617188 17.375 12.1875 Z M 17.375 12.1875 "/>
<path style=" stroke:none;fill-rule:nonzero;fill:rgb(27.450982%,27.450982%,33.333334%);fill-opacity:1;" d="M 16.453125 23.886719 C 16.675781 24.035156 16.816406 24.199219 16.9375 24.4375 C 16.945312 24.613281 16.949219 24.789062 16.953125 24.96875 C 16.953125 25.046875 16.953125 25.046875 16.953125 25.128906 C 16.953125 25.238281 16.957031 25.351562 16.957031 25.464844 C 16.957031 25.636719 16.960938 25.804688 16.960938 25.976562 C 16.964844 26.085938 16.964844 26.195312 16.964844 26.304688 C 16.964844 26.355469 16.964844 26.40625 16.96875 26.457031 C 16.964844 26.8125 16.890625 27.019531 16.6875 27.3125 C 16.484375 27.503906 16.277344 27.558594 16.003906 27.597656 C 15.710938 27.582031 15.457031 27.457031 15.25 27.25 C 15.078125 26.917969 15.035156 26.652344 15.035156 26.28125 C 15.035156 26.230469 15.035156 26.179688 15.035156 26.128906 C 15.035156 26.023438 15.035156 25.921875 15.035156 25.816406 C 15.035156 25.65625 15.035156 25.496094 15.03125 25.339844 C 15.03125 25.238281 15.03125 25.136719 15.03125 25.03125 C 15.03125 24.984375 15.03125 24.9375 15.03125 24.890625 C 15.035156 24.546875 15.121094 24.347656 15.3125 24.0625 C 15.640625 23.753906 16.042969 23.738281 16.453125 23.886719 Z M 16.453125 23.886719 "/>
<path style=" stroke:none;fill-rule:nonzero;fill:rgb(27.450982%,27.450982%,33.333334%);fill-opacity:1;" d="M 16.453125 4.511719 C 16.675781 4.660156 16.816406 4.824219 16.9375 5.0625 C 16.945312 5.238281 16.949219 5.414062 16.953125 5.59375 C 16.953125 5.671875 16.953125 5.671875 16.953125 5.753906 C 16.953125 5.863281 16.957031 5.976562 16.957031 6.089844 C 16.957031 6.261719 16.960938 6.429688 16.960938 6.601562 C 16.964844 6.710938 16.964844 6.820312 16.964844 6.929688 C 16.964844 6.980469 16.964844 7.03125 16.96875 7.082031 C 16.964844 7.4375 16.890625 7.644531 16.6875 7.9375 C 16.484375 8.128906 16.277344 8.183594 16.003906 8.222656 C 15.710938 8.207031 15.457031 8.082031 15.25 7.875 C 15.078125 7.542969 15.035156 7.277344 15.035156 6.90625 C 15.035156 6.855469 15.035156 6.804688 15.035156 6.753906 C 15.035156 6.648438 15.035156 6.546875 15.035156 6.441406 C 15.035156 6.28125 15.035156 6.121094 15.03125 5.964844 C 15.03125 5.863281 15.03125 5.761719 15.03125 5.65625 C 15.03125 5.609375 15.03125 5.5625 15.03125 5.515625 C 15.035156 5.171875 15.121094 4.972656 15.3125 4.6875 C 15.640625 4.378906 16.042969 4.363281 16.453125 4.511719 Z M 16.453125 4.511719 "/>
<path style=" stroke:none;fill-rule:nonzero;fill:rgb(38.82353%,38.82353%,45.490196%);fill-opacity:1;" d="M 8.6875 19.4375 C 9 19.597656 9.21875 19.8125 9.375 20.125 C 9.398438 20.40625 9.402344 20.5625 9.28125 20.820312 C 8.898438 21.257812 8.386719 21.523438 7.882812 21.800781 C 7.816406 21.835938 7.753906 21.875 7.683594 21.910156 C 6.945312 22.324219 6.945312 22.324219 6.5 22.25 C 6.21875 22.101562 5.992188 21.929688 5.875 21.625 C 5.832031 21.328125 5.84375 21.074219 5.964844 20.796875 C 6.355469 20.378906 6.914062 20.105469 7.40625 19.820312 C 7.5 19.765625 7.5 19.765625 7.59375 19.707031 C 7.957031 19.496094 8.261719 19.351562 8.6875 19.4375 Z M 8.6875 19.4375 "/>
<path style=" stroke:none;fill-rule:nonzero;fill:rgb(38.82353%,38.82353%,45.490196%);fill-opacity:1;" d="M 11.132812 5.929688 C 11.605469 6.277344 11.894531 6.910156 12.183594 7.410156 C 12.238281 7.5 12.238281 7.5 12.296875 7.59375 C 12.503906 7.960938 12.648438 8.261719 12.5625 8.6875 C 12.394531 9.019531 12.167969 9.257812 11.8125 9.375 C 11.5625 9.398438 11.410156 9.394531 11.183594 9.28125 C 10.742188 8.90625 10.476562 8.386719 10.199219 7.882812 C 10.164062 7.816406 10.125 7.753906 10.089844 7.683594 C 9.691406 6.976562 9.691406 6.976562 9.75 6.5 C 10.046875 5.898438 10.523438 5.757812 11.132812 5.929688 Z M 11.132812 5.929688 "/>
<path style=" stroke:none;fill-rule:nonzero;fill:rgb(38.431373%,38.431373%,45.490196%);fill-opacity:1;" d="M 11.8125 22.625 C 12.167969 22.753906 12.394531 22.976562 12.5625 23.3125 C 12.640625 23.84375 12.417969 24.203125 12.152344 24.644531 C 12.082031 24.761719 12.015625 24.878906 11.945312 24.996094 C 11.417969 25.894531 11.417969 25.894531 11.109375 26.085938 C 10.769531 26.164062 10.488281 26.179688 10.167969 26.027344 C 9.894531 25.777344 9.765625 25.582031 9.722656 25.210938 C 9.730469 24.871094 9.894531 24.613281 10.066406 24.324219 C 10.097656 24.269531 10.128906 24.214844 10.160156 24.15625 C 10.253906 24 10.34375 23.84375 10.4375 23.6875 C 10.472656 23.628906 10.472656 23.628906 10.507812 23.566406 C 10.828125 23.015625 11.121094 22.578125 11.8125 22.625 Z M 11.8125 22.625 "/>
<path style=" stroke:none;fill-rule:nonzero;fill:rgb(38.431373%,38.431373%,45.490196%);fill-opacity:1;" d="M 7 9.75 C 7.304688 9.875 7.589844 10.027344 7.875 10.1875 C 7.921875 10.210938 7.964844 10.238281 8.011719 10.261719 C 8.15625 10.339844 8.296875 10.421875 8.4375 10.5 C 8.503906 10.535156 8.503906 10.535156 8.570312 10.574219 C 8.910156 10.773438 9.195312 11.019531 9.375 11.375 C 9.398438 11.703125 9.367188 11.910156 9.1875 12.1875 C 8.960938 12.410156 8.773438 12.550781 8.453125 12.597656 C 8.035156 12.589844 7.703125 12.359375 7.355469 12.152344 C 7.238281 12.082031 7.121094 12.015625 7.003906 11.945312 C 6.105469 11.417969 6.105469 11.417969 5.914062 11.109375 C 5.835938 10.769531 5.820312 10.488281 5.976562 10.167969 C 6.269531 9.839844 6.550781 9.644531 7 9.75 Z M 7 9.75 "/>
<path style=" stroke:none;fill-rule:nonzero;fill:rgb(38.431373%,38.431373%,45.09804%);fill-opacity:1;" d="M 5.65625 15.03125 C 5.707031 15.027344 5.753906 15.027344 5.804688 15.027344 C 5.910156 15.027344 6.015625 15.027344 6.117188 15.03125 C 6.277344 15.03125 6.433594 15.03125 6.59375 15.027344 C 6.695312 15.027344 6.796875 15.027344 6.898438 15.03125 C 6.96875 15.027344 6.96875 15.027344 7.039062 15.027344 C 7.378906 15.035156 7.65625 15.117188 7.9375 15.3125 C 8.109375 15.507812 8.179688 15.707031 8.21875 15.964844 C 8.179688 16.238281 8.121094 16.476562 7.9375 16.6875 C 7.597656 16.90625 7.300781 16.976562 6.898438 16.972656 C 6.851562 16.972656 6.800781 16.972656 6.75 16.972656 C 6.648438 16.972656 6.542969 16.972656 6.4375 16.972656 C 6.28125 16.972656 6.125 16.976562 5.964844 16.976562 C 5.019531 16.980469 5.019531 16.980469 4.625 16.625 C 4.449219 16.332031 4.394531 16.089844 4.4375 15.75 C 4.550781 15.433594 4.703125 15.28125 5 15.117188 C 5.214844 15.023438 5.421875 15.027344 5.65625 15.03125 Z M 5.65625 15.03125 "/>
<path style=" stroke:none;fill-rule:nonzero;fill:rgb(27.450982%,27.450982%,33.333334%);fill-opacity:1;" d="M 17.4375 19.8125 C 17.53125 19.90625 17.53125 19.90625 17.628906 20.03125 C 17.996094 20.472656 18.46875 20.796875 18.9375 21.125 C 18.769531 21.332031 18.550781 21.40625 18.3125 21.5 C 18.25 21.523438 18.25 21.523438 18.1875 21.550781 C 17.839844 21.683594 17.488281 21.792969 17.125 21.875 C 17.035156 21.894531 17.035156 21.894531 16.941406 21.917969 C 16.628906 21.949219 16.3125 21.9375 16 21.9375 C 16 21.320312 16 20.699219 16 20.0625 C 16.519531 19.972656 16.519531 19.972656 16.683594 19.945312 C 16.726562 19.9375 16.769531 19.929688 16.8125 19.921875 C 16.855469 19.914062 16.898438 19.90625 16.945312 19.898438 C 17.367188 19.8125 17.367188 19.8125 17.4375 19.8125 Z M 17.4375 19.8125 "/>
<path style=" stroke:none;fill-rule:nonzero;fill:rgb(27.450982%,27.450982%,33.333334%);fill-opacity:1;" d="M 16 10.0625 C 16.875 10.0625 16.875 10.0625 17.269531 10.164062 C 17.3125 10.175781 17.359375 10.1875 17.402344 10.195312 C 18.644531 10.519531 18.644531 10.519531 18.9375 10.875 C 18.890625 10.910156 18.84375 10.941406 18.796875 10.976562 C 18.042969 11.507812 18.042969 11.507812 17.4375 12.1875 C 17.363281 12.167969 17.289062 12.152344 17.210938 12.132812 C 16.8125 12.050781 16.40625 11.996094 16 11.9375 C 16 11.320312 16 10.699219 16 10.0625 Z M 16 10.0625 "/>
<path style=" stroke:none;fill-rule:nonzero;fill:rgb(38.431373%,38.431373%,45.09804%);fill-opacity:1;" d="M 16 23.8125 C 16 25.050781 16 26.289062 16 27.5625 C 15.644531 27.503906 15.515625 27.472656 15.25 27.25 C 15.074219 26.917969 15.035156 26.652344 15.035156 26.28125 C 15.035156 26.230469 15.035156 26.179688 15.035156 26.128906 C 15.035156 26.023438 15.035156 25.921875 15.035156 25.816406 C 15.035156 25.65625 15.035156 25.496094 15.03125 25.339844 C 15.03125 25.238281 15.03125 25.136719 15.03125 25.03125 C 15.03125 24.984375 15.03125 24.9375 15.03125 24.890625 C 15.035156 24.546875 15.121094 24.347656 15.3125 24.0625 C 15.523438 23.878906 15.71875 23.8125 16 23.8125 Z M 16 23.8125 "/>
<path style=" stroke:none;fill-rule:nonzero;fill:rgb(38.431373%,38.431373%,45.09804%);fill-opacity:1;" d="M 16 4.4375 C 16 5.675781 16 6.914062 16 8.1875 C 15.644531 8.128906 15.515625 8.097656 15.25 7.875 C 15.074219 7.542969 15.035156 7.277344 15.035156 6.90625 C 15.035156 6.855469 15.035156 6.804688 15.035156 6.753906 C 15.035156 6.648438 15.035156 6.546875 15.035156 6.441406 C 15.035156 6.28125 15.035156 6.121094 15.03125 5.964844 C 15.03125 5.863281 15.03125 5.761719 15.03125 5.65625 C 15.03125 5.609375 15.03125 5.5625 15.03125 5.515625 C 15.035156 5.171875 15.121094 4.972656 15.3125 4.6875 C 15.523438 4.503906 15.71875 4.4375 16 4.4375 Z M 16 4.4375 "/>
<path style=" stroke:none;fill-rule:nonzero;fill:rgb(87.058824%,85.882354%,94.117647%);fill-opacity:1;" d="M 16 16.625 C 16.019531 16.625 16.042969 16.625 16.0625 16.625 C 16.070312 16.679688 16.082031 16.738281 16.089844 16.796875 C 16.292969 17.917969 16.722656 18.875 17.375 19.8125 C 16.886719 20.039062 16.59375 20.019531 16 20.0625 C 16 18.929688 16 17.792969 16 16.625 Z M 16 16.625 "/>
<path style=" stroke:none;fill-rule:nonzero;fill:rgb(87.450981%,86.274511%,94.901961%);fill-opacity:1;" d="M 16 11.9375 C 16.984375 12.007812 16.984375 12.007812 17.375 12.1875 C 17.332031 12.253906 17.332031 12.253906 17.289062 12.320312 C 17.210938 12.445312 17.132812 12.566406 17.054688 12.691406 C 16.988281 12.796875 16.921875 12.898438 16.851562 12.996094 C 16.386719 13.675781 16.195312 14.511719 16.0625 15.3125 C 16.042969 15.3125 16.019531 15.3125 16 15.3125 C 16 14.199219 16 13.085938 16 11.9375 Z M 16 11.9375 "/>
</g>
</svg>
