<?xml version="1.0" encoding="UTF-8"?>
<svg xmlns="http://www.w3.org/2000/svg" xmlns:xlink="http://www.w3.org/1999/xlink" width="32px" height="px" viewBox="0 0 32 32" version="1.1">
<g id="surface1">
<path style=" stroke:none;fill-rule:nonzero;fill:rgb(0%,0%,0%);fill-opacity:1;" d="M 15.976562 -0.0195312 C 16.039062 -0.0195312 16.105469 -0.0195312 16.167969 -0.0195312 C 17.082031 -0.015625 17.976562 0.00390625 18.875 0.1875 C 18.9375 0.199219 19 0.210938 19.0625 0.222656 C 22.089844 0.820312 24.851562 2.222656 27.0625 4.375 C 27.125 4.433594 27.125 4.433594 27.1875 4.496094 C 27.746094 5.035156 28.273438 5.578125 28.734375 6.207031 C 28.8125 6.3125 28.898438 6.421875 28.980469 6.527344 C 29.472656 7.167969 29.871094 7.851562 30.25 8.5625 C 30.292969 8.640625 30.292969 8.640625 30.332031 8.71875 C 31.054688 10.089844 31.53125 11.605469 31.8125 13.125 C 31.824219 13.175781 31.832031 13.226562 31.84375 13.277344 C 32.1875 15.03125 32.171875 17.125 31.8125 18.875 C 31.800781 18.9375 31.789062 19 31.777344 19.0625 C 31.269531 21.632812 30.183594 23.949219 28.5625 26 C 28.511719 26.066406 28.460938 26.128906 28.410156 26.195312 C 27.617188 27.167969 26.707031 28.082031 25.6875 28.8125 C 25.601562 28.875 25.519531 28.9375 25.433594 28.996094 C 23.480469 30.421875 21.257812 31.375 18.875 31.8125 C 18.824219 31.824219 18.773438 31.832031 18.722656 31.84375 C 16.96875 32.1875 14.875 32.171875 13.125 31.8125 C 13.0625 31.800781 13 31.789062 12.933594 31.773438 C 10.363281 31.261719 8.054688 30.171875 6 28.5625 C 5.964844 28.535156 5.933594 28.511719 5.898438 28.484375 C 4.917969 27.714844 3.992188 26.800781 3.261719 25.789062 C 3.183594 25.683594 3.101562 25.578125 3.019531 25.472656 C 1.597656 23.628906 0.699219 21.378906 0.234375 19.109375 C 0.21875 19.039062 0.21875 19.039062 0.207031 18.972656 C 0.015625 17.988281 -0.0234375 17.019531 -0.0195312 16.023438 C -0.0195312 15.960938 -0.0195312 15.894531 -0.0195312 15.832031 C -0.015625 14.917969 0.00390625 14.023438 0.1875 13.125 C 0.207031 13.03125 0.207031 13.03125 0.222656 12.9375 C 0.8125 9.953125 2.1875 7.183594 4.3125 5 C 4.355469 4.957031 4.398438 4.910156 4.445312 4.863281 C 5.050781 4.234375 5.664062 3.636719 6.375 3.125 C 6.410156 3.101562 6.441406 3.074219 6.476562 3.050781 C 8.410156 1.65625 10.558594 0.714844 12.890625 0.234375 C 12.9375 0.226562 12.980469 0.214844 13.027344 0.207031 C 14.011719 0.015625 14.980469 -0.0234375 15.976562 -0.0195312 Z M 15.25 4.8125 C 15.015625 5.242188 15.035156 5.71875 15.042969 6.195312 C 15.042969 6.320312 15.042969 6.445312 15.042969 6.574219 C 15.03125 7.265625 15.03125 7.265625 15.339844 7.863281 C 15.628906 8.109375 15.785156 8.152344 16.15625 8.144531 C 16.386719 8.117188 16.515625 8.03125 16.6875 7.875 C 17.003906 7.449219 16.949219 6.957031 16.949219 6.449219 C 16.949219 6.320312 16.949219 6.191406 16.953125 6.066406 C 16.953125 5.984375 16.953125 5.902344 16.953125 5.816406 C 16.953125 5.742188 16.953125 5.667969 16.953125 5.59375 C 16.929688 5.261719 16.878906 5.015625 16.660156 4.761719 C 16.375 4.519531 16.214844 4.46875 15.847656 4.476562 C 15.582031 4.515625 15.429688 4.613281 15.25 4.8125 Z M 10.125 6.0625 C 9.859375 6.347656 9.777344 6.550781 9.78125 6.933594 C 9.839844 7.292969 10.035156 7.59375 10.21875 7.898438 C 10.289062 8.015625 10.355469 8.132812 10.425781 8.25 C 10.78125 8.90625 10.78125 8.90625 11.375 9.3125 C 11.710938 9.335938 11.917969 9.34375 12.1875 9.125 C 12.367188 8.960938 12.480469 8.855469 12.523438 8.613281 C 12.535156 8.167969 12.410156 7.882812 12.183594 7.503906 C 12.152344 7.449219 12.121094 7.394531 12.089844 7.339844 C 11.996094 7.183594 11.90625 7.03125 11.8125 6.875 C 11.769531 6.800781 11.726562 6.726562 11.683594 6.648438 C 11.445312 6.253906 11.25 6.003906 10.785156 5.878906 C 10.511719 5.875 10.359375 5.929688 10.125 6.0625 Z M 6.011719 10.171875 C 5.878906 10.425781 5.839844 10.667969 5.90625 10.941406 C 6.152344 11.523438 6.851562 11.789062 7.371094 12.082031 C 7.429688 12.117188 7.488281 12.148438 7.550781 12.183594 C 8.113281 12.503906 8.113281 12.503906 8.75 12.5 C 9.011719 12.339844 9.214844 12.167969 9.3125 11.875 C 9.335938 11.539062 9.34375 11.332031 9.125 11.0625 C 8.804688 10.765625 8.4375 10.546875 8.0625 10.324219 C 7.988281 10.28125 7.917969 10.238281 7.847656 10.195312 C 7.171875 9.785156 6.632812 9.574219 6.011719 10.171875 Z M 12.25 11.4375 C 12.199219 11.480469 12.148438 11.523438 12.09375 11.566406 C 10.996094 12.515625 10.222656 13.90625 10.109375 15.371094 C 10.042969 17.171875 10.445312 18.683594 11.671875 20.042969 C 12.785156 21.230469 14.292969 21.863281 15.90625 21.933594 C 16.839844 21.949219 17.808594 21.742188 18.625 21.28125 C 18.910156 21.210938 19.238281 21.417969 19.5 21.527344 C 21.015625 22.109375 22.59375 22.03125 24.066406 21.390625 C 25.496094 20.738281 26.589844 19.5625 27.167969 18.101562 C 27.722656 16.53125 27.648438 14.863281 26.929688 13.355469 C 26.207031 11.910156 24.957031 10.894531 23.445312 10.359375 C 22.015625 9.894531 20.464844 9.988281 19.117188 10.652344 C 19.078125 10.675781 19.039062 10.695312 19 10.71875 C 18.714844 10.789062 18.386719 10.582031 18.125 10.472656 C 16.183594 9.726562 13.832031 10.035156 12.25 11.4375 Z M 4.625 15.4375 C 4.453125 15.714844 4.460938 15.996094 4.5 16.3125 C 4.636719 16.589844 4.78125 16.746094 5.0625 16.875 C 5.429688 16.96875 5.800781 16.949219 6.175781 16.949219 C 6.304688 16.949219 6.433594 16.949219 6.558594 16.953125 C 6.640625 16.953125 6.722656 16.953125 6.808594 16.953125 C 6.882812 16.953125 6.957031 16.953125 7.03125 16.953125 C 7.363281 16.929688 7.609375 16.878906 7.863281 16.660156 C 8.109375 16.371094 8.152344 16.214844 8.144531 15.84375 C 8.117188 15.613281 8.03125 15.484375 7.875 15.3125 C 7.449219 14.996094 6.957031 15.050781 6.449219 15.050781 C 6.320312 15.050781 6.191406 15.050781 6.066406 15.046875 C 5.984375 15.046875 5.902344 15.046875 5.816406 15.046875 C 5.742188 15.046875 5.667969 15.046875 5.59375 15.046875 C 5.203125 15.074219 4.90625 15.164062 4.625 15.4375 Z M 7.503906 19.816406 C 7.449219 19.847656 7.394531 19.878906 7.339844 19.910156 C 7.183594 20.003906 7.03125 20.09375 6.875 20.1875 C 6.800781 20.230469 6.726562 20.273438 6.648438 20.316406 C 6.253906 20.554688 6.003906 20.75 5.878906 21.214844 C 5.875 21.488281 5.929688 21.640625 6.0625 21.875 C 6.347656 22.140625 6.550781 22.222656 6.933594 22.21875 C 7.292969 22.160156 7.59375 21.964844 7.898438 21.78125 C 8.015625 21.710938 8.132812 21.644531 8.25 21.574219 C 8.90625 21.21875 8.90625 21.21875 9.3125 20.625 C 9.335938 20.289062 9.34375 20.082031 9.125 19.8125 C 8.960938 19.632812 8.855469 19.519531 8.613281 19.476562 C 8.167969 19.464844 7.882812 19.589844 7.503906 19.816406 Z M 10.929688 23.019531 C 10.695312 23.304688 10.511719 23.621094 10.324219 23.9375 C 10.28125 24.011719 10.238281 24.082031 10.195312 24.152344 C 9.925781 24.59375 9.703125 24.972656 9.8125 25.5 C 9.9375 25.742188 10.070312 25.933594 10.3125 26.0625 C 10.652344 26.148438 10.882812 26.148438 11.1875 25.96875 C 11.59375 25.660156 11.835938 25.066406 12.082031 24.628906 C 12.117188 24.570312 12.148438 24.511719 12.183594 24.449219 C 12.429688 24.019531 12.554688 23.753906 12.5 23.25 C 12.386719 23.011719 12.292969 22.90625 12.078125 22.757812 C 11.617188 22.597656 11.265625 22.65625 10.929688 23.019531 Z M 15.3125 24.125 C 14.996094 24.550781 15.050781 25.042969 15.050781 25.550781 C 15.050781 25.679688 15.050781 25.808594 15.046875 25.933594 C 15.046875 26.015625 15.046875 26.097656 15.046875 26.183594 C 15.046875 26.257812 15.046875 26.332031 15.046875 26.40625 C 15.070312 26.738281 15.121094 26.984375 15.339844 27.238281 C 15.628906 27.484375 15.785156 27.527344 16.15625 27.519531 C 16.386719 27.492188 16.515625 27.40625 16.6875 27.25 C 17.003906 26.824219 16.949219 26.332031 16.949219 25.824219 C 16.949219 25.695312 16.949219 25.566406 16.953125 25.441406 C 16.953125 25.359375 16.953125 25.277344 16.953125 25.191406 C 16.953125 25.117188 16.953125 25.042969 16.953125 24.96875 C 16.929688 24.636719 16.878906 24.390625 16.660156 24.136719 C 16.371094 23.890625 16.214844 23.847656 15.84375 23.855469 C 15.613281 23.882812 15.484375 23.96875 15.3125 24.125 Z M 15.3125 24.125 "/>
<path style=" stroke:none;fill-rule:nonzero;fill:rgb(0%,0%,0%);fill-opacity:1;" d="M 21.605469 11.90625 C 21.703125 11.90625 21.703125 11.90625 21.804688 11.90625 C 22.949219 11.933594 23.8125 12.390625 24.625 13.1875 C 24.664062 13.226562 24.703125 13.265625 24.746094 13.304688 C 25.433594 14.019531 25.726562 15.007812 25.71875 15.980469 C 25.71875 16.046875 25.71875 16.109375 25.71875 16.179688 C 25.691406 17.324219 25.234375 18.1875 24.4375 19 C 24.398438 19.039062 24.359375 19.078125 24.320312 19.121094 C 23.605469 19.808594 22.617188 20.101562 21.644531 20.09375 C 21.578125 20.09375 21.515625 20.09375 21.445312 20.09375 C 20.300781 20.066406 19.4375 19.609375 18.625 18.8125 C 18.585938 18.773438 18.546875 18.734375 18.503906 18.695312 C 17.816406 17.980469 17.523438 16.992188 17.53125 16.019531 C 17.53125 15.953125 17.53125 15.890625 17.53125 15.820312 C 17.558594 14.675781 18.015625 13.8125 18.8125 13 C 18.851562 12.960938 18.890625 12.921875 18.929688 12.878906 C 19.644531 12.191406 20.632812 11.898438 21.605469 11.90625 Z M 21.605469 11.90625 "/>
<path style=" stroke:none;fill-rule:nonzero;fill:rgb(0%,0%,0%);fill-opacity:1;" d="M 15.980469 11.917969 C 16.042969 11.917969 16.101562 11.917969 16.167969 11.917969 C 16.527344 11.921875 16.839844 11.960938 17.1875 12.0625 C 17.097656 12.253906 16.992188 12.410156 16.867188 12.578125 C 15.925781 13.914062 15.597656 15.507812 15.851562 17.121094 C 16.027344 18.003906 16.410156 18.800781 16.941406 19.519531 C 17.039062 19.65625 17.117188 19.785156 17.1875 19.9375 C 16.144531 20.242188 15.042969 20.125 14.070312 19.664062 C 13.664062 19.441406 13.328125 19.136719 13 18.8125 C 12.960938 18.773438 12.921875 18.734375 12.878906 18.695312 C 12.191406 17.980469 11.898438 16.992188 11.90625 16.019531 C 11.90625 15.953125 11.90625 15.890625 11.90625 15.820312 C 11.933594 14.675781 12.390625 13.8125 13.1875 13 C 13.226562 12.960938 13.265625 12.921875 13.304688 12.878906 C 14.023438 12.1875 15.003906 11.902344 15.980469 11.917969 Z M 15.980469 11.917969 "/>
</g>
</svg>
